<?xml version="1.0" encoding="utf-8"?>
<!-- Generated by IcoMoon.io -->
<!DOCTYPE svg PUBLIC "-//W3C//DTD SVG 1.1//EN" "http://www.w3.org/Graphics/SVG/1.1/DTD/svg11.dtd">
<svg version="1.1" xmlns="http://www.w3.org/2000/svg" xmlns:xlink="http://www.w3.org/1999/xlink" width="32" height="32" viewBox="0 0 32 32">
<path d="M28 11.093c-2.347 1.44-3.52 3.573-3.307 6.347s1.707 4.64 4.107 5.867c-0.107 0.32-0.267 0.693-0.373 1.067-0.8 2.080-2.027 3.947-3.52 5.6-0.64 0.693-1.333 1.227-2.293 1.44-0.747 0.16-1.44 0.053-2.133-0.16-0.587-0.16-1.12-0.427-1.653-0.587-1.6-0.587-3.2-0.427-4.747 0.213-0.587 0.267-1.173 0.48-1.813 0.587-0.907 0.16-1.76-0.053-2.507-0.587-0.853-0.587-1.493-1.333-2.133-2.187-1.867-2.4-3.040-5.067-3.68-8-0.32-1.6-0.48-3.2-0.32-4.8 0.213-1.867 0.8-3.573 2.027-5.067 1.28-1.547 2.933-2.453 4.907-2.72 1.013-0.107 1.973 0.053 2.88 0.373 0.747 0.267 1.493 0.533 2.293 0.8 0.427 0.16 0.853 0.16 1.28 0 0.853-0.32 1.653-0.587 2.507-0.853 0.8-0.267 1.653-0.48 2.507-0.427 1.92 0.107 3.68 0.693 5.067 2.027 0.267 0.267 0.48 0.533 0.693 0.8 0.107 0.053 0.16 0.16 0.213 0.267zM22.4 0.533c0 0.427 0.053 0.853 0 1.28-0.267 2.133-1.333 3.787-3.040 5.013-0.907 0.64-1.92 0.907-2.987 0.853-0.053 0-0.053 0-0.107 0 0 0-0.053 0-0.053 0 0-0.427-0.053-0.8 0-1.227 0.373-2.613 1.867-4.373 4.267-5.44 0.533-0.267 1.12-0.373 1.707-0.48 0.053 0 0.107 0 0.213 0z"></path>
</svg>
