<svg xmlns="http://www.w3.org/2000/svg" width="32" height="32" viewBox="0 0 32 32"><path d="M29.496 12.125H27.76c-1.065 0-1.998-.9-2.071-1.938C25.688 4.658 21.229.5 15.661.5H10.58C5.017.5.504 4.98.5 10.51v10.983C.5 27.023 5.017 31.5 10.581 31.5h10.852c5.568 0 10.067-4.477 10.067-10.006v-7.097c0-1.104-.892-2.272-2.004-2.272zM10.188 8.25H16c1.065 0 1.938.872 1.938 1.938s-.873 1.937-1.938 1.937h-5.812c-1.066 0-1.938-.872-1.938-1.938s.872-1.937 1.938-1.937zm11.624 15.5H10.188c-1.066 0-1.938-.872-1.938-1.938s.872-1.938 1.938-1.938h11.625c1.065 0 1.938.872 1.938 1.938s-.873 1.938-1.939 1.938z"/></svg>