<svg xmlns="http://www.w3.org/2000/svg" width="33" height="32" viewBox="0 0 33 32"><path d="M16.404 0C7.375.041.071 7.369.071 16.404c0 7.176 4.608 13.276 11.027 15.503.218.085.34.114.468.114a.82.82 0 0 0 .82-.82l-.001-.047v-2.787c-4.558.996-5.531-2.203-5.531-2.203-.124-.721-.831-1.714-1.799-2.333-1.506-1.03.1-1.006.1-1.006.984.09 1.953.741 2.499 1.671.622 1.097 1.765 1.815 3.076 1.815.624 0 1.211-.163 1.719-.448.016-.756.41-1.581 1.025-2.181-3.643-.411-7.475-1.817-7.475-8.109l-.001-.099c0-1.665.642-3.18 1.692-4.311a5.632 5.632 0 0 1-.344-1.964c0-.861.186-1.679.52-2.416s1.297-.42 4.438 1.724c1.23-.35 2.642-.551 4.101-.551s2.871.201 4.211.577c3.019-2.147 4.402-1.714 4.402-1.714.319.7.505 1.518.505 2.379 0 .706-.125 1.383-.354 2.009 1.059 1.085 1.701 2.598 1.701 4.261v.072c0 6.3-3.832 7.683-7.487 8.093a3.901 3.901 0 0 1 1.171 3.046l.001 4.488-.001.045a.82.82 0 0 0 1.178.738c6.547-2.248 11.172-8.358 11.172-15.547 0-9.06-7.344-16.404-16.404-16.404h-.097z"/></svg>