<svg xmlns="http://www.w3.org/2000/svg" width="32" height="32" viewBox="0 0 32 32"><path d="M17.425 2.904H9.314c-3.637 0-7.06 2.755-7.06 5.946 0 3.261 2.479 5.893 6.18 5.893.257 0 .507-.005.751-.022-.24.459-.412.977-.412 1.514 0 .907.487 1.642 1.104 2.241-.465 0-.915.014-1.407.014-4.503 0-7.97 2.868-7.97 5.844 0 2.929 3.8 4.762 8.305 4.762 5.135 0 7.971-2.913 7.971-5.844 0-2.349-.693-3.756-2.836-5.271-.733-.52-2.135-1.782-2.135-2.523 0-.869.248-1.298 1.557-2.32 1.342-1.048 2.291-2.522 2.291-4.235 0-2.041-.908-4.029-2.614-4.686h2.571l1.815-1.313zm-2.834 19.842c.064.271.1.552.1.837 0 2.367-1.526 4.217-5.903 4.217-3.113 0-5.361-1.971-5.361-4.338 0-2.32 2.789-4.252 5.902-4.218a6.808 6.808 0 0 1 2.018.323c1.691 1.176 2.903 1.841 3.244 3.179zm-4.984-8.829c-2.09-.063-4.075-2.338-4.437-5.083C4.81 6.09 6.21 3.99 8.3 4.051c2.09.063 4.075 2.265 4.437 5.009.361 2.746-1.042 4.92-3.13 4.857zm16.081-5.201V2.904H23.75v5.812h-5.812v1.938h5.812v5.812h1.938v-5.812H31.5V8.716h-5.812z"/></svg>