<?xml version="1.0" encoding="utf-8"?>
<!-- Generated by IcoMoon.io -->
<!DOCTYPE svg PUBLIC "-//W3C//DTD SVG 1.1//EN" "http://www.w3.org/Graphics/SVG/1.1/DTD/svg11.dtd">
<svg version="1.1" xmlns="http://www.w3.org/2000/svg" xmlns:xlink="http://www.w3.org/1999/xlink" width="32" height="32" viewBox="0 0 32 32">
<path d="M17.425 2.904c0 0-6.083 0-8.111 0-3.637 0-7.060 2.755-7.060 5.946 0 3.261 2.479 5.893 6.18 5.893 0.257 0 0.507-0.005 0.751-0.022-0.24 0.459-0.412 0.977-0.412 1.514 0 0.907 0.487 1.642 1.104 2.241-0.465 0-0.915 0.014-1.407 0.014-4.503 0-7.97 2.868-7.97 5.844 0 2.929 3.8 4.762 8.305 4.762 5.135 0 7.971-2.913 7.971-5.844 0-2.349-0.693-3.756-2.836-5.271-0.733-0.52-2.135-1.782-2.135-2.523 0-0.869 0.248-1.298 1.557-2.32 1.342-1.048 2.291-2.522 2.291-4.235 0-2.041-0.908-4.029-2.614-4.686h2.571l1.815-1.313zM14.591 22.746c0.064 0.271 0.1 0.552 0.1 0.837 0 2.367-1.526 4.217-5.903 4.217-3.113 0-5.361-1.971-5.361-4.338 0-2.32 2.789-4.252 5.902-4.218 0.727 0.008 1.404 0.125 2.018 0.323 1.691 1.176 2.903 1.841 3.244 3.179zM9.607 13.917c-2.090-0.063-4.075-2.338-4.437-5.083-0.36-2.744 1.040-4.844 3.13-4.783 2.090 0.063 4.075 2.265 4.437 5.009 0.361 2.746-1.042 4.92-3.13 4.857zM25.688 8.716v-5.812h-1.938v5.812h-5.812v1.938h5.812v5.812h1.938v-5.812h5.812v-1.938h-5.812z"></path>
</svg>
