<?xml version="1.0" encoding="utf-8"?>
<!-- Generated by IcoMoon.io -->
<!DOCTYPE svg PUBLIC "-//W3C//DTD SVG 1.1//EN" "http://www.w3.org/Graphics/SVG/1.1/DTD/svg11.dtd">
<svg version="1.1" xmlns="http://www.w3.org/2000/svg" xmlns:xlink="http://www.w3.org/1999/xlink" width="32" height="32" viewBox="0 0 32 32">
<path d="M26.666 0h-21.332c-2.934 0-5.334 2.4-5.334 5.334v21.332c0 2.936 2.4 5.334 5.334 5.334h21.332c2.934 0 5.334-2.398 5.334-5.334v-21.332c0-2.934-2.4-5.334-5.334-5.334zM9.837 26.79h-4.839v-14.561h4.839v14.561zM7.418 10.242h-0.032c-1.624 0-2.674-1.119-2.674-2.518 0-1.428 1.082-2.515 2.738-2.515s2.674 1.087 2.706 2.515c-0.001 1.399-1.051 2.518-2.738 2.518zM27.288 26.79h-4.839v-7.79c0-1.957-0.7-3.292-2.451-3.292-1.337 0-2.135 0.899-2.482 1.771-0.129 0.311-0.16 0.744-0.16 1.18v8.132h-4.839c0 0 0.064-13.194 0-14.56h4.839v2.062c0.644-0.992 1.793-2.405 4.362-2.405 3.185 0 5.572 2.082 5.572 6.554l-0.002 8.348z"></path>
</svg>
