<svg xmlns="http://www.w3.org/2000/svg" width="32" height="32" viewBox="0 0 32 32"><path d="M26.666 0H5.334C2.4 0 0 2.4 0 5.334v21.332C0 29.602 2.4 32 5.334 32h21.332C29.6 32 32 29.602 32 26.666V5.334C32 2.4 29.6 0 26.666 0zM9.837 26.79H4.998V12.229h4.839V26.79zM7.418 10.242h-.032c-1.624 0-2.674-1.119-2.674-2.518 0-1.428 1.082-2.515 2.738-2.515s2.674 1.087 2.706 2.515c-.001 1.399-1.051 2.518-2.738 2.518zm19.87 16.548h-4.839V19c0-1.957-.7-3.292-2.451-3.292-1.337 0-2.135.899-2.482 1.771-.129.311-.16.744-.16 1.18v8.132h-4.839s.064-13.194 0-14.56h4.839v2.062c.644-.992 1.793-2.405 4.362-2.405 3.185 0 5.572 2.082 5.572 6.554l-.002 8.348z"/></svg>