<?xml version="1.0" encoding="utf-8"?>
<!-- Generated by IcoMoon.io -->
<!DOCTYPE svg PUBLIC "-//W3C//DTD SVG 1.1//EN" "http://www.w3.org/Graphics/SVG/1.1/DTD/svg11.dtd">
<svg version="1.1" xmlns="http://www.w3.org/2000/svg" xmlns:xlink="http://www.w3.org/1999/xlink" width="32" height="32" viewBox="0 0 32 32">
<path d="M16 1.067c-8.267 0-14.933 6.667-14.933 14.933s6.667 14.933 14.933 14.933 14.933-6.667 14.933-14.933c0-8.267-6.667-14.933-14.933-14.933zM11.040 23.253h-1.653v-12.64h1.653v12.64zM11.093 8.853c-0.213 0.213-0.533 0.373-0.853 0.373s-0.587-0.107-0.8-0.373c-0.213-0.213-0.373-0.533-0.373-0.853s0.107-0.587 0.373-0.8c0.213-0.213 0.48-0.373 0.8-0.373s0.587 0.107 0.853 0.32c0.213 0.213 0.373 0.48 0.373 0.853 0 0.32-0.16 0.64-0.373 0.853zM24.96 19.36c-0.32 0.8-0.8 1.493-1.387 2.080-0.64 0.587-1.333 1.067-2.187 1.387-0.48 0.213-0.907 0.32-1.333 0.373s-1.173 0.107-2.293 0.107h-4.053v-12.8h4.32c1.76 0 3.093 0.267 4.107 0.8s1.813 1.28 2.4 2.293c0.587 1.013 0.907 2.133 0.907 3.307 0.053 0.853-0.107 1.653-0.48 2.453zM21.013 12.64c-0.427-0.213-0.853-0.32-1.28-0.427-0.373-0.053-1.013-0.107-1.92-0.107h-2.293v9.493h2.347c0.907 0 1.653-0.053 2.133-0.213 0.48-0.107 0.907-0.267 1.28-0.48 0.32-0.213 0.64-0.427 0.907-0.693 0.907-0.907 1.333-2.080 1.333-3.467s-0.48-2.507-1.387-3.36c-0.267-0.267-0.693-0.533-1.12-0.747z"></path>
</svg>
