<svg xmlns="http://www.w3.org/2000/svg" width="32" height="32" viewBox="0 0 32 32"><path d="M16 1.067C7.733 1.067 1.067 7.734 1.067 16S7.734 30.933 16 30.933 30.933 24.266 30.933 16A14.908 14.908 0 0 0 16 1.067zm-4.96 22.186H9.387v-12.64h1.653v12.64zm.053-14.4c-.213.213-.533.373-.853.373s-.587-.107-.8-.373C9.227 8.64 9.067 8.32 9.067 8s.107-.587.373-.8c.213-.213.48-.373.8-.373s.587.107.853.32c.213.213.373.48.373.853 0 .32-.16.64-.373.853zM24.96 19.36c-.32.8-.8 1.493-1.387 2.08-.64.587-1.333 1.067-2.187 1.387-.48.213-.907.32-1.333.373s-1.173.107-2.293.107h-4.053v-12.8h4.32c1.76 0 3.093.267 4.107.8s1.813 1.28 2.4 2.293a6.554 6.554 0 0 1 .907 3.307 4.943 4.943 0 0 1-.48 2.453zm-3.947-6.72c-.427-.213-.853-.32-1.28-.427-.373-.053-1.013-.107-1.92-.107H15.52v9.493h2.347c.907 0 1.653-.053 2.133-.213.48-.107.907-.267 1.28-.48.32-.213.64-.427.907-.693.907-.907 1.333-2.08 1.333-3.467s-.48-2.507-1.387-3.36c-.267-.267-.693-.533-1.12-.747z"/></svg>