<svg xmlns="http://www.w3.org/2000/svg" width="32" height="32" viewBox="0 0 32 32"><path d="M30.478 18.061c.088-.65.138-1.311.138-1.983 0-8.072-6.579-14.617-14.694-14.617-.806 0-1.597.066-2.367.192A8.766 8.766 0 0 0-.001 8.999c0 1.762.519 3.4 1.412 4.774a14.59 14.59 0 0 0-.182 2.304c0 8.073 6.576 14.618 14.693 14.618.916 0 1.808-.089 2.675-.246a8.768 8.768 0 0 0 13.402-7.448c0-1.831-.56-3.533-1.522-4.94zM17.296 26.85c-4.669.243-6.854-.79-8.856-2.668-2.235-2.098-1.337-4.491.484-4.613 1.82-.122 2.913 2.063 3.884 2.671.97.605 4.662 1.985 6.612-.244 2.123-2.427-1.412-3.683-4.004-4.063-3.7-.548-8.372-2.55-8.008-6.494.364-3.942 3.349-5.963 6.491-6.248 4.005-.364 6.612.607 8.674 2.366 2.384 2.033 1.094 4.306-.425 4.489-1.513.182-3.213-3.344-6.549-3.397-3.439-.054-5.764 3.579-1.518 4.612 4.248 1.032 8.797 1.455 10.435 5.339 1.639 3.884-2.547 8.008-7.22 8.251z"/></svg>