<svg xmlns="http://www.w3.org/2000/svg" width="32" height="32" viewBox="0 0 32 32"><path d="M23.04 11.2c-1.387-1.28-3.52-1.333-5.013-.107-1.28 1.067-1.6 2.88-.747 4.267.747 1.173 1.813 1.653 3.147 1.707.64 0 1.28-.16 1.867-.48 2.133-1.12 2.507-3.84.747-5.387zM9.6 10.987c-1.333 1.067-1.707 2.773-.907 4.16.693 1.28 1.867 1.867 3.307 1.92.747 0 1.28-.16 1.867-.48 2.027-1.067 2.4-3.68.8-5.333-1.387-1.28-3.627-1.44-5.067-.267zm20.587 4.373c-.16.053-.32.107-.48.213-.107.053-.16.16-.267.107s-.053-.213-.053-.267V3.946c0-1.493-1.227-2.827-2.827-2.827-3.52.053-7.04 0-10.56 0H5.333c-.213 0-.427 0-.64.053-1.227.32-2.08 1.44-2.08 2.773v11.52c0 .053 0 .16-.053.213-.107.053-.16-.053-.213-.053-.213-.16-.373-.267-.64-.267-.32-.053-.64.213-.64.587-.053.427.213.693.427.96.693.8 1.493 1.44 2.4 2.027 1.067.747 2.24 1.333 3.413 1.867.267.107.267.16.213.427s-.16.587-.213.853c-.32 1.547-.427 3.147-.107 4.693.32 1.44 1.013 2.667 2.187 3.627.693.587 1.493.907 2.4 1.067.747.107 1.493.053 2.24-.32s1.227-.96 1.493-1.76c.107-.373.16-.747.16-1.12v-5.28c0-.48 0-.48.48-.373.32.107.32.107.32.427v5.227c0 .213 0 .427.053.693.213 1.333 1.28 2.4 2.56 2.507.64.053 1.227.053 1.867-.16.427-.16.853-.267 1.227-.48 1.227-.747 1.973-1.813 2.453-3.093.533-1.387.587-2.88.373-4.373a26.627 26.627 0 0 0-.427-2.187c-.053-.213 0-.267.16-.373.053 0 .107-.053.16-.053a18.554 18.554 0 0 0 3.627-2.027c.8-.587 1.547-1.227 2.187-1.973a1.65 1.65 0 0 0 .32-.693c-.053-.427-.373-.8-.853-.693zm-2.507 1.493c-1.813.907-3.733 1.493-5.76 1.6-1.013.053-2.08.053-3.093 0-.427 0-.853-.053-1.28.053-.587.16-.96.48-1.067 1.067-.053.267-.107.267-.32.107-.32-.213-.587-.48-.853-.747a2.129 2.129 0 0 0-1.227-.533c-.64-.053-1.28 0-1.92.053-.587.053-1.12 0-1.707-.053a13.33 13.33 0 0 1-4.053-.8c-.64-.213-1.28-.48-1.92-.8-.16 0-.213-.107-.213-.267V4.96c0-.373.053-.747.16-1.067.213-.64.64-1.013 1.28-1.12.267-.053.533-.107.853-.107H25.6c.32 0 .587.053.907.107.587.16 1.013.533 1.227 1.12.16.373.213.8.213 1.227v11.253c0 .267-.107.373-.267.48z"/></svg>