<?xml version="1.0" encoding="utf-8"?>
<!-- Generated by IcoMoon.io -->
<!DOCTYPE svg PUBLIC "-//W3C//DTD SVG 1.1//EN" "http://www.w3.org/Graphics/SVG/1.1/DTD/svg11.dtd">
<svg version="1.1" xmlns="http://www.w3.org/2000/svg" xmlns:xlink="http://www.w3.org/1999/xlink" width="32" height="32" viewBox="0 0 32 32">
<path d="M27.692 18.36c-0.303 1.509-0.805 2.851-1.454 3.954 1.073 1.732 2.516 2.79 4.072 2.79 0.573 0 1.14-0.144 1.691-0.428-2.022-0.78-3.631-3.173-4.308-6.317zM11.15 23.215c-1.048-1.169-1.85-2.862-2.28-4.855-0.303 1.509-0.804 2.851-1.454 3.954 0.544 0.879 1.185 1.583 1.887 2.064 0.661-0.198 1.284-0.598 1.847-1.163zM4.69 14.782c0.303-1.509 0.804-2.851 1.454-3.954-1.073-1.732-2.516-2.79-4.072-2.79-0.573 0-1.14 0.144-1.691 0.428 2.022 0.78 3.631 3.172 4.308 6.316zM11.826 9.926c1.048 1.169 1.85 2.862 2.28 4.855 0.303-1.509 0.804-2.851 1.454-3.954-0.544-0.879-1.185-1.583-1.887-2.064-0.66 0.198-1.284 0.598-1.846 1.163zM17.707 16.556c0.034-0.352 0.082-0.695 0.137-1.034 0.041-0.251 0.087-0.497 0.14-0.74 0.43-1.995 1.232-3.687 2.279-4.856 0.055-0.061 0.113-0.117 0.169-0.175s0.111-0.12 0.169-0.175c0.517-0.498 1.085-0.876 1.69-1.11 0 0 0.001-0 0.002-0.001-0.006-0.003-0.012-0.005-0.018-0.008-0.128-0.066-0.258-0.124-0.388-0.174-0.011-0.004-0.021-0.008-0.032-0.011-0.122-0.046-0.244-0.084-0.366-0.116-0.016-0.004-0.032-0.009-0.047-0.013-0.124-0.031-0.249-0.054-0.375-0.071-0.027-0.004-0.054-0.007-0.081-0.010-0.128-0.014-0.255-0.024-0.384-0.024s-0.256 0.010-0.384 0.024c-0.027 0.003-0.053 0.006-0.080 0.009-0.126 0.017-0.252 0.040-0.376 0.071-0.015 0.004-0.029 0.008-0.044 0.012-0.125 0.033-0.249 0.072-0.372 0.118-0.009 0.003-0.018 0.006-0.026 0.009-0.131 0.051-0.262 0.11-0.392 0.176-0.005 0.003-0.010 0.005-0.015 0.008-0.087 0.045-0.174 0.093-0.26 0.145-0.079 0.048-0.158 0.098-0.235 0.151-0.702 0.481-1.342 1.185-1.887 2.064-0.052 0.085-0.105 0.17-0.155 0.258-0.050 0.086-0.098 0.175-0.146 0.265-0.764 1.423-1.295 3.22-1.476 5.221-0 0.005-0.001 0.010-0.002 0.015-0.034 0.352-0.082 0.695-0.137 1.034-0.041 0.251-0.088 0.497-0.14 0.74-0.43 1.995-1.232 3.688-2.28 4.856-0.055 0.061-0.113 0.117-0.169 0.175s-0.111 0.12-0.169 0.175c-0.517 0.498-1.085 0.876-1.69 1.11-0 0-0.001 0-0.001 0 0.006 0.003 0.011 0.005 0.017 0.008 0.129 0.066 0.259 0.125 0.39 0.175 0.010 0.004 0.021 0.007 0.031 0.011 0.122 0.046 0.244 0.084 0.366 0.116 0.016 0.004 0.032 0.009 0.049 0.014 0.124 0.031 0.249 0.054 0.374 0.071 0.027 0.004 0.054 0.007 0.081 0.010 0.128 0.014 0.255 0.024 0.384 0.024s0.256-0.010 0.384-0.024c0.027-0.003 0.054-0.006 0.081-0.010 0.125-0.017 0.25-0.040 0.375-0.071 0.016-0.004 0.032-0.009 0.048-0.013 0.123-0.032 0.245-0.071 0.367-0.117 0.010-0.004 0.021-0.007 0.031-0.011 0.131-0.050 0.261-0.109 0.39-0.175 0.005-0.003 0.010-0.005 0.015-0.008 0.087-0.045 0.174-0.093 0.26-0.145 0.079-0.048 0.158-0.098 0.235-0.152 0.702-0.481 1.342-1.186 1.887-2.064 0.052-0.085 0.105-0.17 0.155-0.258 0.050-0.086 0.098-0.175 0.146-0.265 0.764-1.423 1.296-3.22 1.477-5.221-0.001-0.005 0-0.010 0-0.015zM8.226 16.556c0.034-0.353 0.082-0.696 0.137-1.034 0.041-0.251 0.088-0.497 0.14-0.74 0.43-1.995 1.232-3.687 2.28-4.856 0.055-0.061 0.113-0.117 0.169-0.175s0.111-0.12 0.169-0.176c0.517-0.498 1.085-0.876 1.689-1.11 0 0 0.001-0 0.002-0.001-0.006-0.003-0.012-0.005-0.018-0.008-0.129-0.066-0.258-0.124-0.389-0.174-0.010-0.004-0.020-0.007-0.031-0.011-0.122-0.046-0.245-0.085-0.368-0.117-0.015-0.004-0.031-0.009-0.046-0.013-0.125-0.031-0.25-0.054-0.375-0.071-0.027-0.004-0.054-0.006-0.081-0.009-0.128-0.014-0.255-0.024-0.384-0.024s-0.256 0.010-0.384 0.024c-0.027 0.003-0.054 0.006-0.081 0.010-0.125 0.017-0.25 0.040-0.375 0.071-0.016 0.004-0.031 0.009-0.047 0.013-0.123 0.032-0.246 0.071-0.367 0.117-0.010 0.004-0.021 0.007-0.031 0.011-0.13 0.050-0.26 0.109-0.389 0.175-0.006 0.003-0.011 0.006-0.017 0.009-0.088 0.045-0.174 0.093-0.26 0.145-0.079 0.048-0.158 0.098-0.235 0.151-0.702 0.481-1.343 1.185-1.887 2.064-0.052 0.085-0.105 0.17-0.155 0.258-0.050 0.086-0.098 0.175-0.146 0.265-0.764 1.423-1.295 3.22-1.476 5.221-0 0.005-0.001 0.010-0.002 0.015-0.034 0.353-0.082 0.696-0.137 1.034-0.041 0.251-0.088 0.497-0.14 0.74-0.675 3.145-2.283 5.537-4.306 6.317 0.55 0.285 1.117 0.428 1.691 0.428 1.555 0 2.999-1.058 4.072-2.79 0.052-0.085 0.105-0.17 0.155-0.258 0.050-0.086 0.098-0.175 0.146-0.265 0.764-1.423 1.295-3.221 1.477-5.221 0-0.005 0.001-0.009 0.002-0.015zM20.648 23.223c-1.048-1.169-1.85-2.862-2.28-4.855-0.303 1.509-0.804 2.851-1.454 3.954 0.544 0.879 1.185 1.583 1.887 2.064 0.66-0.198 1.284-0.598 1.847-1.163zM21.323 9.934c1.048 1.169 1.85 2.862 2.279 4.855 0.303-1.509 0.804-2.851 1.454-3.954-0.544-0.879-1.185-1.583-1.887-2.064-0.66 0.198-1.284 0.598-1.846 1.163zM27.204 16.564c0.034-0.352 0.082-0.695 0.137-1.034 0.041-0.251 0.087-0.497 0.14-0.74 0.43-1.995 1.231-3.687 2.279-4.856 0.055-0.061 0.113-0.117 0.169-0.175s0.111-0.12 0.169-0.175c0.517-0.498 1.085-0.876 1.69-1.11 0 0 0.001-0 0.002-0.001-0.006-0.003-0.012-0.005-0.018-0.008-0.128-0.066-0.258-0.124-0.388-0.174-0.011-0.004-0.021-0.008-0.032-0.011-0.122-0.046-0.244-0.084-0.366-0.116-0.016-0.004-0.032-0.009-0.047-0.013-0.124-0.031-0.249-0.054-0.375-0.071-0.027-0.004-0.054-0.007-0.081-0.010-0.128-0.014-0.255-0.024-0.384-0.024s-0.256 0.010-0.384 0.024c-0.027 0.003-0.053 0.006-0.080 0.009-0.126 0.017-0.252 0.040-0.376 0.071-0.015 0.004-0.029 0.008-0.044 0.012-0.125 0.033-0.249 0.072-0.372 0.118-0.009 0.003-0.018 0.006-0.026 0.009-0.131 0.051-0.262 0.11-0.392 0.176-0.005 0.003-0.010 0.005-0.015 0.008-0.087 0.045-0.174 0.093-0.26 0.145-0.079 0.048-0.158 0.098-0.235 0.151-0.702 0.481-1.342 1.185-1.887 2.064-0.052 0.085-0.105 0.17-0.155 0.258-0.050 0.086-0.098 0.175-0.146 0.265-0.764 1.423-1.295 3.22-1.477 5.221-0 0.005-0.001 0.010-0.002 0.015-0.034 0.352-0.082 0.695-0.137 1.034-0.041 0.251-0.088 0.497-0.14 0.74-0.43 1.995-1.232 3.688-2.279 4.856-0.055 0.061-0.113 0.117-0.169 0.175s-0.111 0.12-0.169 0.175c-0.517 0.498-1.085 0.876-1.69 1.11-0 0-0.001 0-0.001 0 0.006 0.003 0.011 0.005 0.017 0.008 0.129 0.066 0.259 0.125 0.39 0.175 0.010 0.004 0.021 0.007 0.031 0.011 0.122 0.046 0.244 0.084 0.366 0.116 0.016 0.004 0.032 0.009 0.049 0.014 0.124 0.031 0.249 0.054 0.374 0.071 0.027 0.004 0.054 0.007 0.081 0.010 0.128 0.014 0.255 0.024 0.384 0.024s0.256-0.010 0.384-0.024c0.027-0.003 0.054-0.006 0.081-0.009 0.125-0.017 0.25-0.040 0.375-0.071 0.016-0.004 0.032-0.009 0.048-0.013 0.123-0.032 0.245-0.071 0.367-0.117 0.010-0.004 0.021-0.007 0.031-0.011 0.131-0.050 0.261-0.109 0.39-0.175 0.005-0.003 0.010-0.005 0.015-0.008 0.087-0.045 0.174-0.093 0.26-0.145 0.079-0.048 0.158-0.098 0.235-0.152 0.702-0.481 1.342-1.186 1.887-2.064 0.052-0.085 0.105-0.17 0.155-0.258 0.050-0.086 0.098-0.175 0.146-0.265 0.764-1.423 1.296-3.22 1.477-5.221-0.001-0.005-0-0.010 0-0.015z"></path>
</svg>
