<?xml version="1.0" encoding="utf-8"?>
<!-- Generated by IcoMoon.io -->
<!DOCTYPE svg PUBLIC "-//W3C//DTD SVG 1.1//EN" "http://www.w3.org/Graphics/SVG/1.1/DTD/svg11.dtd">
<svg version="1.1" xmlns="http://www.w3.org/2000/svg" xmlns:xlink="http://www.w3.org/1999/xlink" width="32" height="32" viewBox="0 0 32 32">
<path d="M24.397 21.256c-0.432-0.351-0.92-0.628-1.449-0.849-0.265 0.449-0.596 0.853-0.98 1.201 0.633 0.225 1.143 0.537 1.524 0.94 0.462 0.491 0.56 1.094 0.293 1.812-0.268 0.798-0.814 1.634-1.683 2.038-3.695 1.714-6.363-2.667-11.665-2.868-0.873-0.033-1.703 0.312-2.49 0.778-0.788 0.467-1.315 1.081-1.582 1.837-0.115 0.28-0.298 1.159 0.363 1.562 0.477 0.291 1.163 0.113 1.277-0.166 0.307-0.798 0.909-1.286 1.796-1.513 4.072-1.040 7.305 3.918 12.34 2.275 0.99-0.323 1.891-1.139 2.514-1.981s0.85-1.748 0.876-2.781c-0.011-0.834-0.411-1.699-1.134-2.284zM25.277 11.742c-0.056 0.354-0.116 0.806-0.185 1.307-0.12 1.481-0.384 2.876-0.779 4.113-0.048 0.151-0.099 0.299-0.151 0.445-0.076 0.213-0.155 0.42-0.239 0.622 0.872 1.759 2.415 3.243 3.667 3.243 0.464 0 0.924-0.147 1.369-0.438-1.637-0.799-3.377-3.093-3.682-9.29zM6.529 11c0.245-1.546 0.651-2.92 1.178-4.050-0.869-1.774-2.039-2.857-3.298-2.857-0.464 0-0.924 0.147-1.369 0.438 1.638 0.799 2.941 3.249 3.489 6.469zM14.213 20.6c-2.703 0.049-3.816-3.677-4.165-5.249-0.047-0.225-0.092-0.453-0.132-0.686-0.245 1.546-0.651 2.92-1.178 4.050 1.544 3.649 4.917 3.549 6.707 3.199-0.483-0.363-0.902-0.807-1.232-1.314zM7.953 18.715c0.043-0.087 0.085-0.174 0.126-0.264 0.040-0.088 0.079-0.18 0.118-0.271 0.619-1.458 1.050-3.299 1.196-5.347 0-0.005 0.001-0.011 0.001-0.016 0.027-0.36 0.066-0.71 0.111-1.055 0.166-0.844 0.531-2.452 1.092-3.526 1.219-2.337 4.14-2.593 6.045-2.54 2.781 0.077 5.204 1.198 5.991 3.468 0.174-0.642 0.381-1.247 0.618-1.807 0.040-0.095 0.081-0.188 0.122-0.279 0.043-0.093 0.086-0.184 0.13-0.273 0.065-0.133 0.133-0.262 0.201-0.387-0.776-1.195-2.691-2.87-7.315-2.755-3.193 0.079-6.418 0.164-8.168 3.799-0.012 0.009-0.021 0.017-0.023 0.021-0.025 0.059-0.047 0.121-0.072 0.181-0.418 0.928-0.745 2.072-0.958 3.492l0.023 0.012c-0.083 0.536-0.148 1.090-0.189 1.662-0 0.005-0.001 0.011-0.001 0.015-0.027 0.361-0.067 0.712-0.111 1.059-0.033 0.257-0.071 0.509-0.113 0.757-0.549 3.221-1.852 5.671-3.49 6.47 0.445 0.291 0.905 0.438 1.369 0.438 1.26 0.001 2.429-1.083 3.298-2.857zM22.717 12.864c-0.026 0.345-0.062 0.687-0.114 1.094-0.026 0.207-0.059 0.409-0.091 0.61 0.576 0.71 0.963 1.576 1.096 2.523 0.422-1.272 0.701-2.728 0.812-4.276 0.026-0.345 0.062-0.687 0.114-1.094 0.034-0.262 0.072-0.519 0.115-0.772 0.357-2.091 1.015-3.86 1.905-5.115 0.032-0.046 0.066-0.088 0.099-0.131l0.085-0.112c0.035-0.046 0.069-0.092 0.105-0.136 0.293-0.357 0.603-0.655 0.927-0.89-0.017-0.006-0.033-0.012-0.050-0.017l-0.034-0.012c-0.081-0.025-0.165-0.046-0.259-0.062l-0.044-0.007c-0.225-0.032-0.331-0.030-0.535-0.002l-0.056 0.009c-0.093 0.016-0.177 0.036-0.26 0.062l-0.030 0.011c-0.087 0.029-0.175 0.063-0.262 0.105-0.11 0.053-0.205 0.107-0.301 0.169-0.075 0.049-0.138 0.094-0.201 0.141-0.058 0.044-0.116 0.092-0.174 0.142-0.532 0.462-1.019 1.137-1.444 2.005-0.011 0.022-0.021 0.044-0.032 0.067-0.030 0.062-0.061 0.124-0.090 0.189-0.039 0.085-0.076 0.174-0.115 0.263-0.349 0.821-0.772 2.109-1.019 3.852-0.061 0.435-0.114 0.891-0.15 1.384zM18.522 22.341c0.716 0 1.391-0.171 1.993-0.468 0.325-0.16 0.629-0.354 0.905-0.583 0.319-0.266 0.6-0.574 0.836-0.917 0.040-0.058 0.076-0.119 0.114-0.179 0.293-0.468 0.502-0.992 0.607-1.554 0.051-0.272 0.081-0.55 0.081-0.837 0-0.885-0.259-1.709-0.699-2.408-0.086-0.136-0.177-0.267-0.277-0.393-0.091-0.115-0.187-0.226-0.288-0.332-0.826-0.863-1.987-1.403-3.273-1.403-2.501 0-4.536 2.035-4.536 4.536 0 1.015 0.34 1.95 0.905 2.707 0.365 0.488 0.824 0.9 1.352 1.209 0.67 0.392 1.447 0.621 2.279 0.621z"></path>
</svg>
