<?xml version="1.0" encoding="utf-8"?>
<!-- Generated by IcoMoon.io -->
<!DOCTYPE svg PUBLIC "-//W3C//DTD SVG 1.1//EN" "http://www.w3.org/Graphics/SVG/1.1/DTD/svg11.dtd">
<svg version="1.1" xmlns="http://www.w3.org/2000/svg" xmlns:xlink="http://www.w3.org/1999/xlink" width="32" height="32" viewBox="0 0 32 32">
<path d="M25.431 9.113l-3.572-3.571c-0.078-0.078-0.174-0.156-0.283-0.231v4.086h4.086c-0.076-0.11-0.153-0.206-0.231-0.284zM26.335 10.995h-6.358v-6.357c-0.144-0.026-0.279-0.042-0.4-0.042h-12c-0.217 0-0.4 0.182-0.4 0.4v21.599c0 0.217 0.183 0.401 0.4 0.401h18.4c0.217 0 0.4-0.183 0.4-0.401v-15.2c-0.001-0.119-0.015-0.255-0.042-0.4zM20.252 22.655h-9.659c-0.278 0-0.503-0.226-0.503-0.503 0-0.279 0.226-0.504 0.503-0.504h9.659c0.278 0 0.503 0.225 0.503 0.504 0 0.278-0.224 0.503-0.503 0.503zM22.671 19.737h-12.078c-0.278 0-0.503-0.226-0.503-0.503s0.226-0.504 0.503-0.504h12.077c0.278 0 0.503 0.226 0.503 0.504 0 0.276-0.225 0.503-0.502 0.503zM22.738 16.818h-12.078c-0.278 0-0.503-0.226-0.503-0.503s0.226-0.503 0.503-0.503h12.078c0.278 0 0.503 0.226 0.503 0.503s-0.226 0.503-0.503 0.503z"></path>
</svg>
