<?xml version="1.0" encoding="utf-8"?>
<!-- Generated by IcoMoon.io -->
<!DOCTYPE svg PUBLIC "-//W3C//DTD SVG 1.1//EN" "http://www.w3.org/Graphics/SVG/1.1/DTD/svg11.dtd">
<svg version="1.1" xmlns="http://www.w3.org/2000/svg" xmlns:xlink="http://www.w3.org/1999/xlink" width="32" height="32" viewBox="0 0 32 32">
<path d="M18.848 7.413c0.559 0.388 0.852 0.542 0.961 0.594 0.109 0.055 1.32 0.597 1.54 0.67 0.217 0.073 0.941 0.454 1.141 0.525 0.158 0.058 0.334 0.159 0.438 0.218 0.071 0.097 0.13 0.193 0.121 0.236 0.004 0.121-0.085 0.248-0.133 0.286-0.124 0.107-0.696 0.338-0.895 0.41-0.181 0.070-1.071 0.437-1.306 0.527-0.083 0.032-0.391 0.179-0.774 0.365-0.248-0.089-0.549-0.197-0.658-0.248-0.2-0.092-0.943-0.472-1.195-0.689-0.256-0.218-0.512-0.48-0.616-0.634-0.156-0.232-0.26-1.021-0.235-1.322 0.013-0.18 0.047-2.605 0.047-2.605s0.72 1.083 1.564 1.667zM17.032 5.166c-0.011-0.021-0.795-1.509-1.928-1.611-1.175-0.108-1.983 0.355-2.459 1.414-0.183 0.405-0.298 0.897-0.381 1.519h1.924v15.030h2.273l-3.923 3.987c0.069 0.822 0.138 1.472 0.204 1.856 0.045 0.265-0.134 0.521-0.402 0.564-0.028 0.007-0.055 0.008-0.083 0.008-0.234 0-0.442-0.169-0.483-0.407-0.071-0.42-0.147-1.145-0.222-2.067l-3.879-3.941h2.219v-15.031h1.383c0.093-0.776 0.234-1.391 0.473-1.922 0.651-1.445 1.84-2.129 3.442-1.987 1.675 0.151 2.671 2.060 2.712 2.14 0.123 0.241 0.026 0.536-0.215 0.659-0.238 0.124-0.533 0.030-0.655-0.211zM22.058 29.291c-0.326 0.080-0.666 0.149-1.041 0.149-0.578 0-1.236-0.161-2.045-0.688-1.41-0.916-1.399-3.068-1.398-3.159 0.003-0.27 0.213-0.496 0.496-0.484 0.269 0.003 0.486 0.224 0.485 0.496 0 0.017-0.004 1.705 0.951 2.325 1.012 0.658 1.625 0.58 2.319 0.41 0.26-0.066 0.528 0.097 0.593 0.36 0.065 0.261-0.097 0.526-0.36 0.591zM23.625 20.008c0 0.291-0.024 0.944-0.074 1.161-0.049 0.218-0.144 0.47-0.248 0.586-0.145 0.161-0.65 0.486-0.958 0.596-0.165 0.058-0.512 0.209-0.832 0.344-0.16 0.066-0.323 0.133-0.491 0.2-0.011 0.003-0.023 0.008-0.031 0.012-0.050 0.018-0.118 0.046-0.192 0.079-1.072 0.433-2.15 0.871-2.288 0.934-0.292 0.145-0.799 0.421-0.965 0.652-0.067 0.1-0.141 0.204-0.19 0.34-0.055-0.299-0.118-0.674-0.13-0.895-0.018-0.312 0.024-1.161 0.096-1.496 0.060-0.287 0.192-0.749 0.459-1.016 0.111-0.109 0.37-0.302 0.68-0.512 0.689-0.341 2.197-1.085 2.361-1.146 0.239-0.091 1.132-0.459 1.304-0.526 0.213-0.083 0.76-0.286 0.977-0.458 0.088-0.077 0.187-0.214 0.223-0.392 0.066 0.103 0.138 0.229 0.18 0.33 0.13 0.329 0.119 0.92 0.119 1.207zM17.597 17.724c-0.001-0.013 0.008-0.063 0.019-0.187 0.018-0.197 0.077-0.263 0.192-0.438 0.050-0.097 0.593-0.437 0.846-0.548 0.077-0.035 0.504-0.211 1.066-0.438 0.039 0.014 0.071 0.029 0.087 0.036 0.109 0.055 1.32 0.598 1.54 0.67 0.217 0.072 0.941 0.454 1.141 0.526 0.159 0.056 0.336 0.159 0.439 0.218 0.072 0.097 0.132 0.192 0.12 0.234 0.005 0.12-0.085 0.249-0.133 0.286-0.124 0.108-0.696 0.338-0.896 0.412-0.178 0.069-1.072 0.438-1.304 0.525-0.083 0.033-0.392 0.181-0.776 0.367-0.248-0.090-0.547-0.198-0.656-0.249-0.2-0.091-0.943-0.47-1.195-0.688-0.094-0.081-0.19-0.165-0.279-0.25-0.075-0.113-0.163-0.254-0.18-0.328-0.028-0.113-0.031-0.139-0.031-0.148zM23.625 11.855c0 0.291-0.024 0.942-0.074 1.159-0.049 0.217-0.144 0.47-0.248 0.586-0.097 0.108-0.36 0.29-0.615 0.431-1.040 0.42-3.943 1.592-4.178 1.7-0.292 0.144-0.797 0.419-0.965 0.649-0.070 0.104-0.146 0.21-0.194 0.354-0.054-0.296-0.113-0.655-0.125-0.871-0.018-0.314 0.024-1.159 0.096-1.499 0.060-0.282 0.192-0.747 0.459-1.012 0.086-0.087 0.268-0.225 0.489-0.38 0.469-0.234 2.415-1.195 2.603-1.266 0.238-0.093 1.132-0.459 1.304-0.526 0.212-0.084 0.759-0.287 0.975-0.457 0.081-0.069 0.171-0.185 0.214-0.338 0.052 0.089 0.105 0.182 0.139 0.262 0.131 0.327 0.12 0.919 0.12 1.208z"></path>
</svg>
