<svg xmlns="http://www.w3.org/2000/svg" width="32" height="32" viewBox="0 0 32 32"><path d="M10.093 13.205c.348 0 .67.056.97.167.299.11.558.276.777.498s.39.498.513.83.185.722.185 1.17c0 .393-.05.755-.151 1.087s-.252.619-.456.86c-.204.241-.458.432-.763.57s-.663.207-1.076.207H7.768v-5.389h2.325zm-.083 4.393c.171 0 .337-.027.498-.083s.305-.147.431-.275c.125-.128.227-.296.302-.502s.113-.458.113-.755c0-.272-.026-.517-.08-.736s-.139-.406-.26-.562-.281-.276-.479-.359a1.914 1.914 0 0 0-.736-.125h-.846v3.397h1.057zm3.299-2.797c.121-.345.294-.646.521-.902.227-.257.504-.458.834-.604s.701-.219 1.113-.219c.418 0 .79.073 1.117.219s.604.347.83.604c.227.256.4.557.521.902.12.345.181.718.181 1.121 0 .392-.061.758-.181 1.098s-.295.635-.521.887-.503.449-.83.593-.699.215-1.117.215c-.413 0-.784-.071-1.113-.215s-.607-.341-.834-.593-.4-.547-.521-.887a3.247 3.247 0 0 1-.182-1.098c0-.403.061-.776.182-1.121zm1.083 1.782c.053.213.137.406.252.577s.267.309.453.411c.186.104.413.155.679.155s.493-.052.679-.155c.187-.103.337-.24.453-.411s.2-.364.252-.577a2.89 2.89 0 0 0 0-1.348 1.86 1.86 0 0 0-.252-.593c-.116-.173-.267-.312-.453-.415s-.413-.155-.679-.155-.493.051-.679.155a1.282 1.282 0 0 0-.453.415c-.116.174-.2.371-.252.593s-.08.45-.08.687c0 .226.026.447.08.661zm8.298-1.94a1.186 1.186 0 0 0-.622-.498 1.232 1.232 0 0 0-.42-.072c-.267 0-.492.051-.679.155s-.337.242-.453.415a1.84 1.84 0 0 0-.253.593 2.942 2.942 0 0 0 0 1.348c.053.213.138.406.253.577.116.171.267.309.453.411.187.104.412.155.679.155.363 0 .646-.111.85-.332.204-.222.328-.514.374-.876h1.146c-.029.337-.107.642-.233.913s-.292.504-.498.694a2.117 2.117 0 0 1-.725.438c-.276.1-.581.15-.914.15-.412 0-.783-.071-1.112-.215s-.608-.341-.835-.593a2.652 2.652 0 0 1-.521-.887 3.287 3.287 0 0 1-.18-1.097c0-.403.061-.776.181-1.121s.295-.646.521-.902c.227-.257.505-.458.835-.604.329-.146.7-.219 1.112-.219.297 0 .578.042.842.128.265.086.501.21.71.374s.381.366.517.608c.136.241.222.519.257.83h-1.147a.971.971 0 0 0-.138-.373zm5.319-8.41l-4.466-4.465C22.573.795 20.651 0 19.276 0h-15a2.507 2.507 0 0 0-2.5 2.5v27c0 1.375 1.125 2.5 2.5 2.5h23c1.375 0 2.5-1.125 2.5-2.5v-19c0-1.374-.796-3.295-1.767-4.267zm-1.414 1.414c.098.098.194.218.29.354h-5.108V2.893c.136.095.256.191.354.289l4.464 4.465zm1.181 21.854c0 .271-.229.5-.5.5h-23a.507.507 0 0 1-.5-.5v-27c0-.271.229-.5.5-.5h15c.151 0 .32.02.5.052v7.948h7.947c.034.18.053.35.053.5v19z"/></svg>