<svg xmlns="http://www.w3.org/2000/svg" width="32" height="32" viewBox="0 0 32 32"><path d="M9.274 17.57c-.035.21-.115.406-.24.588s-.305.335-.54.457c-.235.122-.553.184-.952.184-.225 0-.442-.031-.652-.094s-.397-.16-.563-.293-.298-.302-.397-.511c-.1-.207-.15-.459-.15-.753v-.465h1.065v.24c0 .13.01.25.03.36s.055.203.105.281.119.139.207.183a.734.734 0 0 0 .341.068c.155 0 .275-.028.36-.082s.146-.127.184-.214.06-.183.068-.285c.008-.102.011-.201.011-.296v-3.614h1.178v3.668a3.65 3.65 0 0 1-.053.579zm1.987-.21c.065.125.151.226.259.303s.233.135.379.172.295.056.45.056c.105 0 .217-.009.338-.026s.232-.051.338-.101.193-.119.262-.206.105-.198.105-.334c0-.145-.046-.262-.139-.352s-.213-.165-.364-.225c-.15-.059-.32-.113-.51-.157s-.383-.095-.578-.15c-.2-.05-.395-.111-.585-.184s-.36-.166-.51-.281c-.15-.114-.271-.259-.364-.431s-.139-.382-.139-.626c0-.275.059-.514.176-.716s.271-.371.462-.507c.19-.136.405-.235.645-.3s.48-.098.72-.098c.28 0 .549.031.806.094s.486.164.687.303.358.319.476.536c.117.218.177.482.177.791h-1.14c-.01-.16-.043-.293-.101-.398s-.134-.188-.229-.248-.204-.102-.326-.127-.256-.037-.401-.037c-.095 0-.19.01-.285.03s-.181.055-.258.105c-.078.05-.142.113-.191.188s-.075.17-.075.285c0 .105.02.19.06.255s.118.125.236.18.28.11.488.165.479.125.813.21c.1.02.239.056.416.109.178.052.354.136.529.251s.326.269.454.461c.127.192.191.439.191.739 0 .245-.047.472-.143.682s-.236.392-.424.544c-.188.153-.42.271-.697.357s-.599.128-.964.128c-.295 0-.582-.037-.858-.109s-.522-.186-.735-.341c-.213-.155-.382-.352-.506-.593s-.185-.525-.18-.855h1.14a.968.968 0 0 0 .097.457zm3.915-2.449c.12-.343.293-.642.518-.896s.501-.455.828-.6a2.71 2.71 0 0 1 1.107-.217c.415 0 .785.072 1.11.217s.6.345.825.6c.224.255.398.553.517.896s.18.713.18 1.114c0 .39-.06.753-.18 1.091s-.293.631-.517.881c-.225.25-.5.447-.825.589s-.695.214-1.11.214c-.41 0-.779-.072-1.107-.214s-.604-.339-.829-.589c-.225-.25-.398-.544-.518-.881s-.18-.701-.18-1.091c0-.4.06-.771.18-1.114zm1.076 1.77c.052.212.136.404.251.573s.265.306.45.409.41.154.675.154c.265 0 .489-.052.675-.154s.335-.239.45-.409c.114-.17.198-.361.251-.573a2.887 2.887 0 0 0 0-1.338c-.053-.219-.136-.416-.251-.589s-.265-.31-.45-.412-.41-.154-.675-.154c-.265 0-.49.052-.675.154s-.335.24-.45.412a1.805 1.805 0 0 0-.251.589 2.906 2.906 0 0 0 0 1.338zm5.981-3.356l2.235 3.593h.015v-3.592h1.102v5.355h-1.177l-2.227-3.585h-.015v3.585h-1.102v-5.355h1.169zm5.81-6.928l-4.437-4.436C22.641.995 20.733.205 19.366.205H4.462a2.49 2.49 0 0 0-2.483 2.484v26.828a2.492 2.492 0 0 0 2.484 2.484h22.853a2.493 2.493 0 0 0 2.485-2.485V10.638c0-1.367-.791-3.275-1.757-4.24zm-1.406 1.406c.096.098.192.216.288.351h-5.076V3.079c.135.094.255.19.352.288l4.436 4.436zm1.174 21.714c0 .27-.227.497-.497.497H4.461a.504.504 0 0 1-.497-.497V2.689c0-.27.227-.497.497-.497h14.904c.151 0 .319.019.497.052v7.896h7.897c.034.178.052.348.052.497v18.879z"/></svg>