<svg xmlns="http://www.w3.org/2000/svg" width="32" height="32" viewBox="0 0 32 32"><path d="M7.652 14.911c.12-.343.293-.642.518-.896s.501-.455.829-.6a2.709 2.709 0 0 1 1.106-.217c.415 0 .785.072 1.11.217s.6.345.825.6c.225.255.398.553.518.896s.18.713.18 1.114c0 .39-.06.753-.18 1.091s-.293.631-.518.881-.5.447-.825.589a2.747 2.747 0 0 1-1.11.214c-.41 0-.779-.072-1.106-.214s-.604-.339-.829-.589-.397-.544-.518-.881a3.23 3.23 0 0 1-.18-1.091c0-.4.059-.771.18-1.114zm1.077 1.77c.053.212.136.404.251.573s.265.306.45.409.41.154.675.154c.265 0 .49-.052.675-.154s.335-.239.45-.409.198-.361.251-.573c.053-.213.079-.431.079-.656 0-.236-.027-.463-.079-.682s-.136-.416-.251-.589-.265-.31-.45-.412c-.185-.102-.41-.154-.675-.154s-.49.052-.675.154-.335.24-.45.412-.198.368-.251.589a2.906 2.906 0 0 0 0 1.338zm8.74 1.999l-.907-3.645h-.015l-.892 3.645h-1.192l-1.418-5.355h1.178l.848 3.645h.015l.929-3.645h1.103l.915 3.69h.015l.878-3.69h1.155l-1.44 5.355H17.47zm4.328-5.355v4.364h2.61v.99h-3.788v-5.355h1.177zm6.441-6.928l-4.437-4.436C22.836.995 20.927.205 19.561.205H4.657a2.49 2.49 0 0 0-2.484 2.484v26.828a2.49 2.49 0 0 0 2.484 2.484H27.51a2.493 2.493 0 0 0 2.485-2.485V10.638c0-1.367-.791-3.275-1.756-4.24zm-1.404 1.406c.096.098.192.216.288.351h-5.075V3.079c.135.094.255.19.352.288l4.436 4.436zm1.174 21.714c0 .27-.227.497-.497.497H4.658a.504.504 0 0 1-.497-.497V2.689c0-.27.227-.497.497-.497h14.904c.151 0 .319.019.497.052v7.896h7.897c.034.178.052.348.052.497v18.879z"/></svg>