<svg xmlns="http://www.w3.org/2000/svg" width="32" height="32" viewBox="0 0 32 32"><path d="M9.87 17.36c.065.125.151.226.259.303s.233.135.379.172.295.056.45.056c.105 0 .217-.009.338-.026s.232-.051.338-.101.193-.119.262-.206.105-.198.105-.334c0-.145-.046-.262-.139-.352s-.213-.165-.364-.225c-.15-.059-.32-.113-.51-.157s-.383-.095-.578-.15c-.2-.05-.395-.111-.585-.184s-.36-.166-.51-.281c-.15-.114-.271-.259-.364-.431s-.139-.382-.139-.626c0-.275.059-.514.176-.716s.271-.371.462-.507c.19-.136.405-.235.645-.3s.48-.098.72-.098c.28 0 .549.031.806.094s.486.164.687.303.358.319.476.536c.117.218.177.482.177.791h-1.14c-.01-.16-.043-.293-.101-.398s-.134-.188-.229-.248-.204-.102-.326-.127-.256-.037-.401-.037c-.095 0-.19.01-.285.03s-.181.055-.258.105c-.078.05-.142.113-.191.188s-.075.17-.075.285c0 .105.02.19.06.255s.118.125.236.18.28.11.488.165.479.125.813.21c.1.02.239.056.416.109.178.052.354.136.529.251s.326.269.454.461c.127.192.191.439.191.739 0 .245-.047.472-.143.682s-.236.392-.424.544c-.188.153-.42.271-.697.357s-.599.128-.964.128c-.295 0-.582-.037-.858-.109s-.522-.186-.735-.341c-.213-.155-.382-.352-.506-.593s-.185-.525-.18-.855h1.14a.968.968 0 0 0 .097.457zm6.277-4.035c.345 0 .666.055.963.165s.555.275.773.495c.218.22.387.495.511.825s.183.718.183 1.162c0 .39-.05.75-.15 1.08s-.252.614-.453.855a2.16 2.16 0 0 1-.758.567c-.302.137-.659.206-1.069.206h-2.31v-5.355h2.31zm-.082 4.364c.17 0 .334-.027.494-.082s.302-.146.427-.274.225-.294.3-.499c.075-.204.113-.454.113-.75 0-.27-.026-.514-.079-.731s-.139-.404-.259-.559c-.119-.155-.279-.274-.476-.357s-.441-.124-.731-.124h-.84v3.375h1.05zm7.095-4.364v.989h-2.587v1.238h2.242v.915h-2.242v2.212h-1.177v-5.355h3.765zm4.883-6.928l-4.437-4.436C22.641.995 20.733.205 19.366.205H4.462a2.49 2.49 0 0 0-2.483 2.484v26.828a2.492 2.492 0 0 0 2.484 2.484h22.853a2.493 2.493 0 0 0 2.485-2.485V10.638c0-1.367-.791-3.275-1.757-4.24zm-1.406 1.406c.096.098.192.216.288.351h-5.076V3.079c.135.094.255.19.352.288l4.436 4.436zm1.174 21.714c0 .27-.227.497-.497.497H4.461a.504.504 0 0 1-.497-.497V2.689c0-.27.227-.497.497-.497h14.904c.151 0 .319.019.497.052v7.896h7.897c.034.178.052.348.052.497v18.879z"/></svg>