<?xml version="1.0" standalone="no"?>
<!DOCTYPE svg PUBLIC "-//W3C//DTD SVG 1.1//EN" "http://www.w3.org/Graphics/SVG/1.1/DTD/svg11.dtd" >
<svg xmlns="http://www.w3.org/2000/svg" xmlns:xlink="http://www.w3.org/1999/xlink" version="1.1">
<metadata>
Created by FontForge 20170103 at Wed Feb 15 14:25:23 2017
 By Ken Hawkins
</metadata>
<defs>
<font id="EBI-FileFormats" horiz-adv-x="512" >
  <font-face 
    font-family="EBI-FileFormats"
    font-weight="400"
    font-stretch="normal"
    units-per-em="512"
    panose-1="2 0 5 9 0 0 0 0 0 0"
    ascent="448"
    descent="-64"
    x-height="445"
    cap-height="445"
    bbox="17 -64 480 448"
    underline-thickness="25"
    underline-position="-76"
    unicode-range="U+0031-0078"
  />
<missing-glyph 
d="M17 0v341h136v-341h-136zM34 17h102v307h-102v-307z" />
    <glyph glyph-name=".notdef" 
d="M17 0v341h136v-341h-136zM34 17h102v307h-102v-307z" />
    <glyph glyph-name=".null" horiz-adv-x="0" 
 />
    <glyph glyph-name="nonmarkingreturn" 
 />
    <glyph glyph-name="PSI-MI_XML" unicode="1" 
d="M108 235q8 0 13.5 -2.5t9 -6.5t5.5 -8.5t2 -10t-2 -10.5q-4 -11 -14 -15q-7 -2 -13 -2h-1h-20v-31h-19v86h39zM103 194q3 0 6 0.5t5.5 2t3.5 4t1 6.5t-1 6.5t-3.5 4t-5.5 2t-6 0.5h-15v-26h15zM164 170q1 -3 4 -4.5t6 -2.5t7 -1q3 0 5.5 0.5t5 1.5t4.5 3t2 5q0 4 -2.5 6
t-5.5 4q-4 1 -8.5 2t-9.5 3q-4 1 -9 2.5t-8.5 4.5t-5.5 7t-2 10q0 7 2.5 11.5t7.5 8t10.5 5t11.5 1.5q7 0 13 -1.5t10.5 -5t7.5 -8.5t3 -13h-18q0 4 -1.5 6.5t-4 4t-5 2t-6.5 0.5q-2 0 -4.5 -0.5t-4.5 -1.5t-3 -3t-1 -5q0 -2 1 -3.5t4 -3t7.5 -2.5l13.5 -3q2 -1 6.5 -2
t8.5 -4t7 -7.5t3 -11.5q0 -6 -2.5 -11t-6.5 -9t-11 -6t-16 -2q-7 0 -13.5 2t-11.5 5.5t-8 9.5t-3 14h18v-1q0 -4 2 -7zM246 235v-86h-19v86h19zM297 189v-14h-36v14h36zM338 235l20 -59l19 59h27v-86h-18v61l-21 -61h-15l-21 60v-60h-18v86h27zM439 235v-86h-19v86h19z
M126 115h22l17 -28l17 28h21l-28 -41l30 -45h-22l-19 30l-19 -30h-21l29 45zM239 115l20 -59l19 59h27v-86h-18v61l-21 -61h-15l-21 60v-60h-18v86h27zM340 115v-70h42v-16h-61v86h19zM449 346q11 -12 19.5 -32t8.5 -36v-302q0 -17 -12 -28.5t-28 -11.5h-366
q-16 0 -27.5 11.5t-11.5 28.5v429q0 16 11.5 28t27.5 12h239q11 0 23.5 -4t24.5 -10.5t20 -13.5zM426 323l-71 71l-5 5v-81h81zM445 -24v302q0 3 -1 8h-126v126q-5 1 -8 1h-239q-8 0 -8 -8v-429q1 -8 8 -8h366q8 0 8 8z" />
    <glyph glyph-name="PSI-MI_TAB" unicode="2" 
d="M108 235q8 0 13.5 -2.5t9 -6.5t5.5 -8.5t2 -10t-2 -10.5q-4 -11 -14 -15q-7 -2 -13 -2h-1h-20v-31h-19v86h39zM103 194q3 0 6 0.5t5.5 2t3.5 4t1 6.5t-1 6.5t-3.5 4t-5.5 2t-6 0.5h-15v-26h15zM164 170q1 -3 4 -4.5t6 -2.5t7 -1q3 0 5.5 0.5t5 1.5t4.5 3t2 5q0 4 -2.5 6
t-5.5 4q-4 1 -8.5 2t-9.5 3q-4 1 -9 2.5t-8.5 4.5t-5.5 7t-2 10q0 7 2.5 11.5t7.5 8t10.5 5t11.5 1.5q7 0 13 -1.5t10.5 -5t7.5 -8.5t3 -13h-18q0 4 -1.5 6.5t-4 4t-5 2t-6.5 0.5q-2 0 -4.5 -0.5t-4.5 -1.5t-3 -3t-1 -5q0 -2 1 -3.5t4 -3t7.5 -2.5l13.5 -3q2 -1 6.5 -2
t8.5 -4t7 -7.5t3 -11.5q0 -6 -2.5 -11t-6.5 -9t-11 -6t-16 -2q-7 0 -13.5 2t-11.5 5.5t-8 9.5t-3 14h18v-1q0 -4 2 -7zM246 235v-86h-19v86h19zM297 189v-14h-36v14h36zM338 235l20 -59l19 59h27v-86h-18v61l-21 -61h-15l-21 60v-60h-18v86h27zM439 235v-86h-19v86h19z
M141 99v16h70v-16h-25v-70h-19v70h-26zM253 115l32 -86h-20l-6 19h-32l-7 -19h-19l33 86h19zM254 62l-11 32l-11 -32h22zM333 115q6 0 11 -1t8.5 -3.5t5.5 -6.5t2 -10q0 -7 -3 -11.5t-8 -6.5q7 -3 11 -8.5t4 -13.5q0 -7 -2.5 -11.5t-6.5 -7.5t-9.5 -4.5t-11.5 -1.5h-41v86
h40zM330 80q5 0 8.5 2.5t3.5 7.5q0 3 -1 5t-3 3t-4 1.5t-5 0.5h-18v-20h19zM331 44q3 0 5.5 0.5t4.5 1.5t3 3.5t1 5.5q0 7 -3.5 9.5t-9.5 2.5h-21v-23h20zM449 346q11 -12 19.5 -32t8.5 -36v-302q0 -17 -12 -28.5t-28 -11.5h-366q-16 0 -27.5 11.5t-11.5 28.5v429
q0 16 11.5 28t27.5 12h239q11 0 23.5 -4t24.5 -10.5t20 -13.5zM426 323l-71 71l-5 5v-81h81zM445 -24v302q0 3 -1 8h-126v126q-5 1 -8 1h-239q-8 0 -8 -8v-429q1 -8 8 -8h366q8 0 8 8z" />
    <glyph glyph-name="Postscript" unicode="3" 
d="M163 267q9 0 15 -2.5t10 -7t5.5 -9.5t1.5 -10.5t-1.5 -11t-5.5 -9.5t-10 -6.5t-15 -2.5h-21v-33h-20v92h41zM158 223q3 0 6.5 0.5t5.5 2t3.5 4.5t1.5 7t-1.5 7t-3.5 4.5t-5.5 2t-6.5 0.5h-16v-28h16zM206 222q2 7 7 11.5t11 7.5q6 2 14 2t14.5 -2.5t11 -7t7 -11
t2.5 -14.5t-3 -15q-2 -6 -7 -11q-4 -4 -10.5 -6.5t-14.5 -2.5t-14 2.5t-10.5 7t-7 11t-2.5 14.5t2 14zM223 200q1 -4 2.5 -7t4.5 -4.5t8 -1.5t8 1.5t5 4.5t2.5 7t0.5 8t-0.5 8t-2.5 7t-5 4.5t-8 1.5t-8 -1.5t-4.5 -4.5t-2.5 -7t-1 -8t1 -8zM300 191q1 -2 3 -3.5t4.5 -2
t5.5 -0.5q2 0 4 0.5t3.5 1.5t3 2.5t1.5 4.5q0 4 -6 6q-7 2 -15 4l-8 2t-7 3t-4 5q-2 4 -2 7v1q0 6 2.5 10t6.5 6.5t9 3.5t10.5 1t10.5 -1t9 -3.5t7 -6.5t3 -10h-17q-1 5 -4.5 7t-8.5 2q-1 0 -3 -0.5t-3.5 -1t-2.5 -1.5t-1 -3q0 -3 2 -4.5t5 -2.5t6.5 -1.5t7.5 -1.5t7.5 -2.5
t6.5 -3.5t5 -5t2 -8q0 -7 -2.5 -11t-7 -7t-10 -4t-11 -1t-11.5 1q-5 1 -10 4q-4 3 -7 7q-3 5 -3 11h18q0 -3 1 -5zM390 241v-12h-13v-33q0 -5 1.5 -6.5t6.5 -1.5q3 0 5 1v-14q-2 -1 -5 -1h-5q-5 0 -8.5 0.5t-6.5 2.5t-5 5q-1 3 -1 7v1v39h-12v12h12v20h18v-20h13zM94.5 68.5
q1.5 -3.5 4.5 -5.5t6.5 -3t7.5 -1q3 0 6 1q3 0 5.5 1.5t4.5 3.5t2 6q0 3 -2.5 5.5t-6.5 4t-9 2.5q-4 2 -9.5 3t-10 3t-8.5 5t-6 7q-3 5 -3 10v1q0 7 3 12.5t8 9t11 5t13 1.5t13.5 -1.5t11.5 -5t8 -9.5t3 -14h-19q0 4 -1.5 7t-4 4.5t-5.5 2.5h-7t-5.5 -0.5t-4.5 -1.5t-3 -3
t-1 -5v-1q0 -2 1 -3.5t4 -3t8 -2.5q5 -2 14 -4q3 -1 7.5 -2t9 -4t7.5 -8t3 -13q0 -6 -2 -11.5t-7 -9.5t-12 -6t-17 -2q-7 0 -15 2q-6 1 -12 5t-9 10.5t-3 14.5h20q0 -4 1.5 -7.5zM192 100q-4 0 -7 -2t-5 -5t-2.5 -6.5t-0.5 -7.5t0.5 -7.5t2.5 -6.5q4 -7 12 -7q7 0 10.5 3.5
t4.5 9.5h17q-2 -13 -10.5 -20t-21.5 -7q-7 0 -14 3q-12 5 -17 17q-3 7 -3 14q0 8 3 14q4 14 17 19q7 3 14 3q6 0 11.5 -1.5t10 -4.5t7 -8t3.5 -11h-18q-2 11 -14 11zM252 112v-12q3 6 9 10q2 2 5.5 3t6.5 1h4v-17h-6q-5 0 -8.5 -1.5t-5.5 -4.5t-3 -7t-1 -8v-30h-19v66h18z
M285 123v15h18v-15h-18zM303 112v-66h-18v66h18zM335 112v-8q4 5 9 7.5t11 2.5q8 0 14 -3t9.5 -8t5.5 -11.5t2 -13.5q0 -6 -2 -12.5t-5.5 -11t-9 -7.5t-13.5 -3q-6 0 -11 2.5t-9 7.5v-32h-18v90h17zM359 60q3 1 5 4t2.5 7t0.5 8t-0.5 8t-2.5 7t-5 4.5t-7.5 1.5t-7.5 -1
q-3 -2 -5 -5t-3 -7t-1 -8t1 -8t3 -7t5 -4.5t7 -1.5h1q4 0 7 2zM433 112v-12h-13v-33q0 -4 1.5 -6t5.5 -2h1q2 0 5 1v-14q-2 -1 -5 -1h-6q-4 0 -8 1q-3 0 -6 2t-5 5t-2 7v1v39h-11v12h11v20h19v-20h13zM448 348q12 -11 20 -31.5t8 -36.5v-304q0 -16 -11.5 -28t-28.5 -12h-368
q-16 0 -28 12t-12 28v432q0 17 12 28.5t28 11.5h240q17 0 37 -8.5t32 -19.5zM426 326l-72 71q-2 2 -6 5v-82h82zM444 -24v304v8h-128v127q-4 1 -8 1h-240q-8 0 -8 -8v-432q1 -8 8 -8h368q8 0 8 8z" />
    <glyph glyph-name="AGP" unicode="A" 
d="M179 235l32 -86h-20l-6 19h-33l-6 -19h-19l32 86h20zM180 182l-11 32l-12 -32h23zM269 150q-6 -3 -13 -3q-9 0 -17 3.5t-13.5 9.5t-8.5 14t-3 17v1q0 9 3 17.5t8.5 14.5t13.5 9q8 4 17 4q7 0 13 -2t11 -6q11 -8 13 -22h-18q-2 7 -7 10.5t-12 3.5q-6 0 -10.5 -2.5t-7 -6.5
t-4 -9.5t-1.5 -11t1.5 -10.5t4 -9t7 -6.5t10.5 -2.5q10 0 15 4.5t6 13.5h-19v14h36v-46h-12l-2 10q-5 -7 -11 -9zM348 235q8 0 13.5 -2.5t9 -6t5 -8.5t1.5 -10.5t-1.5 -10.5t-5 -8.5t-9 -6t-13.5 -2.5h-20v-31h-19v86h39zM343 194q3 0 6 0.5t5 2t3.5 4t1.5 6.5t-1.5 6.5
t-3.5 4t-5 2t-6 0.5h-15v-26h15zM449 346q11 -12 19.5 -32t8.5 -36v-302q0 -17 -12 -28.5t-28 -11.5h-366q-16 0 -27.5 11.5t-11.5 28.5v429q0 16 11.5 28t27.5 12h239q11 0 23.5 -4t24.5 -10.5t20 -13.5zM426 323l-71 71l-5 5v-81h81zM445 -24v302q0 3 -1 8h-126v126
q-5 1 -8 1h-239q-8 0 -8 -8v-429q1 -8 8 -8h366q8 0 8 8z" />
    <glyph glyph-name="BAM" unicode="B" 
d="M165 235q6 0 11 -1t8.5 -3.5t5.5 -7t2 -9.5q0 -7 -2.5 -11.5t-8.5 -6.5q8 -3 11.5 -8.5t3.5 -13.5q0 -7 -2.5 -11.5t-6.5 -7.5t-9.5 -4.5t-11.5 -1.5h-41v86h40zM163 200q5 0 8 2.5t3 7.5q0 3 -1 5t-2.5 3t-4 1.5t-5.5 0.5h-17v-20h19zM164 164q3 0 5.5 0.5t4 1.5t3 3.5
t1.5 5.5q0 7 -4 9.5t-10 2.5h-20v-23h20zM252 235l32 -86h-20l-6 19h-32l-7 -19h-19l33 86h19zM253 182l-11 32l-11 -32h22zM318 235l20 -59l19 59h27v-86h-18v61l-21 -61h-15l-21 60v-60h-18v86h27zM449 346q11 -12 19.5 -32t8.5 -36v-302q0 -17 -12 -28.5t-28 -11.5h-366
q-16 0 -27.5 11.5t-11.5 28.5v429q0 16 11.5 28t27.5 12h239q11 0 23.5 -4t24.5 -10.5t20 -13.5zM426 323l-71 71l-5 5v-81h81zM445 -24v302q0 3 -1 8h-126v126q-5 1 -8 1h-239q-8 0 -8 -8v-429q1 -8 8 -8h366q8 0 8 8z" />
    <glyph glyph-name="CML" unicode="C" 
d="M183 212q-4 6 -10 8q-3 1 -7 1q-6 0 -10.5 -2.5t-7 -6.5t-4 -9.5t-1.5 -11t1.5 -10.5t4 -9t7 -6.5t10.5 -2.5q9 0 14 5t6 14h18q-1 -8 -4 -14.5t-7.5 -11t-11.5 -7t-15 -2.5q-9 0 -17 3.5t-13.5 9.5t-8.5 14t-3 17v1q0 9 3 17.5t8.5 14.5t13.5 9q8 4 17 4q7 0 13.5 -2
t11.5 -6t8.5 -10t3.5 -13h-18q0 3 -2 6zM243 235l21 -59l19 59h26v-86h-17v61h-1l-21 -61h-14l-21 60v-60h-18v86h26zM345 235v-70h41v-16h-60v86h19zM449 346q11 -12 19.5 -32t8.5 -36v-302q0 -17 -12 -28.5t-28 -11.5h-366q-16 0 -27.5 11.5t-11.5 28.5v429q0 16 11.5 28
t27.5 12h239q11 0 23.5 -4t24.5 -10.5t20 -13.5zM426 323l-71 71l-5 5v-81h81zM445 -24v302q0 3 -1 8h-126v126q-5 1 -8 1h-239q-8 0 -8 -8v-429q1 -8 8 -8h366q8 0 8 8z" />
    <glyph glyph-name="RDF_XML" unicode="D" 
d="M163 235q6 0 10.5 -2t8 -5t5 -7.5t1.5 -9.5q0 -7 -3 -12.5t-10 -8.5v-1q6 -1 9 -7q2 -3 2.5 -6t0.5 -7v-4q0 -3 0.5 -6t1 -5.5t2.5 -4.5h-19q-2 4 -2 10t-1 11q-1 6 -4 9.5t-10 3.5h-19v-34h-19v86h46zM156 196q7 0 10 3t3 9q0 7 -3 9.5t-10 2.5h-20v-24h20zM240 235
q9 0 16 -2.5t12 -8t8 -13.5t3 -19q0 -9 -2 -17t-7 -13.5t-12 -9.5q-8 -3 -17 -3h-1h-36v86h36zM239 165q4 0 8 1.5t7 4.5t5 8t2 12q0 6 -1.5 11.5t-4.5 9t-7 5.5q-6 2 -11 2h-1h-14v-54h17zM353 235v-16h-42v-20h36v-14h-36v-36h-19v86h61zM401 237l-33 -90h-14l33 90h14z
M126 115h22l17 -28l17 28h21l-28 -41l30 -45h-22l-19 30l-19 -30h-21l29 45zM239 115l20 -59l19 59h27v-86h-18v61l-21 -61h-15l-21 60v-60h-18v86h27zM340 115v-70h42v-16h-61v86h19zM449 346q11 -12 19.5 -32t8.5 -36v-302q0 -17 -12 -28.5t-28 -11.5h-366
q-16 0 -27.5 11.5t-11.5 28.5v429q0 16 11.5 28t27.5 12h239q11 0 23.5 -4t24.5 -10.5t20 -13.5zM426 323l-71 71l-5 5v-81h81zM445 -24v302q0 3 -1 8h-126v126q-5 1 -8 1h-239q-8 0 -8 -8v-429q1 -8 8 -8h366q8 0 8 8z" />
    <glyph glyph-name="FLAT" unicode="F" 
d="M179 235v-16h-41v-20h36v-14h-36v-36h-19v86h60zM209 235v-70h42v-16h-61v86h19zM304 235l32 -86h-19l-7 19h-32l-7 -19h-19l33 86h19zM305 182l-11 32l-11 -32h22zM326 219v16h70v-16h-26v-70h-18v70h-26zM449 346q11 -12 19.5 -32t8.5 -36v-302q0 -17 -12 -28.5
t-28 -11.5h-366q-16 0 -27.5 11.5t-11.5 28.5v429q0 16 11.5 28t27.5 12h239q11 0 23.5 -4t24.5 -10.5t20 -13.5zM426 323l-71 71l-5 5v-81h81zM445 -24v302q0 3 -1 8h-126v126q-5 1 -8 1h-239q-8 0 -8 -8v-429q1 -8 8 -8h366q8 0 8 8z" />
    <glyph glyph-name="GFF" unicode="G" 
d="M197 150q-6 -3 -13 -3q-10 0 -17.5 3.5t-13 9.5t-8.5 14t-3 17v1q0 9 3 17.5t8.5 14.5t12.5 9q9 4 18 4q7 0 13 -2t11 -6t8.5 -9.5t3.5 -12.5h-18q-1 7 -6 10.5t-12 3.5q-6 0 -10.5 -2.5t-7.5 -6.5t-4 -9.5t-1 -11t1 -10.5t4 -9t7.5 -6.5t10.5 -2.5q10 0 15 4.5t6 13.5
h-19v14h36v-46h-12l-2 10q-5 -7 -11 -9zM297 235v-16h-41v-20h36v-14h-36v-36h-19v86h60zM368 235v-16h-41v-20h36v-14h-36v-36h-19v86h60zM449 346q11 -12 19.5 -32t8.5 -36v-302q0 -17 -12 -28.5t-28 -11.5h-366q-16 0 -27.5 11.5t-11.5 28.5v429q0 16 11.5 28t27.5 12
h239q11 0 23.5 -4t24.5 -10.5t20 -13.5zM426 323l-71 71l-5 5v-81h81zM445 -24v302q0 3 -1 8h-126v126q-5 1 -8 1h-239q-8 0 -8 -8v-429q1 -8 8 -8h366q8 0 8 8z" />
    <glyph glyph-name="IMG" unicode="I" 
d="M164 235v-86h-19v86h19zM207 235l20 -59l19 59h26v-86h-17v61l-21 -61h-15l-21 60v-60h-18v86h27zM340 150q-6 -3 -13 -3q-9 0 -17 3.5t-13.5 9.5t-8.5 14t-3 18q0 9 3 17.5t8.5 14.5t13.5 9.5t17 3.5q7 0 13 -2t11 -6q11 -8 13 -22h-18q-2 7 -7 10.5t-12 3.5
q-6 0 -10.5 -2.5t-7 -6.5t-4.5 -9q-1 -6 -1 -11.5t1.5 -10.5t4 -9t7 -6.5t10.5 -2.5q10 0 15 4.5t6 13.5h-19v14h36v-46h-12l-2 10q-5 -7 -11 -9zM449 346q11 -12 19.5 -32t8.5 -36v-302q0 -17 -12 -28.5t-28 -11.5h-366q-16 0 -27.5 11.5t-11.5 28.5v429q0 16 11.5 28
t27.5 12h239q11 0 23.5 -4t24.5 -10.5t20 -13.5zM426 323l-71 71l-5 5v-81h81zM445 -24v302q0 3 -1 8h-126v126q-5 1 -8 1h-239q-8 0 -8 -8v-429q1 -8 8 -8h366q8 0 8 8z" />
    <glyph glyph-name="JSON" unicode="J" 
d="M148 167q0 -5 -3 -9.5t-9 -7.5t-15 -3q-6 0 -11 1.5t-9 5t-6.5 8.5t-2.5 12v7h18v-4v-5.5t1.5 -4.5t3.5 -3t5 -1q4 0 6 1.5t3 3.5t1 4v5v58h19v-59q0 -5 -1 -9zM180 170q2 -3 4.5 -4.5t6 -2.5t7.5 -1q2 0 5 0.5t5.5 1.5t4 3t1.5 5q0 4 -2 6t-6 4l-8 2t-9 3q-5 1 -9.5 2.5
t-8 4.5t-6 7t-2.5 10q0 7 3 11.5t7.5 8t10.5 5t11 1.5q7 0 13 -1.5t11 -5t8 -8.5t3 -13h-19q0 4 -1.5 6.5t-3.5 4t-5 2t-7 0.5q-2 0 -4 -0.5t-4 -1.5t-3 -3t-1 -5q0 -2 0.5 -3.5t3.5 -3t8 -2.5t13 -3q3 -1 7 -2t8 -4t7.5 -7.5t3.5 -11.5q0 -6 -2.5 -11t-7 -9t-11 -6
t-15.5 -2q-7 0 -13.5 2t-12 5.5t-8.5 9.5t-3 14h19v-1q0 -4 1 -7zM243 209.5q3 8.5 8.5 14.5t12.5 9q9 4 17 4h1q10 0 18 -3.5t13 -9.5t8 -14.5t3 -18t-3 -17.5t-8 -14t-13 -9.5t-18 -3.5t-17.5 3.5t-13 9.5t-8.5 14t-3 18q0 9 3 17.5zM260 181q1 -5 4 -9t7.5 -6.5
t10.5 -2.5t10.5 2.5t7.5 6.5t4 9t1 10.5t-1 11t-4 9.5t-7.5 6.5t-10.5 2.5t-10.5 -2.5t-7.5 -6.5t-4 -9q-1 -6 -1 -11.5t1 -10.5zM356 235l35 -58h1v58h17v-86h-18l-36 57v-57h-18v86h19zM449 346q11 -12 19.5 -32t8.5 -36v-302q0 -17 -12 -28.5t-28 -11.5h-366
q-16 0 -27.5 11.5t-11.5 28.5v429q0 16 11.5 28t27.5 12h239q11 0 23.5 -4t24.5 -10.5t20 -13.5zM426 323l-71 71l-5 5v-81h81zM445 -24v302q0 3 -1 8h-126v126q-5 1 -8 1h-239q-8 0 -8 -8v-429q1 -8 8 -8h366q8 0 8 8z" />
    <glyph glyph-name="MDL" unicode="M" 
d="M155 235l20 -59l19 59h26v-86h-17v61h-1l-21 -61h-14l-21 60v-60h-18v86h27zM274 235q8 0 15 -2.5t12.5 -8t8.5 -13.5t3 -19q0 -9 -2.5 -17t-7.5 -14q-5 -5 -12 -8.5t-17 -3.5h-37v86h37zM273 165q4 0 7.5 1.5t6.5 4.5t5 8t2 12q0 6 -1.5 11.5t-4.5 9t-7 5.5q-5 2 -11 2
h-1h-13v-54h17zM345 235v-70h41v-16h-60v86h19zM449 346q11 -12 19.5 -32t8.5 -36v-302q0 -17 -12 -28.5t-28 -11.5h-366q-16 0 -27.5 11.5t-11.5 28.5v429q0 16 11.5 28t27.5 12h239q11 0 23.5 -4t24.5 -10.5t20 -13.5zM426 323l-71 71l-5 5v-81h81zM445 -24v302q0 3 -1 8
h-126v126q-5 1 -8 1h-239q-8 0 -8 -8v-429q1 -8 8 -8h366q8 0 8 8z" />
    <glyph glyph-name="OBO" unicode="O" 
d="M126 209.5q3 8.5 8.5 14.5t13.5 9q8 4 17 4q10 0 18 -3.5t13.5 -9.5t8 -14.5t2.5 -17.5q0 -10 -2.5 -18t-8 -14t-13.5 -9q-8 -4 -17 -4h-1q-10 0 -17.5 3.5t-13 9.5t-8.5 14t-3 17v1q0 9 3 17.5zM143.5 181q1.5 -5 4 -9t7 -6.5t11 -2.5t11 2.5t7 6.5t4 9t1.5 10.5
t-1.5 11t-4 9.5t-7 6.5t-11 2.5t-11 -2.5t-7 -6.5t-4 -9.5t-1.5 -11t1.5 -10.5zM261 235q6 0 11 -1t8.5 -3.5t5.5 -6.5t2 -10q0 -7 -3 -11.5t-9 -6.5q8 -3 12 -8.5t4 -13.5q0 -7 -2.5 -11.5t-7 -7.5t-9.5 -4.5t-11 -1.5h-42v86h41zM258 200q5 0 8.5 2.5t3.5 7.5q0 3 -1 5
t-3 3t-4.5 1.5t-4.5 0.5h-18v-20h19zM259 164q3 0 5.5 0.5t4.5 1.5t3 3.5t1 5.5q0 7 -3.5 9.5t-9.5 2.5h-21v-23h20zM304 209.5q3 8.5 8.5 14.5t13 9.5t17.5 3.5t18 -3.5t13.5 -9.5t8 -14.5t2.5 -18t-2.5 -17.5t-8 -14t-13.5 -9.5t-18 -3.5t-17.5 3.5t-13 9.5t-8.5 14t-3 17
v1q0 9 3 17.5zM321 181q1 -5 4 -9t7.5 -6.5t10.5 -2.5t10.5 2.5t7.5 6.5t4 9t1 10.5t-1 11t-4 9.5t-7.5 6.5t-10.5 2.5t-10.5 -2.5t-7.5 -6.5t-4 -9q-1 -6 -1 -11.5t1 -10.5zM449 346q11 -12 19.5 -32t8.5 -36v-302q0 -17 -12 -28.5t-28 -11.5h-366q-16 0 -27.5 11.5
t-11.5 28.5v429q0 16 11.5 28t27.5 12h239q11 0 23.5 -4t24.5 -10.5t20 -13.5zM426 323l-71 71l-5 5v-81h81zM445 -24v302q0 3 -1 8h-126v126q-5 1 -8 1h-239q-8 0 -8 -8v-429q1 -8 8 -8h366q8 0 8 8z" />
    <glyph glyph-name="CRAM" unicode="R" 
d="M138 180l17 -5q-4 -14 -13 -21t-22 -7q-18 0 -29 12t-11 32q0 21 11.5 33t29.5 12q15 0 25 -9q6 -6 9 -16l-17 -4q-2 6 -6.5 10t-11.5 4q-10 0 -16 -6.5t-6 -22.5t6 -23t15 -7q7 0 12 4.5t7 13.5zM164 149v86h37q13 0 19.5 -2.5t10 -8.5t3.5 -13q0 -10 -5.5 -16.5
t-16.5 -7.5q5 -4 9 -7.5t10 -14.5l10 -16h-20l-13 18q-6 10 -9 13t-5.5 4t-8.5 1h-4v-36h-17zM181 198h13q13 0 16 1t5 4t2 6q0 5 -2.5 7.5t-6.5 3.5h-10h-3h-14v-22zM328 149h-19l-7 19h-34l-8 -19h-18l33 86h19zM296 183l-12 32l-11 -32h23zM337 149v86h26l16 -59l15 59
h26v-86h-16v67l-17 -67h-17l-17 67v-67h-16zM449 346q11 -12 19.5 -32t8.5 -36v-302q0 -17 -12 -28.5t-28 -11.5h-366q-16 0 -27.5 11.5t-11.5 28.5v429q0 16 11.5 28t27.5 12h239q11 0 23.5 -4t24.5 -10.5t20 -13.5zM426 323l-71 71l-5 5v-81h81zM445 -24v302q0 3 -1 8
h-126v126q-5 1 -8 1h-239q-8 0 -8 -8v-429q1 -8 8 -8h366q8 0 8 8z" />
    <glyph glyph-name="RXN" unicode="X" 
d="M181 235q6 0 10.5 -2t7.5 -5t5 -7.5t2 -9.5q0 -7 -3 -12.5t-11 -8.5v-1q7 -1 10 -7l2 -6t1 -7v-4q0 -3 0.5 -6t1 -5.5t1.5 -4.5h-18q-2 4 -2.5 10t-0.5 11q-1 6 -4.5 9.5t-10.5 3.5h-18v-34h-19v86h46zM174 196q7 0 10 3t3 9q0 7 -3 9.5t-10 2.5h-20v-24h20zM215 235h22
l16 -28l18 28h20l-27 -41l30 -45h-23l-18 30l-19 -30h-22l30 45zM320 235l36 -58v58h18v-86h-19l-36 57v-57h-18v86h19zM449 346q11 -12 19.5 -32t8.5 -36v-302q0 -17 -12 -28.5t-28 -11.5h-366q-16 0 -27.5 11.5t-11.5 28.5v429q0 16 11.5 28t27.5 12h239q11 0 23.5 -4
t24.5 -10.5t20 -13.5zM426 323l-71 71l-5 5v-81h81zM445 -24v302q0 3 -1 8h-126v126q-5 1 -8 1h-239q-8 0 -8 -8v-429q1 -8 8 -8h366q8 0 8 8z" />
    <glyph glyph-name="ZIP" unicode="Z" 
d="M207 218h-43v16h68v-15l-46 -55h47v-15h-72v14zM262 234v-85h-19v85h19zM316 234q8 0 13.5 -2t9 -6t5 -9t1.5 -10t-1.5 -10t-5 -9t-9 -6.5t-13.5 -2.5h-20v-30h-19v85h39zM310 194q4 0 7 0.5t5 2t3.5 4t1.5 6.5t-1.5 6.5t-3.5 4t-5 2t-7 0.5h-14v-26h14zM449 346
q11 -12 19.5 -32t8.5 -36v-302q0 -17 -12 -28.5t-28 -11.5h-366q-16 0 -27.5 11.5t-11.5 28.5v429q0 16 11.5 28t27.5 12h239q11 0 23.5 -4t24.5 -10.5t20 -13.5zM426 323l-71 71l-5 5v-81h81zM445 -24v302q0 3 -1 8h-126v126q-5 1 -8 1h-239q-8 0 -8 -8v-429q1 -8 8 -8h366
q8 0 8 8z" />
    <glyph glyph-name="FASTA" unicode="a" 
d="M138 235v-16h-41v-20h36v-14h-36v-36h-19v86h60zM185 235l32 -86h-19l-7 19h-32l-7 -19h-19l33 86h19zM186 182l-11 32l-11 -32h22zM239.5 170q1.5 -3 4 -4.5t6 -2.5t7.5 -1q2 0 5 0.5t5.5 1.5t4 3t1.5 5v1q0 3 -2 5t-6 3.5t-8 2.5t-9 3q-5 1 -9.5 2.5t-8 4.5t-6 7
t-2.5 10q0 7 3 11.5t7.5 8t10 5t11.5 1.5q7 0 13 -1.5t11 -5t8 -8.5t3 -13h-19q0 4 -1.5 6.5t-3.5 4t-5 2t-7 0.5q-2 0 -4 -0.5t-4 -1.5t-3.5 -3t-1.5 -5q0 -2 1 -3.5t4 -3t8 -2.5t13 -3q2 -1 6.5 -2t8.5 -4t7 -7.5t3 -11.5q0 -6 -2 -11t-6.5 -9t-11 -6t-15.5 -2q-7 0 -14 2
t-12 5.5t-8 9.5t-3 14h19q0 -5 1.5 -8zM296 219v16h70v-16h-26v-70h-18v70h-26zM408 235l32 -86h-20l-6 19h-32l-7 -19h-19l32 86h20zM409 182l-11 32l-12 -32h23zM449 346q11 -12 19.5 -32t8.5 -36v-302q0 -17 -12 -28.5t-28 -11.5h-366q-16 0 -27.5 11.5t-11.5 28.5v429
q0 16 11.5 28t27.5 12h239q11 0 23.5 -4t24.5 -10.5t20 -13.5zM426 323l-71 71l-5 5v-81h81zM445 -24v302q0 3 -1 8h-126v126q-5 1 -8 1h-239q-8 0 -8 -8v-429q1 -8 8 -8h366q8 0 8 8z" />
    <glyph glyph-name="CSV" unicode="c" 
d="M196 212q-3 6 -10 8q-3 1 -6 1q-7 0 -11.5 -2.5t-7 -6.5t-4 -9.5t-1.5 -11t1.5 -10.5t4 -9t7 -6.5t11.5 -2.5q8 0 13 5t6 14h18q0 -8 -3 -14.5t-8 -11t-11.5 -7t-14.5 -2.5q-10 0 -18 3.5t-13.5 9.5t-8 14t-2.5 17v1q0 9 2.5 17.5t8 14.5t13.5 9q8 4 17 4h1q7 0 13 -2
t11 -6t8.5 -10t4.5 -13h-19q0 3 -2 6zM244.5 170q1.5 -3 4 -4.5t6 -2.5t7.5 -1q3 0 5.5 0.5t5 1.5t4.5 3t2 5q0 4 -2.5 6t-5.5 4q-4 1 -8.5 2t-9.5 3q-5 1 -9.5 2.5t-8 4.5t-5.5 7t-2 10q0 7 2.5 11.5t7 8t10.5 5t12 1.5t12.5 -1.5t11 -5t7.5 -8.5t3 -13h-18q0 4 -1.5 6.5
t-4 4t-5.5 2t-6 0.5q-2 0 -4.5 -0.5t-4.5 -1.5t-3 -3t-1 -5q0 -2 1 -3.5t4 -3t7 -2.5q5 -1 14 -3q2 -1 6 -2t8.5 -4t7.5 -7.5t3 -11.5q0 -6 -2.5 -11t-7 -9t-11 -6t-15.5 -2q-7 0 -13.5 2t-11.5 5.5t-8 9.5t-3 14h18q0 -5 1.5 -8zM327 149l-28 86h19l19 -60h1l19 60h19
l-28 -86h-21zM449 346q11 -12 19.5 -32t8.5 -36v-302q0 -17 -12 -28.5t-28 -11.5h-366q-16 0 -27.5 11.5t-11.5 28.5v429q0 16 11.5 28t27.5 12h239q11 0 23.5 -4t24.5 -10.5t20 -13.5zM426 323l-71 71l-5 5v-81h81zM445 -24v302q0 3 -1 8h-126v126q-5 1 -8 1h-239
q-8 0 -8 -8v-429q1 -8 8 -8h366q8 0 8 8z" />
    <glyph glyph-name="DOC" unicode="d" 
d="M161 237q9 0 16 -3t12.5 -8t8.5 -13t3 -19q0 -9 -2.5 -17t-7.5 -14t-12.5 -9.5t-17.5 -3.5h-37v87h37zM160 166q4 0 8 1.5t7 4.5t5 8t2 12t-1.5 12t-4.5 9t-7 6q-6 2 -11 2h-1h-14v-55h17zM213 211.5q3 8.5 8.5 14.5t13.5 9.5t17.5 3.5t17.5 -3.5t13.5 -9.5t8.5 -14.5
t3 -18.5q0 -9 -3 -17t-8.5 -14.5t-13.5 -9.5t-18 -3t-17.5 3t-13 9.5t-8.5 14.5t-3 17q0 10 3 18.5zM230.5 183q1.5 -5 4 -9.5t7 -7t11 -2.5t11 2.5t7 7t4 9.5t1.5 10.5t-1 10.5l-4 10q-3 4 -7.5 6.5t-11 2.5t-11 -2.5t-7 -6.5t-4 -9.5t-1.5 -11t1.5 -10.5zM363 214
q-4 5 -10 8q-3 1 -7 1q-6 0 -10.5 -2.5t-7.5 -6.5q-3 -5 -4 -10t-1 -10.5t1 -10.5t4 -9.5t7.5 -7t10.5 -2.5q9 0 14 5.5t6 14.5h18q0 -8 -3 -14.5t-8 -11.5t-12 -7t-15 -2q-10 0 -17.5 3t-13.5 10q-5 6 -8 14t-3 17q0 10 3 18t8.5 14.5t13 10t17.5 3.5q8 0 14 -2t11 -6
t8.5 -10t4.5 -13h-19q0 3 -2 6zM448 348q12 -11 20 -31.5t8 -36.5v-304q0 -16 -11.5 -28t-28.5 -12h-368q-16 0 -28 12t-12 28v432q0 17 12 28.5t28 11.5h240q17 0 37 -8.5t32 -19.5zM426 326l-72 71q-2 2 -6 5v-82h82zM444 -24v304v8h-128v127q-4 1 -8 1h-240q-8 0 -8 -8
v-432q1 -8 8 -8h368q8 0 8 8z" />
    <glyph glyph-name="FASTQ" unicode="f" 
d="M133 235v-16h-41v-20h36v-14h-36v-36h-19v86h60zM177 235l32 -86h-19l-7 19h-32l-7 -19h-19l33 86h19zM178 182l-11 32l-11 -32h22zM228 170q2 -3 4.5 -4.5t6 -2.5t6.5 -1t6 0.5t5.5 1.5t4 3t1.5 5q0 4 -2 6t-6 4l-8 2t-9 3q-5 1 -9.5 2.5t-8 4.5t-6 7t-2.5 10
q0 7 3 11.5t7.5 8t10 5t11.5 1.5q7 0 13 -1.5t11 -5t7.5 -8.5t2.5 -13h-18q0 4 -1.5 6.5t-3.5 4t-5 2t-7 0.5q-2 0 -4.5 -0.5t-4 -1.5t-3 -3t-1.5 -5q0 -2 1 -3.5t4 -3t8 -2.5t13 -3q2 -1 6.5 -2t8.5 -4t7 -7.5t3 -11.5q0 -6 -2 -11t-6.5 -9t-11.5 -6t-15 -2q-7 0 -14 2
t-12 5.5t-8 9.5t-3 14h18q0 -5 2 -8zM282 219v16h70v-16h-26v-70h-19v70h-25zM418 152q-9 -5 -21 -5q-10 0 -17.5 3.5t-13 9.5t-8.5 14t-3 18q0 9 3 17.5t8.5 14.5t13 9.5t17.5 3.5t18 -3.5t13.5 -9.5t8 -14.5t2.5 -18t-2.5 -17.5t-8.5 -14l11 -10l-9 -9zM415 172q3 3 4 8
t1 12q0 5 -1 10.5t-4 9.5t-7 6.5t-10.5 2.5t-11 -2.5t-7.5 -6.5t-4 -9q-1 -6 -1 -11.5t1 -10.5t4 -9t7.5 -6.5t10.5 -2.5h4.5t3.5 1l-8 7l8 10zM449 346q11 -12 19.5 -32t8.5 -36v-302q0 -17 -12 -28.5t-28 -11.5h-366q-16 0 -27.5 11.5t-11.5 28.5v429q0 16 11.5 28
t27.5 12h239q11 0 23.5 -4t24.5 -10.5t20 -13.5zM426 323l-71 71l-5 5v-81h81zM445 -24v302q0 3 -1 8h-126v126q-5 1 -8 1h-239q-8 0 -8 -8v-429q1 -8 8 -8h366q8 0 8 8z" />
    <glyph glyph-name="OWL" unicode="o" 
d="M122.5 209.5q2.5 8.5 8 14.5t13.5 9q8 4 17 4h1q10 0 17.5 -3.5t13 -9.5t8.5 -14.5t3 -17.5q0 -10 -3 -18t-8.5 -14t-13.5 -9q-8 -4 -17 -4q-10 0 -18 3.5t-13.5 9.5t-8 14t-2.5 17v1q0 9 2.5 17.5zM139.5 181q1.5 -5 4 -9t7 -6.5t11 -2.5t11 2.5t7 6.5t4 9t1.5 10.5
t-1.5 11t-4 9.5t-7 6.5t-11 2.5t-11 -2.5t-7 -6.5t-4 -9.5t-1.5 -11t1.5 -10.5zM280 149l-15 58l-15 -58h-19l-22 86h19l13 -59l15 59h18l15 -59l14 59h18l-23 -86h-18zM349 235v-70h42v-16h-61v86h19zM452 346q11 -12 19.5 -32t8.5 -36v-302q0 -17 -11.5 -28.5t-28.5 -11.5
h-365q-17 0 -28.5 11.5t-11.5 28.5v429q0 16 11.5 28t28.5 12h238q16 0 36 -8.5t32 -19.5zM429 323l-71 71l-5 5v-81h81q-2 3 -5 5zM448 -24v302q0 3 -1 8h-126v126q-5 1 -8 1h-238q-8 0 -8 -8v-429q0 -8 8 -8h365q8 0 8 8z" />
    <glyph glyph-name="PDF" unicode="p" 
d="M181 235q8 0 13.5 -2.5t9 -6.5t5.5 -8.5t2 -10t-2 -10.5q-3 -11 -14 -15q-6 -2 -13 -2h-1h-20v-31h-19v86h39zM176 194q3 0 6 0.5t5.5 2t3.5 4t1 6.5t-1 6.5t-3.5 4t-5.5 2t-6 0.5h-15v-26h15zM259 235q9 0 16 -2.5t12 -8t8 -13.5t3 -19q0 -9 -2 -17t-7 -13.5t-12.5 -9
t-17.5 -3.5h-37v86h37zM258 165q4 0 8 1.5t7 4.5t4.5 8t1.5 12q0 6 -1 11.5t-4 9t-7.5 5.5t-11.5 2h-14v-54h17zM372 235v-16h-42v-20h36v-14h-36v-36h-19v86h61zM449 346q11 -12 19.5 -32t8.5 -36v-302q0 -17 -12 -28.5t-28 -11.5h-366q-16 0 -27.5 11.5t-11.5 28.5v429
q0 16 11.5 28t27.5 12h239q11 0 23.5 -4t24.5 -10.5t20 -13.5zM426 323l-71 71l-5 5v-81h81zM445 -24v302q0 3 -1 8h-126v126q-5 1 -8 1h-239q-8 0 -8 -8v-429q1 -8 8 -8h366q8 0 8 8z" />
    <glyph glyph-name="RD" unicode="r" 
d="M221 235q6 0 10.5 -2t8 -5t5 -7.5t1.5 -9.5q0 -7 -3 -12.5t-11 -8.5v-1q7 -1 10 -7l2 -6t1 -7v-4q0 -3 0.5 -6t1 -5.5t1.5 -4.5h-18q-2 4 -2.5 10t-0.5 11q-1 6 -4.5 9.5t-10.5 3.5h-18v-34h-19v86h46zM214 196q7 0 10 3t3 9q0 7 -3 9.5t-10 2.5h-20v-24h20zM298 235
q9 0 16 -2.5t12 -8t8 -13.5t3 -19q0 -9 -2.5 -17t-6.5 -14q-5 -5 -12.5 -8.5t-17.5 -3.5h-37v86h37zM297 165q4 0 8 1.5t7 4.5t4.5 8t1.5 12q0 6 -1 11.5t-4 9t-8 5.5t-11 2h-14v-54h17zM449 346q11 -12 19.5 -32t8.5 -36v-302q0 -17 -12 -28.5t-28 -11.5h-366
q-16 0 -27.5 11.5t-11.5 28.5v429q0 16 11.5 28t27.5 12h239q11 0 23.5 -4t24.5 -10.5t20 -13.5zM426 323l-71 71l-5 5v-81h81zM445 -24v302q0 3 -1 8h-126v126q-5 1 -8 1h-239q-8 0 -8 -8v-429q1 -8 8 -8h366q8 0 8 8z" />
    <glyph glyph-name="SDF" unicode="s" 
d="M158 170q1 -3 4 -4.5t6.5 -2.5t6.5 -1t6 0.5t5.5 1.5t4 3t1.5 5q0 4 -2 6t-6 4l-8 2t-9 3q-5 1 -9.5 2.5t-8.5 4.5t-6 7t-2 10q0 7 3 11.5t7.5 8t10 5t11.5 1.5q7 0 13 -1.5t11 -5t7.5 -8.5t2.5 -13h-18q0 4 -1.5 6.5t-3.5 4t-5 2t-7 0.5q-2 0 -4.5 -0.5t-4 -1.5t-3 -3
t-1.5 -5q0 -2 1 -3.5t4 -3t8 -2.5t13 -3q2 -1 6.5 -2t8.5 -4t7 -7.5t3 -11.5q0 -6 -2 -11t-6.5 -9t-11.5 -6t-15 -2q-7 0 -14 2t-12 5.5t-8 9.5t-3 14h18v-1q0 -4 2 -7zM258 235q9 0 16 -2.5t12 -8t8 -13.5t3 -19q0 -9 -2.5 -17t-7 -13.5t-12 -9t-17.5 -3.5h-37v86h37z
M257 165q4 0 8 1.5t7 4.5t4.5 8t1.5 12q0 6 -1 11.5t-4 9t-7.5 5.5t-11.5 2h-14v-54h17zM371 235v-16h-42v-20h36v-14h-36v-36h-19v86h61zM449 346q11 -12 19.5 -32t8.5 -36v-302q0 -17 -12 -28.5t-28 -11.5h-366q-16 0 -27.5 11.5t-11.5 28.5v429q0 16 11.5 28t27.5 12h239
q11 0 23.5 -4t24.5 -10.5t20 -13.5zM426 323l-71 71l-5 5v-81h81zM445 -24v302q0 3 -1 8h-126v126q-5 1 -8 1h-239q-8 0 -8 -8v-429q1 -8 8 -8h366q8 0 8 8z" />
    <glyph glyph-name="TXT" unicode="t" 
d="M140 221v16h71v-16h-26v-71h-19v71h-26zM214 237h22l17 -28l17 28h21l-28 -41l30 -46h-22l-19 30l-19 -30h-21l30 46zM294 221v16h71v-16h-26v-71h-19v71h-26zM448 348q12 -11 20 -31.5t8 -36.5v-304q0 -16 -11.5 -28t-28.5 -12h-368q-16 0 -28 12t-12 28v432
q0 17 12 28.5t28 11.5h240q17 0 37 -8.5t32 -19.5zM426 326l-72 71q-2 2 -6 5v-82h82zM444 -24v304v8h-128v127q-4 1 -8 1h-240q-8 0 -8 -8v-432q1 -8 8 -8h368q8 0 8 8z" />
    <glyph glyph-name="TSV" unicode="v" 
d="M142 219v16h71v-16h-26v-70h-19v70h-26zM236.5 170q1.5 -3 4.5 -4.5t6.5 -2.5t6.5 -1t6 0.5t5.5 1.5t4 3t1.5 5q0 4 -2.5 6t-5.5 4l-8 2t-10 3q-4 1 -9 2.5t-8.5 4.5t-5.5 7t-2 10q0 7 2.5 11.5t7.5 8t10.5 5t11.5 1.5q7 0 13 -1.5t11 -5t7.5 -8.5t2.5 -13h-18
q0 4 -1.5 6.5t-4 4t-5 2t-6.5 0.5q-2 0 -4.5 -0.5t-4 -1.5t-3 -3t-1.5 -5q0 -2 1 -3.5t4 -3t8 -2.5t13 -3q2 -1 6.5 -2t8.5 -4t7 -7.5t3 -11.5q0 -6 -2 -11t-6.5 -9t-11.5 -6t-15 -2t-14.5 2t-11.5 5.5t-8 9.5t-3 14h18q0 -5 1.5 -8zM319 149l-28 86h19l20 -60l19 60h20
l-29 -86h-21zM449 346q11 -12 19.5 -32t8.5 -36v-302q0 -17 -12 -28.5t-28 -11.5h-366q-16 0 -27.5 11.5t-11.5 28.5v429q0 16 11.5 28t27.5 12h239q11 0 23.5 -4t24.5 -10.5t20 -13.5zM426 323l-71 71l-5 5v-81h81zM445 -24v302q0 3 -1 8h-126v126q-5 1 -8 1h-239
q-8 0 -8 -8v-429q1 -8 8 -8h366q8 0 8 8z" />
    <glyph glyph-name="XML" unicode="x" 
d="M123 237h22l17 -28l18 28h20l-27 -41l30 -46h-23l-19 30l-19 -30h-21l30 46zM237 237l20 -60h1l19 60h26v-87h-17v62h-1l-21 -62h-14l-22 61v-61h-18v87h27zM339 237v-71h42v-16h-61v87h19zM448 348q12 -11 20 -31.5t8 -36.5v-304q0 -16 -11.5 -28t-28.5 -12h-368
q-16 0 -28 12t-12 28v432q0 17 12 28.5t28 11.5h240q17 0 37 -8.5t32 -19.5zM426 326l-72 71q-2 2 -6 5v-82h82zM444 -24v304v8h-128v127q-4 1 -8 1h-240q-8 0 -8 -8v-432q1 -8 8 -8h368q8 0 8 8z" />
  </font>
</defs>
</svg>
