<svg xmlns="http://www.w3.org/2000/svg" width="32" height="32" viewBox="0 0 32 32"><path d="M28 11.093c-2.347 1.44-3.52 3.573-3.307 6.347s1.707 4.64 4.107 5.867c-.107.32-.267.693-.373 1.067-.8 2.08-2.027 3.947-3.52 5.6-.64.693-1.333 1.227-2.293 1.44-.747.16-1.44.053-2.133-.16-.587-.16-1.12-.427-1.653-.587-1.6-.587-3.2-.427-4.747.213-.587.267-1.173.48-1.813.587-.907.16-1.76-.053-2.507-.587-.853-.587-1.493-1.333-2.133-2.187-1.867-2.4-3.04-5.067-3.68-8-.32-1.6-.48-3.2-.32-4.8.213-1.867.8-3.573 2.027-5.067 1.28-1.547 2.933-2.453 4.907-2.72 1.013-.107 1.973.053 2.88.373.747.267 1.493.533 2.293.8.427.16.853.16 1.28 0 .853-.32 1.653-.587 2.507-.853.8-.267 1.653-.48 2.507-.427 1.92.107 3.68.693 5.067 2.027.267.267.48.533.693.8.107.053.16.16.213.267zM22.4.533c0 .427.053.853 0 1.28-.267 2.133-1.333 3.787-3.04 5.013-.907.64-1.92.907-2.987.853h-.16c0-.427-.053-.8 0-1.227.373-2.613 1.867-4.373 4.267-5.44.533-.267 1.12-.373 1.707-.48h.213z"/></svg>