<svg xmlns="http://www.w3.org/2000/svg" width="32" height="32" viewBox="0 0 32 32"><path d="M11.331 11.596s-.364-.793-.529-1.189-.661-1.156-.661-1.388c0-.231.066-1.652-.166-2.643-.23-.992-.758-3.007-.758-3.007l-.661-1.718S8.49.56 8.226.362c-.265-.197-.463-.528-.628-.264s-.231.76-.231.76-2.346.1-2.544.132c-.198.033-1.058-.76-1.355-.628-.298.133-.594.496-.364.695.232.198.496.826.496.826s-.859.429-.859.825.43 1.189.331 1.454-.728.363-.794.628c-.066.264-.198 1.09 0 1.42.198.331 1.851 1.355 1.851 1.355s.528 1.42.627 1.784c.099.364.529 5.518.661 6.112s.826 4.329 4.857 7.038c0 0-.014 2.805.522 3.868.121.238.573 1.858.627 2.018s.296 2.294.256 2.499c-.041.206-.593.577-.46.825.132.25 1.017.136 1.34.061s.556-.338.556-.338l.285-1.669s.34 1.089.324 1.225c-.016.135-.642.448-.37.747s1.357.191 1.561-.036c.204-.225.193-1.09.249-1.43.056-.341.008-2.266.008-2.266s.99-2.395.967-3.091c-.022-.696-.082-1.785-.082-1.785s1.618.528 2.345.396c.727-.133 2.214-.529 2.214-.529l.529.166s.573 2.174 1.004 3.033c.429.858.628 1.585.628 1.816s-.364 1.421-.364 1.421l-.43 1.255s-.957.431-1.024.761c-.065.33.562.363 1.059.33.495-.032.825-.265.825-.265l.265-.727s.363.297.561-.1c.199-.396 1.157-2.544 1.322-2.741.166-.199.429-.231.429-.231s.034 2.015-.064 2.346c-.101.33-.529 1.156-.529 1.156s-.893.463-.661.628c.232.164 1.52.264 1.851-.033.33-.298.265-.76.265-.76s1.09-2.247 1.354-2.644c.265-.396.596-2.015.529-2.775-.065-.76-.476-1.844-.476-1.844s.76-1.784.925-2.412.331-1.42.331-1.42.958-1.686.826-3.503c-.133-1.817-.859-2.841-1.322-3.271s-2.411-.892-2.411-.892-.761-.595-2.28-.925-3.304-.231-3.667-.132-3.106.827-3.106.827-1.42.065-1.949.033c-.533-.032-2.746-.694-3.705-.495z"/></svg>