<svg xmlns="http://www.w3.org/2000/svg" width="32" height="32" viewBox="0 0 32 32"><path d="M23 25.1c.1.6 1.1 1.8 1.1 1.8s0-.9.3-1.6c.2-.5.4-1 .1-1.8s-1.2-1.9-1.2-1.9.2.6 0 1.3c-.3.7-.4 1.5-.3 2.2zm.3 1.6l-.4-.3s-.9-1.3-2.1-1.4c-1.2-.2-1.1 0-2.4.2-.8.1-1.8-.1-1.8-.1s2.1 2.1 2.9 2.1c.8 0 1.3-.5 2.3-.4.5-.1 1.5-.1 1.5-.1zm-2.9-4.1c.3 1.1 1.9 2.4 1.9 2.4s-.1-.8 0-1.7c.1-.8.3-1.4.2-2.2-.2-.8-2.1-3.6-1.8-2.9.3.6.1.9 0 2-.2 1.1-.6 1.3-.3 2.4zm0 1.5s-.8-1.4-2.2-1.9c-1.3-.5-1.6-.2-2.2 0-1.5.3-2.8-.3-2.8-.3s2 2.1 2.9 2.4c.8.3 2.3.2 3 .1.6-.2 1.3-.3 1.3-.3zm-6.9-2.8c1.1.4 2.5-.1 3-.2.4-.1.6-.2.6-.2s-.8-1.3-1.9-1.6c-1.2-.3-1.4.1-2.5.2-.4 0-1-.1-1.5-.2-2.7-1.7-4.8-4.9-4.8-4.9-.1-.1-.2-.1-.3 0s-.1.2 0 .3 3 4.1 5.9 5.7c.5.4 1.1.8 1.5.9zm-2.3-3c1 .4 2.8.1 2.8.1l.7-.1s-.3-1.5-1.7-1.9-1.7-.2-2.6-.4c-.5 0-1.1-.3-1.4-.4-2.7-2.4-4.7-5.8-4.7-5.9-.1-.1-.2-.1-.3 0-.1 0-.2.1-.1.2.2.3 3.5 5.5 6.8 7.9.2.3.4.4.5.5zm-1.5-3.1c.7.4 2.9.4 2.9.4s-.3-1.4-1.5-2.2c-1-.7-3-1-3.5-1C5.4 10 3.1 5.6 3 5.5c0-.1-.1-.1-.2-.1-.1.1-.2.2-.1.3.1.2 3 5.5 5.5 7.7.5.7 1.1 1.5 1.5 1.8zm-.9-3.5s.7-1.1.3-1.9c-.2-.6-1.6-1.5-2.3-2C4.7 5 2.8.2 2.7.1c0-.1-.1-.1-.2-.1-.1.1-.2.2-.1.3 0 .1 2 4.5 4 7.4.1.6.3 2.1.5 2.5.3.5.6 1.1 1.9 1.5zm20.1 18.6c-.8-.4-3-2-3.1-2.3-.2-.3.4-1.3.4-2s-.9-2.3-.9-2.3-.2.7-.3 1.1c-.1.4-.3 1.3-.3 1.7s.3 1.2.3 1.2-1.3-.3-1.7-.4c-.9-.1-3.2.2-3.2.2 1.8 1.6 3.2 1.4 3.8 1.3.6 0 1.3-.6 1.5-.5s1.5 1.6 2.2 2.2c.7.6 2.9 1.6 3.3 1.2s.1-1.2.1-1.2-1.3.2-2.1-.2zM10.1 8.9c0 .3 0 .8-.1 1.1 0 .7-.7 2-.2 2.1.8.2 1.8 1 1.8 1s.6-1.2.4-2c-.1-.5-1-1.5-1.5-2-1.7-4-4.8-6.8-4.8-6.8-.1-.1-.2-.1-.3 0s-.1.2 0 .3c.1 0 3.2 2.9 4.7 6.3zm3.1 2.2c-.1.7-.8 1.7-.7 2.5 0 1 1.4 2.3 1.4 2.3s.4-.5.5-1.1c.2-.6.1-1.3-.1-2-.2-.6-.5-1.2-.7-1.6-1-2.7-3.4-6-3.5-6.2-.1-.1-.2-.1-.3 0-.1 0-.1.1-.1.2.1.1 2.5 3.3 3.5 5.9zm2.5 1.9c0 .3-.1.8-.2 1.4-.2.6-.6 1.3-.5 2.2s1.5 2.2 1.5 2.2.5-.8.9-1.7c.4-1-.2-1.7-.6-2.5-.2-.3-.3-.6-.4-.8-.9-3.1-2.3-5.3-2.3-5.4-.1-.1-.2-.1-.3-.1-.1.1-.1.2-.1.3-.1 0 1.1 1.5 2 4.4zm2.8 2.9c0 .4 0 .8-.1 1.1-.2.9-.9 1.5-.8 2.7 0 1.2 1.6 2 1.7 2.1l.2.1s0-.4.1-1c.2-.8.6-1.7.5-2.6s-1.4-3.1-1.5-3.3c-.7-1.6-1.6-3.1-1.6-3.2-.1-.1-.2-.1-.3-.1-.1.1-.1.2-.1.3-.1 0 1.2 2 1.9 3.9z"/></svg>