<svg xmlns="http://www.w3.org/2000/svg" width="32" height="32" viewBox="0 0 32 32"><path d="M31.896 11.519c-.144-.277-.25-.497-.437-.712a2.799 2.799 0 0 0-.494-.679c-.178-.093-.277-.273-.552-.35-.241-.268-.772-.243-1.125-.367-.481-.11-1.145-.136-1.529-.393-.488-.05-.972-.366-1.469-.204-.388.09-.893.039-1.255.236-.728.107-1.484.146-2.22.268-.657.062-1.412.004-2.1.126-1.061-.035-1.967-.272-3.035-.302-.915-.09-2.002-.038-2.813-.307-.569-.092-1.001-.37-1.658-.327-.424-.083-.846.033-1.122.095-.552.153-.966.346-1.647.297-.761.053-1.547-.13-2.127-.314-.449-.1-.901-.147-1.277-.302.068-.445-.106-.614-.396-.818-.113-.078-.336.292-.322-.02.095-.405-.167-.7-.428-.938-.19-.264-.382-.499-.588-.736-.176.076-.284.393-.168.615.032.279.274.468.318.751-.01.237-.111-.081-.251-.062-.31-.059-.553.12-.818-.098-.251-.067-.257.19-.501-.009a1.958 1.958 0 0 1-.497-.216c-.292-.144-.599-.509-.908-.641-.206.129-.047.51.086.663.226.388.697.54 1.077.753.008.104-.218.213-.312.119-.372-.311-1.014-.352-1.454-.133-.364.036-.516.465-.342.728.138.329.614.31.914.465-.02.367.027.694-.232.902-.293.409-.602.756-.895 1.128-.167.371-.512.668-.709.964-.323.172-.727.415-.579.963.113.254.373.394.574.573.213.212.475.549.829.357.22-.171.369-.473.8-.338.651.103 1.148-.184 1.809-.071.51-.011 1.023.088 1.53.105.205.134.477.277.591.454.295.499 1.012 1.168 1.391 1.569.194.196.306.387.407.599.05.295.103.626.357.782.171.262.367.431.591.629.208.107.293.318.351.596.246.266.115.955.326 1.279.076.22.223.345.413.509.308.121.571.256.941.318.486.115 1.125.311 1.636.195.285.064.105.65.054.911-.331.884.296 1.877.062 2.817-.061.504-.095 1.25-.393 1.53-.079.362-.182.712-.537.892-.17.196-.414.385-.517.541-.146.268.301.273.497.346.671.081 1.018-.008 1.292-.232.293-.045.236-.598.202-.857.158-.038.336-.093.492-.173.038-.479-.006-.981.001-1.48-.037-.606.319-.97.335-1.497.043.252.16.527.188.826.023.562.065 1.127.153 1.676-.241.074-.276.355-.392.624-.237.206-.393.405-.61.591-.175.568.844.428 1.156.405.505.001.345-.195.595-.276.181-.201.276-.745.1-.994.044-.27.749.193.486-.376-.161-.136-.063-.409-.167-.584-.16-.283-.104-.799-.179-1.181-.043-.48-.309-.795-.125-1.338.049-.398.227-1.066-.088-1.265-.005-.585.247-1.003.27-1.612.167-.236.622-.117.902-.22.677-.007 1.527-.063 2.139.135.553.007 1.148.104 1.647.085.653-.01.505.038 1.978-.042.282.013.716-.218.964-.013.227.131.394.28.524.486.279.174.274.295.573.453.257 1.149 1.382.906 1.409.996.124.159.315.155.405.321.155.197.082.759.009 1.037-.135.298-.275.51-.351.849-.153.225-.236.555-.415.714-.102.288-.179.519-.413.677a4.143 4.143 0 0 0-.566 1.057c-.123.287-.783.901-.881 1.055-.244.106-.67.448-.255.521.431.044 1.934.2 1.765-.685.081-.304.386-.192.63-.312.206-.172.115-.516.163-.824.24-.273.412-.479.601-.702.074-.369.353-.53.515-.819.214-.209.337-.431.474-.766.136-.258.315-.632.531-.799.132-.165.263-.279.349-.534.248.268.262.622.304 1.057.095.701-.057 1.386-.203 2.042-.014.494-.197.941-.397 1.307-.122.236-.179.566-.468.674-.153.217-.793.564-.653.663-.041.376.786.175 1.042.214.214-.049.599-.008.677-.161.373-.087.157-.697.441-.842.345.159.52-.196.393-.346-.171-.405.087-1.013.077-1.513.048-.456.065-.928.298-1.203.046-.469.039-.174.105.08.068.225.141.472.217.68.029.47-.139.714-.375.959-.119.231.298.012.33-.035.273-.096.374-.635.385-.457.14.206-.185.812.017.631.146-.199.241-.546.219-.845.045.102.13.172.267.19.003-.313-.241-.395-.212-.736-.051-.525.003-1.207.332-1.459.089-.18.258-.561.341-1.146.012-.321.022-1.395-.204-1.901-.096-.531.036-1.15.124-1.676-.025-.36-.187-.711-.021-1.131.14-.766.314-1.542.352-2.347.149-.665.147-1.467.3-2.092.154-.307.245-.988.059-1.272zm-1.292 5.804c-.067.571.096 1.116.055 1.485-.042.367-.274.927-.229 1.279.046.354-.198 1.081-.198 1.081s-.49-1.309-.583-1.61c-.092-.303-.126-.641.05-1.07s.181-1.117.193-1.32c.014-.203.515-1.116.663-1.402s.305-1.313.305-1.313c.187.661-.188 2.298-.256 2.87z"/></svg>