<svg xmlns="http://www.w3.org/2000/svg" width="32" height="32" viewBox="0 0 32 32"><path d="M6.253 30.967a3.47 3.47 0 0 1-.102-.002c-1.207-.045-3.63-.689-4.158-2.802-.494-1.974.283-9.487.45-10.465.504-2.952 1.239-4.447 1.564-4.996-.123-.307-.219-.838.027-1.629.024-.079 2.552-8.007 3.884-9.672.998-1.248 2.376-1.434 3.109-1.434.341 0 .565.039.589.044a.234.234 0 0 1 .038.009c1.389.385 2.244.936 2.69 1.736.405.724.398 1.526.392 2.301-.009 1.146-1.295 5.214-2.552 9.042l-.226.69c-.156.48-.479.88-.702 1.115.068.422.066 1.318-.178 3.381l-.059.485c-.174 1.419-.537 4.371-.777 8.134-.178 2.802-2.44 4.063-3.989 4.063zM5.096 12.414c.165.156.155.382.016.565-.325.436-2.039 1.989-2.412 6.62-.093 1.154-.543 5.984.159 8.348.66 2.223 2.629 2.458 3.413 2.487l.068.001c.944 0 2.855-1.15 3.01-3.589.242-3.789.836-6.446 1.011-7.873l.059-.481c.275-2.318-.017-3.291-.047-3.449a.449.449 0 0 1 .075-.6c.004-.004.499-.431.661-.93l.227-.693c.683-2.081 2.498-7.609 2.507-8.77.011-1.442.019-2.485-2.405-3.163a2.888 2.888 0 0 0-.412-.027c-.572 0-1.646.143-2.411 1.099-1.006 1.257-2.883 7.386-3.497 9.363-.219.709-.055 1.036-.022 1.092zm5.477 2.785zm13 7.479a3.293 3.293 0 0 1-1.551-.366c-1.634-.86-3.266-4.254-4.241-6.282l-.06-.125c-.904-1.878-2.664-9.29-2.691-11.87-.026-2.504 1.306-3.27 1.577-3.4.721-.443 1.439-.667 2.136-.667 1.835 0 2.934 1.531 3.227 2 .227.363.488 1.261 1.01 3.097.553 1.942 1.31 4.602 2.317 7.392.13.36.297.787.473 1.239.8 2.048 1.795 4.597 1.556 6.189-.117.779-.597 1.5-1.353 2.029a4.292 4.292 0 0 1-2.4.764zM16.799 1.069c-.081.037-1.26.645-1.236 3.97.017 2.439 2.043 9.227 2.895 10.998l.06.125c.866 1.802 2.547 4.636 3.92 5.358.332.175.713.263 1.134.263 1.39 0 2.705-.931 2.87-2.033.203-1.356-.784-3.885-1.505-5.731-.179-.457-.347-.89-.481-1.261-1.017-2.819-1.779-5.496-2.336-7.451-.396-1.393-.54-2.552-.685-2.837C20.92 1.453 20.296.54 18.921.54c-.535 0-1.472.13-2.057.494a.24.24 0 0 1-.065.035zm5.487 29.366c-.838 0-3.117-.202-5.346-.637-2.928-.57-4.825-1.331-5.638-2.261-.716-.819-1.057-2.21-.848-3.463.183-1.098.764-1.979 1.637-2.479.717-.412 1.613-.621 2.664-.621 1.243 0 2.368.286 2.909.424l.107.027c.662.166 5.474.899 7.558.899.238 0 .485-.004.724-.007.247-.004.502-.007.755-.007 1.647 0 3.493.137 4.554 1.769.645.993.812 2.182.459 3.262a3.698 3.698 0 0 1-2.234 2.305c-1.889.714-4.485.738-6.037.752-.453.004-.811.007-1.006.027-.067.007-.151.01-.258.01zm-7.256-8.751c-.892 0-2.284.25-2.864.583-.815.468-1.103 1.265-1.2 1.852-.165.987.098 2.109.64 2.728 1.565 1.789 8.454 2.954 10.104 2.954.099 0 .147-.003.167-.005.235-.023.611-.027 1.086-.031 1.492-.014 4.679-.105 6.419-.763.818-.309 1.578-1.219 1.84-2.02.269-.822.228-1.884-.269-2.648-.738-1.135-2.345-1.13-4.147-1.13-.246 0-.498.004-.741.007a45.18 45.18 0 0 1-.738.007c-2.192 0-6.443-.88-7.147-1.056l-.111-.028c-.505-.129-1.908-.45-3.039-.45z"/></svg>