<svg xmlns="http://www.w3.org/2000/svg" width="32" height="32" viewBox="0 0 32 32"><path d="M27.787 29.013c-.267.053-1.387 0-1.867-.053s-.853-.373-1.547-.533l-2.347-.587c-.427-.373-.96-.533-1.12-.64s0-.533.053-.96c.053-.373.587-1.707.48-2.133s-.32-1.013-.32-1.013l.48.32-.213-.64.373.107-.213-.96h.533s-.48-1.28-.64-1.44.053-.587-.107-1.227c-.16-.587-.373-1.547-.693-1.867s.48 0 .48 0-.8-1.173-1.227-1.227c-.373-.053-2.133-1.44-2.667-1.707s-1.493-.053-2.187-.587c-.693-.533-.96-.96-1.333-1.6s-.48-3.573-.693-4.427c-.213-.853-.64-2.133-.96-2.987-.213-.747-1.28-1.653-1.28-1.653s.267-.64-.267-.853c-.533-.213-1.173-.107-1.173-.107s-1.227-.747-1.707-.853c-.48-.107-1.173-.213-1.173-.213S5.332.906 4.959.853c-.373-.053-.587-.107-.693.32-.107.48 0 1.28.213 1.44s0 .427.107.693c.107.267.8.96.853 1.387s.427 1.44.533 1.653c.107.213.373.48.373.48s.533 1.707.587 2.347c.053.64-.427 1.653-.427 2.24s.373.64.373.64-.373 1.173-.32 1.44c.053.267.373-.053.373-.053s-.053.747-.213 1.227-.32 1.067-.693 1.707c-.373.64-.64 1.493-1.013 2.027-.32.533-.533.853-.853 1.28-.32.373-.16.96-.16.96l.32-.48s.213.267.48.16.693-.907.693-.907.267-.48.48-.64c.213-.16.693-.427.693-.427s-.267 1.173-.533 1.44c-.267.267-.693.64-.747.96-.053.267-.427 1.013-.267.853.16-.107.48-.48.48-.48s.267.32.533.213c.267-.107.427-.32.427-.32l.053.373.48-.427s.32.053.587-.373.587-.96.587-.96l.267-.747s.16.533.533.587l.373.053.16.96.373-.16-.16.693.427-.107-.213.96.587.8s-.48.48-.427 1.173c.053.64.373.533.053 1.387-.32.8-.48 1.44-.533 2.08s.373.587.16 1.227c-.213.587-.16.747-.533.853s-.693 0-1.067.16c-.32.16-.8.267-.8.267s-.267 0-.373.267c-.107.267.053-.053.32 0s.053.213.373.267c.32.053.427-.053.8 0s.533.053.853.053c.32 0 2.187-.16 2.667 0s1.173.267 1.173.267l.693-.053s-.373.213-.32.427.373.053.373.053l.48.053h.587s.587.107.747 0 1.227-.373 1.6-.32 2.24.107 2.56-.16c.32-.267.16-.533.427-.533s2.24-.267 2.933-.213c.64.053 2.08.427 2.56.427s1.44-.16 1.867-.32c.533-.267.96-1.067.96-1.067s-.533 0-.96.053zM7.307 2.88c-.373.053-.587-.587-.587-.587.213-.16.373-.533 1.013-.053 0 0-.053.587-.427.64z"/></svg>