<svg xmlns="http://www.w3.org/2000/svg" width="32" height="32" viewBox="0 0 32 32"><path d="M30.594 25.328c-.104-.018-.357-.02-.634-.041-.177-.355 1.179-.404.546-.615-.396-.133-1.062.055-1.528.223l-.002-.004c-.132-.461 1.595-.684 1.201-.879-.394-.197-1.181-.066-2.361.262s-2.689 1.967-3.411 2.361c-.722.393-1.377.131-1.377.131s.394-2.426.459-3.607c.065-1.18-.263-1.705-.919-2.559-.655-.852-2.229-1.377-2.229-1.377s.329-.893.854-3.778c.524-2.886-2.494-8.094-2.494-8.094s.438-.258 1.049-.787c.443-.384.57-2.051.57-2.051s.021-.638.021-1.294-.654-.805-.852-1.33c-.196-.525.72-1.819.458-1.885-.263-.065-.852.661-1.246 1.115-.348.399-.328.787-.263 1.246s.656 1.377.656 1.377-.523.42-.787.59c-.221.143-.591.525-.591.525s-.59-.525-1.181-2.296l-.025-.071c-.012.018-.021.036-.036.054-.523.611-1.352-.998-.659-1.353-.443-.506-1.09-.832-2.1-.794-.8.03-1.396.47-1.798.957l.05-.034c.7.35-.131 1.968-.655 1.355-.016-.018-.025-.037-.038-.056-.143.556-1.363 2.631-1.363 2.631-.348.574-1.18-.606-1.706-.917-.339-.2 0-1.377.065-1.574s0-1.443 0-1.443-.107-.433-.5-.739c-.328-.254 0 .634 0 .962s-.35.831-.745 1.613c-.232.458-.086 1.492-.086 1.492s.524 1.464.787 2.186 1.201 1.045 1.201 1.045-1.746 3.813-1.639 7.176c.069 2.167 1.376 4.171 1.376 4.171s-.984.197-2.23 1.771-.459 3.148-.328 4c.132.854 1.443 2.953 1.443 2.953s-1.329.34-1.902.195c-.938-.236-1.507-.629-1.507-.629l-1.772-.289s-1.181.066-1.771.525c-.504.393.681.197 1.039.133-.27.053-1.019.213-1.498.457-.409.209.197.395.656.59a.506.506 0 0 0 .052.023c-.234.006-.522.035-.597.135-.131.176.568.176 1.355.568.776.389 1.467.605 1.905.654.659.244 2.035.521 2.531.521.591 0 1.706.328 2.689.066s1.902-.854 1.902-.854.263-.195.918-.982c.656-.787.221-2.621.023-2.816-.196-.197-.285-1.252-.089-1.383s2.296-.863 2.582-.455c.306.438 1.025-.004 1.025-.004s.787.328 1.181.395c.394.064 2.296.721 2.296.721s-.262 2.82.459 3.805c.722.984 2.821.984 3.477.852s1.968-.459 2.952-.852c.983-.395 2.755-1.902 3.214-2.297.459-.393.853-.59 1.377-.721.526-.128.812-.933.55-.976z"/></svg>