<svg xmlns="http://www.w3.org/2000/svg" width="32" height="32" viewBox="0 0 32 32"><path d="M28.373 12.533c-1.12-.48-2.827-.853-3.787-.853s-2.453.533-3.2 1.12c-.373.267-.48.533-.48.8-.587-.267-1.227-.48-1.227-.48l-.16-.427s.853-.16 1.44-.32c.587-.213 2.027-1.493 2.4-3.093s.32-4.693.32-4.693-.693 1.28-1.867 2.293c-.96.853-1.867 1.12-2.56 1.973-.693.8-.373 2.56-.373 2.56s-.32.267-.64.267-1.6-.213-2.24-.373c-.587-.16-.8-.8-1.227-1.12.107-.107.48-.267.693-.533.693-.8 1.173-1.653 1.227-2.72s-.16-2.933.267-4.373c.16-.533 1.067-2.133 1.067-2.133s-2.613 1.333-3.733 4.16-.48 4.267-.48 4.64c0 .213-.053.48.053.693l-.267.267s-1.547.427-2.24.747c-.693.32-1.173 1.493-1.76 1.6-2.133.427-5.973-.96-6.773-1.12-.747-.213-1.173-.213-1.173-.213s-.48.32-.533.693c-.053.32.267.32.747.48s2.56.693 5.92.96c.427.053 1.333.213 2.027.267.693.107.587.32.48.693-.107.267-.693.64-.693.64s-2.027.8-2.827 2.88c-.533 1.44 0 2.56-.213 3.573-.16.96-1.12 1.12-1.013 5.013.053 2.027 2.24 3.84 2.773 4.213s1.12.693 1.12.693l.64-.213s.053-.48.107-.64.693-1.12.853-2.507c.373-2.933-.8-4.32-.853-5.227-.053-.96.267-.907.587-1.76.267-.853.213-3.253.16-3.84s0-2.293.213-2.56c.213-.267.267-.693.267-1.12s-.693-.267-.693-.533c-.053-.213.64-.907.96-1.227s1.44-.64 1.76-.747c.32-.16.693-.107 1.067.16.32.213-.587.533-.587.533s-.693.587-1.653 1.92-.64 3.893-.64 3.893-.107 1.44-.053 2.027c0 .213-.267 2.347.587 4 1.813 3.733 4.32 4.32 4.64 4.427.267.107.907.48.907.48l.48-.427s-.053-.32-.053-.48c0-.427.48-1.6.267-2.72-.587-3.147-2.347-4.96-2.507-5.493s0-1.067-.107-2.827c-.053-1.013-1.12-2.24-1.227-2.667s-.213-1.493 0-1.867c.213-.373.907.053 1.333.053s1.6.587 2.08.853c.48.267.373.32.427.64.053.267-.373 1.12-.427 1.707-.053.64.427 1.973 1.547 2.613 1.12.693 1.76.96 2.56 1.44.853.48 2.293 2.027 2.293 2.027s-.107-2.773-.8-4.427c-.16-.48-.96-1.493-1.547-2.187h.16s1.387.8 2.507.907c1.12.16 2.88.053 3.947-.427 1.12-.48 3.147-1.6 3.147-1.6s-2.347-.48-3.413-.96z"/></svg>