<svg xmlns="http://www.w3.org/2000/svg" width="32" height="32" viewBox="0 0 32 32"><path d="M28.076 27.939l.009-.02c.08.003.248-.01.248-.169 0-.209-.291-.625-.5-.709a1.96 1.96 0 0 1-.14-.063c-.341-.27-.744-.384-.744-.384s-.206-.575-.083-1.439c.124-.863-.493-2.22-.493-2.22s.74-.986.37-2.22-1.11-1.233-1.11-2.343 0-2.22-.74-3.453-2.343-2.096-2.343-2.096-1.357-.37-1.974-.986c-.616-.617-.246-1.479-.616-2.96s-1.48-1.973-2.343-2.713-2.344-1.356-2.344-1.356-1.357-.986-1.357-1.48c0-.493-.245-2.425-.862-2.795 0 0-1.111-.534-2.467-.534S8.49.245 8.244.862s-.74 2.343-1.11 2.713-.37 2.59-.37 2.59-.987 1.233-1.48 2.096c-.493.864-1.109 2.713-.739 4.439s1.726 3.823 1.849 5.303-.617 2.836-.37 4.194c.247 1.357 2.96 3.452 3.453 4.192.493.739.371 1.686.371 1.686s0 1.48.493 1.973c.493.493 1.972.534 1.972.534s.246.986 1.233 1.233c.986.246 2.755.329 3.371-.288.617-.616 1.069-1.396.904-1.89-.164-.493-.68-.746-.823-.246a.396.396 0 0 1-.099.18c-.017-.096-.061-.239-.195-.32-.12-.073-.296-.032-.423.013l.223-1.271s.287.072.66.163c-.079.113-.145.239-.128.345.049.296.209.375.584.292s.375-.334.666-.292a.614.614 0 0 0 .238-.029l.075.015c.616.123.74 0 1.357 0s1.315-.37 1.455-.695-.18-1.648-.55-2.265c-.37-.616-2.139-1.357-1.521-2.22.616-.863 1.357-2.22 1.357-2.22s1.48.74 1.48 1.111c0 .369.123 1.233.493 1.726s.74 1.233.74 2.096-1.396 1.482-.903 1.974.451-.086 1.273-.001c.619.064 1.204.178 1.713.308.348.236.84.546 1.461.866.37.191.81.189.959.167.291-.042.208-.417.208-.417l-.208-.333s.208.125.333-.125c.136-.271-.086-.459-.174-.518z"/></svg>