<svg xmlns="http://www.w3.org/2000/svg" width="32" height="32" viewBox="0 0 32 32"><path d="M29.387 19.787c-.747-1.493-2.773-3.093-3.627-4.107s-1.973-3.52-1.973-3.52-.96-2.347-2.027-3.52c-1.067-1.173-2.987-1.973-3.573-2.187-.64-.213-3.84-.853-3.84-.853s.8-1.067.427-1.92c-.32-.853-.907-1.973-.907-1.973l-.32-1.013s-.693.96-.8 1.173c-.107.267-.587.853-1.013 1.333 0 0-.693-.053-1.28-.267-.64-.213-1.867 0-2.347.213-.427.213-1.333.907-1.333.907s-1.6 0-2.24.48-.96 1.067-.96 1.067c-.587-.053-1.173-.267-1.44-.533-.32-.213-.693-.693-.693-.693-.373.267-.213 2.08 0 2.56.427.96 1.813 1.6 1.813 1.6-.16 1.013.267 1.653.267 1.653s.213 1.813.427 2.72c.213.907 1.92 2.56 2.88 3.04s2.453.96 2.453.96l.96.32-.96-.053c-.587-.427-1.333-.213-1.333-.213s-.747.267-1.067.32c-.32.053-.64.373-.32.64.267.213 1.173-.213 1.173-.213l.587-.107s-.747.533-.907.747-.053.48.267.533c.32.053.747-.373.747-.373l.32-.48.32.213s-.693.747-.32 1.013.587.16.693 0 .213-.8.213-.8 1.707.267 2.293-.107c.64-.373 1.067-.533 1.067-.533s.107.213 1.067.267c.96.053 2.133.32 2.133.32l1.173.64s-.907.32-1.013.8c-.053.48.373.107.747.053.427-.107.373 0 .373 0l-.373.747c-.213.48 0 .96.16 1.013s.373-.107.373-.107-.267.427.16.64c.427.213.747-.533.747-.533v-.16c0 .213.107.587.48.48.533-.16.8-1.173.747-1.333 0-.16-.107-1.067-.107-1.067s1.333-.267 1.76-1.067c.373-.8.16-1.493.16-1.493l1.76-.48s3.307 2.347 3.893 4c.64 1.6 1.44 5.227.373 6.773-.213.32-.427.427-.64.48.107-.213.48-.907.267-1.76-.267-1.013-2.507-2.027-4.267-.587-1.707 1.44-.747 3.68-.32 4.267.213.32.64.693 1.173.96 1.547 1.013 3.893.107 5.067-1.653 1.76-2.347 1.227-7.733.48-9.227zM5.493 8c-.64.267-1.067-.213-1.173-.853A1.709 1.709 0 0 1 4.8 5.76c1.013-.853 1.493.907 1.493.907s-.16 1.067-.8 1.333zm4.8-1.227c-.693.48-1.493 0-1.813-.693-.16-.427-.213-.907-.053-1.333.533-1.387 2.347-.373 2.507.32.16.533.053 1.227-.64 1.707zM24 27.52c-.48-1.28.8-1.707 1.227-1.76 1.28-.107 1.28.96 1.227 1.333-.107.373-.907.48-1.067.213 0 0 .64.053.693-.32.053-.32-.32-.693-.587-.693s-.907.48-.747 1.013c.32.907 2.133.64 2.133.64s-2.453.693-2.88-.427z"/></svg>