<svg xmlns="http://www.w3.org/2000/svg" width="32" height="32" viewBox="0 0 32 32"><path d="M31.7 5.2c.1-.4-.1-1.9-.2-2.2s-1.7-1.6-2.4-1.9c-.7-.3-1.9-.4-2.5-.2-.6.1-2.4 1-3 1.2S19.4 4 18.7 4.2c-.6.3-3.2.9-3.7 1.1-.5.1-2.7.5-3 .4s-.5-.6-.6-.9c-.2-.4-.7-2.4-1.7-2.8s-2.4.4-2.8.8c-.4.4-2.2 2.4-3 7.6s-.7 6.1-.7 6.6c.1.5.6 1.6.8 1.8.2.1-.6 1.8-.9 2S1.6 22 1.3 22.2c-.3.2-1.2.7-1.3 1s0 1 .2 1.2c.2.2.9 1.6 1.1 1.9.1.2.9.5 1.1.7.1.2.4.7.7.8.2.2.4.4.6.2s.1-.6.1-.7c0-.2-.2-.5-.4-.9-.2-.5-1-1.2-.9-1.4s1-.8 1.2-1c.2-.1 1.5-1 2-1.2s2.2-1.9 2.2-1.9-.6 2.1-.5 2.7c.1.6 0 2.3-.2 2.7-.2.5-.4 1.4-.3 1.7s.2.8.8.8c.6 0 2.1-.2 2.4-.1s2.1.2 2.6.1.8.2 1.1 0c.2-.2.1-.5-.2-.6-.2-.1-.8-.4-1-.4s-1.8-.2-2.1-.4c-.3-.2-.3-.8-.2-1 .1-.1 1.1-3.2 1.2-3.9 0-.7-.1-2.6 0-2.9s1-3.7 1.1-4.3c.1-.6.6-2.8.6-2.8s.9 1.6 1.2 2c.3.4 1.1 1.6 1.3 1.8s1.6.8 2.3.8c.7 0 1.6.2 1.8.2h1.9s-.4 2.5-.5 2.7c-.1.3-.8 2.9-.9 3.1s-.6 1.4-.5 1.7c.1.3.4.9.3 1.1s.1.6.2.9c.1.4.5.6.5.6s-.3 1-.1 1.2c.2.2.6-.4.6-.4s-.1.7 0 .7c.2 0 1.2.1 1.5-.1s0-.8-.1-1.2c-.1-.4-.6-.8-.6-1.1s-.1-1.8-.1-1.8 1.1-2.9 1.3-3.2l.4-.6s.8 3.1.8 3.6.2 2.1.2 2.3c0 .1.3 1.1.5 1.4s.8.7.9 1.1c.1.3.7.7 1 .9.2.1.8.2.8.2s.6.5.9.4c.3-.1-.1-.4-.1-.5s-.2-.7-.2-.7 1 .7 1.2.7c.2 0 .6-.3.5-.4s-.9-.8-1.1-.9c-.2-.1-.6-.1-.9-.3s-1-1.3-1-1.3-.5-3.8-.5-4.5 0-4.7-.2-5.1c0 0 .5-1.1.9-1.4.4-.2 1.1-1.3 1.2-1.5s1.3-1.4 1.7-1.8c.4-.3 1.2-1.2 1.4-2.2s.1-2.4.1-2.4.2-.4.2-1c0-1.2-.4-2-.3-2.3zM8.9 7.1s-.8.5-1.1.8-.5 1.6-.5 1.6-.2.6-.4.8c-.2.2-.9 2.2-1.1 2.9s-.3 2.8-.4 3.6c-.1.7-.5.9-.5.9s-.6-2.5-.5-4.3c.1-1.8 1.1-5.3 1.1-5.8s1.5-3.4 2-3.9.8-.4 1.3 0c.6.6.1 2 0 2.3-.2.6.1 1.1.1 1.1zm21.7.1c-.1.5-.6.8-.6 1.1V10s-.2.7-.5 1.1c-.3.4-.8.5-1.2.4s-1.1-1-1.2-1.4c-.3-.7.2-1.9.2-1.9s-.6-.3-.7-.8c-.2-.6.4-.9.5-1.4.2-.4-.4-.8-.4-.8h1.2c.3 0 1.4.2 1.4.2s1.3-.1 1.4-.1l-.3.5c0 .1.3.8.2 1.4zM28.9 10s-.1-.2-.3-.2c-.2.1 0 .3.1.3h.4l-.2-.1zm.6.2s.2-.2.3-.2.2.2.1.3c-.2-.1-.4-.1-.4-.1z"/></svg>