<svg xmlns="http://www.w3.org/2000/svg" width="32" height="32" viewBox="0 0 32 32"><path d="M30.701 23.778s.452-1.016.367-1.298-.395 0-.395 0 .056-.508-.169-.875-.564.028-.564.028.056-.649-.31-.818c-.367-.169-.705-.028-.705-.028s-.508-2.708-.733-3.442c-.226-.733-2.201-4.57-2.201-4.57s-2.144-2.342-3.639-2.398-2.138-.431-2.68-.452c-2.229-.085-3.611.677-3.611.677s-.987-.056-1.58-.169c-.592-.113-1.721.141-1.862.31s-1.016.282-1.016.198-.141-.339-.649-.367c-.189-.011.056-.903.056-.903s.056-.367.395-.592c.339-.226 1.072-1.213 1.439-1.834s.31-1.693.31-1.693.254-2.003-.028-2.201c-.282-.198-.508-.564-1.072-.395s-1.806.48-2.003.818c-.198.339-.959.818-1.157 2.003s-.48 1.185-.564 1.383c-.085.198-.113.48-.254.903s-.31.48-.677.536c0 0-.705.282-1.072.339s-1.947.733-2.229.931c-.282.198-.282.564-.677.846s-1.298 1.411-1.495 1.636-.846.903-.846 1.664c0 .762.395.564.395.564s-.028.339.113.649c.141.31.423.508.875.621s1.241.085 1.241.085.649.141 1.551.254 1.58.169 1.58.169-.31.48-.056.762c.254.282 1.072.818 1.129.903s1.185 1.495 1.777 1.721c.592.226 1.947 1.185 1.947 1.185s1.636.649 1.806.903c.169.254.226.733.226.733s-.733.056-1.016.367-.367.733-.367.733-.169.452-.113.564c.056.113.48.113.48.113s-.536.762-.452 1.016c.085.254.875.198.987.198s1.241.367 1.664.367c.423 0 1.58-.056 1.862 0s2.878.48 3.16.395c.282-.085 1.467.085 1.467.085s2.567-.141 3.273-.198c.705-.056 2.172-.339 2.172-.339s2.229.141 2.849-.141c.621-.282 1.129-1.016 1.383-1.636.252-.62-.312-.31-.312-.31zM6.439 11.562c-.028.339-.508.818-.79.931s-.762-.056-.762-.056-.282.085-.536.085c-.254 0-.028-.226-.028-.226s-.028-.339 0-.536.48-.649.48-.649c.254-.141.705-.226 1.044-.169s.62.282.592.621z"/></svg>