<svg xmlns="http://www.w3.org/2000/svg" width="32" height="32" viewBox="0 0 32 32"><path d="M30.8 18.4c-.5-1.4-1.6-2.5-1.6-2.5s1.4-.5 1.7-2.1c.3-1.6-.5-2.5-1.2-2.4s-2.9.1-2.9.1 2.1-2.2 1.9-3.7c0-.2-.1-.3-.1-.5l.2-.5s1.4-3 .3-2.2c-.5.3-.9.7-1.2 1.1-.3-.4-.7-.7-1-.9-.8-.3-1.7-3.7-2.1-4s-1.9.8-2.2 1.7c-.8 2.3-.5 3.3-.1 3.6 1 .4 1.8.1 2.1 0 .7-.4 1.3.3 1.4 1.1.1.8-3.8 2.7-4.4 2.7-.5 0-.3-2.1-1.2-2.1-3.8-.1-5 2.3-5 2.3s-2.4-.1-5.3.3c-2.9.3-5.9 2.1-6.9 3.6s-1.9 3.2-1.4 6 4.8 3.1 6.4 3.8c1.6.6 3.7 1.4 4.9 2.2s3.8 4 5.7 4.5c1.9.5 3.7 1.1 6 .2s5.5-3.2 6.1-5.7.4-5.3-.1-6.6zm-20 .8c-.6.1-1-.8-.6-1.3s1.3.4 1.3.4c.1.2 0 .8-.7.9zm6.4 3.5c-.6.1-1-.8-.6-1.3s1.3.4 1.3.4c0 .2-.1.8-.7.9z"/></svg>