<svg xmlns="http://www.w3.org/2000/svg" width="32" height="32" viewBox="0 0 32 32"><path d="M29.484 14.325c-.012.042-.71.221-.807.24-.09.018-.39.084-.429.184-.032.082-.36.142-.452.188-.252.128-.546.219-.786.384a3.64 3.64 0 0 1-.857.401c-.409.123-.714.262-1.158.273-.433.011-.905-.015-1.318.116-.44.139-1.015.123-1.471.141a3.975 3.975 0 0 1-.801-.028c-.039-.006-.482-.125-.508-.069.049-.108.877.826.912.873.263.354.364.715.496 1.123.152.471.241.908-.027 1.346-.154.25-.441.725-.765.783a8.612 8.612 0 0 0-.724.17c-.209.059-.452.014-.669.029-.501.039-.98-.115-1.436-.305-.438-.184-.816-.508-1.192-.791-.039-.029-1.013-.805-.95-.883-.114.143.185.82.265.984.22.455.55.762.937 1.08.184.152.404.297.533.502.105.166.134.344.271.502.18.207.374.389.533.615.183.26.298.562.489.814.258.336.482.686.726 1.031.244.346.554.861.897 1.113.094.068.17.332.228.436.064.119.144.256.121.396-.051.324.33.691.429.994.138.426.4.799.55 1.217.137.379.306.832.495 1.189.188.354.544.674.796.986.202.254.681.764.675 1.104-.007.33-.421-.229-.461-.281-.236-.303-.487-.596-.698-.914-.127-.189-.311-.334-.438-.525-.087-.133-.246-.26-.312-.393-.084-.168-.242-.279-.327-.457a11.657 11.657 0 0 0-.361-.703c-.118-.207-.239-.412-.345-.627-.101-.203-.188-.412-.302-.609-.085-.145-.219-.467-.372-.539-.558-.26-.865-1.078-1.17-1.584a6.19 6.19 0 0 0-.637-.902c-.115-.131-.15-.318-.264-.441-.068-.074-.184-.068-.256-.15a4.558 4.558 0 0 1-.586-.822c-.26-.484-.727-.73-1.153-1.053-.498-.375-1.613-2.104-1.677-2.471a5.568 5.568 0 0 0-.136-.59c-.06-.193-.021-.436-.105-.484-.031-.02-.183-.049-.201-.084-.031-.061.041-.094-.008-.162-.043-.059-.331-.045-.396.002-.143.105.078.35.08.463.003.145-.021.279-.007.438.027.318.013 1.322.019 1.51.004.154.1.639.021.752-.035.049.009.164.003.219-.009.08-.063.146-.079.227-.042.219.026.422.043.639.029.363-.107.738-.113 1.1-.007.404-.038.762-.076 1.164-.018.186-.048.332-.078.514-.04.244-.236.402-.257.652-.063.746-.579 1.379-.543 2.148.005.119-.008 1.074-.227 1.031-.262-.053-.121-1.049-.106-1.229.05-.631.101-1.17.244-1.793.032-.141.146-.357.077-.49-.058-.111-.118-.248-.114-.377.002-.08.058-.123.026-.207-.097-.258.136-.775.163-1.053.035-.367.004-.711-.005-1.08-.005-.17-.008-.432.041-.59.071-.229-.112-.385-.119-.592-.013-.373-.295-.727-.328-1.105a5.462 5.462 0 0 1 .039-1.129c.045-.354.064-.795.224-1.115.116-.232-.023-.199-.108-.418-.069-.176.018-.554-.281-.377-.175.104-.4.292-.609.137 0 0-.39.201-.502.301-.325.293-.66.555-1.063.727-.757.324-1.584.482-2.399.57-.628.066-1.237.32-1.888.352-.232.01-.408-.014-.635.072a9.594 9.594 0 0 1-1.031.316c-.696.186-1.457.334-2.164.422-.149.018-.314.084-.468.109-.187.031-.255-.039-.412.055-.304.18-.689.314-1.037.387-.05.01-.614.047-.403-.143.097-.086.37-.184.506-.211.131-.025.362-.133.476-.199.184-.109.413-.09.584-.217.379-.277.89-.324 1.322-.479.12-.043.25-.043.37-.082.124-.041.194-.17.311-.229.208-.104.445-.115.652-.207.212-.096 1.188-.4 1.462-.465.129-.031.237-.111.365-.145.153-.041.295-.018.449-.027.229-.018.5.02.725-.037.288-.076.513-.34.816-.416.223-.057.456-.088.678-.139a4.59 4.59 0 0 0 1.092-.383c.325-.166.653-.318.973-.498.162-.092.291-.217.483-.234.262-.022.135-.271.391-.422-.247.015-.632.073-.871-.002-.181-.057-.104-.198-.321-.191a5.691 5.691 0 0 1-.783-.032c-.861-.089-1.693-.702-2.362-1.221-.305-.237-.653-.484-.91-.774-.312-.353-.828-.568-1.193-.872-.235-.196-.404-.458-.659-.617-.346-.216-.674-.462-1-.705-.681-.505-1.308-1.093-1.943-1.656-.229-.203-.428-.439-.656-.64-.341-.3-.953-.598-1.159-1.02-.082-.168.475.131.488.14.366.236.706.512 1.081.734.469.278.925.627 1.348.97.19.154.468.176.687.317.343.22 1.751 1.168 2.121 1.41.343.225.568.507.846.803.146.156.278.132.475.193.369.114.591.269.873.541.296.285.627.567.975.789.123.079.261.123.396.175.13.05.433.099.526.173-.166-.132-.353-.256-.525-.381-.144-.104-.423-.146-.533-.266a1.81 1.81 0 0 1-.276-.401c-.045-.09-.135-.27 0-.382.371-.309.494.153.79.264.389.146.484.606.877.775.157.067.324.125.491.162.207.044-.071-.347-.113-.404-.123-.171-.354-.595-.201-.806.023-.032.199-.417.559-.485.172-.032.196-.178.202-.27.007-.112.11-.229.179-.314.204-.252.513-.236.546-.281.019-.026.857.162.945.173-.014-.529-.315-.9-.789-1.094-.255-.104-.369-.302-.559-.48-.186-.174-.53-.376-.419-.684.253-.701.89.256 1.102.432.223.184.427.379.609.604.069.085.536.685.525.719.036-.114-.159-.467-.184-.6-.034-.183-.061-.373-.118-.551-.118-.371-.29-.626-.487-.965-.104-.178-.355-.306-.505-.442-.112-.103-.207-.243-.301-.362-.123-.155-.106-.362-.162-.543-.078-.252-.354-.424-.529-.607-.552-.577-.912-1.331-1.346-2-.154-.238-.331-.462-.464-.714-.104-.195-.248-.4-.296-.62-.052-.24-.117-.324-.272-.541-.374-.526-.625-1.123-.915-1.669-.174-.329-.401-.656-.615-.968-.069-.1-.506-.735-.155-.704.113.01.29.285.35.357.116.139.208.306.305.46.255.409.517.81.835 1.175.232.267.367.608.584.886.273.351.567.674.838 1.029.222.291.867 1.249.991 1.419.079.107.258.333.272.466.014.129.24.264.326.354.162.169.312.351.453.537.204.269.333.572.566.817.646.685 1.249 1.349 1.642 2.215.089.196.122.39.142.604.015.162.068.372.054.528-.019.214.133.184.205.354-.011-.026.165.505.2.325.011-.055-.081-.122-.062-.203.017-.076.008-.167.007-.243-.004-.25-.024-.5-.029-.75-.006-.354-.008-.681-.072-1.029a6.348 6.348 0 0 0-.142-.625c-.023-.079-.229-.514-.182-.58.155-.212.012-.593-.119-.761-.511-.654-.905-1.392-1.391-2.068-.125-.175-.291-.339-.383-.533-.117-.247-.133-.347-.335-.529-.307-.277-.625-.626-.821-.983-.151-.277-.389-.521-.583-.769-.096-.122-.272-.364-.269-.522.006-.253.371.109.417.162.281.324.455.704.802.974.364.283.689.61 1.048.9.555.448.867 1.015 1.314 1.562.139.169.262.332.421.482.057.054.307.282.301.358-.006.084.18.313.216.399.117.271.248.535.357.809.325.819.673 1.616.723 2.515.013.23-.004.436-.083.654-.078.216-.059.373-.095.589-.031.189-.124.28.058.413.171.125.134.288.102.479-.017.098-.097.577.136.417.17-.117.265-.182.474-.211.094-.013.157-.204.21-.278.089-.125.3-.208.418-.342.544-.625 1.26-.889 2.05-1.019.284-.047.681-.077.891-.288.296-.297.607-.602.888-.914.423-.469.802-1.309 1.369-1.451.027-.007.308-.758.373-.862a4.88 4.88 0 0 1 .431-.615c.092-.105.176-.042.215-.198.049-.193.295-.403.421-.546.211-.243.428-.492.67-.706.078-.069.25-.205.312-.11.229.146-.349.647-.437.73-.128.121-.275.23-.367.383-.065.109-.094.223-.208.292-.2.123-.151.293-.272.501-.303.519-.546 1.003-.733 1.583-.168.519-.612.899-.922 1.321-.21.287-.482.583-.729.837-.293.302-.604.544-.918.828-.384.347-.903.437-1.318.732-.304.215-.657.359-.993.511-.22.1-.44.214-.642.347-.141.093-.074.141-.012.267.047.096-.167.329-.15.341.08.059.454-.203.543-.138.053.039.172.139.217.085.111-.136.343-.287.516-.161.089.065.381-.048.504-.041.524.031.964.247 1.423.477a.883.883 0 0 1 .47.504c.005.013.147.428.185.378-.021.028.179.292.223.302.166.039.311.009.473-.008.354-.039.744.021 1.092.043.214.013.428-.052.643-.053.2 0 .94-.03 1.003-.116.126-.172.493.086.395.113.242-.066.452-.228.708-.274.192-.035.572-.051.743.073.104.077.287-.096.41-.084.171.016.127.042.297-.033.038-.017.427-.197.508-.244.095-.055.145-.096.232-.166.078-.063.144.047.203-.035.014-.018.593-.242.553-.271.014.01.488-.186.531-.2.178-.06.345-.018.51.066-.064-.175.586-.127.658-.123.15.008 1.319.078 1.451.089.083.007.723.125.434.263-.348.167-.831-.086-1.183.002-.255.065-1.171-.162-1.263.099zm-11.467.759c.255.068.54.093.794.139.113.021.8.373.853.301.133-.182-.979-.582-1.087-.592-.188-.019-.42-.051-.606-.022-.297.047-.212.106.046.174z"/></svg>