<svg xmlns="http://www.w3.org/2000/svg" width="32" height="32" viewBox="0 0 32 32"><path d="M31.307 24.053c-.213-.48-.907-.32-.907-.32s-.373-.48-.8-.8c-.373-.32-1.707-.907-1.707-.907s-.693-.32-1.28-.48c-.587-.213-.8-.8-1.173-1.227s-1.28-.8-1.6-1.013c-.32-.213-1.067-1.707-1.813-2.08-.693-.427-1.28-1.12-1.28-1.12l.107-.8v-.8l.8.587s.48.427.907.907c.373.48 1.813.907 1.813.907s.8 1.12 1.493 1.387c.693.32 3.2.32 3.2.32s1.28 1.12 1.813.8c.48-.32-1.013-.907-1.707-1.227s-1.707-.427-2.507-.427-.907-.907-1.493-1.12l-1.813-1.493s-1.28-1.013-1.92-1.227-1.813-.107-1.813-.107l-.587-1.227s.587-.107.907-.32 0-1.013 0-1.013 1.493.587 2.4.693c.907.107 1.973-.48 2.507-.693.48-.213.907-1.6.907-1.6s.48-.213.8-.8-.267-2.4-.267-2.4l-.107-.48c-.107-.32-2.187-1.707-2.827-1.92-.587-.213-1.173-.8-1.173-.8l.587-1.387c-.587.107-1.227 1.013-1.12 1.707s1.973 1.813 1.973 2.08c0 .32 1.12 1.387 1.12 1.387-.32.48.373 2.4.373 2.4s-.587 0-1.227.587c-.587.587-1.387.8-1.387.8s-.907-.107-1.707-.213c-.8-.107-1.12.373-1.6.48s-.907.907-.907.907l-.8.373s.427-1.813.32-2.613-.693-3.307-1.28-3.573c-.267-.16-.427-.107-.533 0-.107-.107-.267-.16-.533 0-.587.32-1.173 2.827-1.227 3.627-.107.8.32 2.613.32 2.613l-.8-.373s-.427-.8-.907-.907-.8-.587-1.6-.48c-.8.107-1.707.213-1.707.213s-.8-.213-1.387-.8-1.227-.533-1.227-.533.693-1.92.373-2.4c0 0 1.067-1.12 1.067-1.387s1.867-1.44 1.973-2.133c.107-.693-.533-1.6-1.12-1.707l.64 1.387s-.587.587-1.173.8-2.667 1.653-2.773 2.133l-.107.48s-.587 1.813-.267 2.4c.32.587.8.8.8.8s.427 1.387.907 1.6c.48.213 1.6.8 2.507.64.907-.107 2.4-.747 2.4-.747s-.267.8 0 1.013c.32.213.907.267.907.267l-.587 1.227s-1.173-.107-1.813.107c-.587.213-1.867 1.227-1.867 1.227l-1.76 1.547c-.587.213-.693 1.12-1.493 1.12s-1.813.107-2.507.427-2.187.907-1.707 1.227 1.76-.8 1.76-.8 2.507-.053 3.2-.32 1.493-1.44 1.493-1.44 1.387-.427 1.76-.907c.373-.48.907-.907.907-.907l.8-.587v.8l.107.8s-.587.693-1.28 1.12-1.493 1.92-1.76 2.133-1.173.64-1.6 1.013c-.373.427-.587 1.013-1.173 1.227s-1.28.533-1.28.533-1.28.64-1.707.907-.8.8-.8.8-.693-.213-.907.32c-.213.48 1.28-.107 1.28-.107s.693.107 1.28-.213 1.76-1.12 1.76-1.12 1.173-.213 1.6-.747c.373-.48.907-.907.907-.907s.907-.587 1.173-1.013c.32-.427 1.013-.693 1.067-1.227.107-.48.693-.8.693-.8l-.267 1.227s-1.067 1.013-1.173 1.707-1.067 1.6-1.173 2.4c-.107.8-.16 1.707-.16 1.707s-.267 1.6-.267 2.027c0 .373-1.547 2.027-1.547 2.027l-1.387.32s-.587.107-.693.533c0 .267 1.067-.213 1.067-.213s.213.32.693.213c.48-.107 1.387-.64 1.387-.64s1.28-1.44 1.653-2.24c.373-.8.373-2.613.373-2.613l.053-1.493.747-1.92h.373s-.16 3.68 1.067 5.173 3.253 2.453 4.64 2.453h.107c1.387 0 3.413-1.013 4.587-2.507 1.227-1.493 1.013-5.173 1.013-5.173h.373l.8 1.92.107 1.493s0 1.813.373 2.613 1.707 2.187 1.707 2.187.907.48 1.387.587c.48.107.693-.213.693-.213s1.12.48 1.013.107c-.107-.373-.693-.48-.693-.48l-1.387-.32s-1.6-1.6-1.6-2.027c0-.373-.32-1.973-.32-1.973s-.107-.907-.213-1.707c-.107-.8-1.067-1.707-1.173-2.4s-1.173-1.707-1.173-1.707l-.32-1.173s.587.32.693.8.8.8 1.12 1.227c.32.427 1.173 1.013 1.173 1.013s.48.427.907.907c.373.48 1.6.693 1.6.693s1.173.8 1.813 1.12c.587.32 1.28.213 1.28.213s1.653.587 1.44.053z"/></svg>