<svg xmlns="http://www.w3.org/2000/svg" width="32" height="32" viewBox="0 0 32 32"><path d="M25.512 17.015c.024-.036.624-.868 2.032-.868.229 0 .47.022.713.066a2.604 2.604 0 0 0 1.573.218 2.63 2.63 0 0 0 2.129-3.042 2.62 2.62 0 0 0-3.041-2.126 2.594 2.594 0 0 0-1.4.739c-.569.331-1.135.499-1.678.499-.576 0-.979-.192-1.121-.273a9.522 9.522 0 0 0-.915-1.583c-.002-.293.093-1.451 1.592-2.312.531-.139.996-.43 1.345-.843a2.633 2.633 0 0 0-.325-3.699 2.626 2.626 0 0 0-3.697.326 2.58 2.58 0 0 0-.598 1.466c-.562 1.556-1.606 1.895-1.964 1.966a9.417 9.417 0 0 0-1.783-.652c-.226-.285-.804-1.219-.239-2.761.319-.449.487-.971.487-1.509A2.627 2.627 0 0 0 15.998 0a2.627 2.627 0 0 0-2.623 2.624 2.6 2.6 0 0 0 .485 1.508c.567 1.544-.011 2.478-.237 2.762a9.432 9.432 0 0 0-1.785.653c-.356-.072-1.402-.412-1.962-1.963a2.59 2.59 0 0 0-.597-1.469 2.62 2.62 0 0 0-3.697-.323 2.6 2.6 0 0 0-.926 1.781A2.606 2.606 0 0 0 6.6 8.332c1.499.859 1.595 2.017 1.594 2.31a9.648 9.648 0 0 0-.917 1.587 2.333 2.333 0 0 1-1.121.273c-.543 0-1.106-.167-1.675-.497a2.595 2.595 0 0 0-1.868-.784 2.612 2.612 0 0 0-2.573 2.17 2.6 2.6 0 0 0 .435 1.96 2.607 2.607 0 0 0 3.262.864c.245-.045.487-.067.719-.067 1.424 0 2.022.854 2.032.869v.001a9.57 9.57 0 0 0 .296 1.677v.003c-.015.056-.396 1.36-2.309 1.692a2.626 2.626 0 0 0-1.551.332 2.614 2.614 0 0 0-1.222 1.594 2.607 2.607 0 0 0 .262 1.992 2.633 2.633 0 0 0 2.274 1.312 2.606 2.606 0 0 0 2.375-1.526c.821-.986 1.67-1.194 2.238-1.194a1.67 1.67 0 0 1 .446.052c.377.373.787.715 1.219 1.019a.584.584 0 0 0 .025.067c.024.053.577 1.29-.68 2.78a2.595 2.595 0 0 0-.974 1.252 2.627 2.627 0 0 0 2.465 3.521c1.099 0 2.09-.694 2.466-1.728a2.59 2.59 0 0 0 .06-1.582c-.006-1.959 1.21-2.544 1.26-2.567a.5.5 0 0 0 .081-.045 8.636 8.636 0 0 0 1.559 0 .664.664 0 0 0 .076.043c.052.024 1.27.602 1.266 2.567a2.592 2.592 0 0 0 .058 1.585 2.636 2.636 0 0 0 2.467 1.727 2.625 2.625 0 0 0 2.463-3.522 2.582 2.582 0 0 0-.97-1.251c-1.258-1.49-.709-2.726-.685-2.778a.436.436 0 0 0 .027-.07 9.78 9.78 0 0 0 1.217-1.019.523.523 0 0 0 .064-.012l.002-.001c.049-.012.185-.038.382-.038.567 0 1.417.208 2.238 1.191.228.499.596.905 1.063 1.177.396.229.849.35 1.309.35.938 0 1.811-.503 2.278-1.312a2.629 2.629 0 0 0-.964-3.583 2.58 2.58 0 0 0-1.548-.334c-1.907-.329-2.294-1.634-2.31-1.689l-.003-.009a9.457 9.457 0 0 0 .295-1.67c.006-.002.007-.004.009-.006zm-.846-.076c-.044.701-.086 1.098-.27 1.702-.032.104-.01.228.07.379a.392.392 0 0 0 .044.065c.175.482.705 1.913 2.924 2.267a.556.556 0 0 0 .135.003c.1-.013.215-.02.331-.02.374 0 .712.066.903.177.758.438 1.02 1.642.538 2.477-.303.525-.977.893-1.641.893-.272 0-.529-.064-.738-.185-.228-.132-.488-.516-.72-1.052a.501.501 0 0 0-.069-.116c-1.046-1.285-2.019-1.458-2.833-1.458-.131 0-.262.008-.391.024a.489.489 0 0 0-.544.108c-.312.33-.86.646-1.343.927-.218.126-.425.245-.596.358a.474.474 0 0 0-.208.307.463.463 0 0 0 .006.219c-.1.326-.374 1.688 1.185 3.484.03.035.065.064.102.089.305.198.529.479.65.812.298.818-.038 1.979-.933 2.306a1.302 1.302 0 0 1-.45.077c-.716 0-1.478-.548-1.733-1.247a1.644 1.644 0 0 1-.021-1.045.45.45 0 0 0 .021-.133c.032-2.048-1.101-2.728-1.645-3.055l-.061-.037a.476.476 0 0 0-.496-.282c-.473.055-.847.008-1.282-.058-.165-.024-.341-.051-.542-.074a.49.49 0 0 0-.497.283c-.487.302-1.683 1.082-1.647 3.225 0 .045.008.091.021.134.105.347.174.835.053 1.169-.24.66-1.061 1.196-1.83 1.196-.175 0-.338-.027-.488-.081-.404-.147-.759-.512-.971-1-.208-.478-.244-1.005-.096-1.414.11-.3.485-.542.786-.737l.06-.039a.453.453 0 0 0 .102-.089c1.385-1.6 1.139-3.056.954-3.637a.485.485 0 0 0-.203-.525c-.397-.26-.704-.604-1.028-.967-.116-.129-.233-.261-.356-.39a.487.487 0 0 0-.542-.108 2.924 2.924 0 0 0-.392-.025c-.567 0-1.953.387-3.139 1.848a.166.166 0 0 0-.027.04.72.72 0 0 1-.036.062l-.062.104c-.164.274-.282.474-.55.628-.215.124-.475.19-.751.19-.655 0-1.321-.362-1.622-.881-.204-.353-.243-.769-.118-1.234.113-.42.358-.735.752-.963.271-.157.697-.248 1.061-.217l.009.027h.076a.967.967 0 0 0 .135-.022c1.471-.297 2.458-1.062 2.935-2.274a.475.475 0 0 0 .134-.494 8.565 8.565 0 0 1-.347-1.955.467.467 0 0 0-.25-.364c-.305-.36-1.157-1.158-2.728-1.158a5 5 0 0 0-.963.097.476.476 0 0 0-.127.043c-.262.133-.794.368-1.172.302-.435-.077-1.02-.453-1.278-.822a1.642 1.642 0 0 1-.276-1.238c.143-.811 1.153-1.376 1.971-1.376a1.636 1.636 0 0 1 1.216.529c.029.032.064.06.104.084.813.486 1.557.551 2.177.551.705 0 1.069-.227 1.31-.377a3.06 3.06 0 0 1 .083-.05l.088-.024c.112-.001.158-.064.24-.255.153-.355.434-.658.731-.978.179-.193.364-.393.524-.609a.47.47 0 0 0 .075-.378c.007-.49-.136-2.108-2.146-3.225a.456.456 0 0 0-.124-.048 1.647 1.647 0 0 1-.891-.541c-.284-.339-.574-.858-.536-1.299.047-.523.248-.982.541-1.228.234-.196.556-.3.932-.3.61 0 1.254.279 1.604.695.227.27.357.605.377.973a.497.497 0 0 0 .025.132c.353 1.018 1.129 2.283 2.817 2.522.12.038.252.026.362-.03.172-.087.331-.177.486-.264.379-.213.738-.415 1.197-.525a.469.469 0 0 0 .262-.167l.023-.025c1.119-1.182.891-2.639.504-3.652a.518.518 0 0 0-.064-.118 2.073 2.073 0 0 1-.363-1.115c0-.869.936-1.722 1.89-1.722.935 0 1.818.86 1.818 1.771 0 .353-.116.695-.33.979-.015.014-.053.038-.092.065-.143.097-.18.126-.195.168-.388 1.014-.614 2.478.508 3.703.01.012.015.024.021.036.039.079.09.15.281.156.529.016 1.039.289 1.531.553.113.061.226.121.337.177a.515.515 0 0 0 .329.036c.184-.025 1.833-.312 2.672-2.744a.425.425 0 0 0 .025-.129c.021-.366.152-.702.38-.972.285-.341.817-.545 1.421-.545.499 0 .954.142 1.249.389.669.561.722 1.833.107 2.568-.223.265-.66.368-1.01.45a.474.474 0 0 0-.129.048c-.936.521-2.05 1.467-2.056 3.014a.484.484 0 0 0 .074.422c.322.438.552 1.005.753 1.506.055.134.107.264.159.387a.47.47 0 0 0 .294.259l.061.038c.255.16.852.536 1.618.536.758 0 1.466-.388 2.184-.819a.483.483 0 0 0 .106-.084 1.629 1.629 0 0 1 1.222-.526c.842 0 1.577.569 1.711 1.323.156.886-.519 1.806-1.442 1.969a1.604 1.604 0 0 1-1.032-.16.485.485 0 0 0-.128-.044l-.179-.036c-.32-.064-.72-.145-.98-.145-1.329 0-1.931.82-2.255 1.26a3.191 3.191 0 0 1-.129.17.488.488 0 0 0-.294.415zm-12.411-3.664a3.1 3.1 0 0 0-1.316-.271c-.754 0-1.368.217-1.486.261l-.095.054c-.172.129-1.682 1.292-1.591 2.388.104 1.248.753 2.763 2.239 2.929.293.032.556.047.803.047 1.522 0 2.389-.636 2.578-1.894.22-1.471.3-2.845-1.132-3.514zm.511 3.314c-.099.661-.489 1.449-1.786 1.449-.104 0-.273-.049-.438-.096a2.809 2.809 0 0 0-.447-.104c-1.323-.146-1.512-1.988-1.53-2.197-.038-.46.586-1.361 1.13-1.787.159-.044.919-.146 1.471-.146.368 0 .697.066.978.197.825.385.859 1.106.622 2.684zm6.56 1.178c-.72-.228-1.312-.38-1.87-.38-.768 0-1.35.308-1.779.939a3.09 3.09 0 0 0-.478 1.257 4.53 4.53 0 0 0 .022 1.509l.038.102c.1.19 1.011 1.865 2.104 1.951.115.009.233.014.353.014.564 0 2.441-.127 2.896-1.76.078-.287.136-.544.174-.784.242-1.504-.249-2.462-1.46-2.848zm.849 2.576c-.017.102-.091.262-.163.415-.067.146-.139.298-.174.427-.293 1.055-1.607 1.168-2.16 1.168-.124 0-.214-.006-.252-.009-.461-.035-1.251-.794-1.585-1.399-.018-.165.002-.934.09-1.477.059-.361.176-.676.35-.933.264-.387.588-.56 1.054-.56.437 0 .993.149 1.696.374.634.202 1.35.713 1.144 1.994zm-.15-10.963a7.537 7.537 0 0 0-.777-.207c-1.482-.3-2.47.157-2.902 1.345-.508 1.397-.859 2.729.41 3.668.341.252.756.43 1.237.529.275.056.569.084.872.084.369 0 .624-.043.637-.046l.103-.033c.194-.092 1.905-.934 2.034-2.024.145-1.244-.19-2.858-1.614-3.316zm.816 3.221c-.054.459-.844 1.218-1.462 1.526-.157.011-.929-.039-1.47-.149a2.315 2.315 0 0 1-.919-.387c-.732-.542-.622-1.256-.077-2.754.186-.511.602-1.119 1.53-1.119.159 0 .33.018.508.054.102.021.259.102.41.18.143.074.292.15.419.191 1.27.408 1.086 2.25 1.061 2.458z"/></svg>