<svg xmlns="http://www.w3.org/2000/svg" width="32" height="32" viewBox="0 0 32 32"><path d="M19.131 16.62l11.527-5.762A6.178 6.178 0 0 0 32 9.944v15.688c0 1.375-1.125 2.5-2.5 2.5h-27a2.507 2.507 0 0 1-2.5-2.5V9.944c.404.36.856.672 1.342.915l11.527 5.761c.868.434 1.98.674 3.131.674s2.263-.24 3.131-.674zM2.236 9.251C1.006 8.636 0 7.234 0 6.132c0-1.1 1.125-2 2.5-2h27c1.375 0 2.5.9 2.5 2 0 1.102-1.006 2.504-2.237 3.119l-11.527 5.764c-.615.307-1.425.461-2.236.461s-1.621-.154-2.236-.461L2.236 9.251z"/></svg>