<svg xmlns="http://www.w3.org/2000/svg" width="32" height="32" viewBox="0 0 32 32"><path d="M10.504 18.3l.229-.055.056-.015.057-.012.142-.037c.168-.04.336-.081.504-.125l.037-.009.007-.002c.243-.064.45-.137.614-.212-.388-.107-.813-.207-1.239-.311a14.182 14.182 0 0 0-.214-.05c-.132-.034-.264-.065-.394-.098-.344-.088-1.13-.347-1.222-.785.013-1.505.608-1.527.912-2.149.305-.621.829-2.157.305-4.663-.395-1.884-3.042-1.866-3.042-1.866h-.024s-.372-.002-.859.095c-.811.159-1.937.595-2.183 1.771-.524 2.506 0 4.041.304 4.663.098.2.226.339.356.486.271.306.548.645.557 1.664-.091.438-.88.697-1.221.785a.098.098 0 0 1-.016.005c-.123.03-.248.06-.373.093l-.106.026-.084.02c-1.16.28-2.318.543-2.762.966-.498.474-.913 2.615-.304 3.235.49.5 2.547.997 4.915 1.176.008 0 .017-1.058.027-1.058.125-.756.514-1.522 1.063-2.046.751-.717 2.237-1.078 3.959-1.491zm15.135 3.539a2.942 2.942 0 0 0-.302-.811c-.002 0-.002-.002-.002-.002a3.91 3.91 0 0 0-.197-.306c-.011-.012-.018-.03-.029-.045a2.623 2.623 0 0 0-.252-.285c-.601-.573-2.165-.93-3.739-1.311l-.163-.04a4.144 4.144 0 0 1-.13-.031c-.181-.044-.36-.09-.541-.133-.048-.014-.107-.03-.168-.049-.035-.01-.073-.02-.108-.033a1.357 1.357 0 0 1-.083-.028c-.051-.015-.102-.035-.156-.055a3.07 3.07 0 0 1-.793-.417l-.008-.006a1.31 1.31 0 0 1-.149-.136.748.748 0 0 1-.204-.351c.017-2.059.834-2.09 1.248-2.939.418-.851 1.134-2.952.418-6.382-.54-2.576-4.162-2.552-4.162-2.552h-.033s-.509-.004-1.174.128c-1.109.219-2.65.814-2.988 2.424-.718 3.43 0 5.531.416 6.383.134.274.31.464.487.663.371.418.749.882.761 2.277a.744.744 0 0 1-.204.351 1.4 1.4 0 0 1-.149.136l-.008.007a2.99 2.99 0 0 1-.796.417c-.052.018-.103.038-.152.052-.03.011-.057.021-.086.029a20.577 20.577 0 0 1-.276.082l-.021.005c-.17.041-.341.084-.512.127-.049.012-.096.024-.144.034l-.116.029c-1.587.383-3.172.742-3.78 1.32a2.56 2.56 0 0 0-.25.287c-.009.011-.016.026-.024.035-.534.735-.856 4.046-.141 4.777.669.682 3.486 1.363 6.724 1.606.027.002.053.002.081.005.373.027.75.05 1.13.064h.001c.008.002.015.002.024.002h.024c.389.016.78.025 1.172.025h.033c.393 0 .783-.009 1.172-.025.015 0 .031 0 .047-.002.381-.012.761-.036 1.134-.064.026-.003.052-.003.078-.005 3.238-.242 6.055-.924 6.723-1.606.409-.418.478-3.104.366-3.651zm5.492-3.356c-.439-.42-1.584-.683-2.733-.96a1.562 1.562 0 0 1-.118-.029l-.097-.021c-.13-.034-.262-.065-.392-.098-.343-.088-1.13-.347-1.22-.785.012-1.505.608-1.527.911-2.149s.829-2.157.304-4.663c-.395-1.884-3.041-1.866-3.041-1.866h-.025s-.372-.002-.86.095c-.809.159-1.936.595-2.184 1.771-.522 2.506 0 4.041.307 4.663.096.201.226.339.354.486.273.306.549.645.558 1.664-.093.438-.88.697-1.223.785l-.015.005c-.124.03-.25.06-.375.093l-.105.026-.083.02c-.436.105-.871.207-1.268.317.168.076.379.153.631.218l.555.136.101.026.099.023.071.017.188.044c1.721.415 3.209.774 3.962 1.491.548.523.938 1.289 1.06 2.046.01 0 .02 1.058.027 1.058 2.366-.178 4.425-.675 4.915-1.176.608-.619.192-2.761-.305-3.235z"/></svg>