<svg xmlns="http://www.w3.org/2000/svg" width="32" height="32" viewBox="0 0 32 32"><path d="M24.873 29.931c-.865.885-4.51 1.763-8.699 2.078l-.103.006c-.483.035-.971.064-1.464.084l-.06.002c-.504.017-1.01.031-1.518.031h-.042c-.508 0-1.014-.014-1.52-.031-.01 0-.02 0-.03-.002h-.031c-.492-.02-.98-.049-1.462-.084l-.104-.006c-4.19-.314-7.834-1.193-8.699-2.078-1.076-1.1-.341-3.012.538-3.854.786-.748 2.838-1.215 4.891-1.711l.15-.035a6.28 6.28 0 0 1 .186-.045c.222-.055.443-.109.662-.166l.027-.006c.605-.155 2-.616 2.162-1.389-.016-1.802-.504-2.402-.985-2.943-.229-.257-.457-.504-.63-.859-.54-1.1-1.467-3.818-.54-8.256.437-2.084 2.431-2.852 3.866-3.136.86-.17 1.519-.166 1.519-.166h.042s4.685-.032 5.383 3.301c.928 4.438 0 7.156-.539 8.256-.537 1.102-1.592 1.139-1.616 3.803.163.774 1.558 1.235 2.162 1.389.23.059.464.115.697.174l.168.041c.071.016.142.033.212.051 2.037.49 4.06.955 4.839 1.697.88.842 1.614 2.754.538 3.854zM24.869.132c-3.938 0-7.131 2.411-7.131 5.383 0 2.323 1.949 4.303 4.679 5.057.04.226.091.547.091.746 0 .937-.358 1.825-.997 2.626.988-.416 2.381-1.752 3.244-3.048l.114.002c3.939 0 7.131-2.411 7.131-5.384C32 2.543 28.808.132 24.869.132z"/></svg>