<svg xmlns="http://www.w3.org/2000/svg" width="32" height="32" viewBox="0 0 32 32"><path d="M21.609 4.126a2.55 2.55 0 0 1 2.55 2.55v15.811h-3.06v-8.162h-2.04V6.676a2.55 2.55 0 0 1 2.55-2.55zm-7.139 0a.51.51 0 0 1 .509.51v4.59c0 .451-.4.703-.845 1.02-.561.399-1.195.902-1.195 2.04v10.201h-3.06V12.285c0-1.138-.633-1.641-1.195-2.04-.445-.317-.844-.569-.844-1.02V4.636a.51.51 0 0 1 1.02 0v3.57c0 .141.229.254.51.254s.51-.114.51-.255V4.636a.51.51 0 0 1 1.02 0v3.569c0 .141.229.255.51.255s.51-.114.51-.255V4.636a.51.51 0 0 1 1.02 0v3.569c0 .141.229.255.51.255s.51-.114.51-.255V4.636a.51.51 0 0 1 .51-.51zm17.02 20.105c.281 0 .51.227.511.51v1.146a.51.51 0 0 1-.51.51h-2.155c.012.057.031.112.031.17 0 .727-1.61 1.828-2.338 1.828H4.973c-.728 0-2.338-1.1-2.338-1.828 0-.058.018-.113.031-.17H.51a.51.51 0 0 1-.51-.51v-1.146a.51.51 0 0 1 .51-.51h30.98z"/></svg>