<svg xmlns="http://www.w3.org/2000/svg" width="32" height="32" viewBox="0 0 32 32"><path d="M6.573 16.735c-.125.042-.25.071-.358.07l-2.255-.001a.9.9 0 0 1-.729-.449l-1.724-3.449a.744.744 0 0 1 .131-.804l.375-.375a.505.505 0 0 1 .711 0l2.007 2.006a.504.504 0 0 0 .71 0l.92-.92a.503.503 0 0 0 0-.711l-2.007-2.006a.503.503 0 0 1 0-.711l.377-.375a.75.75 0 0 1 .805-.131l3.447 1.726a.89.89 0 0 1 .451.727v2.255c0 .107-.029.232-.071.356l4.4 4.401H8.181l-1.608-1.609zm23.971-1.531c.24.243.24.636.002.877l-2.048 2.045a.619.619 0 0 1-.875 0l-.878-.879a.617.617 0 0 1 .002-.873l.146-.147-.293-.293a2.092 2.092 0 0 0-.685-.422l-.969-.323a2.12 2.12 0 0 1-.685-.421l-1.754-1.756a1.152 1.152 0 0 1-.292-.705v-.755c-.853-2.555-3.209-1.976-3.209-1.976-.225-.034-.297-.361-.297-.361 1.167-1.17 5.443-.101 5.443-.101.219.056.532.232.693.391l2.338 2.34c.16.159.354.468.423.682l.323.971c.072.214.263.522.42.682l.294.293.147-.147a.626.626 0 0 1 .877 0l.877.878zm-1.628-.961c.147.419.596 1.347 1.108 2.36l-1.462 1.46c-.783-1.57-1.626-3.32-1.682-3.676-.065-.409-.356-.461-.601-.461h-2.861l-.911-.913a1.152 1.152 0 0 1-.292-.705v-.396h4.064c.451 0 .823.09 1.134.229.083.132.156.272.193.386l.323.971c.072.214.263.522.42.682l.294.293.147-.147c.037-.037.083-.058.126-.083zm-7.475 4.101h-3.602a9.755 9.755 0 0 0 1.281-1.062l2.918-2.89 1.682 1.682c-.014.017-1.251 1.241-2.279 2.27zM6.17 11.912h3.265v1.675c0 .102-.028.22-.066.338H5.723c-.246 0-.537.052-.601.461-.041.261-.508 1.276-1.063 2.419h-.1a.9.9 0 0 1-.729-.449l-.57-1.141c.265-.56.449-.987.473-1.143 0 0 .113-.704.627-1.308l.97.969a.5.5 0 0 0 .711 0l.92-.92a.505.505 0 0 0 0-.711l-.191-.191zm14.534.395c.003.573.243 1.178.61 1.618h-9.835l-.535-.536v-1.478h9.76v.396zm10.042 5.706l-1.18 1.179a2.09 2.09 0 0 1-.31.255c.2.394.367.722.483.947H2.26c.222-.433.642-1.254 1.097-2.167-.621-.179-1.184-.618-1.478-1.196l-.059-.119C.962 18.599 0 20.394 0 20.394v10.301c0 .551.45 1 1 1h30c.551 0 1-.449 1-1V20.394s-.588-1.097-1.254-2.381zm-8.456 7.528a2.771 2.771 0 0 1-2.768 2.768h-7.045a2.771 2.771 0 0 1-2.768-2.768v-1.51c0-.139.112-.252.251-.252h2.013c.139 0 .251.113.251.252v1.51c0 .134.117.252.251.252h7.045a.258.258 0 0 0 .252-.252v-1.51c0-.139.112-.252.251-.252h2.014c.139 0 .251.113.251.252v1.51z"/></svg>