<svg xmlns="http://www.w3.org/2000/svg" width="32" height="32" viewBox="0 0 32 32"><path d="M25.23 14.698a.218.218 0 0 1 .051.289l-.618.959a.228.228 0 0 1-.288.079l-4.693-2.329a1.971 1.971 0 0 1-.33-.223l-1.467-1.288c-.084-.074-.187-.051-.232.051l-1.47 3.295a.473.473 0 0 0 .012.362l2.81 5.337c.051.098.103.268.117.378l1.149 9.489a.21.21 0 0 1-.173.232l-1.402.235a.23.23 0 0 1-.252-.158l-2.287-8.009a1.013 1.013 0 0 0-.188-.34l-2.132-2.396c-.073-.084-.169-.068-.213.034L8.689 32.012a.2.2 0 0 1-.264.102l-1.605-.712a.238.238 0 0 1-.127-.274l3.96-13.724a.493.493 0 0 0-.055-.358l-.377-.567a.551.551 0 0 1-.069-.362l1.413-6.501c.023-.108-.048-.196-.159-.196H9.468a.227.227 0 0 0-.22.2l-.561 5.597a.226.226 0 0 1-.22.2H7.37a.2.2 0 0 1-.201-.2V8.422c0-.11.083-.235.184-.28l7.965-3.436a.46.46 0 0 1 .36.016l2.944 1.607c.097.053.207.18.247.284l1.656 4.417a.799.799 0 0 0 .23.308l4.475 3.36zM15.502 2.679a2.547 2.547 0 1 1 5.094 0 2.547 2.547 0 1 1-5.094 0z"/></svg>