<?xml version="1.0" standalone="no"?>
<!DOCTYPE svg PUBLIC "-//W3C//DTD SVG 1.1//EN" "http://www.w3.org/Graphics/SVG/1.1/DTD/svg11.dtd" >
<svg xmlns="http://www.w3.org/2000/svg" xmlns:xlink="http://www.w3.org/1999/xlink" version="1.1">
<metadata>
Created by FontForge 20170103 at Wed Feb 15 14:31:54 2017
 By Ken Hawkins
</metadata>
<defs>
<font id="EBI-Species" horiz-adv-x="512" >
  <font-face 
    font-family="EBI-Species"
    font-weight="400"
    font-stretch="normal"
    units-per-em="512"
    panose-1="2 0 5 9 0 0 0 0 0 0"
    ascent="448"
    descent="-64"
    x-height="370"
    cap-height="333"
    bbox="-1 -65.6 513 449"
    underline-thickness="25"
    underline-position="-76"
    unicode-range="U+0021-00A3"
  />
<missing-glyph 
d="M17 0v341h136v-341h-136zM34 17h102v307h-102v-307z" />
    <glyph glyph-name=".notdef" 
d="M17 0v341h136v-341h-136zM34 17h102v307h-102v-307z" />
    <glyph glyph-name=".null" horiz-adv-x="0" 
 />
    <glyph glyph-name="nonmarkingreturn" 
 />
    <glyph glyph-name="ferret" unicode="!" 
d="M445 -16l15 1q-7 -13 -15 -17q-14 -6 -30 -6q-4 0 -20.5 3.5t-20.5 3.5q-7 1 -27 -1l-20 -2q-2 0 -3.5 -3.5t-3.5 -5.5q-3 -2 -20 -2.5t-21 0.5q-4 0 -13.5 -2t-12.5 -3h-12h-9l-8 1q-5 -3 -6 0l6 7l-12 -1q-11 2 -18 5q-3 0 -9.5 0.5t-13 0t-13 -0.5h-7.5h-14
q-3 1 -6.5 0.5t-6 0t-3 2t-2.5 2.5q-3 0 -5 -2l-1 2l6 4q8 2 13 4q4 2 9.5 2t7.5 1q3 0 4 1.5t1.5 2t1.5 4t2 5.5q2 6 -0.5 11t-2.5 9q2 15 9 33q2 8 2 10t-1.5 5.5t-1.5 7.5l7 18l-10 13l4 16l-7 -2l3 11l-6 -3l-3 16l-6 1q-3 0 -5 2.5t-3 4.5v2l-5 -12q-5 -9 -9 -15
q-2 -3 -4.5 -4.5t-3.5 -1.5h-2l-7 -7l-1 6q-3 -4 -7 -5q-2 -1 -4 0t-3 2l-1 1l-8 -8l1 6q3 6 3 8q1 4 12 15q2 2 4 8t3 11l2 4q-8 -4 -11 -6l-8 -11q-7 -12 -11 -14q-2 -1 -4 -0.5t-3 1.5l-1 1l-5 -7q-3 9 3 15q6 9 13 21q3 4 8.5 16t7.5 16q5 8 11 27l4 20l-6 -1l5 23
q-6 1 -6 10q0 5 3.5 18t3.5 18l-9 38q-5 4 -6 7q-7 15 -9 27q0 4 -6.5 12.5t-7.5 9.5q0 2 0.5 6.5t-1.5 4.5q-3 2 -4 9.5t0 13.5q2 7 11 5l24 -5q11 -1 19 -3l27 -14q11 2 19 -2q4 -1 5 -4.5t0 -6.5l-1 -2q17 -15 21 -27q10 -27 15 -47q1 -5 4.5 -35t6.5 -36q10 -17 22 -26
q6 -5 19 -6.5t16 -2.5q2 -2 9 -6.5t13 -9t12 -8t8 -4.5l20 -19q1 -2 -8 0q4 -4 11 -30q1 -4 1 -9v-7t1 -4l10 -23h-8l3 -15l-6 2l4 -11l-8 5q3 -9 5 -16q1 -3 -1 -10t-4 -14.5t-3 -9.5l-1 -15q1 -1 4.5 -2.5t7 -3.5t6.5 -4l38 -10q5 -1 9.5 -3t8 -3.5t7.5 -1.5q22 -3 30 -1z
M117 402q3 0 4.5 2.5t1.5 5.5l1 2q-3 2 -5.5 3t-4 0.5t-2.5 -1t-2.5 -1.5t-1.5 -2t0.5 -2.5t3 -4t5.5 -2.5z" />
    <glyph glyph-name="bee" unicode="$" 
d="M257 245zM488 300q12 -2 13 -12t-4 -18l-5 -9q-27 -30 -34 -31l-23 -3q1 -1 2 -3t2.5 -7t0.5 -7q-2 -3 -9.5 -8.5t-15.5 -9.5t-10 -4q-30 -4 -34 -3q-1 1 -15.5 8.5t-19.5 8.5l-13 1l-3 -12q26 -7 30 -9l17 -18q15 -16 18 -19q3 -1 6 -6t2 -7q0 -4 7 -7l5 -8q6 -1 6 -4
l6 -8l2 -2t2.5 -3t0.5 -4q-2 -8 -5 -6q-3 1 -8 10l-5 9l-5 7q-5 2 -8 8q-2 3 -5 4t-5 3q-2 1 -5 4t-5.5 6.5l-5 7t-4.5 5.5l-2 2q-12 1 -17 4q-2 1 -6 4t-7 5.5t-4 2.5l-11 5v-11q9 -1 13 -5q5 -3 22.5 -24.5t18.5 -27.5l-4 -11l7 -31l1 -14l3 -10q0 -1 1 -2t2.5 -3t1.5 -4
l-1 -3q0 -1 1 -1.5t2 -3t0 -4.5t2.5 -7.5t2.5 -7.5q-2 -3 -5 -3.5t-5 3.5l-3 18q-5 2 -5 9q0 3 -4 13q-2 8 -4 10q-2 3 -4.5 14t-4.5 20l-1 10q-6 7 -9 12l-19 36l-1 6l-7 1l1 -1t2.5 -3.5t2 -4t1.5 -4t0 -2.5l-3 -3q5 -18 5 -22q0 -7 -4 -15q1 -11 -1.5 -22t-5.5 -18
t-6 -10q-3 -1 -4 -1q0 -2 -11 -15q-5 -7 -33.5 -7t-33.5 7q-11 13 -12 15q-2 0 -4 1q-3 3 -6 10t-5 18t-2 22q-4 8 -4 15q1 9 5 22l-2 3q-1 1 0.5 5t3.5 7l2 3l-6 -1l-1 -6q-17 -32 -20 -36l-8 -12q-6 -38 -11 -44q-1 -2 -4 -10q0 -2 -1.5 -5.5t-1.5 -7.5q0 -3 -1.5 -5.5
t-2.5 -2.5l-1 -1q-2 -12 -4 -18q-2 -9 -9 0q-1 2 2.5 7.5t2.5 7.5t-0.5 4t1.5 3l1 2v3l5 9l2 10l1 14l7 31q-1 0 -1.5 1t-1.5 3.5t0 6.5q1 6 18.5 27.5t22.5 24.5l12 5v12q-9 -5 -11 -5l-3.5 -2.5t-7.5 -5.5t-6 -5l-17 -3q-16 -21 -21 -26q-2 -1 -5.5 -2t-4.5 -4l-8 -8
q-4 -6 -5 -7q-1 0 -3.5 -4.5t-5.5 -9.5t-4 -6q-2 0 -3.5 2t-2.5 5q0 2 1 4t3 3l1 2q6 6 6 8l7 4q2 7 4 7q8 4 7 8q-2 5 9 13l17 19q13 15 18 18l29 9l-2 12q-6 1 -14 -1q-4 -1 -18.5 -8.5t-16.5 -8.5q-5 -2 -33 3q-5 0 -19 8.5t-16 13.5q-1 3 0 6.5t3 6.5l1 2q-16 1 -23 3
q-3 0 -11.5 8t-15.5 16l-6 7q0 1 -1 1.5t-2.5 3t-2.5 5t-2.5 5.5t-2 6t-0.5 6.5t1 5.5t3.5 4t7.5 3q5 0 10 0.5t9.5 -0.5l9 -2t8.5 -2t8 -3t6.5 -3t5.5 -2.5t4 -1.5q3 -1 22 -10t46.5 -22t41.5 -19q0 2 3 15q-1 0 -2 1l-2 2q-1 0 -12 15v8q-16 18 -19 20l-1 6l-7 9
q-4 6 -7.5 8.5t2.5 4.5q3 2 5 0.5t3.5 -5.5t3.5 -6t2.5 -5t1.5 -3q5 -2 8 -6l10 -19q4 -1 9 -5q2 -2 4 -6.5t3.5 -9t1.5 -5.5q0 3 2 3q5 3 8 7q0 1 1.5 3t3 3.5t0.5 3.5q0 14 1 17q1 2 2.5 3t3.5 2h2q6 9 11 11q-1 2 -2.5 4t-2.5 3.5t-2 2.5q-7 6 -17 9q-8 2 -20 10
q-7 4 -23 7q-6 1 -9 3t2 3l9 -1q15 -3 18 -4q2 0 8 -3.5t8 -4.5q3 0 6.5 -2t8 -5t7.5 -4t11 -9q3 -3 4 -7l10 1q7 0 10 -1q4 5 5 7q7 7 11 9q3 1 10.5 6t10.5 5.5t9 3.5t7 4q2 1 4.5 1.5l5 1l5 1t3.5 0.5h12l-1 -2q-3 -2 -9 -3q-16 -3 -22 -7q-13 -8 -21 -10q-13 -5 -17 -9
q0 -1 -7 -10q3 -1 5.5 -3.5l4.5 -4.5l1 -3q7 -2 8 -5t1.5 -9t-0.5 -8q0 -2 2.5 -5.5t2.5 -4.5q5 -5 9 -7q1 -2 1 -3q1 1 4 9.5t6 11.5l8 5q11 14 14 20l8 6q0 5 4 8q1 2 2.5 6t4.5 5q6 3 8 -3q1 -1 -1 -2l-7 -8l-7 -9q2 -4 -1 -6q-1 0 -2.5 -1.5t-3.5 -3t-3.5 -4t-3.5 -4
t-3.5 -3.5t-2.5 -3l-1 -1q1 0 1.5 -1t1 -3.5t-1.5 -3.5q-8 -14 -12 -16l-1.5 -1t-2.5 -1q3 -13 3 -15q13 6 40.5 19t47 22t22.5 10q1 0 7 3t10.5 4.5t13 4t15 2.5t15.5 -1zM209 250q0 -2 -2.5 -6.5t-1.5 -6.5t7 -4q0 4 10 8q6 3 35.5 3t36.5 -3q10 -4 10 -8q0 -3 5 2l2 2
q0 2 -3.5 6.5t-2.5 6.5q-5 6 -8 7q-1 0 -12 8q-13 6 -28 6t-28 -6q-11 -8 -12 -8q-4 -1 -8 -7zM227 148q28 -8 59 0q2 1 4.5 2t4.5 2.5l4 3t3 2.5l1 1l-24 -2q-22 2 -46 0l-23 2q10 -8 17 -11zM67 238q3 -1 8 -0.5t10.5 1.5l5.5 1q1 0 24.5 2t26.5 2q14 0 23 -2
q-12 5 -28 12l-75 32q-2 1 -6 2.5t-12 3t-11 0.5q-4 -2 -6.5 -7t-0.5 -9q1 -4 4.5 -8t4.5 -7q2 -4 14 -12t18 -11zM199 214q3 4 3 9q-17 8 -30 14h-31q-9 0 -22 -3q-24 -10 -29 -10q-2 0 -3 -7q-2 -7 10 -13q4 -2 17 -6q5 -2 14.5 -2.5t12.5 -0.5q2 1 14.5 7t14.5 6l9 -1
q-4 6 0 8t9 2.5t5 -1.5q0 -3 2 -3.5t4 1.5zM277 34q13 8 15 15q-2 1 -6.5 1t-7.5 1q-22 8 -42 0q-2 -1 -4.5 -1t-5 -0.5t-3.5 -0.5q2 -12 13 -15q19 -7 41 0zM313 122q-1 7 -6 12q-4 -2 -8 -3q-45 -10 -85 0q-4 1 -8 3q-5 -10 -5 -12q-3 -12 1 -22q10 -5 21 -7q30 -6 68 0
q10 2 20 7q2 4 2 22zM416 204q11 6 10 14q-2 7 -4 7q-1 0 -14 4.5t-14 5.5q-1 0 -5.5 0.5t-9.5 1.5t-7 1h-32q-28 -13 -29 -14q0 -7 3 -10q2 -2 4 -1.5t2 3.5q0 2 5 1.5t9 -2.5v-8l9 1q2 0 6.5 -2t9 -4.5t8.5 -4t5 -2.5q10 -1 27 3q9 2 17 6zM488 276q4 10 -8 17
q-3 1 -10.5 -0.5t-13.5 -3.5l-5 -2q-37 -15 -75 -32q-17 -8 -28 -13q9 3 23 3q2 0 14.5 -1.5t24 -2.5t12.5 0l11 -2t14 0q5 1 17 10t15 13q8 11 9 14zM256 245z" />
    <glyph glyph-name="brachypodium" unicode="%" 
d="M371 241l-49 -95q-5 -15 -12 -26q-2 -3 -5.5 -11t-6.5 -15.5l-3 -7.5q-3 -11 -18 -31q-2 -2 -6 -7t-8 -9.5t-8.5 -9t-6.5 -7.5l-3 -2q-1 -5 -1.5 -12.5t-2 -22.5t-1.5 -19v-5.5t0.5 -4t0.5 -3t-1 -2.5t-2 -1q-2 -1 -4 0t-3 3l-1 2q2 28 3 32q2 8 -2 35q0 5 1 27.5t3 26.5
q4 12 -2 24l-10 22q-26 8 -34 19q0 1 -3.5 5t-4.5 6l-38 50q22 -25 33 -37l-5 14q-2 5 -4 13q-4 6 -10 15.5t-10.5 17t-9.5 14.5t-7.5 11t-2.5 4.5t4.5 -5.5t10.5 -15.5t12.5 -18.5t11.5 -17q-1 5 -2 14l-32 52l32 -44v11l-44 80l45 -76v8l-31 68l27 -59q1 4 1 9
q-5 15 -19 60q21 -58 24 -66q7 -8 12 -17q2 -3 3.5 -6t2 -5.5t1 -4.5t0.5 -3v-1l1 -45l3 37q24 -53 32 -68q4 -8 8 -17.5t5 -15.5l1 -5q3 11 4 17q1 4 1 19.5v20.5q-1 4 -6 21.5t-5 21.5q-2 3 -4 37l-18 49l18 -36l24 -48q-1 3 -6 16t-10 25.5t-6 16.5q-1 5 1 14l-11 50
q11 -34 14 -46l18 -38q-16 43 -17 46q0 6 1 10l-16 75l18 -67q0 -1 2.5 -5.5t6 -10.5t4.5 -9q-7 17 -12 30q0 8 1 13l-12 78l15 -71l12 -25l-10 30q1 8 3 14l3 83l1 -77q4 -6 5 -13l10 81l-8 -89q1 -9 2 -19l0.5 -2.5t0.5 -4.5l16 96l-15 -108q0 -3 0.5 -7t0.5 -7t0.5 -4.5
t1 -6t1.5 -6.5l15 107q-12 -99 -15 -122v-4q-6 -36 -6 -37l9 19q-2 -23 -3 -37q0 -7 -3 -15.5t-6 -15l-3 -6.5q0 -21 -6 -51q0 -12 -6 -34q-1 -7 -2 -18.5t-1 -19.5v-8q9 25 12 33q5 17 12 25q11 15 14 18l21 17q0 1 -15 -6q3 7 10 17l21 17l-18 -12q5 9 11 18l20 69
q-10 -41 -15 -59l0.5 0.5t0.5 1.5q1 0 2.5 2t2.5 4q5 10 15.5 33.5t18.5 41.5t8 19l-36 -89q1 1 1 -1v-2q0 -4 2 -0.5t7 13.5l35 72l-39 -85v-1q0 -1 -5 -16zM137 342q1 0 8 -22z" />
    <glyph glyph-name="tick" unicode="&#x26;" 
d="M501 63q2 -5 -10 -3l-13 4q-11 -2 -21 3l-29 18q-19 4 -25 11l-15 15q-13 9 -19 16q-1 2 -8.5 8.5t-8.5 11.5q-1 3 -4 6.5t-5 4.5l-3 2l6 -19q17 -16 18 -28q1 -5 9.5 -18t9.5 -20l4 -27q5 -26 5 -32q0 -3 6 -11t13 -15l6 -6l22 -5q10 -2 12 -8q1 -6 -17 2q0 -1 -1 -2
t-3.5 -2t-6.5 0l-22 10q-21 22 -27 35q-3 5 -4.5 15.5t-1.5 18.5v7l-2 24l-13 31h-6q4 -59 -16 -83q-9 -11 -22 -20.5t-26.5 -14.5t-24.5 -5h-2q-17 0 -38.5 11t-35.5 28q-9 11 -13.5 31.5t-3.5 36.5v15h-6l-12 -31l-1 -23q0 -29 -6 -42q-3 -6 -9.5 -15t-11.5 -15l-6 -6
q-14 -9 -22 -10q-3 -1 -6 0t-4 2l-1 1q-1 0 -2.5 -1t-6 -2.5t-6 -1t-2.5 1.5q1 3 3.5 5t5.5 3h2l22 5q25 27 25 33l4 32q1 15 3 28q1 6 9.5 19.5t9.5 18.5q0 5 5 12t9 11l5 4l4 20q-10 -5 -11 -13q-1 -5 -8.5 -11.5t-8.5 -8.5q-2 -3 -7 -7t-8 -6l-4 -3q-9 -7 -15 -14
q-1 -2 -3 -3.5t-4.5 -3t-5 -2.5t-5 -1.5t-4 -1t-2.5 -0.5h-1q-19 -13 -28 -18q-5 -2 -10 -3t-8 -1h-3q-1 0 -3.5 -1t-7.5 -2.5t-8 -1t-1 3.5q1 4 4.5 5t6.5 0h3q6 8 13 13l27 14q11 5 21 9q3 1 6 3.5t4.5 4.5t4 5.5t3.5 5.5q4 4 14.5 9.5t11.5 7.5q1 0 11.5 15t16.5 19
q3 1 5 3t4 3.5l4 3t3.5 3l2.5 2.5t1 2l1 1l-2 12v13l-13 -9q-8 -7 -14 -15q-3 -3 -10 -6.5t-13 -5.5l-5 -2q-13 -19 -24 -23q-3 -1 -9.5 -2t-13.5 -1.5t-13.5 -1t-10.5 -0.5h-5q-2 -2 -5.5 -5t-11 -6.5t-11.5 -1.5q-6 4 13 13q3 1 10 4q3 2 5 2q14 7 40 7q7 0 13.5 8.5
t10.5 9.5l28 25q20 16 30 20q4 1 11.5 1.5t12.5 0.5l5 -1l9 20q-9 1 -14 4q-2 2 -2 6t1 7l1 3q-24 -10 -39 -12q-12 -2 -40 11q-3 1 -7 7.5t-6 12.5l-1 5q-8 4 -13 13q-2 6 -1.5 14.5t3.5 16.5l2 7l2 8q1 5 18.5 18t25.5 16q4 2 9 5t7 6l3 2l-10 22q7 -1 13 -10t5 -17
q-1 -6 -16.5 -19.5t-15.5 -14.5q0 -2 -4.5 -7.5t-8.5 -10.5l-4 -4q2 -5 0.5 -13.5t-3.5 -17.5l-3 -8q10 1 20 -8q4 -4 9.5 -7.5t8.5 -4.5l4 -1q14 2 27 3q6 1 10.5 -0.5t8.5 -4t7 -2.5q3 -1 6.5 -4.5t5.5 -7.5l2 -3l13 -6q-1 3 -2 8.5t-2.5 16.5t-0.5 17q1 12 7 33.5
t12 24.5t9 0q3 3 9 0t12 -23t8 -34v-6.5t-0.5 -7.5l-1 -8t-1 -7.5t-1 -6.5t-1.5 -4v-2l13 6q7 13 14 14q1 1 9.5 5t16.5 3l27 -3q13 3 22 13l6 4t5.5 3t4.5 1.5t3 0.5h1q-1 1 -1.5 3l-2 8t-2.5 10.5t-1.5 10t1.5 6.5q-18 17 -18 23q0 1 -15.5 14t-16.5 19q-1 8 5 17t13 10
l-9 -22q9 -9 19 -13q8 -2 26 -14.5t19 -16.5l2 -7q1 -3 2 -8t3 -16.5t-1 -14.5q-2 -4 -5.5 -7t-5.5 -4l-2 -1q-7 -23 -14 -26q-31 -12 -40 -11q-5 0 -10 1.5l-10 3t-9.5 3t-6.5 2.5l-3 1q5 -13 0 -16l-14 -5l9 -20q19 2 29 -2q5 -1 12.5 -6t12.5 -9l6 -4l29 -24
q3 -2 6.5 -6.5t7.5 -8t10 -3.5q25 0 40 -7q28 -13 29 -17q0 -2 -2 -3q-4 -2 -11 1.5t-13 7.5l-5 4q-40 0 -51 5q-5 2 -11 7.5t-10 10.5l-3 4q-23 7 -29 15l-15 15l-12 9v-13l-2 -13q9 -11 20 -18q7 -3 17.5 -17.5t12 -15.5t7 -4t10.5 -6t8 -6q2 -2 3.5 -4.5t3 -4.5t3.5 -4
l4 -4t5 -3l20 -7q22 -10 28 -15l12 -13q12 3 15 -5z" />
    <glyph glyph-name="bat" unicode="(" 
d="M460 238q11 -6 20 -14t12 -13l3 -5q-1 0 -3 1t-7 2.5t-8 1.5t-6 -3.5t-4 -6.5l-1 -3q-1 1 -2.5 1.5t-8.5 2t-16 -0.5q-6 -2 -11 -6t-8.5 -9t-6.5 -9.5t-4 -7.5l-1 -3q-16 17 -37 17q-18 0 -52 -27q-1 -1 -4 -6.5t-5.5 -13.5t-5 -15.5t-4.5 -12.5l-1 -5v-7q1 0 1.5 -1.5
l1.5 -4.5t0 -4l-1 -1l-2 4v-5q0 -1 -1.5 -1t-2.5 1v4l-1 -4q-1 2 -1 3q-1 2 0 6t0 6l-3 9l-8 -4l-6 17v-16l-10 6q1 -8 4 -11l1 -9l-1 1v-2l-2 -1l-1 1l-1 -1q-2 1 -3 4t-0.5 7.5t-0.5 7.5q0 2 -9 12.5t-17 20.5l-8 9q-22 24 -45 25q-7 0 -13.5 -1.5t-11 -4.5t-8 -6t-5.5 -5
l-2 -2q-16 25 -43 31q-8 1 -15 0t-12 -2l-5 -2q-7 8 -19 12q-6 2 -17.5 -2.5t-12.5 -3.5q-3 2 -2 4.5t8 10.5q10 13 36 26q33 16 41 18l36 9q-2 1 -3.5 4t-1.5 4.5t1 1.5v-1t2 -4t7 -5q11 -6 43 -15t48 -8l3 5h-9l1 1l9 6q1 3 4 7l7 1q4 1 7 1q1 0 3 -2l4 -4l1 -2q5 0 9 -2
q6 -2 6 -3q-1 -1 -3.5 -1.5l-2.5 -0.5l-6 -1l3 -7q23 2 30 4q34 11 41 15l24 13q2 1 -1 3l-3 8l9 -10q10 0 13 -1q3 0 19 -4t20 -6q1 0 5.5 -1.5t13 -5t19.5 -9.5z" />
    <glyph glyph-name="tomatoes" unicode=")" 
d="M497 144q2 -11 1.5 -22t-3 -21.5t-6.5 -19t-9 -14.5q-9 -13 -27.5 -26.5t-35.5 -17.5q-18 -4 -43 -2t-39 8q-17 6 -33 22q-8 -2 -13 -3q-6 -2 -19 1q-5 -5 -10 -11q-2 -3 -7.5 -7t-11.5 -8t-7 -4q-17 -9 -53 -12q-4 -1 -10 -1q-25 0 -51 15q-1 3 -3 3q-8 3 -19 14
q-21 0 -34 7q-8 4 -14 9t-12 13.5t-14 22.5q-12 22 -11.5 49.5t10.5 44.5q9 17 38 31q8 4 14 6l-13 9q-11 6 -13 13q0 2 0.5 6t2 8.5t3 8.5t2.5 7l1 3q-4 -29 -4 -34q0 -1 2 -3.5t5 -4.5l6 -4t5 -3l2 -2q0 1 7 0q-3 7 1 15l4 -1q1 -10 6 -17h11q1 1 3.5 5.5t4.5 8.5t2 6
q2 11 5 16q2 3 6.5 4t7.5 -2q1 -3 0.5 -5t-4.5 -7.5l-4 -5.5q-5 -6 -3 -19q2 -4 6 0q2 1 7 1q-2 12 -2 24q0 5 0.5 9.5t1.5 9t2 7t3 6.5t3 5t4.5 6t4.5 6t2 3.5t2.5 5.5l2.5 5l0.5 1t1.5 1l-12 6q6 -2 13 -3q9 11 25 20q-4 7 -9 12q-3 2 -4.5 10t-1.5 14v7l12 -20
q1 -2 6.5 -8t5.5 -7t1 -2q1 0 1.5 0.5l0.5 0.5l9 4l3 2q0 2 -0.5 5t-0.5 4l-2 8q1 0 2 0.5t4 1t5 -0.5q2 -2 2 -12v-3q15 4 29 4l13 25l-3 -12q0 -5 -6 -13q33 -10 57 -27q30 -22 32 -70q1 -10 -7 -33q23 10 39 9q13 -1 33 -8q3 -2 9 -3q26 -9 50 -26q23 -18 31 -54z
M239 346q-14 -3 -17 -4l2 -12q6 5 9 8q1 1 3 3.5t3 4.5zM211 338q-2 -1 -5 -3l5 -2v5zM192 329q-12 -7 -19 -15l25 3zM159 294q-9 -12 -12.5 -20.5t-3.5 -26.5q0 -21 5 -32q14 4 34 3q1 0 3 -0.5t4 -0.5q3 6 9 3q3 0 3 -4q49 -6 70 -37l7 -13q5 11 6 14q13 20 35 36l1 1
q11 10 9 41q-2 44 -25 61q-8 6 -20.5 12t-21.5 9.5t-12 4.5h-3l-12 -20q9 -1 18 -1q5 0 27 -11l19 -6q-6 -1 -15 0q-5 1 -16.5 4.5t-16.5 5.5q-6 1 -10 0.5t-7 -1.5t-3.5 -0.5t0.5 -2t4 -8t6 -10.5q2 -6 12 -17q6 -7 4 -7q-2 1 -5.5 4.5l-7.5 7.5t-7.5 8.5t-5.5 7.5
q-6 11 -12 13q-2 2 -8 -0.5t-11 -2.5q-17 0 -29 2q-3 -3 -4 -5q-2 -2 -4.5 -6t-3.5 -6zM181 209q-14 1 -22 -1v-1q0 -2 6 -15l15 -32q3 7 5 20q1 5 4 28q-3 1 -8 1zM195 182l1 -23q4 7 6 9q7 5 17 10q2 1 7 4t10.5 6.5t7.5 5.5q-18 10 -45 13q-1 -1 -4 -25zM32 94
q7 -13 14 -20.5t10 -9.5t13 -8q3 -2 6 -2.5t5.5 0t5.5 0.5q-15 23 -16 48q0 29 7 48q6 21 17 32q0 1 2 1q17 17 30 24q-7 2 -12 1l-17 -2q-5 5 -7 6q-5 0 -11 -1l-13 -6h-1q-1 0 -5.5 -2.5t-11.5 -9t-12 -15.5q-10 -16 -12 -40t8 -44zM253 44q2 1 5.5 6t5.5 6q9 10 16 43
q8 40 -16 75q-8 11 -19 19q-15 -18 -26 -27q-5 -5 -9 -14.5t-3 -13.5q0 -1 16 -9q1 -1 9 -6t13 -7q4 -1 18 1h6q-3 -3 -15 -7t-18 -3q-7 1 -25 12l-10 1l-2 -15v-20l-6 -13l-4 13q-5 11 -6 19l-2 16l-17 -4l-17 -2l-14 5q4 6 7 8q18 13 19 14l14 1q-9 27 -10 31q-9 22 -9 27
q0 6 1 8q-1 0 -4 -1h-3h-2q-23 -7 -43 -29l-2 -2q-22 -24 -21 -72q0 -7 3 -15t6.5 -14.5t7 -11.5t7 -9l3.5 -4q5 -4 14.5 -10.5t27.5 -14t30 -6.5q46 3 51 8q18 10 23 17zM288 56q2 1 3.5 1.5t2.5 0.5q-5 5 -9 14q0 1 -0.5 2t-1.5 2q-3 -12 -7 -19q9 -2 12 -1zM470 73
q22 30 16 69q-8 34 -25 47q-27 20 -46 26l-8 3q4 -7 7 -19l2 -32l8 -1q10 0 11 -1l15 6q7 2 19 2l-12 -5v0q-17 -11 -22 -15l-13 -10l12 -18q18 -17 24 -22q3 -2 5.5 -6t3.5 -7l2 -3q-30 22 -34 27l-25 17q-5 -6 -10 -17q-4 -11 1 -14q-3 2 -8.5 8.5t-6.5 10.5q-3 10 2 24
q1 3 1 4t-1.5 3t-2.5 3q-1 2 -4.5 4.5t-8.5 7t-9 8.5q-4 5 -10 14.5t-10 16.5l-4 7q14 -19 18 -22q1 -2 9.5 -7.5t10 -7.5t12 -6t10.5 -5q2 8 4 14q4 14 2 28q-1 8 -4 13q-18 6 -26 6q-17 2 -43 -12q-1 0 -6.5 -3t-15.5 -11t-16 -19q-3 -5 -4.5 -12.5t-1.5 -12.5v-5
q8 -24 2 -53v-1q4 -16 6 -20q2 -3 5 -7t5 -7l3 -2q16 -15 31 -22q12 -5 36.5 -5t39.5 4q14 4 30 15t24 22z" />
    <glyph glyph-name="orangutan" unicode="*" 
d="M398 299l-7 -17l-4 -20q1 -1 -1.5 -3t-4.5 -4l-2 -2l-4 -17h-7l-5 -22l-4 11l-6 -19l-5 8l-2 -24q7 -17 8 -19q0 -1 2 -5t4 -8.5t3 -9.5l4 -14q24 26 29 26l11 -3l11 2l4 -6l9 -3q-4 -8 3 -11q3 -1 3.5 -5t-1.5 -7l-1 -2q8 0 11 4q4 0 8 -3q2 -1 2 -3.5t2 -3.5l-2 -8
q3 -3 5 -6q1 -2 -6 -14q-5 -7 -9 -16q-3 -9 -13 -8q-3 1 -6 2.5l-5 2.5l-1 1l-12 2q1 -8 2 -8h-7v-6l-11 3v-6l-9 3v-4l-5 4q-3 0 -10 1q-9 1 -9 -1q0 -1 1.5 -12.5t1.5 -14.5t-0.5 -8.5t-0.5 -6.5t2.5 -3t5.5 -4.5t5 -3.5q1 -2 7.5 -4t10 -5t3.5 -7.5t2 -5.5l5 -4t7 -5
t7.5 -1.5t8.5 0.5q5 1 7 -6q0 -2 -2 -2.5t-5 -0.5l-2 1q3 -4 3 -7q1 -2 -0.5 -4t-3.5 -4l-2 -2q-1 0 -3 -0.5t-7.5 -1.5t-7.5 0q-5 1 -20.5 9.5t-16.5 9.5q0 1 -2 2t-5.5 3t-5.5 3v-4l-11 9l4 -9l-14 16v-7l-7 11l-1 -7l-7 12q-9 4 -12 7q-9 12 -10 25q-2 31 4 34l-5 1l-6 1
l-1 -1l-3 -1q-2 1 -4 1h-1h-1q-31 11 -40 21q-4 5 -6 10q0 1 1.5 3.5t1.5 3.5t-2 -3l-2 -2q-1 2 -2.5 6t-2.5 5q-8 19 -9 24q-2 5 -5 6l1 6l-4 -4v9l-7 1l-7 2l-2 7q-12 1 -15 1l1 10l-8 -1q-2 6 -4 11l-5 -5l-5 3l-3 -12l-4 12l-3 -7l-6 16l-6 -3l-5 20l-6 7q-18 19 -51 41
q-6 4 -9.5 5.5t-4 1.5h-2t-2.5 1q-3 2 -5 4t-3 4v2q-8 4 -11 11q-2 4 -1 7t1 4q-2 6 2 9q3 1 5.5 0.5t4.5 -1.5l2 -1l16 1q2 -1 5.5 -3t5.5 -4t6.5 -6t7.5 -7q5 -4 17.5 -10.5t29 -13t17.5 -7.5q4 -2 5.5 -3.5t1.5 -2t1 -1t4 -1.5q4 0 13.5 -1.5t17.5 -2.5t9 -1q-1 -3 0 -10
q1 -3 3 -5.5t3 -3.5l2 -1q-5 -11 5 -33q2 -4 13.5 -4.5t17.5 2.5q9 3 4 12q-6 15 -16 22q-1 1 -2.5 2l-3 2l-3 2t-3 1.5t-2.5 1.5q-1 0 -2.5 2t-1.5 4l-1 1q-3 -2 -3 -7q0 -6 -5 -2l-3 5l3 5l1 5q2 6 15 -2q1 -1 3 -3.5l4 -5t4 -4.5l3 -3q2 -1 2 4l-3 11q-6 15 -15 16
q-4 0 -8.5 -2t-7.5 -5l-3 -2l2 11q0 7 9 14q10 8 20 4q3 0 14.5 -6.5t17.5 -7.5q4 -1 7 -0.5t4 1.5l1 1q19 10 26 18q3 3 8 6t9 4l4 1q22 21 25 24q10 9 14 22q2 8 9.5 21t10.5 15q23 13 24 18q1 2 4 14q1 6 11 17q5 3 15 5l10 5l-4 3q1 1 2.5 2t5 2t6.5 1t4 -1.5t1.5 -4
t0.5 -3.5q1 -2 1 -3.5t-0.5 -3t-1.5 -3.5l-2 -4q-2 -7 -10 -14l-22 -22q-6 -19 -11 -24q-3 -3 -5.5 -12.5t-2.5 -12.5q0 -1 -3.5 -4t-6.5 -5l-3 -2z" />
    <glyph glyph-name="amoeba" unicode="0" 
d="M273 -48q-76 0 -108 11h-2q-6 0 -6 5.5t6 5.5q1 0 2 -1q0 1 9 3.5t20.5 5.5t16.5 5q7 2 17 13.5t14 21.5q15 41 11 82q-1 8 -3 15.5t-4 14.5t-4 12.5t-4 10t-2 6.5q-63 5 -78 46q-3 14 -3.5 24.5t4 23t8.5 20t9 16.5t7 13q3 6 3 7l1 4q0 2 3 12.5t4.5 19t1.5 15.5l-1 2
q-4 13 -2 36t18 28q6 2 11 2q14 0 33 -38l1 -3q2 -3 5 -14q7 -25 13 -29q20 -15 21 -16q2 -4 4 -7q4 -4 15 -16t18 -21.5t10 -20.5q5 -19 -3 -38.5t-20 -32.5q-9 -9 -23 -21l-4 -4q-10 -17 -9 -37q0 -6 1 -14.5t1.5 -14.5t1.5 -11t1 -6q1 -7 13 -54q1 -3 1 -14.5t1 -14.5
q1 0 4.5 2t4.5 2q9 0 13 -4q3 -3 6.5 -8t6.5 -8.5t4 -3.5t7 -1.5l6 -1.5q8 0 38 -8q4 -1 4 -5t-3 -5q-1 -1 -17 -3.5t-46 -5.5t-58 -3zM196 -26q39 -11 79 -11h1q43 0 84 12q-9 2 -12 2h-2q-7 0 -29 20q-1 1 -5 1t-9 -2h-1q-5 0 -6 5v1t-0.5 3.5l-1 5t-1 5.5t-1 5.5
t-1.5 5.5t-1 4q-2 10 -10 59v0q-2 23 -3 42q-2 38 7 47l5 5q12 9 22 19q8 9 11.5 25.5t-0.5 35.5q-3 10 -8 18.5t-16 20.5t-13 15q-3 3 -6 7q-4 8 -12 13q-9 7 -17 36q-2 9 -3 11l-2 4t-3 7t-3.5 7t-4 4t-5.5 2q-6 0 -13 -2q-11 -3 -12 -14t3 -25v-3q2 -18 -6 -50l-1 -4
q0 -3 -3 -10q-1 -1 -4.5 -8.5t-5 -11.5t-4 -13t-3 -16t0.5 -16.5t4 -18.5q5 -13 13 -22.5t17 -13.5t14.5 -5.5t9.5 -1.5h1q4 0 5 -3q10 -27 13 -62q6 -59 -5 -91q-5 -12 -16 -23t-20 -14q-7 -2 -21 -7zM242 177q-3 0 -4 4q-14 69 -20 77q-7 10 -10 47v3q0 11 5 20
q-9 8 -16 35v1q0 3 3 4h1q3 0 4 -3q8 -30 14 -32q2 -1 3 -3t0 -3q-7 -11 -6 -21v-10v-14t1.5 -12.5t4.5 -8.5q10 -7 24 -79v-1q0 -3 -3 -3zM278 180q-1 0 -1.5 8.5t-0.5 18.5v10l-2 7t-4.5 17.5t-4.5 18.5q-1 2 0 8q3 30 1.5 39.5t-13.5 22.5q-1 1 -1 2v1q5 18 1 37v1
q0 4 4 4q3 0 4 -3q2 -9 2 -18q0 -11 -3 -21q9 -11 12 -26q3 -21 1 -40q-1 -5 0 -5q4 -21 9 -78q0 -4 -3 -4h-1z" />
    <glyph glyph-name="mosquito" unicode="1" 
d="M434 58q4 -2 4 -4q-1 -3 -4 -3h-3q-10 3 -20 12q-3 4 -35 42q-30 38 -32 41l-4 7q-21 57 -22.5 59.5t-4.5 4.5l-31 25v-1l-1 -1l-1 -1h-1v0l27 -40q2 0 1 -8q0 -3 -13 -82q0 -2 1 -4q0 -1 5 -14q14 -38 15 -40q1 -1 7 -12q20 -35 24 -38q4 -4 30 -41q1 -2 3 -5q2 -2 1 -4
l-1 -1h-2q-2 0 -6 3q-1 2 -20 27q-2 3 -4 5.5t-4 5.5l-3 4.5l-1 1.5q-1 1 -8.5 12.5t-14.5 23t-8 13.5q-2 4 -21 55q0 1 -1 1q-2 3 -2 8q1 7 15 80q-4 3 -5 6t-20 35q0 -1 0.5 -2l0.5 -1q3 -8 3 -11v-2v-5q2 -9 1 -12q0 -2 1 -9q1 -9 0 -12v-5q1 -9 0 -11q-2 -3 -4 -9
q0 -6 -3 -9q-1 -2 -2 -7q-3 -10 -7 -10h-1q-4 0 -7 10q-1 5 -3 7q-2 3 -2 9q-3 8 -4 9q-1 2 0 11v5q-1 3 0 12q1 7 1 9q-1 3 1 12v5v2q0 3 3 11q1 1 1 3q-19 -32 -20 -35t-5 -6q14 -74 14 -80q1 -5 -1 -8q-1 0 -1 -1q-19 -52 -21 -55q-1 -3 -15 -25t-16 -24q-1 -1 -13 -17
q-18 -25 -20 -27q-3 -3 -5 -3h-2l-1 1q-1 2 1 4l3 5q26 37 30 41q4 3 24 38q6 11 7 12q1 2 15 40q5 13 5 14q1 2 1 3q-12 75 -13 83q-1 6 2 8l26 40h-1l-2 2v1l-31 -25q-4 -2 -5 -4q-1 -3 -22 -60q-1 -3 -4 -7q-2 -3 -32 -41q-30 -37 -35 -42q-10 -9 -21 -12q-5 -1 -6 2
q0 3 4 5q4 1 17 11l34 41l31 41q23 60 25 66q0 3 6 8l31 21l-26 -6q-15 -4 -32 -3q-7 1 -52 17q-16 5 -20 13v3v3q3 8 30 9h3q9 0 106 -19q-1 3 -1 6q-1 2 -1 6q-4 4 -11.5 9t-13 8.5t-6.5 4.5q-3 2 -5 5q-28 48 -31 51q-3 2 -4 7q-24 17 -26 18q-4 2 -7 8l-35 22q-2 3 -1 5
l1 1l1 1h1h2q3 -1 35 -22l5 -3l29 -23l5 -1v-1q27 -50 32 -57q2 0 3 -4l1 -1q14 -11 26 -17v2l4 12l2 4q-4 7 -3 13q1 2 3 4q-2 1 -2 3q-3 0 -3 3q0 2 1 3q-2 0 -2 3v2v0q-4 0 -4 3v1v0q-3 0 -4 3v1t1 2h-2q-4 0 -4 3v2h-2q-4 0 -4 3v1l-1 -1h-1h-2q-3 0 -3 3.5t3 3.5h1h-1
l-3 -1q-3 0 -3 2q-1 1 -1 1.5t1 1.5q-2 1 -2 2q-1 0 -1 1t1 1q0 3 3 3l1 -1h1q1 1 1 2q1 1 3 1q3 0 3 -3l1 -3q1 1 2 1q4 0 4 -3v-1q0 1 1 1q3 0 4 -3l1 -5q1 1 3 0t2 -3v-2q2 1 3.5 0t1.5 -3v-3q1 1 3 1h1q2 -1 2 -3v-2h1v-1v1v2t1 2t2 1v53q1 12 3 13h1h2q2 -1 3 -13v-53
q1 0 2 -1t1 -2v-2l-1 -1l1 1h1v2q0 2 2 3h1q2 0 3 -1v3q0 2 1.5 3t3.5 0v2q0 4 3 4q2 0 2 -1l1 5q0 3 3 3q1 0 2 -1v1q0 1 1 2t2 1v0q2 0 3 -1l1 3q0 3 3 3q2 0 3 -1v-2h2l1 1q2 0 3 -3q1 0 1 -1q0 -2 -3 -3q1 -1 1 -1.5t-1 -1.5q0 -2 -3 -2h-1l-2 1h-1h1q2 -1 2 -3
q0 -1 -1 -2q-1 -2 -3 -2l-2 1v-1q0 -3 -3 -3h-3v-2q0 -3 -3 -3h-3q1 -1 1 -2v-1q-1 -3 -4 -3v0q0 -4 -4 -4v-2q0 -2 -2 -3q1 -1 1 -3q0 -3 -3 -3q0 -2 -2 -3q2 -2 3 -4q1 -6 -3 -13l2 -4l4 -12v-2q16 8 27 17v1q1 4 3 4q5 7 32 57l5 2l29 23l5 2q33 21 36 22h1h1h1l1 -2
q1 -1 -1 -4l-1 -1l-34 -22q-3 -6 -6 -7t-27 -18q-1 -5 -4 -8t-31 -50q-2 -3 -5 -5q0 -1 -12.5 -8.5t-18.5 -12.5v-1q0 -3 -0.5 -6t-1.5 -6q97 19 105 19h4q27 -1 30 -9v-3v-3q-4 -8 -20 -13q-45 -16 -52 -17q-17 -1 -32 3l-26 6l31 -21q6 -5 6 -8q2 -6 25 -66l31 -42l34 -40
q14 -10 17 -11zM270 341h-1l-1 -5v-1h1h1l-1 2v1q0 2 1 3z" />
    <glyph glyph-name="diatom" unicode="2" 
d="M408 110q32 -40 54 -82.5t19 -61.5q-2 -7 -7 -11q-6 -3 -11 -3q-10 0 -21 8.5t-34 32.5q-14 13 -22 21q-14 14 -34 28t-44.5 26.5t-45.5 19.5q-33 9 -113 9q-21 0 -59 -1h-8h-2q-16 0 -29.5 8t-13.5 22q-1 10 5 18.5t20 15.5t35 8q42 4 75.5 21.5t70.5 46.5q36 28 79 146
q1 2 4 12q14 38 39 38q11 0 19 -7.5t11 -19.5q3 -16 -10 -95q-9 -53 -10 -73q-6 -76 33 -127zM169 114h39h28q-5 5 -8 9q-13 18 9 47q7 9 33.5 12t28.5 4q6 3 5 11.5t-4 16.5t-7 12q-4 5 -3.5 21t6.5 26q27 42 33 64q4 13 11.5 15t17.5 -3q10 -3 16 -21q13 67 12 73
q-5 24 -25 20q-11 -2 -22 -32l-4 -12q-3 -8 -9.5 -27t-10.5 -30t-11.5 -28t-13.5 -28t-15 -22.5t-18 -19.5q-71 -56 -158 -64q-22 -2 -35.5 -11t-13.5 -19q1 -4 4.5 -8t11.5 -7t17 -3h2h8q5 0 34 2t42 2zM467 -33q0 1 0.5 3t0.5 6.5t-0.5 10t-3 13.5t-7.5 18q-3 8 -8 16
t-12 17.5t-12 15.5t-14.5 18t-12.5 17q-1 0 -1.5 1l-0.5 1q0 -6 -5 -22q-2 -7 -12 -14t-22 -9q20 -17 39 -35l21 -21q37 -37 46 -37q2 0 4 1z" />
    <glyph glyph-name="kangaroo-rat" unicode="3" 
d="M496 133q-1 -3 0 -9t-3.5 -16t-11 -19.5t-24 -20.5t-41.5 -19q-30 -9 -59 -9.5t-54 7t-39 14t-32 16.5q-23 12 -47.5 29t-29.5 22q-3 3 -26 16.5t-28 15.5q-5 1 -28.5 12t-27.5 14q-22 14 -28 21v5l14 -6q15 -1 30 -4q6 -1 16 -6t16 -9l6 -5v5l26 -15l-1 4l23 -14v4
l15 -18l1 4q19 -21 52 -44q28 -18 67.5 -31.5t75.5 -14.5q36 0 68.5 18t44.5 37q5 12 1 23.5t-11 21.5l-7 9l-6 -3q-20 -10 -24 -13q-2 -1 -19 -4.5l-17 -3.5l-22 -14q-2 -5 -5 -8l-13 -3q-5 -4 -9 -6q-8 -3 -27 5l-34 6l-8 -2l-16 -4q-6 -1 -7 6l2 4l14 5q-9 0 -12 -1
q-1 0 -2 -1l-6 -4q-9 1 -12 1q-6 0 -8 7l6 5h-10l1 5q3 3 4 5q2 3 18 3q3 0 8.5 -3t7 -3t7 -1.5t11.5 -3t7 -2.5l33 -7l-17 15q-5 -1 -8 -3l-14 8l-20 6h-24q-3 0 -6 1.5t-6 3.5t-5.5 4t-4.5 4l-1 1q-8 0 -15 1q-1 0 -3 1t-4.5 2.5t-4.5 3t-4 3.5t-4 3t-3 2v1q-8 -1 -13 -1
q-2 0 -7.5 2t-9.5 4l-4 2l-8 2q-6 -2 -8 14q-1 5 11 26l5.5 11l11.5 23t14 26q7 13 22.5 24.5t27.5 16.5l12 6q2 6 10.5 11.5t11.5 5.5q2 0 3 -2t1 -4l1 -1q12 -1 14 -1l12 -4q14 1 17 2l17 8l5 -3l15 4v-3l10 -1l-2 -2q2 -2 21 -5h2q34 -5 67 -47q9 -12 30 -69q2 -4 1 -10
t1 -15.5t8 -16.5q8 -11 16 -33.5t9 -29.5zM202 239q5 0 8.5 3t5.5 6l1 3q-12 5 -18 5q-3 0 -6.5 -1.5t-5.5 -2.5l-2 -1q0 -1 2 -3.5t3 -4t4.5 -3.5t7.5 -1z" />
    <glyph glyph-name="louse" unicode="4" 
d="M317 403l-1 1q3 20 15 27q7 3 12 -0.5t8.5 -10t4.5 -7.5q3 -3 8 -15t5 -18q0 -4 -2.5 -8t-4.5 -6l-3 -2q0 -12 -3 -14l-18 -11q-15 -6 -28 3l-6 -6l-7 -14l3 -14q0 1 0.5 2t3.5 2t8 0l19 -1l0.5 0.5t3 1t4.5 1t4.5 1l5 1t4 0t2.5 -0.5q3 -2 5 9l2 14v19l8 -13l3 17
q0 1 -2 1t-4 -1l-2 -1l6 9q2 1 4 -1l5 -20l4 -27q-5 -17 -17 -26q-23 -17 -36 -12q-6 2 -9.5 5t-4.5 5l-1 2l-6 -5q-2 -6 -5.5 -9t-0.5 -10q1 -2 5.5 -7.5t6.5 -4.5t7.5 -3t6.5 -7q1 -1 7 -5.5t13 -9t9 -8.5q12 14 26 18q4 0 5.5 5t1.5 10l-1 4q1 -1 2 -3t3.5 -6t4 -4t3.5 2
q8 17 -11 23q-8 2 -2 2q17 1 24 -14q1 -2 2 -3q2 -6 1 -10t-3.5 -6.5t-5 -3.5t-4.5 -1h-2q-14 -20 -17 -24q-4 -5 -13 -9t-18 -1q-4 2 -17 3.5t-19 6.5q-5 4 -7.5 11.5t-3.5 13.5l-1 5l-11 -2l5 -15q8 -10 8 -23q0 -4 1 -8t2.5 -6.5t2.5 -6t1 -6.5l1 -23q6 -8 6 -18l-2 -21
q1 -2 1.5 -4t2 -7t1.5 -9t-1 -8.5t-2.5 -7.5t-2.5 -5.5t-2 -3.5l-1 -1l1 -20q0 -4 -1 -7.5t-2.5 -6t-3 -4.5t-2.5 -3l-2 -2t-2 -1l-1 -1q-5 -24 -10 -30l-11 -12q-5 -12 -10 -16q-12 -11 -22 -14v-1h-1h-1v1q-10 3 -22 14l-10 16q-6 6 -11 12q-3 2 -5.5 10t-3.5 14l-1 6
q-12 5 -15 25l2 20q-8 10 -9 26q0 4 1 9t2 8l2 3l-2 21q0 3 0.5 6t1.5 5l2 4t2 2v1v23q1 4 2.5 8t3.5 9t2 10q0 4 1 7.5t2 6.5t2.5 5t1.5 3l1 1l5 15l-11 2q-2 -21 -12 -30q-6 -5 -19 -6.5t-17 -3.5q-7 -3 -13.5 -1t-11 5t-6.5 6l-17 24q-2 0 -5.5 0.5t-7.5 6t-1 14.5
q6 16 24 17h4q-1 -1 -4 -2q-19 -6 -11 -23q4 -9 13 11q-3 -17 5 -20q7 -1 13.5 -5.5t9.5 -7.5l4 -4q3 5 15.5 13.5t13 9.5t2.5 3t4.5 3.5t4.5 2.5t3 1t4 2t5.5 5t2.5 5q3 7 -1 10l-5 9l-6 5q-2 -7 -15 -12t-36 12q-5 4 -9.5 10.5t-5.5 10.5l-2 5l4 27q0 15 5 20q3 2 5 0.5
t4 -4.5l1 -4l-8 1l3 -17q8 10 8 13v-20q0 -1 0.5 -3.5t1.5 -8.5t2 -9t3 -1q3 1 8.5 0t10.5 -2l5 -2q9 0 19 1l12 -4l3 14l-7 14l-6 6q-4 -2 -8 -3.5t-7.5 -1.5t-6.5 0.5t-4 0.5l-2 1q-14 9 -18 11q-1 1 -2 4.5t-1 6.5v3l-2.5 2.5t-4.5 5.5t-3 8q0 6 5 18t8 15q1 1 4.5 7.5
t8.5 10t12 0.5q14 -7 14 -28q-1 6 -7.5 11t-9.5 3t-5.5 -7.5t-0.5 -10.5q3 -6 15 11l-5 -11l-13 -23q10 -3 16 -4q1 0 3 -1.5l4 -3t3.5 -2.5t2.5 -2l1 -1q1 -1 2 -1.5t4.5 -1t7 -0.5t6.5 -2t4 -5l1 -2l7 1q1 15 2 17q0 1 -2 7.5t-1 8.5q0 2 -1.5 3.5t-3.5 3l-4 3t-3 1.5
l-14 18q-2 6 2 9q4 -1 5 -10l9 -11l10 -9l9 -5q4 10 10 14q3 2 6 2.5t5 -0.5h2q7 2 13 -2q2 -2 5 -5.5t4 -6.5l1 -2l9 5l10 9l9 11l3 10q1 1 2 0q2 -1 2.5 -3.5t0.5 -4.5l-1 -1q-11 -15 -14 -18q-1 0 -4 -2.5t-5.5 -4.5t-2.5 -4q1 -2 -1 -8.5t-2 -7.5l2 -17l7 -1q0 1 1 2.5
t4 4t7 2.5l13 3q9 9 14 10l16 4l-13 23l-5 11l2.5 -2.5t4.5 -5.5t4.5 -4t3.5 1q1 4 0.5 7.5t-2.5 6.5t-4 4q-3 2 -9.5 -3t-7.5 -11z" />
    <glyph glyph-name="barley" unicode="5" 
d="M368 46q-3 18 5 36q1 5 1 10v8l-1 2q14 -17 19 -30t-2 -29q-1 -3 -2 -7t-1.5 -7t-0.5 -5.5v-4.5v-1q-16 19 -18 28zM373 21q-16 0 -24 -2q-9 1 -20.5 -2.5t-16.5 -3.5q-4 0 -10 3.5t-12 8.5t-11.5 9.5t-9.5 8.5l-3 3q1 0 4 -0.5t11 -1t13 0.5q7 1 15.5 3t9.5 1.5t14 -1.5
q8 -1 16.5 -6.5t12.5 -10.5l4 -5zM326 86q-1 7 -1 11.5t1 7.5t2.5 9t2.5 11t1.5 11t1 8.5t0 5.5t-2.5 7l1 1q13 -14 26 -42l2 -6q1 -4 -3 -35v-27q-26 21 -31 38zM326 62q-11 -1 -20 -4q-32 -5 -48 1q-7 2 -18.5 12t-19.5 18l-9 9q3 -1 6.5 -2.5t16 -3.5t22.5 1q1 0 3.5 1
t4 1.5t4 1t4.5 0.5h5t6.5 -1.5t7.5 -2.5q10 -4 19 -11.5t13 -13.5zM216 107q-9 2 -24 15q-9 5 -19.5 12.5t-19.5 16t-17 17t-15 16.5t-12 14.5t-8 10.5l-3 4q-3 2 -0.5 4.5t4.5 0.5q34 -52 77 -79q16 -3 24 -3q6 1 14 3t11.5 2t14.5 -2q8 -2 15.5 -8.5t11.5 -11.5l4 -5
q-4 -2 -10 -4l-8 -1.5t-13 -2.5t-13 -1t-14 2zM179 155l-8 8q-47 35 -109 127q-1 1 0 2t2 1q2 2 5 0q0 -2 9 -16.5t28 -37.5t38 -41q19 -6 22 -6q5 -1 17 -2t25 -4q6 -2 11 -6t8 -8t5 -8l3 -6v-3l-11 -1q-29 -5 -45 1zM155 205q-7 5 -24 29q-18 15 -40 46.5t-33 50.5t-15 26
q-1 1 2 5q3 0 3 -2l4.5 -8t12 -20.5t16.5 -26.5t20 -29.5t21 -25.5q9 0 27 -4.5t29 -11.5q5 -4 9.5 -9t7 -9.5t4 -8.5t2.5 -6l1 -3q-36 0 -47 7zM141 261q-20 6 -31 24q-2 4 -8 40q-14 21 -30 50t-25 48t-9 20q-1 2 2 5q3 0 3 -2l9.5 -21t25.5 -51.5t31 -50.5q34 -24 37 -32
q2 -7 1 -13.5t-4 -11.5zM462 -37q6 -3 14.5 -3.5t13.5 -0.5l6 1q5 -13 -2 -19q-4 -5 -23.5 3t-28.5 16q-5 4 -13.5 12.5t-14.5 15.5t-7.5 7.5t-5.5 -1.5t-9.5 -4.5t-9.5 -2.5q-31 -5 -60 21q4 1 10.5 1.5t20 1.5t20.5 0l27 -6q-5 13 -5 19q0 8 5 27l5 18q14 -26 14 -37
q0 -5 -2 -12t-4 -12.5t0 -7.5q1 -4 20 -18t29 -19zM162 306q-11 24 -29.5 49t-31.5 38t-15 13q-2 3 0.5 5.5t4.5 -0.5q6 -5 15 -14t29.5 -37.5t32.5 -57.5q22 -22 24 -32q1 -5 -0.5 -13t-3.5 -13l-2 -6q-16 13 -29 16q-4 3 -3 7t3.5 13.5t2.5 13.5q2 5 2 18zM211 270
q-7 19 -21 42.5t-23.5 37t-11.5 15.5q0 3 2 3q2 2 5 0q0 -1 3.5 -5.5t8 -12l10.5 -17.5l12 -20t12 -22t10 -22q8 -16 11 -26q5 -20 1 -32q0 -2 -1 -5t-2 -5l-2 -4t-2 -3h-1q-22 20 -22 36q-1 8 5 22.5t6 17.5zM251 240q-6 20 -14.5 38t-13 25l-4.5 7q0 4 2 5q3 0 5 -1
l6 -11.5t15 -32.5t15 -43l7 -13q1 -2 4 -7t4 -8t2.5 -7t1 -8.5t-2.5 -9.5l-14 -27q-22 21 -24 35q-1 5 0 10.5t2 9t3 9t3 7.5q3 19 3 22zM296 194q-5 13 -13 28.5t-13 24.5t-4 9q0 3 1 5q3 0 5 -2l4 -7.5t10.5 -20t11.5 -23.5l2 -4t4.5 -8t5.5 -10t5.5 -11.5t4 -10.5t2.5 -9
q0 -6 -1 -13t-4 -16.5t-3 -11.5l-2 -16l-3 1l-3.5 2t-7 5t-7.5 7t-6.5 9t-2.5 11q-1 5 0 10t2.5 9t3.5 8l4 8t2 8q2 5 2 18z" />
    <glyph glyph-name="rice" unicode="6" 
d="M510 235q6 -8 -3 -14q-5 -6 -11 3l-11 22q-4 4 0 12q-2 4 -8 14q-8 -5 -13 2l-14 20q-6 8 1 15q-1 1 -2.5 3t-2.5 3q-5 -2 -9 2l-18 17q-3 8 -1 12q-4 0 -5 1l-13 11v-4q-7 -8 -13 -2l-19 16q-6 6 -3 11q-1 0 -2 1l-1 1l-21 11q-5 2 -5 8q-8 4 -18 6q-5 -2 -8 -1l-22 6
l-5 5h-3q-3 -3 -6 -3l-21 3q9 0 6 -11q4 2 7 0l20 -11q0 3 2 4q1 3 5 3.5t6 -1.5l19 -16q4 -3 4 -5l14 -14q5 -6 2 -13l11 -10q5 6 11 0l18 -17q5 -9 0 -15l9 -16q5 -7 -1 -14l-2 -2l5 -9q7 3 9 -5l8 -22q6 0 8 -5l10 -24q5 -8 -3 -13h-5q1 -2 1.5 -6.5t1.5 -6.5q3 0 3 -3
l12 -24v-8q4 -2 4 -6l7 -26q0 -11 -7 -13q-3 -3 -6 0l5 -22q3 -8 -7 -11q-7 0 -9 8l-5 25q-3 8 6 11h5l-6 21v7l-3 3l-12 24q-5 7 4 13q1 1 3 1l-5 15v1l-10 23q-4 0 -8 6l-9 24q-3 6 1 11q-1 5 -4 11q-4 0 -7 4l-14 20q-4 5 -2 10q-1 2 -3.5 6t-4.5 5q-6 -6 -9 0l-16 19
q-5 5 -2 12l-5 6q-9 10 -14 13q-2 0 -3.5 1.5l-3 3t-3.5 1.5q-3 -6 -11 -3l-21 11q-5 3 -5 10q-1 0 -3 0.5t-3 0.5l-19 4l-2 -2l19 -6q4 0 6 -4t1 -8v-1q1 -2 8 -5q5 3 9 -2l18 -17q2 -2 2 -3q3 -2 6 -5l3 3q3 2 6.5 1t4.5 -4l12 -23q1 0 1 -3q1 0 2 -1.5t1.5 -3t1.5 -1.5
q7 3 11 -3l13 -23q2 -3 2 -8q4 2 8 -5l11 -24q1 -4 -2 -11l5 -9q5 0 8 -7l10 -25q0 -5 -2 -8v-2q5 -5 5 -6l6 -26q3 -10 -6 -13q-8 -3 -11 7l-7 25q-2 6 2 10q-4 2 -7 6l-8 26q-2 10 5 13q0 1 -0.5 2.5t-1 2.5l-1.5 3q-9 -3 -11 4l-11 24v7q-6 -3 -8 3l-13 22q-3 6 0 12
q-1 0 -2 2l-1 2q0 -1 -4 -4q-2 -3 -6 -2t-5 5l-11 22q-2 2 -2 7l-3 3q0 -3 -1 -5q-6 -9 -13 -2l-18 18q-6 6 0 13q-1 1 -3.5 2.5t-4.5 2.5q-1 -2 -6 -2l-23 6q-3 0 -5 4t-1 8v1q-10 3 -13 5h-5q-4 0 -8 2q-2 0 -7 1t-7 2q0 -10 -8 -10h-22q-5 0 -8 7q-4 -1 -9.5 -2t-21 -8
t-29 -18t-27 -33.5t-19.5 -52.5q-12 -54 0.5 -107.5t38 -91t52.5 -67.5t45.5 -46t17.5 -18q-17 -14 -36 -17t-29 1l-11 4q-3 3 -9 10t-22 29.5t-29.5 46.5t-27 60t-19 71t-1 78.5t21.5 84.5q12 28 35.5 49t41.5 28l17 7l-1.5 0.5l-3 1t-3.5 1.5t-3.5 3t-2.5 5q-3 11 6 11
l23 5q8 3 11 -8v-2h10q-2 2 -2 3q0 12 6 12l24 6q7 0 10 -8v-3h10q3 0 6 -3t3 -7v-1h2q-2 1 -2 6q3 10 10 10l22 -2q5 0 8 -6h3l23 -4q8 0 8 -8q3 9 9 7l23 -7q3 -1 5 -5t1 -7v-2q3 -1 8.5 -2.5t7.5 -2.5q4 10 11 5l21 -11q8 -3 5 -11q2 0 3 -2v-6q7 -4 8 -5q0 1 1 1.5
t1 1.5q6 9 13 2l17 -16q6 -6 3 -12q1 0 2.5 -1t2.5 -2l18 -17q5 -6 1 -13q1 -2 3.5 -4.5l3.5 -3.5q6 0 8 -3l14 -21q3 -7 2 -10q2 -2 3.5 -4.5t3 -5.5t2.5 -4q10 3 12 -3zM190 406v4q-4 1 -12 1v-1q2 -1 6 -2t6 -2zM173 416q3 0 9 -1t8 -1q4 4 4 5l-15 -1q-3 0 -6 3v-5z
M251 418q-4 0 -6 4q-11 2 -35 2q-3 -5 -7 -5l19 -1q3 4 8 4z" />
    <glyph glyph-name="anolis" unicode="7" 
d="M394 245q50 -38 79.5 -78.5t37 -84.5t-14.5 -87q-13 -26 -41 -37.5t-55 -10t-60.5 10.5t-48.5 14.5t-27 11.5q-2 1 -20.5 9.5t-34.5 15t-38 12t-38 3.5q-7 0 -7 3.5t7 4.5q20 3 46.5 -4t43.5 -15l17 -8q8 -4 21.5 -10t50 -17t66.5 -14.5t60 5.5t42 36q9 23 10 45.5
t-6.5 41t-17 33.5t-22 27t-20.5 18.5t-14 10.5q-20 11 -48 21q-6 -3 -8 -12q-2 -5 -7.5 -11t-10.5 -9l-5 -4q7 -3 13 -9q4 -4 0.5 -8.5t-2.5 -6.5q1 -1 5.5 -2.5t9.5 -3t6 -2.5q10 -5 11 -8q1 -2 -2 -3q-9 -2 -17 2l-16 8q-9 -8 -11 -15q0 -9 8 -22q1 -2 5 -27q3 -22 -2 -26
q-2 -1 -3.5 0.5t-2.5 4.5t-2 3q-2 1 -5 27q-3 27 -9 29q-2 2 -6.5 -2t-11 -11.5t-9.5 -10.5q-6 -5 -8 -2.5t-2 7.5q0 3 7 8t13.5 9.5t6.5 6.5q-1 2 -4 2.5t-6 0t-6 0.5q-9 3 -9 11q0 5 8.5 4t8.5 0q0 3 15 3l4 8q-20 6 -25 9q-8 4 -5 15l24 45q-30 4 -40 4q-4 0 -15 4.5
t-21.5 9.5t-11.5 6l-13 1q19 -16 24 -22t-9 -18q-4 -3 -9.5 -5t-11.5 -3t-7 -1q-4 0 -9 -8q-4 -6 6 -20q9 -15 5 -19q-4 -3 -7 6l-3 5q-9 15 -11 16q-1 1 -7.5 -6.5t-9.5 -12.5q-10 -14 -15 -13q-3 1 -3 3.5t1 4.5l1 2q1 4 9.5 14.5t9.5 12.5t-2 4t-8.5 3.5t-7.5 2.5
q-7 3 -12.5 7.5t-3.5 8.5q1 2 2.5 2t4 -1t4 -2t4 -3t3.5 -3q16 -10 19 -8q1 2 -0.5 5t-5 7.5t-4.5 5.5q-5 12 -1 16q3 1 11 -10q0 4 4 3q2 -2 2 -4l5 -10l18 13q-3 6 -7 8q-16 16 -22 16q-2 0 -11 -6t-19 -13.5t-13 -9.5q-21 -8 -75 -19l-28 -5q-19 2 -22 5v16q0 2 6 9.5
t13 15t8 9t5.5 14t7.5 14.5q2 3 10 3.5t11 3.5q2 2 13 7t23.5 10.5t14.5 6.5l29 17q0 9 11 16q1 2 3.5 6t4.5 8.5l4 9t3 7.5l1 3q-10 27 -14 32q-1 2 -12 0l-11 -2q-3 0 -6.5 2.5t-1.5 4.5q3 3 15 3q7 0 4 6q0 4 -27 15q-3 1 -4 3t1 4t3 2q3 0 16.5 -8.5t15.5 -8.5t2.5 5
t0 13.5t-0.5 10.5q0 11 8 3q2 -2 2.5 -5.5t-0.5 -9.5t-1 -8q0 -8 5 -12q3 -3 15 3q3 1 6 1t2 -3q-2 -2 -6 -4t-7 -3l-3 -1q20 -27 22 -33q2 -4 0 -10t-6 -10l-7 -25q5 2 37 2t42 -2q5 -1 14.5 -5.5t16.5 -8.5l7 -4q-6 15 -8 21q0 9 11 13q2 1 16.5 -1t15.5 -1t1 2t-1.5 5.5
t-2.5 6.5t-3 5q-1 3 -3 5l-3 3t-3.5 2t-3.5 2q-10 7 -6 9q2 1 6.5 -1.5t8.5 -4.5t5 -2q3 1 4.5 3t1.5 7.5t1 7.5q0 2 -0.5 4.5t-1 4.5t-1 3.5t0.5 3t3 1.5q5 2 5 -7v-8v-4q0 -15 2 -16q1 0 5.5 6.5t15.5 17t25 16.5q3 1 6 -1t2 -5.5t-6 -6.5q-35 -17 -43 -33q8 -23 9.5 -26
t26.5 -3q10 -4 6 -9q-2 -1 -6 -1l-20 5q0 -6 -4 -11q0 -1 -3 -2.5t-6 -2.5t-6 -1.5t-5 -1.5h-2l32 -43q14 -13 26 -24zM98 222q3 4 4 5.5t2 4.5t-2.5 6t-11.5 7q-6 2 -16 -8q-5 -4 -4.5 -10.5t7.5 -7.5q15 -2 21 3z" />
    <glyph glyph-name="papio" unicode="8" 
d="M507 365q0 -2 1 -7t2.5 -13.5t1.5 -16.5l-3 -16q1 -22 -2 -38q-4 -22 -22 -36q-26 -25 -27 -28q-10 -20 -20 -24q-1 -2 -3.5 -4.5t-4 -5.5l-3 -6l-2.5 -5l-1 -2q3 -6 3 -81l8 -72q1 -2 3 -5t6.5 -9t6.5 -7q3 -2 8.5 -3t6.5 -2q6 -3 17 -14q1 -1 -0.5 -2.5t-3.5 -3
t-4 -1.5l-19 11q3 -9 3 -11l1.5 -2t2 -3.5t-1.5 -2.5t-6 1t-6 4l-3 2q-9 1 -12 3q-15 9 -16 14q-1 4 -7.5 10.5l-7.5 7.5q-2 3 -5 12t-3 10t-1.5 16.5t-1.5 20.5l-13 58l-6 -10l-21 -51q2 -24 2 -29q0 -1 0.5 -3t2 -3.5t2.5 -3.5t2.5 -4t1.5 -4q1 -1 2 -4.5t1.5 -6t0 -5
t-1.5 -3.5q-3 -1 -24 -1v11l-10 -7q-1 3 -0.5 7t1.5 8l1 5q-7 3 -8 9q-4 13 -3 15q0 1 -5 17q-2 7 8 27q1 2 7.5 25.5t6.5 24.5l8 43h-30q-1 0 -11.5 1.5t-17.5 1.5q-8 0 -21 5t-16 8q-1 2 -5 7.5t-9 12.5t-7 9l-19 32q-8 -35 -9 -45q-6 -32 -18 -69q-1 -2 -1 -10.5
t0.5 -20.5t0.5 -15q-1 -8 -9.5 -34.5t-9.5 -27.5q-2 -3 -1 -8.5t4 -7.5t16.5 -4.5t17.5 -2.5q3 0 16 -6q3 -1 4 -4t-1 -6q-2 -2 -8 -0.5t-10 0.5q-6 -1 -22 0t-19 2h-10.5t-15 -1t-13.5 -1q-8 0 -13 13q-2 8 5 27q3 5 4 20.5t-1 22.5q0 5 2 15.5t4 19.5l2 9q-27 -28 -35 -31
q-5 -2 -18.5 -10.5l-13.5 -8.5q-1 -1 -9.5 -7.5t-9.5 -8.5q-1 -1 2 -5t7 -9t5 -8q7 -13 7 -15q0 -9 -2 -11q-3 -3 -9 3q-6 2 -12 13q0 1 -2 2t-4.5 2.5t-4.5 2.5l-4 2t-2 2q-1 2 -8.5 15.5t-9.5 15.5t-3 8.5t0 10.5q1 3 21 16q2 1 14 11t15 11q3 3 9.5 17t4.5 15q-2 3 -7 13
t-6 16q0 33 11 106q14 87 48 121q7 7 21 12t24 1q6 -2 11 -9t7.5 -13.5t5.5 -14t3 -8.5q5 -12 10 -14q6 -2 48 6q3 1 16 4.5t26 7.5t17 6q6 2 40.5 17t38.5 16q2 1 22 10t26 10q18 6 40 -4q8 -3 22.5 -14.5t15.5 -15.5t2.5 -17.5t0.5 -17.5zM142 334q0 1 -0.5 2.5t-1.5 6.5
t1 9q9 28 0 37q-12 9 -21 0q-6 -6 -19 -31.5t-13 -31.5q0 -2 -8.5 -39t-9.5 -53q0 -13 2 -30.5t4 -27.5l2 -11q7 3 8 14q1 4 2 17t2 24.5t3 16.5q11 40 17 46l7 13q3 21 8 26zM490 333q0 3 -0.5 7t-1 7t-1.5 5.5l-1 2.5l5 8l-22 -1q-18 3 -23 3h-19q1 -1 2.5 -2t3.5 -4.5
t1 -6.5q-1 -2 -5.5 -9.5t-2.5 -12.5q0 -3 1.5 -5t3 -3.5t3 -2.5t2.5 -2h1q-1 -1 -1.5 -2.5t-1.5 -5.5t-1.5 -7.5t-0.5 -7.5t2 -8q1 -5 7.5 -13t11.5 -9q12 -3 19 6l8 18v27q0 2 4.5 8t5.5 10zM462 288l4 -2h-7q-1 0 -2 2t1 3zM472 285q3 3 5 3q1 0 2 -2t-1 -3z" />
    <glyph glyph-name="monodelphis" unicode="9" 
d="M501 141q12 -5 8 -11q0 -5 -11 0q-4 1 -12.5 1.5t-16 0.5t-15 -0.5t-8.5 -0.5q-11 0 -43 -8q-9 -3 -26.5 -4t-27.5 1q-4 1 -12 5t-11 5q0 -8 -16 -18q-4 -2 -13 -3t-11 -2q-4 0 4 -8q0 -5 -4 -9q-1 -3 -5 -5t-7 -2l-4 -1q-4 -4 -9 -4l-2 5h-8q-5 -3 -8 -5q-3 1 -1 7
q-5 -5 -7 -5l-1 3q0 2 1 5q1 4 15 8q2 1 6 1t6 1q3 0 4 3t1 5v3q-11 3 -17.5 6t-20.5 3q-1 0 -2.5 -2t-3.5 -4.5t-4.5 -5t-5.5 -4.5q-2 -1 -4.5 -2t-4.5 -1h-4h-4h-1q-6 3 -14 -1q-4 -3 -8.5 -4t-7.5 -1h-3q-13 -5 -23 -10l-14 -5q-15 -3 -19 -3l-5 5q-11 -3 -16 -3
q-2 1 3 8q4 8 13 5q5 -2 13 3l14 14q-13 19 -16 23q-9 8 -26 14h-67q-13 3 -17 3q-3 0 -3 2.5v4.5l1 3q21 24 26 30q-5 3 -5 10q0 5 3.5 9t9.5 4h1q1 1 2.5 6t2.5 6l10 18q-10 19 -13 24q-1 4 2 16t6 13q1 0 3 -3.5t4 -10t4 -9.5l13 -14h19q10 24 18 30q12 9 28 -9
q5 -7 7 -13.5t1 -10.5l-1 -3q11 4 16 11q7 10 30 19q7 2 29 0.5t32 -3.5q6 -2 14.5 -6.5t18 -11.5t15.5 -14t12.5 -21.5t10.5 -27t4 -15.5l1 -4.5t1 -8.5q8 -11 19 -19q15 -11 46 -11q4 0 55 6q37 4 56 -3zM73.5 170q7.5 0 12.5 5t5 12t-5 12.5t-12.5 5.5t-12.5 -5.5
t-5 -12.5t5 -12t12.5 -5z" />
    <glyph glyph-name="plasmodium" unicode="@" 
d="M206 141q-42 17 -47 19q-32 12 -80 10h-10q-43 5 -52 36q-7 22 3.5 40t24.5 26q37 21 103 12q87 -11 147 -64q55 -47 40 -83q-9 -22 -41 -22h-1q-15 0 -29 4q-11 2 -58 22zM79 184h-1q18 3 19 4h1q34 0 66 -12q33 -14 48 -21q8 -3 24.5 -12.5t28.5 -11.5q52 -10 60 11
q11 26 -39 70q-1 1 -9.5 9t-15 13t-19 12.5t-26.5 12.5q4 -4 6 -4q3 0 5.5 -4t6.5 -4q3 -1 4.5 -3t1.5 -5v-2q19 -7 21 -19q1 -5 -4 -2q-2 1 -5 4q-8 6 -12 8q-5 2 -6 5t-5 3q-8 1 -8 11q-3 -1 -13 3q-10 6 -5 14q-8 3 -23 6q0 -6 -3.5 -11.5t-7.5 -5.5q-6 0 -2 18
q-1 0 -3 0.5t-4 0.5q-4 -23 -6 -27q-2 -10 -9 -1l-3 9q-3 10 10 20l-16 3h-5q5 -3 2 -11q-2 -8 -4.5 -10t-9.5 -2q-6 2 6 15l-11 -5q-3 -1 -4 -2q-1 0 -2 -1q-2 -2 -4 -1.5t-4 4.5t3 7.5t11 5.5q-31 0 -62 -16q-35 -17 -26 -52q1 -4 3.5 -7.5t5 -5.5t6 -4t6.5 -3t7 -2t6 -1
t6 -0.5l4 -0.5h9zM99 243q13 -1 1 -15l-10 -8q-8 -4 -7 5l2 9q2 2 3.5 4t3.5 3t3.5 1.5t2.5 0.5h1zM119.5 206.5q-0.5 4.5 6.5 5t13 -3.5q7 -4 6 -11.5t-9 -10.5q-7 -3 -7 4q1 8 4 10q1 0 0 1h-3q-10 1 -10.5 5.5zM174 194q-2 -9 -11 -12q-5 -2 -6 0t1 7q1 2 1.5 3.5
l1.5 4.5l1.5 4.5t3 3t6.5 -0.5q4 -1 4.5 -3.5t-0.5 -4.5zM181 211q-5 -5 -9 1q-9 19 0 29q3 2 5 -1t3 -7l1 -3q2 9 7 18q4 7 5 -5l1 -6l13 3q7 -5 -6 -22q2 2 3.5 4t6.5 5t7 -3q2 -2 1.5 -4t-2.5 -3.5t-4.5 -2.5t-4.5 -2h-2q4 -12 10 -21q4 -6 1.5 -11.5t-9.5 -2.5
q-5 2 -5 12q-1 -3 -3.5 -5t-5 -4.5l-4.5 -4.5q-4 -9 -10 0l9 9q-1 1 -1.5 2.5t-1 6t1.5 8.5q1 5 4 7t3 5t-1.5 6t-3.5 5l-1 2q-5 -11 -8 -15zM235 165q-4 -2 -9 5t-7.5 16t-1.5 12q1 2 2.5 2.5t3.5 0t5.5 -2t5.5 -2.5l4 -4l15 4q1 2 1.5 4t4.5 5t9 2q11 -1 -7 -17
q10 -12 10 -24t-13 1q-4 4 -5 7q-2 3 -2.5 6.5t0.5 4.5l1 2l-10 -3q1 -17 -7 -19zM449 346q6 -4 15.5 -11.5t20.5 -22t14 -30.5t-4 -36q-4 -10 -14 -18q-33 -28 -94 8q-15 9 -37 17t-37 11l-15 4q-1 0 -27 7t-43.5 14.5t-30.5 17.5q-21 17 -21 40t22 43q19 19 77 17l11 -2
q30 -1 63 -13.5t100 -45.5zM481 255q22 38 -36 78q-78 55 -165 59l-15 1q-12 1 -23.5 -0.5t-25 -5.5t-21.5 -14.5t-8 -25.5q0 -5 7.5 -15t13.5 -15q22 -17 86 -31.5l64 -14.5q6 -3 18 -8t14 -6q6 -2 21 -11t24.5 -13t22.5 0.5t23 21.5zM271 340v-7t0.5 -10.5t-1 -10.5
t-5.5 -6q-2 0 -3.5 1t-2.5 3t-1.5 4t-0.5 6v6v5.5v4.5q0 22 18 22q13 1 -4 -18zM311 311q1 -2 3.5 -4t5.5 -8.5t1 -11.5q-5 -12 -21 16q-5 -9 -14 -14q-8 -5 -9 8q0 5 1 10t5 8.5t7 4.5l3 1q-2 4 -1.5 6.5t1.5 2.5h1q-13 -2 -18 4q-3 4 1.5 8.5t9.5 3.5l5 -6q4 5 18 5
q6 0 7.5 -3.5t0 -8t0.5 -8.5q2 -3 0 -7t-5 -5zM330 305q10 4 17 -6q10 -14 -7 -14q-3 0 -5.5 2t-3 5l-1 6t-0.5 5v2zM440 323q4 -3 6.5 -5t4 -4t1.5 -4.5t0.5 -3t-1 -3.5t-2 -3.5t-3 -3.5l-2.5 -3q-4 -2 -6 -2t-7.5 4.5t-8.5 7t-7.5 7.5t-5.5 7q-7 7 -31 -7q-13 -8 -10 -27
q2 -10 9 9q2 3 3 7q1 3 2.5 3.5t4 -1t4.5 -3t4 -4t3 -3t5 -1.5t8 -2.5t8 -5t6 -8.5q3 -14 -38 4l-1 -1.5t-2.5 -5t0.5 -6.5q2 -5 -3 -3l-8 4q-9 4 -12 5q-5 2 -5.5 4.5t1 7.5t1.5 7q0 10 8 22q4 6 8 9t11 6.5t10 5.5q16 8 45 -10zM358 352q12 8 13 -2q1 -7 -5 -12
q-2 -2 -5.5 -4.5t-5.5 -3.5t-3.5 -3t-2.5 -4q-2 -6 -9.5 -6.5t-7.5 6.5q0 4 1 7t4 6t5 4.5t7 5t9 6.5zM300 354q-13 1 -13 7t7 15q4 9 6 4t6 -3q5 2 3 -7l-2 -7q1 0 3 1t8 2t11 -2q10 -5 -8 -9q-11 -2 -21 -1zM352 114q13 5 19.5 7t20 -1t23.5 -15q20 -25 -7 -57l-13 -13
q-12 -12 -101 -52q-21 -10 -40 -9.5t-27.5 4.5t-25.5 14l-6 5q-7 4 -14 9t-11.5 9t-11 11t-9 10t-10 11t-8.5 10q-22 23 -21 44q0 16 17 26q6 4 11 4.5t10 -2t9.5 -5t10.5 -7t11 -7.5q16 -9 31 -15q14 -6 68 -6h1q9 -1 19.5 2t18 7t16.5 8t13 6zM389 46q15 14 19.5 27.5
t-3.5 20.5q-15 20 -41 8l-17 -7q-3 -2 -14.5 -8t-22.5 -10t-23 -4l-2 -6q1 0 2 1t4.5 1.5t8.5 -2.5q6 -3 3.5 -12.5t-9.5 -11.5q-3 -1 -5.5 0t-3 3t-1.5 4.5t-1 3.5v1v-2.5t-2.5 -4t-6.5 -1.5t-5 4.5t1 6.5l1 3q-4 -8 -18 -10q-9 -1 -4 7q1 2 12 14q2 1 4 0.5t3 -3.5l1 -2
q2 4 7 7q-50 0 -70 8q-13 4 -34 17q-28 17 -35 12q-2 -1 -4 -2.5t-3 -8.5q-3 -17 12 -33q30 -34 61 -53l7 -5q10 -6 16 -9t16 -6t20 -1.5t22 6.5q4 2 13 6t13 5q-2 1 -3.5 2t-3.5 2.5t-3 1.5q-6 3 -4.5 10t9.5 9q4 1 5.5 -3t0.5 -7.5t1 -3.5q2 1 4 4.5t3 7.5l1 4
q-1 0 -2.5 1.5t-4 5.5t-2.5 8q2 8 8 -1q-7 7 -4 15q2 3 4.5 2t4.5 -4l2 -3q-6 9 3 12q3 2 5.5 -1.5t2.5 -8.5v-4q2 -1 4.5 -3.5t6 -7.5t1.5 -9q-4 -6 -15 8q5 -9 5 -17q-1 -11 -12 2q1 -9 -3 -17q57 24 65 31zM265 35q6 -2 6 -6.5t-2 -7.5l-3 -4v-3.5t-1.5 -6t-5.5 -3.5
q-1 1 -3 2.5t-3.5 3t-2.5 3.5t-1 4l-1 1q5 -16 -4 -16q-4 0 -5.5 4t-1.5 8v4q-7 -5 -8 -9t-18 11q-9 6 -7 18q2 4 5 2t6 -7l10 -8q-3 12 6 12q-4 2 -7 18q0 7 5 8.5t9 -2.5q2 -2 1.5 -4t-1.5 -4l-2 -2q9 -8 0 -13q0 -1 -1 -1q3 -1 6 -3.5t3.5 -2.5t2.5 1q3 8 18 3z" />
    <glyph glyph-name="cat" unicode="A" 
d="M435 -44.5q0 -1.5 1 -3.5q0 -2 -0.5 -3t-2.5 -3q-3 -1 -7 -1.5t-7 -2.5h-15q-2 0 -9.5 -1t-11.5 -1t-16 5q-2 1 -3 5l-2 8v4l-1 -12q0 -2 -1.5 -4t-2.5 -4l-2 -1q-7 -3 -12 -5q-2 -2 -5.5 -1.5t-6.5 1.5l-2 1q-8 0 -14 -1l-9 1l-12 3l-11 4q-4 -2 -10 -3q-3 0 -9 2.5
t-10 4.5l-5 3q-17 -1 -20 -2q-2 -1 -12.5 0t-12.5 2h-22.5h-24.5q-1 1 -10 1.5t-17.5 1.5t-10.5 2q-5 2 -25 2q-19 0 -19 1q-1 4 7 12q1 1 3.5 3t5 3.5t5.5 3t4 2.5q3 2 22 5q5 1 38 -2q26 -3 27 -3q3 0 8.5 3t8.5 5l4 3l-4 11q-12 19 -15 26q-6 15 -6 23q1 5 10 24
q2 3 5 11t6 15.5t4 9.5l10 15.5t13 19.5q9 12 28 53q4 9 -1 26q-2 8 -4 38l3 23q-3 15 -4 24v22l2 14q0 2 -2.5 10.5t-2.5 10.5q-1 11 -8 18q-4 4 -5 27q0 5 1 8t2 3h1q9 -1 14 -2q7 -2 29 -23q5 -5 14 -5q16 0 23 3l15 3q3 0 5.5 1t4 2.5t3 3.5t2.5 4l2 4t1 3q9 18 15 23
l11 5q3 0 8 -11q2 -7 1.5 -16t-1.5 -17l-1 -9q4 -15 6 -22l5 -21q10 -26 11 -33q0 -4 6.5 -28t7.5 -31q0 -2 0.5 -5.5t0.5 -7.5t-0.5 -8.5t-0.5 -8v-6.5t-1 -4v-2q-3 -14 -4 -26l-1 -38q4 -10 6 -18q4 -17 3 -26q-1 -5 1.5 -22.5t2.5 -19.5q1 -21 -3 -39q-3 -8 -6.5 -16
t-8 -15t-4.5 -8q-1 -2 -4 -4t-3 -4q0 -3 2 -5t5 -2h2q10 -7 14 -7q1 0 2.5 -1t3 -2.5t2.5 -3l2 -3t1 -3zM315 338q0 7 -5 9q-4 2 -11 2q-2 0 -4 -1.5t-2 -2.5l-1 -1q5 -7 9 -8h10q3 0 4 2zM361 345q2 1 3.5 3.5t2.5 4.5l1 2q-1 0 -1.5 1t-3 1.5t-4.5 0.5q-6 -1 -10 -4
q-2 -2 -2.5 -4.5t-0.5 -4.5l1 -1l4 -1q6 0 10 2z" />
    <glyph glyph-name="brassica" unicode="B" 
d="M427 48q16 -7 12 -21q-4 -18 -36 -4l-6 3q-80 40 -122 30q-5 -2 -7 -9q-1 -2 1 -6.5t5 -9.5t3 -7q1 0 4 -6.5t4.5 -11.5t3 -13.5t-0.5 -13.5q-4 -12 -17 -15.5t-30 8.5q-7 5 -8 15t2 17l2 7l13 30q1 6 -2 5q-1 0 -2 -1q-12 -8 -18 -15t-8.5 -12.5t-9.5 -21t-17 -33.5
q-11 -18 -25.5 -19.5t-23 9.5t-5.5 24q3 7 6.5 13.5t6.5 10.5t8.5 8.5t8 6.5t9.5 6l7 4q8 5 17 9.5t17 7t14 4l10 2.5l4 1l-2.5 3t-4 3.5t-8.5 2t-19 1.5q-32 2 -95 -16q-3 -1 -12.5 -4.5t-18 -6.5t-17 -5t-13 0t-4.5 9q2 10 13 18.5t31.5 14.5t49.5 8q51 4 96 -18v-1h3
q0 3 -1 7q-4 19 0 24h11l2 65q-14 16 -23 16q-4 0 -8 -2t-5 -3t-5 1q-2 3 0 6t8 5.5t12 3.5q13 0 21 -20q0 25 1 49.5t1.5 37t0.5 14.5q0 3 -5 8.5t-4 9.5q3 13 -3 23q-1 2 -4 11.5t-5 11.5l-3 3l-3.5 3.5t-3 2.5t-2.5 2v2l-8 2l-7 6q-2 3 1 5q6 4 13 -12q5 -5 8 -5q1 0 2 2
q1 -4 3 -6q5 -4 10 -18l6 -18q-5 -19 0 -20q3 -1 4 0.5t1 5v4.5t-1 7.5t-2 13.5t-1.5 14t-0.5 8q2 3 3.5 13t1.5 11v30q0 2 -11 5h11l-5 17q2 1 3 -3l2 -4l1 -5l1 12l-2 29l-1 -1q-5 -2 -2 9l2 6l1 -14l4 -14l4 13q4 -2 2 -6t-6 -9q2 -6 3 -13q0 -6 -4 -19l1 -1h7q0 2 3 3.5
t7 2.5h4q1 -6 -8 -8q1 -2 -2 -5t-6 -1t-4 -2v-5l-1 -23q-1 -2 -2 -4.5t-2.5 -8.5t-0.5 -9l3 -24q11 9 11 14l4 17h3l7 14l2 2t3.5 3t4.5 0q3 -3 -7 -10l-8 -9q1 0 1 -1q0 -2 -1 -3l2 2l2.5 2.5t5 3.5t5.5 1q3 -2 -13 -11l-4 -2q-2 -3 -2 -5q-2 -12 -5 -14q-9 -8 -9 -11
l-1 -9t-1 -11t1.5 -6t1.5 -7v-7v-11.5v-14.5l6 8q8 10 18 10q9 0 6 -8q-1 -4 -7.5 -4t-7.5 -1q-6 -2 -15 -8q-4 -3 -2.5 -19.5l1.5 -16.5q-2 -15 -2 -28q7 15 14 23t21 12t18 0q6 -6 -5 -8q-20 -4 -25 -7q-12 -8 -24 -25q0 -36 1 -41v-29q2 5 8 0q2 -2 2.5 -4.5t0.5 -4
t-1 -4.5t-1 -4l-2 -9q34 10 79 6.5t78 -18.5zM236 350q2 -8 1 -12q-1 5 -2 11l-8 13q10 0 9 -12zM222 350l-2 -8l-17 -2q-3 2 3 6q-2 4 -5 6q-1 2 2 3q3 3 4 3q-5 6 3 8l5 -4l7 4v-16zM253 389l3 -2l-3 -6h-13v5q-8 0 -8 3l7 3q-4 2 -5 4l8 2l5 4q1 0 2.5 -3.5t2.5 -6.5z
M267 426q13 -5 16 0l-3 7l4 6h-6l-3 6q-2 0 -3 -1.5t-2 -3.5v-1l-5 -4v-5t2 -4zM294 366q-4 -10 -5 -13l2 -9q15 -1 17 0v6q1 1 2.5 2t3 3t0.5 4t-3 2.5t-3 0.5h-2q-1 1 3 8q-2 0 -4 -1.5t-4 -4.5l-1 -2q-1 -1 -6 4z" />
    <glyph glyph-name="cow" unicode="C" 
d="M510 264q6 -8 -1 -21q-1 -5 -2 -16.5t-2 -16.5q-1 -9 -6 -38q-1 -2 0 -18q-3 -19 -2 -27q4 -9 4 -30q-2 -10 -6 -18q-7 -6 -5 -24q0 -3 1.5 -6t1.5 -5q-3 0 -4 3q1 -8 -4 -14q-1 -1 -1 0t1 2q1 6 0 8l-1 -1q-3 -5 -5 -6l-6 -2l1 1q6 7 6 16q-1 3 -4 11v3l-1 2v-4
q-4 -4 -5 -19q0 -3 -1.5 -13t0.5 -12q3 -3 -2 -6q-2 0 -5 1q-1 -1 -2 -3t-1 -4t-1 -4t-3 -3l-11 -2q-1 0 -5.5 -0.5t-8 0t-2.5 3.5q-1 1 1 3t5 4t4 4q3 1 8 11q6 11 6 20q5 22 3 33q-1 13 -5 17q-1 -3 -5 -8q-3 -3 -9 -13q-3 -8 -7 -13q-1 -1 -4.5 -5t-4.5 -8q-6 -8 -9 -11
v-3.5t-0.5 -4l-1 -3t-1.5 -2.5t-3.5 -1t-4 -1t-2.5 -3q3 -14 -28 -11q-7 2 4 8q1 1 4 4.5l6 7t4 5.5q3 9 9 17q4 3 7 11q1 1 3.5 5.5t2.5 5.5q1 3 6 14q3 12 0 17q-1 1 -3.5 2.5t-3.5 2.5h-4.5t-10 3.5t-7.5 12.5q-3 1 -5 3.5t-4 3.5q-3 4 -9 8q0 2 -7.5 0.5l-7.5 -1.5h-32
q-4 0 -13 0.5t-13 0.5q-8 3 -34 2q-2 0 -7.5 -0.5t-7.5 -2.5q0 -5 -2 -13t-2 -13q4 -2 1 -20q-2 -2 0 -11.5t2 -10.5q1 -2 1 -6t0.5 -7.5t1.5 -5.5q1 -1 1 -4.5t2 -4.5q1 -4 0 -4.5t-3 -0.5q-2 1 -3.5 0.5t-1.5 -1.5q2 -3 1.5 -8t-3.5 -8q-1 0 -2 -1.5t-2 -2t-5 -0.5
q-4 -2 -12 -1t-7 7l5 5l5 5q4 9 6 10q-1 11 -2 26q0 3 -0.5 5t-1.5 4.5t-1 4.5q0 -4 -3 -11.5t-2 -12.5v-12.5v-11.5q-4 -2 -8 -3q1 -13 -3 -13q-7 -6 -21 -4l-3.5 0.5t-4.5 1.5t0 3t4 5l4 4q6 3 9 14q4 4 6 25q2 7 -1 22.5t0 22.5q3 14 -1 14q-6 -1 -26 4q-4 0 -15 5
q-5 4 -7 8q-1 2 -2 10t-3 10q-1 8 -5 10q-7 6 -10 10q-4 2 -6 12q-2 6 -6 10q-20 21 -22 25q-2 2 -10 7q-3 0 -11.5 1t-12.5 1q-6 1 -15 -0.5t-14 -0.5q-2 1 -4.5 0.5t-3.5 -1t-2.5 -2.5t-2.5 -3q-5 -2 -13 6q-9 8 -10 9q-2 10 10 16q1 1 5.5 6.5t5.5 8.5q1 1 6.5 7.5
t7.5 10.5q3 3 4 15q-1 1 -5 1.5t-6.5 2t-2.5 3.5q-3 3 -1 7t6 5q13 6 23 -2q1 -1 3 -0.5t2 2.5q-15 8 -17 12q-6 7 -1 10q2 -1 7 -5t7 -5l8 -4q2 -2 4 -0.5t4 0.5q1 -2 6.5 -1.5t6.5 0.5t3 -2l1 1q0 2 -2.5 6t-2.5 6q-4 7 3 10q5 -7 9 -12q9 -8 7 -15q0 -3 2 -1q1 0 1.5 0.5
t1.5 0.5q8 -6 7 -14q1 0 20 -4q19 -6 34 -5q7 -1 26 4q12 3 18 2q7 0 16 -2.5t11 -2.5q6 -2 13.5 -3t17 -1.5t14.5 -0.5q9 -1 24.5 -3t23.5 -2q7 1 18.5 1.5t15.5 0.5q3 0 6 0.5l6 1t6 0.5t6 0.5l6 1t6 0.5q3 2 10.5 3t9.5 1q4 2 13 -0.5t10 -2.5q2 -1 25 -7q2 0 6 -1t7 -2
t5 -2t5 -3.5l3 -2.5q5 -5 8 -11q3 -3 7 -11zM490 171q0 1 2 13.5t2.5 18t-0.5 14.5q-3 -17 -5 -21q-11 -20 -11 -23q-1 -16 -3 -21q-3 -8 -1 -17l10 -26l3 18q0 2 0.5 6t1.5 8l1.5 6t0 6.5t-1 8.5t0.5 9z" />
    <glyph glyph-name="dolphin" unicode="D" 
d="M454 360q17 -11 10 -21q-1 -3 -5 -3.5t-11.5 0t-8.5 0.5q-60 1 -80 -4q-25 -5 -39 -18q-20 -34 -38 -49h-20q-3 23 -3 25q-50 -10 -83.5 -51t-30.5 -92q0 -5 2 -32t2 -42q5 -28 20 -30q19 -2 34 -10l11 -14q-16 0 -22 -3q-5 -2 -8 -3.5t-8.5 -4t-8.5 -3.5q-2 0 -4.5 0.5
t-4 -1t-0.5 -5.5q1 -13 -21 -35q-10 -10 -15 -20q-1 -3 -3 -5l-3 -3h-1q-9 9 -10 23q-2 18 12 53q3 10 6 28q-7 24 -26 47q-7 8 -11.5 17t-7 20.5t-3.5 19t-1.5 22.5t-1.5 20q-7 82 22 145q0 1 3 10q9 24 1.5 35.5t-33.5 15.5q-1 0 -5 -0.5t-6 0.5t-3 4q-1 7 11 13
q25 13 62 8q31 -5 73 11q82 31 141 13q66 -19 97 -67q1 -2 3.5 -4t5 -3.5t5.5 -3t5 -3.5z" />
    <glyph glyph-name="pufferfish" unicode="E" 
d="M512 233q1 -6 -2.5 -13.5t-7.5 -14t-4.5 -8.5t4.5 -16.5t3 -24.5q-1 -7 -8 -16.5t-15 -16t-11 -6.5q-4 0 -33 26t-30 26q-12 6 -27 7l-20 -2q13 -12 18 -19q7 -12 2 -30q-3 -6 -12 -18.5t-13 -14.5q-2 -1 -5.5 0t-7.5 3t-7.5 4.5t-4.5 4.5q-2 3 -4.5 11.5t-3.5 15.5l-2 7
l-11 -3q-38 -25 -65 -32q-32 -9 -106 2q-6 1 -25.5 5.5t-36.5 9.5t-18 6t-9.5 3t-18 4.5t-11.5 2.5q-16 6 -17 10q-1 2 -1 4.5t1 3.5l1 1q-1 2 -1.5 4t-1.5 7t-1 8q2 8 16 16q2 2 8.5 9.5t8.5 10.5t4 26q3 19 18 24q6 2 34 2q2 0 7 1t11.5 3t11.5 2q2 0 13 1.5t19.5 2
t21 0.5t22.5 -2q13 -3 34 -9t36 -10l14 -5q2 2 5 47q0 10 11 11t19 -2q13 -1 30 -31q4 -7 4.5 -17.5t-2.5 -12.5q-2 -2 -4 -5t-3 -6l-1 -2q19 -9 23 -11t21.5 -4.5t22 -1t18 13.5t17.5 17q7 8 21 15t20 7q5 1 17.5 -11t13.5 -20zM62.5 211q6.5 0 11.5 6t5 14q0 5 -2.5 9.5
t-6 7t-8 2.5t-8 -2.5t-5.5 -7t-2 -9.5q0 -8 4.5 -14t11 -6z" />
    <glyph glyph-name="fly" unicode="F" 
d="M449 138q8 -8 13 -12.5t14 -13.5t14 -16t11 -17t8.5 -18t2.5 -18t-4 -19q-10 -24 -30 -31q-7 -3 -16 -3q-24 0 -58 19q-32 18 -68 56q4 -8 7 -17q11 -33 13 -36q1 -2 9.5 -17.5t9.5 -16.5q2 -2 0 -3.5t-4 1.5q-6 8 -12 15.5t-9 11t-4 7.5l-9 28q-8 9 -11 15q-1 2 -2 7.5
t-2.5 13t-2.5 11.5q-8 10 -12 18q-7 -24 -13 -33q-16 -25 -28 -26q-3 -1 -10 -1t-10 1q-12 1 -28 26q-6 9 -13 33q-4 -8 -12 -18q-1 -5 -3.5 -17t-3.5 -15l-11 -15q-7 -21 -9 -28q-1 -4 -4 -7.5t-9 -11t-12 -15.5q-2 -3 -4 -1.5t0 3.5q1 1 9.5 16.5t9.5 17.5q2 3 13 36
q2 6 7 17q-36 -38 -68 -56q-34 -19 -58 -19q-8 0 -16 3q-10 3 -17.5 11t-12.5 20q-3 8 -4 16.5t1.5 16.5t5.5 15.5t9 15.5t11 14t12.5 14t12 11.5t11.5 10.5q8 8 11 10q14 14 71 58q-8 0 -12 1q-1 0 -3 1.5t-4.5 3.5t-4.5 4.5t-3.5 4.5t-2.5 4t-3.5 3.5t-5.5 3t-4 2.5
q-4 3 0 4h5q5 -2 18 -11.5l13 -9.5q1 -1 3.5 -1h5h5.5h5q16 12 37 28v6l-2 22q-6 8 -12 9q-3 1 -10 18q-1 4 -1.5 8.5t-1 8t-1.5 5.5t-1 6t1 7v3q-5 3 -9 11q-10 22 -42 53q-3 4 -1.5 6t5.5 0q3 -1 15 -13.5t23 -25.5t11 -14t4 -6.5t4 -10.5q1 -3 3.5 -11t4.5 -16t3 -9
q0 -1 3 -2.5t7 -2.5l3 -1v7q-2 2 -3 7q-1 6 -1 10t3 9t5.5 7.5t6 5.5t3.5 4q2 2 9 3q-8 6 -12 10q-5 6 -10 15q-1 3 0 4.5t3 2.5l2 1q13 -13 13 -20q0 -5 10 -10q5 3 9 3l16 -1h1h1h1l17 1q5 -1 9 -3q10 5 10 10q0 3 3.5 8t6.5 8l3 4q1 0 2.5 -1t2.5 -2.5t0 -4.5
q-5 -9 -10 -15q-4 -4 -12 -9q7 -2 9 -4q1 -1 3 -2.5t3.5 -3.5t4 -4.5t4 -5.5l3 -6t1.5 -6.5t-1 -7.5q-2 -5 -4 -8v-6q13 4 13 6q1 1 3 9t4.5 16t3.5 11q0 5 4 10.5t4 6.5q1 3 23 27.5t26 25.5q4 2 5.5 0t-1.5 -6q-32 -31 -42 -53q-2 -4 -4 -6.5t-4 -3.5l-1 -1q3 -11 0 -16
q-2 -2 -2.5 -9.5t-1.5 -12.5q-6 -17 -10 -18q-3 -1 -6 -3t-4 -4l-2 -2q-2 -20 -2 -22v-6q18 -14 37 -28h6.5h7t5 0.5t8 5.5t13.5 9.5t10 6.5q6 3 7 -1q0 -2 -2 -3q-1 -1 -4 -2.5t-5.5 -3t-3.5 -3.5q-2 -4 -8.5 -10.5t-9.5 -7.5q-4 -1 -12 -1q57 -44 71 -58q3 -3 11 -10z
M426 142q-10 10 -41.5 35t-55.5 44t-28 22l-4 -2q129 -126 144 -137q35 -25 46 -36q10 -11 20 -21q-1 9 -6 18.5t-14 19.5t-16 17t-19 17.5t-15 12.5q-8 7 -11 10zM297 127q-10 -2 -41 -1q-31 -1 -41 1q-1 -5 -3 -10q16 -11 27 -12h5h2l7 2q1 -1 3 -1l3 1q4 -1 7 -2h2h5
q11 1 27 12q-2 5 -3 10zM206 304l-2 -8q5 -16 52 -14.5t52 14.5q0 1 -2 8q-17 10 -19 13q0 1 -3.5 5.5t-6 9.5t-1.5 10q-9 3 -16 2q-2 -2 -5 0q-3 -2 -4 0q-6 1 -14 -2q1 -3 -0.5 -7.5t-4 -7.5l-5 -6t-2.5 -4q-2 -3 -19 -13zM71 129q-3 -2 -15 -12.5t-17.5 -16.5
t-14.5 -15.5t-13.5 -19t-5.5 -18.5q14 15 19 20q11 11 46 36q15 11 145 138l-4 2q-4 -3 -29.5 -22.5t-58 -45.5t-42.5 -36q-2 -3 -10 -10zM8 29q3 -9 12 -18q5 8 9 13q6 8 30 30q2 1 24 19t24 21q21 24 22 27q3 5 0 14t-7 9q-1 0 -11.5 -9.5t-22 -20.5t-14.5 -14
q-2 -1 -9.5 -7t-14 -11.5t-13 -10.5t-8.5 -6q-5 -3 -24 -24q1 -6 3 -12zM198 128q18 51 21 73q0 4 1 9q0 2 0.5 5t1 5t0.5 5t-1 6.5t-3 5.5q-3 -4 -8 -8q-4 -4 -16.5 -17.5t-14.5 -14.5q-4 -4 -1 -15q0 -2 -5 -21q-5 -16 -22 -39q-15 -22 -27 -33q-1 -2 -9.5 -11.5
t-13.5 -13.5q-9 -8 -11 -8l-4 -2l2 3l8.5 8.5l14 14l10.5 10.5q4 4 14 17t10 14q11 12 20 35q8 20 8 23q-3 10 -4 10q-3 0 -17 -15.5t-17 -21.5q-4 -7 -1 -11q1 -1 2 -1q3 -4 -3 -23q-4 -11 -22 -24q-3 -2 -23 -19t-23 -19t-16 -15.5t-16 -16.5q-6 -5 -10 -15q3 -2 6 -3
t7 -1.5t6 -1.5q12 -4 29 0q2 3 10.5 9t10.5 9q26 32 34 38q3 2 33 33q-2 -5 -16.5 -20t-14.5 -16q-2 -3 -16 -19.5t-17 -19.5l-6 -6q11 4 22 10q25 14 52 49.5t35 58.5zM279 77q9 8 24 31l-1 2q-2 -3 -6.5 -7t-17 -9t-22.5 -1q-10 -4 -21.5 0.5t-18.5 10.5l-6 6l-1 -2
q16 -23 24 -31q5 -5 20 -1h6q15 -4 20 1zM468 -1q13 2 20 8q-4 12 -10 17q-3 2 -10 9.5t-13 14t-9 8.5q-3 1 -23 18.5t-23 19.5q-18 13 -22 24q-6 19 -3 23l1 1q2 2 2.5 3.5t-2.5 7.5q-2 4 -10 13t-15 16.5t-9 7.5q-2 1 -3 -6q0 -3 -1 -4q0 -3 8 -23q9 -23 19 -35
q1 -1 10.5 -14t14.5 -18q2 -2 10 -9.5t14.5 -14l8.5 -8.5t2 -3l-5 1q-1 1 -10 9q-5 4 -13.5 13.5t-10.5 11.5q-11 11 -26 32q-17 24 -22 40q-6 19 -5 21q3 11 -2 15q-1 1 -13.5 14.5t-16.5 16.5l-8 8q-3 -6 -1 -27q1 -4 1 -9q3 -25 21 -75q8 -23 34 -57t52 -48q10 -6 20 -10
q-1 1 -2 3t-2 3q-3 3 -17.5 19.5t-15.5 19.5q-1 1 -15 15.5t-16 19.5q30 -31 32 -33q10 -6 35 -38q5 -6 17 -18q21 -5 32 -3zM492 11q8 9 12 17q2 6 3 12q-19 23 -25 26q-2 1 -11.5 8.5t-20 16t-13.5 10.5q-3 3 -14.5 13.5t-22 20t-11.5 10.5q-4 0 -7 -9t0 -14q1 -4 21 -27
q3 -3 25 -21t24 -20q24 -21 30 -30q5 -6 10 -13zM159 91q2 6 5 7l-1 -3zM348 96l-1 2q3 -1 5 -6v-1q-3 4 -4 5z" />
    <glyph glyph-name="gorilla" unicode="G" 
d="M449 1q5 -4 3 -8l-5 -2l3 -6q1 -6 -3 -6q-8 -2 -16 2q-12 7 -23 14q-14 4 -28 5q-5 1 -9 -1t-5 -2t-6 3q-3 3 0.5 8t9 11.5t5.5 12.5q0 17 -12 33q-8 11 -8 28q0 1 -2.5 3.5t-6 5t-7 4.5t-5.5 3l-3 2q-12 -22 -22 -36q-4 -6 0.5 -12.5t13.5 -13t11 -9.5q4 -8 7 -20.5
t1.5 -16.5t-8.5 -7.5t-15 -3.5h-21h-2h-3q-3 0 -5.5 -2t-5.5 -3q-8 -2 -9 5q-1 2 2 6l-11 2l-4 -20q5 1 7 0q3 -2 3 -5q2 1 2 3q2 5 6.5 3.5t6.5 -7.5q4 -12 -14 -30q-7 -7 -25 -8t-29 3q-7 2 -12 7t-7 9l-1 4q-24 0 -32 8q-3 4 -5 12t-2 14v6q2 15 -6 27q-1 0 -27 27
t-29 40q-2 11 2.5 33.5t3.5 33.5q-1 13 -14 42.5t-15 42.5q-8 36 12 71l23 33q0 36 6 42q3 2 6.5 10.5t7 19.5t4.5 13q5 14 37 14q10 0 20 -2t15 -4l5 -3q3 -2 6 -8t4.5 -13.5t2.5 -13.5t1 -9q0 -2 2 -5.5t5.5 -6.5t6.5 -6t5 -4l2 -2q24 -10 38 -22q3 -2 8.5 -6t9 -7t8 -7.5
t7.5 -10t4 -12.5q3 -9 3.5 -20t1.5 -17t5.5 -10.5t12 -8.5t13.5 -5l6 -2q25 -14 37 -33.5t12 -55.5q0 -10 7.5 -19.5t10.5 -17.5q2 -6 2 -11.5t-1.5 -10t-3 -7.5l-2.5 -5l-1 -2q1 -2 2.5 -6t4 -13.5t1.5 -15.5l1 -24q7 -1 12 -6q1 0 2 -1q3 -1 5.5 -4.5t2.5 -6.5t-4 -3z" />
    <glyph glyph-name="human" unicode="H" 
d="M372 237q12 -20 17 -25q1 -1 3.5 -4.5t3.5 -4.5q1 -4 -1 -4q1 -3 3 -9.5t3 -9.5q0 -3 -1 -3q-2 0 -3 1q-2 4 -2 5l3 -11q0 -3 -1 -3q-2 0 -4 3q-1 3 -5 11q1 -3 3 -11q0 -2 -1 -2q-2 -1 -3 1.5t-1 3.5q-1 2 -2.5 6.5t-2.5 6.5q0 -2 0.5 -5.5t0.5 -4.5q0 -3 -0.5 -3
t-2.5 2q-1 1 -1 2.5t-1 2.5l-2.5 7.5t-2.5 8.5l-2 8l-3 10q-3 4 -10 12.5t-10 13.5q-11 13 -12 14l-2 2q-1 1 -2 2.5t-1.5 3t-1.5 3.5t-2 3q-2 3 -5.5 8.5t-5.5 8.5q-6 11 -11 22q-1 0 -1.5 2l-0.5 2q-1 -8 -4 -23.5t-4.5 -21.5t0.5 -25q1 -5 3.5 -17t2.5 -19q0 -12 1 -34
q1 -12 -1 -24q-2 -6 -5 -20t-4 -22q-4 -22 1 -42q2 -10 -1 -30q-7 -30 -9 -43v-8q0 -10 3 -18q1 -2 4 -5l4 -4q1 -4 1 -6q-1 -1 -3 -1h-13q-2 0 -5 1q-5 4 -7 6q-1 2 -1 6q0 9 1 12q0 2 0.5 5t0.5 4q0 19 -1 28q0 4 -2.5 16.5t-1.5 19.5q2 14 2 20q0 2 -3 15q-2 8 -2 13v30
l-3 39q0 8 1 13q0 3 -2 3v-25q0 -3 -0.5 -8l-1 -10t-0.5 -8q-2 -12 -2 -18q0 -22 -4 -37q-2 -4 0 -15q2 -19 -1 -35l-3 -18q0 -2 -0.5 -6t-1.5 -6q0 -2 0.5 -5.5t0.5 -5.5v-10q0 -2 0.5 -5t0.5 -4q0 -5 -1 -6l-10 -8h-8h-7l-3 1q0 4 1 5l5 5q7 7 6 14q0 5 1 7q1 5 -1 20
q0 2 -3.5 17t-4.5 24t2 28q0 1 0.5 3t0.5 4t1 3q1 18 -5 45q-3 14 -5 28v15q0 5 1 14.5t1 14.5v4q0 14 4 26l2 18q0 1 0.5 4.5t0.5 5.5q-2 17 -3 26q-4 17 -6 26v3l-12 -24q-2 -3 -7 -10t-7 -10q-1 -2 -4 -7t-5 -7q0 -1 -11 -15q-17 -20 -20 -26q-1 -1 -1.5 -4.5t-1.5 -5.5
q-1 -3 -2 -7.5t-2.5 -9l-2.5 -7.5q-1 -1 -1.5 -2.5t-0.5 -2.5t-1 -1.5t-2 -0.5v3v5.5v4.5q0 -2 -1.5 -6t-2.5 -7q0 -5 -4 -5q-1 0 -1 3q2 7 3 11q-4 -9 -6 -12t-3 -3q-1 1 -1 4l3 10q-1 -1 -1 -2.5t-1 -1.5q-2 -2 -3 -2q-1 1 -1 4q1 2 3 8.5t3 9.5q-4 0 -1 5q1 1 2 3t2 3.5
t3 2.5q8 6 17 25l5 10t8 15q0 1 12 18q2 2 5 6.5t4 6.5q10 17 19 40q6 18 25 23q10 2 22 10q2 3 3 6v7q0 1 -0.5 2t-0.5 2t-1 4t-1 4h-1q-1 1 -2.5 3t-2 4.5l-1 5t0.5 3.5q0 -1 3 1q-2 12 3 19q4 7 14 9h3q5 0 7 -1q8 -2 12 -9q6 -9 3 -19l3 -1q2 -2 0 -8t-5 -8h-1
q0 -3 -2 -8q-5 -13 5 -18q17 -9 20 -10q19 -5 26 -25q7 -23 22 -46q1 -2 2.5 -3.5l2.5 -2.5t2.5 -3t2.5 -4q2 -6 14 -31z" />
    <glyph glyph-name="squirrel" unicode="I" 
d="M484 79v-1l10 -11l-9 4l4 -9l-8 2l6 -18l-6 3v-23l-6 14l-5 -13l-3 10l-10 -12l1 9l-11 -11l5 13l-11 -3l4 8l-14 -1l6 4l3 3l-8 1l3 3l5 5l-9 2l2 9l-6 1l5 8l-6 -3l5 11l-6 -1l2 7l-4 -1l-2 7l-3 -1l-5 5l-4 -5l-5 7l-2 -6l-9 6l-2 -2l-6 2l2 -6l-11 4v-4l-11 3l-5 -5
l-7 1l-5 -5h-7l-3 -1l-7 1l-7 -4l-5 3q-8 -4 -20 -6q-9 -2 -17 -2l-4 -3l-9 2q-4 -2 -9 -1q-6 2 -12 6v-3q0 -8 -6 -12q-3 -2 -25 -2h-23l-18 1l-13 -1q-6 -3 -13 0q-1 1 -4 6h-9q-6 0 -7 4l-10 -4v4q0 1 9 10l6 4q4 4 16 3h3q1 0 4.5 -0.5t5.5 -0.5h2q4 -1 11 1q3 1 10 1h3
l3 2v1h-5q-4 2 -4 13q-4 0 -6 2q0 8 1 11h-3l-1 1q0 5 -2 8q-7 8 -15 10q-2 1 -7 -2q-2 -2 -3 -2t-3 -2l-3 -2q-5 -5 -5 -6q0 -5 -5 -6q0 -10 -1 -14v-3l-1 1q0 -1 -0.5 -1.5l-0.5 -0.5l-8 -4q-5 -8 -7 -12l-5 -6q-5 -3 -7 -3q0 1 1 4l3 5h-7h-6h-8.5t-5 0.5l-2.5 0.5l-2 3
h-7q-2 0 2 3q2 2 3 2q9 0 11 1h6t6 1l-2 8l-6 -5l3 10q1 5 2 8l5 12h-5q0 4 2 7t2 4q2 4 6 10v2q0 8 -9 30q-7 17 -1 33q5 14 1 22q-1 3 -15 6q-18 0 -28 6q-7 5 -8 10q-6 0 -11 4q-1 2 -8 15q-4 8 -2 14l5 5l10 9l23 18q6 7 36 4q24 -1 42 -19q9 -4 15 -10q10 -11 7 -22
q-2 -6 -5 -7q1 -1 5 -6q3 -6 21 -7h6q25 0 56 -11q11 -4 23 -16.5t20 -26t11 -23.5q3 -15 2.5 -33.5t-2.5 -24.5q-3 -8 4 -17q6 0 16 3h2q1 0 11 5l1 1l2 -1l-1 6l3 -2v3l6 -2l-3 8l8 -6l1 6l6 -3l-1 15l6 -9l3 7l3 -5l3 6l5 -5l3 7l7 -2l7 7l3 -3l3 14l3 -14l10 6l-2 -9
l18 4l-1 -2l9 5l-3 -8l9 5l-3 -9l12 5l-4 -9l14 2l-5 -6h11l-6 -5h18l-15 -5h5q2 -1 3 -1h7l-7 -4l-1 -1q4 0 7 -1l7 -2l-8 -3l10 -6l-4 -2q-1 -1 -2 -1q3 -3 8 -7l1 -2l-4 -5l15 -9zM99 309q-8 0 -14 -6l-5 -9q-2 -1 -3 -3q-2 -2 2 -1l4 1l22 -3q3 0 4.5 3t1.5 6v3
q-6 9 -12 9zM133 129z" />
    <glyph glyph-name="ecoli" unicode="L" 
d="M100 -47h-2q-19 0 -39.5 11t-26.5 33q-4 34 -0.5 90t7.5 78q9 53 25 80q-4 11 1 26q2 9 11 35.5t25 67t26 52.5q18 23 49 23q6 0 10 -1q33 -9 44 -28q6 -12 6 -37q0 -21 -41 -145l-4 -11q-3 -9 -11 -17q2 -13 -3 -55l-1 -7q-8 -71 -12 -130q-2 -31 -22 -48t-42 -17z
M82 249q4 -4 0 -9l-3.5 -3.5t-6 -7t-6.5 -10t-7 -14.5t-6.5 -18t-6 -23.5t-3.5 -29.5q-8 -98 3 -133q11 -38 54 -40h1q15 0 31 15.5t18 41.5q1 27 4.5 52.5t7 46.5l4.5 27l1 8q3 32 -1 55q-1 2 -1 4q0 4 2 6q9 8 11 15l3 11q40 122 40 140q1 15 -0.5 22t-10.5 15.5t-27 13.5
h-6h-1q-24 0 -38 -17q-16 -20 -56 -150q-4 -12 0 -18zM169 205zM377 85q21 0 39 12q18 13 21 33q4 25 -25 99q-5 14 -7 20q-16 44 -37 118q-13 43 -16 50q-20 32 -52 32q-17 0 -34 -11q-26 -12 -26 -55q1 -30 16.5 -98t27.5 -91v-2q42 -87 68 -101q12 -6 25 -6zM269 431h1
q13 8 33 8q24 0 40 -31q1 -1 2.5 -7.5t3.5 -17.5t5 -20q21 -74 37 -119q3 -7 8 -20q27 -70 24 -92q-1 -9 -8 -16.5t-17 -12t-21 -4.5q-10 0 -18 5q-29 15 -63 85l-1 2q-11 25 -28.5 87t-17.5 89q0 24 5 40t8.5 19.5t6.5 4.5zM357 -39q-34 0 -86 10q-71 14 -90 36t-14 56
q5 27 26 39q18 10 43 10q20 0 47 -6l1 -1q12 -3 55.5 -8.5t65.5 -5.5h12h12q54 0 73 -28q16 -25 7 -52q-4 -12 -14.5 -22.5t-21.5 -14.5q-30 -12 -96 -12q-13 0 -16 -1h-4zM240 101q-29 0 -45 -9t-20 -30q-4 -27 11 -44q16 -18 74.5 -32.5t86.5 -14.5h3q4 1 17 1
q73 0 103 12q10 4 18 13t12 19q7 24 -5 43q-8 12 -23 15t-43 3h-12h-12q-47 0 -114 16l-2 1q-28 7 -49 7z" />
    <glyph glyph-name="mouse" unicode="M" 
d="M464 -4l2 -2t2 -3.5t0 -5.5t-3 -3t-3 -1q-1 -3 -6 3q0 1 -4 2.5t-7 1.5l-3 1q1 -6 -3 -10q-3 -2 -4 -1t-2 3t-1 5q0 6 -7 5h-5t0 4q2 2 2 8v11v5q-11 -11 -20 -18q-12 -10 -23 -13l-12.5 -1.5t-17.5 -5.5q-10 -6 -35 -12q-7 -2 -48 -5q-4 -1 -13 -5.5t-15 -6.5
q-6 -1 -14.5 1.5t-14.5 4.5l-6 3q-10 6 -7 23q2 14 0 23q0 2 0.5 9.5t0.5 10.5t-5.5 8t-8.5 6q-1 1 -5.5 8.5t-8.5 15.5t-5 8t-16 3.5t-18 4.5q-47 10 -44 -7l1 -2q0 -1 -0.5 -2.5t-2 -3t-3.5 -1t-5 4t-5 6.5l-2 3q0 -13 -5 -15q-4 -1 -6 6q0 1 -1 2l-3 11q-1 0 -5 -3.5
t-7 -1.5q-5 4 11 23q2 3 4.5 10.5t2.5 8.5t1.5 5t4 10t3.5 11q4 14 21 21q14 5 26 17q29 29 31 38q1 3 -7 12.5t-19 21.5t-12 13q-41 51 -46 59q-28 44 -28 72q0 38 3 46q4 7 6 -4v-18q-3 -35 27 -76q9 -13 32 -40.5t27 -30.5q0 -1 2.5 -3.5t6 -5.5t7.5 -6.5l8 -7t8 -6
t6.5 -3t4.5 1.5q6 5 33 14t39 9q45 0 71 -8q8 -3 17.5 -8.5t20.5 -15t18 -19.5q4 -6 8.5 -15.5t8 -19t6.5 -18t4 -13.5l2 -5q22 -21 28 -36q4 -10 7.5 -24t3.5 -17v-3.5t0.5 -6.5t1 -8.5t1 -9.5t1.5 -8l-2 -23q11 -2 16 -4q2 -1 3.5 -4t2.5 -6v-2zM227 49q0 2 1.5 7t2 7
t-1.5 4q-6 1 -14 -11l-2.5 -5t-2.5 -6.5t0 -6t4 -2.5q13 7 13 13zM236 98l4.5 6t12 14t16.5 9q1 1 -0.5 9t-3.5 11q0 1 -8 10.5t-14.5 19t-7.5 13.5q-1 10 -9 5q-6 -5 -6 -14q-1 -8 2.5 -20t0.5 -17q-8 -21 -3 -29zM298 14q2 6 -1 15t-13 11q-3 1 -7.5 -0.5t-8 -4.5
t-6.5 -5.5t-4 -5.5l-2 -2q-1 -3 1 -6t4 -4.5t6.5 -3t5.5 -2.5q2 -1 6 -1t8 1t7 3.5t4 4.5zM412 62q7 9 7 34q0 9 -3 22.5t-5 13.5q-7 -2 -21 -7q-23 -8 -34 -9q-13 -2 -20 -14q-5 -9 -5 -17t2.5 -12t5.5 -4q2 -1 5.5 0.5t5.5 2.5l2 1q1 1 2 1.5t4.5 2.5t5 2.5t2.5 -0.5
q1 -9 -7 -17q-2 -1 -4.5 -3t-3 -2.5t-1 -2t0.5 -2.5q4 -8 27 -10q18 -1 34 20z" />
    <glyph glyph-name="mouse-lemur" unicode="N" 
d="M470 131q11 -22 11.5 -68.5t-18.5 -78.5q-15 -22 -39 -30t-43 3q-12 7 -18 16q-5 6 -8.5 16.5t-1.5 25.5t15 26q21 15 42.5 10t25.5 -19q3 -14 -4 -29q6 2 10 8q5 7 7 18.5t1.5 23.5t-3 24.5t-5.5 23t-6 18.5q-4 12 -19.5 28t-29.5 26l-13 10l-28 -7q3 -11 -3 -24
q-3 -6 -10 -10t-13 -6l-5 -1q2 -15 2 -17q1 -3 -3 -11.5t-9 -10.5q-8 -2 -8 8v-2l-2 -4t-4 -4.5t-6 -0.5t-3.5 4.5t0.5 3.5v2l-6 -1q-2 0 -3 5t1 11l6 12h-6q-2 -1 -5.5 -2.5t-5 -1t-1.5 4.5q1 3 5 6t8 5l3 1l-19 11q-18 4 -34 5q-7 0 -11 1t-5 2l-1 1q-7 -3 -17 -9
q-4 -2 -13 -2.5t-16 0.5l-8 1q-1 -11 -3 -13q-4 -5 -11 0q-2 2 -1 6t3 7l3 3l-5 4l-5 -8l-2 -2t-4.5 -2.5t-5.5 -1.5q-10 1 -4 8l14 12l-9 -1l-4 -2t-8 -2.5t-7 0.5q-3 4 -1 7t6 4l17 5q12 3 21 -4l16 -1l-16 5q-23 8 -39 16q-12 6 -27.5 22t-18.5 26l-7 44l-0.5 1t-1.5 3.5
t-1.5 5.5t-1 7.5t0.5 8.5q-22 11 -29 26q-3 7 -3.5 22t3.5 19q6 -8 11 -11q7 -7 23 -9q5 10 16 17q2 2 5 3.5t6 2t6.5 1l7 1t6 0.5h3.5h1q15 11 22 15q20 9 37 3l21 -4q14 16 16 21l13 19l5 -16q9 -18 14 -32q2 -3 2 -6t-0.5 -6t-1.5 -6t-2 -5l-2 -4t-2 -3v-1q51 -10 61 -13
q38 -14 57 -35q8 -9 16 -23t12 -24l5 -10q18 -40 31 -56q5 -5 18 -17.5t24 -25t16 -23.5zM88 320q4 2 7.5 7.5t4.5 9.5l1 4q-1 1 -1.5 3t-2.5 6.5t-4.5 6t-7 3t-8.5 -3.5q-8 -8 -8 -19v-3q1 -9 6.5 -13t12.5 -1zM165 340q15 10 10 27q-2 10 -17.5 15t-22.5 -10q-4 -9 1 -21
q4 -9 12 -13t17 2zM384 8q3 -8 14.5 -10t21.5 1l10 2q-29 -4 -34 10q-2 6 3 11t9 5q3 0 6.5 -3.5t2.5 -7.5q0 -2 -3 -3.5t-5 -1.5h-3q2 -3 9 -2t8 6q1 4 0.5 8.5t-5.5 9t-14 3.5t-17 -8t-3 -20z" />
    <glyph glyph-name="grapes" unicode="O" 
d="M385 189q2 0 5 -1.5t7.5 -7.5t1.5 -13q-5 -16 -21 -13q3 -5 0 -13q-7 -20 -27 -10q-2 0 -4 1v-1q0 -3 -3 -6q6 -8 2 -18v-1q12 -8 8 -22q-5 -14 -19 -12v-6q-4 -12 -12 -13q2 -7 -2 -15q15 -8 10 -24q-5 -17 -22 -11v-5q-1 -14 -18 -16q4 -5 2 -16q-7 -24 -30 -14
q-12 5 -8 25l-1 -0.5l-1 -0.5q-4 -1 -8.5 -0.5t-9.5 4t-7 9.5t-1 12t4 11l3 4q-10 2 -14 8q-1 3 -0.5 7.5t1.5 7.5l2 4l-9 1q-1 0 -2 1q-8 -8 -23 -1q-6 2 -8 9t2 14q3 5 7 7q-2 4 -1 11q-6 0 -17 7q-5 4 -5 15l3 17l-10 7q-5 1 -5 7q-4 -2 -18 2q-7 2 -10 9t1 16q3 7 13 7
q-2 4 -2 6q-6 0 -10 3q-6 2 -8 9.5t1 14.5q1 2 3.5 4t5 3l5 2t4.5 1h2q1 0 1 -1q4 4 11 6q-5 8 0 18q1 2 3.5 4t5 3l5 2t4.5 1h1q2 0 5 -1q0 3 5 26l2 11t6.5 21.5t12.5 20.5q15 19 32 26q2 1 3.5 7t2 15.5l0.5 9.5q1 5 0 15t-3 14q-2 3 -6 4t-5 3q-3 2 -2.5 8t5.5 6
q17 2 19 -22q3 -27 3 -29q2 -4 10.5 -9t12.5 -10q12 -13 18 -30q1 -7 11 -17q2 -2 11 -4q4 12 17 10q14 -1 17 -15q1 -4 -0.5 -9t-5 -8.5t-8.5 -5.5q-5 -1 -8 0q1 -5 1 -9l6 1q2 0 4.5 -1.5t7 -7t2.5 -12.5q7 -1 10 -7l1 -1h3q2 0 5 -1.5t7 -7.5t1 -15q-1 -4 -4 -7h1l5 -2.5
t7 -7.5t2 -14q-2 -2 -2 -4zM269 257h6l-10 7zM306 311q-2 1 -2.5 -2.5t0.5 -6.5q6 0 12 -2v8q-7 3 -10 3zM251 369q-1 -9 2 -34v-32q0 -25 5 -28q10 -8 14 -10q2 0 5.5 -2.5t4.5 -3.5q1 1 2.5 2t2.5 1q3 2 4 2q-8 7 -8 12q-2 14 7 21q4 4 10 5q-1 1 -5 16.5t-7 21.5
q-8 15 -21 26q-5 5 -10 6t-6 -3zM183 244v0q6 -8 6 -14q4 -1 6.5 -3t2.5 -4v-1l6 3q-3 1 -3 11q0 8 3 11l-9 5q-5 2 -6 12q-2 -4 -3.5 -11t-2.5 -9zM215 288l2 3q3 6 9.5 15.5t7.5 12.5l3 26q-4 -2 -9 -4q-9 -2 -18 -24q-1 -2 -11 -14q-2 -2 -7 -21q3 3 11 6q3 1 12 0z
M242 259q1 2 1.5 5.5t1.5 8t2 6.5t0 15.5t0 16.5l-3 21q-4 -9 -6 -16q-1 -6 -14 -22q-3 -7 -4 -8q2 -1 4 -4q8 -9 8 -23q6 1 9 0h1zM253 247q0 -3 1 -3q2 6 5 9q1 1 5 3l-4 5l-9 1q-3 0 -4 -6z" />
    <glyph glyph-name="plant" unicode="P" 
d="M361 271q-8 -5 -8 -9q3 -2 6.5 -1.5t9.5 2.5q8 3 24 0q18 -3 18 -6q1 -5 -12 -17q-9 -8 -14 -9q-3 -1 -2 -4t0 -5q-3 -3 -16.5 -7t-17.5 -4h-2q-4 0 -8 -2q-1 -1 -3.5 -5t-4.5 -5q-3 -3 0 -7q2 -2 11 -2t10 -1q2 0 8.5 -1t9.5 -2q5 -2 -1 -12q-9 -15 -17 -17
q-5 -2 -12 -12q2 -3 7 -3q-1 -5 -4 -10q-2 -3 -20 -12q-3 -3 -2.5 -4t3.5 -4t3 -5q0 -4 -19 -15q-6 -4 -12 -11q-2 -3 -4.5 -4t-3.5 -1h-2q-3 -5 -6 -16l-3.5 -14t-3.5 -15t4 -24.5t5 -20.5q1 -3 4.5 -14t6.5 -21t3 -11q-2 -8 -8 -2q-4 4 -4 24q0 4 -1.5 5t-4.5 2t-4 2
q-2 2 3 12q0 1 -2.5 9.5t-5.5 19.5t-4 15q-1 5 -9 19t-8.5 17t-7 10.5t-13.5 15t-8 8.5q-1 2 -7.5 3.5t-7.5 2.5t-6 3t-9.5 4.5t-5.5 4.5t-9.5 7t-17.5 9.5t-10 6t0 2.5t3.5 3t3 5t-4 4t-11.5 1.5t-9 1.5q-19 9 -21 15q-1 3 12.5 7t17.5 4q6 0 6 9q-2 2 -5.5 1.5t-10.5 -2
t-10 -1.5q-10 1 -15 5q-1 1 -5 1t-9.5 0.5t-8.5 1.5q-13 5 -15 9q-1 2 1.5 3.5t6 3t4 2t4 1.5t6.5 2.5t4.5 4.5t-3 3.5t-9.5 0t-9 0.5q-15 5 -16 7l1 8q-3 1 -11 8t-8 10t3.5 3.5t8.5 0.5t7 1q4 3 -7 6q-1 0 -3 0.5t-3 0.5q-2 1 -8.5 8.5t-7.5 10.5q0 2 1.5 2.5t3.5 1t4.5 1
t3.5 1.5q2 1 0 4t-5 7t-3 7q-3 8 9 10q2 1 5.5 0t6.5 0q2 1 6.5 -1t6.5 -2q8 2 10 2q2 -1 12 -19q3 -4 7 6q1 2 2 3q3 4 9 1q1 -1 3.5 -4.5t4 -7.5t4 -7.5t4.5 -4.5q4 -2 8 9l1 2q3 5 8 0q2 -2 4.5 -15.5t2.5 -15.5q-1 0 -1 -13.5t2.5 -17.5t4.5 1.5t3 10.5q1 1 4.5 5t8 7.5
t5 4.5t-3.5 7.5t-2.5 7.5t8 0t8.5 -1q2 1 -0.5 4t-7 6.5t-5.5 4.5q-8 12 -14 18q-10 10 -8 17q1 3 18 -3q3 0 6.5 -2.5t6.5 -3.5t5 -1q1 2 1.5 2.5t-2 5t-3 5.5t-2.5 4q-1 1 -9.5 11t-9.5 13l-3 11q11 -5 15 -5q3 0 -4 15q0 1 -1 2q-1 2 -1 5.5v5.5t1 2t4.5 -2.5t8 -5.5
t7 -4t1.5 5l-9 23q-2 3 1.5 7.5t6.5 5.5q5 0 13 -6l9 -16q2 -1 7 5q5 5 7 2q4 -7 4 -29q0 -3 10 4q7 5 9 4q6 -3 -2 -19q-2 -4 -4.5 -15.5t-2.5 -14.5q2 -1 6 0t11 4t8 3q3 1 3.5 -1t0 -5t-6 -13.5t-6.5 -12.5q-7 -7 -6 -12q1 -2 4.5 -0.5t8 3.5t6 1.5t-1 -7.5t-5.5 -14
l-3 -6q5 -1 8 0q1 0 16 -3q9 -2 12 0q3 3 1.5 6.5t-3.5 7.5l-3 4q-8 18 -11 22q-3 3 -4 10.5t1 10.5q1 2 14 -1q2 -1 5.5 -3l7 -4t4.5 -3q6 -3 9 5q1 2 -8 24q-4 8 3 24q2 5 9 2q4 -2 11 -14q3 -4 6 2q1 1 1 2q2 1 1 15l-1 14q1 6 8 1q2 -2 6 -2.5t6 -0.5l2 1q2 -5 11 -5
q10 0 15 29q1 2 0 7.5t-1 8.5t1 5q3 1 5 -2.5t4 -9.5q0 -3 1.5 -12t2.5 -11.5t5.5 -2.5t5.5 -1q1 -3 -1 -10.5t-4 -9.5q-4 -4 0 -10q1 -1 8.5 -1.5t9.5 -2.5q2 -3 2 -3.5t-2 -4.5t-3 -5q-1 -4 -15 -14q-1 -1 -3.5 -2.5t-5 -3.5t-4.5 -3.5t-4.5 -3t-3.5 -1.5q-4 -3 6 -7
l11 0.5t14 -0.5q5 0 11 -7q3 -3 -10 -14q-1 0 -7 -6.5t-9 -8.5q-2 -1 -4 -3t-4.5 -4t-4.5 -4q-2 -3 -7.5 -2.5t-6.5 0.5q-2 -1 -3.5 -2.5t-2.5 -3.5v-1zM183 215l10 8q-12 11 -15 15q-1 -8 -5 -14q-8 -14 -4 -16q2 -1 4.5 0.5t5 3.5t4.5 3zM250 217q-1 -1 -2 -3l-3.5 -7
t-3 -7t0.5 -3h9q-1 -1 -1.5 -2t-1 -3.5t1.5 -3.5q1 -2 7 -1.5t6 4.5q0 2 -2 5.5t-4 6.5t-3 4zM218 152l3 -13q1 0 1.5 1t1.5 3.5t1 4.5q-2 8 -11 21q-1 1 -2.5 4t-2.5 4.5t-3.5 3t-6.5 0.5q-1 -2 7 -6q4 -2 5 -10q0 -2 -1 -7v-6t2 -3q1 0 2 1l2 2q2 2 2 0zM237 88
q1 2 -1.5 8t-2.5 7q0 2 -3 10t-8 10q0 -2 -0.5 -4.5t-1 -8.5t0.5 -7q2 -4 8.5 -10.5t7.5 -4.5zM236 147q1 -1 4 2.5l6 7t4 4.5l6 3l-11 15l-9 -31v-1zM276 60l3 19q-7 15 -7 19q0 2 -1 5.5t-2 7.5t-2 7.5t-2 4.5q-9 13 -6 15q11 7 6 12q-2 3 -7 3t-7 -4q-2 -3 -6 -10
q-7 -14 -4 -23q1 -2 0.5 -9t-0.5 -8q0 -4 7 -23t9 -22q0 -1 2 -5.5t4 -6t3.5 0t9.5 17.5zM282 227q3 3 -1 8l-23 22q-5 -11 -8 -14q-4 -6 1 -8l9 -2q1 0 2 -0.5t4.5 -2.5t6 -3t5.5 -1.5t4 1.5z" />
    <glyph glyph-name="shrew" unicode="Q" 
d="M499 241q2 -2 2.5 -4.5t-0.5 -2.5q-1 -1 -3 -2.5t-4 -2.5l-4 -2l-4 -2l-1 -1q-1 -1 -4 -6v-1q2 -4 5.5 -8.5t5.5 -7.5l3 -2l-2 -3q-7 8 -12 19l-0.5 0.5t-0.5 1.5q-2 -2 -9 -5q1 -3 3 -8l1 -3q1 -4 4.5 -8.5t6.5 -6.5l2 -3l-2 -2q-7 8 -12 19q-2 4 -4 11l-5 -3
q0 -10 1 -13q1 -5 3.5 -10t4.5 -8l2 -3l-2 -2q-7 9 -10 21q-1 4 -1 14q-3 -1 -5 -2q-10 -7 -17 -13l-21 -12l-9 -9q0 -7 -2 -12q-1 -2 -1.5 -4t-1 -2.5t-0.5 -1.5q1 -2 11 -12q1 -1 5 -1h5q6 0 6 -3q0 -2 -5 -2q6 0 8 -3q0 -2 -3 -3l-6 2q3 -5 4 -7q2 -3 -1 -3l-7 4l-5 2
l-1 -4v-6q0 -2 -4 2q-1 1 -1 3l-1 3q-1 1 -2 3l-2 3l-3 -5l-2 -4q-1 1 -1.5 4l-0.5 3v5v3l-4 8h-11q-3 0 -13 -5q-8 -4 -14 -4q-2 0 -4.5 -1.5t-3.5 -2.5l-2 -1l-7 -5q-7 -5 -8 -6q-1 -2 -0.5 -4.5t1.5 -5l1 -2.5q2 -2 4.5 -3l2.5 -1q5 -3 10 -4l7 -3q5 -1 5 -4h-2l-8 2
l4 -3q5 0 6 -2q2 -1 0.5 -1.5t-4.5 -0.5q-1 0 -3 1t-4 1l-5 1l4 -4v-2l-3 1l-8 5q-9 2 -12 4q-7 5 -11 13l-2.5 5t-3.5 6l-13 5q-12 4 -15 4l-6 2t-8 3l-11 1v-7q2 -5 6 -10l11 -7q5 0 9 -2l6 -4q3 0 4 -2q1 -1 -5 -1h-7q5 -3 6 -3q4 0 4 -4q-1 -1 -5 2l-6 -1l-5 4v-4
q3 -3 3 -4q-1 -1 -6 4q-3 0 -4 2q-3 1 -5 4q-3 4 -6 4l-1 -4v-3t-2 -2q-3 1 -3 7q0 3 -2 7q-1 3 -8 6q-2 2 -3 5l-1 3l-4 9l-4 8q-1 -1 -4 0l-4 5q-9 7 -11 9l-11 13q-15 6 -41 10q-28 4 -65 -1q-19 -3 -53 -15q-18 -6 -27 -6q-2 0 -2 1t2 2l11 3q36 13 59 21q33 10 75 8
l37 -7q0 1 -0.5 3.5t-1 10t0.5 13.5q2 13 12 29.5t24 26.5q24 17 64 9q5 -1 25.5 -10t21.5 -10q7 -2 21 2q21 5 34 4q12 -1 30 -10q10 -4 30 -8q0 6 2 15q1 5 3.5 10.5t4.5 8.5l1 2l3 -2q-9 -11 -10 -20q-2 -7 -2 -14q7 -2 8 -2h1q0 4 1 6q1 5 3.5 10.5t4.5 7.5l2 3l2 -2
q-8 -11 -10 -20q-1 -1 -1 -4q10 0 19 2q4 1 9 -2zM433 217l6 4l-6 3q-1 -1 -1 -3.5t1 -3.5z" />
    <glyph glyph-name="rat" unicode="R" 
d="M510 282q2 -3 2 -8v-6l-2 -2q-4 -5 -4 -6q0 -4 -3 -7.5t-6 -5.5t-4 -2t-2 -1q-1 -2 -3 -2l-4 -2t-7 -2q-1 -1 -4 -1t-3 -1v-2q-1 -2 -12 -6q-9 -3 -13 -3q-5 -1 -6.5 -2.5t-2.5 -1.5q-1 1 -2 1t-2 -1t-8 -1q-6 0 -10.5 -2t-5.5 -1q-4 1 -9 -6q-2 -2 -5 -2q-3 1 -2 -4
q1 -2 -1 -2q-3 0 -2 -3q1 -2 -1 -4.5t-2 -4t-1.5 -1.5t-2.5 -4t-1 -5.5t-1.5 -1t-1.5 -1t-0.5 -1.5t-0.5 -2t-1.5 -2t-3 -3.5t-4 -8t-2.5 -5t-1 -2.5q-1 -1 -2 -3l-1 -7q-1 -6 0 -8q1 -9 2 -19q1 -7 2 -9q1 -1 3.5 -5.5t5.5 -9.5q5 -10 6 -11t17 -8l5.5 -6t10.5 -7
q10 -2 9 -6q0 -2 -2 -2h-6.5h-8h-7.5h-15q-2 0 -3.5 1.5l-3 3l-2.5 2.5q-1 0 -1.5 -1t-1.5 0l-3 3q-3 1 -6 1h-5.5t-4.5 1t-8 8t-8 8q-4 0 -11 15q-2 2 -4 3q-2 2 -3.5 4.5t-2.5 2.5t-4.5 4t-6.5 4q-1 0 -2 1h-2q-4 1 -7 2q-2 1 -5.5 -0.5t-5.5 -1.5h-1t-2 -1q-2 -1 -7 -1
q-4 0 -4.5 -0.5t-4.5 -0.5t-8 -4q-5 -3 -10 -3q-7 0 -10 -5q-5 -9 -8 -6q-2 1 -2.5 0.5t-0.5 -1.5q0 -2 -1 -3q-2 2 -2 -2v-3q0 -6 -1.5 -7.5t-0.5 -6.5q0 -2 2 -2.5t5 -0.5h4t1.5 0.5t2.5 0.5q2 2 6 2l5.5 -1t6.5 -1l2 -1.5t2.5 -1t4.5 -1.5l1 -1q1 0 0 -2h-1l-2 -4
q-1 -4 -13 -6h-11h-10h-8h-22t-32 0.5t-16 0.5l59 -7q43 -3 81.5 -5t66.5 -2.5t52 0t39.5 1t26.5 1t16 1l5 0.5q5 0 5.5 -1t-5.5 -3q-6 -3 -53.5 -7t-151.5 -3.5t-221 9.5q-34 3 -43 13l-10 11q1 2 0.5 2h-0.5l-2 1q1 1 1 14q1 8 1.5 8.5t0.5 4t1 3.5v3v5q0 2 -2 1t-1 6
q0 2 -0.5 2.5t-2 0t-2 0t0.5 1.5q0 2 -1 2q-1 1 -1 10t1 15q0 2 -2 2q-2 -1 -1 2q1 1 0.5 2.5t-2.5 -0.5q-2 -1 -4 -1v1.5t0.5 3.5t1.5 3q2 3 0.5 3.5t3 5.5t4 5.5t-4.5 -1.5q-3 -1 -3 0q5 3 0 3q-2 0 1 4l3 4v3q1 2 3 3q2 3 0.5 4t-0.5 3.5t6.5 7.5t4.5 5.5t1.5 4.5t2.5 5
t1 2t0.5 2.5t0.5 2t0.5 1.5t1.5 2t1.5 3t3 4.5t3.5 4t5 3.5q6 4 3 5q-1 2 6 6l3 2q0 2 10 8q2 1 2 2t5 3l5 2q7 4 10 6.5t3.5 2.5t2 1.5t6.5 3.5q6 3 6 5q-1 1 1 1.5t2 1.5t2 1t5.5 2t6.5 2q3 1 6 3q3 1 4.5 1t6.5 2l6 2t5 2.5t4 0.5t16 -1.5t14 0.5q0 3 2 1q1 -1 5 -1
q8 2 13 0q2 -1 3 -1t2 0.5l1 0.5q3 0 6 -1q10 -3 16 -3q4 0 9 -2q7 -1 9 -1t10 -4t14 -4t7 1t4 0.5t3.5 0t2.5 0.5q6 0 8 3q0 1 3 1q4 0 4 2q0 1 2.5 2.5t3 1t1.5 0.5t4 1t4 2q3 5 7 5q3 2 4 4q0 1 2 1t2 1t7 1t8 1t3 1q3 0 6 6q1 2 6.5 4.5t5.5 3.5q0 5 6 7h3q5 0 9 -4
t6 -10q1 -5 5 -6.5t20 -2.5q17 0 26 -2.5t27 -12.5l10 -4q7 -3 8 -3q2 -1 6 -2q11 -2 14 -8zM449 279q1 2 -1 3q-1 0 -3.5 3.5t-4.5 4.5q-15 8 -19 -8q-1 -5 3 -7.5t10 -2.5q4 0 6.5 1t3.5 2.5t2 2.5l1 1h2z" />
    <glyph glyph-name="spider" unicode="S" 
d="M472 219q-1 -2 -13 -4q-6 -1 -7 -3q0 -1 -5 -2l-2 -1q-1 0 -6 -2.5l-7 -3.5q-6 -4 -14 -7q-14 -4 -18 -4q-17 0 -21 -2q-5 -1 -24 -2h-4h-9l-8 2q1 1 7.5 -6t7.5 -8q4 -6 8 -18q4 -14 -1 -22q-7 -12 -12 -12q-6 -2 -11 -3q-1 -1 -5.5 -1h-5.5q-10 0 -23 5q-5 2 -19 13
q-3 2 -9.5 7.5t-5.5 6.5q-2 -3 4 -16q4 -8 15 -17q7 -6 8 -8q1 -1 2.5 -4t2.5 -4l8 -10q2 -2 4.5 -6.5t3.5 -6.5q3 -3 7 -9.5t5 -6.5q10 -16 14 -18q1 -1 3 -5l1 -2q2 -4 1.5 -6.5t1 -5t3.5 -6t3 -4.5q1 -4 4 -10.5t4 -9.5q5 -13 8 -19l13 -16q11 -13 11 -17
q-2 -2 -3.5 -0.5t-3.5 4.5h-1q-9 13 -11 15q-1 1 -3.5 4t-3.5 4q0 1 -2 3t-2.5 3.5t-2.5 3.5t-3 4q-3 5 -6 11q-4 7 -5 10l-2 4l-3 6q-5 8 -6 8q-4 2 -7 6t-7 11.5t-5 8.5q-4 7 -10 14q-1 1 -1.5 2.5t-1 2.5t-1.5 2t-2.5 1.5t-1.5 1.5q-6 6 -10 13q-2 5 -18 17q-6 4 -16 19
t-11 20l-2 10q-1 1 -1 4t-1 3l-1 1q-2 0 -2 0.5v1.5t-0.5 1.5t-3 0.5t-2.5 -1q-1 -1 1 -7v-3.5v-3.5v-13.5v-10.5q0 -1 0.5 -4t0.5 -5t-1 -3v-2.5v-1.5q0 -1 -0.5 -2t-0.5 -1.5t1 -10.5q0 -3 -1 -9t-1 -8q0 -7 -1 -19q0 -2 -1 -8q-1 -2 -2.5 -5.5t-2.5 -5.5q0 -5 -4.5 -16
t-3.5 -18q0 -4 -1 -10.5t-3 -5.5q-3 0 -2 19q2 18 4 29q2 7 2 8q-2 3 -2 6v1v2v3.5t0.5 4.5t1.5 5t1 4v17q-1 7 0 10q1 2 -1 5l-1 4q0 3 -2.5 9t-2.5 9v6q0 6 1 12q2 14 3 18q1 1 -1 6q-1 1 -1 3q0 3 -0.5 3.5t-3.5 -0.5q-7 -4 -10 -2q-6 -3 -8 -5q-9 -8 -17 -11
q-15 -7 -38 -9q-4 -1 -14.5 -3.5t-15.5 -2.5q-8 0 -10 -1q-9 -3 -17 -5q-17 -5 -35 -7q-1 0 -3.5 -1t-3.5 -1h-3.5t-3.5 -1q-7 -4 -16 -6q-7 0 -7 3q3 2 8 3q4 0 8 3q1 1 4.5 1.5t4.5 2.5q1 0 22 7q1 1 3 1t3 0.5t2.5 2l1.5 1.5q2 1 5.5 2t5.5 1q9 4 23 8q1 0 3 1t3 1l7 1h6
h6q2 1 6 3.5t7 3.5q1 0 3 0.5l4 1t4 0.5q9 2 17 6l16 8q6 4 8 4t3 3t3 4q-12 -1 -14 0q-1 0 -2 1.5t-3 1.5h-3h-10q-14 2 -38 20q-11 9 -14 12t-10 7.5t-9 6.5q-2 1 -5 5t-6 5q-5 3 -16 11q-7 6 -31 27q-2 1 -5 4.5t-5 5.5t-6.5 5t-7.5 5.5t-5 5.5l6 -1l2 -1q2 -1 8 -5.5
t9 -6.5q9 -5 22 -15q1 -1 5 -2.5t6 -2.5q3 -2 17 -11.5t17 -11.5q4 -2 13 -13q1 -1 8 -3t14 -8q8 -8 15 -13q2 -1 7 -3l3.5 -1t4.5 -1q-1 0 -2.5 1t-3 2.5t-2.5 2t-4.5 2t-4.5 2.5l-4 6q-2 5 0 6q3 2 4.5 2t4 -2.5l3.5 -3.5q3 -1 5 -3.5t4.5 -5t5.5 -3.5q4 -2 7 -3q2 1 1 3
l-2 4q-7 8 -4 13q5 7 9 7q3 1 4 5q0 1 2 5l4 2t3.5 1.5l1.5 0.5l3.5 -0.5t7.5 -1.5l4 -1q0 13 -12 18q-2 0 -9 8q-8 7 -7 10q1 4 3 4.5t4 -1l4 -3t4 -4t3 -2.5q5 -5 9 -10q9 -11 9 -12q0 1 -1.5 5t-1.5 5q-1 7 -2 9q-2 4 -8 15q-1 2 -4.5 4.5l-3.5 2.5q-1 1 -5 6
q-1 1 -1.5 2.5t-0.5 3.5v3q-1 1 -9 10q-2 2 -21 32q-1 0 -4 4.5t-4 6.5l-5 10q0 4 -4 9q-2 2 -15 26q-2 5 -9 16q-3 3 -4 6t1 5q1 0 6 -6q1 -1 5 -7q7 -12 13 -19q2 -2 5 -7t4 -7q2 -3 6.5 -8.5t7.5 -8.5q2 -2 8.5 -12t7.5 -10q4 -6 4 -8l5 -5q4 -4 7 -9q2 -1 4.5 -6t4.5 -7
q20 -21 27 -35q1 -4 2 -10l0.5 -3.5t0.5 -5.5t1.5 -3t1.5 -2l3 -5l-0.5 1t0 2t-0.5 4v6v6q0 11 -1 16l-2 10q-3 10 -3 9q3 5 -2 13q-5 5 -12 16.5t-10 16.5q-1 0 -3.5 3t-3.5 5q-3 7 -5 9q-9 8 -13 15q-1 2 -9 13q-5 5 -5 8q1 2 3 0.5t4 -3.5q1 -1 5.5 -7t7.5 -8
q2 -2 5 -4.5t6 -5.5t6 -4q3 -3 6 -6.5t5 -6t4.5 -6.5t5.5 -6q5 -7 6 -8q5 -5 5 -6t1.5 -3.5t2.5 -2.5q0 -2 2 -6.5t3 -6.5q11 -28 12 -40q0 -6 -1 -11q-1 -2 -2 -6v-3q-1 -6 1 -7q3 -2 2 -8q-1 -1 -1 -4.5t3 -1.5q4 3 7 3q1 0 4 5q0 1 2.5 2.5t3.5 2.5q11 13 33 16
q12 2 14 5l15 15q2 2 6 8t7.5 10t8.5 5l1 3t2.5 6.5t2.5 4.5q3 5 6 9q1 1 2 1q1 1 1.5 2.5t7.5 8.5q6 8 10 11.5t5 1.5q4 -2 -7 -11l-6 -6q-2 -5 -3 -5l-2 -2t-1.5 -3t-0.5 -3q-8 -14 -12 -26q-1 -3 -3.5 -6.5t-6 -8t-5.5 -6.5q-4 -5 -11 -13l-4.5 -4.5t-5.5 -5t-5 -3.5
q-3 -3 -10.5 -6.5t-10.5 -5.5q-4 -3 -16 -8q-6 -3 -10 -6q-2 -1 -1 -4q1 -1 -1 -4l-1 -1q1 -1 4.5 0.5t4.5 1.5l3 -2q5 6 8 3q1 -1 4.5 0t4.5 1q8 -1 22 -8q6 -2 8 -8q2 -7 3 -6l3 -5h8q2 0 17 -1q2 0 5.5 0.5t5.5 0.5q14 0 16 2t6 -2q2 1 5.5 2.5t5.5 2.5q9 1 12 -1
q1 -1 3.5 0t3.5 1h5l8 4l3 3q1 1 2 0.5t2 0.5l2 1l7 3l2 0.5t4 1.5l2 1q4 1 8 -1q-1 3 11 2q17 -1 23 -1q5 -3 7 -5q-2 -1 -9.5 0t-9.5 0q-2 0 -6.5 0.5t-9 0.5t-4.5 -2zM288 207q3 -1 7.5 -1.5t5.5 -1l4 -2t6 -2.5t4 0t-3.5 3.5t-9 4t-5.5 1.5q-7 1 -9 0q-7 -1 0 -2z" />
    <glyph glyph-name="platypus" unicode="U" 
d="M512 208q0 -2 -2 -3.5t-3 -4.5q0 -1 2 -5t2 -5q-2 -5 -10 -5q-2 0 -2 -1t0.5 -3.5t0.5 -4.5q-1 -4 -15 0l-13 9l1 -7q4 -17 4 -31q0 -9 -2 -14.5t-2 -6.5l-3 -11l4 -16q3 -5 6 -11q14 -25 15 -29q0 -3 -0.5 -5.5t-1.5 -4.5t-3 -4l-2.5 -2.5t-3 -2.5t-3.5 -2
q-19 -15 -37 2t-20 64q-6 4 -14 10q-5 3 -13.5 12.5t-11.5 14.5q-1 3 -4 5t-5 2h-3q-2 -18 -2 -22q8 -8 11 -18q4 -15 1 -18q-3 -2 -6 -1t-5 3l-2 2q-1 -11 -8 -12q-4 0 -5.5 4t-3 4.5t-5 -3.5t-6.5 -4q-4 -1 -7 10q-1 2 -5 0q-3 -1 -4 -1.5t-3 0.5q-4 2 2 14q0 1 -1 1
t-3 -0.5t-3.5 0t-2.5 3.5q-1 11 21 22q-5 10 -11 18q-2 3 -4 6.5t-3 5t-4 3.5t-7 5q-8 3 -20 5.5t-16 3.5q-9 3 -18.5 3.5t-16 -0.5t-12.5 -2.5t-7 -1.5q-15 0 -37 -7q-2 -1 -5 -6t-6.5 -12t-6.5 -10q-7 -10 -20 -12q-3 0 -3 2l2 6q0 -1 -1.5 -2t-4 -2.5t-3.5 -0.5t-1 3t1 3
l1 2l-9 -5q-4 2 3 12q-1 -1 -7 -4q-3 -1 -3 2q-1 4 1 9q1 4 10.5 11.5t17.5 13.5l8 5q-4 9 -6 13q0 1 -0.5 7.5t-3 10t-8.5 2.5q-7 -1 -34.5 -15.5t-39.5 -18.5q-47 -16 -61 6q-4 7 5 19.5t28 21.5q14 7 56.5 16.5t45.5 11.5q5 3 13.5 12.5t11.5 16.5q8 17 45 25
q16 4 39 2.5t49 -5.5t44 -10q10 -4 20.5 -9.5t18.5 -11.5t14 -11.5t10 -9.5l3 -3q18 -4 41 -22q2 -2 4.5 -5t4 -6t3 -5.5t2.5 -4.5l1 -1l10 -1q0 6 5 16q2 3 5.5 1t4.5 -5q0 1 1.5 1.5l4.5 1.5t6 0q4 0 4.5 -4t1.5 -5t3 -1.5t3.5 -2t2.5 -5.5zM411 130q4 -3 7.5 -1.5
t1.5 7.5v2t-1.5 3.5t-2.5 3.5t-3.5 2.5t-4.5 -0.5q-6 -4 -3.5 -9t6.5 -8z" />
    <glyph glyph-name="c-elegans" unicode="W" 
d="M485 393q13 -8 15 -18t-6 -12.5t-20 1.5q-1 0 -11.5 3.5t-17.5 5.5t-23 5t-27.5 2.5t-30.5 -2.5q-29 -5 -44 -27t-15 -47.5t3 -48.5q2 -6 9 -29.5t11 -41t8.5 -41.5t4 -46t-5.5 -40q-9 -35 -39.5 -64t-88.5 -36q-16 -1 -35 1.5t-43 11.5t-45 31.5t-31 56.5
q-20 70 -30 126t-9 70t1 22l16 -63q34 -108 69 -146l10 -10t15 -13t21.5 -12.5t25 -7.5t29.5 0t32 12q14 8 22.5 20t10.5 27.5t2 30t-4.5 33.5t-8 32t-9 30t-7.5 24q-17 53 1 103.5t65 77.5q23 11 50 13t49 -3t41 -12t29 -13z" />
    <glyph glyph-name="yeast" unicode="Y" 
d="M327 214q-27 0 -52 11q-23 9 -42 31t-26 50q-6 19 -6.5 36.5t2 29.5t8.5 23t12 18t13 12.5t10.5 7.5t6.5 4q21 11 45 11h1q15 0 30 -5q46 -15 75 -74q14 -25 14 -54q0 -18 -5 -35q-4 -15 -18.5 -32t-34.5 -28q-15 -6 -31 -6h-2zM299 426q-20 0 -37 -10v1q-4 -2 -9.5 -6
t-14.5 -13t-13 -21t-6.5 -29.5t5.5 -38.5q4 -20 19.5 -38.5t37.5 -28.5q18 -8 37 -8q18 0 34 6q4 2 8.5 5t9 7.5t9 10t8 12t6.5 12.5q6 17 6 35q0 22 -9 41q-14 27 -38 45t-53 18zM143 93q-6 1 -11 7q-9 9 4 20q4 3 9.5 3t9.5 -3q3 -3 3 -7v-2q-1 -10 -10 -16q-2 -1 -5 -2z
M140 115q-5 -2 -5 -7v-1q0 -2 2 -2q2 -2 6 -2h3q4 3 4 9v0.5v1.5q-3 2 -6 2q-2 0 -4 -1zM123 145v0q-3 0 -5 2q-9 5 -9 14v2q0 6 5 9q4 3 9 3q4 0 7 -1q8 -3 9 -11v-3q0 -7 -6 -11q-4 -3 -10 -3v-1zM118 166q-2 -1 -2 -3v-1q0 -6 5 -9h3t4 1q4 2 4 6v2q-2 6 -9 6q-3 0 -5 -2
zM107 107q-9 1 -18 7q-2 3 -2 7t2 7q3 10 13 12q6 0 10 -5q6 -6 6 -15v-2q-2 -7 -9 -10h-2v-1zM103 134q-5 -2 -7 -8v-2t1 -2q4 -5 11 -5q1 1 1 3v2q0 5 -2 8t-5 3zM103 134zM281 339q-1 -1 -1.5 -1t-1.5 1q-10 2 -12 12q-2 19 11 22q10 3 17 -11q1 -3 1 -7q0 -6 -4 -11
t-10 -5zM280 366q-6 -3 -6 -10q0 -1 1 -2q0 -5 6 -8q4 0 6 3t2 6t-2 5q0 6 -6 6h-1zM406 16q-15 0 -32.5 7t-28.5 17q-10 11 -17.5 29t-7.5 33q0 41 38 79q36 35 73 33q31 -1 53 -24q24 -19 26 -52q3 -44 -38 -90q-24 -30 -64 -32h-2zM427 193q-34 -3 -59.5 -29.5
t-27.5 -60.5v-2q0 -29 19 -51q21 -14 46 -14h4q29 2 50 27q12 12 20 32.5t8 37.5v3q0 18 -10.5 31.5t-23.5 19t-24 6.5h-2zM399 119q-10 0 -17 8q-2 4 -2 8t2 8q5 8 14 8q1 1 2 1q4 0 8 -3q6 -6 6 -14v-2q0 -8 -7 -13q-3 -1 -6 -1zM398 144h-2q-4 0 -7 -4q-1 -2 -1 -4t1 -4
q3 -6 9 -6q3 0 5 2q3 3 3 6q-1 6 -5 9q-1 1 -3 1v0zM266 -64q-24 0 -46 11q-35 16 -36 81q0 10 -1 12l-4 -1q-11 -2 -21 -2h-3h-3q-17 0 -28 2t-33.5 13t-48.5 32q-14 11 -27.5 38t-14.5 56v3q0 19 10 41t25 34q55 48 149 11q54 -21 92 -88q22 -39 -14 -95l6 -1q11 -3 12 -4
q20 -6 36 -28t12 -59q0 -13 -8 -27t-19 -21q-15 -8 -33 -8h-2zM185 63q12 0 17 -11q3 -10 3 -19v-4q1 -11 1 -17t1.5 -15.5t3.5 -15t6.5 -11t10.5 -8.5q16 -8 35.5 -8t29.5 6q16 9 18 38q1 5 1 9q0 17 -11 32t-27 19q-4 1 -11 3q-21 5 -25 13q-2 3 -2 7q0 2 1 5l6 11l7 10
t9.5 14.5t6.5 13.5t3 17.5t-5 16.5q-32 56 -82 75l-6 3q-89 35 -133 -3q-26 -22 -25 -67q2 -44 36 -78q35 -28 61.5 -34t69.5 -2z" />
    <glyph glyph-name="zebrafish" unicode="Z" 
d="M330 262q3 0 4 -1q5 -2 7 -13t-1 -20q-1 -5 -2 -6q-5 -3 1 -5q31 -5 62 -9q7 -1 32 5q5 2 17 7l14 7q16 7 26.5 6t15 -4t6.5 -6q3 -9 -10 -22l-4 -4l-8.5 -8.5l-6.5 -6.5l-1.5 -1.5l-2 -2t-1 -2.5t0 -4t1.5 -4.5t4.5 -6t8.5 -7.5q12 -11 11 -23.5t-9 -14.5q-10 -3 -27 7
q-1 0 -6.5 3.5t-9.5 5.5q-11 7 -16 9q-3 2 -19 10q-19 9 -34 9q-6 0 -6 1q1 -1 0.5 -3.5t-1.5 -4t-1 -3.5q0 -5 -8 -11q-1 0 -16 -12.5t-17 -13.5q-5 -2 -10 -5q-6 -3 -7 -3l-1 -1q-10 -2 -21 8q0 1 -10.5 12.5t-12.5 12.5q-2 2 -5 1l-7.5 -1.5t-8.5 -2.5q-2 -2 -1 -2
q2 0 0 -13q-1 -10 -12 -7l-28 13h-17q-42 0 -69 9q-2 0 -7 1.5t-12 3.5t-15.5 4.5t-18.5 5.5t-18 6q-23 7 -34 17q-9 8 -11 15q-2 5 -3 5.5t-1 4.5t2 6q3 4 19 11q9 4 29 9q17 3 35 8q1 0 7 1t12 2.5t8 1.5q58 11 114 5q26 -5 38 2q2 1 10.5 4l17 6t9.5 3q12 6 25 6z
M187 225q-44 0 -62 -2q-7 -1 -14 -1t-13 -1.5t-10 -1.5q-2 0 -5 0.5t-4 0.5t-1 -1l1.5 -1t3.5 -3t3 -2q6 1 23 4q5 1 15 2q6 1 74.5 1t74.5 -1q4 0 4 1q-5 3 -34 3q-19 1 -31 2h-25zM50.5 208q-0.5 0 -1.5 -1q-2 -2 -3 -2l-2 -1q2 1 3.5 -1.5t2.5 -5.5t0 -4l2 6q0 -1 2 0h1
t1 1.5t-1 2.5q-1 2 -3 4q-1 1 -1.5 1zM194 207q-42 0 -51 -1q-24 -2 -38 -1q-2 0 -5.5 0.5t-5 1t-3.5 0.5h-2q0 -2 1 -4.5t1 -3.5q1 0 8 0.5t8 0.5q3 0 19 0.5t23 2.5q6 1 43 0.5t38 -1t8.5 0t14 -0.5t21.5 -2t16.5 -1.5t20.5 -0.5q36 -1 43 -3t14 -2q13 -2 14 -2t13 -1.5
t15 -2.5q4 -2 6 0q1 1 0 2q-5 3 -12 2q-4 0 -5 0.5t-5 1t-11 1.5q-6 2 -11 2t-14 2q-24 4 -36 4q-2 0 -10 1q-29 3 -75 4h-43zM36 206q1 0 1 -1h2h1q-1 0 -2 -1l-1 -1q-1 0 -2 -1t-2 -4l0.5 -0.5t-0.5 -0.5v1l-0.5 0.5l-0.5 0.5v2t1 2.5t1.5 2t1.5 0.5zM454 201h2q4 -1 8 -1
t4 -1t-6 -1t-8 1q-5 2 0 2zM54 195q3 -3 2 -5q-2 -2 -3 -2v-1l-4.5 -1.5t-2.5 2.5q5 0 4 6zM38 190q1 -1 3 -1.5l2 -0.5v-2q0 -1 -2.5 -1.5t-2.5 0.5q-1 1 -1 2.5t1 2.5zM452 188q14 0 15.5 -1t0 -2t-3 -0.5t-10.5 1.5q-13 1 -12.5 1.5t10.5 0.5zM125 185q-9 0 -9.5 -1
t0.5 -2.5t2 -0.5q1 0 17 0.5t24 -0.5q9 -1 18 -1t16 -1q12 -2 38.5 -2t27.5 1q4 2 32.5 1t49.5 -3q11 -1 17 -3q5 -2 17 -3t19 -2q13 -2 15 0t-2 3l-7 1q-9 1 -13 2t-17 2t-18 2q-20 5 -116 4h-37q-21 3 -64 3h-10zM430.5 174h4.5q13 -1 24 -7l3 -2h-2q-4 1 -7 2q-5 1 -11 2
q-13 2 -13 4q0 1 1.5 1zM353 167v0q-3 0 -7 -1q-13 0 -26 -1q-51 -3 -54 -5q-1 0 -10 -1q-32 -3 -41 -2t-16 1q-9 -1 -13.5 0.5t-6.5 0t-2 -2t2 -1.5q4 0 7 -1q5 -2 35 -2q30 1 36 1q8 1 9 2q4 1 13 2q3 0 16 2q12 1 18 2q10 0 19 1l20 1q7 1 8 2t-3 2h-4zM434 156q2 1 8 -1
l5 -3q-2 -2 -9 0q-6 2 -6 4h2zM362 147q-1 0 -6 -3q-7 -2 -10 -3l-4 -1h4q5 1 10 3t6 3v1zM339 139h-6q-32 -4 -37 -4q-5 -1 2 -2l8 -1q13 0 29 6zM226 128q-2 -2 2 -6q10 -6 10 -2q0 1 -2.5 2.5t-5.5 3t-4 2.5z" />
    <glyph glyph-name="glycinemax" unicode="^" 
d="M454 247v1q8 -4 21.5 -8t23.5 -6l10 -2q-33 -18 -51 -25q-26 -12 -63 -7q-8 0 -18 4t-16 7l-6 3h-3q22 -25 25 -35q5 -12 8.5 -29.5t3.5 -29.5l1 -12q-23 25 -37 33q-5 3 -18 10t-23 13q-12 7 -18.5 20t-5.5 22q0 4 3.5 14.5t2.5 12.5v3q0 1 -0.5 2t-1.5 2.5t-4 2.5
q-25 14 -34 14q-2 0 -7.5 1.5t-8 1.5t-5.5 -2q-5 -9 0 -30q0 -1 9.5 -17t10.5 -26v-22v-13.5t1 -9.5q1 -2 9.5 -14t17.5 -32t13 -42q2 -6 1.5 -13.5t-2 -12.5t-2.5 -10t-1 -7l1 -8l-8 -7q-10 6 -14 8q-48 16 -74 71q-4 6 -6 13.5t-3 13.5t-1.5 13t0 11.5t0.5 8v4.5l1 32
q-5 41 10 62q5 6 9 11.5t7 9t5.5 6t4.5 3.5l1 1q1 0 2 0.5t4.5 2.5t3.5 3t-1 3q-9 6 -17 2q-24 -8 -28 -12q-16 -16 -15 -20q0 -1 5.5 -2.5t5.5 -5.5q0 -13 -5 -18q-2 -3 -3 -17.5t0 -23.5q4 -41 -3 -61q-1 -5 -4 -9.5t-4 -8.5t-1 -11q0 -4 5 -16t8 -29t1 -38
q-1 -6 -2.5 -12.5t-3.5 -11t-3.5 -8t-3 -6l-1.5 -2.5l-2 -11l-10 -3q-9 5 -18 11q-7 5 -15.5 13t-18.5 24t-10 31q-1 27 2.5 43t8 24.5t5.5 12.5q1 5 -0.5 25.5t3.5 31.5q6 15 17.5 26.5t19.5 15.5l9 4q9 6 11 10q2 5 1 7.5t-9 3.5q-5 1 -11.5 1.5t-12.5 1.5t-8 2
q-64 5 -95 15q-2 1 -5 1q-3 1 -4 1.5t-2 2t-1 3.5l8 11q7 0 19 -4q3 0 18 -4.5t28.5 -7.5t32.5 -6t30 0q4 1 13 12.5t15 13.5l36 12l4 4q-1 2 -1 11q0 1 -1 8t-1.5 14.5t2 22t8.5 30.5q8 20 23 36.5t25 23.5l11 6q-14 -25 -17 -34q-3 -10 -3.5 -23t-0.5 -27.5v-19.5
q-1 -22 -20 -43q-2 -3 -6 -6t-5 -3q2 -1 8.5 -8.5t11.5 -9.5q24 -6 36 -6l10 4q-5 29 6 41q6 8 20.5 17t20.5 15q8 7 15.5 16t11.5 15l3 6q1 -50 -5 -75q-4 -18 -17 -32.5t-22 -17.5l-23 -5l3 -7q10 -3 19 -8q0 8 8 13q9 7 24.5 12.5t26.5 5.5q29 0 61 -14z" />
    <glyph glyph-name="alpaca" unicode="a" 
d="M181 262q7 2 19.5 0t25 -4.5t15.5 -2.5h31q44 12 49 13q22 6 59 -2q5 -1 9.5 -2.5t8.5 -2.5t7 -2.5t5 -3t3.5 -2.5t2.5 -1l1 -1q31 -7 38 -14q19 -17 21 -52q1 -6 0.5 -12.5t-2 -11.5t-2.5 -10.5t-3 -9t-3 -6.5t-2 -5l-1 -1q-3 -13 -5 -23l-15 -39q7 -17 8 -29
q0 -9 -3 -24.5t-6 -19.5l-21 -43q1 -7 -5 -12q-4 -3 -15 -3t-14 3q-2 1 0.5 3.5t6.5 4.5l3 2q7 13 9 18l1 38q-4 -1 -7 -4q-1 -1 -5.5 -10.5t-9.5 -20.5t-6 -13q-2 -3 -4 -3.5t-4 0.5l-1 1l-5 -11q-5 -4 -13 -4q-18 -2 -17 5q1 2 5 5t8 5l4 2l7 20q5 19 5 23q0 9 -10 29
q-3 6 -7 18t-6 21l-3 9l-8 3q-24 -6 -36 -8q-5 -1 -14 0.5t-16 3.5l-7 2q1 -17 1 -29q0 -3 -1.5 -9t-3.5 -13t-4.5 -13t-4.5 -10l-1 -4q1 -31 0 -36q-1 -2 -1 -7.5t-1 -10t-2 -5.5q-3 -3 -12.5 -3.5t-12.5 2.5t1.5 7.5l4.5 4.5l-6 20l-4 -27q-4 -4 -9 -5q-19 -5 -21 1
q-2 2 2.5 7t4.5 6q0 2 -2 20t-2 20l-2.5 8t-4.5 15t-3 9q-4 8 -6 23.5t-2 26.5l-1 12q-62 42 -77 113q-1 5 -5.5 50t-5.5 47l-10 29q-26 16 -30 22t0 22q1 3 6.5 5.5t6.5 4.5t-0.5 6.5t-3 9.5t-1.5 8q0 2 3.5 5.5t6.5 5.5l4 2q-5 10 -8 13t-0.5 6t5.5 5q3 1 12 -4.5t10 -5.5
l41 2q1 8 4 12q3 2 10 -4q1 -1 2.5 -6.5t2.5 -9.5v-4l10 -28q9 -32 13 -48q2 -11 2 -42q0 -2 2 -6t5 -9t4 -8z" />
    <glyph glyph-name="bug" unicode="b" 
d="M470 91q0 -1 -1 -1q-2 0 -4 -1l-5 -7q2 -2 3 -4t0 -3q-2 0 -4 1.5t-2 2.5l-1 2l-2 6q-15 8 -19 9q-15 2 -17 4q-4 6 -7 8q-4 1 -9 9t-6 14l-9 31l-5 10q-3 -1 -6 -1q-1 -16 -2 -22q-1 -13 -8 -44q11 -10 12 -13l8 -17l4 -7q0 -2 1.5 -24.5t1.5 -24.5l-5 -24q7 -8 8 -11
l6 -13q7 -14 7 -17l1 -9l2 -2t2 -4t-1 -4q-1 -1 -1.5 1t-1.5 4t-2.5 2t-3.5 -2t-2.5 -3t-1.5 1q-1 1 -1 3t1 3l1 2q-2 13 -4 16q-4 5 -14 22q-4 6 -4 9q0 1 -2 3.5t-2 5.5q0 2 2.5 14t1.5 12l3 39l-5 5q-7 0 -11 3q-3 2 -7 5q-2 -8 -4 -10q-5 -10 -15 -16q-3 -2 -14 -4
t-18 -2q-17 1 -35 8q3 -10 11 -14q16 -6 26 -6q2 0 8.5 1t10 1.5t4.5 -1.5q0 -4 -11 -14.5t-20 -13.5q-6 -3 -15 -4.5t-12 -3.5q-3 -3 -9 -4t-8 1h-2.5h-2.5q-2 -2 -8 -1t-10 4q-2 2 -11 3.5t-15 4.5q-9 3 -20 13.5t-11 14.5q0 2 3 2t8 -0.5t7 -0.5q23 0 31 3q3 2 5.5 5
t3.5 5l1 3q-26 -4 -35 -5q-22 -1 -31 5q-10 6 -15 16q-2 2 -4 10q-4 -3 -7 -5l-11 -3l-5 -5l3 -39q-1 0 1.5 -12t2.5 -14q0 -3 -2 -5.5t-2 -3.5q0 -3 -4 -9q-10 -17 -14 -22l-4 -16q1 -1 1 -2t1 -3.5t-1 -2.5q-1 -2 -3.5 1t-4 3t-2.5 -2t-1.5 -4t-1.5 -1q-2 2 -1 4l2 4l2 2
q1 5 1 9l7 17q4 9 6 13l8 11q-5 19 -5 24q0 2 1.5 24.5t1.5 24.5l4 7q5 12 8 17q1 3 12 13q-7 31 -8 44q-1 6 -2 22l-6 1l-5 -10q-8 -25 -9 -31t-6 -14t-9 -9q-3 -2 -7 -8q-2 -2 -17 -4l-19 -9l-2 -6q-2 -6 -7 -6q-3 0 3 7q0 3 -5 7q-2 2 -5 1v1q1 2 3 2h4h2l6 6q9 6 17 9
q3 2 7 2t6 -1l3 -1q0 12 1 16q0 1 2.5 5t5 7.5t5.5 7t3 4.5l16 31q4 11 8 13q2 2 4 2h1q-1 30 0 37q1 9 14 55q-5 3 -7 5q-1 1 -8 20q0 1 -7 21t-8 23t-2 6.5t-1.5 5.5t-2.5 2t-3.5 1t-3 3t-3.5 3q-8 6 -14 23q-2 4 -2 6.5t1 3.5h-8l-4 5q8 -1 12 1q2 1 2.5 4t0.5 6v3
q3 -6 4 -9l-4 -6l12 -18q14 -7 18 -10l6 -10q5 -3 7 -7q2 -2 6 -26.5t4 -27.5l1 -9l7 -8q3 10 4 12q1 1 5 2.5t7.5 2t4.5 0.5q15 7 29 7q18 0 18 1q-3 5 -16 6t-18 0q-8 -2 -13 -5t-7.5 -5t-4.5 -1q-2 0 -2 1.5t1.5 4t1.5 4.5q6 25 16 36q-7 3 -12 7q-3 2 -8.5 12.5
t-6.5 11.5q-2 2 -4 9t-5 16.5t-5 13.5q-4 16 1 15q5 -2 10 -17q11 -31 15 -42q1 -3 7 -9t9 -8q3 -1 6 -3q20 17 33 23q14 8 30 10q1 2 7 1q7 1 8 -1q16 -2 30 -10q13 -6 33 -23q3 2 6 3q3 2 9 8t7 9q5 13 14 42q5 15 11 17q4 1 3 -4q0 -3 -3 -11q-1 -4 -4 -13.5t-5.5 -16.5
t-3.5 -9q-1 -1 -6.5 -11.5t-8.5 -12.5q-5 -4 -12 -7q10 -11 16 -36q0 -2 1.5 -4.5t1.5 -4t-3 -1.5q-1 -1 -8.5 4.5t-16.5 5.5q0 -1 -8.5 0t-14.5 0t-8 -5q-1 -2 4 -4l11 -1q25 0 28 -2q0 -1 8.5 -2.5t10.5 -3.5q1 -2 4 -12l7 8q1 7 1 9.5t4 27t5 26.5l8 7q2 7 6 10l17 10
l13 18l-4 6l4 9q-2 -11 2 -13l13 -1q-2 -5 -5 -5h-8q3 0 0 -10q-6 -17 -15 -23l-2 -2l-2 -2t-2.5 -2t-2.5 -1q-2 0 -3 -2t-1.5 -5.5t-1.5 -6.5q-2 -3 -8.5 -23t-6.5 -21q-7 -19 -8 -20q-3 -2 -7 -5q13 -46 14 -55v-37h1q2 0 4 -1.5t4 -4.5t3 -6l1 -3q15 -30 16 -31
q0 -1 2.5 -4.5t5.5 -7t5.5 -7.5t2.5 -5l1 -16q9 3 16 0l16 -9l7 -6q8 2 9 -2z" />
    <glyph glyph-name="corn" unicode="c" 
d="M473 -7q1 -5 -9.5 -20t-16.5 -13q-18 19 -24 23q-5 2 -22 -3q-8 -3 -31 -4q-9 -1 -20.5 0.5t-32.5 7t-46.5 22.5t-49.5 43q-93 100 -132 129q-3 2 -7.5 4.5t-9.5 4.5t-9.5 4t-6.5 3h-3q33 8 70 -4q-10 7 -12 19q-16 8 -18 23q-16 8 -16 23q-4 4 -7 8q-8 9 -7 16
q-9 9 -9 22q0 4 1 7q-4 4 -6 8q-7 10 -4 21q-3 4 -5 8q-5 13 5 26q1 6 4 11q6 12 19 12q6 3 11 5q14 4 22 -4q5 2 10 2q13 1 21 -9q18 2 28 -12q4 0 8 -1q11 -3 16 -12q11 -3 17 -9q-15 43 -6 70q19 -50 70 -104q3 -3 20.5 -20t36.5 -36.5t40.5 -43.5t40.5 -48t29 -42
q32 -61 18 -100q-4 -10 7 -21q1 -1 4 -3.5t5.5 -4.5t4.5 -4.5t2 -3.5zM154 175q16 -10 31 -21l1 1l-4 4q-4 2 -18 25zM246 209q1 1 3 2q-3 2 -13 15q-7 8 -10 12l-6 -6l-11 -11q-2 -1 -8 -7q10 -13 19 -28q21 19 26 23zM204 226q2 3 18 16q-3 3 -18 21q-5 7 -6 9
q-1 -1 -6 -4q-16 -11 -18 -12q0 -1 -2 -2q18 -26 24 -34q7 5 8 6zM162 254q-4 4 -15 19q-17 -15 -22 -18l14 -22q19 16 23 21zM167 249q-12 -11 -25 -21q13 -18 14 -21q1 -2 6 -7q2 -3 4 -5l11 9q7 6 13 11q-2 3 -11 17q-9 13 -12 17zM248 204q-1 -3 -24 -23q5 -7 21 -29
q17 13 22 18q2 1 9 8q-14 19 -24 30q-3 -4 -4 -4zM195 210q-13 -11 -25 -21q5 -10 20 -30q13 12 25 23q-2 2 -9 12q-8 12 -11 16zM191 278q-14 13 -18 17q-9 -8 -10 -9t-7 -6q-1 0 -2 -1l-2 -2l16 -18q6 5 25 17zM215 173q-14 -12 -21 -19q11 -10 23 -21q12 8 22 15
q-1 2 -8 12q-10 14 -12 17zM97 331q-9 -7 -9 -8q-3 -2 -5 -4l7 -17l19 12q-3 3 -7 9q-3 4 -5 8zM92 298q5 -8 9 -15q8 5 23 16q-9 11 -13 13q-12 -9 -19 -14zM335 136q2 1 10 10q-9 13 -39 53q-14 -13 -22 -21q5 -6 10 -13q9 -12 8.5 -13t-1 -1t-1.5 1l-9 9q-10 10 -12 13
l-8 -8q-2 -2 -23 -18q16 -19 21 -25q6 5 11 9q7 7 16 14h1.5t0.5 -0.5v-1v-0.5l-17 -17q-1 -2 -8 -8q11 -13 21 -26q17 10 23 16t14 21q3 6 4 6zM191 151h-1q1 0 4 -3q-1 2 -3 3zM268 115l-13 -12l24 -19q10 5 13 7zM303 204l-23 30q-13 -12 -22 -21l12 -16q5 -7 11 -14
q9 9 22 21zM279 236q-13 17 -20 26q-13 -10 -18 -12q-3 -1 -10 -8l24 -26q10 8 24 20zM53 367q-13 -16 -1 -25l1 -1l5 3l3 3q-2 4 -3 12v2v1q0 1 1 1t2 -2v-2q2 -4 5 -8q9 8 12 11q5 5 16 12h1l0.5 -0.5t0.5 -1v-1.5q-10 -10 -19 -20q-1 -1 -8 -6l11 -20q8 7 14 11l-8 12
q-1 1 0 1.5t2 -0.5l10 -10l6 6q5 5 16 9l1 1q1 0 1.5 -1t-0.5 -2h-1q-3 -2 -20 -17q11 -15 15 -17q3 -3 11 -17l7 5h1q1 0 1 -0.5v-1v-0.5l-7 -7l-1 -1h-1q-11 -10 -22 -19q4 -5 9 -9q4 -3 8 -7q3 2 12 9q8 7 9 8l-7 12l-1 1q0 1 2 1h1l10 -11q3 2 5 5q2 2 17 13l-7 9v1
q0 1 1 1h1l9 -8q6 4 15 11h1t1 -1v-1q-2 -2 -14 -12q18 -16 23 -18q3 2 7 4q9 7 17 14q1 1 1.5 0t0.5 -2l-3 -3t-5.5 -6.5t-3.5 -4.5t-9 -6q6 -7 12 -15q5 -8 11 -16q8 6 19 14l9 6q-31 42 -41 58l-5 10l-10 9l-1 1q-4 8 -19 11l-2 1l-1 2q-3 7 -11 8q-3 1 -8 1h-3l-1 2
q-8 13 -23 10h-3l-2 2q-5 8 -14 8q-8 0 -10 -2l-3 -2l-2 3q-9 11 -25 -2l-1 -1h-2q-9 1 -13 -7q-3 -5 -3 -9v-1v-1zM53 332q-1 -11 9 -19q9 6 11 7q-2 3 -5 13q-2 6 -3 8q-7 -5 -12 -9zM63 306v-5q0 -10 7 -17l3 6h1l11 8q-4 12 -8 17q-9 -7 -14 -9zM77 268q2 -3 4 -5l6 6
l8 8q-5 3 -9 16q-4 -5 -13 -15l-1 -1q0 -3 5 -9zM91 243q3 -2 6 -3q15 12 19 16q-10 12 -16 17q-3 -3 -10 -12q-2 -2 -4 -5q-1 -8 5 -13zM101 234q0 -3 2 -6.5t4 -5.5t4.5 -3.5t3.5 -2t2 -0.5v-1l9 8l7 6q-4 5 -13 21q-3 -2 -9 -7q-8 -8 -10 -9zM132 195l7 -11q4 -3 9 -5
q3 2 5 5l7 7q-5 9 -7 9.5t-9 13.5q-5 7 -7 10q0 -1 -1 -1q-3 -2 -11 -10l-5 -5q3 -9 11 -13h1zM221 128q12 -9 29 -21q5 4 14 12q-17 21 -21 26q-2 -1 -22 -17zM340 -11q21 -11 61 11l-2 9q-1 3 -2 8t-2.5 11t-2.5 11q-3 42 -44 104q-7 -10 -8 -12q-11 -22 -19 -28
q-2 -1 -35 -24q13 -10 23 -18q24 15 33 23q13 10 17 16q1 1 1.5 1t1 -0.5t0.5 -1.5l-1 -1q-12 -18 -15 -21t-22 -15l-7 -7q11 -9 15 -11q33 -18 55 -10q1 -8 3 -16l-1 -1q-34 -10 -97 29q4 -5 12 -12t34.5 -18.5t53.5 -10.5l-7.5 -5t-18.5 -7.5t-26 -3.5z" />
    <glyph glyph-name="dog" unicode="d" 
d="M50 399l-1 13q1 4 10 13q1 1 5.5 6t8.5 9t6 5l21 3q23 -1 34 -1l8 -2t5 -3l2 -1q6 0 12 -3q3 -2 15.5 -12.5t16.5 -13.5q8 -6 15.5 -20.5t8.5 -27.5q1 -8 -1.5 -15t-6.5 -10l-3 -3q4 -8 9 -12q3 -2 4.5 -5t1.5 -5v-2q11 -5 21 -9q13 -4 24 -14q6 -6 46 -6q58 0 60 2
q15 9 19 51q4 41 -22 78l-4 4q-14 20 -9 24q3 2 8.5 0.5t12 -5.5t11.5 -9q26 -24 36 -74q3 -17 -1 -44t-7 -31q-2 -2 -1.5 -6.5t1 -8t1.5 -8.5t1 -8q1 -3 12.5 -16t15.5 -23q5 -13 8 -42q0 -6 1.5 -11.5t2.5 -7.5l1 -2q17 -32 21 -35q8 -5 7 -18q-1 -3 1.5 -10t5.5 -14.5
t3 -9.5l3 -31q5 -10 -7 -16q-10 -4 -19.5 -0.5t-12.5 7.5q-1 2 0.5 6t3.5 6l2 3q0 1 1 3t2.5 7.5t0.5 9.5q0 8 -8 19t-16 13q-5 2 -14.5 8.5t-16.5 11.5l-7 6q0 -1 0.5 -1.5t1 -3t1 -5.5t0.5 -7.5t-1 -8.5t1.5 -18t3.5 -17q0 -9 -13 -16q-13 -8 -25 3q-5 4 5 13q3 2 4.5 7
t2 9.5l0.5 4.5q2 6 -6 20q-8 13 -28 25q-4 3 -10.5 9.5l-11.5 11.5l-4 5q-18 -6 -33 -13q-7 -4 -21 -8.5t-25 -7.5l-11 -3q0 -29 -2 -38q-1 -5 -4 -30t-4 -27q0 -1 -1 -14.5t-2 -15.5q-4 -7 -9 -38q-2 -10 -20 -13q-12 -2 -25 3.5t-11 11.5q1 4 9.5 12.5t11.5 12.5
q6 8 8 20.5t1 17.5q-3 6 2 38q1 4 0 10.5t-3 13l-4 13t-4 10.5l-1 3l-30 14q-7 -34 -10 -53l-12 -44l-9 -32q-11 -11 -15 -14q-3 -2 -18.5 0t-20.5 5q-3 4 -2.5 5t3 4t3.5 5t2.5 3t3.5 1.5l4 1t4 0.5h1q15 21 16 24q1 2 3.5 19.5t1.5 20.5q-5 15 -2 38q1 6 -5.5 28.5
t-6.5 23.5l-4 50q-3 28 -4 36l6 39l-5 23q-18 8 -21 9l-29 12q-10 1 -15 5q-2 2 -4 7.5t-3 10.5v4q-1 2 -2 5t-2.5 9t-0.5 9q2 2 11.5 9t10.5 8z" />
    <glyph glyph-name="elephant" unicode="e" 
d="M500 -3q2 -8 -4.5 -14t-17.5 -8q-30 -5 -39 7q-2 3 -1 6.5t4 8t6.5 8l5.5 5.5l2 3q3 19 3 33q0 16 -18 30q-5 4 -12 18.5t-12 26.5l-4 12q-11 -6 -14 -15q-1 -5 2 -24.5t3 -21.5q0 -4 4.5 -25.5t4.5 -27.5q0 -20 -11 -24q-8 -2 -21 -2.5t-21 4.5q-3 5 -1 9t6 6l4 3
q6 17 6 31q0 10 -4.5 22t-12.5 17q-5 3 -11.5 14.5t-10.5 21.5l-4 10q-14 -33 -18 -46t-4 -83q0 -10 3.5 -23.5t7 -18.5t-1.5 -12t-16 -10q-19 -5 -42 0q-13 3 -11 18q1 2 8 17.5t6 21.5t-1 40t-2 41l-13 62l-8 -24q-9 -51 -11 -68q-2 -15 6 -57q2 -10 -1.5 -20t-11.5 -11
q-29 -6 -44 0t-9 15l4.5 4.5l5 5l5.5 5.5t5 6.5t2 7.5q2 11 1 38.5t-3 42.5l-13 85l-2 49q-31 -14 -37 -29q-3 -5 -7.5 -14.5t-9 -17.5t-9 -16.5t-5.5 -10.5q-2 -4 -5 -18t-6 -31t-4 -23q-11 -45 0 -71q2 -6 12.5 -9.5t8.5 -12.5q0 -3 -4.5 -6t-7.5 -3l-4 -1q-30 4 -36 19
q-5 12 -7.5 40.5t0.5 51.5q3 16 0 52q-39 -37 -35 -28q6 11 33 53q-1 8 -3.5 30.5t-2.5 30.5q-2 18 4.5 60.5t6.5 47.5q0 25 24 63q2 4 5 7.5t6.5 6t7.5 4.5l7 3.5t5.5 3t3.5 1.5l2 1q6 0 23 2.5t23 5.5q1 1 26 11t33 16q10 6 43 10t56 1q14 -2 38 -14t42 -25.5t18 -20.5
q0 -3 -0.5 -7.5t-1.5 -8t-2 -6.5t-2 -4v-2q39 -33 50 -53q24 -42 31 -87q2 -13 -1 -34.5t-6 -36.5l-4 -15q11 -55 13 -70q1 -8 0 -25t0 -19q1 -3 1.5 -5.5l1.5 -7.5t1 -9z" />
    <glyph glyph-name="frog" unicode="f" 
d="M490 43q5 -1 -2 -10q-4 -4 -7 -6q-12 -3 -22 -11q-35 -31 -52 -37q-21 -8 -47 -14q-11 -2 -29.5 0.5t-26.5 13.5q-5 7 -6.5 22t-1.5 27l1 12q-30 10 -37 11l-19 7q-1 -1 -3 -2t-6.5 -1.5t-6.5 3.5q-3 4 -20 -0.5t-21 -7.5q-3 -1 -2 -10t3 -12q4 -3 5 -18.5t-5 -26.5
l-15 -16q-15 -9 -30 -13q-6 -2 -12.5 -2t-11.5 0.5t-11 1.5t-8 1q-18 0 -41 8q-12 1 -30 11q-5 2 -11.5 4t-9 2.5t-1.5 2.5t10 2h-1q-12 5 -12.5 6.5t1.5 3.5q8 4 24 7q-18 -2 -16 2q4 3 11 5t12 3h5l28 -4q9 -6 24 -10q6 -1 12.5 -0.5t12.5 2.5l6 1q-21 33 -23 47
q-1 2 -3 12t-3 16.5t1.5 16.5t9.5 19q9 11 18 18t13 9l5 1q-21 33 -22 67q-1 15 1.5 32.5t6.5 31.5t8 26t7 18l3 7q-15 5 -19 17l-13 35q-2 16 1 24q12 23 12 25t-1 8q0 7 1 8q3 -2 5 -5t3 -5v-2q1 -20 0 -23q-7 -22 -1 -25q2 -1 4 -3l4 -4t4.5 -4t4.5 -3.5t4 -2.5t3.5 -0.5
t3.5 2.5q19 33 21 42l0.5 -0.5l0.5 -0.5q6 -7 12 5q5 12 -2 17v-1q12 15 28 16q22 0 34 -13q-9 -5 -1 -18q6 -10 12 -4v1l1 -1q4 -13 8.5 -22t7.5 -12l2 -3q6 6 10 9l12 9q-9 15 -10 22q-2 13 4 20q16 19 20 18q1 0 0.5 -2.5t-2 -6t-3 -7.5t-2.5 -8t0 -6q1 -3 7 -9.5
t6 -12.5v-20q-2 -27 -9 -33l-17 -13q6 -9 13.5 -24t19 -50t7.5 -55l-14 -61q26 -8 36 -22q16 -20 15 -41l-8 -57q11 -4 22 2q5 2 15 10.5t21 16.5t19 11q30 8 38 4q2 -1 -3 -3q-16 -8 -16 -11q17 6 24 3q5 -1 -1 -4q-8 -3 -8 -6h6h5z" />
    <glyph glyph-name="guinea-pig" unicode="g" 
d="M512 184q3 -39 -23 -51l-4 -28q-6 -10 -13 -10q-3 0 -4.5 2.5t-1.5 5.5v2q-6 -3 -15 -4q-6 -1 6 20q-17 -5 -26 -11q-8 -4 -31.5 -11t-31.5 -6q-9 1 -26.5 -5t-29.5 -14l-39 -27q-12 -13 -22 -16q-5 -2 -6 0.5t0 5.5l2 3q-2 -1 -4.5 -2.5t-7 -4t-7.5 -2.5q-4 2 -3.5 5.5
t2.5 6.5l3 3q-2 -1 -3.5 -2t-6.5 -2t-7 2q-3 3 4.5 8.5t17.5 8.5q11 4 10 10q-1 3 -4 3h-44q-9 0 -29 -5t-28 -6q-7 -1 -45.5 1.5t-44.5 5.5q-2 1 -10.5 3.5t-15 5.5t-14 13t-9.5 25q-3 20 5 43.5t18 37.5l10 14q-2 2 -6 5.5t-9 11t-3 11.5q3 7 12.5 9.5t19.5 2.5t12 1
t22.5 15t35.5 22q19 10 44.5 17t38.5 7q8 0 42 -4t40 -4l48 5q33 11 55 12t35 -4t36 -19q47 -28 55 -116zM85 162q8 -4 14.5 -2t6.5 9q0 9 -7.5 16t-18.5 0q-7 -18 5 -23z" />
    <glyph glyph-name="horse" unicode="h" 
d="M505 124q-2 -8 -2 -12v-43l3 -32q-1 -2 -0.5 -14t-0.5 -13q-1 -2 -1.5 -4t-0.5 -5.5t-1 -5.5q-1 -4 -0.5 -12t-1.5 -8q-2 -4 -11.5 -5t-15.5 1q-7 2 -2 10q9 19 12 29q2 4 1 15t-3 20.5t-4 19.5t-2 11l-15 29q-9 -32 -11 -37q-2 -4 -4.5 -24.5t-2 -22t-2.5 -5.5t-6 -3
q-2 0 -3 -3.5t-1 -7.5l-1 -4q-8 -5 -14 -6q-10 -1 -16 5q-1 1 0 4t3 5l2 3q11 11 15 16q1 1 2.5 8t2.5 17t1.5 19.5t1.5 17.5t1 9q0 4 -3.5 17.5t-5.5 17.5q-2 5 -5.5 18.5t-6.5 24.5l-2 11q-6 0 -10 1q-3 0 -6 3t-4 3q-1 1 -3.5 0t-3.5 -2l-2 -1q-24 -23 -63 -26l-67 1v-29
l5 -45q5 -35 7 -41q1 -5 0 -12.5t-4 -8.5q-1 -1 -0.5 -3.5t1.5 -5.5l1 -3q-1 -9 -6 -13q-4 -2 -10 -2t-11.5 1.5t-5.5 3.5q1 2 7.5 11.5t6.5 12.5q3 18 -1 44q0 2 -2 7l-4 10t-4.5 10t-3.5 8l-2 3l1 -26l3 -27q0 -1 1.5 -15t-0.5 -23q-2 -11 -2 -15l-4 -13q-11 -5 -16 -5
q-18 0 -21 7q0 1 3.5 4.5t7.5 6.5l4 3q8 7 9 20l-1 34q-2 11 -5 15q-2 1 -4 23q0 1 -1.5 6t-3.5 10.5t-4 11.5l-3.5 10.5t-2.5 5.5l-9 31q-5 4 -10 7q-1 1 -2.5 3.5t-2.5 5t-1.5 5t-1.5 3.5v2q-7 19 -9 24l-3 28q-20 25 -24 28q-2 2 -9 12.5l-9 13.5q-8 8 -16 9
q-2 0 -5 -1.5t-6.5 -4t-4.5 -3t-14 -8t-15 -8.5q-4 -1 -8 -9.5t-11 -8.5l-11 4q-7 3 -9 10q-1 7 2 19t6 17l16 26q6 12 8 17l17 21q-1 3 -2.5 7t-2.5 6l-2 3l7 1v6l22 -17q13 -5 17 -6q21 -4 39 -12l79 -43q20 -3 28 -6q5 -2 18 -9.5t14 -7.5q2 -1 19.5 -3t19.5 -2
q38 2 56 10q5 2 28 5t29 2q4 0 9 -1t9.5 -2.5l9 -3t8 -3t6.5 -2.5t5 -2l1 -1q17 -9 21 -15q6 0 8 -4q14 -23 17 -54q1 -13 1 -40v-48l-1 -21z" />
    <glyph glyph-name="chimpanzee" unicode="i" 
d="M435 -26q7 -5 5 -16q-1 -7 -11 -15q-9 -7 -29 -7q-1 0 -29 4q-4 1 -5 5.5t1 8.5l1 4q-9 11 -13 12q-15 5 -20 4q-2 -1 -13 -12q-3 -3 -9.5 -3t-12.5 2l-5 1q-16 -4 -25 -6q-5 -1 -9.5 -1t-8.5 1l-3 1q-1 0 -1.5 -0.5t-3 -1t-4.5 -1t-5 -0.5h-5q-4 1 -5.5 4.5t-4.5 5.5
q-3 1 -6 -0.5t-7 -4t-8 -2.5h-5.5t-3 2.5t-1.5 3t-2 5.5q-1 3 2.5 9t6.5 10t0 4q-2 0 -3.5 1.5t-3 3.5t-2.5 4t-2 3l-1 1q-15 9 -22 9l-21 -5q-10 -10 -10 -16q0 -3 5 -5t9 -2q8 0 11 -10q1 -4 -12 -17q-11 -10 -34 0q-4 2 -12 4t-13 4.5t-7 7.5q-4 7 -6 25t-1 24v82
q0 7 -1.5 21t-2.5 27t-1 18q1 3 3 8.5t5.5 10.5t6.5 9.5t5 6.5l3 3q35 57 38 67q0 3 4 11t8.5 17.5t9 18.5l7.5 15l3 6q2 27 0 38q0 7 -9 18.5t-9 12.5q-4 6 1 11.5t13 7.5q5 1 11 0t10 -3l4 -2q14 21 44 21q13 0 25 -4.5t18 -8.5l5 -4q2 1 5 2t9.5 2.5t8.5 -0.5
q9 -7 14 -25q1 -3 1 -6.5v-7.5t-0.5 -8t-1 -7.5t-1 -6.5t-0.5 -4l-1 -2q12 -5 21 -12q26 -18 28 -30q1 -7 13.5 -29t12.5 -28q1 -6 30 -58t29 -53q3 -7 1.5 -45.5t-5.5 -47.5q-7 -20 -7 -62q0 -24 6 -29zM174 153q4 11 4 27.5t-11 33.5q-23 -44 -27 -48q-2 -2 -5.5 -9
t-6 -14.5t-1.5 -10.5q1 -6 35 -23q4 -1 5.5 5t3.5 19.5t3 19.5z" />
    <glyph glyph-name="chicken" unicode="k" 
d="M438 364q-1 -4 -2.5 -11.5t-3 -13t-1.5 -6.5q0 -18 18 -68q8 -25 8.5 -47t-5.5 -37t-10 -22t-8 -12q-2 -2 -7.5 -5.5t-12 -7.5t-13 -7.5t-10.5 -5.5l-5 -3q-30 -27 -33 -30q-2 -2 -19 -11t-19 -9q-1 -1 -5.5 -7t-9.5 -14t-7 -9l-8 -9l5 -43q0 -4 13 -28q5 -5 13 -7
l6 -0.5t7 -0.5q1 -1 3 -1q17 2 19 2q2 -1 3 -3h3l3 -4l-4 1h-4l-15 -1h-2v-1l8 -1h7l4 -4h-3h-3l1 -1h-21l-12 3v0q-14 3 -16 4l-1 1h-1v-2l-2 1h-8h-7l1 -1q5 -1 7 0q1 0 3.5 -0.5t3.5 -0.5l5 -4q-4 1 -5 0q-4 -2 -8 -2q-2 0 -7 1l-23 2q-8 2 -11 3q-2 0 -4 1h-12
q-1 1 -7 1t-7 0.5t-15 -0.5h-3h-3q0 2 11 6l7 0.5t8 1.5q2 0 8 5q4 4 3 6q-1 9 -6.5 25.5t-12 32t-6.5 16.5q-1 3 -13 10.5t-25.5 15t-15.5 9.5q-6 5 -19.5 23t-15.5 24q-1 4 1 9.5t4 8.5l3 4q-21 13 -28 16q-11 4 -19 17q-4 7 8 11q-15 19 -20 23q-7 5 -7 17q0 2 3 2h5h3
q-16 8 -22 16q-8 12 -13 28l4 12l-3 10q1 2 3 3t5 1h2q-2 3 0 8q1 2 6 2h9l5 -1l20 -9l0.5 1.5t2.5 3t5 0.5q4 -1 16.5 -11t17.5 -11q7 -3 31.5 -4.5t38.5 -0.5q5 1 11.5 0.5t12.5 -1.5t11 -2t9 -2h3q2 0 5.5 0.5t12.5 1.5t14 0.5t12.5 2t17 6.5t14.5 6q8 3 15.5 16t15 33
t8.5 21q3 7 7.5 14.5t8.5 12.5t7.5 9.5t5.5 6.5l2 2q7 9 11 13l9 4l-3 6q-2 7 0.5 13.5t6 8t6.5 -4.5q2 2 3 5q4 4 7 -8q1 0 4 5q8 -8 11 -18q0 -3 -1.5 -6t-3.5 -4l-2 -1l11 -11q13 -5 14 -10l-17 -4q-9 -16 -11 -26zM279 -32q0 10 -7 34q-13 37 -13 38q-23 -6 -24 -11
q-1 -4 2 -18.5t4 -17.5q1 -1 5.5 -9.5t8 -15.5t3.5 -8q0 -2 3.5 -3.5t6.5 -0.5q1 0 3 1q7 1 8 11z" />
    <glyph glyph-name="armadillo" unicode="l" 
d="M496 143h4t7.5 -0.5t4.5 -2.5q-1 -3 -7 -4q-8 -3 -24.5 -6t-21.5 -4q-12 -3 -14 -3q-5 -1 -21 -2t-22 -1l-29 5q-1 1 -7.5 3t-13 5t-9.5 5q-4 3 -18 11q-1 0 -5 2l-1 -6q-1 -3 -2.5 -5.5t-2.5 -5.5q-1 -1 -1 -3.5t-2 -3.5q-3 0 -4 -4q-1 -3 -3.5 -4.5t-6.5 -2t-5 -1.5
l-7 -3.5t-6 -2.5l-6 -2q-6 -3 -23 -4q-11 0 -15 3q-2 3 -2 3.5t6 3.5q2 1 8.5 4.5t10.5 6.5t7 7q-2 -1 -10 -2q-2 -1 -6.5 -1h-5.5l-8 -3h-7q-5 -1 -8 -1v2h-5q-2 1 0 4q3 3 13 8h-2h-3q-4 -1 -8.5 -0.5t-8.5 0.5h-4h-4.5t-4.5 2h-14.5h-17t-14.5 -2q-9 -2 -10 -6
q0 -5 -6 -13q-5 -2 -5 -7q-5 -6 -7 -7v-1h-1q-4 -8 -13 -6q-2 2 2 6q-1 1 -2 0.5t-2 -1.5t-3.5 -2t-5.5 0l-1.5 1t-2 1.5t-2.5 0.5t-3 2q-5 3 8 15q0 1 3 3t3 5h-1q-2 -1 -3 -1l-1.5 -1.5l-5.5 -5.5q-11 -10 -12 -11q-13 -5 -15 1q-1 0 -3 -0.5t-3.5 0.5t-2.5 3l-0.5 -0.5
t-1.5 -0.5q-8 0 0 12q4 4 8 5q2 0 10 7q1 3 -2 4q-2 0 -3 1q-2 1 -7.5 0t-6.5 -2q-3 -3 -7 -4q-4 0 -6 -4q-1 -2 -2 -2q-10 -10 -22 -14q-7 -3 -10 1q-4 6 1 13h3q0 2 1 5.5t2 5.5q1 1 3 4q1 3 2.5 11.5t2.5 15t1 7.5q1 5 3.5 9t6 9t5.5 7q-12 4 -16 9t-4 15q1 6 3 7
q1 1 4 -1l2 -2l2.5 -2t5.5 -3q2 -1 5.5 -1h6h2.5q6 -1 7 -6l1 1q2 4 3 5v1q1 0 1.5 2.5t2.5 3.5q21 25 25 29q11 -1 25 -7t22 -12l8 -5q-10 19 -46 32q19 14 37 19q8 -2 15.5 -5.5t13.5 -7t10.5 -7.5t6.5 -6l3 -3q-8 24 -33 34q20 4 38 2q12 -6 23 -18t16 -20l5 -9
q-1 24 -26 45q12 -2 25 -6q27 -8 31 -12q10 -4 18 -9t13 -8.5t8 -6.5t4.5 -4t1 -1.5t0.5 -0.5q5 -6 8 -11q13 -19 11 -37q0 -4 3 -6q11 -4 26 -21q10 -8 21 -15q19 -11 56 -14q6 1 7 0q1 0 2 -1q3 1 15 1.5t26 0.5h18zM202 142z" />
    <glyph glyph-name="finch" unicode="n" 
d="M512 405q0 -1 -1.5 -2.5t-4.5 -4t-6.5 -5t-8 -4.5t-8.5 -4.5t-8 -4.5t-7 -4t-5 -2.5l-2 -0.5q-4 -7 -10.5 -12.5t-9.5 -11.5q-7 -20 3 -76q2 -12 2.5 -40.5t-2.5 -48.5q-3 -13 -7 -25t-8.5 -20.5t-9.5 -16.5t-9.5 -13t-8 -9t-5.5 -6l-3 -2l-42 -29q-19 -14 -23 -24
q-1 -2 -1 -6t0.5 -7.5t1.5 -7t2 -5.5l1 -2q5 -12 20 -24q23 -17 31 -17h6q27 0 54 -6q7 2 12 2q3 1 8 -1t8 -5l3 -2l-17 1l-3 -1l13 -6q10 1 18 0q7 -1 7 -9q-1 2 -22 2q-4 0 -13 2q-15 -1 -19 0h-60q-11 0 -44 -2q-16 -3 -17 -1q0 1 2 2q6 10 15 7q2 -1 5 -1l14 8l-8 12
q-34 16 -47 22q-8 3 -26 3t-20 1l-30 2l-8 -14q0 -1 0.5 -2t1.5 -4.5t2.5 -6t5 -4.5t7.5 -2h3q14 0 28 -4l1 1q1 1 3 1.5t7.5 1.5t7.5 -2q3 -2 9 -10q3 1 5 1h3q2 -1 3.5 -5.5t0.5 -8.5v-4l-7 7l-50 4q-24 -2 -49 0h-21q-5 0 -12 -3t-10 -3l-8 -7l-2 8q10 20 19 14
q3 -2 10 0l17 6l10 6l-14 20l-29 22l-43 6q-9 -9 -18.5 -17t-17.5 -14t-16.5 -11.5t-14 -8.5l-11 -6t-6.5 -4q-27 -15 -29 -7q4 13 24 47l26 43q27 53 41 71l45 61q33 31 48 53q7 10 21.5 28.5t25.5 32.5l12 13q11 42 20 63q4 8 12 18.5t18 21t23 21t25 17.5q15 8 39.5 8
t40.5 -4l17 -4q72 -25 74 -35zM407.5 390q4.5 0 8 3.5t3.5 9.5q0 3 -1.5 6t-4 4.5t-5.5 1.5q-5 0 -8.5 -3.5t-3.5 -9t3.5 -9t8 -3.5z" />
    <glyph glyph-name="hedgehog" unicode="o" 
d="M193 370q76 7 118 0q6 -5 17.5 -4.5t18.5 -2.5q16 -7 19 -7q6 0 16.5 -4t16.5 -4q4 -7 18 -12.5t18 -11.5q1 -3 7.5 -5t7.5 -6q1 -3 2.5 -5.5t5 -5t4.5 -3.5q10 -8 24 -27q8 -10 7 -13q0 -8 9 -15q6 -4 5 -22q0 -7 5 -11v-47h-2q-3 1 -3.5 0t0.5 -2q1 -3 -0.5 -7l-1.5 -4
q0 -6 -3.5 -14t-4.5 -12q-1 -19 -12 -21q-14 -3 -22 -17q-10 -17 -15 -19q-14 -6 -38 0q-3 1 -2 6q1 6 6 11q3 3 2 5q-2 2 -7 -1q-2 -1 -13 -0.5t-12 -6.5l-1 0.5l-1 0.5q-3 1 -6 0.5t-8.5 -2t-7.5 -1.5q0 -3 -2 -2q-3 1 -5.5 0.5t-5.5 -1.5t-4 -1.5t-2 1.5q-3 5 -7 4
q-5 -2 -9.5 -1.5t-5.5 1.5t-2 -1q0 -9 -4 -9q-8 1 -12 -12q-3 -9 -13 -21.5t-13 -16.5q-4 -7 -11 -8q-23 -1 -32 2q-10 4 -3 13q6 8 16 11l-14 1q-6 2 -8.5 6.5t0.5 7.5q5 4 5 12q0 5 -4.5 5t-6.5 1q-1 1 -2 1q-20 5 -35 0q-10 -2 -16 4q-17 17 -48 9q-4 -1 -5 -3
q-1 -1 -4 -1.5t-7 -1t-6 -1.5q-6 -3 -22.5 -8t-24.5 -10q-7 -5 -16 -4t-13 7q-8 10 3 25q0 1 1 2q17 28 2 64q0 1 -2 5l-3 6t0 5t4 6q1 1 0 4q-2 3 -9 12.5t-9 16.5l-3.5 3.5t-0.5 5.5q13 22 12 30l3 1q8 -2 15 11q1 1 1 2.5t0.5 3t1.5 1.5q8 3 17 15.5t17 16.5q20 7 22 20
q0 1 3 2l2 2l9 4.5t10.5 4.5t8.5 5q1 0 8 7t14 8q9 1 27.5 7t20.5 10z" />
    <glyph glyph-name="pig" unicode="p" 
d="M510 175v-6l-1 -3q-3 1 -3 12l-4 14q-3 -32 -5 -41q0 -2 -1.5 -7.5t-2.5 -9.5t0 -7q2 -8 0 -11q-1 -1 -1 -3t0.5 -3.5l1 -3t0.5 -2.5v-20q-1 -4 2.5 -11t2.5 -11q0 -14 -2 -17q-1 -1 -2 -5t-2.5 -6t-4.5 -2q-3 1 -6.5 6t-4.5 8l-0.5 3.5t-1 8t-1.5 7.5q-2 3 -2 15t-2 15
t-11 11t-13 10q-1 0 -6.5 5t-10.5 8.5t-7 3.5q-2 -1 -1.5 -4.5t1.5 -10t1 -8.5q-1 -7 -7 -17q-1 -1 -6 -13t-7 -15q-2 -2 -3 -5.5t-2 -5t-1.5 -1t-4 -2t-6.5 -2.5h-7t-7.5 0.5t-4.5 2.5t4 5.5l5 3.5l4 4.5t4 6.5t2.5 6t5 8.5t2.5 6.5q1 4 -11 31l-4 3l-2 -6q-2 -1 -2 0l-2 4
l-13 2v-5l-2 -1l-4 5l-10 -3q1 -6 0 -7l-4 1l-3 5l-13 -2h-6l-2 -6q-2 0 -3 2t0 3v2l-15 5l-3 -7q-2 1 -2.5 3t-0.5 4v1q-6 0 -8 -4q0 -1 -6 -22t-8 -23q-4 -4 -4 -34q0 -12 -1 -13l-6 1q-3 -6 -9 -9.5t-14 -3.5q-2 0 -3 1.5t-1 3.5v2l-9 2l8 12q6 7 9 23q3 14 -2 34
q-6 27 -8 31q-2 3 -3.5 4.5t-4.5 1t-4.5 -0.5t-4.5 -1t-4 -1l-38 -18q-7 -14 -8 -17q-5 -14 -18 -39q-1 -2 -5 -21l0.5 -5t-1.5 -6q-1 -2 -3.5 -0.5l-2.5 1.5q-2 0 -4 -1t-5.5 -2.5t-5.5 -2.5q-7 -3 -16 0q-2 0 -1 3q0 1 -2 1l-8 4q7 4 11 7q3 2 16 19q4 4 6 14t2 18l1 8
q-8 -3 -16 -5q-5 -1 -9.5 -0.5t-7.5 0.5l-3 1q-8 3 -10 3q-1 0 -4.5 -0.5t-7.5 -0.5t-6 1l-10 7q-4 1 -7 5q-3 3 -5.5 10t-1.5 11q1 2 2.5 3.5t2.5 3t2.5 3t2.5 3.5q3 6 4 21l3 34q-6 11 -8 17q-3 8 -23 22q-22 17 -24 22q-4 13 1 15q2 0 3.5 -1t4.5 -4t5 -4q3 -2 7.5 -3
t7.5 -3t12.5 -3.5t16.5 -1.5h8q1 4 9 10t9 6q0 1 15 16t16 17q0 1 2 2.5t4.5 3l5 3t3.5 2.5l2 1l8 6q8 4 9 5l6 3l8 4l7 4l13 1l14 6h6l9 6h7l8 2l3 -2l11 3q1 -1 3.5 -1.5t8.5 0.5q4 1 16.5 0t25 -3t30 -4.5l24.5 -3.5q13 -1 32 -9t31 -15l13 -6q30 -15 34 -19l31 -27
q1 0 2.5 1t6 2t7.5 -2q5 -3 -1 -22q-2 -7 2 -17q0 -1 1 -7t1.5 -13.5t1.5 -9.5q1 -6 -2 -18zM51 118q0 2 -0.5 4t-1.5 3.5t-2 0.5l-1 -14l1 1q3 1 4 5zM67 107q1 3 -0.5 9.5t-5.5 7.5l-3 -12q2 -3 5 -5t4 0zM116 178q4 4 3 7q-4 1 -10 -2q-2 -1 -3 -3.5t-2 -4.5v-2q1 1 12 5
zM498 241q1 0 1.5 0.5t1.5 4t0 9.5l-6 -4z" />
    <glyph glyph-name="monkey" unicode="r" 
d="M497 405q7 -13 7 -21q-1 -7 -10 -10l-5 -21l3 -19q2 -5 0 -13l-12 -13q-4 -6 -7 -10l-14 -5l-15 -6l-4 -8q1 -16 0 -26q-1 -11 -12 -30q-1 -3 -5 -11t-7.5 -14.5t-8 -14t-7.5 -11.5q-5 -4 -5 -9.5t2 -9.5l2 -4q3 -6 11 -11.5t12 -12.5q2 -4 3 -9t0 -8t-2.5 -8.5
t-1.5 -6.5q-2 -5 0 -17t1 -14q-2 -4 -10.5 -12.5t-12.5 -10.5q-8 -2 -21 13q-3 4 -1.5 9t5.5 6q3 0 6 -2.5t5 -5.5l3 -2q-3 6 -5 14q-1 4 2.5 7t3.5 4q-6 16 -7 16l-12 9l-8 -19q-1 -27 3 -41q1 -7 0.5 -13t-1.5 -9l-2 -3l5 -11q16 -16 19 -26q2 -6 1 -10.5t-3 -6.5l-2 -3
q7 -13 8 -22q0 -2 -1 -3.5t-3 -1.5t-4.5 0.5t-5.5 1.5t-5 1l-29 1q-16 -1 -27 0l-26 -2q-26 -1 -42 -5q-8 -1 -11 0.5t-3.5 4t-1 2.5t-7.5 2t-12 2l-19 4q-17 4 -23 4q-1 0 -14.5 -3.5t-27 -5.5t-30.5 0q-24 5 -42.5 25t-20.5 54q-2 23 8.5 66.5t10.5 84.5q1 37 -28 42
q-27 5 -26 14q1 4 5 6q6 1 15.5 0.5t22.5 -5.5t20 -14q13 -15 14 -37t-12 -85q-5 -24 -6.5 -42.5t0 -30t5.5 -21t8.5 -14.5t10.5 -10q14 -9 37 -4t27 14q10 19 2 38q-2 9 -1.5 27t2.5 36l2 18q12 61 19 89q7 25 27 58.5t46 57.5q14 12 30 22t27 14.5t21 8t11 3.5q10 6 23 23
l9 30q17 17 22 24q5 6 35 11q5 1 9.5 0t7 -2t6 -2.5t5.5 -2.5q3 -1 14.5 -8t13.5 -7.5t5 -5.5t4 -10zM466 360q3 0 3 2.5t-1 4.5v2q1 4 -6 7q-6 1 -9 -8q8 -8 13 -8z" />
    <glyph glyph-name="scorpion" unicode="s" 
d="M499 198q6 -16 5 -31.5t-5 -24.5q-14 -29 -35 -34q-2 -1 -16 -1q3 0 7 6q1 1 6 3q3 0 5 7q1 2 4 2q2 0 3 1q2 1 1 7q-1 4 1 9q-2 -5 -11 -6q-4 -1 -4 -7q0 -2 -1.5 -3t-4.5 -1.5t-4 -0.5q-3 -1 -2.5 -3.5t-0.5 -3.5q-7 -3 -16 -2q7 7 14.5 20t7.5 17q1 3 -1 9.5t-4 12.5
t-2.5 5.5t-4.5 -1t-9 -1t-7 -0.5q-2 -1 -3 3q-1 3 -2 3q-3 0 -3 -3q-3 -20 -10 -28q-4 -6 -11 -7t-12 0l-5 1q-1 -6 -4 -11q-4 -8 -14 -8h-4q0 -4 -0.5 -9t-1.5 -9t-2 -7t-2 -5l-1 -2q-1 0 -1 5q0 4 -0.5 6t-2.5 4t-4 3l-1 1l7 -24q0 -1 -4 1l-2.5 1.5t-5 2.5t-4 1t-5 2.5
t-6.5 4.5l-2 2q0 -3 -1 -6l-5 -1q4 -10 4 -13q0 -8 -8 -15q-2 -2 -4.5 -3.5t-4.5 -1.5h-2q-4 -14 -7 -19t-24 -15q-1 -1 -3.5 -1.5t-3.5 -1t0 -0.5l1 -9q10 9 22 14q15 7 46 -1q2 -1 8.5 -2.5t12 -3l11 -3t6.5 -1.5q8 -1 13 0q6 2 13 2q2 0 0 -4q6 2 8.5 4t4 2.5t1.5 -2.5
q-1 -15 -18 -35q-20 -26 -70 -29q-8 0 -18 3.5t-17 6.5l-6 4q-30 13 -32 17q-2 3 -5.5 14.5t-3.5 14.5l6 13q0 10 1 14q1 3 8 11.5t12 10.5l20 2q-1 4 0 7l6 12l-9 -3l-6 2h-14q-10 2 -19 8l-23 5q-6 -10 -7 -11l-11 -10l-2 -3q3 -8 5 -11q1 -3 4.5 -13t3.5 -14l1 -5
q1 -2 2 -5q0 -2 -3.5 -9t-4.5 -8q-4 -3 -5 -1q-1 1 -1 2.5t1 4.5t1 5l4 5l-3 4q-17 42 -17 48l5 8l-2 7q0 2 3.5 6.5t7.5 7.5l3 3l-12 11q-28 -23 -30 -24l-8 -2l4 -4q1 -2 7 -17t5.5 -19l-0.5 -4v-1q1 -3 -3 -6q-1 -1 -3.5 -7.5t-3.5 -7.5q-3 -2 -5 2q-1 1 5 19l3 3
q-1 1 -1.5 2.5t-2.5 5.5t-4 7.5t-4 8t-4 8t-3 6.5t-1 4l3 7q-3 3 0 8l28 23l-10 6q-24 -17 -26 -19l-6 -1q8 -34 8 -37l-2 -5q0 -5 -1 -7q-8 -11 -10 -13q-1 -2 -3 -1.5t-2 3.5q0 5 4 16l4 5q-9 36 -10 39l3 6l-1 5l24 19q-9 8 -12 10l-2 4q-26 -18 -29 -22l-4 -2t-3 -1
t-1 -1q1 -1 6 -17t5 -19l-1 -6q2 0 0 -5q-2 -3 -9 -8.5t-9 -4.5q-6 1 -2 5q2 2 8 11l5 4l-2 4q-12 31 -14 36.5t4 5.5q-2 0 0 7q2 6 17 15.5t20 10.5l7 -3q0 2 1 5q1 1 3.5 1t4.5 -0.5t2 1.5q0 1 -4 4.5t-9 8t-6.5 6t-3 4t-2.5 5.5t-3 6t-3 5q-2 3 -3 10.5t-1 14.5v6
q-16 4 -27 11q-6 4 -9 10.5t-4 11.5v5q-4 1 -7 2q-14 4 -24 16q-2 2 -4 5.5t-3 7.5t-1.5 7.5t-0.5 5.5l-1 2q-8 8 -14 16q-3 4 -2.5 10t1.5 11l2 5l-4 27l12 14q-2 4 2 8q2 4 34 7l5 -3q5 2 7.5 5t11 3.5t16.5 -4.5q4 -3 6.5 -7.5t3.5 -8t2 -7.5t1 -5l2.5 -5t2.5 -3.5t5 0.5
q4 1 6 3.5t2 4.5v2q3 -12 -11 -17q-19 -7 -47 16l-5 2q-4 -3 -7 -5l-17 1q1 -11 2 -16q1 -3 0 -6t-3 -4l-2 -2q5 -11 8 -16q1 -2 1 -6.5v-7.5l-1 -4q14 -1 25 -14q6 -6 7.5 -13t0.5 -10l-1 -4q7 -3 12 -3q4 0 13 -5t13 -10q2 -2 4 -6t2 -7l1 -2l3 -2l26 2l11 -5q10 -2 17 -3
q3 0 46 -16l5 -2.5t5.5 -3.5t5 -3.5t3.5 -2.5l1 -1q-26 33 -28 43q-2 7 2.5 13t9.5 6l7 -4h8q2 0 7 -5l9 -9l4 -4l4 -2q12 14 16 14l9 -3q6 0 7 -1q1 0 5 -3.5t8 -7.5l5 -5l2 -2q10 1 12 2q3 1 3.5 1t0.5 -3q-2 -2 -11 -4l14 -15q7 1 13 -1q3 -1 9 -5.5t10.5 -9.5t5.5 -6
l1 -5l10 -1l8 -1q-2 -4 -6 -5l-11 2l-4 -1q-1 1 -4 3t-6 4.5t-6 4.5t-4 3l-6 7l-9 -12l-8 -4q5 -7 7 -9t4 -15t1 -18l-8 -12q2 0 5 -3l8 -10l14 7t4 -0.5t3 -0.5l0.5 1t1 3t1 5t1.5 5.5t2 6t2 5.5q4 8 13.5 10t13.5 0l6 1q1 5 4 9q1 1 6.5 3t11.5 3l5 1q1 13 4 17q7 10 22 7
q5 0 12 -5t13.5 -13.5t9.5 -17.5zM272 216l-3 8q-6 16 -6 18l1 11l-1 8l-3 6h-5l-20 12l1 -9q22 -30 23 -34l1 -12q10 -5 12 -8zM299 195l6 -7v-1v1q-3 3 -3 6q0 2 -2.5 8t-3.5 9l-5 14l2 10l-3 7q1 2 4.5 7t7.5 10l4 4q-6 6 -8 6q-7 2 -7 3q-14 -19 -16 -20q-1 -1 0.5 -3
t4 -6.5t3.5 -6.5l13 -35zM331.5 236q0.5 1 -3 4t-7.5 6.5t-4 4.5l-5 4q-8 -21 -10 -22t3 -7q1 -1 3 -6t4 -10.5t3.5 -10.5t1.5 -7l-2 -11q1 -1 3 -2l13 -8q-7 26 -8 32l1 14l-2 5q0 1 4.5 7t5 7z" />
    <glyph glyph-name="rabbit" unicode="t" 
d="M491 68l5 1q2 -1 0 -6q-8 -20 -22 -27q-4 -2 -15.5 -2.5t-20.5 0.5h-10q-23 -4 -34 -5l-53 -3l-23 1q-8 -2 -51 6q-2 1 -7.5 1t-13 -0.5t-8.5 -0.5q-4 0 -15.5 3l-11.5 3q-15 0 -16 3q0 1 0.5 3.5t1.5 4.5t2.5 4t1.5 3l1 2q-6 0 -7 1l1 9q2 7 6 12q2 2 6.5 3.5l7.5 2.5h3
q-1 8 -4 12q-1 1 -4 3t-7 3.5t-8 3.5t-7 3l-3 1q-22 16 -31 19q-6 2 -16 13t-12 15q-1 0 -8.5 6t-10.5 8q-1 3 -1 5.5t1 4.5l1 2q-11 1 -25 3l-25 4q-12 0 -20 1q-10 3 -14 10l-1 11l-5 1l-2 8q0 11 14 26q21 25 24 27t6 7t5 6q3 3 17 8.5t18 6.5l17 5q9 2 11 9q1 3 2.5 8
t1.5 6q1 1 2.5 3t3.5 6.5t3.5 13t5 15t8 11t5.5 6.5q2 4 32 13q2 1 5.5 0t4.5 -1.5t3.5 -2.5t3.5 -3q2 -1 2 -10t-1 -17l-1 -8q1 -17 -4 -27q-14 -23 -24 -29q-2 -2 -3.5 -4.5t-1.5 -3.5l-1 -2q-1 -3 -1.5 -6.5t0.5 -7.5q11 -1 11 -6q0 -1 3.5 -0.5t7.5 1.5t5 2q2 2 12.5 4
t17.5 1l25 -3q2 2 7 4t20 5t31 2q2 0 15.5 -3.5t27.5 -3.5q10 0 24.5 -10t24.5 -19l9 -9q31 -62 35 -74l12 -55q5 3 11 0q3 -1 4 -4.5t1 -5.5v-3q1 1 2 1.5t3.5 1.5t3.5 -3q2 -2 2.5 -5.5t0.5 -5.5v-3q5 5 6 0q1 -2 -0.5 -7t-3.5 -9zM103 263q1 8 -9 10q-10 1 -17 -3
q-7 -7 -8 -10v-9q-3 -3 1 -3l8 1l12 -1q4 2 8.5 6.5t4.5 8.5z" />
    <glyph glyph-name="fungus" unicode="u" 
d="M391 182h-64q-11 -8 -19 -24q-4 -10 -8 -30.5t-6 -35.5l-1 -16q-2 84 10 109q-40 5 -62 4l-9 -130l1 130q-9 0 -24.5 -0.5t-21.5 -0.5q15 -51 13 -72q-13 54 -27 71q-3 0 -12 1.5t-20 3.5t-21 4.5t-17 3.5l-7 2q7 -1 18 -2t38 -2.5t32 1.5q10 2 27 2t38.5 -1t29.5 -1
q11 0 63 -6zM490 325q31 -77 4 -128q-11 -19 -25 -29t-21 -11q-33 -7 -44 -13q-5 -3 -15 -3q-5 0 -15 0.5t-14 0.5h-6q-7 -1 -9 -8q-1 -8 -11 -14h-1q-5 -20 -1 -58q1 -5 6 -27q10 -37 11.5 -52.5t-4.5 -25.5q-19 -22 -87 -22q-66 0 -92 21q-7 6 -8.5 18t0 21.5t5.5 27.5
q3 18 4 25q2 53 -11 92q-3 7 -28 19q-16 2 -25 3q-51 3 -68 18q-15 13 -24 41q-12 36 0 69q33 95 124 136q51 22 107 22q16 0 27 -2h8q167 -6 213 -121zM484 206q19 38 -10 113q-44 109 -192 114q-8 0 -10 1q-10 1 -24 1q-48 0 -105 -25q-50 -22 -80 -57t-41 -67
q-10 -28 1 -55t23 -37q13 -11 58 -14q10 -1 27 -4h2h1q33 -16 38 -31q16 -43 14 -84q-1 -7 -5 -27q-13 -65 -8 -69q6 -5 19 -9l-2 1q12 44 12 60l1 -62l1 -2q25 -6 54 -6l-2 42l21 -41q17 2 32 7q-6 36 -3 61q1 6 3 -6q4 -31 13 -51q9 5 13 9q4 10 -10 63q-5 23 -6 29
q-7 66 2 73q2 1 3 2q3 1 4 2q1 7 7 14t16 8q3 1 9 1q7 0 14 -1h15h1h6q5 3 46 8q6 1 20 12t22 27z" />
    <glyph glyph-name="virus" unicode="v" 
d="M408 176q-1 -14 -5 -27q1 -3 3 -7t11.5 -11t22.5 -9h4q12 0 21 -6q4 -2 8 -6t7 -9t4.5 -10.5t1.5 -10.5q0 -11 -5 -21q-13 -21 -37 -21q-11 0 -21 6q-11 6 -17 19q-16 19 -36 19q-3 0 -6 -1h-1q-9 -9 -19 -17l-1 -1q-9 -20 11 -44q11 -8 16 -20q2 -7 2 -14q0 -18 -12 -30
t-30 -12q-12 0 -23.5 8t-15.5 19q-3 7 -3 14q0 6 2 12q0 31 -20 41h-2h-12h-12h-2q-20 -10 -20 -41q2 -6 2 -12q0 -7 -3 -14q-4 -12 -15 -19.5t-24 -7.5q-18 0 -30 12t-12 30q0 7 2 14q5 12 16 20q20 24 11 44l-1 1q-10 8 -19 17q-4 1 -7 1q-20 0 -36 -20q-5 -10 -16 -17
t-22 -7q-10 0 -21 6t-16 15q-5 10 -5 21q0 6 1 11q5 17 20 25q9 6 21 6h4q8 1 15 4.5t11 7t6.5 7t3 5.5t1.5 3q-4 13 -5 27q-9 14 -33 14q-5 0 -11 -1q-9 -5 -18 -5q-22 0 -34 18q-8 11 -8 24q0 4 1 8q1 9 7 17t15 12.5t19 4.5q17 0 30 -12q13 -8 26 -8h1q9 0 17 4
q7 14 15 26q0 22 -25 37q-13 3 -22.5 15t-9.5 25v4q2 17 15 28q12 10 27 10q20 0 32 -15q9 -10 10 -23q10 -27 31 -32q14 7 29 11q14 17 4 44q-8 11 -8 24q0 11 5.5 21t15.5 15.5t21 5.5q9 0 16.5 -3.5t13 -9t9 -13t3.5 -16.5q0 -13 -8 -24q-10 -27 4 -44q15 -4 29 -11
q21 5 31 32q1 13 10 23q12 15 32 15q15 0 27 -10q15 -12 15 -32q0 -15 -10 -27q-9 -10 -22 -13q-25 -15 -25 -37q8 -12 15 -26q7 -4 17 -4q14 0 27 8q10 9 23 12h7q15 0 27 -10t14 -24q1 -4 1 -7q0 -10 -4.5 -19t-12.5 -15t-18 -8q-3 -1 -7 -1q-9 0 -18 5q-6 1 -11 1
q-24 0 -33 -14zM395 177q0 5 4 7l2 2q15 20 37 20q4 0 15 -2h3q1 -1 2 -1q6 -3 12 -3h5q11 2 18 11.5t5 20.5q-2 9 -10 15t-18 6q-12 0 -19 -8l-2 -2q-22 -13 -35 -13q-12 0 -26 9h-1q-3 1 -4 4q-1 1 -3 7q-7 17 -12 24q-2 2 -2 4q0 1 1 3q0 29 33 48q1 0 2 1q12 2 16 7
q7 9 6.5 21.5t-8.5 19.5q-7 6 -20 6q-15 0 -23 -9q-5 -6 -6 -15v-2q-6 -18 -16.5 -29t-16.5 -13t-10 -2h-2h-3q-2 1 -5 3q-16 9 -25 9q-3 0 -4 3h-1q-21 24 -8 59q0 1 3 3l2 1q5 7 5 16q0 11 -9 19.5t-20 8.5q-8 0 -15 -4t-11 -10.5t-4 -12.5q0 -10 5 -18q1 -1 1 -2
q14 -36 -8 -59q-2 -2 -4 -3q-7 -1 -19 -8l-8 -4q-3 -2 -6 -1q-33 5 -45 41v2q-1 9 -6 15q-10 11 -26 11q-9 0 -15 -4q-7 -7 -9 -20q0 -10 9 -21q6 -7 14 -9h2q35 -20 35 -52v-2q0 -2 -2 -4q-2 -3 -8 -10q-9 -10 -12 -15q-1 -4 -4 -4l-1 -1q-1 0 -1 -1q-10 -6 -21 -6
q-20 0 -35 9l-2 2q-8 8 -19 8t-20.5 -6.5t-11.5 -15.5v-5q0 -8 5 -15q7 -11 20 -13q7 -1 19 5q1 0 2 1q8 1 15 1q28 0 44 -18q4 -2 4 -6q1 -16 6 -32v-2q0 -3 -3 -5q-11 -30 -47 -37h-2h-1q-10 1 -17 -3q-9 -6 -12 -16q-3 -11 2 -19q8 -14 26 -14q6 0 12 3q4 2 9 10l1 1v1.5
t1 0.5q24 29 50 29h6q2 1 3 1q3 0 6 -3q1 -1 5 -6q10 -11 17 -15q3 -3 3 -7v-2q10 -29 -15 -58q-1 -1 -2 -1l-1 -1q-11 -7 -12 -12q-4 -10 1.5 -22.5t15.5 -15.5q3 -2 8 -2q9 0 17.5 5.5t11.5 13.5q2 8 -1 19v2q-1 35 26 52q2 4 7 4h1q2 0 9 -1q12 -2 20 -1h1q5 0 7 -4l1 -1
q27 -16 26 -49v-2q-1 -4 -1 -8t1 -9q3 -8 11 -14t17 -6q4 0 7 2q11 3 15 14.5t0 22.5q-3 8 -10 13q-1 0 -2 1q-26 31 -19 56v2v1q1 3 3.5 5t9.5 6q17 10 21 15q3 2 6 2q2 0 3 -1q3 1 6 1q27 0 46 -23q0 -1 1 -2q6 -14 11 -17q6 -3 12 -3q18 0 26 14q6 10 3.5 22.5
t-11.5 17.5q-5 3 -15 3q-2 0 -5 -1h-0.5h-1.5q-36 6 -47 37l-1 1q-1 3 -1 6q4 11 5 27zM196 236q16 -8 19.5 -24t-1.5 -33q-4 -30 -41 -30q-6 0 -13 1q-16 2 -25 15.5t-11 31.5q-1 18 26 38l1 1q11 4 24 4h1q10 0 20 -4zM204 183q4 18 2 28t-12 15q-6 3 -15 3q-15 0 -24 -3
q-7 -5 -12.5 -14t-5.5 -14q3 -33 25 -35q3 -1 7 -2q5 -2 7 -2q25 0 28 24zM309 164q29 -10 24 -46q-1 -5 -3 -12q-8 -29 -47 -29q-2 0 -5 1q-18 1 -34 31v2q-2 6 -2 13q0 5 1 11q2 11 8 20q10 15 28 15q11 0 30 -6zM323 123q4 24 -19 31q-18 6 -27 6q-10 0 -17 -9
q-4 -6 -5 -14q-3 -15 -2 -24q5 -8 12.5 -15t13.5 -8h4q29 0 34 19l3.5 7t2.5 7zM320 298q16 -5 22 -20.5t4 -32.5q-2 -18 -32 -33h-2q-3 -1 -10 -1q-8 0 -14 2q-12 2 -20 8q-14 10 -14 26.5t8 32.5q10 29 46 21q6 -1 12 -3zM333 246q4 33 -17 40q-2 0 -6 3q-5 2 -7 3
q-4 1 -8 1q-18 0 -24 -18q-7 -20 -7.5 -28.5t8.5 -15.5q7 -5 15 -7q14 -3 23 -2q4 2 8 5t7.5 6.5t5.5 7t2 5.5z" />
    <glyph glyph-name="wallaby" unicode="w" 
d="M491 9q5 -3 9.5 -5t6 -2t3 -1t1.5 -1.5t1 -3.5q0 -1 -1.5 -2.5t-5 -2.5t-7.5 -1l-26 4l-10 -1q2 -1 4.5 -6t1.5 -7t-18 -3q-14 -1 -21 5q-3 2 -44 2q-28 0 -39 4q-3 2 -4 7.5t-1 9.5l1 5q-7 5 -13 6q-3 0 -9 -0.5t-14 -2t-12 -2.5q-5 0 -15 -1q-14 -3 -51 -1
q-38 3 -112 11q-19 2 -73 6q-12 0 -28 2.5t-15 4.5q2 3 57 5q51 2 119 -4q18 -2 48 4q16 11 23 19q3 4 5 28q1 2 1 25t1.5 43.5t6.5 29.5q7 16 30 46t35 40q4 3 13 7t19 7t19.5 6t15.5 4l6 2l9 11l4 26q-1 2 -0.5 7.5t1 10t-0.5 7.5q-1 9 -13 24q-3 4 -2 7.5t5 3.5
q4 -1 7.5 -2t5.5 -2.5t3.5 -3l2.5 -2.5v-1l13 -13l20 1l16 -2q2 1 5.5 4t7.5 6.5t5 4.5l1 1q4 3 5.5 4.5t4 0.5t-0.5 -12l-6 -16q-10 -14 -12 -23q-2 -15 0 -46q1 -2 3 -6.5t4 -8.5l2 -3q5 -13 7 -26q3 -22 -2 -41q-3 -13 -18 -37q-2 -2 -6 -7.5t-7.5 -10.5t-6.5 -9l-3 -4
q0 -19 -5 -42q-1 -4 -3.5 -9.5l-5 -11t-5 -10.5t-4.5 -8l-1 -3q-5 -10 -6 -14t3.5 -11.5t8.5 -9.5t35 -6zM400 2v11q0 3 -4.5 11t-4.5 9q-14 -6 -14 -10q0 -2 0.5 -5t1 -6.5t1.5 -6t2 -3.5h18z" />
    <glyph glyph-name="sheep" unicode="x" 
d="M351 -45q-15 1 -16 6l3 20q1 40 2 47q0 3 -3 25q-3 26 -3 31l-2 19l-26 -5q-2 -13 1 -25q2 -7 -5 -35q-2 -10 7 -50l-1 -12q5 -12 5 -18q0 -4 -4 -8t-8 -5q-15 -2 -19 7q-1 7 -1.5 8.5t1.5 7t2 6.5q1 2 0 6t-1 10q2 8 2 27t-1 25q-4 18 -4 21l-5 29l-39 -1q-5 -24 -7 -32
q-2 -5 -2 -32.5v-32.5q1 -10 3 -16q3 -11 -1 -13q-11 -5 -24 -1q-6 2 -6 13q0 7 8 25q3 5 3.5 29t-1.5 32l-8 26q-9 3 -14 6l-11 5.5t-14 7.5q-2 1 -4.5 3t-4.5 4.5t-3.5 5t-3 4.5t-2.5 3.5t-2 3.5l-1 1q0 -1 -1 -2.5t-2.5 -6t-1.5 -7.5l-6 -17l-2 -24q2 -18 -9 -36
q-3 -5 -2 -19.5t4 -19.5l2 -15q6 -18 0 -22q-4 -2 -14 -0.5t-12 4.5q-2 2 -2.5 4.5t-0.5 6t-1 6.5q0 4 0.5 7t2.5 8.5t3 9.5q4 14 2 43l-6 29q-2 9 -4 12q-1 2 -2.5 4.5t-4.5 6.5t-5 8q-6 8 -11 55q0 6 1.5 19t3.5 27t4.5 30.5t3.5 24.5q4 33 35 69q9 11 58 25q6 2 26 3
t31 0l57 -9q11 25 15 31q10 13 11 18q1 1 -2 2t-8 2t-7 2q-10 4 -16 12q-4 6 -2 12q0 1 1.5 1.5t5.5 0.5t6 1q12 2 21 -4l12 -8h19q2 0 7.5 3.5t8.5 3.5q2 0 4.5 -0.5t5 -2t3.5 -2.5l21 -4q12 7 18 9q3 1 13 -0.5t12 -1.5q4 1 4 -3.5t-2 -9.5q-1 0 -1 -1q-5 -11 -17 -12
l-20 -1q3 -13 9 -25q6 -10 6 -32q0 -16 2 -24q2 -4 5.5 -22.5t7.5 -36.5t6 -24q6 -14 6 -55q0 -6 -5.5 -14t-6.5 -11q-1 -6 -12.5 -22t-16.5 -20q-9 -8 -24 -8q-3 0 -6.5 -2t-4.5 -3l-2 -2q-3 -30 -3 -37l-5 -20q0 -43 -1 -51q0 -4 1 -8.5t2 -7.5l2 -4q2 -7 2 -13
q0 -3 -3 -5t-6 -2z" />
    <glyph glyph-name="aspergillus" unicode="&#xa3;" 
d="M224.5 152q-4.5 0 -8 3.5t-3.5 8.5q0 2 1 3.5l2 3t2.5 2.5t3.5 1.5t3 0.5q5 0 8 -3.5t3 -8t-3.5 -8t-8 -3.5zM230 164q0 4 -4 4t-4 -4q0 -5 4 -5t4 5zM225 172h-1h1zM195 -6q-3 -8 -10 -6q-4 0 -7.5 3.5t-3.5 8t3.5 7.5t7.5 3t5 -1q1 1 1.5 2t1.5 2q2 3 8 3q11 0 11 -10
q0 -5 -3.5 -9t-7.5 -4h-1q-3 0 -5 1zM185 -9h2h-2zM194 2zM196 4q0 -6 5 -4q6 0 6 5q0 4 -5.5 4t-5.5 -5zM193 -2q1 0 0 0v0zM190 -2q0 4 -5 5q-5 0 -5 -6q0 -5 5 -5t5 6zM185 5h-1h1zM391 310q0 -9 -9 -12q2 -3 2 -6q0 -9 -9 -11v-5q0 -5 -3 -8l1 -1h1q5 0 9 -3.5t4 -8.5
t-4 -8.5t-8 -3.5q-6 0 -10 5q-7 0 -10 6q-3 -1 -6 -1h-1q-2 0 -4 1q-1 -1 -3 -1h-2q-8 0 -15 3q-1 0 -3 0.5l-4 1t-4 0.5t-2 1h-2q-4 -5 -8 -8l-2 -2v-6v-1v-2v-4q2 8 11 10q4 8 12 8q12 0 12 -11q0 -4 -4 -8t-8 -4q-3 -8 -11 -8q-10 0 -11 9q2 -24 0 -40q-2 -8 -6 -48v-4
q4 5 10 5h1q4 0 8 -3t4 -8t-4 -8t-8 -3q-8 0 -11 8q-1 -3 -1.5 -8.5t-0.5 -7.5q-1 -7 -1 -35q0 -3 0.5 -9t0.5 -8v-13q-1 -7 -0.5 -30.5t1.5 -29.5q0 -3 1 -5q5 -11 4 -17q0 -4 -4 -7q-5 -4 -18 -4h-7.5h-5.5h-26q-4 0 -9.5 0.5t-7.5 0.5h-2q-4 0 -9.5 -0.5t-13 -1
t-11.5 -0.5h-1q-18 -2 -20 -2q-3 0 -9 -2q-6 -1 -10 -1q-6 0 -7 1q-7 6 -5 12q3 11 14 11q9 0 33 6q12 6 33 6h6q13 0 37 6v1q0 2 0.5 8.5t0.5 10.5q-2 -1 -4 -1q-5 0 -8 3.5t-3 7.5q0 6 4 10q-3 3 -3 7q0 5 3.5 8.5t8.5 3.5q1 2 1 5q2 18 1 30q-4 49 5 85q2 6 2 23
q-11 0 -12 12q-2 5 2 9q-3 2 -3 8l0.5 1.5l0.5 1.5q-9 3 -9 11q0 9 9 12q-3 2 -6 8q-5 -5 -11 -6q-1 -1 -3 -1q-2 -1 -5 -2q-2 0 -2 -1q-2 0 -4 -1q-6 -5 -9 -5h-2q-13 3 -17 3q-3 -4 -8 -4h-1q-4 0 -7.5 3.5t-3.5 8.5q0 1 2 5q-5 0 -8.5 3t-3.5 8q0 7 6 10h-1
q-3 0 -5.5 1.5t-4 4t-1.5 5.5q0 1 0.5 2t0.5 2q-4 0 -7.5 3t-3.5 8q0 9 9 11q-3 2 -3 7t4 9q3 2 5 2q1 3 4 6l4 2q0 1 2 4q1 4 7 6h5q-2 3 -2 5v2q-4 5 -4 10q0 3 1.5 5.5t4 4t5.5 1.5q6 0 9 -5l2 1v1q0 8 8 11l2 2l1 2q-1 1 -1 4q0 7 5 9q-2 4 -2 6q1 5 4 8t8 3t9 -4
q2 9 12 9h4q4 6 11 6q5 0 8 -3q4 3 8 3q6 0 9 -5q3 7 11 7q5 0 8 -2.5t2 -5.5q3 -1 5.5 -3t4 -4.5t1.5 -5.5q0 -4 -3 -8l-1 -1l-1 -1l0.5 -1t0.5 -2q1 0 1 -0.5t1 -0.5q2 0 4 -1q5 2 7 2q3 0 4 -1q3 3 7 3q7 0 9 -5q4 3 8 3q5 0 8 -4t3 -9q0 -2 -1 -4q1 -1 1.5 -2t0.5 -2
q3 0 5 -3q4 -5 4 -8t-1 -5q3 -3 3 -6q0 -5 -4 -9q1 -1 1 -3v-3q3 -3 3 -6q6 -4 6 -9q0 -3 -2 -6q10 -3 10 -12zM298 135q0 -6 5 -6t5 6q0 5 -5 5t-5 -5zM300 142zM301 127zM352 265h2h2q2 -2 3 -2l1 -1v-3q0 -5 5 -5q2 0 3 1h2v-1q2 -4 5 -4q6 0 6 5t-6 5q-1 0 -2 -1h-2
q-1 0 -1 1q-1 5 -5 5h-1v5q0 1 1 1q5 0 5 5q0 3 -2 4l-1 1v1q2 1 2 3v1q0 2 1 2h1q1 -1 3 -1q5 0 5 5q0 2 -4 4v1v3q0 5 -5 5v1v1v4v2v1v1q4 1 4 4v2q0 2 1 2q2 1 2 4q0 5 -4 5l-1 1v2q0 5 -4 5h-1l1 2q2 2 2 4q0 3 -3 4q-1 1 -1 1.5t1 0.5q4 2 4 6q0 2 -3 4q-1 0 -1 1t3 -2
q2 1 2 4q0 5 -5 5h-2h-1v4q0 4 -4 5q-1 0 -1 1t1 1q3 2 3 5q0 5 -5.5 5t-5.5 -5v-2v-2l-2 -1q0 -1 -1 -1l-1 1l-2 1q-1 0 -1 1v2q1 1 1 2q0 6 -5 6h-1q-2 0 -4 -3q0 -1 -1 -1v1q-4 2 -5 2q-2 0 -4 -4q0 -1 -1 -1q-2 0 -2 1q-1 3 -4 3h-2q-1 0 -1 1q-2 2 -5 2v1v3q0 5 -5 5v1
q-2 2 -3 2l-1 1v4l-1 1q-1 3 -4 3q-2 0 -3 -2h-2q-1 0 -1 1q-1 4 -4 4l-1 1q-2 2 -3 2t-1 1q-1 3 -5 3q-5 0 -5 -5v-2l-1 -1q-1 0 -2 -1h-2q-1 1 -1 2v2q0 6 -5 6t-5 -5q0 -2 1.5 -4l1.5 -2q1 0 1 -1v-1q-1 -1 -1 -2.5v-1.5q-4 0 -6 -4h-1h-2h-2q-5 0 -5 -5v-2q0 -1 -1 -1
h-3q-1 1 0 1v1q0 5 -5 5t-5 -5q0 -3 5 -7l1 -1v-1q0 -1 -2 -1q-1 1 -3 1h-2v3q0 6 -5 6t-5 -5.5t5 -5.5h1h1v-3q0 -2 -1 -2h-1q-2 2 -4 2q-5 0 -5 -4l-1 -1h-1q-5 0 -5 -5v-3v-2q-5 -2 -5 -6q0 -1 1 -2v-1l-1 -1q-1 0 -2 -2q0 -1 -1 -1q-2 0 -2 1q-1 2 -5 2l-2 1l-1 -1
q-2 -1 -2 -4t3 -4q1 0 1 -1t0.5 -1.5l0.5 -0.5v-2q0 -1 -1 -1h-1q-5 0 -5 -4q0 -1 -1 -1t-1 1q-2 4 -5 3q-2 0 -4 -2q-1 -1 -1 -3q0 -1 0.5 -1.5l0.5 -0.5v-2h-2q-6 4 -6 -4v-2v-1h-2q-3 1 -5 -0.5t-2 -4.5l0.5 -1l0.5 -1v-1q1 -3 4 -3q2 0 4 2q0 1 1 1t1 -1q0 -2 -1 -2
q-3 -1 -3 -4q0 -5 4 -5h4v-1v-1h-4q-4 -1 -4 -5q0 -3 2 -4v-2v-1q-5 -1 -5 -5q0 -5 5 -5h1q2 0 4 3h1q1 0 1 -1q0 -3 3 -5h1l-1 -1q-2 0 -2 -3v-2l-1 -1q-4 -2 -4 -5q0 -5 5 -5q4 0 4 1l1 1q0 4 3 4q1 5 5 5q2 0 4 -1q2 2 4 2l14 4h1l-6 1h-7q-2 -1 -7 -1q-8 -2 -12 2
q-2 4 -2 9q0 7 15 7q3 0 4 -1v1q-4 0 -11 4l-1 1q-5 1 -5 7t5 6h4q7 0 12 -4h2q2 0 7 -1t6 -1h-1q-2 0 -5 3q-3 -2 -4 -2q-2 0 -7 5l-1 1q-5 0 -7 3q-2 4 0 7q2 5 18 2q2 -1 5 -3v3q0 1 -1.5 1.5l-1.5 0.5l-2 1q-5 2 -2 9q0 5 6 8q8 3 13 -6v0.5v1.5l5 4q2 2 7 1
q-1 0 -2 0.5l-1 0.5q-5 4 -3 9q1 5 5 6q13 3 15 -5q1 -1 1 -3q2 0 3 -2l8 -12q1 0 1 -1l-1 6q-2 2 -2 5q-2 1 -5 8q-3 8 4 12q2 1 5 1q2 0 7 -8v1q0 4 2 6q2 0 2 2q2 4 6 4q7 0 9 -4q5 -5 0 -17q0 -8 2 -13v1q0 5 2 8v7q0 3 6 6l1 1q2 1 5 0q3 -2 5 -10q3 4 6 4q4 2 7 -1h1
q6 0 9 -2q2 -1 2 -5q1 -4 -3 -9l-2 -1q2 -2 0 -6l-7 -12q-1 0 -1 -1l6 3q0 4 6 5q2 7 10 8q4 0 7 -3v-1.5v-3.5q-1 -4 -3 -6q6 3 10 1q6 -3 6 -7q2 -8 -6 -12q-4 -1 -6 0l-1 -1q-1 -1 -3 -2.5l-4 -3t-3 -2.5h1l2 0.5t3.5 1t3.5 -0.5q1 1 9 1q5 0 5 -7q0 -5 -4 -6h1
q3 -3 3 -9q0 -3 -2 -6h-5q-1 -2 -3 -2l-15 -3q-10 -1 -14 -1q-12 -3 -14 4v1q-1 5 1 8l-1 1q-2 5 -2 7q0 1 1 2q-1 1 -1 7h-1q-5 4 -5 5h-1l-4 2q-3 0 -5 3q-2 0 -3 1q-3 -2 -5 1q0 1 -1 2q-3 -1 -7 2l-1 -1q-3 -4 -7 -2h-1v-1q-5 -3 -9 -2v-1q0 -6 -5 -4h-2q-1 -3 -6 -4v-1
q0 -4 -3 -5q0 -1 -2 -1q-1 -4 -4 -6h1q2 -4 -1 -7v-2q1 -4 -1 -8l1 -1q3 -3 2 -6q0 -3 -5 -6q-3 -3 -7 -3t-5 -1l-15 -3h-1q-1 1 -3 1q-2 -2 -4 -2h-1q6 0 12 -2q1 0 8 4l13 5q6 2 9 8q-1 6 -1 9q-1 0 -1 1t0.5 2t0.5 2t-0.5 3t-0.5 3v2q0 1 0.5 3t1 2.5t1.5 2.5l3 4l1 1
l4 4l2 1q3 2 5 2l1 1h1q2 0 4 1q11 6 21 2q17 -7 21 -14v-5q0 -1 0.5 -1.5t0.5 -1.5q3 -7 2 -13q0 -4 2 -8q5 -3 10 -3h1q2 0 8 -2t9 -2q1 0 2 2q0 1 1 1l1 -1q2 -2 3 -2q6 0 6 4zM317 251v-1v1zM324 243q0 5 -5 5t-5 -5t5 -5t5 5zM179 -39q35 4 36 4h23t21 -1q22 -2 27 2
l1 1q0 5 -4 13q0 1 -1.5 4t-1.5 5q-1 4 -1.5 28t0.5 32v30q0 5 -0.5 18t-0.5 17t2 14t2 17q4 40 6 48v16t-1 16t-1.5 12.5t-0.5 6.5q0 8 3 11l3 3q11 9 9 18q-2 12 -7.5 18.5t-17.5 5.5h-4t-5.5 -1t-6 -3t-6.5 -5q-7 -10 -2 -32q0 -1 1.5 -2.5l4 -4l3.5 -3.5q8 -6 8 -19v-5
q0 -2 -2 -2t-2 1q-2 1 -4 1q-5 0 -5 -4q0 -5 4 -5q2 0 5 3h2.5t1.5 -1v-10q0 -1 -2 -1h-2q-2 2 -4 2q-5 0 -5 -4q0 -5 4 -5q2 0 5 2q1 1 2.5 1t1.5 -2q-1 -29 -4 -38q-5 -16 -3 -78q0 -18 -2 -37v-4v-4q0 -2 -2 -2t-2 1q-1 3 -3 3t-3.5 -1.5t-1.5 -3.5q0 -5 5 -5q1 0 4 2
q1 1 2.5 1t1.5 -2q0 -6 1 -7q2 -13 0 -36v-4l-1 -1q-3 -3 -20.5 -6.5t-25.5 -2.5h-2q-22 0 -34 -4q-31 -8 -33 -8q-3 0 -5 -5q-1 -1 1 -3q3 -1 9 1q7 3 11 3q10 0 18 1zM144 -31zM143 -48zM164 297zM221 284q3 0 0 -2q0 -2 -2 -2l-15 -5q-6 0 -10 -1q-2 0 -2 -2v-1
q0 -1 -2 -1h-1q-1 2 -3.5 2t-2.5 -2q0 -5 1 -6l1 -2q1 -1 2.5 0.5l1.5 1.5v2v1q0 2 2 2t2 -3q1 -2 3 -3q4 -3 7 1q1 1 3 0q1 -1 1 -3q-1 -3 -3 -5q0 -1 -1 -1h-2q-1 1 -3 1l-0.5 -0.5t-0.5 -1.5l-1 -1q1 0 3 -1l2 1h3h3l9 5q3 1 8 1q2 1 4.5 0.5t3.5 -0.5l3 4v1q0 1 -1 1
q-3 3 -2 5q1 3 0 6v1l-1 1q-1 1 -1 2q0 2 1 2h1l1 1q1 0 0 2q0 5 1 6q2 1 2 5q0 2 1 2h5v1q0 5 3.5 5.5t4.5 2.5q0 1 2 1h2q1 0 2 2q0 3 4 3q3 0 5 2l1 1h1q0 1 1 1h3q0 1 2 3q3 3 6 2q1 -1 2 -2.5t2 -1.5q1 1 2 0.5t1 -1.5l1 -1l1 -1q0 -1 1 0q2 0 3 -1h2q1 0 1 -1
q3 -2 4 -2l1 -1q0 -1 3 -2h2l1 -1q1 -1 1 -2v-1q0 -1 -2 -6q4 0 4 -5q1 -2 4 -4q1 -1 0 -2l-3 -2v-1q0 -1 1 -2q2 -4 1 -6t0 -6q0 -2 3 -1.5t7 1.5q6 3 14 3h7.5t6.5 1l2 1v1h5q1 0 1 1q0 5 -1 5h-3q-1 -2 -2 0l-2 1q-1 1 -3.5 1t-2.5 2q-1 0 -0.5 1t1.5 1l3 3t3 1q2 -1 6 0
q1 1 1 2q0 4 -1 4q-7 0 -7 -1h-3q-4 1 -7 -1l-11 -3q-3 -1 -3 1t1 3l8 8q7 3 11 6q1 1 3 1q2 -1 4 0q5 2 5 8q-2 2 -4 3q-3 1 -8 -2l-1 -1q-1 -1 -3 -1q0 1 -1 1t-2 -1q-1 0 -2 -1t-2.5 0.5t0.5 2.5q1 1 1 3t2 2q7 0 8 7v1q-1 1 -4 1q-6 0 -7 -5q0 -2 -2 -2t-5 -3l-1 -1
l-10 -8q0 -1 -1.5 -1.5t-2.5 -1.5t-2 0v3l2 10q9 9 10 13q1 1 0 2v2q1 2 3.5 4.5t2.5 5.5q0 2 -0.5 3t-5.5 1q-2 0 -4 1q-3 2 -4 1h-1q-1 -1 -2 -1.5t-2 -2.5t0 -3v-2t-1 -1l-0.5 -0.5t-1 -0.5t-1.5 -2l-1 -1h-2q-1 0 -1 1q0 4 -1 5v1q0 1 1 1q4 1 4 5q0 6 -3 6h-1l-1 -0.5
l-1 -0.5q-3 -1 -3 -2v-8q0 -1 -1 -2q-2 -2 -2 -6v-1l-1 -10q0 -2 -4 -2q-1 0 -1 2l-3 8q1 10 0 15v1q4 10 1 13q-2 2 -6 2q-2 0 -3 -2l-1 -1l-1 -1q-2 -2 -2 -5q0 -4 2 -6q1 -1 0 -2t-1 -3.5t-2 -2.5q0 -1 -1 -0.5t-1 1.5q-1 0 -1 1q-1 2 -2 2t-1 2t-1 3v2q-4 7 -6 7
q-5 -5 -3 -9q3 -6 4 -7q1 0 1 -1l1 -5l3 -9v-8q0 -2 -2 -2t-3 1l-8 11q-1 0 -1.5 2t-2 5l-2.5 5q-1 1 -2 1t-1.5 0.5t-0.5 1.5v3q-2 4 -12 2q-1 0 -1 -2q0 -4 1.5 -4.5t3.5 -2.5l2 -2q2 -1 2 -2q0 -3 4 -6v-3q0 -1 -1 -1h-5l-1 1v2q0 1 -2 3q-1 1 -4 0h-1l-1 -1l1 -1h1l4 -3
q1 -1 1 -2v-2q0 -1 -1 -2t-3 0q-5 3 -7 6l-1 1q-1 0 -1 1.5t-1 2.5q-4 8 -7 4q-5 -2 -5 -5q0 -5 1 -5l2 -1q3 -1 4 -1q2 0 2 -2v-3q1 -3 2 -3q2 -2 1 -2.5t-2 -0.5h-5h-2q-2 2 -4 3q-3 1 -8 0.5t-5 -1.5q-1 0 -1 -1t1 -1q1 -1 4 -1q2 0 3 -3q2 -3 4 -3q1 0 4 1h3q2 -3 4 -3
l3 -1l7 -6q1 -1 1 -2q-1 -1 -3 -1l-14 1q-3 3 -8 4h-1h-2q-6 3 -15 3q-1 0 -1 -1.5t1 -2.5t3 -2q5 -5 8 -4q3 0 3 -1l0.5 -0.5l0.5 -0.5q2 -2 3.5 -2t1.5 -2t-2 -2q-3 0 -4 -0.5t-2 -0.5t-1 1t-4 1q-12 0 -12 -3v-5q4 -2 9 -1h1q4 0 5 2h1h2h6h1l10 -1q1 0 4 -1.5zM345 325
l-1 -1q0 1 1 1zM357 290q-1 0 -2 -1q-1 0 -1 1h3zM184 259h-1h-2l1 -1q1 -1 0 -2q-2 -2 -2 -3q0 -6 5 -6q3 0 4 4q0 1 1 1h1q2 0 2 -1l1 -1l1.5 -0.5t2.5 -0.5h-1q-3 1 -4 3.5t0 5.5l1 1v2h1q-1 0 -3 2q-3 -6 -8 -4zM173 281zM160 298zM157 300q-4 0 -4 5q0 4 4 4q5 0 5 -5
q0 -4 -5 -4zM181 261zM177 255zM177 262zM162 295zM165 306zM162 331h1h-1zM154 297zM173 261zM191 248zM248 260v-1q-2 3 -2 7v5l-1 5q-3 11 2 18q1 1 14 12q9 4 19 4q6 0 16 -8q5 -4 9 -13q2 -6 0 -12v1q-1 9 -3 14t-9 10.5t-18 5.5q-15 0 -24 -13q-7 -11 -3 -35zM253 222
zM260 145zM259 85v-5v5zM259 129zM250 236q0 -3 5 -5q5 0 5 5t-5 5t-5 -5zM254 245zM247 238zM257 248zM265 197zM262 230zM306 268zM258 55v0v2v-2zM255 46h-1h1zM251 16q4 0 4 5q0 6 -4 6q-2 0 -4 -2t-2 -4q0 -5 6 -5zM243 25zM259 15zM254 30zM257 26zM249 45q1 1 3 1
q-1 0 -1.5 -0.5t-1.5 -0.5zM251 14zM254 15zM314 236q0 1 -1 3l-1 1l-1.5 0.5l-1.5 0.5q-3 0 -3 -5.5t3 -5.5q5 0 5 6zM294 234zM310 228zM308 242zM307 265zM328 259q1 0 0 0h1q-2 0 -2 1zM180 368zM258 428zM204 374zM200 364zM253 411zM236 407zM232 407zM214 391z
M195 364zM197 363zM198 363zM215 389zM224 402zM226 401zM230 405zM241 403zM257 411zM256 414zM251 421zM251 415q0 6 -4 6q-2 0 -4 -2.5t-2 -4.5q0 -3 2 -4q1 -1 3 -1q5 0 5 6zM232 412zM230 410q0 -5 -5.5 -5t-5.5 5t5.5 5t5.5 -5zM193 368q0 -3 -3 -4l-1 -1v1q-5 0 -5 4
q0 5 4 5q5 0 5 -5zM185 360zM183 355zM269 422zM268 424zM288 422zM299 416zM302 413v0v-1l1 -1q1 -2 4 -2q6 0 6 4q0 2 -2 4t-4 2q-5 0 -5 -6zM310 405zM309 404zM302 423q0 7 -6 5q-5 0 -5 -6q0 -4 6 -4q5 0 5 5zM287 421v1v-1zM283 423zM347 391zM346 387zM346 392z
M325 395h2q-1 1 -2 0zM369 350zM379 305q-5 0 -5 5t5 5t5 -5t-5 -5zM370 363zM367 270zM372 264zM373 285zM365 375h-1h1zM317 395h-1h1zM296 431h-2h2zM276 428h-2h2zM261 428h-1h1zM246 422zM224 418h-1h1zM188 375h-2h2zM179 348h-1h1zM211 246zM248 14h2h-2zM254 -13
l2 1q-6 -2 -27 -6q22 4 25 5zM227 -18zM178 -25q-12 -3 -32 -6q12 0 32 6q11 5 29 5q-21 -1 -29 -5zM160 -44h7h-7zM260 -39h-45q-7 0 -11 -1q6 1 14 1h42q1 0 8 -0.5t12 -0.5h-7q-3 0 -7 0.5t-6 0.5zM201 -40h3h-3zM320 236zM319 251zM338 259zM346 258h1h-1zM352 260z
M373 248z" />
  </font>
</defs>
</svg>
