<svg xmlns="http://www.w3.org/2000/svg" width="32" height="32" viewBox="0 0 32 32"><path d="M11.159 13.325l2.002 5.355h-1.223l-.405-1.192H9.531l-.42 1.192H7.926l2.025-5.355h1.207zm.068 3.285l-.675-1.966h-.015L9.84 16.61h1.387zm5.572 2.029a1.962 1.962 0 0 1-.772.161c-.41 0-.779-.072-1.106-.214s-.604-.339-.829-.589-.398-.544-.518-.881a3.23 3.23 0 0 1-.18-1.091c0-.4.06-.771.18-1.114s.293-.642.518-.896.501-.455.829-.6a2.709 2.709 0 0 1 1.106-.217c.275 0 .541.041.799.123s.49.204.698.364a1.973 1.973 0 0 1 .761 1.403H17.16c-.07-.3-.205-.525-.405-.675-.2-.15-.442-.225-.727-.225-.265 0-.49.052-.675.154s-.335.24-.45.412-.198.368-.251.589a2.908 2.908 0 0 0 0 1.339c.052.212.136.404.251.573s.265.306.45.409.41.154.675.154c.39 0 .691-.099.904-.296s.337-.484.371-.859h-1.184v-.877h2.25v2.895h-.75l-.12-.608c-.21.271-.442.46-.698.568zm4.936-5.314c.335 0 .62.049.855.146s.427.226.573.386c.148.159.255.342.323.547s.101.418.101.637c0 .216-.034.427-.101.634s-.175.391-.323.551-.339.289-.573.386c-.235.098-.52.146-.855.146h-1.238v1.92H19.32v-5.355h2.415zm-.323 2.52c.135 0 .265-.01.39-.03s.235-.059.33-.116c.095-.057.172-.139.229-.243s.086-.242.086-.412c0-.17-.029-.307-.086-.412s-.134-.187-.229-.244c-.095-.057-.205-.096-.33-.116s-.255-.03-.39-.03h-.915v1.605h.915zm6.631-9.448l-4.437-4.436C22.641.995 20.733.205 19.366.205H4.462a2.49 2.49 0 0 0-2.483 2.484v26.828a2.492 2.492 0 0 0 2.484 2.484h22.853a2.493 2.493 0 0 0 2.485-2.485V10.638c0-1.367-.791-3.275-1.757-4.24zm-1.406 1.406c.096.098.192.216.288.351h-5.076V3.079c.135.094.255.19.352.288l4.436 4.436zm1.174 21.714c0 .27-.227.497-.497.497H4.461a.504.504 0 0 1-.497-.497V2.689c0-.27.227-.497.497-.497h14.904c.151 0 .319.019.497.052v7.896h7.897c.034.178.052.348.052.497v18.879z"/></svg>