<svg xmlns="http://www.w3.org/2000/svg" width="32" height="32" viewBox="0 0 32 32"><path d="M10.316 13.325c.255 0 .488.023.697.068s.39.119.54.221c.15.102.267.239.349.409.082.171.124.38.124.63 0 .27-.062.495-.184.675s-.303.328-.543.443c.33.095.576.261.739.499s.243.524.243.858c0 .27-.053.504-.158.701s-.246.359-.424.483c-.178.125-.38.218-.607.278s-.461.09-.701.09H7.796v-5.355h2.519zm-.15 2.167c.21 0 .383-.05.518-.15s.203-.262.203-.488c0-.124-.023-.227-.068-.307s-.105-.143-.18-.188c-.075-.046-.162-.076-.259-.094s-.198-.027-.303-.027H8.975v1.252h1.192zm.067 2.273c.115 0 .225-.011.33-.034s.197-.06.277-.113c.08-.052.143-.124.191-.214s.072-.205.072-.345c0-.275-.078-.471-.232-.589s-.36-.176-.615-.176H8.973v1.47h1.26zm5.513-4.44l2.002 5.355h-1.223l-.405-1.192h-2.002l-.42 1.192h-1.185l2.025-5.355h1.207zm.067 3.285l-.675-1.966h-.015l-.697 1.966h1.387zm4.058-3.285l1.253 3.683h.015l1.185-3.683h1.657v5.355h-1.102v-3.795h-.015l-1.313 3.795h-.907l-1.313-3.758h-.015v3.758h-1.102v-5.355h1.657zm8.172-6.928l-4.437-4.436C22.641.995 20.733.205 19.366.205H4.462a2.49 2.49 0 0 0-2.483 2.484v26.828a2.492 2.492 0 0 0 2.484 2.484h22.853a2.493 2.493 0 0 0 2.485-2.485V10.638c0-1.367-.791-3.275-1.757-4.24zm-1.406 1.406c.096.098.192.216.288.351h-5.076V3.079c.135.094.255.19.352.288l4.436 4.436zm1.174 21.714c0 .27-.227.497-.497.497H4.461a.504.504 0 0 1-.497-.497V2.689c0-.27.227-.497.497-.497h14.904c.151 0 .319.019.497.052v7.896h7.897c.034.178.052.348.052.497v18.879z"/></svg>