<svg xmlns="http://www.w3.org/2000/svg" width="32" height="32" viewBox="0 0 32 32"><path d="M8.649 16.732l1.051.333c-.161.586-.429 1.02-.803 1.305-.375.284-.851.427-1.426.427-.713 0-1.299-.244-1.758-.732-.459-.486-.689-1.152-.689-1.997 0-.893.231-1.588.692-2.082s1.068-.741 1.82-.741c.657 0 1.19.194 1.6.582.244.229.427.559.55.989l-1.073.257c-.063-.278-.196-.498-.397-.659s-.447-.242-.734-.242c-.398 0-.721.143-.969.428s-.372.748-.372 1.388c0 .678.122 1.162.366 1.45s.561.433.952.433c.288 0 .536-.092.744-.274.208-.184.357-.472.447-.864zm1.609 1.973v-5.369h2.281c.573 0 .991.049 1.251.145s.468.268.624.514c.156.246.235.529.235.846 0 .402-.118.736-.355.998s-.591.428-1.062.497c.235.137.428.287.581.451.152.163.358.454.617.871l.655 1.049h-1.296l-.784-1.168c-.278-.418-.469-.68-.572-.79-.102-.108-.211-.183-.326-.223s-.296-.061-.546-.061h-.22v2.241h-1.084zm1.084-3.098h.802c.52 0 .845-.022.974-.066s.23-.12.304-.227.11-.242.11-.403c0-.181-.049-.326-.145-.438s-.232-.181-.409-.211a9.764 9.764 0 0 0-.791-.018h-.846v1.363zm9.17 3.098h-1.178l-.469-1.22h-2.146l-.443 1.22h-1.15l2.091-5.369h1.146l2.149 5.369zm-1.995-2.124l-.739-1.992-.725 1.992h1.465zm2.556 2.124v-5.369h1.622l.974 3.662.963-3.662h1.626v5.369H25.25v-4.226l-1.066 4.226H23.14l-1.062-4.226v4.226h-1.007zm6.97-12.308l-4.437-4.436C22.641.995 20.733.205 19.366.205H4.462a2.49 2.49 0 0 0-2.483 2.484v26.828a2.492 2.492 0 0 0 2.484 2.484h22.853a2.493 2.493 0 0 0 2.485-2.485V10.638c0-1.367-.791-3.275-1.757-4.24zm-1.406 1.406c.096.098.192.216.288.351h-5.076V3.079c.135.094.255.19.352.288l4.436 4.436zm1.174 21.714c0 .27-.227.497-.497.497H4.461a.504.504 0 0 1-.497-.497V2.689c0-.27.227-.497.497-.497h14.904c.151 0 .319.019.497.052v7.896h7.897c.034.178.052.348.052.497v18.879z"/></svg>