<svg xmlns="http://www.w3.org/2000/svg" width="32" height="32" viewBox="0 0 32 32"><path d="M8.317 13.325v.989H5.729v1.238h2.242v.915H5.729v2.212H4.551v-5.355h3.765zm2.752 0l2.002 5.355h-1.223l-.405-1.192H9.441l-.42 1.192H7.836l2.025-5.355h1.207zm.068 3.285l-.675-1.966h-.015L9.75 16.61h1.387zm3.112.75c.065.125.151.226.259.303s.233.135.379.172.295.056.45.056c.105 0 .217-.009.338-.026s.232-.051.338-.101.192-.119.262-.206.105-.198.105-.334c0-.145-.047-.262-.139-.352s-.213-.165-.364-.225c-.15-.059-.32-.113-.51-.157s-.383-.095-.578-.15c-.2-.05-.395-.111-.585-.184s-.36-.166-.51-.281c-.15-.114-.271-.259-.364-.431s-.139-.382-.139-.626c0-.275.059-.514.176-.716s.271-.371.462-.507c.19-.136.405-.235.645-.3s.48-.098.72-.098c.28 0 .549.031.806.094s.486.164.686.303c.2.14.358.319.476.536.117.218.177.482.177.791h-1.14c-.01-.16-.044-.293-.101-.398s-.134-.188-.229-.248-.204-.102-.326-.127-.256-.037-.401-.037c-.095 0-.19.01-.285.03s-.181.055-.258.105c-.078.05-.142.113-.191.188s-.075.17-.075.285c0 .105.02.19.06.255s.118.125.236.18.28.11.488.165.479.125.813.21c.1.02.239.056.416.109.177.052.354.136.529.251s.326.269.453.461.192.439.192.739c0 .245-.048.472-.142.682s-.236.392-.424.544c-.188.153-.42.271-.698.357s-.599.128-.964.128c-.295 0-.582-.037-.858-.109s-.522-.186-.735-.341c-.213-.155-.382-.352-.506-.593s-.185-.525-.18-.855h1.14c.001.18.033.332.098.457zm3.361-3.045v-.989h4.387v.989h-1.605v4.365h-1.177v-4.365H17.61zm8.512 4.177c-.355.205-.787.308-1.297.308-.41 0-.779-.072-1.106-.214s-.604-.339-.829-.589c-.224-.25-.398-.544-.517-.881s-.18-.701-.18-1.091c0-.4.06-.771.18-1.114s.293-.642.517-.896c.225-.255.502-.455.829-.6s.697-.217 1.106-.217c.415 0 .785.072 1.11.217s.6.345.825.6.398.553.517.896c.12.342.18.713.18 1.114 0 .39-.059.753-.18 1.087s-.293.63-.517.885l.668.608-.547.57-.758-.683zm-.173-1.237c.1-.136.18-.302.24-.503.059-.2.09-.442.09-.727 0-.236-.026-.463-.078-.682s-.137-.416-.252-.589-.265-.31-.45-.412-.41-.154-.675-.154-.489.052-.675.154-.335.24-.45.412a1.827 1.827 0 0 0-.251.589 2.906 2.906 0 0 0 0 1.338c.053.212.136.404.251.573.115.17.265.306.45.409s.41.154.675.154c.085 0 .175-.003.27-.008s.163-.027.203-.067l-.503-.457.547-.585.608.556zm2.094-10.858l-4.437-4.436C22.641.995 20.733.205 19.366.205H4.462a2.49 2.49 0 0 0-2.483 2.484v26.828a2.492 2.492 0 0 0 2.484 2.484h22.853a2.493 2.493 0 0 0 2.485-2.485V10.638c0-1.367-.791-3.275-1.757-4.24zm-1.406 1.406c.096.098.192.216.288.351h-5.076V3.079c.135.094.255.19.352.288l4.436 4.436zm1.174 21.714c0 .27-.227.497-.497.497H4.461a.504.504 0 0 1-.497-.497V2.689c0-.27.227-.497.497-.497h14.904c.151 0 .319.019.497.052v7.896h7.897c.034.178.052.348.052.497v18.879z"/></svg>