<svg xmlns="http://www.w3.org/2000/svg" width="32" height="32" viewBox="0 0 32 32"><path d="M11.209 13.325v.989H8.621v1.238h2.242v.915H8.621v2.212H7.443v-5.355h3.765zm1.86 0v4.364h2.61v.99h-3.787v-5.355h1.178zm5.94 0l2.003 5.355h-1.223l-.405-1.192h-2.003l-.421 1.192h-1.184l2.025-5.355h1.207zm.067 3.285l-.675-1.966h-.015l-.698 1.966h1.388zm1.29-2.295v-.989h4.387v.989h-1.605v4.365h-1.177v-4.365h-1.605zm7.677-7.918l-4.437-4.436C22.641.995 20.733.205 19.366.205H4.462a2.49 2.49 0 0 0-2.483 2.484v26.828a2.492 2.492 0 0 0 2.484 2.484h22.853a2.493 2.493 0 0 0 2.485-2.485V10.638c0-1.367-.791-3.275-1.757-4.24zm-1.406 1.406c.096.098.192.216.288.351h-5.076V3.079c.135.094.255.19.352.288l4.436 4.436zm1.174 21.714c0 .27-.227.497-.497.497H4.461a.504.504 0 0 1-.497-.497V2.689c0-.27.227-.497.497-.497h14.904c.151 0 .319.019.497.052v7.896h7.897c.034.178.052.348.052.497v18.879z"/></svg>