<svg xmlns="http://www.w3.org/2000/svg" width="32" height="32" viewBox="0 0 32 32"><path d="M9.66 13.325l1.252 3.683h.015l1.185-3.683h1.658v5.355h-1.103v-3.795h-.015l-1.313 3.795h-.908l-1.313-3.758h-.015v3.758H8v-5.355h1.658zm7.454 0c.345 0 .666.055.964.165s.555.275.773.495c.218.22.387.495.51.825s.184.718.184 1.162c0 .39-.05.75-.151 1.08s-.251.614-.453.855a2.16 2.16 0 0 1-.758.567c-.302.137-.659.206-1.069.206h-2.31v-5.355h2.31zm-.082 4.364c.17 0 .335-.027.495-.082s.302-.146.427-.274.225-.294.3-.499c.075-.204.113-.454.113-.75 0-.27-.026-.514-.078-.731s-.139-.404-.259-.559a1.156 1.156 0 0 0-.476-.357 1.916 1.916 0 0 0-.732-.124h-.84v3.375h1.05zm4.508-4.364v4.364h2.61v.99h-3.787v-5.355h1.177zm6.503-6.928l-4.437-4.436C22.641.995 20.733.205 19.366.205H4.462a2.49 2.49 0 0 0-2.483 2.484v26.828a2.492 2.492 0 0 0 2.484 2.484h22.853a2.493 2.493 0 0 0 2.485-2.485V10.638c0-1.367-.791-3.275-1.757-4.24zm-1.406 1.406c.096.098.192.216.288.351h-5.076V3.079c.135.094.255.19.352.288l4.436 4.436zm1.174 21.714c0 .27-.227.497-.497.497H4.461a.504.504 0 0 1-.497-.497V2.689c0-.27.227-.497.497-.497h14.904c.151 0 .319.019.497.052v7.896h7.897c.034.178.052.348.052.497v18.879z"/></svg>