<svg xmlns="http://www.w3.org/2000/svg" width="32" height="32" viewBox="0 0 32 32"><path d="M7.878 14.911c.12-.343.292-.642.517-.896s.501-.455.829-.6a2.709 2.709 0 0 1 1.106-.217c.415 0 .785.072 1.11.217s.6.345.825.6c.225.255.398.553.518.896s.18.713.18 1.114c0 .39-.06.753-.18 1.091s-.293.631-.518.881-.5.447-.825.589a2.747 2.747 0 0 1-1.11.214c-.41 0-.779-.072-1.106-.214s-.604-.339-.829-.589-.397-.544-.518-.881a3.23 3.23 0 0 1-.18-1.091c0-.4.06-.771.18-1.114zm1.076 1.77c.053.212.136.404.251.573s.265.306.45.409.41.154.675.154c.265 0 .49-.052.675-.154s.335-.239.45-.409.198-.361.251-.573c.053-.213.079-.431.079-.656 0-.236-.027-.463-.079-.682s-.136-.416-.251-.589-.265-.31-.45-.412c-.185-.102-.41-.154-.675-.154s-.49.052-.675.154-.335.24-.45.412-.198.368-.251.589a2.906 2.906 0 0 0 0 1.338zm7.332-3.356c.255 0 .487.023.698.068s.39.119.54.221c.151.102.267.239.349.409.082.171.123.38.123.63 0 .27-.061.495-.183.675s-.303.328-.544.443c.33.095.576.261.739.499s.244.524.244.858c0 .27-.052.504-.157.701s-.247.359-.424.483c-.177.125-.38.218-.608.278s-.462.09-.701.09h-2.595v-5.355h2.52zm-.15 2.167c.21 0 .383-.05.517-.15s.202-.262.202-.488c0-.124-.023-.227-.067-.307s-.105-.143-.18-.188c-.075-.046-.162-.076-.259-.094s-.198-.027-.303-.027h-1.102v1.252h1.192zm.067 2.273c.115 0 .225-.011.33-.034s.198-.06.277-.113c.08-.052.143-.124.192-.214s.072-.205.072-.345c0-.275-.078-.471-.233-.589s-.36-.176-.615-.176h-1.283v1.47h1.26zm2.79-2.854c.12-.343.293-.642.517-.896s.501-.455.829-.6.697-.217 1.107-.217c.415 0 .785.072 1.11.217s.6.345.825.6c.224.255.398.553.517.896s.18.713.18 1.114c0 .39-.06.753-.18 1.091s-.293.631-.517.881c-.225.25-.5.447-.825.589s-.695.214-1.11.214c-.41 0-.779-.072-1.107-.214s-.604-.339-.828-.589-.398-.544-.517-.881a3.23 3.23 0 0 1-.18-1.091c0-.4.06-.771.18-1.114zm1.077 1.77c.052.212.136.404.252.573.114.17.265.306.45.409s.41.154.675.154c.265 0 .489-.052.675-.154s.335-.239.45-.409c.114-.17.198-.361.251-.573a2.887 2.887 0 0 0 0-1.338c-.053-.219-.136-.416-.251-.589s-.265-.31-.45-.412-.41-.154-.675-.154c-.265 0-.49.052-.675.154s-.335.24-.45.412a1.829 1.829 0 0 0-.252.589 2.953 2.953 0 0 0 0 1.338zm7.973-10.284l-4.437-4.436C22.641.995 20.733.205 19.366.205H4.462a2.49 2.49 0 0 0-2.483 2.484v26.828a2.492 2.492 0 0 0 2.484 2.484h22.853a2.493 2.493 0 0 0 2.485-2.485V10.638c0-1.367-.791-3.275-1.757-4.24zm-1.406 1.406c.096.098.192.216.288.351h-5.076V3.079c.135.094.255.19.352.288l4.436 4.436zm1.174 21.714c0 .27-.227.497-.497.497H4.461a.504.504 0 0 1-.497-.497V2.689c0-.27.227-.497.497-.497h14.904c.151 0 .319.019.497.052v7.896h7.897c.034.178.052.348.052.497v18.879z"/></svg>