<svg xmlns="http://www.w3.org/2000/svg" width="32" height="32" viewBox="0 0 32 32"><path d="M10.201 11.335c.36 0 .666.052.918.157.252.104.458.243.616.415.159.172.274.367.346.587.073.22.109.448.109.685 0 .231-.036.458-.109.68-.072.223-.188.42-.346.592s-.364.31-.616.415c-.252.105-.558.157-.918.157H8.873v2.061H7.609v-5.749h2.592zm-.346 2.705c.145 0 .285-.011.418-.032.134-.021.252-.063.354-.125s.184-.149.246-.261c.062-.113.092-.26.092-.443s-.031-.33-.092-.443c-.062-.113-.144-.2-.246-.262s-.22-.103-.354-.125a2.684 2.684 0 0 0-.418-.032h-.982v1.723h.982zm3.027.061a1.95 1.95 0 0 1 .435-.692 1.97 1.97 0 0 1 .676-.443c.263-.104.559-.157.886-.157s.624.053.89.157c.266.105.493.252.68.443s.333.421.435.692.152.573.152.906-.051.633-.152.902a1.98 1.98 0 0 1-.435.688c-.188.19-.415.336-.68.439-.266.102-.562.153-.89.153s-.623-.051-.886-.153c-.263-.103-.488-.249-.676-.439s-.333-.42-.435-.688c-.102-.269-.153-.569-.153-.902s.051-.635.153-.906zm1.039 1.392c.032.158.087.301.165.427s.181.227.31.302c.128.075.29.112.483.112s.355-.037.487-.112c.131-.075.236-.176.314-.302s.133-.269.165-.427.048-.32.048-.487-.016-.33-.048-.491c-.032-.162-.087-.303-.165-.427s-.183-.224-.314-.302c-.132-.078-.294-.117-.487-.117s-.354.039-.483.117c-.129.078-.232.178-.31.302s-.133.266-.165.427a2.508 2.508 0 0 0 0 .978zm4.818.556a.674.674 0 0 0 .197.217.839.839 0 0 0 .278.125 1.294 1.294 0 0 0 .579.013.834.834 0 0 0 .241-.089c.073-.04.134-.094.182-.161s.072-.152.072-.253c0-.172-.114-.301-.342-.387a7.041 7.041 0 0 0-.954-.258c-.166-.037-.329-.082-.487-.133s-.3-.118-.423-.201-.223-.188-.298-.314a.892.892 0 0 1-.112-.463c0-.269.052-.489.157-.661.104-.171.242-.307.414-.406s.365-.169.58-.209c.214-.04.435-.061.66-.061s.444.022.656.064c.212.043.401.116.567.218s.305.237.415.406c.109.169.176.382.196.64h-1.086c-.017-.22-.1-.369-.25-.447s-.328-.117-.531-.117c-.064 0-.135.004-.21.012s-.144.026-.205.053c-.062.026-.114.066-.157.117s-.064.119-.064.205c0 .103.038.186.113.25s.173.116.294.157c.12.04.259.077.414.109s.314.067.476.104c.166.038.329.083.487.137s.299.125.422.213c.124.089.223.199.298.33s.113.294.113.487c0 .273-.055.503-.165.688s-.254.334-.431.447-.38.192-.608.238a3.586 3.586 0 0 1-1.404-.004 1.88 1.88 0 0 1-.616-.242 1.365 1.365 0 0 1-.442-.446 1.388 1.388 0 0 1-.189-.697h1.087c0 .124.025.23.076.319zm5.649-3.128v.765h-.838v2.061c0 .193.032.322.097.387s.193.096.387.096a1.84 1.84 0 0 0 .355-.032v.885a2.885 2.885 0 0 1-.322.033 8.185 8.185 0 0 1-.347.008c-.177 0-.345-.012-.503-.037s-.298-.071-.419-.141a.738.738 0 0 1-.285-.298 1.056 1.056 0 0 1-.105-.507v-2.456h-.692v-.765h.692v-1.248h1.144v1.248h.836zM5.894 23.718c.07.135.162.243.278.326.115.083.251.145.406.186.156.04.317.061.483.061a2.5 2.5 0 0 0 .362-.029c.128-.019.25-.055.362-.108s.207-.127.282-.221.113-.214.113-.358a.507.507 0 0 0-.149-.379c-.1-.097-.229-.177-.391-.241s-.344-.121-.547-.169a16.24 16.24 0 0 1-.62-.161 5.726 5.726 0 0 1-.628-.197 2.151 2.151 0 0 1-.548-.303 1.404 1.404 0 0 1-.39-.463 1.393 1.393 0 0 1-.149-.672c0-.295.063-.552.189-.769.126-.218.292-.398.495-.543.204-.146.435-.253.692-.323.258-.069.516-.104.773-.104.301 0 .589.034.866.101s.522.177.737.327c.214.149.385.342.511.575s.189.517.189.85H7.987c-.011-.172-.047-.314-.109-.427s-.144-.201-.246-.266a1.068 1.068 0 0 0-.35-.138 2.217 2.217 0 0 0-.431-.04c-.102 0-.204.011-.306.032s-.194.06-.277.113a.693.693 0 0 0-.206.201.538.538 0 0 0-.081.306.51.51 0 0 0 .064.273c.043.07.127.135.253.193.126.06.301.118.523.178.223.059.514.134.874.226.107.021.256.06.447.116s.379.146.567.27.35.288.487.495c.137.207.206.471.206.794 0 .263-.051.507-.153.732s-.254.42-.455.583c-.201.164-.451.292-.749.383s-.643.137-1.035.137c-.317 0-.624-.039-.922-.116a2.31 2.31 0 0 1-.789-.367c-.229-.166-.409-.378-.543-.636s-.199-.563-.193-.918h1.224c.002.192.037.356.107.49zm6.127-1.997a.805.805 0 0 0-.459.125c-.124.084-.224.19-.302.322s-.133.276-.165.435a2.283 2.283 0 0 0 0 .931c.032.156.084.296.157.422a.814.814 0 0 0 .745.431c.274 0 .484-.076.632-.229s.24-.358.278-.615h1.103c-.075.553-.29.974-.645 1.264-.354.29-.808.435-1.36.435-.312 0-.597-.053-.857-.156a1.892 1.892 0 0 1-1.091-1.111 2.353 2.353 0 0 1-.153-.857c0-.322.047-.622.141-.897a1.924 1.924 0 0 1 1.083-1.189 2.28 2.28 0 0 1 .901-.169c.247 0 .484.032.713.097.228.064.432.162.612.294s.326.296.438.491c.113.196.177.428.193.696h-1.119c-.075-.481-.357-.72-.845-.72zm3.72-.749v.773h.016a1.416 1.416 0 0 1 .531-.639c.118-.078.244-.139.378-.182s.273-.064.418-.064a.93.93 0 0 1 .25.04v1.063a2.367 2.367 0 0 0-.411-.04c-.209 0-.386.034-.531.104-.145.069-.262.165-.35.285s-.152.262-.189.423a2.28 2.28 0 0 0-.056.523v1.876h-1.144v-4.163h1.088zm2.076-.644v-.941h1.144v.941h-1.144zm1.144.644v4.163h-1.144v-4.163h1.144zm1.988.003h-1.087v5.621h1.144v-1.974h.016c.14.205.318.36.536.464.217.103.455.156.713.156.306 0 .572-.059.801-.177.227-.119.419-.277.571-.475.154-.2.268-.427.343-.685s.112-.527.112-.806c0-.295-.038-.579-.112-.85-.076-.271-.192-.508-.347-.712s-.351-.367-.588-.491-.518-.186-.845-.186c-.259 0-.494.052-.709.153s-.392.265-.531.491h-.017v-.532zm1.487 3.298a.897.897 0 0 1-.472.112c-.183 0-.338-.037-.467-.112s-.233-.173-.311-.294a1.293 1.293 0 0 1-.169-.423 2.366 2.366 0 0 1-.052-.491c0-.171.016-.338.048-.499s.087-.303.165-.427a.96.96 0 0 1 .306-.302.895.895 0 0 1 .472-.117c.183 0 .337.04.463.117s.23.18.311.306c.08.126.138.27.173.431s.052.325.052.491c0 .167-.016.33-.048.491s-.088.302-.165.423a.925.925 0 0 1-.306.294zm4.632-3.301v.766h-.838v2.061c0 .193.033.323.097.387s.193.097.388.097a1.867 1.867 0 0 0 .354-.032v.886a2.47 2.47 0 0 1-.322.032 8.176 8.176 0 0 1-.346.008c-.178 0-.346-.012-.504-.036a1.147 1.147 0 0 1-.419-.141.738.738 0 0 1-.285-.298 1.062 1.062 0 0 1-.104-.507v-2.456h-.692v-.766h.692v-1.248h1.143v1.247h.836zm.941-14.739l-4.466-4.465C22.573.795 20.651 0 19.276 0h-15a2.507 2.507 0 0 0-2.5 2.5v27c0 1.375 1.125 2.5 2.5 2.5h23c1.375 0 2.5-1.125 2.5-2.5v-19c0-1.374-.796-3.295-1.767-4.267zm-1.414 1.414c.098.098.194.218.29.354h-5.108V2.893c.136.095.256.191.354.289l4.464 4.465zm1.181 21.854c0 .271-.229.5-.5.5h-23a.507.507 0 0 1-.5-.5v-27c0-.271.229-.5.5-.5h15c.151 0 .32.02.5.052v7.948h7.947c.034.18.053.35.053.5v19z"/></svg>