<svg xmlns="http://www.w3.org/2000/svg" width="32" height="32" viewBox="0 0 32 32"><path d="M6.746 13.325c.335 0 .62.049.855.146s.426.226.573.386c.148.159.255.342.322.547a2.04 2.04 0 0 1 0 1.271 1.48 1.48 0 0 1-.896.937 2.225 2.225 0 0 1-.855.146H5.508v1.92H4.33v-5.355h2.415zm-.323 2.52c.135 0 .265-.01.39-.03s.235-.059.33-.116c.095-.057.171-.139.229-.243s.086-.242.086-.412c0-.17-.029-.307-.086-.412s-.134-.187-.229-.244c-.095-.057-.205-.096-.33-.116s-.255-.03-.39-.03h-.915v1.605h.915zm3.81 1.515c.065.125.151.226.259.303s.233.135.379.172.295.056.45.056c.105 0 .217-.009.338-.026s.232-.051.338-.101.193-.119.262-.206.105-.198.105-.334c0-.145-.046-.262-.139-.352s-.213-.165-.364-.225c-.15-.059-.32-.113-.51-.157s-.383-.095-.578-.15c-.2-.05-.395-.111-.585-.184s-.36-.166-.51-.281c-.15-.114-.271-.259-.364-.431s-.139-.382-.139-.626c0-.275.059-.514.176-.716s.271-.371.462-.507c.19-.136.405-.235.645-.3s.48-.098.72-.098c.28 0 .549.031.806.094s.486.164.687.303.358.319.476.536c.117.218.177.482.177.791h-1.14c-.01-.16-.043-.293-.101-.398s-.134-.188-.229-.248-.204-.102-.326-.127-.256-.037-.401-.037c-.095 0-.19.01-.285.03s-.181.055-.258.105c-.078.05-.142.113-.191.188s-.075.17-.075.285c0 .105.02.19.06.255s.118.125.236.18.28.11.488.165.479.125.813.21c.1.02.239.056.416.109.178.052.354.136.529.251s.326.269.454.461c.127.192.191.439.191.739 0 .245-.047.472-.143.682s-.236.392-.424.544c-.188.153-.42.271-.697.357s-.599.128-.964.128c-.295 0-.582-.037-.858-.109s-.522-.186-.735-.341c-.213-.155-.382-.352-.506-.593s-.185-.525-.18-.855h1.14a.968.968 0 0 0 .097.457zm5.146-4.035v5.355h-1.178v-5.355h1.178zm3.172 2.849v.915h-2.258v-.915h2.258zm2.572-2.849l1.253 3.683h.015l1.185-3.683h1.657v5.355h-1.102v-3.795h-.015l-1.313 3.795h-.907l-1.313-3.758h-.015v3.758h-1.102v-5.355h1.657zm6.322 0v5.355h-1.177v-5.355h1.177zM8.831 21.814v-.989h4.387v.989h-1.605v4.365h-1.178v-4.365H8.83zm6.982-.989l2.002 5.355h-1.223l-.405-1.192h-2.002l-.42 1.192H12.58l2.025-5.355h1.207zm.068 3.285l-.675-1.965h-.015l-.697 1.965h1.387zm4.92-3.285c.255 0 .488.023.698.067s.39.119.54.221c.151.102.267.239.349.409.082.171.123.381.123.631 0 .27-.061.494-.183.675s-.303.328-.544.442c.33.095.576.262.739.499s.244.524.244.858c0 .27-.052.504-.157.701s-.247.359-.424.483c-.177.125-.38.218-.608.278s-.462.09-.701.09h-2.595v-5.355h2.52zm-.15 2.167c.21 0 .383-.05.517-.15s.202-.262.202-.488c0-.125-.023-.227-.067-.307s-.105-.142-.18-.188c-.075-.046-.162-.076-.259-.094s-.198-.026-.303-.026h-1.102v1.253h1.192zm.067 2.273c.115 0 .225-.011.33-.034s.198-.06.277-.113c.08-.052.143-.124.192-.214s.072-.205.072-.345c0-.275-.078-.471-.233-.589s-.36-.176-.615-.176h-1.282v1.47h1.259zm7.325-18.868l-4.437-4.436C22.641.995 20.733.205 19.366.205H4.462a2.49 2.49 0 0 0-2.483 2.484v26.828a2.492 2.492 0 0 0 2.484 2.484h22.853a2.493 2.493 0 0 0 2.485-2.485V10.638c0-1.367-.791-3.275-1.757-4.24zm-1.406 1.406c.096.098.192.216.288.351h-5.076V3.079c.135.094.255.19.352.288l4.436 4.436zm1.174 21.714c0 .27-.227.497-.497.497H4.461a.504.504 0 0 1-.497-.497V2.689c0-.27.227-.497.497-.497h14.904c.151 0 .319.019.497.052v7.896h7.897c.034.178.052.348.052.497v18.879z"/></svg>