<svg xmlns="http://www.w3.org/2000/svg" viewBox="0 0 32 32"><path d="M6.7 13.3c.3 0 .6 0 .9.1s.4.2.6.4c.1.2.3.3.3.5.1.4.1.9 0 1.3s-.5.8-.9.9c-.3.1-.6.2-.9.1H5.5v1.9H4.3v-5.4l2.4.2zm-.3 2.5h.4c.1 0 .2-.1.3-.1s.2-.1.2-.2.1-.2.1-.4 0-.3-.1-.4-.1-.2-.2-.2c-.1-.1-.2-.1-.3-.1H5.5V16l.9-.2zm3.8 1.6l.3.3c.1.1.2.1.4.2s.3.1.4.1h.3c.1 0 .2-.1.3-.1s.2-.1.3-.2.1-.2.1-.3c0-.1 0-.3-.1-.4s-.2-.2-.4-.2c-.1-.1-.3-.1-.5-.2s-.4-.1-.6-.1c-.2 0-.4-.1-.6-.2s-.3-.3-.4-.4l-.4-.4c-.1-.1-.1-.4-.1-.6 0-.3.1-.5.2-.7s.3-.4.5-.5l.6-.3c.2-.1.5-.1.7-.1.3 0 .5 0 .8.1s.5.2.7.3.4.3.5.5.2.5.2.8h-1.1c0-.2 0-.3-.1-.4s-.1-.2-.2-.2-.2-.1-.3-.1H11c-.1 0-.2.1-.3.1l-.2.2c-.1.1-.1.2-.1.3s0 .2.1.3l.2.2c.1.1.3.1.5.2s.5.1.8.2c.1 0 .2.1.4.1.2.1.4.1.5.3.2.1.3.3.5.5.1.2.2.4.2.7 0 .2 0 .5-.1.7s-.2.4-.4.5c-.2.2-.4.3-.7.4s-.6.1-1 .1c-.3 0-.6 0-.9-.1s-.5-.2-.7-.3c-.2-.2-.4-.4-.5-.6s-.3-.9-.3-1.2h1.1c0 .2.1.3.1.5zm5.2-4.1v5.4h-1.2v-5.4h1.2zm3.2 2.9v.9h-2.3v-.9h2.3zm2.5-2.9l1.3 3.7 1.2-3.7h1.7v5.4h-1.1v-3.8l-1.3 3.8H22l-1.3-3.8v3.8h-1.1v-5.4h1.5zm6.3 0v5.4h-1.2v-5.4h1.2zm.6-6.9L23.6 2c-1-1-2.9-1.8-4.2-1.8H4.5C3.1.2 2 1.3 2 2.7v26.8C2 30.9 3.1 32 4.5 32h22.9c1.4 0 2.5-1.1 2.5-2.5V10.6c-.1-1.3-.9-3.2-1.9-4.2zm-1.4 1.4c.1.1.2.2.3.4h-5.1V3.1c.1.1.3.2.4.3l4.4 4.4zm1.2 21.7c0 .3-.2.5-.5.5H4.5c-.3 0-.5-.2-.5-.5V2.7c0-.3.2-.5.5-.5h14.9c.2 0 .3 0 .5.1v7.9h7.9c0 .2.1.3.1.5l-.1 18.8z"/><path d="M9 25.1c0 .2-.1.4-.2.6s-.4.3-.6.4-.6.2-1 .2c-.2 0-.4 0-.7-.1s-.3-.2-.5-.3-.3-.3-.4-.5-.1-.5-.1-.8v-.5h1.1V24.7c0 .1.1.2.1.3l.2.2c.1 0 .2.1.3.1.2 0 .3 0 .4-.1l.2-.2c0-.1.1-.2.1-.3v-3.9H9v4.3zm2-.2l.3.3c.1.1.2.1.4.2.1 0 .3.1.4.1h.3c.1 0 .2-.1.3-.1s.2-.1.3-.2.1-.2.1-.3c0-.1 0-.3-.1-.4s-.2-.2-.4-.2c-.1-.1-.3-.1-.5-.2s-.4-.1-.6-.2c-.2 0-.4-.1-.6-.2-.2-.1-.4-.2-.5-.3L10 23c-.1-.2-.1-.4-.1-.6 0-.3.1-.5.2-.7s.3-.4.5-.5l.6-.3c.2-.1.5-.1.7-.1.3 0 .5 0 .8.1s.5.2.7.3.4.3.5.5.2.5.2.8H13c0-.2 0-.3-.1-.4s-.1-.2-.2-.2c-.1-.1-.2-.1-.3-.1h-.7c-.1 0-.2.1-.3.1s-.1.1-.2.2-.2 0-.2.1 0 .2.1.3c0 .1.1.1.2.2s.3.1.5.2.5.1.8.2c.1 0 .2.1.4.1.2.1.4.1.5.3.2.1.3.3.5.5.1.2.2.4.2.7 0 .2 0 .5-.1.7s-.2.4-.4.5c-.2.2-.4.3-.7.4s-.6.1-1 .1c-.3 0-.6 0-.9-.1s-.5-.2-.7-.3c-.2-.2-.4-.4-.5-.6s-.2-.5-.2-.9h1.1c.1.1.1.2.2.4zm3.9-2.5c.1-.3.3-.6.5-.9s.5-.5.8-.6.7-.2 1.1-.2.8.1 1.1.2.6.3.8.6c.2.3.4.6.5.9s.2.7.2 1.1-.1.8-.2 1.1c-.1.3-.3.6-.5.9-.2.2-.5.4-.8.6-.3.1-.7.2-1.1.2s-.8-.1-1.1-.2c-.3-.1-.6-.3-.8-.6s-.4-.5-.5-.9c-.1-.3-.2-.7-.2-1.1s.1-.7.2-1.1zm1 1.8c.1.2.1.4.3.6.1.2.3.3.5.4s.4.2.7.2.5-.1.7-.2.3-.2.5-.4l.3-.6c.1-.4.1-.9 0-1.3-.1-.2-.1-.4-.3-.6-.1-.2-.3-.3-.5-.4s-.4-.2-.7-.2-.5.1-.7.2-.3.2-.5.4l-.3.6c-.1.4-.1.8 0 1.3zm6-3.4l2.2 3.6v-3.6h1.1v5.4H24l-2.2-3.6v3.6h-1.1v-5.4h1.2z"/></svg>