<svg xmlns="http://www.w3.org/2000/svg" width="32" height="32" viewBox="0 0 32 32"><path d="M10.193 13.325c.24 0 .457.039.649.116s.357.184.495.319c.137.135.242.291.315.469s.108.368.108.573c0 .315-.066.588-.198.818s-.348.406-.649.525v.015a.914.914 0 0 1 .592.476c.06.113.104.236.131.372s.046.27.056.405l.015.3c.005.114.014.233.027.352s.033.234.06.341a.802.802 0 0 0 .123.274h-1.178c-.065-.17-.105-.372-.12-.608s-.037-.46-.068-.675c-.04-.28-.125-.485-.255-.614s-.342-.195-.637-.195H8.481v2.093H7.303v-5.355h2.887zm-.42 2.422c.27 0 .473-.06.607-.18s.203-.316.203-.585c0-.261-.068-.448-.203-.566s-.338-.177-.607-.177h-1.29v1.508h1.29zm5.257-2.422c.345 0 .666.055.964.165s.555.275.772.495c.218.22.387.495.511.825s.183.718.183 1.162c0 .39-.05.75-.15 1.08s-.252.614-.453.855a2.16 2.16 0 0 1-.758.567 2.574 2.574 0 0 1-1.069.206h-2.31v-5.355h2.31zm-.083 4.364c.17 0 .335-.027.495-.082s.303-.146.428-.274.225-.294.3-.499c.075-.204.113-.454.113-.75 0-.27-.026-.514-.079-.731s-.139-.404-.259-.559a1.156 1.156 0 0 0-.476-.357 1.913 1.913 0 0 0-.732-.124h-.84v3.375h1.05zm7.095-4.364v.989h-2.587v1.238h2.242v.915h-2.242v2.212h-1.177v-5.355h3.764zm3.03-.128l-2.093 5.602h-.848l2.085-5.602h.855zM7.867 20.825l1.725 2.55-1.867 2.805h1.32l1.193-1.852 1.17 1.852h1.402l-1.867-2.797 1.717-2.558h-1.29l-1.088 1.71-1.05-1.71H7.867zm7.073 0l1.252 3.683h.015l1.185-3.683h1.657v5.355h-1.102v-3.795h-.015l-1.313 3.795h-.908l-1.313-3.758h-.015v3.758H13.28v-5.355h1.658zm6.322 0v4.364h2.61v.99h-3.788v-5.355h1.177zm6.781-14.428l-4.437-4.436C22.641.995 20.733.205 19.366.205H4.462a2.49 2.49 0 0 0-2.483 2.484v26.828a2.492 2.492 0 0 0 2.484 2.484h22.853a2.493 2.493 0 0 0 2.485-2.485V10.638c0-1.367-.791-3.275-1.757-4.24zm-1.406 1.406c.096.098.192.216.288.351h-5.076V3.079c.135.094.255.19.352.288l4.436 4.436zm1.174 21.714c0 .27-.227.497-.497.497H4.461a.504.504 0 0 1-.497-.497V2.689c0-.27.227-.497.497-.497h14.904c.151 0 .319.019.497.052v7.896h7.897c.034.178.052.348.052.497v18.879z"/></svg>