<svg xmlns="http://www.w3.org/2000/svg" width="32" height="32" viewBox="0 0 32 32"><path d="M7.704 13.205l1.736 2.566-1.879 2.823h1.327l1.2-1.864 1.177 1.864h1.412l-1.879-2.815 1.729-2.574h-1.298l-1.094 1.721-1.057-1.721H7.704zm7.118 0l1.261 3.707h.015l1.192-3.707h1.668v5.389h-1.109v-3.819h-.015l-1.321 3.819h-.914l-1.321-3.781h-.015v3.781h-1.109v-5.389h1.668zm6.363 0v4.393h2.627v.996H20v-5.389h1.185zm6.824-6.972l-4.466-4.465C22.573.795 20.651 0 19.276 0h-15a2.507 2.507 0 0 0-2.5 2.5v27c0 1.375 1.125 2.5 2.5 2.5h23c1.375 0 2.5-1.125 2.5-2.5v-19c0-1.374-.796-3.295-1.767-4.267zm-1.414 1.414c.098.098.194.218.29.354h-5.108V2.893c.136.095.256.191.354.289l4.464 4.465zm1.181 21.854c0 .271-.229.5-.5.5h-23a.507.507 0 0 1-.5-.5v-27c0-.271.229-.5.5-.5h15c.151 0 .32.02.5.052v7.948h7.947c.034.18.053.35.053.5v19z"/></svg>