<?xml version="1.0" standalone="no"?>
<!DOCTYPE svg PUBLIC "-//W3C//DTD SVG 1.1//EN" "http://www.w3.org/Graphics/SVG/1.1/DTD/svg11.dtd" >
<!--
2018-9-18: Created.
-->
<svg xmlns="http://www.w3.org/2000/svg">
<metadata>
Created by FontForge 20120731 at Tue Sep 18 11:23:45 2018
 By Travis CI User

</metadata>
<defs>
<font id="EBI-Functional" horiz-adv-x="512" >
  <font-face 
    font-family="EBI-Functional"
    font-weight="500"
    font-stretch="normal"
    units-per-em="512"
    panose-1="2 0 6 9 0 0 0 0 0 0"
    ascent="448"
    descent="-64"
    x-height="263.008"
    cap-height="445.888"
    bbox="-7.8966 -66.1279 520 451.552"
    underline-thickness="25.6"
    underline-position="-51.2"
    unicode-range="U+0028-007D"
  />
    <missing-glyph />
    <glyph glyph-name="add-job" unicode=")" 
d="M254 136.048v-63.5039h-95.248v-95.248h-63.5039v95.248h-95.248v63.5039h95.248v95.2646h63.5039v-95.2646h95.248zM396.944 -6.17578h95.248c10.9385 0 19.8155 -8.87793 19.8155 -19.8164s-8.87698 -19.8154 -19.8155 -19.8154h-305.52v22.5439h0.0800781v31.3916
h230.016c-7.11914 20.4482 -14.7197 42.1602 -22.5273 64.4004h-112.225v50.624h94.3525c-8.20801 23.1357 -16.4004 46.1113 -24.3359 68.1758h-163.904l-1.37598 0.160156v111.136c14.2402 37.584 25.4561 65.1201 30.1123 71.9355
c16.5273 24.2246 38.1758 28.832 50.8633 27.6641c12.6562 1.18457 34.3525 -3.40723 50.8486 -27.6641c16.624 -24.3672 116.848 -312.624 45.1836 -380.735h33.1846zM201.744 241.952h131.92c-8.45312 23.3418 -22.6455 61.0527 -31.6797 84.1758h-68.5762
c-9.02637 -23.125 -23.2119 -60.8359 -31.6641 -84.1758z" />
    <glyph glyph-name="add-user" unicode="7" 
d="M320 175.216v-49.3281h-96v-63.1836c-10.5762 -0.496094 -21.2959 -0.816406 -32.0156 -0.816406c-83.5039 0 -166.977 17.0566 -183.681 34.1279c-16.6875 17.0566 -5.31152 46.7207 8.33594 59.7441c14.208 13.5518 55.168 21.1201 91.7119 30.4326
c9.39258 2.41602 31.0244 9.53516 33.5361 21.5352c-0.368164 41.2803 -16.7197 41.8887 -25.0557 58.9443c-8.35156 17.0557 -22.7197 59.2158 -8.35157 128.032c10.8311 51.6797 83.5039 51.1836 83.5039 51.1836s72.6875 0.496094 83.5039 -51.1836
c14.3838 -68.8164 0 -110.977 -8.35254 -128.032c-8.36816 -17.0723 -24.7041 -17.6641 -25.0556 -58.9443c2.52832 -12 24.1435 -19.1357 33.5361 -21.5352c14.7842 -3.77637 30.208 -7.24805 44.3838 -10.9766zM512 93.8877v-64h-96v-96h-64v96h-96v64h96v96h64v-96h96z
" />
    <glyph glyph-name="add" unicode="+" 
d="M502.864 263.024c5.02344 0 9.13571 -4.09668 9.13571 -9.1367v-128c-0.0175781 -5.03418 -4.11722 -9.12695 -9.15237 -9.13574h-173.712v-173.712c-0.00878906 -5.03418 -4.10156 -9.13477 -9.13574 -9.15235h-128c-5.04297 0.0175781 -9.14355 4.125 -9.15234 9.16797
v173.696h-173.712c-5.02539 0.0175781 -9.11816 4.11035 -9.13574 9.13574v128c0 5.04002 4.1123 9.1367 9.13574 9.15233h173.729v173.712c0 5.02441 4.0957 9.13574 9.13574 9.13574h128c5.02441 0 9.13574 -4.11133 9.13574 -9.13574v-173.728h173.729z" />
    <glyph glyph-name="align" unicode="i" 
d="M0 365.888h512v-32h-512v32zM96 301.888h320v-32h-320v32zM96 173.888h320v-32h-320v32zM96 45.8877h320v-32h-320v32zM0 237.888h512v-32h-512v32zM0 109.888h512v-32h-512v32z" />
    <glyph glyph-name="analyse-graph" unicode="z" 
d="M288.032 53.9199c-8.83203 0 -16 7.16797 -16 16v127.984c0 8.83203 7.16797 16 16 16h64c8.83203 0 16 -7.16797 16 -16v-127.984c0 -8.83203 -7.16797 -16 -16 -16h-64zM416.064 53.9199c-8.83203 0 -16 7.16797 -16 16v320c0 8.83203 7.16797 16 16 16h64
c8.83203 0 16 -7.16797 16 -16v-320c0 -8.83203 -7.16794 -16 -16 -16h-64zM160 53.9199c-8.83203 0 -16 7.16797 -16 16v224c0 8.83203 7.16797 16 16 16h64c8.83203 0 16 -7.16797 16 -16v-224c0 -8.83203 -7.16798 -16 -16 -16h-64zM31.9844 53.9199
c-8.83203 0 -16 7.16797 -16 16v96c0 8.83203 7.16797 16 16 16h64c8.83203 0 16 -7.16797 16 -16v-96c0 -8.83203 -7.16797 -16 -16 -16h-64zM0 37.9199h512v-64h-512v64z" />
    <glyph glyph-name="analyse-percent_0" unicode="B" 
d="M336.8 412.8l-47.2002 0.799805h-110.399c-8.7998 0 -16 -7.19922 -16 -16c0 -8.7998 7.2002 -16 16 -16h16v-106.399c0 -16.7998 -7.2002 -43.2002 -16 -58.4004l-93.6006 -156c-9.59961 -14.3994 -10.3994 -40 -2.39941 -55.2002l3.2002 -6.39941
c8 -15.2002 28 -28 45.5996 -28h252c17.5996 0 37.5996 12.7998 45.5996 28l3.2002 6.39941c7.2002 15.2002 6.40039 40 -2.39941 55.2002l-93.6006 156c-8.7998 14.4004 -16 40.7998 -16 58.4004v105.6h16c8.7998 0 16 7.2002 16 16s-7.2002 16 -16 16zM336.8 446.4
c27.2002 0 49.6006 -22.4004 49.6006 -48.8008c0 -20.7998 -12.8008 -38.3994 -31.2002 -45.5996v-76c0 -11.2002 5.59961 -32 11.2002 -41.5996l92.7998 -156.801c14.3994 -24.7998 16 -61.5996 3.20016 -87.1992l-3.20016 -6.40039
c-12.7998 -26.4004 -44.7998 -46.4004 -75.2002 -46.4004h-252.8c-29.6006 0 -61.6006 19.2002 -75.2002 46.4004l-3.2002 7.2002c-12.7998 25.5996 -12 62.3994 3.2002 87.2002l94.4004 156c5.59961 9.59961 11.1992 30.3994 11.1992 41.5996v76
c-18.3994 6.40039 -31.1992 24.7998 -31.1992 45.5996c0 26.4004 21.5996 48.8008 48.7998 48.8008h157.6z" />
    <glyph glyph-name="analyse-percent_100" unicode="E" 
d="M336.8 412.8l-47.2002 0.799805h-110.399c-8.7998 0 -16 -7.19922 -16 -16c0 -8.7998 7.2002 -16 16 -16h16v-106.399c0 -16.7998 -7.2002 -43.2002 -16 -58.4004l-93.6006 -156c-9.59961 -14.3994 -10.3994 -40 -2.39941 -55.2002l3.2002 -6.39941
c8 -15.2002 28 -28 45.5996 -28h252c17.5996 0 37.5996 12.7998 45.5996 28l3.2002 6.39941c7.2002 15.2002 6.40039 40 -2.39941 55.2002l-93.6006 156c-8.7998 14.4004 -16 40.7998 -16 58.4004v105.6h16c8.7998 0 16 7.2002 16 16s-7.2002 16 -16 16zM336.8 446.4
c27.2002 0 49.6006 -22.4004 49.6006 -48.8008c0 -20.7998 -12.8008 -38.3994 -31.2002 -45.5996v-76c0 -11.2002 5.59961 -32 11.2002 -41.5996l92.7998 -156.801c14.3994 -24.7998 16 -61.5996 3.20016 -87.1992l-3.20016 -6.40039
c-12.7998 -26.4004 -44.7998 -46.4004 -75.2002 -46.4004h-252.8c-29.6006 0 -61.6006 19.2002 -75.2002 46.4004l-3.2002 7.2002c-12.7998 25.5996 -12 62.3994 3.2002 87.2002l94.4004 156c5.59961 9.59961 11.1992 30.3994 11.1992 41.5996v76
c-18.3994 6.40039 -31.1992 24.7998 -31.1992 45.5996c0 26.4004 21.5996 48.8008 48.7998 48.8008h157.6zM404 55.2002c0 0 7.2002 -12.7998 7.2002 -20c0 -16 -12.7998 -29.6006 -28.7998 -31.2002h-248c-16 1.59961 -28.8008 14.4004 -28.8008 31.2002
c0 7.2002 6.40039 20 6.40039 20l78.4004 125.6l14.3994 23.2002c8.7998 14.4004 16 40.7998 16 58.4004v119.199h75.2002v-119.199c0 -16.8008 7.2002 -43.2002 16 -58.4004l13.5996 -24z" />
    <glyph glyph-name="analyse-percent_40" unicode="C" 
d="M336.8 412.8l-47.2002 0.799805h-110.399c-8.7998 0 -16 -7.19922 -16 -16c0 -8.7998 7.2002 -16 16 -16h16v-106.399c0 -16.7998 -7.2002 -43.2002 -16 -58.4004l-93.6006 -156c-9.59961 -14.3994 -10.3994 -40 -2.39941 -55.2002l3.2002 -6.39941
c8 -15.2002 28 -28 45.5996 -28h252c17.5996 0 37.5996 12.7998 45.5996 28l3.2002 6.39941c7.2002 15.2002 6.40039 40 -2.39941 55.2002l-93.6006 156c-8.7998 14.4004 -16 40.7998 -16 58.4004v105.6h16c8.7998 0 16 7.2002 16 16s-7.2002 16 -16 16zM336.8 446.4
c27.2002 0 49.6006 -22.4004 49.6006 -48.8008c0 -20.7998 -12.8008 -38.3994 -31.2002 -45.5996v-76c0 -11.2002 5.59961 -32 11.2002 -41.5996l92.7998 -156.801c14.3994 -24.7998 16 -61.5996 3.20016 -87.1992l-3.20016 -6.40039
c-12.7998 -26.4004 -44.7998 -46.4004 -75.2002 -46.4004h-252.8c-29.6006 0 -61.6006 19.2002 -75.2002 46.4004l-3.2002 7.2002c-12.7998 25.5996 -12 62.3994 3.2002 87.2002l94.4004 156c5.59961 9.59961 11.1992 30.3994 11.1992 41.5996v76
c-18.3994 6.40039 -31.1992 24.7998 -31.1992 45.5996c0 26.4004 21.5996 48.8008 48.7998 48.8008h157.6zM112 55.2002l64 102.399h164.8l64 -102.399s6.40039 -12.7998 6.40039 -20c0 -16 -12.7998 -29.6006 -28.7998 -31.2002h-248
c-16 1.59961 -28.8008 14.4004 -28.8008 31.2002c0 7.2002 6.40039 20 6.40039 20z" />
    <glyph glyph-name="analyse" unicode="A" 
d="M339.424 412.288h-158.848c-8.73633 0 -15.8877 -7.13574 -15.8877 -15.8877s7.15137 -15.8887 15.8877 -15.8887h15.8877v-106.688c0 -17.4727 -7.37598 -44.0322 -16.3838 -58.9922l-94.3203 -156.624c-9.02344 -14.96 -10 -40 -2.17578 -55.6484l3.34375 -6.6875
c7.82422 -15.6318 28.5127 -28.416 45.9844 -28.416h254.191c17.4561 0 38.1602 12.7676 45.9688 28.416l3.34375 6.6875c7.82422 15.6484 6.84766 40.6885 -2.17578 55.6484l-94.3203 156.624c-9.00781 14.96 -16.3838 41.5195 -16.3838 58.9922v106.672h15.8877
c8.75293 0.0175781 15.8701 7.13574 15.8877 15.8877c-0.0175781 8.75293 -7.13477 15.8711 -15.8877 15.8887v0.015625zM339.424 445.872c27.2998 -0.0175781 49.4629 -22.1885 49.4717 -49.4883c-0.0166016 -18.7725 -14.2529 -39.4736 -31.7754 -46.208v-76.3359
c0 -11.3281 5.74414 -31.9678 11.5674 -41.6475l94.3203 -156.608c15.04 -24.9443 16.4805 -61.9355 3.47168 -88l-3.35934 -6.7041c-13.6162 -27.2637 -45.6162 -47.0078 -76.0322 -47.0078h-254.176c-30.4482 0 -62.416 19.7441 -76.0645 47.0244l-3.32812 6.67188
c-13.0391 26.0635 -11.584 63.0713 3.44043 88l94.3203 156.64c5.83984 9.66406 11.5674 30.3037 11.5674 41.6318v76.3525c-17.5146 6.73926 -31.75 27.4404 -31.7754 46.208c0.0351562 27.2822 22.2051 49.4521 49.4873 49.4873h158.864v-0.015625zM407.328 52.3838
c0 0 6.71973 -12.6875 6.75195 -20.1436c-0.0341797 -16.0225 -13.0156 -30.1729 -28.9766 -31.584l-0.111328 -0.320312h-249.937l-0.12793 0.320312c-15.959 1.41211 -28.9336 15.5615 -28.96 31.584c0 7.45605 6.70411 20.1436 6.70411 20.1436l78.8643 125.856h136.928z
" />
    <glyph glyph-name="approve" unicode="/" 
d="M204.864 -34.8164l-204.864 153.664l89.6641 119.504l94 -70.4795l215.872 246.72l112.464 -98.416z" />
    <glyph glyph-name="approved-job" unicode="(" 
d="M76 -45.792l46.5117 53.9043h294.24c-7.12012 20.4473 -14.7197 42.1602 -22.5283 64.3994h-215.327l44.3037 50.624h153.168c-8.20801 23.1357 -16.4004 46.1123 -24.3359 68.1758h-92.2559l-57.8242 50.624h131.728
c-8.45215 23.3428 -22.6445 61.0537 -31.6797 84.1768h-68.5762c-9.01953 -23.084 -23.1904 -60.7305 -31.6318 -84.0322l-3.04004 2.67188l-24.0801 21.0879l-1.23145 1.13574c20.3672 55.1523 37.3916 98.752 43.4238 107.584
c16.5273 24.2246 38.1758 28.832 50.8633 27.6641c12.6562 1.18457 34.3525 -3.40723 50.8486 -27.6641c16.624 -24.3672 116.848 -312.624 140.432 -380.735h33.1845c10.5029 -0.422852 19.0274 -9.29688 19.0274 -19.8086s-8.52444 -19.3857 -19.0274 -19.8076h-416.192z
M91.0879 20.832l-91.0879 68.3203l39.8721 53.1514l41.792 -31.3438l96 109.729l50.0156 -43.792z" />
    <glyph glyph-name="attach" unicode="a" 
d="M348.912 282.368l-162.384 -162.384c-3.39648 -3.65137 -6.15332 -10.6621 -6.15332 -15.6484c0 -12.6826 10.2939 -22.9766 22.9766 -22.9766c4.99023 0 12.0039 2.75977 15.6562 6.16016l194.896 194.832c26.8633 26.8486 26.8633 70.5605 0 97.4248
c-26.8643 26.8633 -70.5762 26.8633 -97.4404 0l-204.624 -204.608c-0.12793 -0.112305 -0.303711 -0.255859 -0.448242 -0.416016c-44.5273 -44.5117 -44.5273 -116.96 0 -161.488c44.5283 -44.5273 117.009 -44.5273 161.536 0l0.416016 0.416016h0.0166016
l139.664 139.648l32.4795 -32.4482l-139.68 -139.647c-0.160156 -0.128906 -0.272461 -0.272461 -0.416016 -0.432617c-62.5605 -62.5117 -163.968 -62.5117 -226.496 0c-62.5283 62.5283 -62.5283 163.904 0 226.448
c0.125977 0.107422 0.319336 0.293945 0.431641 0.416016l-0.015625 0.015625l204.656 204.544c18.5605 18.5732 54.9346 33.6475 81.1914 33.6475c26.2578 0 62.6318 -15.0742 81.1924 -33.6475c18.5752 -18.5537 33.6504 -54.9209 33.6504 -81.1758
s-15.0752 -62.6211 -33.6504 -81.1758l-194.896 -194.848c-11.165 -11.2988 -33.1191 -20.4688 -49.0039 -20.4688c-38.0303 0 -68.8955 30.8652 -68.8955 68.8965c0 15.8809 9.16602 37.8311 20.46 48.9961l162.416 162.368z" />
    <glyph glyph-name="browse" unicode="b" 
d="M491.456 350.896c15.6797 -15.6807 28.5439 -46.7041 28.5439 -68.9121v-306.864c-0.0615234 -22.2217 -18.1465 -40.3066 -40.3682 -40.3682h-371.472c-22.2217 0.0615234 -40.3066 18.1465 -40.3682 40.3682v28.1436
c8.65625 -4.03223 23.1279 -9.45117 32.3037 -12.0957v-16.0479c0.0517578 -4.40039 3.66406 -8.02051 8.06445 -8.08008h371.472c4.40039 0.0595703 8.02051 3.67969 8.08008 8.08008v306.864c0 2.43164 -0.320312 5.16797 -0.864258 8.08008h-128.352v128.352
c-2.89648 0.52832 -5.63184 0.847656 -8.06445 0.847656h-242.271c-4.36816 0 -8.06445 -3.69531 -8.06445 -8.08008v-217.775c-11.584 -3.34375 -22.3516 -7.45605 -32.3037 -12.0957v229.871c0.0615234 22.2217 18.1465 40.3066 40.3682 40.3682h242.256
c22.208 0 53.248 -12.8477 68.9121 -28.5439zM390.8 322.352h82.4961c-1.55176 2.19238 -3.10355 4.12891 -4.67191 5.71289l-72.1123 72.1113c-1.58398 1.58398 -3.51953 3.15234 -5.71191 4.67188v-82.4961zM312.16 96.1758c1.59961 -2.14355 1.59961 -5.61621 0 -7.72754
c0 0 -54.9766 -73.3281 -151.472 -73.3281c-96.4805 0 -151.488 73.3281 -151.488 73.3281c-1.60059 2.11133 -1.60059 5.58398 0 7.72754c0 0 55.0078 73.3125 151.488 73.3125c96.4951 0 151.472 -73.3125 151.472 -73.3125zM160.688 35.2803
c31.4766 0 57.0234 25.5469 57.0234 57.0234c0 31.4775 -25.5469 57.0244 -57.0234 57.0244c-31.4775 0 -57.0244 -25.5469 -57.0244 -57.0244c0 -31.4766 25.5469 -57.0234 57.0244 -57.0234z" />
    <glyph glyph-name="close" unicode="x" 
d="M393.36 442.896c1.6543 1.65039 4.89453 2.99023 7.23145 2.99023c2.33789 0 5.57715 -1.33984 7.23242 -2.99023l101.2 -101.2c1.65039 -1.65527 2.99026 -4.89453 2.99026 -7.23242c0 -2.33691 -1.33987 -5.57715 -2.99026 -7.23145l-137.36 -137.345l137.328 -137.359
c1.65527 -1.65625 2.99805 -4.89941 2.99805 -7.24023c0 -2.33398 -1.33594 -5.57031 -2.98242 -7.22363l-101.2 -101.2c-1.65723 -1.64355 -4.89746 -2.97754 -7.23145 -2.97754c-2.3418 0 -5.58887 1.34082 -7.24805 2.99316l-137.328 137.344l-137.344 -137.344
c-1.6582 -1.64355 -4.89745 -2.97754 -7.23241 -2.97754c-2.33398 0 -5.57422 1.33398 -7.23145 2.97754l-101.2 101.2c-1.64648 1.6543 -2.98242 4.89062 -2.98242 7.22363c0 2.33398 1.33594 5.57031 2.98242 7.22461l137.344 137.359l-137.344 137.345
c-1.65137 1.6543 -2.99023 4.89453 -2.99023 7.23145c0 2.33789 1.33887 5.57715 2.99023 7.23242l101.2 101.2c1.6543 1.65039 4.89453 2.99023 7.23145 2.99023c2.33789 0 5.57714 -1.33984 7.23241 -2.99023l137.344 -137.345z" />
    <glyph glyph-name="collapse-closed" unicode="9" 
d="M126.432 -0.448242c-26.3359 -15.2158 -47.8877 -2.75195 -47.8877 27.6641v331.696c0 30.4316 21.5518 42.8643 47.8877 27.6641l287.265 -165.872c26.3359 -15.2158 26.3359 -40.0801 0 -55.2959z" />
    <glyph glyph-name="collapse-open" unicode="8" 
d="M62.4805 322.624c-15.2002 26.3359 -2.75293 47.8877 27.6797 47.8877h331.696c30.4316 0 42.8633 -21.5518 27.6631 -47.8877l-165.903 -287.264c-15.2002 -26.3359 -40.0645 -26.3359 -55.2803 0z" />
    <glyph glyph-name="collapse" unicode="w" 
d="M329.12 116.768h-320c-4.99219 0 -9.12012 4.12891 -9.12012 9.12012v128c0.0263672 5.00877 4.1123 9.09373 9.12012 9.1201h493.76c5 -0.0341797 9.08493 -4.12012 9.12009 -9.1201v-128c0 -4.99121 -4.1279 -9.12012 -9.12009 -9.12012h-173.76z" />
    <glyph glyph-name="compare" unicode="O" 
d="M349.472 350.432c89.6006 0 162.528 -72.9277 162.528 -162.544c0 -89.6318 -72.9121 -162.56 -162.528 -162.56h-0.0400391c-28.4023 0 -70.252 13.3398 -93.416 29.7754c-26.4639 -18.7031 -58.6719 -29.7754 -93.4561 -29.7754
c-89.6318 0 -162.544 72.9443 -162.544 162.56c0 89.6162 72.9121 162.544 162.544 162.544h0.00683594c28.4082 0 70.2734 -13.332 93.4492 -29.7598c26.4648 18.6719 58.6562 29.7598 93.4561 29.7598zM256.016 123.152c12.7842 18.3994 20.3203 40.6719 20.3203 64.7197
s-7.53613 46.3516 -20.3203 64.7197c-12.7832 -18.3838 -20.336 -40.6719 -20.336 -64.7197s7.55275 -46.3359 20.336 -64.7197zM48.7676 187.888c0 -62.752 51.04 -113.792 113.776 -113.792c17.0742 0.00878906 42.8506 7.08398 57.5361 15.792
c-20.7197 27.2959 -33.168 61.168 -33.168 98s12.4639 70.7207 33.168 98c-16.8965 9.95215 -36.5283 15.7764 -57.5361 15.7764c-62.7422 -0.0615234 -113.714 -51.0332 -113.776 -113.776zM349.472 74.0957c62.7207 0 113.776 51.04 113.776 113.792
s-51.0557 113.776 -113.776 113.776c-17.0703 -0.0107422 -42.8467 -7.07812 -57.5361 -15.7764c18.3008 -23.9521 33.1523 -67.8564 33.1523 -98c0 -30.1426 -14.8516 -74.0469 -33.1523 -98c14.6865 -8.70605 40.4629 -15.7812 57.5361 -15.792z" />
    <glyph glyph-name="crop" unicode="\" 
d="M416 317.888v-224h96v-64h-96v-96h-64v96h-256v256h-96v64h96v96h64v-96h224l96 96l32 -32zM160 285.888v-160l160 160h-160zM192 93.8877h160v160z" />
    <glyph glyph-name="cut" unicode="c" 
d="M445.392 107.312c40.8008 -40.7207 46.3203 -101.248 12.3047 -135.169c-14.9766 -14.96 -35.1367 -22.2559 -56.4961 -22.2559c-27.1045 0 -56.1445 11.7607 -78.9766 34.5439c-26.7832 26.7363 -38.3672 62 -33.5361 92.6719l-32.6875 32.7363l-32.6719 -32.7363
c4.81543 -30.6719 -6.73633 -65.9355 -33.5361 -92.6719c-22.8477 -22.7832 -51.8877 -34.5439 -78.9922 -34.5439c-21.3594 0 -41.5195 7.2959 -56.5273 22.2559c-34 33.9365 -28.4805 94.4482 12.3359 135.168c22.832 22.7842 51.8877 34.5449 78.9756 34.5449h14.5596
l31.9521 32l-127.808 128.016c-31.9365 32 -31.9365 96.0156 0 128.016l191.712 -192.031l191.712 192.031c31.9365 -32 31.9365 -96.0156 0 -128.016l-127.808 -128.016l31.9521 -32h14.5596c27.1201 0 56.1436 -11.7441 78.9756 -34.5439zM176.512 39.1201
c2.80566 6.35938 5.1709 17.1621 5.28027 24.1123c0 7.4873 -1.69629 18.0957 -9.75977 26.1436c-8.1123 8.1123 -18.8486 9.80762 -26.4326 9.80762c-7.01172 -0.09375 -17.915 -2.45898 -24.3359 -5.2793c-8.99121 -3.85645 -17.2637 -9.52051 -24.5752 -16.8164
c-7.3125 -7.2959 -12.96 -15.5039 -16.8164 -24.4639c-3.44043 -8 -5.26367 -16.3359 -5.26367 -24.1123c0 -7.50391 1.67969 -18.0957 9.74316 -26.1602c8.12891 -8.11133 18.8643 -9.79199 26.4326 -9.79199c7.85547 0 16.2715 1.82422 24.3359 5.28027
c8.97559 3.85645 17.248 9.52051 24.5596 16.8164c7.3125 7.2959 12.9766 15.5039 16.832 24.4639zM256 128.592c24.96 0 45.1836 20.2725 45.1836 45.2646c0 24.9912 -20.2236 45.2637 -45.1836 45.2637s-45.1836 -20.2725 -45.1836 -45.2637
c0 -24.9922 20.2236 -45.2646 45.1836 -45.2646zM427.632 2.36816c8.06445 8.04785 9.75977 18.6562 9.77637 26.1436c0 7.77637 -1.82422 16.1123 -5.26465 24.1123c-3.85547 8.94434 -9.50391 17.1523 -16.8154 24.4639c-7.3125 7.3125 -15.584 12.96 -24.5762 16.8164
c-8.06348 3.45605 -16.4961 5.2793 -24.3359 5.2793c-7.56836 0 -18.3037 -1.69531 -26.4316 -9.79199c-8.06445 -8.06348 -9.76074 -18.6553 -9.76074 -26.1592c0.0986328 -6.95117 2.45703 -17.7529 5.26465 -24.1123c3.33887 -7.64746 10.8721 -18.6074 16.8154 -24.4639
c5.88867 -5.94922 16.8984 -13.4834 24.5762 -16.8164c6.4209 -2.82227 17.3232 -5.1875 24.3359 -5.28027c7.55176 0 18.2881 1.69629 26.416 9.80859z" />
    <glyph glyph-name="database-submit" unicode="D" 
d="M64 385.024c0 33.5996 100.288 60.8477 224 60.8477s224 -27.248 224 -60.8477c0 -33.6006 -100.288 -60.8486 -224 -60.8486s-224 27.248 -224 60.8486zM288 253.888c104.336 0 191.744 15.3125 216.656 36c4.62402 -6.39941 7.34375 -13.0879 7.34375 -20
c0 -44.1602 -100.288 -80 -224 -80s-224 35.8398 -224 80c0 6.91211 2.71973 13.6006 7.34375 20c24.9121 -20.6875 112.32 -36 216.656 -36zM288 -2.1123c104.336 0 191.744 15.3125 216.656 36c4.62402 -6.39941 7.34375 -13.0879 7.34375 -20
c0 -44.1602 -100.288 -80 -224 -80c-34.4004 0 -66.8799 2.84863 -96 7.80859v56.1914h96zM288 121.888c104.336 0 191.744 15.3125 216.656 36c4.62402 -6.39941 7.34375 -13.0879 7.34375 -20c0 -44.1602 -100.288 -80 -224 -80v64zM256 29.8877h-96v-96h-64v96h-96v64h96
v96h64v-96h96v-64z" />
    <glyph glyph-name="delete" unicode="d" 
d="M64 -34.1123v352h384v-352c0 -17.6641 -14.3359 -32 -32 -32h-320c-17.6641 0 -32 14.3359 -32 32zM320 253.888v-256h64v256h-64zM224 253.888v-256h64v256h-64zM128 253.888v-256h64v256h-64zM448 413.888c35.3281 0 64 -28.6719 64 -64h-512
c0 35.3281 28.6719 64 64 64h128v32h128v-32h128z" />
    <glyph glyph-name="download" unicode="=" 
d="M442 112.896h62v-124h-496v124h62v-62h372v62zM380 267.888l-124 -186l-124 185.984h93.0078v155.008h62v-154.992h92.9922z" />
    <glyph glyph-name="edit-user" unicode="5" 
d="M506.08 166.608c3.26367 -3.24805 5.91312 -9.62012 5.91312 -14.2246c0 -4.61133 -2.65628 -10.9912 -5.92874 -14.2402l-14.3525 -14.2236l-7.66403 -7.56835l-60.96 60.3682l7.64844 7.56836l14.3359 14.2236c3.3125 3.26172 9.77444 5.90918 14.4239 5.90918
c4.63477 0 11.082 -2.63281 14.3916 -5.87695zM246.768 -4.67188l54.1289 -53.6318l-62.0166 -7.80859zM352.288 99.8398l-96.3203 -95.4082c-15.0234 -1.64746 -30.7353 -2.84766 -46.7353 -3.47168l-0.944336 -0.0322266
c-7.80762 -0.271484 -15.6641 -0.479492 -23.5361 -0.479492h-0.671875c-7.87207 0 -15.7285 0.191406 -23.5361 0.479492l-0.927734 0.0322266c-74.7363 2.87988 -144.145 18.2236 -159.2 33.6162c-16.6885 17.0557 -5.2959 46.7197 8.33594 59.7441
c14.208 13.5518 55.168 21.1201 91.7119 30.4316c9.39258 2.41602 31.0078 9.53613 33.5361 21.5361c-0.368164 41.2803 -16.7197 41.8877 -25.0557 58.9443c-8.35254 17.0557 -22.7207 59.2158 -8.35254 128.031c18.7197 113.12 91.376 112.624 91.376 112.624h0.671875
s72.6729 0.496094 83.5039 -51.1836c14.3682 -68.7998 0 -110.96 -8.36719 -128.017c-8.33594 -17.0713 -24.6729 -17.6631 -25.0566 -58.9434c2.52832 -12 24.1602 -19.1357 33.5361 -21.5361c31.2637 -7.96777 65.6963 -14.6719 83.9199 -24.9277zM400.256 154.112
l60.9922 -60.416l-134.08 -132.784l-60.9756 60.416z" />
    <glyph glyph-name="edit" unicode="e" 
d="M320 381.888l128 -128l-256 -256l-192 -64l64 192zM512 355.376v-0.0859375c0 -23.2363 -14.4434 -54.2217 -32.2402 -69.1621l-127.52 127.521c14.9727 17.7891 45.9961 32.2266 69.248 32.2266c49.9551 0 90.5049 -40.5439 90.5117 -90.499zM224 -34.1123h288v-32h-288
v32z" />
    <glyph glyph-name="expand" unicode="u" 
d="M502.864 263.024c5.03418 -0.00878906 9.12692 -4.10254 9.13571 -9.1367v-128c-0.0175781 -5.03418 -4.11722 -9.12695 -9.15237 -9.13574h-173.712v-173.712c-0.00878906 -5.03418 -4.10156 -9.13477 -9.13574 -9.15235h-128
c-5.04297 0.0175781 -9.14355 4.125 -9.15234 9.16797v173.696h-173.712c-5.02344 0 -9.13574 4.1123 -9.13574 9.13574v128c0.0175781 5.02635 4.11035 9.12596 9.13574 9.15233h173.729v173.712c0.00878906 5.03418 4.10156 9.12695 9.13574 9.13574h128
c5.02539 -0.0175781 9.11816 -4.11035 9.13574 -9.13574v-173.728h173.729z" />
    <glyph glyph-name="filter" unicode="f" 
d="M35.4238 401.856h441.136v-52.1768h-441.136v52.1768zM476.544 274.048l0.032196 -0.160156v-41.3438l-165.424 -113.248v-106.208l-110.049 -63.168c-0.03125 0.383789 -0.239258 0.767578 -0.239258 1.16797v168.208l-165.424 165.424v41.3604l0.015625 0.143555
h441.088v-52.1758z" />
    <glyph glyph-name="first-page" unicode="[" 
d="M457.504 344.896l-155.008 -155.009l154.992 -155.008l-92.9922 -92.9922l-248 248l248 248zM54.4961 437.888h62v-496h-62v496z" />
    <glyph glyph-name="fullscreen" unicode="F" 
d="M472.992 34.8799v92.9922h31.0078v-124h-124v31.0078h92.9922zM380 375.888h124v-124h-31.0078v92.9922h-92.9922v31.0078zM39.0078 127.888v-92.9912h92.9922v-31.0088h-124v124h31.0078zM39.0078 344.896v-93.0088h-31.0078v124h124v-30.9912h-92.9922zM70 81.3916
v216.992h372v-216.992h-372z" />
    <glyph glyph-name="hierarchy" unicode="h" 
d="M515.008 210.304v-55.2793h-114.704v55.2793h43.792v60.9922h-178.496v-207.04h43.8086v-55.2637h-114.72v55.2637h43.8076v207.04h-164.592v-60.9922h43.792v-55.2793h-114.688v55.2793h43.792v88.1123h191.696v61.0078h-43.8076v55.2637h114.72v-55.2637h-43.8086
v-61.0078h205.601v-88.1123h43.8076z" />
    <glyph glyph-name="last-page" unicode="]" 
d="M60.9922 34.8799l155.008 155.008l-155.008 155.009l93.0078 92.9912l248 -248l-248 -248zM464 -58.1123h-62v496h62v-496z" />
    <glyph glyph-name="like" unicode="k" 
d="M430.48 86.624c-0.816406 -9.79199 10.6074 -26.7842 10.6396 -36.6396c0.015625 -13.7607 -21.9521 -26.4482 -27.1523 -36.5762c-3.53613 -6.84863 0.624023 -23.6162 -2.36816 -30.7041c-5.23145 -12.3359 -27.3438 -31.584 -40.1436 -35.4238
c-40.7041 -12.208 -170 0 -170 0l-141.184 18.9121v192.672l45.9512 0.015625c13.5684 3.10449 41.9199 31.8564 77.04 121.328c5.71191 14.5439 16.5439 22.9277 28.9287 32.4639c20.6074 15.9043 36 38.2246 41.1836 118.641
c0.704102 11.0879 35.3916 9.43945 54.3037 -15.3447c15.4727 -20.2559 17.5361 -59.7441 5.2959 -89.5039c-8.31934 -20.3203 -38.6396 -67.3604 -27.7275 -86.3838c0 0 111.488 4.16014 133.408 -4.73634c13.8076 -5.58398 33.9199 -34.6719 33.04 -49.5518
c-0.480469 -8.19238 -15.4561 -20.2402 -16.5283 -28.3359c-1.34375 -10.2236 16.5117 -27.4717 16.5596 -37.792c0.0166016 -9.80762 -20.4316 -23.248 -21.2471 -33.04z" />
    <glyph glyph-name="lock" unicode="L" 
d="M408 223.888c8.7998 0 16 -7.19922 16 -16v-224c0 -8.7998 -7.2002 -16 -16 -16h-288c-8.7998 0 -16 7.2002 -16 16v224c0 8.80078 7.2002 16 16 16h16v64c0 70.6562 57.3438 128 128 128s128 -57.3438 128 -128v-64h16zM290.464 103.856
c11.8877 7.85547 21.5361 25.7959 21.5361 40.0449c0 26.4961 -21.5039 48 -48 48s-48 -21.5039 -48 -48c0 -14.249 9.64842 -32.1895 21.5361 -40.0449l-5.53613 -71.9521h64zM168 223.888h192v64c0 52.9922 -43.0078 96 -96 96s-96 -43.0078 -96 -96v-64z" />
    <glyph glyph-name="login" unicode="l" 
d="M348.992 437.888c85.6162 0 155.023 -69.3594 155.023 -154.976s-69.3916 -155.008 -155.008 -155.008h-0.194336c-14.9561 0 -38.5088 4.12792 -52.5732 9.21581l-40.2402 -40.2236h-62v-62h-62v-62h-61.9844v-31.0088h-31.0078
c-17.1357 0 -31.0078 13.8721 -31.0078 31.0088v92.9912l188.592 188.593c-1.4502 7.77539 -2.62695 20.5059 -2.62695 28.416c0 85.5547 69.4365 154.991 154.992 154.991h0.0351562zM395.44 282.832c25.665 0 46.4951 20.8301 46.4951 46.4961
s-20.8301 46.4961 -46.4951 46.4961c-25.666 0 -46.4961 -20.8301 -46.4961 -46.4961s20.8301 -46.4961 46.4961 -46.4961z" />
    <glyph glyph-name="mapping" unicode="0" 
d="M306.432 95.792l-14.5752 -52.5762h-48.0322l62.6074 204.864h60.8008l63.5352 -204.864h-49.8555l-15.792 52.5762h-58.6885zM358.416 130.448l-12.7676 43.4717c-3.66406 12.1602 -7.29688 27.3438 -10.3359 39.5205h-0.592773
c-3.04004 -12.1602 -6.0957 -27.6641 -9.43945 -39.5205l-12.1602 -43.4717h45.2959zM167.952 215.888l77.376 -44.6719l-77.376 -44.6719v89.3438zM181.024 65.8721v32h-79.7285v95.9521h-32v-127.952h111.729zM477.872 352c17.6162 0 32 -14.4004 31.9844 -32v-352
c0 -17.6162 -14.3848 -32 -32 -32h-287.969c-17.584 0 -32 14.3838 -32 32v64h-128.016c-17.5996 0 -32 14.4004 -32 32v352c0 17.5996 14.4004 32 32 32h320c17.5996 0 32 -14.4004 32 -32v-64h96zM205.904 -15.9844h256v320h-304.017s-7.19922 47.584 32.0322 48
c51.4404 0.560547 143.968 0 143.968 0v48h-288v-320h160.032zM206.688 368.784h-48.7842v-64.7842l32.0156 32.2236h16.752z" />
    <glyph glyph-name="menu" unicode="M" 
d="M30.4004 370.688h448v-78.3994h-448v78.3994zM30.4004 229.888h448v-78.3994h-448v78.3994zM30.4004 90.6875h448v-78.3994h-448v78.3994z" />
    <glyph glyph-name="move" unicode="m" 
d="M512 189.888l-128 -96v64h-96v-96h64l-96 -128l-96 128h64v96h-96v-64l-128 96l128 96v-64h96v96h-64l96 128l96 -128h-64v-96h96v64z" />
    <glyph glyph-name="next-page" unicode="&#x3e;" 
d="M93.0078 34.8799l155.008 155.008l-155.008 155.009l93.0078 92.9912l248.017 -248l-248.032 -248z" />
    <glyph glyph-name="play" unicode="v" 
d="M256 437.888c136.976 0 248 -111.023 248 -248c0 -136.976 -111.024 -248 -248 -248s-248 111.024 -248 248c0 136.977 111.024 248 248 248zM256 -27.1035c119.856 0 216.992 97.1357 216.992 216.991c0 119.84 -97.1357 216.992 -216.992 216.992
s-216.992 -97.1357 -216.992 -216.992c0 -119.855 97.1357 -216.991 216.992 -216.991zM194 82.5117v214.752l186 -107.376z" />
    <glyph glyph-name="previous-page" unicode="&#x3c;" 
d="M263.024 189.888l154.976 -155.008l-92.9922 -92.9922l-248 248l248 248l93.0078 -92.9912z" />
    <glyph glyph-name="print" unicode="P" 
d="M501.872 220.256c5.56836 -16.6875 10.1279 -44.7363 10.1279 -62.3682v-96c0 -17.5996 -14.4004 -32 -32 -32h-44v80c0 4.40039 -3.59961 8.00001 -8 8.00001h-344c-4.40039 0 -8 -3.59962 -8 -8.00001v-80h-44c-17.5996 0 -32 14.4004 -32 32v96
c0 17.6318 4.55957 45.6807 10.1279 62.3848l11.7441 35.2471c5.56836 16.6885 24.5283 30.3682 42.1279 30.3682h32v128c0 17.6006 14.4004 32 32 32h256c17.5996 0 32 -14.3994 32 -32v-128h32c17.5996 0 36.5596 -13.6797 42.1279 -30.3838zM128 413.888v-192h256v192
h-256zM128 93.8877h288v-128c0 -17.5674 -14.4004 -32 -32 -32h-256c-17.5996 0 -32 14.4326 -32 32v128h32z" />
    <glyph glyph-name="redo" unicode="}" 
d="M147.04 -66.1123c-140.352 151.712 -110.56 394.784 156.928 387.809v124.191l192.017 -192l-192.017 -192v126.912c-223.376 5.24805 -213.808 -151.888 -156.928 -254.912z" />
    <glyph glyph-name="refresh" unicode="R" 
d="M504 251.888h-186l69.5039 69.5039c-29.9873 30.082 -88.7988 54.4961 -131.274 54.4961h-0.229492c-102.72 0 -186 -83.2793 -186 -186c0 -102.72 83.2803 -186 186 -186c51.376 0 97.8721 20.7998 131.536 54.4639l43.8398 -43.8398
c-40.0068 -40.0879 -118.441 -72.624 -175.077 -72.624h-0.298828c-136.976 0 -248 111.024 -248 248c0 136.977 111.024 248 248 248c68.4805 0 130.48 -27.7598 175.344 -72.6553l72.6562 72.6553v-186z" />
    <glyph glyph-name="remove-user" unicode="6" 
d="M307.952 178.288l-65.2002 -65.2158l44.1445 -44.1602c-26.0566 -3.8291 -68.5771 -6.97559 -94.9121 -7.02441c-83.5039 0 -166.977 17.0566 -183.681 34.1279c-16.6875 17.0566 -5.31152 46.7207 8.33594 59.7441c14.208 13.5518 55.168 21.1201 91.7119 30.4326
c9.39258 2.41602 31.0244 9.53516 33.5361 21.5352c-0.368164 41.2803 -16.7197 41.8887 -25.0557 58.9443c-8.35156 17.0557 -22.7197 59.2158 -8.35157 128.032c10.8311 51.6797 83.5039 51.1836 83.5039 51.1836s72.6875 0.496094 83.5039 -51.168
c14.3838 -68.8154 0 -110.976 -8.35254 -128.032c-8.36816 -17.0713 -24.7041 -17.6631 -25.0556 -58.9434c2.52832 -12 24.1435 -19.1357 33.5361 -21.5361c10.6719 -2.71973 21.6797 -5.31152 32.3359 -7.91992zM444.8 45.8877l67.2002 -67.1836l-44.8164 -44.8164
l-67.1836 67.1846l-67.1836 -67.1846l-44.8164 44.8164l67.2002 67.1836l-67.2002 67.1846l44.8164 44.8154l67.1836 -67.1836l67.1836 67.1836l44.8164 -44.8154z" />
    <glyph glyph-name="remove" unicode="-" 
d="M329.12 116.768h-320c-5 0.0351562 -9.08496 4.1211 -9.12012 9.12012v128c0 4.99217 4.1123 9.1201 9.12012 9.1201h493.76c4.99219 0 9.12009 -4.12793 9.12009 -9.1201v-128c0 -4.99121 -4.1279 -9.12012 -9.12009 -9.12012h-173.76z" />
    <glyph glyph-name="save" unicode="S" 
d="M276.672 197.008v-0.015625l3.16797 -3.13574c3.48828 -3.45605 6.32031 -10.3369 6.32031 -15.2646v-228.032c-0.0263672 -7.37402 -6.0332 -13.3809 -13.4082 -13.4072h-259.344c-7.37598 0 -13.4082 6.04785 -13.4082 13.4072v259.345
c0.0351562 7.36621 6.04199 13.373 13.4082 13.4072h228.032c4.92773 0 11.792 -2.86328 15.2637 -6.33594l3.16797 -3.13574zM222.56 -23.1035v79.4873c0 4.38379 -3.56738 7.95215 -7.95117 7.95215h-143.089c-4.38379 0 -7.95117 -3.56836 -7.95117 -7.95215v-79.4873
c0.00878906 -4.38086 3.57129 -7.94336 7.95117 -7.95215h143.089c4.37988 0.00878906 7.94238 3.57129 7.95117 7.95215zM222.56 104.08v79.4883c0 4.38379 -3.56738 7.95117 -7.95117 7.95117h-143.089c-4.38379 0 -7.95117 -3.58398 -7.95117 -7.95117v-79.4883
c0.00878906 -4.38086 3.57129 -7.94336 7.95117 -7.95215h143.089c4.37988 0.00878906 7.94238 3.57129 7.95117 7.95215zM158.944 171.648h31.8076v-55.6328h-31.8076v55.6328zM451.808 346.816h0.032196c15.4404 -15.4404 28.0957 -45.9688 28.0957 -67.8408v-302.048
c-0.0693359 -21.877 -17.8818 -39.6895 -39.7598 -39.7598h-122.176v31.8076h122.16c4.32031 0 7.95215 3.63281 7.95215 7.95215v302.048c0 2.38477 -0.288086 5.10449 -0.832031 7.95215h-126.353v126.336c-2.84766 0.52832 -5.53613 0.832031 -7.95215 0.832031h-238.464
c-4.31934 0 -7.95215 -3.63184 -7.95215 -7.95215v-156.256h-31.792v156.256c0.0527344 21.8867 17.8584 39.6914 39.7441 39.7441h238.464c21.8564 0 52.4004 -12.6396 67.8408 -28.0957zM352.768 318.704h0.0166016h81.2002
c-1.53613 2.16016 -3.07227 4.04785 -4.6084 5.61621l-70.9756 70.9756c-1.55273 1.56836 -3.47266 3.10449 -5.63281 4.6084v-81.2002z" />
    <glyph glyph-name="scaleable" unicode="Y" 
d="M512 138.544v-0.0322266v-202.544h-202.544l69.04 67.1523l6.17578 5.9043l-128.672 128.672l-122.496 -122.769l-6.17579 -5.90332l6.17579 -5.9043l69.04 -67.1523h-202.544v202.544l67.1523 -69.04l5.90332 -6.17578l128.672 128.672l-122.768 122.496
l-5.9043 6.17578l-5.90332 -6.17578l-67.1523 -69.04v202.544h202.544l-69.04 -67.1514l-6.17579 -5.9043l6.17579 -5.9043l116.576 -116.848l5.9043 -5.90433l128.672 128.672l-6.17578 5.9043l-69.04 67.1523h202.544v-202.544l-67.1523 69.0401l-5.9043 6.17578
l-5.90332 -6.17578l-116.849 -116.576l-5.90332 -5.9043l128.672 -128.672l5.90332 6.17578z" />
    <glyph glyph-name="search-document" unicode="j" 
d="M471.008 345.568h-0.015625c15.8242 -15.8086 28.6718 -46.8809 28.6875 -69.2324v-293.296c-0.0263672 -23.8906 -19.4375 -43.3018 -43.3281 -43.3281h-112.976c14.5654 6.45801 27.8838 24.542 29.7275 40.3682h83.248
c1.5791 0.0634766 2.91211 1.39746 2.97656 2.97559v293.296c0 0.912109 -0.0478516 1.9043 -0.160156 2.97656h-123.344v123.328c-1.07227 0.0957031 -2.06445 0.160156 -2.95996 0.160156h-231.568c-1.55176 0 -2.97559 -1.4248 -2.97559 -2.97656v-86.4482
c-11.9043 -3.39453 -29.9893 -11.623 -40.3682 -18.3672v104.815c0.0263672 23.8906 19.4375 43.3018 43.3281 43.3281h231.567c22.3848 0 53.4404 -12.8643 69.2168 -28.6719zM376.176 319.664h63.6484l-63.6484 63.6484v-63.6484zM282 -46.5439h-0.015625
c4.45312 -4.9375 13.0117 -11.1094 19.1035 -13.7764h-199.824c-23.8906 0.0263672 -43.3008 19.4375 -43.3281 43.3281v60.5439c10.3799 -6.74414 28.4648 -14.9736 40.3682 -18.3682v-42.1758c0.0644531 -1.5791 1.39746 -2.91211 2.97656 -2.97559h158.08
l22.1914 -26.0801l0.224609 -0.255859zM326.96 -40.6562l0.015625 0.0166016c-0.751953 -0.12793 -1.53516 -0.160156 -2.30371 -0.208008c-1.04004 -0.0966797 -2.06348 -0.176758 -3.10352 -0.144531c-1.13672 0.0322266 -2.27246 0.192383 -3.4082 0.368164
c-0.832031 0.12793 -1.66406 0.208008 -2.49609 0.400391c-1.18359 0.271484 -2.33594 0.704102 -3.48828 1.13574c-0.751953 0.271484 -1.53613 0.496094 -2.27148 0.832031c-1.24805 0.576172 -2.41602 1.34375 -3.60059 2.0957
c-0.591797 0.383789 -1.23145 0.671875 -1.80762 1.10449c-1.71191 1.2793 -3.36035 2.71973 -4.86426 4.39942l-67.8076 79.7285c-7.44043 8.25586 -10.8164 17.0557 -10.4961 24.1758c-19.5449 -16.6836 -56.2627 -30.2236 -81.96 -30.2236
c-69.6846 0 -126.24 56.5547 -126.24 126.239s56.5557 126.24 126.24 126.24h0.0722656c69.6514 -0.0234375 126.181 -56.5723 126.181 -126.224c0 -25.6758 -13.5215 -62.3682 -30.1807 -81.9043c1.13574 0.0644531 2.39941 -0.143555 3.61523 -0.288086
c0.78418 -0.0957031 1.55275 -0.112305 2.38478 -0.288086c1.15137 -0.255859 2.33595 -0.6875 3.51955 -1.10352c0.799805 -0.288086 1.58397 -0.463867 2.40038 -0.816406c1.32812 -0.576172 2.6875 -1.37598 4.04785 -2.16016
c0.704102 -0.399414 1.3916 -0.6875 2.08008 -1.13574c1.78809 -1.17188 4.52637 -3.28613 6.11133 -4.71973l79.7285 -67.8086c12.8955 -11.6152 14 -30.5752 2.43164 -42.1592c-1.4082 -1.39258 -2.92773 -2.57617 -4.51172 -3.61621
c-0.52832 -0.335938 -1.10352 -0.560547 -1.64844 -0.864258c-1.08789 -0.591797 -2.17578 -1.2002 -3.32715 -1.64844c-0.672852 -0.255859 -1.39258 -0.399414 -2.09668 -0.607422c-1.07129 -0.320312 -2.12793 -0.640625 -3.21582 -0.816406zM139.44 85.1523
c46.4473 0 84.1436 37.6963 84.1436 84.1436s-37.6963 84.1445 -84.1436 84.1445c-46.4482 0 -84.1445 -37.6973 -84.1445 -84.1445s37.6963 -84.1436 84.1445 -84.1436z" />
    <glyph glyph-name="search" unicode="1" 
d="M488.624 15.8076c19.0078 -17.1035 20.624 -45.0557 3.58392 -62.1436c-17.0723 -17.04 -45.0078 -15.4404 -62.1123 3.56836l-99.9199 117.504c-10.96 12.1602 -15.9521 25.1514 -15.4717 35.6318c-28.7051 -24.5537 -82.6592 -44.4805 -120.433 -44.4805h-0.271484
c-102.72 0 -186 83.2803 -186 186c0 102.721 83.2637 186 185.984 186c102.72 0 186 -83.2793 186 -186v-0.253922c0 -37.7773 -19.9346 -91.7314 -44.4961 -120.434c10.5117 0.479492 23.4873 -4.52832 35.6318 -15.4717zM194 127.888c68.4482 0 124 55.5527 124 124
c0 68.4482 -55.5518 124 -124 124s-124 -55.5518 -124 -124c0 -68.4473 55.5518 -124 124 -124z" />
    <glyph glyph-name="send" unicode="n" 
d="M224 93.8877l288 328.433l-91.1836 -398.672zM160 115.936l-160 53.1523l512 253.232zM224 59.9043l92.8799 -33.1367l-92.8799 -92.8799v126.017z" />
    <glyph glyph-name="settings" unicode="s" 
d="M501.76 155.952l-38.3994 -3.21582c-2.80859 -16.3438 -10.915 -41.7402 -18.0967 -56.6885l29.2168 -25.5361c-8.80859 -16.5977 -26.4062 -41.1768 -39.2803 -54.8633l-32.9443 20.3672c-11.7236 -11.5293 -32.9697 -27.248 -47.4238 -35.0879l8.89648 -38.1113
c-19.8564 -9.74414 -41.168 -16.8643 -63.5361 -20.9443l-14.8643 36.1924c-8.05078 -1.15918 -21.1865 -2.09863 -29.3203 -2.09863s-21.2685 0.939453 -29.3193 2.09863l-14.8809 -36.1602c-18.3359 3.34668 -46.793 12.7363 -63.5195 20.96l8.87988 38.1113
c-14.4629 7.81641 -35.7021 23.5293 -47.4082 35.0723l-32.9434 -20.3682c-12.8896 13.6797 -30.4941 38.2588 -39.2969 54.8643l29.2168 25.5205c-8.49609 17.6797 -14.624 36.7197 -18.0801 56.7197l-38.416 3.16797c-1.23828 9.32324 -2.24316 24.5225 -2.24316 33.9277
s1.00488 24.6045 2.24316 33.9277l38.4316 3.18457c2.80176 16.3477 10.9014 41.751 18.0801 56.7041l-29.2158 25.5195c8.80078 16.6113 26.3975 41.2051 39.2803 54.8965l32.9277 -20.3682c11.7275 11.5234 32.9736 27.2432 47.4238 35.0879l-8.87988 38.0801
c19.8398 9.75977 41.168 16.8955 63.5195 20.9756l14.8809 -36.1602c8.06152 1.16113 21.2148 2.10254 29.3594 2.10254c8.11328 0 21.2168 -0.93457 29.248 -2.08594l14.8799 36.1602c18.3379 -3.34375 46.7949 -12.7334 63.5205 -20.96l-8.89648 -38.0967
c14.457 -7.8291 35.6963 -23.5488 47.4082 -35.0879l32.9443 20.3682c12.8818 -13.6934 30.4863 -38.2871 39.2959 -54.8955l-29.2158 -25.5205c7.18457 -14.9512 15.292 -40.3545 18.0957 -56.7041l38.4316 -3.18359c1.23828 -9.3252 2.24414 -24.5293 2.24414 -33.9365
s-1.00586 -24.6104 -2.24414 -33.9355zM256 116.928c39.6484 0 71.792 32.6719 71.792 72.96s-32.1602 72.96 -71.792 72.96s-71.792 -32.6553 -71.792 -72.96c0 -40.2881 32.1436 -72.96 71.792 -72.96z" />
    <glyph glyph-name="share" unicode="r" 
d="M426.496 96.8965c42.7793 -0.00292969 77.5 -34.7246 77.5 -77.5049c0 -42.7822 -34.7227 -77.5039 -77.5039 -77.5039c-42.7822 0 -77.5049 34.7217 -77.5049 77.5039c0 3.41309 0.439453 8.91894 0.980469 12.2881l-208.768 104.353
c-12.6143 -13.0537 -37.583 -23.6484 -55.7354 -23.6484c-42.7822 0 -77.5039 34.7217 -77.5039 77.5039s34.7217 77.5039 77.5039 77.5039h0.0390625c21.8721 0 41.5996 -9.08789 55.6963 -23.6474l208.768 104.384c-0.541992 3.37402 -0.982422 8.88574 -0.982422 12.3037
c0 42.7822 34.7217 77.5039 77.5039 77.5039s77.5039 -34.7217 77.5039 -77.5039s-34.7217 -77.5039 -77.5039 -77.5039c-18.1309 0 -43.0791 10.5732 -55.6895 23.6006l-208.768 -104.385c0.527344 -3.36133 0.956055 -8.85254 0.956055 -12.2559
s-0.428711 -8.89355 -0.956055 -12.2559l208.768 -104.384c12.5713 13.0537 37.4834 23.6484 55.6064 23.6484h0.0898438z" />
    <glyph glyph-name="stop" unicode="o" 
d="M487.456 242.848c4.99121 -5.01953 9.043 -14.8398 9.043 -21.9199c0 -7.08691 -4.05862 -16.9141 -9.05862 -21.9355l-9.10446 -9.10449c-78.1123 -78.1113 -105.855 -247.983 -260.848 -247.983s-186 154.992 -186 216.992v154.991
c0 17.04 13.9199 31.0088 30.9756 31.0088c17.0557 0 31.0078 -13.9688 31.0078 -31.0088v-93.0078c0.37207 -8.17773 7.31738 -14.8154 15.5039 -14.8154s15.1328 6.6377 15.5049 14.8154v155.008c0 17.04 13.8877 31.0088 30.9434 31.0088
c17.0566 0 31.0078 -13.9688 31.0078 -31.0088v-155.008c0.37207 -8.17773 7.31738 -14.8154 15.5039 -14.8154c8.1875 0 15.1328 6.6377 15.5049 14.8154v186c0 17.0557 13.9512 31.0078 31.0078 31.0078c17.0557 0 31.0078 -13.9678 31.0078 -31.0078v-186
c0.37207 -8.17773 7.31738 -14.8154 15.5039 -14.8154s15.1328 6.6377 15.5039 14.8154v155.008c0 17.0566 13.9521 31.0088 31.0078 31.0088c17.0566 0 31.0088 -13.9688 31.0088 -31.0088v-155.008c0 -44.9756 36.3193 -12.832 57.6475 8.48047l13.4883 13.4873
c5.01855 4.99609 14.8389 9.04982 21.9199 9.04982s16.9013 -4.05373 21.9199 -9.04982z" />
    <glyph glyph-name="submit" unicode="_" 
d="M442 112.896h62v-124h-496v124h62v-62h372v62zM132 236.896l124 185.983l123.984 -185.983h-92.9922v-155.009h-62v155.009h-92.9922z" />
    <glyph glyph-name="target" unicode="T" 
d="M256 445.888c141.392 0 256 -114.607 256 -256c0 -141.392 -114.608 -256 -256 -256s-256 114.608 -256 256c0 141.393 114.608 256 256 256zM256 -2.1123c106.032 0 192 85.9688 192 192c0 106.032 -85.9678 192 -192 192s-192 -85.9678 -192 -192
c0 -106.031 85.9678 -192 192 -192zM160 189.888c0 52.9922 43.0078 96 96 96s96 -43.0078 96 -96c0 -52.9912 -43.0078 -96 -96 -96s-96 43.0088 -96 96z" />
    <glyph glyph-name="tool" unicode="t" 
d="M482.944 107.232c38.7197 -38.8643 38.7197 -102 0.111328 -140.784c-16.0381 -16.0742 -47.4834 -29.1201 -70.1895 -29.1201h-0.177734h-0.273438c-22.6602 0 -54.041 13.0166 -70.0469 29.0557c-20.3682 20.4639 -29.7441 47.6162 -28.6719 74.4326l-151.84 151.855
c-3.93652 -1.32812 -7.88867 -2.27148 -11.2969 -2.27148l-71.1357 0.03125c-8.71973 0 -19.04 6.40039 -22.9922 14.1602l-54.3838 108.8c-3.9043 7.74414 -2.04785 19.2324 4.14453 25.376l11.8232 11.8242c2.57617 2.53711 7.60058 4.5957 11.2168 4.5957
c3.61524 0 8.63965 -2.05859 11.2158 -4.5957l63.3115 -63.2959c2.56836 -2.55078 7.58886 -4.62012 11.208 -4.62012s8.64063 2.06934 11.208 4.62012l29.0078 29.0244c2.55176 2.56934 4.62207 7.59473 4.62207 11.2158s-2.07031 8.64551 -4.62207 11.2158
l-63.2959 63.2959c-2.56152 2.56543 -4.6416 7.59082 -4.6416 11.2158c0 3.62598 2.08008 8.65039 4.6416 11.2168l11.8564 11.8398c6.19141 6.17578 17.584 8 25.4082 4.14355l108.752 -54.4316c7.82324 -3.83984 14.2236 -14.208 14.2236 -22.9287v-71.1357
c0 -3.3916 -0.927734 -7.32812 -2.25586 -11.2314l146.864 -146.896c30.7354 4.73633 63.5518 -4.03223 86.208 -26.6074zM442.72 6.76758c6.80371 6.89355 12.3242 20.3477 12.3242 30.0322c0 9.72852 -5.56348 23.2256 -12.4199 30.1279
c-6.82617 6.80957 -20.1904 12.3359 -29.832 12.3359h-0.120117h-0.118164c-9.68555 0 -23.1016 -5.56152 -29.9453 -12.416c-6.81348 -6.89648 -12.3418 -20.3613 -12.3418 -30.0557c0 -9.72266 5.55762 -23.2168 12.4053 -30.1201
c15.9365 -15.792 43.9365 -15.9678 60.0479 0.0957031z" />
    <glyph glyph-name="unassigned-job" unicode="*" 
d="M488.016 -15.0244c11.4639 0 20.7686 -9.30371 20.7686 -20.7676s-9.30472 -20.7676 -20.7686 -20.7676h-470.479c-11.4639 0 -20.7686 9.30371 -20.7686 20.7676s9.30469 20.7676 20.7686 20.7676h34.8154c24.6885 71.376 129.713 373.456 147.137 399.009
c17.3115 25.3916 39.9834 30.2236 53.2959 28.9912c13.2637 1.23242 35.9834 -3.58398 53.2803 -28.9912c17.4395 -25.5527 122.464 -327.633 147.168 -399.009h34.7832zM288.704 333.216h-71.8564c-9.47461 -24.2275 -24.3486 -63.7451 -33.1992 -88.208h138.256
c-13.1367 35.9365 -24.7207 66.8486 -33.2002 88.208zM341.136 191.968h-176.704c-8.31934 -23.1201 -16.9121 -47.2002 -25.5039 -71.4395h227.696c-6.98242 19.7363 -18.4004 51.7412 -25.4883 71.4395zM385.36 67.4883h-265.152
c-8.19238 -23.3125 -16.1435 -46.0801 -23.5996 -67.5205h312.352c-7.45605 21.4404 -15.4082 44.208 -23.5996 67.5205z" />
    <glyph glyph-name="undo" unicode="{" 
d="M356.928 -66.1123c56.8799 103.024 66.4482 260.16 -156.928 254.912v-126.912l-192 192l192 192v-124.191c267.488 6.97559 297.28 -236.097 156.928 -387.809z" />
    <glyph glyph-name="unlock" unicode="U" 
d="M384 417.888c70.6562 0 128 -57.3438 128 -128v-64h-32v64c0 52.9922 -43.0078 96 -96 96s-96 -43.0078 -96 -96v-64h16c8.7998 0 16 -7.19922 16 -16v-224c0 -8.7998 -7.2002 -16 -16 -16h-288c-8.7998 0 -16 7.2002 -16 16v224c0 8.80078 7.2002 16 16 16h240v64
c0 70.6562 57.3438 128 128 128zM186.464 105.84c11.8877 7.85645 21.5361 25.7969 21.5361 40.0459c0 26.4961 -21.5039 48 -48 48s-48 -21.5039 -48 -48c0 -14.249 9.64844 -32.1895 21.5361 -40.0459l-5.53613 -71.9521h64z" />
    <glyph glyph-name="view" unicode="4" 
d="M256 328.768c162.688 0 248 -119.871 248 -138.88c0 -19.0078 -85.3125 -138.88 -248 -138.88c-162.704 0 -248 119.872 -248 138.88c0 19.0088 85.2959 138.88 248 138.88zM256 83.0557c60.8799 0 110.224 47.8242 110.224 106.832
c0 59.0088 -49.3438 106.832 -110.224 106.832s-110.224 -47.8076 -110.224 -106.832c0 -59.0234 49.3438 -106.832 110.224 -106.832zM256 189.888c8.57617 -9.42383 55.1035 13.5527 55.1035 0c0 -29.5039 -24.6553 -53.4238 -55.1035 -53.4238
s-55.1201 23.9365 -55.1201 53.4238c0 29.4883 24.6885 53.4082 55.1201 53.4082c16.4482 0 -10.0957 -42.3359 0 -53.4082z" />
    <glyph glyph-name="zoom-in" unicode="3" 
d="M488.608 15.8242c19.04 -17.1045 20.6396 -45.0566 3.59961 -62.1445c-17.0723 -17.04 -45.0078 -15.4238 -62.1123 3.58398l-99.9199 117.488c-10.96 12.1602 -15.9521 25.1523 -15.4717 35.6318c-32.4805 -27.7119 -74.6396 -44.4795 -120.704 -44.4795
c-102.72 0 -186 83.2793 -186 186c0 102.704 83.2959 185.983 186 185.983c102.72 0 186 -83.2793 185.984 -185.983v-0.254883c0 -37.7764 -19.9346 -91.7314 -44.4961 -120.434c10.4961 0.480469 23.4717 -4.52735 35.6318 -15.4717zM194 127.904
c68.4482 0 124 55.5518 124 124c0 68.4473 -55.5518 124 -124 124s-124 -55.5527 -124 -124c0 -68.4482 55.5518 -124 124 -124zM223.328 339.904h0.015625v-58.6719h58.6719v-58.6729h-58.6719v-58.6719h-58.6719v58.6719h-58.6719v58.6729h58.6562v58.6719h58.6719z" />
    <glyph glyph-name="zoom-out" unicode="2" 
d="M488.608 15.8076c19.04 -17.1035 20.6396 -45.0557 3.59961 -62.1436c-17.0723 -17.04 -45.0078 -15.4238 -62.1123 3.58398l-99.9199 117.488c-10.96 12.1602 -15.9521 25.1514 -15.4717 35.6318c-32.4805 -27.7119 -74.6396 -44.4805 -120.704 -44.4805
c-102.72 0 -186 83.2959 -186 186c0 102.704 83.2959 186 186 186c102.72 0 186 -83.2959 185.984 -186v-0.253922c0 -37.7773 -19.9346 -91.7314 -44.4961 -120.434c10.4961 0.479492 23.4717 -4.52832 35.6318 -15.4717zM194 127.888c68.4482 0 124 55.5527 124 124
c0 68.4482 -55.5518 124 -124 124s-124 -55.5518 -124 -124c0 -68.4473 55.5518 -124 124 -124zM106 281.216h176v-58.6719h-176v58.6719z" />
  </font>
</defs>
</svg>
