<?xml version="1.0" encoding="utf-8"?>
<!-- Generated by IcoMoon.io -->
<!DOCTYPE svg PUBLIC "-//W3C//DTD SVG 1.1//EN" "http://www.w3.org/Graphics/SVG/1.1/DTD/svg11.dtd">
<svg version="1.1" xmlns="http://www.w3.org/2000/svg" xmlns:xlink="http://www.w3.org/1999/xlink" width="32" height="32" viewBox="0 0 32 32">
<path d="M31.784 14.037l-6.41-5.647c-0.189-0.187-0.338-0.123-0.34 0.141l0.002 3.37v0.908l-24.389 0.002c-0.349 0-0.629 0.28-0.629 0.628l-0.018 0.667c0 0.347 0.28 0.628 0.628 0.628l31.159-0.017c0.185-0.187 0.185-0.493-0.003-0.68zM0.215 17.662l6.41 5.646c0.188 0.186 0.338 0.123 0.34-0.141l-0.002-3.371v-0.908l24.391-0.002c0.348 0 0.627-0.279 0.627-0.627l0.018-0.668c0-0.348-0.279-0.626-0.627-0.626l-31.159 0.017c-0.186 0.186-0.186 0.493 0.002 0.68z"></path>
</svg>
