<?xml version="1.0" encoding="utf-8"?>
<!-- Generated by IcoMoon.io -->
<!DOCTYPE svg PUBLIC "-//W3C//DTD SVG 1.1//EN" "http://www.w3.org/Graphics/SVG/1.1/DTD/svg11.dtd">
<svg version="1.1" xmlns="http://www.w3.org/2000/svg" xmlns:xlink="http://www.w3.org/1999/xlink" width="32" height="32" viewBox="0 0 32 32">
<path d="M16.075 9.097c0.348 0 0.662 0.056 0.943 0.167 0.281 0.113 0.525 0.266 0.732 0.465s0.366 0.434 0.477 0.707c0.111 0.274 0.169 0.57 0.169 0.894 0 0.174-0.013 0.342-0.038 0.501-0.025 0.163-0.092 0.336-0.199 0.523-0.012 0.020-0.031 0.043-0.043 0.064-0.052 0.085-0.113 0.174-0.184 0.269-0.029 0.039-0.067 0.082-0.1 0.123v0c-0.047 0.059-0.091 0.115-0.145 0.177-0.207 0.236-0.496 0.508-0.87 0.813-0.175 0.147-0.334 0.29-0.484 0.434-0.596 0.562-1.028 1.101-1.279 1.616-0.181 0.375-0.344 0.834-0.443 1.502 0 0.002 0 0.004-0.001 0.004-0.069 0.469-0.109 1.035-0.099 1.762h2.975c-0.035-0.24-0.055-0.469-0.062-0.682-0.004-0.104 0.002-0.193 0.004-0.291s0-0.199 0.006-0.285c0.011-0.135 0.028-0.254 0.047-0.365 0.006-0.029 0.008-0.064 0.014-0.092 0.025-0.127 0.057-0.234 0.090-0.322 0.010-0.027 0.018-0.068 0.028-0.091 0.082-0.18 0.241-0.395 0.478-0.644 0.234-0.248 0.548-0.535 0.937-0.855 0.331-0.276 0.63-0.564 0.908-0.863 0.015-0.017 0.033-0.029 0.048-0.045 0.289-0.312 0.538-0.647 0.745-0.998 0.207-0.353 0.367-0.726 0.483-1.118 0.005-0.016 0.007-0.033 0.011-0.048 0.106-0.379 0.164-0.784 0.166-1.213 0-0.662-0.132-1.274-0.392-1.837-0.262-0.562-0.625-1.047-1.092-1.452-0.468-0.405-1.028-0.722-1.682-0.95s-1.378-0.342-2.173-0.342c-0.744 0-1.433 0.125-2.066 0.374s-1.188 0.601-1.664 1.062c-0.476 0.458-0.86 1.017-1.154 1.676-0.293 0.657-0.477 1.391-0.552 2.203h2.979c0.296-1.898 1.123-2.843 2.482-2.843zM6.982 16.967l-6.769 0.014c-0.187 0.187-0.187 0.494 0.002 0.681l6.41 5.646c0.189 0.186 0.338 0.123 0.34-0.141l-0.002-3.371v-0.908h6.487c0.001-0.791 0.058-1.416 0.149-1.924l-6.617 0.003zM31.372 16.964h-12.397c-0.036 0.038-0.082 0.079-0.115 0.112-0.158 0.168-0.23 0.27-0.261 0.318l-0.007 0.018-0.017 0.047c-0.017 0.041-0.028 0.096-0.035 0.129l-0.009 0.062-0.003 0.018c-0.014 0.084-0.028 0.172-0.036 0.266-0.002 0.037-0.002 0.080-0.002 0.121l-0.001 0.113-0.003 0.090c-0.001 0.047-0.003 0.094-0.002 0.137 0.007 0.174 0.023 0.334 0.047 0.494l12.823-0.002c0.348 0 0.628-0.279 0.628-0.627l0.018-0.668c0-0.348-0.28-0.628-0.628-0.628zM13.765 22.839c0 1.233 1 2.233 2.233 2.233s2.233-1 2.233-2.233c0-1.233-1-2.233-2.233-2.233s-2.233 1-2.233 2.233zM21.937 14.733l3.081-0.001 6.769-0.016c0.187-0.186 0.187-0.493-0.002-0.68l-6.41-5.648c-0.188-0.187-0.338-0.122-0.34 0.141l0.002 3.37v0.908l-2.821 0.001c-0.141 0.461-0.332 0.903-0.573 1.313-0.124 0.21-0.26 0.416-0.405 0.611h0.699zM0.628 14.734h13.864c0.287-0.415 0.648-0.834 1.106-1.268 0.166-0.158 0.342-0.317 0.547-0.489 0.073-0.060 0.129-0.111 0.194-0.167h-15.693c-0.348 0-0.628 0.28-0.628 0.628l-0.018 0.668c0 0.347 0.28 0.628 0.628 0.628z"></path>
</svg>
