<?xml version="1.0" encoding="utf-8"?>
<!-- Generated by IcoMoon.io -->
<!DOCTYPE svg PUBLIC "-//W3C//DTD SVG 1.1//EN" "http://www.w3.org/Graphics/SVG/1.1/DTD/svg11.dtd">
<svg version="1.1" xmlns="http://www.w3.org/2000/svg" xmlns:xlink="http://www.w3.org/1999/xlink" width="32" height="32" viewBox="0 0 32 32">
<path d="M11.331 11.596c0 0-0.364-0.793-0.529-1.189s-0.661-1.156-0.661-1.388c0-0.231 0.066-1.652-0.166-2.643-0.23-0.992-0.758-3.007-0.758-3.007l-0.661-1.718c0 0-0.066-1.091-0.33-1.289-0.265-0.197-0.463-0.528-0.628-0.264s-0.231 0.76-0.231 0.76-2.346 0.1-2.544 0.132c-0.198 0.033-1.058-0.76-1.355-0.628-0.298 0.133-0.594 0.496-0.364 0.695 0.232 0.198 0.496 0.826 0.496 0.826s-0.859 0.429-0.859 0.825 0.43 1.189 0.331 1.454-0.728 0.363-0.794 0.628c-0.066 0.264-0.198 1.090 0 1.42 0.198 0.331 1.851 1.355 1.851 1.355s0.528 1.42 0.627 1.784c0.099 0.364 0.529 5.518 0.661 6.112s0.826 4.329 4.857 7.038c0 0-0.014 2.805 0.522 3.868 0.121 0.238 0.573 1.858 0.627 2.018s0.296 2.294 0.256 2.499c-0.041 0.206-0.593 0.577-0.46 0.825 0.132 0.25 1.017 0.136 1.34 0.061s0.556-0.338 0.556-0.338l0.285-1.669c0 0 0.34 1.089 0.324 1.225-0.016 0.135-0.642 0.448-0.37 0.747s1.357 0.191 1.561-0.036c0.204-0.225 0.193-1.090 0.249-1.43 0.056-0.341 0.008-2.266 0.008-2.266s0.99-2.395 0.967-3.091c-0.022-0.696-0.082-1.785-0.082-1.785s1.618 0.528 2.345 0.396c0.727-0.133 2.214-0.529 2.214-0.529l0.529 0.166c0 0 0.573 2.174 1.004 3.033 0.429 0.858 0.628 1.585 0.628 1.816s-0.364 1.421-0.364 1.421l-0.43 1.255c0 0-0.957 0.431-1.024 0.761-0.065 0.33 0.562 0.363 1.059 0.33 0.495-0.032 0.825-0.265 0.825-0.265l0.265-0.727c0 0 0.363 0.297 0.561-0.1 0.199-0.396 1.157-2.544 1.322-2.741 0.166-0.199 0.429-0.231 0.429-0.231s0.034 2.015-0.064 2.346c-0.101 0.33-0.529 1.156-0.529 1.156s-0.893 0.463-0.661 0.628c0.232 0.164 1.52 0.264 1.851-0.033 0.33-0.298 0.265-0.76 0.265-0.76s1.090-2.247 1.354-2.644c0.265-0.396 0.596-2.015 0.529-2.775-0.065-0.76-0.476-1.844-0.476-1.844s0.76-1.784 0.925-2.412 0.331-1.42 0.331-1.42 0.958-1.686 0.826-3.503c-0.133-1.817-0.859-2.841-1.322-3.271s-2.411-0.892-2.411-0.892-0.761-0.595-2.28-0.925-3.304-0.231-3.667-0.132-3.106 0.827-3.106 0.827-1.42 0.065-1.949 0.033c-0.533-0.032-2.746-0.694-3.705-0.495z"></path>
</svg>
