<?xml version="1.0" encoding="utf-8"?>
<!-- Generated by IcoMoon.io -->
<!DOCTYPE svg PUBLIC "-//W3C//DTD SVG 1.1//EN" "http://www.w3.org/Graphics/SVG/1.1/DTD/svg11.dtd">
<svg version="1.1" xmlns="http://www.w3.org/2000/svg" xmlns:xlink="http://www.w3.org/1999/xlink" width="32" height="32" viewBox="0 0 32 32">
<path d="M17.048 31c-2.075 0-4.758-0.017-6.729-0.686-0.137-0.047-0.232-0.173-0.238-0.318s0.078-0.279 0.211-0.336c0.064-0.028 2.206-0.626 2.887-0.83 0.565-0.17 1.65-1.371 1.943-2.191 0.297-0.831 0.942-2.208 0.665-5.164-0.152-1.618-0.89-3.165-1.055-3.668-0.725-0.052-3.946-0.341-4.83-2.877-0.92-2.637 1.080-4.981 1.534-6.057 0.082-0.195 0.16-0.38 0.178-0.46 0.016-0.072 0.036-0.157 0.058-0.253 0.156-0.667 0.667-1.895 0.556-2.896l-0.018-0.165c-0.132-1.161-0.622-3.447 0.987-3.983 0.23-0.077 0.453-0.116 0.661-0.116 1.035 0 1.821 1.882 2.060 2.373 0.041 0.083 0.076 0.155 0.106 0.208 0.11 0.193 0.192 0.497 0.297 0.883 0.175 0.645 0.414 1.529 0.808 1.816 0.557 0.405 1.117 0.692 1.302 0.988 0.081 0.13 0.158 0.254 0.271 0.395 0.895 1.119 2.259 2.119 2.665 3.674 0.453 1.736-0.658 3.566-1.445 4.424-0.534 0.583-1.056 1.018-1.401 1.306-0.117 0.098-0.219 0.183-0.271 0.233-0.105 0.172-0.657 1.057-0.592 2.302 0.063 1.194 0.323 2.757 0.334 2.875 0.162 1.061 0.706 2.983 0.809 3.392 0.094 0.375 0.039 1.368 0.128 1.824 0.116-0.018 0.459-0.252 0.594-0.252 0.345 0 0.612 0.091 0.791 0.271 0.395 0.395 0.865 1.177 1.089 1.251 0.031-0.004 0.765 0.134 0.802 0.134 0.443 0 2.118 0.448 2.378 0.518 0.143 0.038 0.246 0.162 0.259 0.31 0.012 0.148-0.069 0.287-0.204 0.348-0.108 0.050-3.707 0.727-7.59 0.727zM12.262 29.649c1.616 0.458 3.281 0.689 4.962 0.689 2.304 0 4.158-0.438 5.245-0.775-0.321-0.070-0.601-0.122-0.725-0.122-0.001 0 0.007-0.002 0.013-0.004-0.038 0.009-0.077 0.014-0.118 0.014-0.571 0-1.808-1.231-1.821-1.243-0.032-0.032-0.126-0.065-0.295-0.065-0.271 0-0.554 0.085-0.557 0.086-0.095 0.029-0.199 0.017-0.284-0.035-0.086-0.052-0.145-0.137-0.164-0.235-0.003-0.014-0.267-1.4-0.397-1.92-0.136-0.545-0.589-3.517-0.608-3.643-0.001-0.006-0.002-0.012-0.002-0.018-0.001-0.014-0.135-1.36-0.202-2.624-0.060-1.144 0.090-2.594 0.437-2.941 0.070-0.070 0.178-0.16 0.327-0.285 0.331-0.276 0.831-0.694 1.334-1.242 0.62-0.676 1.115-2.286 0.727-3.775-0.371-1.422-1.501-2.334-2.347-3.391-0.139-0.173-0.234-0.326-0.319-0.462-0.17-0.272-0.304-0.486-0.75-0.811-0.594-0.432-0.86-1.413-1.073-2.2-0.080-0.297-0.163-0.603-0.229-0.718-0.041-0.073-0.083-0.158-0.127-0.248-0.27-0.553-0.421-1.263-0.972-1.263-0.133 0-0.643 0.081-0.802 0.134-1.021 0.341-0.749 1.211-0.606 2.468l0.019 0.168c0.124 1.121-0.185 2.439-0.351 3.147-0.022 0.092-0.041 0.174-0.057 0.245-0.032 0.142-0.109 0.326-0.217 0.58-0.42 0.995-1.559 2.913-0.728 5.294 0.832 2.386 2.988 2.659 3.359 2.659 0.019 0 0.030 0 0.034-0.001 0.151-0.008 0.293 0.085 0.346 0.227 0.025 0.067 0.62 1.673 0.823 3.835 0.289 3.085-0.033 4.803-0.353 5.701-0.382 1.069-1.485 2.066-2.236 2.291-0.313 0.094-0.834 0.298-1.286 0.483zM15.118 16.911c-0.117 0-0.222-0.083-0.246-0.202-0.332-1.685-0.958-4.49-1.225-4.846-0.42-0.56-0.568-1.865-0.651-2.94-0.049-0.637 0.159-1.143 0.31-1.418-0.474-0.458-0.826-1.656-0.971-2.216-0.035-0.134 0.046-0.271 0.18-0.305 0.134-0.035 0.271 0.046 0.305 0.18 0.259 1.002 0.682 1.968 0.888 2.026 0.080 0.023 0.148 0.085 0.174 0.164s0.015 0.167-0.037 0.233c-0.003 0.005-0.407 0.543-0.349 1.298 0.041 0.535-0.183 2.471 0.352 2.827 0.802 0.535 1.369 4.153 1.516 4.899 0.027 0.136-0.062 0.268-0.198 0.294-0.016 0.004-0.032 0.006-0.048 0.006zM17.391 16.777c-0.128 0-0.122-2.193-0.133-2.324-0.003-0.037-0.452-1.577-0.712-2.684-0.033-0.14-0.017-0.298 0.006-0.516 0.043-0.417 0.296-1.218 0.104-2.484-0.135-0.889-0.846-1.361-0.852-1.367-0.061-0.065-0.082-0.157-0.057-0.242 0.003-0.011 0.312-1.095 0.062-2.285-0.029-0.136 0.058-0.269 0.194-0.297s0.268 0.058 0.297 0.194c0.227 1.076 0.045 2.049-0.037 2.396 0.183 0.232 0.585 0.818 0.708 1.63 0.202 1.329 0.125 2.066 0.080 2.506-0.016 0.156-0.030 0.291-0.016 0.349 0.268 1.141 0.594 4.698 0.607 4.849 0.013 0.138-0.089 0.26-0.227 0.272-0.008 0.003-0.016 0.003-0.024 0.003z"></path>
</svg>
