<?xml version="1.0" encoding="utf-8"?>
<!-- Generated by IcoMoon.io -->
<!DOCTYPE svg PUBLIC "-//W3C//DTD SVG 1.1//EN" "http://www.w3.org/Graphics/SVG/1.1/DTD/svg11.dtd">
<svg version="1.1" xmlns="http://www.w3.org/2000/svg" xmlns:xlink="http://www.w3.org/1999/xlink" width="32" height="32" viewBox="0 0 32 32">
<path d="M24.6 12.7c-0.7-0.7-1.6-1.5-1.6-1.5l-2-2.7c0 0 1.2-0.2 1.4-0.5s0.2-0.7 0.2-0.7 0.7 0.2 1.3 0.3c0.5 0.1 0.5-0.4 0-0.6-0.5 0-1.6 0-1.7-0.2s-0.6-1.6-0.6-1.6c-0.1 0.1 0.5-1 2.7-2.1 0.7-0.4 0.3-0.9-0.1-0.8-2 0.9-2.7 2.6-2.9 2.5s-0.1-0.5-0.1-1c0-0.5 0.1-1.3-0.3-1.2-0.5 0.1 0 0.6-0.1 1.1s0 1-0.4 1.1c-0.2 0.1-1-0.6-1.3-0.5-0.3 0.2 0.1 0.4 0.4 0.6s0.6 0.2 0.8 0.7c0.2 0.4 0.6 1.2 0.4 1.2-0.2 0.1-1.8-0.2-2-0.1-0.3 0.1-0.7 0.4-0.7 0.8 0.1 0.4 0.5 1.3 0.5 1.3s-1.6-1-2.4-1.1c-0.8-0.2-4.5-0.2-4.9 0s0.3-1.3 0.4-1.6c0.4-0.3 0.6-0.9 0.4-1.2-0.1-0.4-1.4-2.1-1.4-2.1s0.8-0.2 1-0.5c0.1-0.3-0.3-0.2-0.5-0.1s-0.8 0.3-0.9 0.2c-0.1-0.1-0.3-0.4-0.3-0.8s0.2-1.2-0.1-1.4c-0.3-0.3-0.5-0.3-0.5 0.2s0.2 1.8-0.1 1.8c-0.3 0-1.7-1.1-2-1.1-0.2 0-0.5 0.5 0 0.6 0.5 0.2 1.7 0.7 1.7 0.9 0.1 0.3 0 0.4-0.3 0.4s-0.7 0-0.9 0.2c-0.2 0.2 0.3 0.4 0.5 0.4 0.3 0 1.1-0.3 1.4-0.1 0.3 0.3 0.9 2 0.9 2s-0.7 1.8-1 2.1c-0.3 0.2-0.7 0.6-0.7 1 0 0-1.4 0.9-1.8 1.1s-2.9 1.2-3.2 1.5c-0.3 0.3-1 0.1-1.3 0.4s-0.6 1.5-0.8 1.8c-0.2 0.3-1.7 1.8-1.7 2.1s-0.2 0.7 0 1c0.2 0.2 1.4 0.3 1.4 0.3s1.1-0.2 1.7-0.3c0.5-0.1 4.2-1 4.7-1.2 0.5-0.3 2.4-1.8 2.7-1.8s1.2 0.8 1.4 1c0.2 0.1 0.4 0.5 0.4 0.5l-1.1 0.8c0 0-0.3-0.2-0.3-0.6s-0.4-0.3-0.4-0.1c0 0.2-0.5-0.8-0.7-0.6s-0.1 0.6 0.1 1c0.2 0.3 0.8 0.9 0.6 1.1s-0.9-0.3-1.2-0.5c-0.3-0.2-0.9-0.8-1.1-0.4-0.2 0.3 0.5 0.8 1 1 0.4 0.2 1.2 0.3 1.1 0.6s-1 1.2-1.2 1.7c0 0-0.3 0.5 0.1 0.6 0.3 0.1 0.7-0.5 0.9-0.8s1-1.3 1.1-1.2c0.1 0.1 0.5 0.7 0.7 1s0.2 1 0.6 0.7c0.3-0.3 0-0.7-0.3-1.2-0.3-0.4-0.6-0.9-0.4-1.2s0.3-0.5 0.6-0.5c0.3-0.1 1.2-0.2 1.7-0.6s0.9-0.7 0.6-1.1c-0.3-0.4-1.5-1.4-1.5-1.4s0.5 0 0.8 0.1c0.3 0.1 2.4 1.2 3 1.2s2.5 0.3 2.5 0.3-1.4 2.4-1.5 2.8c-0.1 0.4-0.1 0.7 0.3 0.9 0.3 0.2 1.6 0.6 1.6 0.6s0 0.5-0.3 0.5c-0.4 0-0.9 0-0.9 0.2s-1.1-0.3-1.1 0.2c0 0.4 0.3 0.6 0.6 0.7s0.9-0.1 1 0.2c0 0.3-1.7 1.1-1.7 1.5 0 0.3 0.1 0.9 0.6 0.3 0.6-0.5 1.4-1.7 1.7-1.5 0.3 0.1 0.5 1 0.6 1.8 0.1 0.9 0.1 1.6 0.3 1.7 0.1 0.1 0.2 0.7 0.5 0.5s0.2-1 0.1-1.6c-0.1-0.6-0.1-1.1-0.3-1.7-0.3-0.5-0.5-1-0.5-1.4 0.1-0.4 0.7-0.9 0.7-0.9s0.6 0.4 1 0.5c0.4 0.2 1.3 0.2 1.2-0.1s-0.5-0.4-0.7-0.5c-0.2-0.1-1.2-0.3-1.3-0.5-0.2-0.2 0.5-0.5 0.1-0.9s-0.8-0.6-0.8-0.6 1.2-0.8 1.4-1.5c0.1-0.3 0.3-0.6 0.5-0.7 0.6 0.2 1.8 0.6 3 1.3 1.1 0.7 6.9 4.9 4.4 11-2.7 5.9-15 0-15 0s-3.9-2.1-6.7-1.7c-0.6 0.1-0.6 0.5 0 0.5 2.9-0.3 7.2 2.1 8.2 2.5 1.1 0.5 11.6 5.2 14.5-0.7 2.7-5.4-0.3-11-6.4-15.6zM6.1 14.1c-0.4 0.4-0.7 0.3-1.3 0.2s-0.5-0.8-0.2-1.1c0.3-0.3 0.8-0.6 1-0.5 1.4 0.6 0.9 1 0.5 1.4z"></path>
</svg>
