<svg xmlns="http://www.w3.org/2000/svg" width="32" height="32" viewBox="0 0 32 32"><path d="M30.983 19.047c-.741.039-3.238.031-3.679.126a.916.916 0 0 1-.092-.05c-.105-.076-.423-.01-.469-.003-2.219-.15-3.458-.827-3.497-.85a10.62 10.62 0 0 1-1.291-.973c-.164-.178-1.119-1.1-1.633-1.293-.144-.099-.184-.241-.167-.404.089-.866-.258-1.589-.745-2.266-.159-.409-.507-.729-.507-.738.001-.001-.572-.875-2.771-1.84-.137-.139-1.792-.734-1.961-.787a15.135 15.135 0 0 0-1.568-.34c.638.514 1.593 1.499 1.622 2.809 0 0-1.039-2.086-2.706-2.919-1-.112-1.469-.061-2.423.129.673.249 1.645.814 2.065 2.083 0 0-1.31-1.442-3.039-1.796-.944.26-1.45.544-2.332 1.202.585.207 2.286.873 2.896 2.008 0 0-1.814-1.397-3.46-1.501-.305.282-1.083 1.266-1.516 1.799-.207.055-.147.284-.261.4l-.003.005c-.127.098-.215.385-.235.393-.077-.199-.229-.31-.446-.347-.041-.021-.53.001-.917-.088-.247-.045-.34-.238-.489-.32-.13-.071-.225-.285-.386-.197-.162.091-.137.311-.143.485-.031.803.239 1.131 1.212 1.481-.318.499-.754.93-.886 1.537-.104.124-.259 1.591-.399 2.162-.049.05-.117.093-.184.239-.088.252-.14.414-.228.667a.344.344 0 0 0-.144.043c-.184.236-.298.492-.086.762.181.229.42.153.647.062.524-.154.96-.451 1.34-.836a.222.222 0 0 0 .134-.132c.056-.08.329-.254.409-.26a.657.657 0 0 0 .412-.246l.008-.009c.071-.081.73-.227.896-.129.071.133.426.034.285.344-.26.197-.283.32-.601.419-.291.09-.426.258-.505.336-.015.003-.481.71-.034.707.094-.001.065-.014.157-.033.062.309.399.13.572.19.067.19.381.258.937.024.288-.187.5-.455.747-.686.103-.107.208-.213.309-.322.028-.024.054-.055.08-.084a.683.683 0 0 0 .225-.097c.009.002.018.002.028.006.07.31-.282.304-.375.495-.572.54-.617.888-.449.988.135.135.271.011.326.135.034.09.173.117.213.157.617.101.607-.387.818-.225-.065.101-.379.286-.111.427.336.053.55.066.779-.368.016 0 .031-.013.046-.038a.032.032 0 0 0 0-.034c.224-.089.337-.306.482-.484-.007-.203.08-.337.283-.386.038-.048.388-.645.384-.814.075-.36.37-.331.642-.4.95-.243 1.912-.083 2.867-.123.116.194.45.07.538.122.007-.036.923.087 1.35.028a.845.845 0 0 1 .317-.004c-.27.119-.673.312-.804.465-.128.15-.118.219-.017.253s.269.033.269.033-.134.067.034.102c.168.033.388-.017.472-.034s.37-.033.438-.033.438-.151.538-.186c.102-.033.438 0 .74-.033.294-.033.536-.081.628-.146-.404.593-1.087.793-1.662 1.145-.354.217-.474.236-.222.42.291.213.859.16.965.157.5-.017.751.101 1.425-.225.382-.185.64-.225 1.188-.516.331-.107.755-.043.939-.493a.313.313 0 0 1 .256-.266c.181-.09.054-.289.146-.411.107-.349.201-.321.309-.67l.063-.365.038-.032c.091.043.183.086.273.13.467.268.824.456 1.155.707.368.279 1.623.653 1.856.763-.161-.018 1.304.334 1.83.312.457.043 2.262-.049 2.698-.173.193.033.686-.13.831-.169.968-.256 1.984-.283 2.933-.627.142-.08.376-.021.407-.268-.11-.261-.933-.169-1.014-.188zm-18.374.063l-.005-.006.005.003v.003z"/></svg>