<?xml version="1.0" encoding="utf-8"?>
<!-- Generated by IcoMoon.io -->
<!DOCTYPE svg PUBLIC "-//W3C//DTD SVG 1.1//EN" "http://www.w3.org/Graphics/SVG/1.1/DTD/svg11.dtd">
<svg version="1.1" xmlns="http://www.w3.org/2000/svg" xmlns:xlink="http://www.w3.org/1999/xlink" width="32" height="32" viewBox="0 0 32 32">
<path d="M14.027 18.507c0.373 0 0.747-0.373 0.747-0.747s-0.32-0.693-0.693-0.693-0.747 0.32-0.747 0.693c0 0.427 0.32 0.747 0.693 0.747zM14.347 17.76c0 0.16-0.053 0.32-0.213 0.32s-0.267-0.16-0.267-0.32c0-0.16 0.107-0.267 0.267-0.267s0.213 0.107 0.213 0.267zM14.080 17.28c-0.053 0-0.053 0-0.107 0 0 0 0 0 0 0 0.053 0 0.053 0 0.107 0 0 0 0 0 0 0zM12.213 28.373c0.107 0.053 0.213 0.053 0.32 0.053 0.373 0 0.747-0.373 0.747-0.8 0-0.373-0.32-0.64-0.747-0.64 0 0 0 0 0 0-0.213 0-0.373 0.053-0.48 0.213-0.053 0.053-0.107 0.16-0.16 0.213-0.107-0.053-0.213-0.053-0.32-0.053-0.373 0-0.693 0.32-0.693 0.693s0.32 0.693 0.693 0.693c0.32 0.107 0.533-0.107 0.64-0.373zM11.573 28.587c0 0 0 0 0 0s0 0 0 0c0.053 0 0.053 0 0.107 0-0.053 0-0.053 0-0.107 0 0 0 0 0 0 0zM12.107 27.893c0 0 0 0 0 0s0 0 0 0 0 0 0 0 0 0 0 0zM12.267 27.733c0-0.16 0.16-0.32 0.32-0.32s0.32 0.107 0.32 0.267c0 0.16-0.16 0.32-0.32 0.32-0.16 0.053-0.32-0.053-0.32-0.267zM12.053 28.107c0.053 0 0.053 0 0 0 0.053 0 0.053 0 0 0v0c0 0.053 0.053 0 0 0 0.053 0 0 0 0 0zM11.893 28.107c0 0.16-0.16 0.373-0.32 0.373s-0.32-0.16-0.32-0.32c0-0.16 0.16-0.373 0.32-0.373 0.213 0.053 0.32 0.16 0.32 0.32zM11.573 27.68c0 0-0.053 0-0.053 0s0 0 0 0 0.053 0 0.053 0c0 0 0 0 0 0zM24.427 8.64c0-0.32-0.267-0.64-0.587-0.747 0.053-0.107 0.107-0.213 0.107-0.373 0-0.213-0.16-0.427-0.373-0.587 0-0.16-0.107-0.267-0.213-0.373 0-0.053 0-0.107 0-0.16s0-0.16-0.053-0.213c0.16-0.16 0.267-0.32 0.267-0.533 0-0.16-0.107-0.32-0.213-0.427 0.053-0.107 0.053-0.16 0.053-0.267 0-0.213-0.107-0.373-0.213-0.533-0.107-0.107-0.213-0.16-0.32-0.16-0.053-0.107-0.053-0.16-0.107-0.267 0.053-0.107 0.053-0.16 0.053-0.267 0-0.373-0.32-0.8-0.693-0.8-0.213 0-0.373 0.107-0.48 0.213-0.107-0.213-0.32-0.32-0.587-0.32-0.16 0-0.32 0.053-0.427 0.16-0.107-0.053-0.16-0.053-0.267-0.053-0.16 0-0.267 0.053-0.427 0.107-0.107-0.053-0.16-0.053-0.267-0.053-0.053 0-0.053-0.053-0.107-0.053 0-0.107-0.053-0.16-0.053-0.213 0.053 0 0.053-0.053 0.107-0.107 0.16-0.16 0.213-0.32 0.213-0.48 0-0.373-0.32-0.747-0.693-0.8 0.053-0.267-0.267-0.533-0.64-0.533-0.267 0-0.587 0.16-0.693 0.427-0.107-0.16-0.32-0.267-0.587-0.267-0.16 0-0.32 0.053-0.48 0.16-0.107-0.107-0.267-0.213-0.48-0.213-0.267 0-0.533 0.16-0.693 0.427-0.053-0.053-0.16-0.053-0.267-0.053-0.32 0-0.693 0.267-0.747 0.587-0.107-0.107-0.32-0.267-0.587-0.267-0.373 0-0.693 0.32-0.693 0.693 0 0.16 0.053 0.267 0.107 0.373-0.213 0.107-0.32 0.373-0.32 0.587 0 0.107 0 0.16 0.053 0.267-0.053 0.053-0.107 0.16-0.16 0.213-0.32 0.107-0.533 0.373-0.533 0.693 0 0 0 0 0 0.053-0.053 0.053-0.053 0.053-0.107 0.107-0.107-0.16-0.373-0.32-0.587-0.32-0.373 0-0.693 0.32-0.693 0.693 0 0.213 0.107 0.427 0.267 0.587 0 0.053 0 0.107 0 0.16 0 0.107 0.053 0.213 0.107 0.32-0.053 0-0.107 0-0.16 0s-0.107 0-0.16 0c-0.213 0.053-0.373 0.16-0.427 0.32-0.053 0.107-0.107 0.16-0.107 0.267-0.107 0.053-0.213 0.107-0.267 0.16-0.107 0.107-0.16 0.16-0.213 0.32-0.107 0-0.213 0.053-0.32 0.16-0.16 0.16-0.267 0.32-0.267 0.533 0 0.16 0.053 0.373 0.213 0.48-0.32 0.053-0.587 0.373-0.587 0.693 0 0.373 0.32 0.693 0.693 0.693 0 0.053-0.053 0.107-0.053 0.213 0 0.373 0.32 0.693 0.693 0.693 0 0 0.053 0 0.053 0s0 0 0 0c-0.267 0.16-0.373 0.427-0.373 0.64 0 0.373 0.32 0.693 0.747 0.693-0.053 0.107-0.107 0.213-0.107 0.32 0 0.427 0.32 0.747 0.693 0.747 0.213 0 0.427-0.107 0.533-0.267 0 0 0 0 0 0 0.16 0 0.8 0.107 1.067 0.16 0.053 0 0.053 0 0.107 0 0.213 0 0.373-0.107 0.587-0.267 0.053-0.053 0.16-0.107 0.213-0.107 0.16-0.053 0.267-0.107 0.48-0.16 0.053 0 0.107 0 0.16-0.053 0.32-0.053 0.533-0.213 0.693-0.373 0.107 0.213 0.213 0.373 0.373 0.48-0.32 0.107-0.533 0.427-0.533 0.747s0.213 0.587 0.533 0.693c0 0.053-0.053 0.16-0.053 0.213 0 0.213 0.053 0.373 0.213 0.48 0 0 0 0 0 0-0.16 0.16-0.213 0.373-0.16 0.587 0.053 0.373 0.32 0.693 0.747 0.693 0 0.8-0.053 1.28-0.107 1.493-0.16 0.64-0.48 3.2-0.32 5.28 0.053 0.747 0 1.333-0.053 1.867 0 0.107 0 0.213-0.053 0.32 0 0 0 0 0 0-0.427 0-0.747 0.32-0.747 0.747 0 0.16 0.053 0.32 0.16 0.427-0.16 0.16-0.267 0.427-0.267 0.64 0 0.373 0.32 0.693 0.693 0.693 0.107 0 0.16 0 0.267-0.053 0 0.48-0.053 0.907-0.053 1.173 0 0 0 0.053 0 0.053-0.427 0.107-1.653 0.373-2.293 0.373-0.053 0-0.107 0-0.16 0s-0.16 0-0.213 0c-0.8 0-1.973 0.32-2.080 0.373-0.427 0.107-1.867 0.373-2.080 0.373-0.32 0-0.747 0.32-0.853 0.693-0.107 0.267 0 0.533 0.267 0.747 0.107 0.107 0.267 0.107 0.48 0.107s0.427-0.053 0.64-0.107c0.16-0.053 0.373-0.107 0.533-0.107 0.213 0 0.693-0.053 1.28-0.107h0.053c0.693-0.053 1.6-0.16 2.080-0.16 0.053 0 0.107 0 0.16 0 0.267 0 0.64 0.053 1.067 0.053 0.693 0 1.44 0 1.6 0 0.213 0 0.48 0.053 0.8 0.053 0.427 0 0.907-0.053 1.173-0.267 0.107-0.107 0.213-0.267 0.213-0.427 0.053-0.427-0.107-0.8-0.213-1.067-0.053-0.107-0.107-0.267-0.107-0.32-0.053-0.373-0.16-3.307-0.053-3.733 0.053-0.16 0-0.48 0-0.853 0-0.267-0.053-0.64-0.053-1.067 0-0.853 0-1.76 0.053-2.187 0.053-0.213 0.053-0.587 0.107-0.96 0.107 0.267 0.427 0.48 0.693 0.48 0.373 0 0.8-0.267 0.8-0.693s-0.427-0.693-0.8-0.693c-0.267 0-0.48 0.107-0.64 0.32 0-0.107 0-0.16 0-0.267v0c0.107-1.067 0.213-2.24 0.32-2.987 0.107-0.853 0.053-1.867 0-2.507 0 0 0 0 0 0 0.053 0.32 0.32 0.587 0.693 0.587 0.32 0 0.587-0.213 0.693-0.533 0.373 0 0.747-0.373 0.747-0.747 0-0.427-0.373-0.693-0.747-0.693-0.32 0-0.587 0.213-0.747 0.533-0.32 0.053-0.587 0.32-0.64 0.64 0 0 0 0 0 0 0-0.213-0.053-0.373-0.053-0.427s0-0.053 0-0.053c0-0.107 0-0.267 0.053-0.373 0.053-0.053 0.107-0.053 0.107-0.107 0.16-0.107 0.32-0.267 0.48-0.533 0 0 0.053 0 0.107 0.053 0.107 0.053 0.693 0.107 0.853 0.16 0.107 0.053 0.533 0.213 0.907 0.213 0.053 0 0.107 0 0.16 0s0.107 0 0.16-0.053c0.107 0.053 0.213 0.053 0.32 0.053 0.16 0 0.267-0.053 0.373-0.107 0.107 0.213 0.373 0.373 0.64 0.373 0 0 0 0 0 0 0.16 0.213 0.373 0.32 0.587 0.32 0.373 0 0.747-0.32 0.747-0.747 0-0.373-0.373-0.747-0.8-0.747 0 0 0 0-0.053 0 0 0 0 0-0.053-0.053 0.107-0.107 0.213-0.32 0.213-0.48 0-0.107 0-0.213-0.053-0.32 0.32-0.053 0.587-0.373 0.587-0.693 0-0.107-0.053-0.267-0.107-0.373 0.267-0.107 0.533-0.427 0.533-0.747zM18.613 19.573c0-0.16 0.16-0.32 0.32-0.32s0.32 0.16 0.32 0.32c0 0.16-0.16 0.373-0.32 0.373-0.213 0-0.32-0.16-0.32-0.373zM18.72 19.147c0 0 0 0 0 0s0.053 0 0.053 0c0 0 0 0-0.053 0zM18.827 20.053c0 0 0 0 0 0s0.053 0 0.053 0c0 0 0 0-0.053 0 0.053 0 0.053 0 0 0zM21.973 11.413c0 0.16-0.16 0.267-0.32 0.267-0.107 0-0.16-0.053-0.213-0.107 0 0-0.053-0.053-0.053-0.053-0.053 0-0.053 0-0.053 0.053-0.053 0.053-0.107 0.107-0.16 0.107-0.267 0.053-0.8-0.267-1.067-0.267-0.373 0-0.587-0.107-0.693-0.16-0.053-0.16-0.107-0.373-0.107-0.533 0.053-0.213 0-0.533-0.107-0.8 0-0.053-0.053-0.107-0.053-0.16 0-0.107 0-0.213-0.053-0.32-0.213-0.427-0.907-0.747-1.28-0.907-0.48-0.16-0.907-0.053-1.333 0.16-0.107 0.053-0.213 0.053-0.213 0.053s0 0-0.053 0c0 0-0.053 0.053-0.107 0.053-0.16 0.053-0.32 0.16-0.427 0.213-0.053 0.053-0.16 0.16-0.213 0.213-0.107 0.107-0.053 0-0.107 0.107 0 0 0 0 0 0-0.053 0.16-0.213 0.267-0.267 0.373s-0.053 0.267-0.107 0.373c0 0 0 0.053 0 0.053s0 0 0 0.053c0 0.16 0.053 0.213 0.053 0.373 0 0.107-0.053 0.16-0.053 0.267 0 0.053 0.053 0.053 0.053 0.053 0 0.213 0.053 0.373 0.107 0.587-0.053 0.107-0.213 0.373-0.587 0.48-0.267 0.053-0.533 0.213-0.8 0.32-0.213 0.107-0.427 0.213-0.533 0.213-0.16-0.053-0.48-0.107-0.747-0.107 0 0 0.053 0 0.053 0 0.107 0 0.213-0.053 0.267-0.107 0.107 0 0.213 0.053 0.213 0.053s0 0 0.053 0l0.907-0.213c0 0 0 0 0.053 0 0.053-0.053 0.16-0.053 0.267-0.053 0.16 0 0.32-0.053 0.48-0.16 0.213-0.16 0.267-0.32 0.267-0.373 0.107-0.213-0.053-0.32-0.107-0.373 0 0-0.053-0.053-0.053-0.053 0.107-0.267 0.107-0.32 0.053-0.533v-0.053c0 0 0 0 0-0.053 0 0 0 0 0 0 0.16-0.16 0.107-0.32 0.053-0.427 0 0-0.053-0.053-0.053-0.053 0.16-0.107 0.213-0.213 0.267-0.373 0.053 0 0.107 0 0.107-0.053 0.213-0.053 0.213-0.267 0.213-0.32 0 0 0-0.053 0-0.053 0.213-0.053 0.267-0.053 0.373-0.213 0.053 0 0.053 0 0.107 0 0.213 0.053 0.32-0.16 0.32-0.267 0 0 0-0.053 0-0.053 0.267 0.053 0.32 0 0.533-0.16l0.053-0.053c0 0 0 0 0.053 0 0 0 0 0 0 0 0.213 0.107 0.32 0 0.427-0.107 0 0 0.053-0.053 0.053-0.053 0.16 0.107 0.267 0.16 0.427 0.107 0.053 0.053 0.053 0.107 0.053 0.107 0.107 0.16 0.213 0.16 0.32 0.107 0.053 0.053 0.16 0.053 0.213 0.053 0.053 0.107 0.16 0.16 0.267 0.16 0.053 0.107 0.16 0.107 0.267 0.16h0.053c0 0 0 0 0.053 0 0 0 0 0 0 0 0 0.213 0.213 0.267 0.267 0.32 0 0 0.053 0 0.053 0 0 0.213 0 0.32 0.107 0.427-0.053 0.053-0.053 0.107-0.053 0.107-0.107 0.213 0.053 0.32 0.107 0.427 0 0 0.053 0.053 0.053 0.053-0.16 0.213-0.107 0.32-0.053 0.533v0.053c0.053 0.213 0.267 0.373 0.853 0.267 0.267-0.053 0.907-0.107 0.907-0.107s0.64-0.107 0.907-0.16c0.107 0 0.16-0.053 0.213-0.107 0.107 0 0.213 0 0.267-0.053s0.16-0.16 0.16-0.32c0-0.427-0.16-0.533-0.213-0.587 0 0-0.053 0-0.053 0 0.16-0.053 0.267-0.213 0.267-0.373 0-0.213-0.16-0.427-0.32-0.427s-0.427-0.053-0.587 0.053c-0.213-0.107-0.48 0.053-0.533 0.053h-0.053c0.16-0.107 0.48-0.373 0.64-0.48 0 0 0.053-0.053 0.053-0.053 0.107 0.053 0.267 0 0.373-0.053 0.213-0.107 0.427-0.427 0.373-0.747 0-0.213-0.16-0.32-0.373-0.427-0.16-0.053-0.427 0-0.64 0.107 0.107-0.107 0.16-0.213 0.213-0.427 0-0.16-0.053-0.267-0.053-0.32-0.16-0.16-0.373-0.16-0.427-0.16-0.373 0.053-0.533 0.213-0.64 0.48-0.213 0.053-0.373 0.267-0.373 0.32l-0.32 0.213c0-0.053 0.053-0.053 0.053-0.053s0.267-0.587 0.427-0.8c0.107-0.16 0.053-0.267 0-0.32 0.053-0.053 0.053-0.107 0.107-0.107 0.107-0.107 0.267-0.267 0.213-0.533 0-0.16-0.053-0.267-0.16-0.32-0.16-0.107-0.427-0.107-0.533-0.107 0 0 0 0-0.053 0-0.053-0.053-0.213-0.213-0.48-0.107-0.16 0.053-0.267 0.16-0.373 0.267-0.053-0.32-0.16-0.533-0.32-0.587-0.107-0.053-0.16-0.053-0.267 0-0.053 0-0.053 0.053-0.107 0.053-0.107 0.053-0.32 0.107-0.32 0.373 0 0.053 0 0.107 0 0.16 0 0.107 0 0.213 0 0.267-0.16 0.16-0.16 0.427-0.16 0.48v0.053c-0.053-0.16-0.107-0.587-0.107-0.8 0.16-0.373 0.213-0.853 0-1.067-0.107-0.16-0.373-0.213-0.587-0.213-0.16 0-0.32 0.107-0.373 0.213 0 0.053-0.053 0.107-0.107 0.107-0.107 0.107-0.16 0.213-0.16 0.427 0 0 0 0.053 0 0.053-0.16-0.267-0.267-0.48-0.427-0.533-0.107 0-0.16 0-0.267 0.053-0.267 0.16-0.373 0.48-0.267 0.8 0.107 0.267 0.213 0.427 0.32 0.48 0 0.16 0.053 0.267 0.107 0.32l0.053 0.373c0-0.053 0-0.053-0.053-0.053 0 0-0.373-0.533-0.48-0.747-0.053-0.107-0.107-0.16-0.213-0.16 0-0.053 0-0.107-0.053-0.16-0.053-0.213-0.267-0.48-0.96-0.32-0.16 0.053-0.267 0.16-0.32 0.373s0.053 0.427 0.213 0.533c0.053 0.053 0.107 0.053 0.16 0.107-0.16-0.053-0.373 0-0.427 0.053 0 0 0 0 0 0l-0.267 0.267c0 0.053-0.053 0.053-0.053 0.107-0.267-0.533-0.64-0.427-0.8-0.373-0.267 0.107-0.373 0.427-0.373 0.48-0.053 0.16-0.107 0.48 0.16 0.587l0.107 0.053c0.053 0.053 0.16 0.053 0.213 0.107 0 0.053 0 0.053 0 0.107s0 0.053 0 0.107c0 0-0.053 0-0.053 0-0.107-0.107-0.213-0.16-0.32-0.213-0.267-0.053-1.013-0.107-1.12 0.16-0.053 0.107-0.053 0.267 0.053 0.427 0.053 0.107 0.213 0.16 0.427 0.16 0 0 0.053 0.053 0.053 0.053 0.107 0.107 0.213 0.32 0.427 0.32 0.053 0 0.16-0.053 0.267-0.107 0.107 0.107 0.267 0.16 0.32 0.16l0.053 0.053c-0.16-0.053-0.587-0.107-0.8-0.16-0.053 0-0.107 0-0.16 0-0.373-0.267-0.747-0.267-1.013-0.213-0.16 0-0.32 0.16-0.32 0.373 0 0.16 0.053 0.373 0.32 0.427 0 0 0.053 0.053 0.107 0.053 0.16 0.107 0.427 0.267 0.64 0.267 0 0 0 0 0 0.053-0.053-0.053-0.16-0.053-0.213-0.053-0.213 0-0.96 0-0.96 0.427 0 0.213 0.053 0.373 0.16 0.533 0.16 0.16 0.427 0.213 0.747 0.16 0.053 0 0.267 0 0.427-0.107 0.16 0.107 0.373 0.053 0.427 0.053l0.373 0.053c-0.053 0-0.053 0-0.053 0s-0.64 0.16-0.853 0.213c-0.16 0.053-0.213 0.107-0.267 0.16-0.107-0.053-0.213-0.053-0.267-0.053-0.16 0-0.267 0.107-0.32 0.267-0.16 0.053-0.16 0.16-0.16 0.267 0 0-0.053 0-0.053 0.053-0.053 0.107-0.16 0.107-0.267 0.107-0.16 0-0.32-0.16-0.32-0.32s0.107-0.267 0.267-0.32c0 0 0.053 0 0.053-0.053 0 0 0-0.053 0-0.053s0-0.053 0-0.107c0-0.053 0.053-0.16 0.107-0.16 0 0 0.053-0.053 0.053-0.053 0-0.053 0-0.053-0.053-0.053-0.107-0.053-0.16-0.16-0.16-0.267 0 0 0 0 0 0 0-0.053 0-0.053-0.053-0.107-0.053 0-0.053 0-0.107 0.053-0.053 0.107-0.16 0.16-0.267 0.16-0.16 0-0.32-0.16-0.32-0.32s0.107-0.267 0.267-0.32c0.053 0 0.053-0.053 0.053-0.053 0-0.053 0-0.053-0.053-0.107-0.107-0.053-0.107-0.16-0.107-0.267 0-0.16 0.107-0.267 0.267-0.32 0 0 0 0 0.053 0 0 0 0 0 0.053 0 0 0 0.053 0 0.053 0s0.053 0 0.053 0c0 0 0.053-0.053 0.053-0.053s0 0 0 0 0 0 0 0c0-0.053 0-0.053-0.053-0.053 0 0-0.053 0-0.053 0s-0.053 0-0.053 0c0 0 0 0-0.053 0 0 0 0 0-0.053 0-0.16 0-0.267-0.16-0.267-0.32 0-0.107 0.053-0.213 0.213-0.267 0.053 0 0.053-0.053 0.053-0.107 0 0 0 0 0 0 0-0.053-0.053-0.053-0.053-0.053-0.053 0-0.053 0-0.107 0.053s-0.16 0.107-0.213 0.107c-0.107 0-0.213-0.053-0.267-0.16 0 0 0 0 0-0.053 0 0 0 0 0 0 0-0.053-0.053-0.107-0.053-0.16 0-0.213 0.213-0.373 0.427-0.267 0.053 0 0.053 0 0.107 0 0 0 0.053-0.053 0-0.107 0-0.053 0-0.053 0-0.107 0-0.213 0.213-0.373 0.427-0.267 0.053 0 0.053 0 0.107 0 0-0.053 0.053-0.053 0-0.107 0-0.053-0.053-0.053-0.053-0.107s0-0.16 0.053-0.213c0.053-0.053 0.107-0.107 0.213-0.107 0.107-0.053 0.267 0.053 0.32 0.16 0 0.053 0.053 0.053 0.107 0.053s0.053-0.053 0.053-0.053c0-0.16 0.16-0.267 0.32-0.267h0.053c0.053 0 0.053 0 0.053-0.053s0-0.053 0-0.107-0.053-0.053-0.053-0.107c0-0.053-0.053-0.053-0.053-0.053-0.16-0.053-0.213-0.16-0.213-0.267s0.053-0.213 0.16-0.267c0 0 0.053-0.053 0.053-0.053s0.053 0.053 0.107 0.053c0.107 0 0.267 0.053 0.32 0.16 0 0.053 0.053 0.053 0.107 0.053s0.053 0 0.053-0.053c0.053-0.107 0.107-0.16 0.16-0.16 0 0 0.053-0.053 0.053-0.053s0-0.053 0-0.053c-0.053-0.053-0.053-0.107-0.053-0.16 0-0.16 0.107-0.267 0.267-0.32 0.053 0 0.053 0 0.053-0.053s0-0.053 0-0.107c-0.053-0.053-0.053-0.107-0.053-0.16 0-0.16 0.16-0.32 0.32-0.32 0 0 0.053 0 0.053 0s0.053 0 0.053 0c0 0 0.053-0.053 0.053-0.053 0-0.16 0.16-0.267 0.32-0.267 0.107 0 0.16 0.053 0.213 0.107 0 0 0.053 0 0.107 0s0.053-0.053 0.053-0.107c0 0 0 0 0 0s0-0.053 0-0.107c0-0.053 0-0.053 0-0.107 0 0-0.053-0.053-0.107 0 0 0-0.053 0-0.053 0-0.16 0-0.32-0.16-0.32-0.32s0.16-0.32 0.32-0.32c0.16 0 0.32 0.16 0.32 0.32 0 0 0 0.053 0 0.107s0 0.053 0 0.107c0 0 0.053 0.053 0.107 0 0.107 0 0.16 0 0.213 0.053 0.053 0 0.107 0 0.107-0.053 0 0 0-0.053 0-0.053s-0.053-0.053-0.053-0.053c-0.213-0.16-0.32-0.32-0.32-0.427 0-0.16 0.16-0.32 0.32-0.32s0.32 0.16 0.32 0.32c0 0 0 0.053 0 0.053-0.053 0 0 0.053 0 0.053 0.053 0 0.053 0 0.107 0 0 0 0.053 0 0.107 0s0.053 0 0.053-0.053c0 0 0-0.053 0-0.053 0-0.053 0-0.107 0-0.107 0-0.16 0.16-0.32 0.32-0.32 0.053 0 0.16 0.053 0.213 0.053 0 0 0.053 0 0.053 0 0.053 0 0.053-0.053 0.053-0.053 0.053-0.16 0.213-0.213 0.32-0.213 0.053 0 0.053 0 0.053-0.053 0 0 0.053-0.053 0-0.053 0 0 0 0 0 0 0-0.053 0-0.107 0.053-0.16 0 0 0-0.053 0-0.053 0-0.053-0.053-0.053-0.053-0.053-0.053-0.107-0.213-0.213-0.213-0.373s0.16-0.32 0.32-0.32c0.16 0 0.32 0.16 0.32 0.373 0 0.053 0 0.053 0 0.107s0 0.053 0.053 0.107c0.053 0 0.053 0 0.107 0 0.053-0.053 0.107-0.053 0.16-0.053 0 0 0.053 0 0.053-0.053 0 0 0-0.053 0-0.053s0-0.053 0-0.053c0-0.16 0.16-0.32 0.32-0.32s0.267 0.107 0.32 0.213c0 0.053 0.053 0.053 0.053 0.053 0.053 0 0.107 0.053 0.16 0.107 0 0 0.053 0.053 0.053 0.053 0.107 0 0.213 0.107 0.267 0.267 0 0.053 0 0.053 0.053 0.053s0.053 0 0.107 0c0.053-0.053 0.107-0.107 0.213-0.107s0.213 0.053 0.267 0.16c0 0 0 0.053 0.053 0.053 0 0 0 0.053 0 0.053s0 0.053 0 0.053 0 0.053 0 0.107c0 0 0 0.053 0 0.053s0.053 0.053 0.053 0.053c0.053 0 0.107 0.053 0.16 0.16 0 0 0.053 0.053 0.053 0.053 0.16 0 0.267 0.16 0.267 0.32 0 0.053 0 0.053 0 0.107 0 0 0 0.053 0 0.053s0.053 0.053 0.053 0.053c0.107 0 0.213 0.053 0.267 0.16 0 0.053 0.053 0.053 0.107 0.053s0.053 0 0.107 0c0.107 0 0.213 0.053 0.267 0.16 0 0.053 0.053 0.053 0.107 0.053s0.053 0 0.053-0.053c0.053-0.107 0.16-0.213 0.267-0.213s0.16 0.053 0.267 0.107c0 0 0.053 0.053 0.053 0.053 0.053 0 0.053 0 0.053-0.053 0.053-0.107 0.16-0.16 0.267-0.16 0.16 0 0.32 0.16 0.32 0.32 0 0.053 0 0.107-0.053 0.16 0 0 0 0.053 0 0.107s0.053 0.053 0.053 0.053 0.107 0.053 0.16 0.107c0 0 0.053 0.053 0.053 0.053 0.053 0 0.053 0 0.053-0.053 0.053-0.053 0.053-0.053 0.107-0.107 0.053 0 0.053-0.053 0.053-0.107s0-0.053 0-0.107c0-0.16 0.16-0.32 0.32-0.32s0.32 0.16 0.32 0.32c0 0.107-0.053 0.213-0.16 0.267-0.053 0-0.053 0.053-0.053 0.107s0.053 0.053 0.053 0.053c0.16 0.053 0.213 0.16 0.213 0.32 0 0.053 0 0.053 0 0.107s0 0.053 0 0.107c0 0 0.053 0.053 0.107 0 0.053 0 0.053 0 0.107 0 0.16 0 0.32 0.16 0.32 0.32 0 0.107-0.053 0.213-0.16 0.267-0.16-0.16-0.16-0.16-0.16-0.107s0.053 0.053 0.053 0.053c0.107 0.053 0.213 0.16 0.213 0.267 0 0.16-0.107 0.267-0.267 0.32-0.053 0-0.053 0.053-0.053 0.053 0 0.053 0 0.053 0.053 0.107 0.107 0.053 0.16 0.16 0.16 0.267s-0.053 0.16-0.107 0.213c0 0-0.053 0.053-0.053 0.107s0.053 0.053 0.053 0.053c0.16 0 0.267 0.16 0.267 0.32 0 0 0 0.053 0 0.053s0 0.053 0 0.053c0 0 0.053 0.053 0.053 0.053 0.16 0 0.267 0.16 0.267 0.32 0 0.107-0.053 0.213-0.16 0.267-0.053 0-0.053 0.053-0.053 0.107s0 0.053 0 0.107c0 0.107-0.053 0.213-0.213 0.267 0 0-0.053 0.053-0.053 0.053s0 0.053 0 0.053 0.053 0.107 0.053 0.16c0 0.053 0 0.16-0.053 0.213 0 0 0 0.053 0 0.107s0.053 0.053 0.053 0.053c0.16 0 0.267 0.16 0.267 0.32 0 0.053 0 0.053 0 0.107 0 0 0 0.053 0 0.053s0.053 0.053 0.053 0.053c0.107 0.053 0.213 0.16 0.213 0.267 0 0.16-0.16 0.32-0.32 0.32-0.053 0-0.107 0-0.16-0.053-0.053 0-0.053 0-0.107 0s-0.053 0.053-0.053 0.107c0 0 0 0.053 0 0.053 0 0.107-0.053 0.16-0.107 0.213 0 0-0.053 0.053 0 0.053 0 0 0 0.053 0.053 0.053 0.107 0.053 0.16 0.16 0.16 0.267 0 0.16-0.16 0.32-0.32 0.32 0 0 0 0 0 0s0 0 0 0c-0.053 0-0.053 0-0.053 0.053 0 0 0 0.053 0 0.053s0 0.053 0 0.053 0 0.053 0 0.107c0 0 0 0.053 0 0.053s0.053 0.053 0.053 0.053c0.16 0 0.267 0.107 0.32 0.267 0 0.053 0 0.053 0.053 0.053s0.053 0 0.107 0c0.053-0.053 0.107-0.053 0.16-0.053 0.16 0 0.32 0.16 0.32 0.32s-0.16 0.32-0.32 0.32c-0.16 0-0.267-0.107-0.32-0.267 0-0.053 0-0.053-0.053-0.053s-0.053 0-0.107 0c-0.053 0.053-0.107 0.053-0.16 0.053-0.16 0-0.32-0.16-0.32-0.32 0-0.053 0-0.053 0-0.107 0 0 0-0.053 0-0.053s-0.053-0.053-0.053-0.053c-0.107 0-0.16-0.053-0.213-0.107 0 0-0.053-0.053-0.107 0-0.107-0.107-0.107-0.053-0.16-0.053zM19.84 12.32c0 0 0 0 0 0s-0.053 0-0.053 0.053c0 0 0-0.053 0.053-0.053 0 0 0 0 0 0zM20.267 12.8c0 0.16-0.16 0.32-0.32 0.32s-0.32-0.16-0.32-0.32c0-0.16 0.16-0.32 0.32-0.32 0.213 0 0.32 0.16 0.32 0.32zM11.2 30.453c-0.533 0.053-0.907 0.053-1.12 0.053s-0.427 0.053-0.693 0.16c-0.267 0.107-0.427 0.16-0.587 0.053-0.053-0.053-0.107-0.053-0.053-0.16 0.053-0.16 0.16-0.32 0.32-0.32 0.32 0 1.6-0.373 2.027-0.48 0.48-0.16 1.547-0.267 2.133-0.267 0.053 0 0.107 0 0.16 0 0.587 0.053 2.613-0.267 2.88-0.533 0.053-0.053 0.053-0.107 0.053-0.107 0-0.053 0-0.107 0-0.213 0.053-0.533 0.107-1.653 0-2.24-0.053-0.107-0.053-0.267-0.053-0.48 0-0.053-0.053-0.107-0.107-0.107s-0.107 0-0.16 0.053c-0.053 0.053-0.16 0.16-0.267 0.16-0.16 0-0.32-0.16-0.32-0.32s0.213-0.32 0.32-0.32c0.107 0 0.16 0.053 0.213 0.16 0 0.053 0.053 0.053 0.107 0.053s0.107-0.053 0.107-0.107c0-0.16 0.053-0.32 0.053-0.48 0.053-0.587 0.107-1.333 0.107-2.347-0.053-1.867 0-4.267 0.16-4.853 0.107-0.32 0.213-1.227 0.267-2.4 0-0.053-0.053-0.107-0.107-0.107s-0.107 0-0.16 0.053c-0.053 0.053-0.213 0.16-0.267 0.16-0.16 0-0.267-0.16-0.267-0.32s0.16-0.267 0.32-0.267c0.107 0 0.16 0.053 0.213 0.107s0.107 0.053 0.16 0.053c0.053 0 0.107-0.053 0.107-0.107 0-0.213 0-0.427 0-0.587 0-0.053-0.053-0.107-0.107-0.107s-0.107 0-0.16 0.053c-0.053 0.053-0.213 0.16-0.267 0.16-0.16 0-0.267-0.16-0.267-0.32s0.213-0.267 0.32-0.267c0.107 0 0.16 0.053 0.213 0.107s0.107 0.053 0.16 0.053c0.053 0 0.107-0.053 0.107-0.107 0-0.16 0-0.267 0-0.373 0-0.587-0.16-0.907-0.48-1.173-0.213-0.213-0.587-0.427-0.587-0.64-0.107-0.533-0.267-1.387 0.16-1.973s1.173-0.533 1.333-0.587c1.173-0.053 1.44 0.693 1.6 1.547 0.107 0.587-0.267 0.853-0.587 1.12-0.053 0.053-0.107 0.107-0.16 0.16-0.267 0.267-0.213 0.587-0.213 0.693 0 0.213 0.32 1.973 0.16 3.2-0.107 0.747-0.213 1.92-0.32 2.987-0.053 0.8-0.267 1.493-0.267 1.92-0.053 0.48 0.053 1.387 0.053 2.24 0 0.8 0.053 1.653 0 1.867-0.107 0.533 0 3.467 0.053 3.733 0 0.16 0.16 0.373 0.213 0.533 0.107 0.267 0.213 0.533 0.213 0.853 0 0 0 0.053-0.053 0.053-0.267 0.213-1.12 0.16-1.653 0.107 0 0 0 0 0 0s-2.027 0-2.773-0.053c-0.373-0.107-1.387 0.16-2.24 0.267zM9.013 29.92c0 0 0.053 0 0 0 0.053 0 0 0 0 0s0 0 0 0zM8.907 30.987c0 0 0 0 0 0 0.053 0 0.107 0 0.107 0s-0.053 0-0.107 0c0 0 0 0 0 0zM10.24 9.44c0 0 0 0 0 0s0 0 0 0 0 0 0 0zM13.813 10.24c-0.053 0-0.373-0.16-0.427-0.16l-0.64-0.053c0 0 0 0-0.053 0s-0.267 0-0.373-0.053c0 0-0.053-0.053-0.107 0-0.053 0-0.053 0-0.107 0.053-0.053 0.107-0.213 0.107-0.32 0.107 0 0 0 0-0.053 0-0.267 0.053-0.427 0-0.533-0.053 0-0.107 0-0.267 0-0.32s0.107-0.213 0.747-0.213c0.16 0 0.213 0.053 0.213 0.107s0.053 0.053 0.107 0.053c0.053 0 0.053 0 0.107-0.053s0.16-0.053 0.267-0.053c0.053 0 0.107-0.053 0.107-0.107s-0.053-0.107-0.107-0.107c-0.107 0-0.16-0.053-0.213-0.107 0-0.053-0.053-0.053-0.053-0.107s-0.107-0.053-0.16-0.053c-0.16 0.053-0.427-0.16-0.533-0.267-0.107-0.053-0.16-0.107-0.16-0.107-0.107-0.053-0.107-0.16-0.107-0.16 0-0.053 0.053-0.107 0.107-0.107 0.267 0 0.533 0 0.907 0.213 0.053 0 0.107 0.053 0.107 0 0 0 0.053 0 0.107 0 0.267 0.053 0.48 0.267 0.48 0.267s0.64 0 0.907 0.053c0.053 0 0.107 0 0.16-0.053 0-0.053 0-0.107-0.053-0.16l-0.427-0.373c0 0-0.16-0.053-0.213-0.053s-0.213-0.107-0.267-0.16c-0.053-0.053-0.107-0.053-0.16-0.053-0.107 0.053-0.213 0.107-0.267 0.107s-0.16-0.107-0.213-0.213c-0.053-0.107-0.107-0.16-0.213-0.16s-0.213 0-0.267-0.053c-0.053-0.053-0.053-0.16 0-0.16 0.053-0.053 0.587-0.107 0.853-0.053 0.107 0.053 0.16 0.107 0.213 0.16s0.107 0.053 0.16 0.053c0.107-0.053 0.213 0 0.267 0s0.107 0 0.16-0.053c0.053-0.053 0-0.107-0.053-0.16-0.107-0.053-0.107-0.107-0.16-0.213 0-0.053 0-0.107 0-0.16s-0.053-0.107-0.107-0.107c-0.107 0-0.16-0.053-0.267-0.107l-0.107-0.053c-0.16-0.053-0.053-0.267-0.053-0.32 0 0 0 0 0 0s0.053-0.213 0.267-0.32c0.053-0.053 0.267-0.107 0.48 0.267 0.053 0.053 0.053 0.107 0.053 0.16s0 0.107 0.053 0.107c0 0 0.053 0 0.053 0.053 0.107 0.107 0.32 0.267 0.48 0.373 0.053 0.053 0.107 0.053 0.16 0s0.053-0.053 0.053-0.107c0 0 0-0.107 0-0.16s-0.053-0.107-0.053-0.107-0.16-0.107-0.267-0.16l-0.053-0.053c0 0-0.053-0.053-0.053-0.053s0.053-0.053 0.053-0.053v0c0.053 0 0.213-0.107 0.32 0s0.107 0.16 0.107 0.213c0 0.053 0 0.053 0 0.107 0 0 0.053 0.053 0.107 0.053 0.16 0 0.267 0 0.267 0 0.053 0 0.107-0.053 0.107-0.053 0-0.053 0-0.107-0.053-0.16s-0.213-0.213-0.213-0.373c0-0.053 0-0.107-0.107-0.16-0.053 0-0.107-0.053-0.16-0.107s-0.107-0.107-0.213-0.16c-0.107-0.053-0.107-0.213-0.107-0.267 0-0.107 0.053-0.16 0.107-0.16 0.267-0.053 0.587-0.107 0.693 0.16 0 0.053 0 0.107 0 0.16s0 0.053 0.053 0.107 0.053 0.053 0.107 0.053 0.053 0 0.107 0.053c0.16 0.213 0.32 0.747 0.373 0.747 0 0 0.373 0.427 0.533 0.693 0.053 0.053 0.107 0.053 0.16 0.053s0.107-0.053 0.107-0.107c0-0.053 0.053-0.48 0-0.533l-0.16-0.533c0 0 0 0 0-0.053 0 0-0.053-0.16-0.053-0.267 0-0.053 0-0.107-0.053-0.107-0.107-0.053-0.16-0.213-0.267-0.427s0-0.373 0.16-0.533c0.053 0 0.053 0 0.053 0 0.107 0 0.213 0.213 0.32 0.427l0.053 0.107c0.053 0.107 0.053 0.16 0.053 0.213s0 0.107 0.053 0.107 0.107 0.16 0.16 0.213c0 0.053 0.107 0.107 0.16 0.053 0.053 0 0.107-0.053 0.107-0.16s0-0.16 0.053-0.213c0.053-0.053 0.053-0.107 0-0.16s-0.107-0.213-0.107-0.373c0-0.16 0.053-0.213 0.107-0.267s0.053-0.107 0.107-0.16c0.053-0.053 0.107-0.107 0.213-0.107 0.16 0 0.32 0.053 0.373 0.107 0.107 0.107 0.107 0.48-0.053 0.853 0 0 0 0.053 0 0.053 0.053 0.267 0 0.907 0 0.907s0.16 0.267 0.16 0.533c0 0.053 0.053 0.107 0.107 0.107s0.213-0.053 0.213-0.107l0.107-0.64c0 0 0 0 0-0.053s0-0.267 0.107-0.373c0.053-0.053 0.053-0.107 0.053-0.16s0-0.16 0-0.267c0-0.053 0-0.16 0-0.213 0-0.107 0.053-0.107 0.16-0.16 0.053 0 0.107-0.053 0.16-0.053 0 0 0 0 0.053 0s0.16 0.16 0.16 0.427c0 0.107-0.053 0.213-0.213 0.267-0.053 0-0.053 0.053-0.053 0.053 0 0.053 0 0.053 0 0.107 0.053 0.053 0.053 0.16 0.053 0.267 0 0.053 0 0.107 0.053 0.107s0.107 0 0.107 0c0 0 0.053-0.053 0.053-0.053 0.053-0.107 0.053-0.16 0.107-0.16s0.053-0.053 0.107-0.053c0.053 0 0.107-0.107 0.053-0.16-0.053-0.32 0.267-0.427 0.32-0.48 0.107-0.053 0.16 0 0.267 0.053 0.053 0.053 0.107 0.107 0.213 0.107 0.053 0 0.267-0.053 0.373 0.053 0.053 0.053 0.053 0.107 0.053 0.16 0 0.16-0.053 0.267-0.16 0.373-0.053 0.053-0.16 0.16-0.213 0.267 0 0.053 0 0.107 0 0.107 0.053 0.053 0.053 0.053 0 0.16-0.107 0.213-0.64 0.8-0.64 0.8s0 0.32-0.16 0.64c-0.053 0.053 0 0.107 0 0.16 0.053 0.053 0.107 0.053 0.16 0s0.213-0.107 0.267-0.16l0.587-0.533c0 0 0 0 0.053-0.053s0.16-0.213 0.32-0.213c0.053 0 0.107-0.053 0.107-0.107 0 0 0 0 0 0 0.053-0.213 0.213-0.32 0.48-0.32 0.053 0 0.16 0 0.213 0.053 0 0 0.053 0.053 0 0.107-0.053 0.32-0.32 0.427-0.48 0.427-0.053 0-0.107 0.053-0.107 0.107 0 0.107-0.053 0.16-0.107 0.213s-0.053 0.107 0 0.16c0.053 0.053 0.107 0.053 0.16 0 0.107-0.053 0.16-0.107 0.213-0.107s0.107 0 0.107 0.053c0.053 0 0.107 0 0.16-0.053 0 0 0-0.053 0.053-0.053 0.16-0.107 0.373-0.213 0.533-0.16 0.107 0.053 0.16 0.107 0.213 0.213 0 0.16-0.16 0.427-0.267 0.48s-0.16 0.053-0.267 0c-0.053 0-0.107 0-0.16 0.053 0 0 0 0.053-0.053 0.053-0.213 0.16-0.64 0.373-0.64 0.373s-0.32 0.32-0.533 0.48c-0.053 0.053-0.053 0.107-0.053 0.16s0.053 0.107 0.16 0.053l0.693-0.16c0 0 0 0 0.053 0 0.053-0.053 0.267-0.107 0.427-0.053 0.053 0.053 0.107 0 0.16 0 0.053-0.107 0.32-0.053 0.427-0.053 0.053 0 0.107 0.107 0.107 0.213s-0.107 0.16-0.107 0.16c-0.16 0.053-0.267 0.053-0.373 0-0.053-0.053-0.107 0-0.16 0.053s-0.107 0.107-0.213 0.16c-0.053 0-0.107 0.107-0.053 0.16 0 0.053 0.053 0.107 0.16 0.107s0.16 0 0.213 0.053c0.053 0.053 0.107 0.053 0.107 0.107 0.053 0.053 0.107 0.053 0.16 0s0.107-0.053 0.16-0.053c0.053 0.053 0.053 0.16 0.053 0.32 0 0.053 0 0.107-0.053 0.107s-0.107 0-0.16 0c-0.053 0-0.053 0-0.107 0s-0.053 0.053-0.053 0.053c0 0 0 0.053-0.107 0.053-0.267 0.053-0.48 0-0.853 0.053-0.267 0-0.64 0.053-0.907 0.16s-0.64 0.213-0.64 0.053v-0.053c-0.053-0.213-0.053-0.213 0.053-0.373s-0.053-0.267-0.107-0.373c-0.053-0.053-0.053-0.053-0.053-0.107 0 0 0-0.053 0-0.053s0.16-0.053 0.213-0.107c0.053-0.053 0.053-0.107 0-0.16-0.107-0.107-0.267-0.107-0.267-0.267 0-0.213-0.16-0.267-0.267-0.267 0.16-0.32 0.16-0.32 0.16-0.373 0 0 0-0.053 0-0.053s0 0 0-0.053 0-0.053-0.053-0.107c0 0-0.053-0.053-0.107-0.053 0 0-0.053 0-0.053 0h-0.053c-0.16-0.053-0.16-0.053-0.213-0.107 0 0-0.053-0.053-0.053-0.053-0.107 0-0.107-0.053-0.213-0.16 0-0.053-0.107-0.053-0.107-0.053-0.107 0-0.107 0-0.107 0-0.053-0.053-0.107-0.053-0.16-0.053-0.107 0.053-0.107 0.053-0.107 0 0 0 0-0.053-0.053-0.053 0 0-0.053-0.053-0.053-0.107s-0.107-0.107-0.16-0.053c-0.107 0-0.107-0.107-0.267-0.213s-0.267 0-0.373 0.107c-0.053 0.053-0.107 0.213-0.107 0.16 0 0-0.053 0-0.053 0s0 0-0.053 0-0.053 0-0.107 0-0.053 0.053-0.053 0.053c0 0 0 0.053-0.053 0.053l-0.053 0.053c-0.16 0.107-0.16 0.107-0.32 0.107-0.213 0-0.267 0.16-0.267 0.213-0.053 0.107-0.053 0.107-0.107 0.107 0 0-0.053 0-0.053 0s-0.053 0-0.107 0c-0.053 0-0.107 0-0.107 0.053-0.053 0.107-0.053 0.107-0.267 0.16s-0.213 0.213-0.213 0.32c0 0.107 0 0.107-0.053 0.107 0 0-0.053 0-0.053 0s-0.107 0-0.213 0c-0.053 0-0.107 0.053-0.107 0.107 0 0.16 0.053 0.213-0.107 0.32s-0.053 0.267-0.053 0.373c0.053 0.107 0.053 0.107 0 0.107 0 0-0.053 0-0.053 0.053 0 0 0 0-0.053 0.053-0.053 0-0.053 0.053-0.053 0.107s0 0.053 0.053 0.107c0 0 0 0.053 0.053 0.053v0.053c0.053 0.213 0.053 0.213 0 0.373-0.107 0.16 0.053 0.267 0.107 0.32 0.107 0.053 0.053 0.053 0.053 0.107 0 0 0 0.053 0 0.053s0 0.107-0.16 0.213c-0.107 0.053-0.32-0.053-0.48 0-0.107 0-0.427 0.053-0.533 0.107l-0.533 0.32c-0.053 0-0.16 0-0.213-0.053-0.053 0-0.107 0-0.16 0.053 0 0-0.053 0.107-0.16 0.053s-0.16-0.053-0.16-0.053c0 0 0-0.053 0.053-0.107 0-0.053 0.053-0.053 0.053-0.107 0.053 0 0.107 0 0.213 0.053 0.053 0 0.053 0 0.107 0s0.053-0.053 0.053-0.053c0.107-0.16 0.16-0.32 0.16-0.32 0-0.053 0-0.107-0.053-0.16s-0.107-0.053-0.16 0c-0.053 0.053-0.267 0.16-0.427 0.053-0.107-0.053-0.16-0.107-0.213-0.213 0-0.16-0.053-0.16-0.107-0.16s-0.107 0.053-0.107 0.107c0 0.053-0.053 0.107-0.053 0.16s-0.107 0.213-0.213 0.16c-0.053 0-0.053-0.053-0.107-0.107-0.053-0.107-0.053-0.32-0.053-0.427 0-0.053 0.107-0.107 0.16-0.107s0.16 0 0.213 0.107c0 0 0 0 0 0 0.053 0.053 0.053 0.053 0.107 0.053s0.107-0.053 0.107-0.107c0-0.053 0-0.053 0-0.053 0-0.107 0-0.107 0.107-0.107 0.267-0.053 0.64-0.053 0.64-0.053s0.64-0.213 0.96-0.32c0.053 0 0.107-0.053 0.107-0.107 0.107-0.107 0.053-0.16 0-0.16zM21.547 7.68c0 0-0.053 0.053 0 0-0.053 0.053-0.053 0.053-0.053 0.053s0-0.053 0.053-0.053zM22.293 9.867c-0.053 0-0.053 0-0.107 0.053 0 0-0.053 0-0.053-0.053 0.107 0 0.16 0 0.16 0zM11.52 11.84c0.213 0.053 0.427-0.16 0.48-0.267 0 0 0 0 0 0 0.053 0.053 0.107 0.107 0.16 0.107 0 0 0 0 0 0s-0.053 0.053-0.053 0.107c0 0.053 0 0.053-0.053 0.107-0.053 0.107-0.053 0.213 0 0.32s0.107 0.16 0.267 0.213c0 0 0.053 0 0.053 0-0.107 0-0.213-0.053-0.267-0.053 0 0-0.053-0.053-0.053-0.053 0-0.053-0.053-0.053-0.107-0.053 0 0-0.053 0-0.053 0-0.053 0-0.053 0-0.053 0.053-0.053 0.107-0.16 0.213-0.267 0.213-0.16 0-0.32-0.16-0.32-0.32 0-0.107 0.053-0.16 0.107-0.213s0.053-0.053 0-0.107c0-0.053-0.053-0.053-0.053-0.107 0.107 0 0.16 0.053 0.213 0.053zM10.827 10.453c0 0 0 0 0 0s0 0 0 0 0 0 0 0 0 0 0 0zM10.027 9.387c0 0 0 0 0 0s0 0 0 0 0 0 0 0zM9.813 9.28c-0.16 0-0.267-0.16-0.267-0.32s0.107-0.267 0.267-0.267c0.16 0 0.32 0.16 0.32 0.32s-0.16 0.267-0.32 0.267zM11.307 11.68v0 0 0c0 0 0 0 0 0zM11.093 12.053c0 0 0 0 0 0s0 0 0 0v0c0-0.053 0 0 0 0zM11.093 11.627c0 0 0 0 0 0s0 0 0 0 0 0 0 0-0.053 0 0 0c-0.053 0 0 0 0 0zM10.133 9.547c0-0.053 0-0.053 0 0 0-0.053 0-0.053 0 0 0-0.053 0-0.053 0 0zM10.293 8.853c0 0 0 0 0 0s0 0 0 0 0 0 0 0zM10.133 7.307h0.053c0 0 0 0 0 0s0 0 0 0-0.053 0-0.053 0c0 0 0 0 0 0zM9.653 9.44c0-0.053 0-0.053 0 0 0-0.053 0-0.053 0 0 0-0.053 0 0 0 0s0 0 0 0zM10.827 11.68c0 0 0 0 0 0s0 0 0 0 0 0 0 0zM11.947 12.48c0 0 0 0 0 0 0.053 0 0.053 0 0 0 0.053 0 0.053 0 0 0v0c0 0 0 0 0 0zM15.52 11.733c0 0 0 0.053 0 0.053-0.107-0.107-0.16-0.267-0.16-0.427v-0.107c0-0.053 0-0.053 0-0.107 0 0 0-0.053 0-0.053l-0.053-0.32c0 0-0.16-0.693 0.16-1.173 0.107-0.107 0.587-0.48 0.853-0.693 0.107-0.053 0.96-0.267 1.173-0.267 0.267 0 0.8 0.32 1.013 0.48s0.427 0.533 0.533 0.8c0.107 0.267 0.107 0.587 0.053 0.747 0 0 0-0.053 0-0.053-0.16-0.693-0.427-1.92-1.92-1.867-0.053 0-1.013 0.107-1.493 0.8-0.48 0.747-0.267 1.6-0.16 2.187zM15.84 14.133c0 0 0 0 0 0s0 0 0 0 0 0 0 0zM16.267 18.933c0 0 0 0 0 0s0 0 0 0c0 0.053 0 0.053 0 0 0 0 0 0 0 0s0 0 0 0zM16.16 22.667c0 0.107 0 0.213 0.053 0.32 0 0 0 0 0 0-0.053-0.107-0.053-0.213-0.053-0.32 0 0 0 0 0 0zM16.16 19.947c0 0 0 0 0 0s0-0.053 0 0c0-0.053 0 0 0 0zM15.627 13.227c0-0.16 0.16-0.32 0.32-0.32s0.32 0.16 0.32 0.32c0 0.16-0.16 0.32-0.32 0.32-0.213-0.053-0.32-0.16-0.32-0.32zM15.893 12.693c0 0 0 0 0 0s0 0 0 0 0 0 0 0 0 0 0 0zM15.413 13.12c0 0 0 0.053 0 0.053s0-0.053 0-0.053c0 0 0 0 0 0zM16.053 12.48c0 0 0 0 0 0s0 0 0 0 0 0 0 0zM16.533 15.68c0 0 0 0 0 0v0c0 0 0 0 0 0zM16.373 13.6c0 0 0 0 0 0 0.053 0 0.053 0 0 0 0.053 0 0.053 0 0 0 0 0 0 0 0 0s0 0 0 0zM19.147 11.253c0 0 0 0 0 0s0 0 0 0c0-0.053 0 0 0 0s0 0 0 0zM16.107 24.533c0-0.053 0-0.053 0-0.107 0 0.053 0 0.107 0 0.107 0 0.053 0 0.053 0 0 0 0.053 0 0.053 0 0zM15.947 25.12c0 0-0.053 0-0.053 0h0.053c0 0 0 0 0 0zM15.68 26.987c-0.16 0-0.373-0.16-0.373-0.32s0.213-0.373 0.373-0.373c0.16 0 0.267 0.213 0.267 0.373s-0.107 0.32-0.267 0.32zM15.2 26.453c0 0 0 0 0 0s0 0 0 0 0 0 0 0 0 0 0 0zM16.16 27.040c0 0 0 0 0 0s0 0 0 0 0 0 0 0 0 0 0 0zM15.893 26.133c0 0 0 0 0 0 0 0.053 0 0.053 0 0 0 0.053 0 0 0 0s0 0 0 0zM16.053 26.347c0 0 0 0 0 0s0 0 0 0 0 0 0 0zM15.573 25.173c0 0 0 0 0 0 0.053-0.053 0.107-0.053 0.16-0.053-0.053 0-0.107 0.053-0.16 0.053zM15.68 27.147c0 0 0 0 0 0s0 0 0 0 0 0 0 0zM15.893 27.093c0 0 0 0 0 0v0c0 0 0 0 0 0zM19.627 13.28c0 0.16-0.16 0.32-0.32 0.32s-0.213-0.107-0.213-0.32c0-0.16 0.053-0.32 0.213-0.32 0.053 0 0.16 0.053 0.213 0.053 0 0 0 0 0.053 0.053 0.053 0.107 0.053 0.16 0.053 0.213zM18.4 13.387c0 0 0 0 0 0s0 0 0 0 0 0 0 0zM19.36 13.76c0 0 0 0 0 0s0 0 0 0 0 0 0 0 0 0 0 0zM19.253 12.853v0c0 0 0 0 0 0s0 0 0 0 0 0 0 0 0 0 0 0zM19.2 11.413c0 0 0 0 0 0s0 0 0 0c0 0.053 0 0.053 0 0v0c0 0 0 0 0 0zM20.48 11.787c0 0 0 0 0 0s0.053 0 0 0c0.053 0 0.053 0 0 0 0.053 0 0.053 0 0 0 0.053 0 0.053 0 0.053 0-0.053 0-0.107 0-0.107-0.053 0.053 0 0.053 0.053 0.053 0.053zM11.253 5.013c0 0 0 0 0 0s0 0 0 0 0 0 0 0 0 0 0 0zM16.107 1.28c0 0-0.053 0 0 0-0.053 0-0.053 0 0 0 0 0 0 0 0 0zM12.747 4.64c0 0 0 0 0 0s0 0 0 0c0-0.053 0 0 0 0zM12.48 5.28c0 0 0 0 0 0s0 0 0 0 0 0 0 0zM15.84 2.293c0 0 0.053 0 0 0 0 0 0 0 0 0s0 0 0 0zM14.773 2.56c0 0 0 0 0 0s0 0 0 0 0.053 0 0 0 0 0 0 0 0 0 0 0zM14.507 2.56c0 0 0 0 0 0s0 0 0 0 0 0 0 0 0 0 0 0zM13.387 3.573c0 0 0 0 0 0s0 0 0 0v0zM12.213 5.28c0 0 0 0 0 0s0 0 0 0 0 0 0 0zM12.32 5.333c0 0 0 0 0 0s0 0 0 0 0 0 0 0zM12.373 5.333c0 0 0 0 0 0s0 0 0 0 0 0.053 0 0c-0.053 0.053-0.053 0.053 0 0-0.053 0.053 0 0.053 0 0zM13.44 3.68c0 0 0 0 0 0s0 0 0 0 0 0 0 0zM14.027 2.88c0 0 0 0 0 0s0 0 0 0 0 0 0 0zM14.133 2.933c0 0 0 0 0 0s0 0 0 0 0 0 0 0 0 0 0 0zM14.347 2.667c0 0 0 0 0 0s0 0 0 0c0.053 0 0.053 0 0 0 0 0 0 0 0 0zM15.040 2.827c0 0 0 0 0 0s0 0 0 0 0 0 0 0 0 0 0 0 0 0 0 0zM16.053 2.293c0 0 0 0 0 0s0 0 0 0 0 0 0 0zM16 2.133c0 0 0 0 0 0 0-0.053 0-0.053 0 0 0-0.053 0-0.053 0 0 0-0.053 0-0.053 0 0zM15.68 1.707c0 0 0 0 0 0v0c0 0 0 0 0 0zM15.68 2.080c0 0.16-0.16 0.373-0.32 0.373-0.053 0-0.107 0-0.16-0.053 0 0 0 0 0 0-0.107-0.053-0.16-0.16-0.16-0.267 0-0.16 0.213-0.427 0.373-0.427s0.267 0.213 0.267 0.373zM14.507 2.24c0 0 0 0 0 0v0c0 0 0 0 0 0zM14.347 2.347c0 0.16-0.16 0.32-0.32 0.32s-0.32-0.16-0.32-0.32c0-0.16 0.107-0.267 0.32-0.267 0.16 0 0.32 0.053 0.32 0.267zM12.053 5.013c0 0.107-0.053 0.213-0.16 0.267 0 0-0.053 0.053-0.053 0.053s-0.053-0.053-0.053-0.053c0 0 0 0 0 0-0.16 0-0.267-0.107-0.267-0.267s0.053-0.32 0.213-0.32 0.32 0.107 0.32 0.32zM11.573 5.493c0-0.053 0.053-0.053 0 0 0.053-0.053 0.053-0.053 0 0 0.053-0.053 0.053-0.053 0 0zM11.467 5.813v0c0 0 0 0 0 0s0 0 0 0zM16.8 1.6c0 0.053 0 0.053 0 0 0 0.053 0 0.053 0 0 0 0 0 0 0 0zM16.747 1.493c0 0 0 0 0 0v0c0 0 0 0 0 0zM18.027 1.6c0 0 0 0.053 0 0 0 0.053 0 0.053 0 0 0 0 0 0 0 0s0 0 0 0 0 0 0 0zM18.667 1.973c0 0 0 0 0 0s0 0 0 0 0 0 0 0zM18.88 2.187c0-0.16 0.16-0.373 0.32-0.373s0.373 0.213 0.373 0.373c0 0.16-0.213 0.267-0.373 0.267-0.107 0-0.213-0.053-0.267-0.16 0 0 0-0.053-0.053-0.053 0 0 0 0 0-0.053 0 0.053 0 0 0 0zM19.36 2.667c0 0 0 0 0 0s0-0.053 0 0v0zM19.307 2.72v0c0 0.053 0 0.053 0 0 0 0 0 0 0 0zM18.88 1.547c0 0.16-0.16 0.32-0.32 0.32s-0.373-0.107-0.373-0.267c0-0.16 0.16-0.373 0.32-0.373 0.213-0.053 0.373 0.107 0.373 0.32zM17.92 1.707c0 0 0 0 0 0s0 0 0 0v-0.053c0 0 0 0.053 0 0.053zM17.707 1.547v0c0.053 0 0.053 0 0 0 0.053 0 0 0 0 0zM21.707 3.573c0.053 0 0.053 0 0 0 0.053 0 0.053 0 0 0 0.053 0 0 0 0 0zM21.6 3.84c0 0 0 0 0 0s0 0 0 0 0 0 0 0zM21.6 3.52c0 0 0 0 0 0v0c0 0 0 0 0 0zM20.32 3.307c0 0 0 0 0 0 0.053 0 0.053 0 0.107 0-0.053-0.053-0.053-0.053-0.107 0zM23.093 6.133c0 0 0 0 0 0v0c0 0 0 0 0 0zM23.68 8.96c-0.16 0-0.32-0.16-0.32-0.32s0.16-0.32 0.32-0.32c0.16 0 0.32 0.16 0.32 0.32 0 0.213-0.16 0.32-0.32 0.32zM23.147 5.333c0-0.053 0-0.053 0 0v0c0 0 0 0 0 0zM22.933 11.147c0 0 0 0 0 0s0 0 0 0 0.053 0 0 0v0zM23.253 11.52c0 0 0 0 0 0v0c0.053 0 0.053 0 0 0zM23.307 10.187c0 0 0 0 0 0v0c0 0 0 0 0 0zM22.827 4.533c0 0-0.053 0-0.053 0s0 0 0 0 0 0 0 0h0.053zM19.787 3.307c0 0-0.053 0-0.053 0s0 0 0 0h0.053c0 0 0 0 0 0zM18.507 1.067c-0.053 0-0.053 0-0.107 0 0 0 0 0 0 0 0.053 0 0.107 0 0.107 0s0 0 0 0zM17.227 1.227c-0.053 0-0.053 0-0.107 0 0 0 0 0 0 0 0.053 0 0.107 0 0.107 0s0 0 0 0zM16.32 1.227c0 0-0.053 0-0.053 0s0 0 0 0 0 0 0.053 0c0 0 0 0 0 0zM15.36 1.6c0 0 0 0 0 0s0 0 0 0 0 0 0 0 0 0 0 0zM14.027 1.867c-0.053 0-0.053 0-0.107 0 0 0 0 0 0 0s0.053 0 0.107 0c-0.053 0 0 0 0 0zM11.733 4.533c-0.053 0-0.053 0-0.107 0 0 0 0 0 0 0s0.053 0 0.107 0c0 0 0 0 0 0zM11.2 6.24c0 0 0 0 0 0s-0.053 0-0.053 0c0 0 0 0-0.053 0 0 0 0 0 0 0s0 0 0 0 0.053 0 0.107 0zM13.173 12.64c0.053 0 0.053 0 0 0 0.053 0 0.053 0 0 0 0.053 0 0.053 0 0.053 0s0 0-0.053 0c0 0 0 0 0 0zM15.52 27.147c0 0 0 0 0 0 0.053 0 0.053 0 0.107 0 0 0 0 0 0 0s0 0 0 0c-0.053 0-0.053 0-0.107 0zM15.893 28.8l0.107-0.053c0 0 0 0 0 0-0.267 0.107-1.067 0.267-1.707 0.373 0.64-0.107 1.333-0.213 1.6-0.32zM14.187 29.12c0 0 0.053 0 0.053 0s0 0-0.053 0zM11.147 29.547c0.107-0.053 1.013-0.267 1.76-0.32-0.747 0-1.653 0.267-1.76 0.32-0.373 0.107-1.653 0.373-2.027 0.373 0.427-0.053 1.653-0.267 2.027-0.373zM9.973 30.72c0.053 0 0.107 0 0.16 0s0.213 0 0.32 0c-0.16 0-0.267 0-0.373 0-0.053 0-0.107 0-0.107 0zM16.267 30.453v0 0c-0.16 0-0.907 0-1.6 0-0.48 0-0.8 0-1.013 0-0.053 0-0.107 0-0.213 0-0.16 0-0.427 0-0.693 0.053 0.373-0.053 0.693-0.053 0.907-0.053 0.747 0.053 2.507 0 2.613 0 0.16 0 0.693 0.053 1.227 0.053-0.107 0-0.267 0-0.427 0-0.32 0-0.587-0.053-0.8-0.053zM12.587 30.507c0.053 0 0.107 0 0.16 0-0.053-0.053-0.107 0-0.16 0zM20 13.28v0c-0.053 0-0.053 0 0 0-0.053 0 0 0 0 0s0 0 0 0 0 0 0 0zM19.947 12.32c0 0 0 0 0 0s0 0 0 0 0 0 0 0 0 0 0 0zM21.12 11.84c0 0 0 0 0 0s0.053 0 0 0c0.053 0 0.053 0 0 0 0.053 0 0 0 0 0zM21.6 11.893c0 0 0 0 0 0 0.053 0 0.053 0 0.107 0 0 0 0 0 0 0-0.053 0-0.107 0-0.107 0zM22.027 11.733c0.053 0 0.053-0.053 0 0 0.053-0.053 0.053-0.053 0 0v0zM23.307 12.48c0 0 0 0 0 0s0 0 0 0c0.053 0 0.053 0 0 0 0.053 0 0.053 0 0 0 0 0 0 0 0 0z"></path>
</svg>
