<?xml version="1.0" encoding="utf-8"?>
<!-- Generated by IcoMoon.io -->
<!DOCTYPE svg PUBLIC "-//W3C//DTD SVG 1.1//EN" "http://www.w3.org/Graphics/SVG/1.1/DTD/svg11.dtd">
<svg version="1.1" xmlns="http://www.w3.org/2000/svg" xmlns:xlink="http://www.w3.org/1999/xlink" width="32" height="32" viewBox="0 0 32 32">
<path d="M16.053 12.693v0c0 0 0 0 0 0zM30.507 9.227c-1.653-0.32-3.307 0.64-3.84 0.853-0.373 0.16-4.693 2.187-6.88 3.2 0-0.267-0.107-0.693-0.16-0.96 0.107-0.053 0.213-0.16 0.267-0.16 0.16-0.053 0.587-0.693 0.747-0.96 0.16-0.213-0.053-0.533-0.053-0.533s0.96-1.12 1.227-1.227c0.213-0.107 0.053-0.373 0.053-0.373l0.427-0.587c0 0 0.32-0.32 0.48-0.48 0.213-0.16-0.213-0.427-0.48-0.32-0.267 0.16-0.213 0.48-0.427 0.693s-0.267 0.533-0.267 0.533-0.32 0.107-0.48 0.373c-0.213 0.32-0.853 1.227-0.853 1.227s-0.213 0.053-0.533 0.32c-0.267 0.267-0.48 1.12-0.587 1.28 0-0.053-0.053-0.107-0.107-0.16-0.107-0.053-0.373-0.267-0.533-0.427 0-0.213-0.32-0.427-0.32-0.64 0.053-0.213 0.053-0.8-0.053-1.067-0.053-0.213-0.48-0.32-0.48-0.32s-0.373-0.587-0.693-0.693c0 0 0 0 0 0 0.16-0.213 0.373-0.48 0.427-0.587 0.16-0.16 0.8-0.48 1.067-0.587 0.213-0.053 0.96-0.427 1.28-0.64s1.067-0.373 1.387-0.427c0.32-0.053 0.373-0.053 0.587-0.213s-0.48-0.16-0.693-0.107c-0.213 0.053-0.853 0.16-1.12 0.267s-0.693 0.427-1.013 0.48c-0.32 0.053-0.853 0.48-1.333 0.693-0.427 0.213-0.533 0.427-0.693 0.587-0.053 0.107-0.16 0.267-0.267 0.427-0.213-0.053-0.64-0.053-0.64-0.053s0 0 0 0v0c0 0 0 0 0 0s-0.427 0.053-0.64 0.053c-0.053-0.16-0.16-0.32-0.267-0.427-0.16-0.16-0.213-0.373-0.693-0.587-0.427-0.213-1.013-0.64-1.333-0.693s-0.747-0.427-1.013-0.48c-0.267-0.107-0.853-0.213-1.12-0.267-0.213-0.053-0.96-0.053-0.693 0.107 0.213 0.16 0.32 0.16 0.587 0.213 0.32 0.053 1.067 0.213 1.387 0.427s1.067 0.587 1.28 0.64c0.213 0.053 0.907 0.427 1.067 0.587 0.107 0.107 0.267 0.373 0.427 0.587 0 0 0 0 0 0-0.32 0.16-0.693 0.693-0.693 0.693s-0.427 0.107-0.48 0.32c-0.053 0.213-0.053 0.853-0.053 1.067 0.053 0.213-0.32 0.427-0.32 0.64-0.16 0.16-0.373 0.32-0.533 0.427-0.053 0-0.107 0.053-0.107 0.16-0.107-0.213-0.267-1.013-0.587-1.28s-0.533-0.32-0.533-0.32-0.427-0.907-0.64-1.173c-0.213-0.267-0.48-0.373-0.48-0.373s-0.053-0.32-0.267-0.533c-0.213-0.213-0.16-0.533-0.427-0.693s-0.693 0.16-0.48 0.32c0.213 0.16 0.48 0.48 0.48 0.48l0.427 0.587c0 0-0.16 0.267 0.053 0.373s1.227 1.227 1.227 1.227-0.16 0.32-0.053 0.533c0.16 0.213 0.587 0.853 0.747 0.96 0.053 0 0.16 0.107 0.267 0.16-0.053 0.267-0.16 0.693-0.16 0.96-2.187-1.013-6.507-3.040-6.88-3.2-0.533-0.213-2.187-1.173-3.84-0.853-1.653 0.267-0.053 2.453-0.053 2.453s1.6 1.867 2.080 1.973c0.427 0.107 1.44 0.16 1.44 0.16s-0.427 0.533-0.267 0.96c0.16 0.427 1.867 1.333 2.187 1.387s1.547 0.373 2.080 0.16c0.48-0.213 1.707-0.96 2.187-1.067s0.853-0.053 0.853-0.053l0.16 0.747c0 0-1.6 0.48-1.867 0.587-0.267 0.16-1.067 1.12-1.067 1.12s-0.907 1.013-1.12 1.173c-0.213 0.16-0.587 0.64-0.533 0.8s-0.32 0.427-0.427 0.48c-0.107 0.053-0.267 0.48-0.267 0.48s-0.427 0.053-0.427 0.213c0 0.16-0.373 0.533-0.373 0.533s-0.373 0.32-0.32 0.533c0.053 0.213 0.16 0.48 0.373 0.427 0.213-0.107 0.693-1.173 0.8-1.227s0.32-0.427 0.32-0.427 0.32-0.16 0.48-0.48c0.213-0.373 0.32-0.16 0.64-0.427s1.333-1.6 1.333-1.6 0.693-0.053 1.067-0.213c0.32-0.16 0.96-0.8 1.067-0.8s0.693-0.32 0.693-0.32v0.747c0 0-0.533 0.16-0.8 0.32-0.267 0.213-2.453 2.72-2.56 3.253s0.213 0.693 0.213 0.693l-0.427 1.973-0.053 0.853-0.16 0.64c0 0-0.373 0.32-0.32 0.533s0.053 0.213 0.053 0.213-0.267 0.267-0.16 0.533c0.107 0.267-0.427 0.693-0.32 0.96 0.16 0.213 0.48 0.373 0.587 0s0.213-1.12 0.213-1.12 0.32-0.16 0.32-0.587 0.16-0.48 0.213-0.8c0.107-0.32 0-0.267 0.267-0.64s0.64-2.72 0.64-2.72 0.373-0.48 0.533-0.747c0.16-0.267 1.227-2.293 1.227-2.293l0.053-0.373 0.427-0.053c0 0-0.587 0.747-0.427 0.96 0.053 0.053 0.107 0.107 0.16 0.16-0.107 0.373-0.267 1.013-0.32 1.387 0 0.32 0.16 0.747 0.267 0.96-0.107 1.44 0.48 2.827 0.8 3.093 0.053 0.053 0.16 0.107 0.267 0.107 0.053 0.16 0.48 0.64 0.693 0.907 0.427 0.587 3.787 0.587 4.213 0 0.213-0.267 0.64-0.747 0.693-0.907 0.107 0 0.16-0.053 0.267-0.107 0.32-0.32 0.907-1.653 0.8-3.093 0.107-0.213 0.267-0.64 0.267-0.96s-0.213-1.013-0.32-1.387c0.053-0.053 0.16-0.107 0.16-0.16 0.16-0.213-0.427-0.96-0.427-0.96l0.427 0.053 0.053 0.373c0 0 1.067 2.027 1.227 2.293s0.533 0.747 0.533 0.747 0.373 2.347 0.64 2.72c0.267 0.373 0.16 0.32 0.267 0.64s0.213 0.373 0.213 0.8 0.32 0.587 0.32 0.587 0.107 0.747 0.213 1.12c0.107 0.373 0.48 0.213 0.587 0 0.16-0.213-0.427-0.693-0.32-0.96s-0.16-0.533-0.16-0.533 0 0 0.053-0.213c0.053-0.213-0.32-0.533-0.32-0.533l-0.16-0.64-0.053-0.853-0.427-1.973c0 0 0.32-0.16 0.213-0.693s-2.293-3.040-2.56-3.253c-0.267-0.213-0.8-0.32-0.8-0.32v-0.693c0 0 0.587 0.32 0.693 0.32s0.693 0.64 1.067 0.8c0.32 0.16 1.067 0.213 1.067 0.213s0.96 1.333 1.333 1.6c0.32 0.267 0.427 0.053 0.64 0.427s0.48 0.48 0.48 0.48 0.213 0.32 0.32 0.427c0.107 0.053 0.533 1.12 0.8 1.227 0.213 0.107 0.32-0.213 0.373-0.427s-0.32-0.533-0.32-0.533-0.373-0.427-0.373-0.533c0-0.16-0.427-0.213-0.427-0.213s-0.16-0.427-0.267-0.48-0.427-0.32-0.427-0.48c0.053-0.16-0.32-0.693-0.533-0.8-0.213-0.16-1.12-1.173-1.12-1.173s-0.8-0.96-1.067-1.12c-0.267-0.16-1.867-0.587-1.867-0.587l0.16-0.747c0 0 0.373-0.053 0.853 0.053s1.707 0.853 2.187 1.067c0.48 0.213 1.707-0.107 2.080-0.16 0.32-0.053 2.027-0.96 2.187-1.387s-0.267-1.067-0.267-1.067 1.013-0.053 1.44-0.16c0.427-0.107 2.080-1.973 2.080-1.973s1.44-2.133-0.213-2.453zM13.067 12.373c0.107-0.16 0.32-0.373 0.48-0.427 0.213-0.053 0.533-0.373 0.747-0.533 0.587-0.267 1.227-0.373 1.76-0.373v0 0c0.533 0 1.173 0.107 1.76 0.373 0.213 0.16 0.533 0.48 0.747 0.533 0.16 0.053 0.32 0.213 0.48 0.427-0.053 0.267 0.373 0.533 0.373 0.8 0 0.107-0.427 0.427-0.427 0.267s-0.373-0.427-0.64-0.533c-0.267-0.107-1.28-0.16-2.24-0.16v0c0 0 0 0 0 0s0 0 0 0v0c-0.96 0-1.973 0.053-2.24 0.16s-0.64 0.427-0.64 0.533c0 0.16-0.427-0.16-0.427-0.267-0.107-0.267 0.32-0.533 0.267-0.8zM14.187 18.72c-0.427-0.16-1.067-0.64-1.067-0.64s1.013 0.16 1.44 0.107c1.493-0.107 1.493-0.107 2.88 0 0.427 0.053 1.493-0.107 1.493-0.107s-0.64 0.533-1.067 0.64c-1.28 0.373-2.507 0.373-3.68 0zM4.16 13.12c-0.32-0.16-1.76-1.067-1.973-1.44s-0.427-0.533-0.587-0.907c-0.16-0.373 0.107-0.853 0.48-1.013 0.373-0.213 1.813 0.373 1.813 0.373s2.293 0.907 4.64 1.973c0.693 0.32 1.28 0.587 1.76 0.8-0.373-0.107-0.853-0.16-1.44-0.16-0.32 0-3.040 0.267-3.147 0.267-0.053-0.053-1.227 0.267-1.547 0.107zM12.427 14.613c-0.16 0.16-0.373 0.16-0.373-0.107 0-0.213-0.587-0.107-0.853 0.053s0 0.48 0 0.48-0.267-0.16-0.587-0.053c-0.32 0.107-1.547 0.747-1.813 0.8-0.213 0.053-1.227 0-1.707-0.16s-0.8-0.267-1.013-0.373c-0.213-0.107-0.747-0.48-0.64-0.8 0.053-0.32 0.053-0.48 0.213-0.48s1.493-0.48 1.76-0.587c0.213-0.053 1.067-0.213 1.387-0.213 0.267 0 1.44 0 1.973 0 1.973 0.907 1.76 0.853 1.867 0.907 0-0.053-0.053 0.373-0.213 0.533zM17.333 25.867c-0.48 0.16-1.76 0.32-2.56 0-0.213-0.053-0.747-0.32-0.853-0.907 0.267-0.107 0.533 0 0.853-0.16 0.8-0.32 1.707-0.32 2.613 0 0.32 0.107 0.587 0.053 0.853 0.16-0.213 0.587-0.747 0.8-0.907 0.907zM19.573 20.373c0 0.213 0.107 0.907-0.107 1.387-0.213 0.107-0.587 0.32-1.28 0.427-1.6 0.267-2.72 0.32-4.267 0-0.64-0.107-1.067-0.32-1.28-0.427-0.213-0.48-0.16-1.173-0.107-1.387 0.053-0.32 0.267-0.64 0.32-0.747 0.267 0.107 0.267 0.107 0.533 0.16 1.387 0.373 3.733 0.373 5.28 0 0.267-0.053 0.267-0.053 0.533-0.16 0.107 0.107 0.32 0.427 0.373 0.747zM25.973 15.253c-0.213 0.107-0.587 0.267-1.013 0.373s-1.44 0.213-1.707 0.16c-0.213-0.053-1.493-0.693-1.813-0.8s-0.587 0.053-0.587 0.053 0.267-0.32 0-0.48c-0.267-0.16-0.853-0.267-0.853-0.053s-0.213 0.267-0.373 0.107c-0.16-0.16-0.213-0.587-0.213-0.587 0.053-0.053-0.107 0 1.867-0.907 0.533 0 1.707 0 1.973 0 0.32 0.053 1.173 0.16 1.387 0.213s1.6 0.587 1.76 0.587c0.16 0 0.16 0.213 0.213 0.48 0.053 0.373-0.427 0.747-0.64 0.853zM30.507 10.72c-0.16 0.373-0.32 0.533-0.587 0.907-0.213 0.373-1.653 1.333-1.973 1.44-0.32 0.16-1.493-0.16-1.6-0.107s-2.827-0.267-3.147-0.267c-0.587 0-1.067 0.053-1.44 0.16 0.48-0.213 1.067-0.48 1.76-0.8 2.347-1.067 4.64-1.973 4.64-1.973s1.44-0.533 1.813-0.373c0.427 0.213 0.693 0.64 0.533 1.013zM16 12.693v0c0 0 0 0 0 0z"></path>
</svg>
