<?xml version="1.0" encoding="utf-8"?>
<!-- Generated by IcoMoon.io -->
<!DOCTYPE svg PUBLIC "-//W3C//DTD SVG 1.1//EN" "http://www.w3.org/Graphics/SVG/1.1/DTD/svg11.dtd">
<svg version="1.1" xmlns="http://www.w3.org/2000/svg" xmlns:xlink="http://www.w3.org/1999/xlink" width="32" height="32" viewBox="0 0 32 32">
<path d="M23.2 12.96l-2.933 5.28c0.107-0.373 0.267-0.853 0.267-0.96 0 0 0-0.053 0-0.107l2.453-5.28c0 0-1.227 2.56-2.187 4.48 0 0 0 0 0 0s-0.32 0.32-0.64 0.64l2.293-5.547c-0.053 0.107-1.92 4.32-2.613 5.867-0.16 0.16-0.267 0.32-0.32 0.373 0 0.053-0.053 0.053-0.053 0.107 0.267-1.12 0.907-3.68 0.907-3.68l-1.28 4.32c-0.32 0.533-0.64 1.12-0.64 1.12l1.12-0.747c0 0-1.28 1.013-1.333 1.067-0.107 0.16-0.48 0.8-0.587 1.067s0.907-0.373 0.907-0.373-1.067 0.8-1.28 1.013c-0.16 0.16-0.64 0.8-0.907 1.173-0.32 0.373-0.533 0.853-0.747 1.547-0.16 0.48-0.747 2.027-0.747 2.027s0-1.867 0.213-2.827c0.213-0.96 0.32-1.493 0.373-2.133 0.107-0.64 0.32-3.093 0.32-3.2s0.747-1.387 0.8-2.293c0.053-0.907 0.16-2.347 0.16-2.347s-0.48 1.28-0.533 1.173c-0.053-0.053 0.267-1.707 0.373-2.293v0.053c0 0 0-0.107 0-0.213 0-0.053 0-0.053 0-0.053s0 0 0-0.053c0.16-1.44 0.907-7.573 0.907-7.573l-0.96 6.667c-0.053-0.32-0.053-0.64-0.107-0.8-0.053-0.213-0.053-0.64-0.107-1.12l0.907-6.773-0.96 5.973c0-0.16-0.053-0.32-0.053-0.427-0.053-0.267-0.107-0.693-0.16-1.173l0.48-5.547-0.587 5.067c-0.053-0.267-0.16-0.533-0.32-0.8l-0.053-4.853-0.213 5.227c-0.107 0.373-0.16 0.853-0.16 0.853l0.64 1.867-0.8-1.547-0.907-4.48 0.747 4.907c-0.053 0.32-0.053 0.693-0.053 0.8 0.053 0.16 0.48 1.28 0.747 1.867-0.267-0.48-0.747-1.387-0.853-1.547l-1.12-4.213 1.013 4.693c-0.053 0.267-0.053 0.533-0.053 0.64 0.053 0.213 1.067 2.88 1.067 2.88l-1.12-2.347c-0.213-0.8-0.853-2.88-0.853-2.88l0.64 3.093c-0.053 0.267-0.107 0.64-0.053 0.907 0.16 0.533 1.227 3.147 1.387 3.573-0.213-0.427-1.493-2.987-1.493-2.987l-1.12-2.24 1.12 3.040c0.053 0.8 0.107 2.027 0.213 2.347 0.107 0.587 0.64 2.187 0.693 2.667s0.053 2.133-0.053 2.507c-0.053 0.373-0.213 1.067-0.213 1.067s-0.267-1.227-0.907-2.347c-0.48-0.96-1.973-4.267-1.973-4.267l-0.213 2.293-0.053-2.773c0 0-0.053-0.64-0.427-1.28-0.16-0.267-0.48-0.747-0.747-1.067-0.373-0.96-1.067-2.827-1.547-4.107 0.373 1.12 0.907 2.72 1.227 3.733 0 0.107 0 0.32-0.053 0.587l-1.707-3.733 1.92 4.267c0 0.16 0 0.32 0 0.48l-2.827-4.693 2.773 4.96c0 0.16 0 0.267 0 0.32 0 0.107 0 0.213 0 0.373l-1.973-2.72 1.973 3.2c0.053 0.32 0.107 0.64 0.16 0.907-0.8-1.173-2.453-3.573-2.453-3.52s1.547 2.4 2.507 3.893c0.107 0.48 0.213 0.8 0.213 0.8s0.107 0.427 0.32 0.907c-0.693-0.8-2.027-2.347-2.027-2.347l2.347 3.147c0.107 0.213 0.427 0.533 0.533 0.693 0.48 0.693 2.080 1.173 2.080 1.173s0.48 1.067 0.64 1.387c0.16 0.32 0.213 1.173 0.107 1.493s-0.267 2.933-0.213 3.36c0.053 0.427 0.16 1.92 0.107 2.187s-0.213 2.027-0.213 2.027 0.267 0.427 0.533 0.32c0.267-0.107 0.107-0.373 0.107-1.013s0.32-3.36 0.32-3.36 1.6-1.6 2.027-2.24c0.427-0.587 1.067-1.76 1.12-1.92 0.053-0.107 0.64-1.707 0.907-2.133 0.213-0.32 0.587-1.12 0.747-1.6l3.093-5.92zM8.587 6.613c0 0 0.213 0.587 0.48 1.387-0.267-0.8-0.427-1.387-0.48-1.387z"></path>
</svg>
