<?xml version="1.0" encoding="utf-8"?>
<!-- Generated by IcoMoon.io -->
<!DOCTYPE svg PUBLIC "-//W3C//DTD SVG 1.1//EN" "http://www.w3.org/Graphics/SVG/1.1/DTD/svg11.dtd">
<svg version="1.1" xmlns="http://www.w3.org/2000/svg" xmlns:xlink="http://www.w3.org/1999/xlink" width="32" height="32" viewBox="0 0 32 32">
<path d="M26.702 24.995c-2.743-1.211-7.028-1.576-9.845-0.763 0.038-0.174 0.082-0.377 0.118-0.54 0.080-0.362 0.322-0.684-0.040-1.046s-0.523 0-0.523 0 0.040-1.367 0-1.81c-0.018-0.197-0.020-1.324-0.006-2.602 0.35-0.516 1.139-1.324 1.454-1.531 0.626-0.412 0.965-0.331 1.568-0.437 0.603-0.105 0.483-0.377 0.322-0.545s-0.772-0.094-1.133 0.007c-1.266 0.353-1.712 1.151-2.207 2.211 0.019-1.509 0.060-1.216 0.123-1.744 0.056-0.469-0.33-1.549 0.084-2.257 0.276-0.18 0.639-0.394 0.962-0.527 0.226-0.093 0.785 0.101 0.905-0.261 0.066-0.199 0.068-0.523-0.382-0.523-0.603 0-1.086 0.603-1.086 0.603l-0.397 0.502c0.005-0.951-0.005-1.828-0.005-2.030 0-0.402-0.121-0.523-0.161-0.804s0.080-1.086 0.080-1.287 0.362-0.483 0.563-0.643 0.282-0.603 0.322-0.885c0.015-0.106 0.064-0.211 0.119-0.312 0.424-0.229 1.301-0.731 1.080-0.854-0.289-0.161-0.797 0.443-0.797 0.443l-0.133 0.139c0.031-0.065 0.052-0.125 0.052-0.18 0-0.048-0.020-0.075-0.051-0.089l0.48-0.515c0.156-0.121 0.679-0.442 0.438-0.643s-0.603 0.322-0.603 0.322l-0.431 0.829c-0.088 0.014-0.177 0.056-0.177 0.056s-0.259 0.724-0.259 1.046-0.684 0.845-0.684 0.845-0.080-1.086-0.201-1.488c-0.121-0.402 0.282-1.367 0.282-1.367s0-0.965 0.080-1.448 0-0.603 0.282-0.402c0.235 0.168 0.524-0.223 0.498-0.405 0.249-0.045 0.518-0.246 0.468-0.52 0 0-0.952 0.121-0.832 0.396-0.236-0.011-0.496 0.006-0.496 0.006l-0.016-0.057c0.116-0.383 0.244-0.896 0.205-1.208-0.023-0.181-0.082-0.485-0.152-0.81 0.231-0.286 0.676-0.899 0.244-0.917l-0.272 0.788c-0.068-0.314-0.142-0.635-0.199-0.875 0.277-0.258-0.092-0.863-0.092-0.863s-0.442 1.126 0 0.925c0.014-0.007 0.026-0.015 0.038-0.023l0.158 1.774-0.046 0.791-0.101-0.37c0 0-0.169-0.523-0.274-0.402s0.274 1.045 0.274 1.045-0.531-0.201-0.652 0 0.652 0.322 0.652 0.322-0.049 1.729-0.006 1.85c0.043 0.121-0.164 1.287-0.268 1.528-0.105 0.241 0.306 2.534 0.266 2.695s0.080 0.764-0.266 0.643c-0.346-0.121 0-1.247 0-1.247s-0.257-0.885-0.378-1.166c-0.121-0.282-0.282-0.764-0.623-1.086-0.097-0.092-0.167-0.243-0.218-0.411-0.018 0.085-0.059 0.139-0.135 0.129-0.138-0.017-0.318-0.164-0.482-0.332-0.121-0.267-0.462-0.93-0.785-0.736-0.415 0.249 0.327 0.684 0.327 0.684l0.487 0.154c0.032 0.048 0.054 0.087 0.062 0.109 0.040 0.121 0.523 0.442 0.724 0.684 0.201 0.241 0.362 1.086 0.563 1.448s0.282 0.925 0.188 1.408c-0.093 0.483 0.536 0.724 0.536 1.166 0 0.261-0.093 2.741-0.169 6.301-0.199-0.522-0.632-1.234-1.306-1.229-0.795 0.007-1.547 0.603-1.225 0.925s0.389-0.282 1.115-0.282c0.629 0 1.165 0.73 1.406 1.011-0.048 2.27-0.088 4.096-0.088 4.096s-0.579-0.121-0.7 0c-0.121 0.121-0.161 0.764 0 1.448 0.051 0.217 0.070 0.373 0.071 0.485-0.077-0.009-0.144-0.022-0.192-0.042 0 0-2.643-1.423-6.033-1.159-3.62 0.282-5.671 1.327-5.831 2.574-0.181 1.401 3.051-0.169 4.022-0.442 2.855-0.804 4.331-1.101 5.943-1.026 2.11 0.099 1.859 0.375 2.11 0.652 0 0-2.096 0.367-3.83 1.457-0.927 0.583-2.306 1.202-2.869 3.092-0.472 1.585 1.877 3.325 3.325 0.858 2.090-3.561 1.214-3.682 3.325-5.121 0.885-0.603-0.523 2.132-0.523 2.132s-0.773 1.651 0.201 2.453c1.367 1.126 2.685 0.403 2.936-0.442 0.322-1.086-0.523-2.493-0.643-2.815s-0.684-1.207-0.603-1.448 0.065-0.443 0.462-0.543c0.478-0.12 2.936-0.503 7.621 1.87 3.027 1.533 3.218-0.804 1.885-1.392zM14.721 6.096c0.023-0.224-0.050-0.707-0.521-0.736 0 0 0.399 0.76 0.472 0.845 0.006 0.006 0.011 0.006 0.017 0.001 0.017 0.19 0.051 0.441 0.118 0.662 0.041-0.192-0.032-0.552-0.086-0.772zM13.863 6.114c0 0 0.218-0.955 0-0.986s-0.437 0.232-0.437 0.232-0.346-0.165-0.281-0.235c0 0-0.598 0.096-0.229 0.495 0.132 0.143-0.521 0.196-0.334 0.352s0.312 0.406 0.312 0.406-0.438 0.25-0.188 0.344 1.024-0.108 1.024-0.108l0.133-0.5zM15.783 3.661c0 0-0.168-0.689-0.372-0.814s-0.266 0.281-0.266 0.281-0.531 0.009-0.5 0.114c0.031 0.105 0.312 0.23 0.312 0.23s-0.46 0.003-0.449 0.189 0.511 0.186 0.511 0.186-0.156 0.281 0 0.313 0.763 0 0.763 0l0.218-0.345-0.217-0.154zM16.677 1.346c0 0 0.812 0.343 0.999 0s-0.188-0.437-0.188-0.437 0.324-0.219 0.24-0.375-0.365 0-0.365 0 0.129-0.406-0.154-0.344c-0.283 0.062-0.346 0.375-0.346 0.375s-0.375 0.176-0.312 0.276-0.079 0.433 0.126 0.505zM18.364 5.125c0 0-0.25 0.619-0.312 0.811s0.156 0.567 0.156 0.567 0.906 0.062 1.062 0 0-0.389 0-0.389 0.5-0.33 0.375-0.549-0.531-0.205-0.531-0.205 0.406-0.42 0.188-0.482-0.563 0.482-0.563 0.482-0.283-0.463-0.375-0.235z"></path>
</svg>
