<?xml version="1.0" encoding="utf-8"?>
<!-- Generated by IcoMoon.io -->
<!DOCTYPE svg PUBLIC "-//W3C//DTD SVG 1.1//EN" "http://www.w3.org/Graphics/SVG/1.1/DTD/svg11.dtd">
<svg version="1.1" xmlns="http://www.w3.org/2000/svg" xmlns:xlink="http://www.w3.org/1999/xlink" width="32" height="32" viewBox="0 0 32 32">
<path d="M30.293 3.413c0 0-6.080-3.787-11.2-1.28-4.053 2.293-5.547 6.987-4.16 11.307 0.853 3.040 3.84 9.973-0.373 12.32s-7.467-1.013-8.32-1.973c-3.253-3.52-5.653-14.027-5.333-13.067-0.053 0.107-0.32 3.84 2.4 13.653 1.813 6.027 7.52 6.507 9.653 6.293 5.333-0.64 7.36-3.947 8-6.24 1.12-4-1.013-9.707-1.707-12.373-0.533-2.613-0.32-7.040 3.467-7.68 3.413-0.587 6.027 0.64 6.933 0.907 1.493 0.64 2.4-0.693 0.64-1.867z"></path>
</svg>
