<svg xmlns="http://www.w3.org/2000/svg" width="32" height="32" viewBox="0 0 32 32"><path d="M27.185 30.774c-.051-.306-.428-.724-.691-.757s-.888-.461-.888-.461-.527.047-.527-.428c0-.198.296-.263.428-.527s.855-1.316 1.152-2.402c.296-1.086.263-1.875.23-2.435s-.329-2.139-.263-2.632c.066-.493-.066-1.119-.197-1.612s-.395-1.119-.395-1.119 0-1.678.066-2.402c.066-.724.296-1.612.296-1.612s.165-1.908.033-2.665c-.132-.757-.823-3.191-.888-3.652s-.691-2.073-.691-2.073-.132-.888-.263-1.316c-.132-.428-.395-1.382-.395-1.382s.329-1.908.033-2.599c-.296-.691-.461-.691-.461-.691s-.428.066-.691.296c-.263.23-.724 1.02-.921 1.415S21.79 2.872 21 2.905c0 0-.658.066-.921.165s-1.316.165-1.481.165-.724-.165-.855-.296c-.132-.132-1.514-1.382-1.809-1.448s-.888-.132-.888-.132-.263 0-.23.724.165 1.514.296 1.645.494.888.527 1.152c.033.263.263 1.02.296 1.283s-.132.921-.132.921-.033.823.033 1.382c.066.559.197 1.448.197 1.448s-.197.987-.164 1.481c.033.494.132 1.875.263 2.336s.198 1.283.033 1.645c-.165.362-1.415 2.895-1.744 3.323s-1.217 1.908-1.415 2.204c-.197.296-.691 1.744-.921 2.204s-.592 1.053-.625 1.514c-.033.461.164.987.362 1.448s.921 1.645.921 1.645l.23.691s-.822.592-1.283.658-1.086-.099-1.678-.164c-.592-.066-2.04-.23-2.402-.165s-1.053.132-1.349.329c-.296.198-.921.527-1.119.724s-.527.592-.461.79c.066.198.79.066 1.184.066s1.184-.033 1.546.099c.362.132 2.172.263 2.402.296s2.863 0 2.961.033c.099.033 1.349.197 1.546.132s1.25-.132 1.25-.132 1.086.658 1.481.592c.395-.066.658-.132.658-.132s.461.296.658.231c.198-.066.757.164.757.164s.165.165.559.099.855-.066.855-.066.658.23.921.066c.263-.165.757-.329.757-.329s.362-.329.329-.559c-.033-.23.099-.757.099-.757s0 .921.296 1.053c.296.132.658.329 1.02.329s1.053-.132 1.283-.132.658.132.954-.033c.296-.164.559-.066.855-.23.295-.165.196-.198.13-.593zM19.683 6.887c-.033.132-.263.132-.263.132s-.362.066-.625 0-.559-.494-.559-.494.18-.304.461-.329c.362-.033.362-.066.691.099s.296.592.296.592zm2.875-.446c-.24.127-.607.15-.607.15s-.224.056-.287-.064c0 0-.135-.407.145-.646s.288-.207.647-.262c.278-.043.526.208.526.208s-.184.486-.424.614z"/></svg>