<svg xmlns="http://www.w3.org/2000/svg" width="32" height="32" viewBox="0 0 32 32"><path d="M27.37 5.271c.126-.646.662-1.623.662-1.623s1.099-.135 1.087-.268c-.031-.346-.851-.615-.851-.615l-.724-.693s.541-.256.425-.709C27.78.622 27.434.355 27.338.26c-.094-.095-.252.283-.252.283s-.221-.803-.442-.457a3.052 3.052 0 0 0-.19.314c-.003-.006-.19-.376-.409-.282-.221.095-.662.63-.394 1.308.061.153.189.363.189.363s-.331.021-.583.273-.672.841-.672.841-1.188 1.124-1.976 2.794c-.401.849-1.387 4.013-2.395 4.349s-2.017 1.009-2.774.925c-.756-.084-2.017.168-2.017.168s-1.848-.421-2.941-.336c-1.093.084-3.787-.063-4.386-.284S6.431 9.206 6.011 9.122s-.504.337-.504.337l-1.261-.588s-1.155-.188-1.26.084 0 .505 0 .505-.536-.052-.589.252c-.053.304.167.588.167.588s-.421.252-.252.756c.168.505.515 1.277.841 1.765s1.345 1.008 1.345 1.008-.673-.114-.673.085c0 .198.084.84.42 1.092s1.261 1.429 1.261 1.429-.756.251-.505.671.756.926 1.176 1.093c.42.168 1.765 1.009 1.765 1.009s-.672.756-.504 1.344c.168.588 1.764 2.606 2.185 2.942s3.236 1.775 3.362 2.184c.136.442 1.428 3.341 1.597 4.623.012.096-.071.253-.178.41-.166.115-.409.278-.51.308-.158.047-.898.078-.977.11-.079.031-.614.142-.678.346-.03.095.158.031.394.015s.835-.078.946-.032c.111.047.725.047.883.079.098.02.462.015.736.02.085.035.177.061.258.075.189.032.693.189.693.189s1.084.103 1.426.122c.159.035.308.061.402.052a1.52 1.52 0 0 0 .504-.127c.064-.031.316 0 .316 0s-.189-.236-.299-.236-.363-.078-.442-.047c-.075.03-.264.001-.419-.043l-.077-.059c.188.008.378.014.448.007.157-.015.473.015.473.015l.174.047s-.002-.049-.026-.105l.035.003a.232.232 0 0 1 .071.024c.075.056.555.191 1.005.297l.004.002h.004c.3.071.584.129.721.142.346.032 1.323 0 1.323 0l-.021-.02c.087-.005.148-.011.148-.011s.142-.032.189.015c.047.047-.11-.236-.252-.252s-.268-.032-.394 0c-.126.031-.535-.063-.535-.063v-.073l.148-.015.933-.049c.068.008.157.007.241.003l.254.022s-.031-.189-.189-.221a2.067 2.067 0 0 0-.174-.026.864.864 0 0 0-.221-.132c-.132-.044-.75.064-1.169.124-.056-.023-.118-.049-.171-.061-.126-.031-.788-.063-.835-.078-.043-.014-.492-.166-.801-.45-.296-.549-.816-1.538-.838-1.74l-.316-2.727s.284-.236.536-.52c.252-.283 1.198-1.828 1.355-1.86.157-.031 2.207-1.135 2.396-1.292s2.08-1.891 2.08-1.891 2.616-1.355 2.962-1.765 2.415-3.011.914-7.375c-1.355-3.939-1.072-4.16-1.072-4.287.001-.127.285-1.261.41-1.907zm-9.96 24.726c-.063.724-.346.662-.631.756s-.63-.126-.63-.252c0-.127-.945-1.797-1.072-2.049s-.473-1.922-.409-2.238c.063-.315 1.513-.724 1.513-.724 0 .315.756 2.301.788 2.395s.505 1.387.442 2.112z"/></svg>