<?xml version="1.0" encoding="utf-8"?>
<!-- Generated by IcoMoon.io -->
<!DOCTYPE svg PUBLIC "-//W3C//DTD SVG 1.1//EN" "http://www.w3.org/Graphics/SVG/1.1/DTD/svg11.dtd">
<svg version="1.1" xmlns="http://www.w3.org/2000/svg" xmlns:xlink="http://www.w3.org/1999/xlink" width="32" height="32" viewBox="0 0 32 32">
<path d="M27.37 5.271c0.126-0.646 0.662-1.623 0.662-1.623s1.099-0.135 1.087-0.268c-0.031-0.346-0.851-0.615-0.851-0.615l-0.724-0.693c0 0 0.541-0.256 0.425-0.709-0.189-0.741-0.535-1.008-0.631-1.103-0.094-0.095-0.252 0.283-0.252 0.283s-0.221-0.803-0.442-0.457c-0.163 0.257-0.188 0.305-0.19 0.314-0.003-0.006-0.19-0.376-0.409-0.282-0.221 0.095-0.662 0.63-0.394 1.308 0.061 0.153 0.189 0.363 0.189 0.363s-0.331 0.021-0.583 0.273-0.672 0.841-0.672 0.841-1.188 1.124-1.976 2.794c-0.401 0.849-1.387 4.013-2.395 4.349s-2.017 1.009-2.774 0.925c-0.756-0.084-2.017 0.168-2.017 0.168s-1.848-0.421-2.941-0.336c-1.093 0.084-3.787-0.063-4.386-0.284s-1.665-1.313-2.085-1.397-0.504 0.337-0.504 0.337l-1.261-0.588c0 0-1.155-0.188-1.26 0.084s0 0.505 0 0.505-0.536-0.052-0.589 0.252c-0.053 0.304 0.167 0.588 0.167 0.588s-0.421 0.252-0.252 0.756c0.168 0.505 0.515 1.277 0.841 1.765s1.345 1.008 1.345 1.008-0.673-0.114-0.673 0.085c0 0.198 0.084 0.84 0.42 1.092s1.261 1.429 1.261 1.429-0.756 0.251-0.505 0.671 0.756 0.926 1.176 1.093c0.42 0.168 1.765 1.009 1.765 1.009s-0.672 0.756-0.504 1.344c0.168 0.588 1.764 2.606 2.185 2.942s3.236 1.775 3.362 2.184c0.136 0.442 1.428 3.341 1.597 4.623 0.012 0.096-0.071 0.253-0.178 0.41-0.166 0.115-0.409 0.278-0.51 0.308-0.158 0.047-0.898 0.078-0.977 0.11-0.079 0.031-0.614 0.142-0.678 0.346-0.030 0.095 0.158 0.031 0.394 0.015s0.835-0.078 0.946-0.032c0.111 0.047 0.725 0.047 0.883 0.079 0.098 0.020 0.462 0.015 0.736 0.020 0.085 0.035 0.177 0.061 0.258 0.075 0.189 0.032 0.693 0.189 0.693 0.189s1.084 0.103 1.426 0.122c0.159 0.035 0.308 0.061 0.402 0.052 0.284-0.032 0.441-0.095 0.504-0.127 0.064-0.031 0.316 0 0.316 0s-0.189-0.236-0.299-0.236-0.363-0.078-0.442-0.047c-0.075 0.030-0.264 0.001-0.419-0.043-0.029-0.022-0.053-0.041-0.077-0.059 0.188 0.008 0.378 0.014 0.448 0.007 0.157-0.015 0.473 0.015 0.473 0.015l0.174 0.047c0 0-0.002-0.049-0.026-0.105 0.011 0.001 0.023 0.002 0.035 0.003 0.029 0.007 0.058 0.014 0.071 0.024 0.075 0.056 0.555 0.191 1.005 0.297 0 0.001 0.004 0.002 0.004 0.002h0.004c0.3 0.071 0.584 0.129 0.721 0.142 0.346 0.032 1.323 0 1.323 0s-0.010-0.010-0.021-0.020c0.087-0.005 0.148-0.011 0.148-0.011s0.142-0.032 0.189 0.015c0.047 0.047-0.11-0.236-0.252-0.252s-0.268-0.032-0.394 0c-0.126 0.031-0.535-0.063-0.535-0.063v-0.073c0.047-0.005 0.093-0.009 0.148-0.015l0.933-0.049c0.068 0.008 0.157 0.007 0.241 0.003l0.254 0.022c0 0-0.031-0.189-0.189-0.221-0.053-0.011-0.114-0.019-0.174-0.026-0.075-0.056-0.153-0.11-0.221-0.132-0.132-0.044-0.75 0.064-1.169 0.124-0.056-0.023-0.118-0.049-0.171-0.061-0.126-0.031-0.788-0.063-0.835-0.078-0.043-0.014-0.492-0.166-0.801-0.45-0.296-0.549-0.816-1.538-0.838-1.74-0.032-0.284-0.316-2.727-0.316-2.727s0.284-0.236 0.536-0.52c0.252-0.283 1.198-1.828 1.355-1.86 0.157-0.031 2.207-1.135 2.396-1.292s2.080-1.891 2.080-1.891 2.616-1.355 2.962-1.765 2.415-3.011 0.914-7.375c-1.355-3.939-1.072-4.16-1.072-4.287 0.001-0.127 0.285-1.261 0.41-1.907zM17.41 29.997c-0.063 0.724-0.346 0.662-0.631 0.756s-0.63-0.126-0.63-0.252c0-0.127-0.945-1.797-1.072-2.049s-0.473-1.922-0.409-2.238c0.063-0.315 1.513-0.724 1.513-0.724 0 0.315 0.756 2.301 0.788 2.395s0.505 1.387 0.442 2.112z"></path>
</svg>
