<svg xmlns="http://www.w3.org/2000/svg" width="32" height="32" viewBox="0 0 32 32"><path d="M27.195 29.62c-.329-.246-.411-1.477-.411-1.805s.163-3.037.492-3.857c.328-.82.492-5.251.246-5.825s-3.61-6.319-3.692-6.974c-.081-.656-1.476-2.707-1.64-3.528-.163-.821-1.148-1.478-1.723-1.888s-1.314-.739-1.314-.739.411-1.805.165-2.626c-.246-.821-.575-1.313-.904-1.559-.326-.246-1.393.246-1.393.246s-1.15-1.067-3.037-1.067c-1.886 0-2.707 1.313-2.707 1.313S10.292.819 9.718.983c-.574.164-1.232.656-.903 1.231s1.067 1.149 1.149 1.887c.082.739 0 2.379 0 2.379s-1.886 3.611-2.051 4.267-2.38 4.184-2.38 4.184-1.314 1.64-1.395 2.38c-.082.738.329 3.118.329 4.103s.082 4.758 0 5.169c-.083.41.08 2.379.41 3.035s1.231.656 1.969.985c.739.329 1.723.41 2.134 0s.82-.739.739-1.067c-.082-.328-.411-.574-.656-.574s-.902-.165-.902-.492c0-.329.656-.985.656-.985s.904-.328 1.313-.328c.409 0 1.395.575 1.395.575s.328.82.739.82-.739.985-.574 1.477.165.657.739.657.902-.575 1.313-.41.165.491.656.574c.492.082 1.149-.163 1.149-.163s.738.246 1.313.081c.573-.164 1.558-.41 1.558-.41s1.314.409 1.724 0c.411-.41.575-.657.822-.739.246-.081.985.163 1.23.246s.822.739.822.739-.41 1.067.163 1.149c.575.082 1.067.247 1.805.247.739 0 1.395-.082 1.805-.41.411-.328.655-.492.738-.985s0-.739-.327-.985zM10.867 18.462c-.246 1.149-.246 2.954-.739 2.708s-2.133-.985-2.216-1.395.574-1.887.821-2.133c.246-.246 1.723-3.037 1.723-3.037 1.066 1.641.657 2.708.411 3.857z"/></svg>