<?xml version="1.0" encoding="utf-8"?>
<!-- Generated by IcoMoon.io -->
<!DOCTYPE svg PUBLIC "-//W3C//DTD SVG 1.1//EN" "http://www.w3.org/Graphics/SVG/1.1/DTD/svg11.dtd">
<svg version="1.1" xmlns="http://www.w3.org/2000/svg" xmlns:xlink="http://www.w3.org/1999/xlink" width="32" height="32" viewBox="0 0 32 32">
<path d="M27.195 29.62c-0.329-0.246-0.411-1.477-0.411-1.805s0.163-3.037 0.492-3.857c0.328-0.82 0.492-5.251 0.246-5.825s-3.61-6.319-3.692-6.974c-0.081-0.656-1.476-2.707-1.64-3.528-0.163-0.821-1.148-1.478-1.723-1.888s-1.314-0.739-1.314-0.739 0.411-1.805 0.165-2.626c-0.246-0.821-0.575-1.313-0.904-1.559-0.326-0.246-1.393 0.246-1.393 0.246s-1.15-1.067-3.037-1.067c-1.886 0-2.707 1.313-2.707 1.313s-0.985-0.492-1.559-0.328c-0.574 0.164-1.232 0.656-0.903 1.231s1.067 1.149 1.149 1.887c0.082 0.739 0 2.379 0 2.379s-1.886 3.611-2.051 4.267-2.38 4.184-2.38 4.184-1.314 1.64-1.395 2.38c-0.082 0.738 0.329 3.118 0.329 4.103s0.082 4.758 0 5.169c-0.083 0.41 0.080 2.379 0.41 3.035s1.231 0.656 1.969 0.985c0.739 0.329 1.723 0.41 2.134 0s0.82-0.739 0.739-1.067c-0.082-0.328-0.411-0.574-0.656-0.574s-0.902-0.165-0.902-0.492c0-0.329 0.656-0.985 0.656-0.985s0.904-0.328 1.313-0.328c0.409 0 1.395 0.575 1.395 0.575s0.328 0.82 0.739 0.82c0.411 0-0.739 0.985-0.574 1.477s0.165 0.657 0.739 0.657c0.574 0 0.902-0.575 1.313-0.41s0.165 0.491 0.656 0.574c0.492 0.082 1.149-0.163 1.149-0.163s0.738 0.246 1.313 0.081c0.573-0.164 1.558-0.41 1.558-0.41s1.314 0.409 1.724 0c0.411-0.41 0.575-0.657 0.822-0.739 0.246-0.081 0.985 0.163 1.23 0.246s0.822 0.739 0.822 0.739-0.41 1.067 0.163 1.149c0.575 0.082 1.067 0.247 1.805 0.247 0.739 0 1.395-0.082 1.805-0.41 0.411-0.328 0.655-0.492 0.738-0.985s0-0.739-0.327-0.985zM10.867 18.462c-0.246 1.149-0.246 2.954-0.739 2.708s-2.133-0.985-2.216-1.395 0.574-1.887 0.821-2.133c0.246-0.246 1.723-3.037 1.723-3.037 1.066 1.641 0.657 2.708 0.411 3.857z"></path>
</svg>
