<?xml version="1.0" encoding="utf-8"?>
<!-- Generated by IcoMoon.io -->
<!DOCTYPE svg PUBLIC "-//W3C//DTD SVG 1.1//EN" "http://www.w3.org/Graphics/SVG/1.1/DTD/svg11.dtd">
<svg version="1.1" xmlns="http://www.w3.org/2000/svg" xmlns:xlink="http://www.w3.org/1999/xlink" width="32" height="32" viewBox="0 0 32 32">
<path d="M29.571 28.459c-0.065-0.332-0.766-0.798-0.998-1.032-0.232-0.231-0.699-0.598-0.433-1.331 0.455-1.249 0.516-3.118-1.165-6.223-2.197-4.061-9.298-10.694-10.417-11.883-3.163-3.362-4.394-6.49-4.394-6.49-0.41 1.273-0.079 2.966 0.423 4.362-0.373-0.313-0.866-0.488-1.101-0.559-0.197-0.369-0.54-0.62-0.997-0.726-0.198-0.046-0.382-0.057-0.51-0.056-0.477-0.715-1.264-0.832-1.751-0.781-0.311-0.409-0.754-0.609-1.291-0.58-0.242 0.013-0.455 0.073-0.599 0.123-0.36-0.321-0.845-0.403-1.386-0.23-0.31 0.099-0.566 0.257-0.691 0.342v0c-0.534 0-0.965 0.258-1.221 0.733-0.144 0.264-0.198 0.531-0.217 0.663-0.509 0.688-0.461 1.263-0.327 1.626 0.084 0.232 0.212 0.406 0.31 0.515-0.12 0.44-0.036 0.901 0.247 1.343 0.135 0.209 0.287 0.372 0.394 0.474-0.197 0.949 0.266 1.563 0.521 1.818-0.046 0.279 0.089 0.621 0.403 1.020 0.168 0.214 0.351 0.399 0.46 0.504-0.031 0.742 0.533 1.19 0.957 1.379 0.113 0.883 0.831 1.329 1.163 1.489 0.064 0.363 0.345 0.876 0.743 1.182-2.336-0.746-4.382-0.296-4.382-0.296s1.625 0.566 2.262 1.031c2.097 1.531 3.962 3.428 8.254 8.088 4.295 4.659 8.388 4.625 9.32 4.56s1.83-0.233 1.931-0.267c0.1-0.034 1.010-0.353 1.33-0.166 0.4 0.232 1.498 1.397 1.498 1.397 0.599 0.167 1.731-1.696 1.664-2.029zM9.628 17.041c0.083-0.071 0.311-0.263 0.61-0.517 0.331 0.537 0.914 1.449 1.127 1.556 0.068 0.035 0.172 0.116 0.286 0.214-0.024 0.022-0.045 0.042-0.065 0.062-0.737-0.523-1.407-0.978-1.958-1.315zM15.35 14.964c-0.224 0.153-0.882 0.736-1.593 1.383-0.286-0.422-0.919-1.351-1.22-1.752 0.248-0.205 0.434-0.357 0.514-0.416 0.154-0.116 0.412-0.369 0.711-0.663 0.12-0.118 0.248-0.243 0.375-0.366 0.155 0.179 0.372 0.441 0.583 0.699 0.394 0.478 0.671 0.813 0.827 0.972-0.075 0.057-0.143 0.106-0.197 0.143zM12.739 13.857c-0.055 0.061-0.23 0.211-0.47 0.408-0.278-0.37-0.967-1.349-1.513-2.134 0.062-0.056 0.109-0.097 0.136-0.119 0.102-0.087 0.608-0.425 1.1-0.752 0.126-0.084 0.243-0.163 0.352-0.234 0.1 0.121 0.259 0.318 0.424 0.522 0.42 0.519 0.934 1.153 1.132 1.354-0.549 0.425-1.038 0.817-1.161 0.955zM10.155 12.125c-0.225 0.25-0.912 0.828-1.477 1.292-0.332-0.511-0.667-1.046-0.838-1.345 0.243-0.173 0.819-0.662 1.338-1.11 0.196 0.251 0.729 0.931 0.977 1.163zM10.424 12.426c0.197 0.271 0.492 0.716 0.745 1.097 0.375 0.568 0.594 0.895 0.718 1.051-0.266 0.214-0.562 0.45-0.845 0.674-0.28 0.223-0.509 0.405-0.698 0.557-0.073-0.096-0.156-0.198-0.238-0.299-0.14-0.171-0.284-0.349-0.326-0.433-0.079-0.158-0.624-0.955-0.876-1.322 0.429-0.356 1.074-0.928 1.52-1.325zM15.509 15.281c0.029-0.040 0.121-0.134 0.251-0.261 0.331 0.364 1.201 1.501 1.461 1.864-0.206 0.205-0.386 0.383-0.509 0.51-0.229 0.235-0.792 0.662-1.397 1.094-0.32-0.432-1.065-1.439-1.329-1.806 0.881-0.784 1.446-1.295 1.523-1.401zM12.173 14.899c0.182 0.242 0.46 0.64 0.682 0.958 0.291 0.416 0.461 0.657 0.566 0.797-0.578 0.529-1.153 1.064-1.526 1.413-0.319-0.44-1.052-1.478-1.287-1.854 0.494-0.418 1.084-0.913 1.565-1.314zM11.954 10.635c0.039 0.037 0.077 0.072 0.109 0.103-0.634 0.405-1.214 0.783-1.56 1.053l-1.013-1.098c0.080-0.071 0.159-0.137 0.23-0.199 0.219-0.191 0.393-0.341 0.438-0.376 0.065-0.053 0.347-0.296 0.666-0.573 0.167 0.172 0.497 0.49 1.13 1.090zM13.415 17.191c0.091-0.081 0.181-0.161 0.269-0.239 0.171 0.217 0.518 0.712 0.766 1.064 0.242 0.345 0.416 0.593 0.514 0.722-0.552 0.39-1.091 0.753-1.397 0.957-0.417-0.382-1.176-1.081-1.444-1.349 0.312-0.284 0.821-0.738 1.292-1.155zM6.037 7.282c0.055 0.091 0.179 0.293 0.321 0.502 0.223 0.329 0.364 0.495 0.454 0.581l-1.177 0.79-0.455-1.099c0.155-0.118 0.269-0.211 0.298-0.251 0.033-0.043 0.263-0.256 0.559-0.523zM5.763 9.397c0.347-0.276 0.888-0.682 1.205-0.918 0.183 0.117 0.565 0.545 0.804 0.828-0.454 0.312-1.049 0.726-1.43 1.015-0.172-0.293-0.444-0.716-0.579-0.925zM20.957 19.494c-0.061 0.025-0.108 0.108-0.265 0.394-0.206 0.376-0.516 0.942-0.894 1.321-0.285 0.285-0.878 0.675-1.413 1.002-0.315-0.392-1.076-1.324-1.346-1.638 0.269-0.242 0.483-0.44 0.529-0.493 0.129-0.15 1.050-1.052 1.060-1.061 0.031-0.030 0.033-0.081 0.005-0.113-0.028-0.033-0.078-0.038-0.113-0.012-0.026 0.019-0.651 0.493-1.006 0.826-0.121 0.113-0.392 0.345-0.696 0.602-0.288-0.338-0.937-1.126-1.325-1.598 0.698-0.514 1.338-0.991 1.427-1.081 0.054-0.052 0.25-0.241 0.511-0.488 0.152 0.167 0.411 0.429 0.746 0.767 0.261 0.265 0.506 0.512 0.585 0.604 0.021 0.026 0.044 0.051 0.084 0.051v0c0.034 0 0.064-0.020 0.077-0.049 0.025-0.056 0.027-0.062-0.556-0.864-0.105-0.145-0.409-0.559-0.611-0.815 0.494-0.467 1.078-1.016 1.379-1.299 1.046 1.387 1.955 2.6 2.444 3.304-0.312 0.34-0.566 0.605-0.622 0.64zM11.917 18.538c0.073 0.069 0.144 0.138 0.205 0.2-0.079-0.057-0.158-0.115-0.237-0.17 0.009-0.008 0.020-0.019 0.032-0.030zM16.746 20.837l1.473 1.473c-0.328 0.197-0.618 0.359-0.773 0.448-0.487-0.375-1.003-0.771-1.532-1.177 0.199-0.179 0.524-0.468 0.832-0.744zM18.91 15.25c-0.344 0.329-0.894 0.857-1.377 1.329-0.157-0.195-0.423-0.548-0.681-0.892-0.309-0.411-0.603-0.802-0.756-0.984 0.434-0.406 1.014-0.933 1.421-1.299 0.47 0.624 0.942 1.248 1.393 1.846zM17.414 13.265c-0.35 0.303-0.985 0.847-1.486 1.255-0.306-0.331-1.141-1.272-1.483-1.659 0.253-0.231 0.48-0.417 0.617-0.469 0.284-0.109 0.789-0.498 1.124-0.77 0.397 0.536 0.812 1.089 1.228 1.643zM3.288 5.058l0.049-0.063 0.006-0.079c0-0.002 0.026-0.285 0.171-0.547 0.176-0.318 0.443-0.461 0.814-0.439l0.1 0.005 0.079-0.061c0.039-0.031 1.006-0.765 1.563-0.105l0.135 0.159 0.187-0.092c0.002-0.002 0.268-0.13 0.589-0.145 0.396-0.017 0.688 0.14 0.896 0.478l0.1 0.163 0.187-0.042c0.010-0.002 0.974-0.212 1.438 0.633l0.087 0.158 0.179-0.021c0.002 0 0.235-0.025 0.502 0.037 0.338 0.080 0.568 0.259 0.685 0.535l0.052 0.123 0.129 0.032c0.265 0.066 1.003 0.327 1.229 0.736l0.022 0.039 0.646 0.584c0.113 0.229 0.224 0.435 0.331 0.612 0.464 0.772 1.434 2.125 2.56 3.646-0.219 0.109-0.47 0.244-0.608 0.347-0.284 0.213-0.721 0.542-1.162 0.88-0.113-0.166-0.405-0.591-0.714-1.016-0.346-0.478-0.565-0.754-0.709-0.916 0.331-0.225 0.502-0.351 0.538-0.396 0.098-0.13 0.724-0.888 0.73-0.896 0.027-0.034 0.025-0.083-0.007-0.113s-0.081-0.030-0.114-0.001c-0.006 0.006-0.7 0.632-1.058 0.893-0.074 0.054-0.224 0.151-0.41 0.271-0.192-0.091-0.83-0.606-1.432-1.131 0.414-0.36 0.815-0.711 0.847-0.74 0.034-0.028 0.039-0.079 0.011-0.113-0.027-0.036-0.077-0.042-0.114-0.017-0.038 0.027-0.474 0.335-0.954 0.683l-0.538-0.509c-0.032-0.029-0.081-0.030-0.112-0.001s-0.038 0.077-0.012 0.111l0.422 0.574c-0.487 0.355-0.957 0.71-1.051 0.82-0.041 0.048-0.167 0.156-0.339 0.295l-0.637-0.668c-0.030-0.031-0.078-0.034-0.111-0.008s-0.042 0.074-0.019 0.11l0.493 0.78c-0.193 0.153-0.41 0.321-0.615 0.481-0.299 0.233-0.541 0.421-0.717 0.562-0.084-0.093-0.237-0.232-0.495-0.461-0.194-0.172-0.444-0.394-0.572-0.535 0.342-0.268 0.947-0.797 1.389-1.19 0.007 0.002 0.014 0.003 0.020 0.003 0.016 0 0.033-0.005 0.046-0.014 0.028-0.019 0.040-0.050 0.037-0.080 0.243-0.217 0.418-0.374 0.439-0.394 0.034-0.029 0.038-0.078 0.010-0.113-0.026-0.034-0.075-0.043-0.111-0.018-0.058 0.039-0.227 0.153-0.452 0.306-0.17-0.305-0.511-0.881-0.716-1.035-0.181-0.135-0.636-0.728-0.919-1.114 0.511-0.451 1.096-0.948 1.249-1.032 0.019-0.007 0.032-0.012 0.039-0.015 0.069-0.026 0.060-0.088 0.059-0.095-0.008-0.039-0.041-0.068-0.082-0.068-0.014 0-0.023 0.003-0.034 0.007l-0.022 0.007c-0.010 0.004-0.019 0.007-0.029 0.012-0.211 0.083-0.72 0.3-0.972 0.578-0.066 0.072-0.186 0.186-0.403 0.368l-0.607-0.636c-0.030-0.032-0.079-0.035-0.112-0.008s-0.042 0.074-0.018 0.111l0.485 0.74c-0.215 0.171-0.495 0.386-0.854 0.654l-0.665-1.223c0.216-0.175 0.398-0.326 0.464-0.391 0.199-0.199 1.128-1.224 1.167-1.268 0.028-0.031 0.028-0.078 0.001-0.109-0.026-0.032-0.072-0.039-0.107-0.017-0.031 0.019-0.743 0.474-1.013 0.743-0.134 0.135-0.463 0.42-0.75 0.666-0.103-0.136-0.247-0.346-0.311-0.516-0.004-0.032-0.007-0.061-0.010-0.085-0.013-0.11-0.020-0.17-0.098-0.17-0.012 0-0.075 0.005-0.086 0.087-0.008 0.058 0.004 0.126 0.032 0.207 0.043 0.337 0.105 0.569 0.193 0.713-0.116 0.097-0.201 0.168-0.223 0.187l-0.309 0.174-0.015-0.012c-0.031-0.025-0.75-0.613 0.011-1.592zM3.289 7.271c0.092-0.071 0.437-0.34 0.777-0.61 0.059 0.149 0.116 0.345 0.169 0.528 0.111 0.379 0.197 0.653 0.303 0.81-0.211 0.149-0.461 0.323-0.634 0.444-0.047-0.038-0.65-0.535-0.615-1.172zM3.963 8.889c0.178-0.1 0.544-0.346 0.873-0.581 0.152 0.244 0.333 0.689 0.465 1.072l-0.7 0.469c-0.011 0.008-0.020 0.017-0.027 0.029l-0.195 0.348c-0.152-0.142-0.554-0.593-0.416-1.337zM4.79 11.258c-0.23-0.292-0.294-0.476-0.297-0.572 0.006-0.004 0.011-0.008 0.018-0.015s0.551-0.633 0.894-0.966c0.086 0.275 0.28 0.822 0.513 1.003-0.111 0.123-0.316 0.317-0.501 0.493-0.174 0.166-0.291 0.277-0.366 0.354-0.082-0.083-0.174-0.186-0.261-0.297zM5.692 12.789c-0.257-0.211-0.361-0.462-0.319-0.769l0.006-0.046c0.049-0.056 0.118-0.144 0.228-0.285 0.191-0.248 0.44-0.571 0.654-0.764 0.282 0.248 0.711 0.732 1.005 1.087-0.181 0.173-0.768 0.648-1.207 0.993-0.081-0.033-0.227-0.103-0.367-0.216zM6.312 13.355c0.093-0.062 0.261-0.207 0.625-0.529 0.177-0.156 0.366-0.323 0.536-0.466 0.231 0.411 0.613 1.071 0.834 1.358-0.261 0.211-0.444 0.357-0.451 0.362 0 0-0.001 0.001-0.003 0.002l-0.518 0.46-0.042-0.015c-0.008-0.002-0.902-0.327-0.981-1.172zM8.219 15.837l-0.062-0.031c-0.335-0.167-0.568-0.57-0.652-0.817 0.056-0.020 0.127-0.091 0.328-0.304 0.203-0.212 0.479-0.503 0.687-0.636 0.015-0.009 0.031-0.021 0.049-0.034 0.115 0.16 0.268 0.402 0.401 0.611 0.352 0.557 0.506 0.788 0.606 0.828 0.074 0.030 0.263 0.339 0.413 0.638-0.292 0.238-0.403 0.339-0.423 0.379-0.028 0.056-0.156 0.208-0.291 0.361-0.013-0.007-0.026-0.015-0.039-0.021-0.182-0.104-0.365-0.197-0.548-0.283l-0.469-0.691zM13.791 19.971c0.294-0.215 0.827-0.603 1.371-1.003 0.274 0.319 0.92 1.095 1.35 1.611-0.394 0.329-0.777 0.646-0.915 0.759-0.596-0.456-1.204-0.918-1.806-1.367zM21.242 28.659c1.729 0.2 3.275-0.969 3.275-0.969-3.861 0.135-6.291-2.562-6.291-2.562 4.229 2.631 5.734 1.864 6.162 1.751-0.131-0.463-0.19-0.874-0.205-0.986-0.514 0.184-1.639 0.339-3.432-0.662-0.152-0.085-0.475-0.313-0.918-0.646l0.411-0.457c0.121-0.077 1.204-0.771 1.369-0.938 0.17-0.168 0.941-1.293 0.975-1.343 0.023-0.035 0.018-0.084-0.017-0.11-0.033-0.028-0.083-0.024-0.112 0.007-0.005 0.006-0.471 0.501-1.092 1.025-0.512 0.431-1.677 1.157-2.079 1.405-0.417-0.318-0.901-0.689-1.427-1.094 0.633-0.439 1.999-1.384 2.177-1.512 0.262-0.186 1.069-1.482 1.191-1.728 0.056-0.113 0.277-0.43 0.51-0.75 2.403 3.578 2.726 5.819 2.768 6.453 0.115 0.749 0.349 1.44 0.427 1.917l0.115 0.562c-2.495 1.332-3.807 0.637-3.807 0.637z"></path>
</svg>
