<?xml version="1.0" encoding="utf-8"?>
<!-- Generated by IcoMoon.io -->
<!DOCTYPE svg PUBLIC "-//W3C//DTD SVG 1.1//EN" "http://www.w3.org/Graphics/SVG/1.1/DTD/svg11.dtd">
<svg version="1.1" xmlns="http://www.w3.org/2000/svg" xmlns:xlink="http://www.w3.org/1999/xlink" width="32" height="32" viewBox="0 0 32 32">
<path d="M31.997 2.661c-0.119-0.593-4.624-2.134-4.624-2.134s-3.911-1.186-6.045 0c-2.134 1.185-4.268 3.556-4.86 4.86-0.593 1.304-1.304 3.912-1.304 3.912s-2.727 3.201-3.675 4.623c-0.948 1.423-2.963 3.319-2.963 3.319s-1.778 2.371-2.845 3.793c-0.771 1.028-1.965 3.275-2.574 4.453-0.731 1.217-1.382 2.299-1.635 2.719-0.711 1.186-1.34 2.461-1.458 2.936s1.186-0.118 1.778-0.475c0.555-0.333 3.042-1.459 5.25-3.792l2.708 0.375 1.792 1.375 0.875 1.25-0.611 0.351-1.031 0.418c-0.267 0.067-0.513 0.089-0.649-0.007-0.504-0.359-1.008 0.533-1.186 0.889s0.119 0.474 0.119 0.474 0-0.297 0.534-0.415c0.533-0.118 0.771-0.415 1.363-0.415 0.593 0 1.304 0 1.304 0 1.573 0.157 3.082 0 3.082 0l3.083 0.237 0.474 0.474c0 0 0.060-1.066-0.296-1.126-0.157-0.025-0.316 0.002-0.474 0.033-0.144-0.174-0.392-0.465-0.594-0.626-0.296-0.237-1.126 0.060-1.126 0.060l-0.012 0.074c-0.541-0.159-1.18-0.269-1.944-0.252-0.948 0.021-1.067-1.186-1.067-1.186l0.474-0.83c0 0 1.542 0 1.897 0.119 0.355 0.118 2.015-0.119 2.845 0.236 0.829 0.356 2.963 1.363 2.963 1.363l0.475 0.771-0.869 0.464c-0.094 0-0.199-0.010-0.316-0.049-0.355-0.118-0.652 0-0.948 0.415-0.283 0.396 0.355 0.198 0.981 0.078 0.808-0.054 2.181-0.138 2.753-0.138 0.829 0 3.26-0.118 3.733 0 0.229 0.058 0.716 0.045 1.162 0.019 0.324 0.084 0.672 0.16 0.854 0.16 0.355 0 1.304-0.060 1.363 0.118s0.118-0.533-0.415-0.593-1.126 0-1.126 0l-0.849-0.396 0.215-0.007 1.049 0.048c0 0-0.712-0.593-1.186-0.533-0.252 0.031-0.515 0.079-0.756 0.126-0.87-0.195-2.156-0.395-3.749-0.363-0.721 0.015-1.655-0.843-1.956-1.067-0.948-0.711-1.244-1.481-1.244-1.481s-0.475-1.186-0.237-1.778 1.423-1.481 1.423-1.481l2.667-1.838c0 0 2.43-1.837 3.142-5.69 0.279-1.515 0.118-4.86 0-5.571-0.119-0.711-0.603-3.505-0.146-4.75 0.263-0.717 0.704-0.63 1.25-1.5-0.002-0.002 3.245-1.632 3.162-2.049zM25.477 3.609c-0.393 0-0.711-0.345-0.711-0.771s0.318-0.771 0.711-0.771 0.712 0.344 0.712 0.771c-0.001 0.426-0.32 0.771-0.712 0.771z"></path>
</svg>
