<svg xmlns="http://www.w3.org/2000/svg" width="32" height="32" viewBox="0 0 32 32"><path d="M31.997 2.661c-.119-.593-4.624-2.134-4.624-2.134s-3.911-1.186-6.045 0c-2.134 1.185-4.268 3.556-4.86 4.86-.593 1.304-1.304 3.912-1.304 3.912s-2.727 3.201-3.675 4.623c-.948 1.423-2.963 3.319-2.963 3.319l-2.845 3.793c-.771 1.028-1.965 3.275-2.574 4.453l-1.635 2.719C.761 29.392.132 30.667.014 31.142s1.186-.118 1.778-.475c.555-.333 3.042-1.459 5.25-3.792l2.708.375 1.792 1.375.875 1.25-.611.351-1.031.418c-.267.067-.513.089-.649-.007-.504-.359-1.008.533-1.186.889s.119.474.119.474 0-.297.534-.415c.533-.118.771-.415 1.363-.415h1.304c1.573.157 3.082 0 3.082 0l3.083.237.474.474s.06-1.066-.296-1.126a1.36 1.36 0 0 0-.474.033c-.144-.174-.392-.465-.594-.626-.296-.237-1.126.06-1.126.06l-.012.074a6.305 6.305 0 0 0-1.944-.252c-.948.021-1.067-1.186-1.067-1.186l.474-.83s1.542 0 1.897.119c.355.118 2.015-.119 2.845.236.829.356 2.963 1.363 2.963 1.363l.475.771-.869.464a.976.976 0 0 1-.316-.049c-.355-.118-.652 0-.948.415-.283.396.355.198.981.078.808-.054 2.181-.138 2.753-.138.829 0 3.26-.118 3.733 0 .229.058.716.045 1.162.019.324.084.672.16.854.16.355 0 1.304-.06 1.363.118s.118-.533-.415-.593-1.126 0-1.126 0l-.849-.396.215-.007 1.049.048s-.712-.593-1.186-.533c-.252.031-.515.079-.756.126a15.745 15.745 0 0 0-3.749-.363c-.721.015-1.655-.843-1.956-1.067-.948-.711-1.244-1.481-1.244-1.481s-.475-1.186-.237-1.778 1.423-1.481 1.423-1.481l2.667-1.838s2.43-1.837 3.142-5.69c.279-1.515.118-4.86 0-5.571-.119-.711-.603-3.505-.146-4.75.263-.717.704-.63 1.25-1.5-.002-.002 3.245-1.632 3.162-2.049zm-6.52.948c-.393 0-.711-.345-.711-.771s.318-.771.711-.771.712.344.712.771c-.001.426-.32.771-.712.771z"/></svg>