<?xml version="1.0" encoding="utf-8"?>
<!-- Generated by IcoMoon.io -->
<!DOCTYPE svg PUBLIC "-//W3C//DTD SVG 1.1//EN" "http://www.w3.org/Graphics/SVG/1.1/DTD/svg11.dtd">
<svg version="1.1" xmlns="http://www.w3.org/2000/svg" xmlns:xlink="http://www.w3.org/1999/xlink" width="32" height="32" viewBox="0 0 32 32">
<path d="M28.042 19.354c-0.242-0.222-0.46-0.421-0.638-0.593-0.716-0.695-2.673-2.248-4.495-3.661 0.113 0 0.559-0.005 0.78-0.042 0.254-0.042 0.976-0.807 1.103-1.104s0.68-0.424 0.849-0.551c0.17-0.127 0.128-0.467-0.339-0.255s-1.74 1.188-1.952 1.315c-0.155 0.093-0.809 0.041-1.182 0.063-0.939-0.724-1.775-1.36-2.318-1.771 0.011-0.149 0.021-0.309 0.021-0.371 0-0.127 0.128-1.358 0.128-1.358s0.382-0.509 0.721-0.594c0.34-0.085 0.425-0.552 0.637-1.146s0.085-1.061 0.255-1.357c0.17-0.297 0-1.019 0-1.019s0.339-0.189 0.552-0.636c0.806-1.697 2.291-3.013 2.63-3.352 0.34-0.339 0.085-0.509-0.254-0.382s-2.971 3.14-3.056 3.352c-0.084 0.212-0.424 0.551-0.509 1.018s-0.594 2.079-0.637 2.249c-0.042 0.169-0.81 0.424-0.81 0.424s0-0.171-0.014-0.42c0.066-0.088 0.144-0.24 0.234-0.492 0.382-1.061-0.892-1.973-1.104-2.206-0.106-0.118-0.364-0.197-0.593-0.248 0.216-0.145 0.542-0.38 0.758-0.623 0.34-0.382 0.467-0.636 0.637-0.933s-0.297-0.467-0.297-0.467-0.807 0.806-0.807 1.23c0 0.312-0.435 0.554-0.665 0.661-0.131-0.081-0.322-0.187-0.522-0.237-0.34-0.085-1.099 0.069-1.099 0.069-0.039 0.010-0.061 0.023-0.094 0.035-0.032-0.011-0.055-0.025-0.094-0.035 0 0-0.684-0.154-1.023-0.069-0.201 0.050-0.392 0.156-0.523 0.237-0.229-0.107-0.664-0.349-0.664-0.661 0-0.424-0.807-1.23-0.807-1.23s-0.467 0.169-0.297 0.467c0.17 0.297 0.297 0.551 0.637 0.933 0.219 0.246 0.551 0.485 0.766 0.628-0.223 0.051-0.466 0.129-0.568 0.242-0.212 0.233-1.485 1.146-1.104 2.206 0.080 0.221 0.148 0.364 0.208 0.455-0.011 0.245-0.010 0.415-0.010 0.415s-0.777-0.212-0.82-0.382c-0.042-0.17-0.551-1.782-0.636-2.249s-0.425-0.806-0.51-1.018c-0.085-0.212-2.715-3.225-3.055-3.352s-0.594 0.042-0.255 0.382c0.34 0.339 1.825 1.655 2.631 3.352 0.212 0.447 0.552 0.636 0.552 0.636s-0.17 0.721 0 1.019c0.17 0.297 0.042 0.764 0.255 1.357 0.212 0.594 0.297 1.061 0.636 1.146 0.34 0.084 0.722 0.594 0.722 0.594s0.127 1.23 0.127 1.358c0 0.062 0.011 0.221 0.021 0.371-0.543 0.412-1.379 1.047-2.318 1.771-0.373-0.022-1.025 0.030-1.181-0.063-0.213-0.127-1.485-1.103-1.952-1.315s-0.509 0.127-0.34 0.255c0.17 0.127 0.722 0.254 0.849 0.551s0.849 1.061 1.104 1.104c0.222 0.037 0.666 0.042 0.779 0.042-1.821 1.413-3.778 2.965-4.495 3.661-0.178 0.172-0.396 0.371-0.637 0.593-1.802 1.649-4.818 4.411-3.727 7.117 0.414 1.027 1.043 1.697 1.871 1.99 0.317 0.111 0.663 0.169 1.037 0.169 0.986 0 2.174-0.393 3.598-1.183 1.245-0.691 2.895-2.064 4.232-3.482-0.159 0.354-0.321 0.738-0.409 1.021-0.212 0.679-0.637 2.079-0.807 2.291-0.17 0.213-1.061 1.91-1.188 2.079-0.128 0.17 0.105 0.413 0.254 0.17 0.807-1.315 1.443-1.654 1.57-2.121s0.552-1.782 0.552-1.782 0.509-0.552 0.679-0.934c0.142-0.317 0.254-1.332 0.458-2.009 0.296-0.378 0.555-0.745 0.757-1.088 0.137 0.488 0.458 1.554 0.779 2.036 0.425 0.637 1.23 1.569 1.74 1.654 0.26 0.044 1.030 0.044 1.29 0 0.51-0.085 1.315-1.018 1.74-1.654 0.32-0.482 0.642-1.548 0.778-2.036 0.202 0.343 0.462 0.71 0.757 1.088 0.204 0.677 0.317 1.691 0.459 2.009 0.17 0.382 0.679 0.934 0.679 0.934s0.424 1.315 0.552 1.782c0.127 0.467 0.764 0.806 1.569 2.121 0.148 0.243 0.382 0 0.255-0.17-0.127-0.169-1.019-1.866-1.188-2.079-0.17-0.212-0.595-1.612-0.807-2.291-0.089-0.283-0.251-0.667-0.41-1.021 1.338 1.418 2.987 2.791 4.233 3.482 1.423 0.79 2.611 1.183 3.597 1.183 0.375 0 0.72-0.058 1.038-0.169 0.827-0.293 1.456-0.963 1.87-1.99 1.091-2.704-1.925-5.466-3.726-7.116zM26.641 19.119c0.182 0.178 0.404 0.381 0.651 0.607 1.4 1.282 4.233 3.382 4.369 5.36-0.329-0.366-0.952-1.055-1.228-1.33-0.382-0.382-1.867-1.527-2.885-2.249-0.884-0.625-7.315-6.895-9.009-8.551 0.086-0.063 0.18-0.11 0.281-0.128 0.134 0.098 6.416 4.929 7.821 6.291zM18.542 20.043c0.068 0.239 0.139 0.464 0.211 0.673-0.303 0.206-1.055 0.675-1.683 0.708-0.174 0.009-0.328 0.009-0.469 0.006-0.17-0.071-0.398-0.091-0.398-0.091s-0.070 0.019-0.203 0.039c-0.132-0.021-0.203-0.039-0.203-0.039s-0.228 0.020-0.398 0.091c-0.141 0.003-0.295 0.003-0.468-0.006-0.629-0.033-1.381-0.502-1.684-0.708 0.072-0.209 0.144-0.434 0.211-0.673 0.565 0.12 2.107 0.113 2.542 0.108 0.435 0.005 1.977 0.012 2.542-0.108zM12.873 9.022c0.228-0.131 1.084-0.637 1.194-0.858 0.099-0.198 0.883-0.93 0.736-1.537 0.474-0.168 0.851-0.153 0.892-0.151 0.050 0.072 0.172 0.087 0.268 0.054 0.096 0.033 0.218 0.018 0.268-0.054 0.044-0.002 0.47-0.019 0.992 0.179-0.117 0.601 0.646 1.315 0.743 1.509 0.105 0.21 0.889 0.679 1.155 0.835 0.043 0.158 0.171 0.331 0.113 0.501-0.344 1.004-6.058 1.373-6.468 0-0.049-0.165 0.068-0.326 0.107-0.478zM4.437 19.925c0.247-0.227 0.469-0.43 0.651-0.607 1.403-1.362 7.958-6.391 8.091-6.488 0.096 0.018 0.185 0.057 0.268 0.114-1.604 1.566-8.174 7.975-9.066 8.607-1.019 0.722-2.504 1.867-2.886 2.249-0.255 0.256-0.81 0.867-1.152 1.247 0.16-1.967 2.702-3.849 4.094-5.122zM0.504 26.218c-0.104-0.257-0.154-0.521-0.17-0.786 0.373-0.436 1.168-1.345 1.457-1.505 0.382-0.212 2.334-1.824 2.843-2.206s2.758-2.674 3.013-2.716 0.637 0.976 0.425 1.442c-0.213 0.467-1.062 1.315-1.358 1.655-0.297 0.339-2.631 2.164-3.055 2.546s-1.655 1.569-1.867 1.866c-0.13 0.183-0.372 0.539-0.539 0.789-0.319-0.332-0.599-0.712-0.749-1.085zM12.384 19.98c-0.591 1.656-3.168 5.489-5.459 6.762-0.485 0.27-0.935 0.484-1.354 0.654 0.201-0.262 0.253-0.289 0.379-0.415 0.17-0.169 1.909-2.164 2.037-2.418 0.125-0.252 1.688-1.694 1.936-2.223-0.579 0.607-1.812 1.913-2.021 2.053-0.255 0.17-1.824 1.952-2.164 2.376-0.254 0.317-0.927 0.721-1.301 1.075-0.723 0.186-1.333 0.193-1.838 0.015-0.305-0.107-0.793-0.026-1.15-0.359 0.1-0.27 0.294-0.694 0.598-0.942 0.467-0.382 1.654-1.824 1.994-1.994s2.419-2.037 2.885-2.376c0.467-0.34 1.23-1.146 1.358-1.528s0.382-1.188 0.212-1.399c-0.17-0.213-0.382-0.255-0.085-0.764 0.297-0.51 1.952-2.292 2.122-2.334 0.169-0.043 0.169 0.212 0.254 0.637 0.085 0.424-0.297 1.018-0.467 1.442s-0.976 1.909-1.23 2.206-1.061 1.485-1.527 1.952-1.824 1.697-2.079 2.036c-0.254 0.34 0 0.128 0.17 0.085s0.212-0.127 0.679-0.552c0.467-0.424 1.104-1.188 1.442-1.527 0.34-0.339 1.443-1.739 1.655-2.036s1.188-1.909 1.357-2.461c0.17-0.552 0.425-0.977 0.34-1.315-0.085-0.34-0.17-0.722 0.085-0.934 0.254-0.212 1.442-1.612 1.909-1.994 0.206-0.169 0.385-0.369 0.523-0.542 0.377 0.622 0.141 1.274 0.099 1.688-0.020 0.199-0.037 0.422-0.045 0.617-0.143 1.031-0.776 3.011-1.314 4.515zM17.409 23.205c-0.263 0.237-0.817 0.164-1.203 0.074h-0.411c-0.386 0.090-0.94 0.163-1.204-0.074-0.303-0.272-1.42-1.781-1.555-1.98 0.070-0.142 0.066-0.090 0.070-0.099 0 0 1.485 1.612 2.894 1.063 1.409 0.549 2.895-1.063 2.895-1.063 0.003 0.009-0.001-0.043 0.069 0.099-0.134 0.199-1.252 1.708-1.555 1.98zM29.271 28.071c-0.536 0.097-1.269-0.030-2.008-0.227-0.356-0.337-0.81-0.788-1.073-1.117-0.339-0.425-1.909-2.207-2.164-2.376-0.209-0.14-1.441-1.445-2.021-2.053 0.247 0.528 1.811 1.971 1.936 2.222 0.128 0.255 1.867 2.249 2.037 2.419 0.129 0.13 0.103 0.141 0.296 0.393-0.404-0.167-0.835-0.376-1.299-0.634-2.29-1.271-4.758-4.92-5.349-6.575-0.538-1.506-1.181-3.627-1.323-4.659-0.009-0.195-0.025-0.418-0.046-0.617-0.041-0.406-0.269-1.046 0.084-1.659 0.129 0.155 0.288 0.325 0.466 0.471 0.467 0.382 1.655 1.782 1.909 1.995 0.255 0.212 0.17 0.594 0.085 0.933-0.085 0.34 0.17 0.764 0.34 1.315s1.146 2.164 1.357 2.461 1.315 1.697 1.655 2.037c0.339 0.339 0.976 1.104 1.442 1.527 0.467 0.425 0.509 0.509 0.679 0.552s0.425 0.255 0.17-0.085-1.612-1.57-2.079-2.037-1.273-1.654-1.527-1.951c-0.255-0.297-1.061-1.782-1.23-2.207-0.17-0.424-0.552-1.018-0.467-1.442s0.085-0.679 0.255-0.637c0.169 0.043 1.824 1.825 2.121 2.334 0.297 0.51 0.085 0.552-0.085 0.764s0.085 1.019 0.212 1.4c0.128 0.382 0.892 1.188 1.358 1.527s2.546 2.207 2.885 2.376c0.34 0.17 1.527 1.612 1.994 1.994 0.337 0.276 0.539 0.769 0.627 1.024-0.344 0.314-0.925 0.476-1.237 0.532zM30.722 27.331c-0.165-0.247-0.441-0.657-0.585-0.858-0.212-0.297-1.442-1.485-1.867-1.867-0.424-0.382-2.758-2.206-3.055-2.546-0.297-0.339-1.146-1.188-1.357-1.654-0.213-0.467 0.169-1.485 0.424-1.442s2.503 2.333 3.013 2.715c0.509 0.382 2.461 1.994 2.843 2.207 0.311 0.172 1.198 1.201 1.524 1.585-0.019 0.253-0.066 0.503-0.165 0.748-0.156 0.382-0.446 0.773-0.775 1.112zM9.938 22.314c-0.002 0.007-0.012 0.019-0.016 0.026 0.127-0.134 0.225-0.235 0.271-0.281 0.254-0.253-0.043-0.253-0.255 0.255zM21.735 22.018c0.046 0.046 0.143 0.147 0.271 0.281-0.003-0.008-0.013-0.020-0.016-0.026-0.212-0.51-0.51-0.51-0.255-0.255z"></path>
</svg>
