<svg xmlns="http://www.w3.org/2000/svg" width="32" height="32" viewBox="0 0 32 32"><path d="M24.418 16.605s-2.404-.583-3.06-.656c-.681-.076-2.418-.364-3.935-.364-1.53 0-4.59-.292-5.902 0s-5.537-.219-5.537-.219 4.153 1.02 4.809.947c.911 1.056 1.712 4.408 1.712 4.408.092-1.19-.583-3.68-.805-4.46.73-.025 1.741-.04 2.876-.076l-.104 8.143.619-8.161c1.322-.049 2.741.132 3.863.279-.748 1.531-.657 6.789-.657 6.789s.328-3.716.983-5.137c.365-.79.83-1.241 1.172-1.487 1.173.062 3.965-.007 3.965-.007zm6.209-8.938C28.726 2.899 24.249.363 17.32.128a8.293 8.293 0 0 1-.49-.024L16.808.1c-.026-.004-.649-.101-1.657-.101-1.613 0-4.083.244-6.688 1.405C3.505 3.614 1.464 7.651.688 9.861.086 11.577.35 13.155.677 14.177c.386 1.206 1.023 2.148 1.483 2.546 1.042.903 4.23 1.141 4.261 1.143.565.041 1.312.15 1.548.185.847.399 1.679.972 1.768 1.223.294.824.814 3.086.676 5.753-.019.378-.133.947-.254 1.549-.338 1.687-.688 3.431.2 4.16 1.202.986 3.777 1.337 5.787 1.337.987 0 4.298-.101 5.435-1.4.526-.6.298-1.927-.449-4.867-.179-.706-.349-1.373-.379-1.665-.173-1.688-.031-3.205.081-3.615a.46.46 0 0 1 .023-.015c.232-.149.62-.399.7-.875a.683.683 0 0 1 .555-.51c.055-.009.165-.019.378-.019.249 0 .56.014.861.027.318.014.647.028.931.028.491 0 .758-.043.95-.152.271-.149 2.185-.682 2.768-.799.328-.066 1.864-.722 2.848-2.535 1.136-2.094 1.061-4.789-.223-8.01zm-.38 7.481c-.744 1.471-2.281 2.362-2.623 2.405-.965.121-2.367.214-2.901.491a2.358 2.358 0 0 1-.439.026c-.259 0-.576-.014-.883-.027a21.581 21.581 0 0 0-.909-.028c-.233 0-.405.01-.544.032-.913.141-1.371.898-1.463 1.387-.037.043-.149.115-.217.159a2.724 2.724 0 0 0-.182.124c-.674.506-.235 3.76-.155 4.538.038.372.201 1.013.407 1.823.26 1.024.779 3.447.583 3.935-.158.171-.447.352-.825.523-.15-.35-.552-1.397-.814-3.146-.292-1.95-.15 2.272.039 3.44-.58.185-1.263.338-1.992.423l-1.326-2.551.109 2.623c-1.201 0-2.406-.147-3.392-.383-.019-.864-.106-4.868-.106-3.989 0 .984-.765 3.716-.765 3.716l.137.068c-.519-.17-.935-.366-1.193-.578-.381-.313.346-3.363.527-4.268.129-.642.251-1.249.274-1.707.147-2.833-.483-4.314-.826-5.275-.306-.858-1.922-1.656-2.41-1.88l-.069-.032-.074-.012c-.04-.006-.992-.156-1.715-.208-.992-.071-3.073-.402-3.624-.879-.533-.461-2.439-3.053-1.483-5.778.717-2.044 2.931-5.674 7.514-7.717C11.336 1.32 14.002.812 15.509.812c.862 0 1.416.077 1.48.086.124.023.294.029.651.041 6.455.218 10.245 2.804 11.97 7.131 1.129 2.833 1.536 5.293.635 7.076z"/></svg>