<svg xmlns="http://www.w3.org/2000/svg" width="32" height="32" viewBox="0 0 32 32"><path d="M23.253 13.173c.32.533.587 1.12 1.067 1.547.16.16.267.427.427.587.16.213.107.32-.053.267.107.373.267.8.373 1.173 0 .053.053.16-.053.213a.4.4 0 0 1-.213-.107c-.053-.107-.107-.213-.107-.267l.16.64c0 .053.053.16-.053.213-.107 0-.16-.053-.213-.16-.107-.213-.213-.48-.32-.747.053.267.107.48.16.693 0 .053 0 .16-.053.16-.16.053-.267-.267-.267-.32-.107-.267-.16-.533-.267-.8 0 .213.053.427.053.64 0 .053 0 .16-.053.16s-.107-.053-.16-.107c-.053-.107-.053-.213-.107-.32-.16-.48-.32-1.013-.48-1.493-.053-.213-.053-.48-.16-.64-.373-.533-.853-1.067-1.227-1.6-.267-.32-.533-.587-.747-.907l-.16-.107c-.16-.213-.267-.533-.427-.747-.213-.373-.48-.693-.693-1.067-.267-.48-.48-.907-.693-1.387-.053-.053-.053-.16-.107-.267-.16.96-.373 1.92-.533 2.827-.107.533 0 1.067.053 1.547.053.747.32 1.493.32 2.24 0 .693.053 1.44.107 2.133.053.533 0 1.067-.107 1.547-.16.853-.373 1.707-.533 2.613-.16.853-.16 1.76.053 2.613.16.64.053 1.227-.053 1.867-.213.907-.427 1.76-.533 2.667a2.946 2.946 0 0 0 .16 1.653c.107.213.32.373.48.587.053.107.107.213.107.32a.407.407 0 0 1-.213.107h-.8c-.107 0-.213-.053-.32-.107-.16-.107-.32-.213-.427-.373-.053-.107-.053-.267-.053-.373 0-.267 0-.533.053-.747 0-.16.053-.373.053-.533 0-.587 0-1.173-.053-1.76-.053-.747-.32-1.493-.267-2.24.053-.427.107-.853.107-1.28 0-.32-.107-.64-.16-.907s-.107-.533-.107-.853c0-.64 0-1.227-.053-1.867l-.16-2.4c0-.267 0-.533.053-.8 0-.16.053-.213-.107-.213v1.547c-.053.533-.107 1.12-.16 1.653-.053.373-.107.747-.107 1.12 0 .8-.053 1.547-.267 2.293-.107.267-.053.64 0 .96.107.747.107 1.44-.053 2.187-.107.373-.107.747-.16 1.12-.053.267-.053.48-.107.747 0 .213.053.48.053.693v.64c0 .16.053.373.053.533 0 .107 0 .32-.053.373-.213.16-.427.373-.64.48-.16.053-.373 0-.533 0h-.427c-.053 0-.16-.053-.16-.053 0-.107 0-.213.053-.267l.32-.32c.267-.267.427-.533.373-.907 0-.16 0-.32.053-.427.107-.427 0-.853-.053-1.28-.16-.853-.373-1.653-.48-2.507-.107-.587 0-1.173.107-1.76.053-.213.053-.427.107-.64.053-.96-.107-1.867-.32-2.827a22.519 22.519 0 0 1-.267-1.707c-.053-.32-.053-.64-.053-.96.053-.587.107-1.227.16-1.813v-.267c0-.533.053-1.067.213-1.6.107-.373.107-.747.16-1.12 0-.213.053-.427.053-.64-.053-.533-.107-1.067-.213-1.6s-.213-1.067-.32-1.653c0-.053-.053-.16-.053-.16-.213.48-.48.96-.747 1.44-.267.427-.587.853-.853 1.28-.213.32-.32.64-.533.907-.213.32-.48.587-.747.907-.427.533-.853 1.013-1.227 1.6-.107.16-.053.427-.16.64-.16.48-.32 1.013-.48 1.493-.053.107-.053.213-.107.32 0 .053-.107.16-.16.107-.053 0-.053-.107-.053-.16 0-.213.053-.427.053-.64-.107.267-.16.533-.267.8 0 .053-.107.32-.267.32-.053 0-.053-.107-.053-.16.053-.213.107-.427.16-.693-.107.267-.213.533-.32.747-.053.053-.107.16-.213.16-.107-.053-.053-.16-.053-.213l.16-.64c-.053.107-.053.213-.107.267s-.107.16-.213.107c-.107-.053-.053-.16-.053-.213.107-.373.267-.8.373-1.173-.213 0-.213-.053-.053-.267s.213-.48.427-.587c.533-.427.8-1.013 1.067-1.547s.48-1.067.8-1.6c.213-.373.533-.747.8-1.12.16-.267.373-.533.533-.8.48-.8.853-1.653 1.173-2.507.267-.747.8-1.227 1.6-1.44.48-.107.96-.373 1.333-.64a1.1 1.1 0 0 0 .213-.32v-.48c0-.053-.053-.16-.053-.213-.053-.16-.107-.373-.16-.533h-.053c-.213-.107-.427-.8-.32-.96.053-.053.107-.053.213-.107-.053-.373-.053-.8.16-1.173.213-.32.533-.48.907-.533h.16c.16 0 .32 0 .427.053.32.053.587.213.8.533.213.373.267.8.16 1.173.107.053.213.053.213.107.107.16-.107.853-.32.96h-.053c-.053.213-.107.373-.16.533-.16.427-.053.907.32 1.12.427.213.8.48 1.28.587.853.267 1.333.8 1.6 1.6.32 1.013.8 1.973 1.387 2.88.16.267.427.427.64.8.053.267.48 1.173.853 1.92z"/></svg>