<svg xmlns="http://www.w3.org/2000/svg" width="32" height="32" viewBox="0 0 32 32"><path d="M30.983 19.696c-.035-.417-.765-2.919-1.564-3.927s-.452-2.259-.591-2.641c-.139-.382-1.355-3.649-1.877-4.309s-2.085-2.641-4.17-2.919-1.355-.487-1.355-.487l-.626-.035v-.209l-.938.243-.278-.139s-.973.382-1.112.452-1.008.174-1.008.174-.625-.278-.764-.278-.904-.035-.904-.035-.104-.452-.278-.452-1.182.417-1.39 1.077c0 0-2.884 1.147-3.892 2.919s-1.703 3.406-1.911 3.753c-.209.348-.799 1.147-.73 1.599.07.452.243.973.521.904s.521.104.521.104.973.556 1.286.521c.313-.035.799-.07.799-.07s1.043.938 1.46 1.008c.417.07.938.035.938.035s.869.869 1.425.869h1.529l1.251.417s.591.521.834.452.521-.174.521-.174l1.077.938s-1.772-.382-2.05-.452-1.39-.417-1.599-.417c-.209 0-.66-.382-.973-.382s-1.008.035-1.112.174c-.104.139-.278.313-.278.313s-.172.278-.033.348c.139.07.626-.035.626-.035s-.487.104-.417.313c.07.209.313.487.521.487s.765.07.765.07.173-.195.349-.294a.444.444 0 0 1 .137-.053c.209-.035.765-.07.765-.07l-.87.312s-.209.104-.174.278.209.417.487.348l.973-.243.521-.104s1.738.243 2.085.382 1.46.382 1.703.278.591-.348.591-.348.626-.035.799-.209.278-.487.278-.487 1.251-.799 1.39-.869c.139-.07 2.016-.348 2.259-.521s1.494-.799 1.494-.799l.382-.174s1.842 2.016 1.043 3.336c-.799 1.321-3.753 3.475-7.02 3.44s-6.881-1.494-8.966-2.884c-2.085-1.39-3.232-2.745-3.232-2.745l-.104.278-.938-1.112v.243l-1.425-.904.104.278-1.633-.938v.278s-1.494-1.077-2.398-1.251-1.842-.243-1.842-.243l-.904-.348s-.139.104 0 .278 1.46 1.147 1.738 1.321c.278.174 3.058 1.564 3.51 1.668s3.128 1.703 3.406 1.981 2.641 2.016 4.761 3.197 6.186 3.371 11.538 1.703 5.004-4.795 4.969-5.212zM12.6 13.093c-.695.035-.904-.591-1.043-.765 0 0 .452-.313.869-.313s1.147.313 1.147.313-.278.73-.973.765z"/></svg>