<?xml version="1.0" encoding="utf-8"?>
<!-- Generated by IcoMoon.io -->
<!DOCTYPE svg PUBLIC "-//W3C//DTD SVG 1.1//EN" "http://www.w3.org/Graphics/SVG/1.1/DTD/svg11.dtd">
<svg version="1.1" xmlns="http://www.w3.org/2000/svg" xmlns:xlink="http://www.w3.org/1999/xlink" width="32" height="32" viewBox="0 0 32 32">
<path d="M19.815 2.795c0.101-0.531 0.787-1.015 1.053-0.858s0.537 0.685 0.381 1.111c-0.155 0.426-0.908-0.682-0.908-0.682l0.271 0.687 0.808 1.425c0 0-0.635 0.218-0.952 0.274-0.318 0.056-0.896 0.644-0.896 0.644s-0.369 0.215-0.847 0.167c-0.478-0.049-0.737 0.59-0.737 0.59l-0.425-0.103c0 0-0.061-0.901-0.115-1.060s0.259-0.745 0.203-1.010c-0.055-0.265 0.579-0.536 0.736-0.696 0.158-0.161 0.892-1.069 0.892-1.069s0.102-0.425-0.164-0.582c-0.267-0.157-0.313 0.586-0.313 0.586l-0.577 0.695-0.631 0.589-0.528 0.323c0 0-0.271-0.634-0.644-0.896-0.374-0.262-0.797-0.099-0.797-0.099s-0.423-0.163-0.797 0.099c-0.374 0.262-0.644 0.896-0.644 0.896l-0.528-0.323-0.631-0.589-0.577-0.694c0 0-0.046-0.743-0.313-0.586s-0.164 0.582-0.164 0.582 0.735 0.908 0.892 1.069c0.158 0.161 0.792 0.431 0.736 0.696s0.258 0.851 0.203 1.010c-0.054 0.159-0.115 1.060-0.115 1.060l-0.425 0.102c0 0-0.26-0.639-0.737-0.59s-0.847-0.167-0.847-0.167-0.578-0.589-0.896-0.644c-0.318-0.056-0.952-0.274-0.952-0.274l0.808-1.425 0.271-0.687c0 0-0.752 1.107-0.908 0.682s0.115-0.954 0.381-1.111c0.267-0.157 0.952 0.327 1.053 0.858s0.117-1.272-0.887-1.705c-1.004-0.434-1.281 0.837-1.548 1.1-0.268 0.262-0.809 1.531-0.814 2.061s0.628 1.013 0.628 1.013-0.007 0.743 0.204 0.851c0.211 0.108 1.108 0.699 1.108 0.699s0.951 0.38 1.752-0.197l0.368 0.375 0.47 0.853-0.22 0.9c0 0-0.103-0.372-0.74-0.272s-1.168 0.096-1.168 0.096-1.269-0.435-1.537-0.226c-0.267 0.21-0.411-1.436-0.411-1.436s0.012-1.379 0.011-1.22c-0.002 0.16-0.538 0.791-0.538 0.791s-0.257-0.904-0.203-1.062c0.054-0.159 0.53 0.058 0.53 0.058s-0.311-0.799-0.632-0.484c-0.321 0.315-0.33 1.27-0.33 1.27l-0.227 1.696c0 0 0.309 1.064 1.047 1.601s1.476 1.074 2.274 0.763c0.798-0.311 0.908-0.735 0.908-0.735l0.369 0.268c0 0 0.155 0.426 0.366 0.587s0.102 0.478 0.047 0.637c-0.054 0.159-0.591 0.79-0.749 0.736s-0.799 0.417-0.907 0.629c-0.108 0.211-1.494 0.942-1.816 1.416 0 0-0.735-0.855-1.635-1.075-0.548-0.134-0.36-1.223-0.36-1.223s-0.542 1.268-0.802 0.683-0.149-1.168 0.702-1.426-1.058-0.328-1.494 0.942c-0.436 1.269 0.89 1.334 0.89 1.334s0.838 1.227 1.048 1.495c0.21 0.267 1.106 0.912 1.904 0.6 0.798-0.311 1.645-0.038 2.286-0.616s0.706-1.903 0.706-1.903l0.688 0.165-0.273 0.899c0 0-0.483 0.632-0.49 1.428s-0.487 1.11-0.492 1.693c-0.005 0.583-0.013 1.432-0.013 1.432s-0.376 0.527-0.382 1.164c-0.006 0.637 0.094 1.327 0.094 1.327s-0.3 0.677-0.276 1.218c0.044 1.008 0.516 1.649 0.516 1.649s-0.146 0.513-0.064 1.219c0.148 1.274 0.888 1.546 0.888 1.546s0.305 1.541 0.62 1.915c0.315 0.374 0.736 0.749 0.736 0.749s0.259 0.745 0.575 1.013c0.271 0.23 1.005 0.734 1.377 0.876 0.005 0.024 0.010 0.040 0.016 0.040 0.018 0 0.046-0.010 0.069-0.016 0.024 0.004 0.052 0.014 0.070 0.014 0.005 0 0.011-0.016 0.016-0.040 0.372-0.141 1.106-0.646 1.377-0.876 0.316-0.268 0.575-1.013 0.575-1.013s0.421-0.375 0.736-0.749c0.315-0.374 0.62-1.915 0.62-1.915s0.74-0.272 0.888-1.546c0.082-0.707-0.064-1.219-0.064-1.219s0.472-0.641 0.516-1.649c0.024-0.54-0.276-1.218-0.276-1.218s0.1-0.69 0.094-1.327c-0.006-0.636-0.382-1.164-0.382-1.164s-0.007-0.849-0.013-1.432c-0.005-0.583-0.485-0.897-0.492-1.693s-0.49-1.428-0.49-1.428l-0.273-0.899 0.688-0.165c0 0 0.065 1.326 0.706 1.903 0.642 0.578 1.488 0.305 2.286 0.616s1.695-0.333 1.904-0.6c0.21-0.267 1.048-1.495 1.048-1.495s1.326-0.065 0.89-1.334-2.345-1.199-1.494-0.942c0.851 0.258 0.962 0.84 0.702 1.426s-0.802-0.683-0.802-0.683 0.187 1.089-0.361 1.223c-0.9 0.22-1.635 1.075-1.635 1.075-0.322-0.475-1.708-1.205-1.816-1.416s-0.749-0.683-0.907-0.629c-0.159 0.054-0.695-0.577-0.749-0.736s-0.163-0.476 0.047-0.637c0.211-0.161 0.366-0.587 0.366-0.587l0.369-0.268c0 0 0.11 0.423 0.908 0.735s1.536-0.226 2.274-0.763 1.047-1.601 1.047-1.601l-0.227-1.695c0 0-0.008-0.955-0.33-1.27s-0.632 0.483-0.632 0.483 0.475-0.216 0.53-0.058c0.054 0.159-0.203 1.063-0.203 1.063s-0.536-0.632-0.537-0.791c-0.001-0.159 0.011 1.22 0.011 1.22s-0.145 1.646-0.412 1.436c-0.267-0.21-1.536 0.226-1.536 0.226s-0.53 0.005-1.168-0.096c-0.637-0.1-0.74 0.272-0.74 0.272l-0.22-0.9 0.47-0.853 0.368-0.375c0.801 0.576 1.752 0.197 1.752 0.197s0.897-0.591 1.108-0.699c0.211-0.108 0.205-0.851 0.205-0.851s0.632-0.483 0.628-1.013c-0.005-0.53-0.546-1.799-0.814-2.062s-0.544-1.534-1.548-1.1c-1.004 0.435-0.988 2.238-0.887 1.707z"></path>
</svg>
