<svg xmlns="http://www.w3.org/2000/svg" width="32" height="32" viewBox="0 0 32 32"><path d="M19.815 2.795c.101-.531.787-1.015 1.053-.858s.537.685.381 1.111c-.155.426-.908-.682-.908-.682l.271.687.808 1.425s-.635.218-.952.274c-.318.056-.896.644-.896.644s-.369.215-.847.167c-.478-.049-.737.59-.737.59l-.425-.103s-.061-.901-.115-1.06.259-.745.203-1.01c-.055-.265.579-.536.736-.696.158-.161.892-1.069.892-1.069s.102-.425-.164-.582c-.267-.157-.313.586-.313.586l-.577.695-.631.589-.528.323s-.271-.634-.644-.896c-.374-.262-.797-.099-.797-.099s-.423-.163-.797.099c-.374.262-.644.896-.644.896l-.528-.323-.631-.589-.577-.694s-.046-.743-.313-.586-.164.582-.164.582.735.908.892 1.069c.158.161.792.431.736.696s.258.851.203 1.01c-.054.159-.115 1.06-.115 1.06l-.425.102s-.26-.639-.737-.59-.847-.167-.847-.167-.578-.589-.896-.644c-.318-.056-.952-.274-.952-.274l.808-1.425.271-.687s-.752 1.107-.908.682.115-.954.381-1.111c.267-.157.952.327 1.053.858s.117-1.272-.887-1.705C9.544.656 9.267 1.927 9 2.19c-.268.262-.809 1.531-.814 2.061s.628 1.013.628 1.013-.007.743.204.851c.211.108 1.108.699 1.108.699s.951.38 1.752-.197l.368.375.47.853-.22.9s-.103-.372-.74-.272-1.168.096-1.168.096-1.269-.435-1.537-.226c-.267.21-.411-1.436-.411-1.436l.011-1.22c-.002.16-.538.791-.538.791s-.257-.904-.203-1.062c.054-.159.53.058.53.058s-.311-.799-.632-.484c-.321.315-.33 1.27-.33 1.27l-.227 1.696S7.56 9.02 8.298 9.557s1.476 1.074 2.274.763c.798-.311.908-.735.908-.735l.369.268s.155.426.366.587.102.478.047.637c-.054.159-.591.79-.749.736s-.799.417-.907.629c-.108.211-1.494.942-1.816 1.416 0 0-.735-.855-1.635-1.075-.548-.134-.36-1.223-.36-1.223s-.542 1.268-.802.683-.149-1.168.702-1.426-1.058-.328-1.494.942c-.436 1.269.89 1.334.89 1.334s.838 1.227 1.048 1.495c.21.267 1.106.912 1.904.6.798-.311 1.645-.038 2.286-.616s.706-1.903.706-1.903l.688.165-.273.899s-.483.632-.49 1.428-.487 1.11-.492 1.693l-.013 1.432s-.376.527-.382 1.164c-.006.637.094 1.327.094 1.327s-.3.677-.276 1.218c.044 1.008.516 1.649.516 1.649s-.146.513-.064 1.219c.148 1.274.888 1.546.888 1.546s.305 1.541.62 1.915c.315.374.736.749.736.749s.259.745.575 1.013c.271.23 1.005.734 1.377.876.005.024.01.04.016.04.018 0 .046-.01.069-.016.024.004.052.014.07.014.005 0 .011-.016.016-.04.372-.141 1.106-.646 1.377-.876.316-.268.575-1.013.575-1.013s.421-.375.736-.749.62-1.915.62-1.915.74-.272.888-1.546c.082-.707-.064-1.219-.064-1.219s.472-.641.516-1.649c.024-.54-.276-1.218-.276-1.218s.1-.69.094-1.327c-.006-.636-.382-1.164-.382-1.164l-.013-1.432c-.005-.583-.485-.897-.492-1.693s-.49-1.428-.49-1.428l-.273-.899.688-.165s.065 1.326.706 1.903c.642.578 1.488.305 2.286.616s1.695-.333 1.904-.6c.21-.267 1.048-1.495 1.048-1.495s1.326-.065.89-1.334-2.345-1.199-1.494-.942c.851.258.962.84.702 1.426s-.802-.683-.802-.683.187 1.089-.361 1.223c-.9.22-1.635 1.075-1.635 1.075-.322-.475-1.708-1.205-1.816-1.416s-.749-.683-.907-.629c-.159.054-.695-.577-.749-.736s-.163-.476.047-.637c.211-.161.366-.587.366-.587l.369-.268s.11.423.908.735 1.536-.226 2.274-.763 1.047-1.601 1.047-1.601l-.227-1.695s-.008-.955-.33-1.27-.632.483-.632.483.475-.216.53-.058c.054.159-.203 1.063-.203 1.063s-.536-.632-.537-.791l.011 1.22s-.145 1.646-.412 1.436c-.267-.21-1.536.226-1.536.226s-.53.005-1.168-.096c-.637-.1-.74.272-.74.272l-.22-.9.47-.853.368-.375c.801.576 1.752.197 1.752.197s.897-.591 1.108-.699c.211-.108.205-.851.205-.851s.632-.483.628-1.013c-.005-.53-.546-1.799-.814-2.062s-.544-1.534-1.548-1.1c-1.004.435-.988 2.238-.887 1.707z"/></svg>