<?xml version="1.0" encoding="utf-8"?>
<!-- Generated by IcoMoon.io -->
<!DOCTYPE svg PUBLIC "-//W3C//DTD SVG 1.1//EN" "http://www.w3.org/Graphics/SVG/1.1/DTD/svg11.dtd">
<svg version="1.1" xmlns="http://www.w3.org/2000/svg" xmlns:xlink="http://www.w3.org/1999/xlink" width="32" height="32" viewBox="0 0 32 32">
<path d="M31.064 2.689c0 0-0.409-1.228-0.682-1.296s-1.365-0.819-1.774-0.955c-0.409-0.136-0.887-0.546-1.706-0.409s-1.842 0.273-2.184 0.682c-0.341 0.409-1.433 1.501-1.433 1.501s-0.341 1.57-0.546 1.843c-0.205 0.273-1.092 1.228-1.433 1.433s-3.139 0.819-5.527 3.003c-2.388 2.184-4.094 5.459-4.572 7.233s-1.228 5.596-1.228 5.596-0.478 4.163-0.136 5.050 0.205 1.706-0.136 2.389c-0.341 0.682-2.934 1.501-4.026 0.614s-2.252-2.252-1.092-7.37c1.16-5.118 0.819-6.483-0.136-7.643s-3.139-1.365-3.617-1.16c-0.478 0.205-0.661 0.872 1.296 1.228 1.501 0.273 1.791 1.483 1.774 2.661-0.068 4.913-1.433 6.415-1.228 9.417s2.116 4.572 3.958 4.913 4.163-0.546 4.504-0.546c0.341 0 1.433 0.273 1.433 0.273s0.546 0.205 1.16 0.205 1.024 0.273 1.228 0.273c0.205 0-0.068 0.614 0.955 0.409s2.661-0.273 2.661-0.273 0.955-0.205 1.638-0.136c0.682 0.068 1.638 0 1.638 0s1.365 0 1.843 0.068c0.478 0.068 1.228 0.409 1.16-0.137s-0.478-1.365-0.478-1.365 0.478-0.546 0.273-1.228c-0.205-0.682-1.228-1.638-1.228-1.638l-0.273-0.682c0 0 0.341-0.683 0.136-1.57s-0.136-2.593-0.136-2.593l0.478-1.16c0 0 0.614 0.546 0.75 0.546s0.341 0.819 0.409 1.023-0.478 0.205-0.341 0.682c0.136 0.478 0.273 0.887 0.273 0.887s-0.478-0.682-0.819-0.614c-0.341 0.068-0.546 0.546-0.273 0.887s0.887 0.955 1.296 0.819c0.409-0.136 1.297-1.16 1.433-1.433s-0.205-1.365-0.068-1.911c0.137-0.546 0.546-1.228 0.068-2.047s-1.092-0.751-1.433-1.501c0 0-0.546-0.819 0.068-1.433s1.433-2.525 1.774-3.139c0.341-0.614 0.682-1.297 0.751-1.911s0-1.638 0-1.638l0.205-0.478 0.955-0.341c0 0 0.682-0.068 0.887-0.341s0.409-0.614 0.409-0.614 0.614-0.341 0.75-0.819c0.137-0.478 0-0.819 0-0.819s-0.205-0.819-0.136-1.16c0.068-0.341 0.273-1.365 0.273-1.365s0.614-0.136 0.614-0.614c-0-0.477-0.41-1.296-0.41-1.296zM29.154 5.487c-0.341 0-0.819-0.478-0.819-0.478s0.136-0.614 0.546-0.478c0.409 0.136 0.341 0.409 0.341 0.409s0.273 0.546-0.068 0.546z"></path>
</svg>
