<?xml version="1.0" encoding="utf-8"?>
<!-- Generated by IcoMoon.io -->
<!DOCTYPE svg PUBLIC "-//W3C//DTD SVG 1.1//EN" "http://www.w3.org/Graphics/SVG/1.1/DTD/svg11.dtd">
<svg version="1.1" xmlns="http://www.w3.org/2000/svg" xmlns:xlink="http://www.w3.org/1999/xlink" width="32" height="32" viewBox="0 0 32 32">
<path d="M31.7 5.2c0.1-0.4-0.1-1.9-0.2-2.2s-1.7-1.6-2.4-1.9c-0.7-0.3-1.9-0.4-2.5-0.2-0.6 0.1-2.4 1-3 1.2s-4.2 1.9-4.9 2.1c-0.6 0.3-3.2 0.9-3.7 1.1-0.5 0.1-2.7 0.5-3 0.4s-0.5-0.6-0.6-0.9c-0.2-0.4-0.7-2.4-1.7-2.8s-2.4 0.4-2.8 0.8c-0.4 0.4-2.2 2.4-3 7.6s-0.7 6.1-0.7 6.6c0.1 0.5 0.6 1.6 0.8 1.8 0.2 0.1-0.6 1.8-0.9 2s-1.5 1.2-1.8 1.4c-0.3 0.2-1.2 0.7-1.3 1s0 1 0.2 1.2c0.2 0.2 0.9 1.6 1.1 1.9 0.1 0.2 0.9 0.5 1.1 0.7 0.1 0.2 0.4 0.7 0.7 0.8 0.2 0.2 0.4 0.4 0.6 0.2s0.1-0.6 0.1-0.7c0-0.2-0.2-0.5-0.4-0.9-0.2-0.5-1-1.2-0.9-1.4s1-0.8 1.2-1c0.2-0.1 1.5-1 2-1.2s2.2-1.9 2.2-1.9-0.6 2.1-0.5 2.7c0.1 0.6 0 2.3-0.2 2.7-0.2 0.5-0.4 1.4-0.3 1.7s0.2 0.8 0.8 0.8c0.6 0 2.1-0.2 2.4-0.1s2.1 0.2 2.6 0.1c0.5-0.1 0.8 0.2 1.1 0 0.2-0.2 0.1-0.5-0.2-0.6-0.2-0.1-0.8-0.4-1-0.4s-1.8-0.2-2.1-0.4c-0.3-0.2-0.3-0.8-0.2-1 0.1-0.1 1.1-3.2 1.2-3.9 0-0.7-0.1-2.6 0-2.9s1-3.7 1.1-4.3c0.1-0.6 0.6-2.8 0.6-2.8s0.9 1.6 1.2 2c0.3 0.4 1.1 1.6 1.3 1.8s1.6 0.8 2.3 0.8c0.7 0 1.6 0.2 1.8 0.2s1.9 0 1.9 0-0.4 2.5-0.5 2.7c-0.1 0.3-0.8 2.9-0.9 3.1s-0.6 1.4-0.5 1.7c0.1 0.3 0.4 0.9 0.3 1.1s0.1 0.6 0.2 0.9c0.1 0.4 0.5 0.6 0.5 0.6s-0.3 1-0.1 1.2c0.2 0.2 0.6-0.4 0.6-0.4s-0.1 0.7 0 0.7c0.2 0 1.2 0.1 1.5-0.1s0-0.8-0.1-1.2c-0.1-0.4-0.6-0.8-0.6-1.1s-0.1-1.8-0.1-1.8 1.1-2.9 1.3-3.2c0.2-0.3 0.4-0.6 0.4-0.6s0.8 3.1 0.8 3.6c0 0.5 0.2 2.1 0.2 2.3 0 0.1 0.3 1.1 0.5 1.4s0.8 0.7 0.9 1.1c0.1 0.3 0.7 0.7 1 0.9 0.2 0.1 0.8 0.2 0.8 0.2s0.6 0.5 0.9 0.4c0.3-0.1-0.1-0.4-0.1-0.5s-0.2-0.7-0.2-0.7 1 0.7 1.2 0.7c0.2 0 0.6-0.3 0.5-0.4s-0.9-0.8-1.1-0.9c-0.2-0.1-0.6-0.1-0.9-0.3s-1-1.3-1-1.3-0.5-3.8-0.5-4.5 0-4.7-0.2-5.1c0 0 0.5-1.1 0.9-1.4 0.4-0.2 1.1-1.3 1.2-1.5s1.3-1.4 1.7-1.8c0.4-0.3 1.2-1.2 1.4-2.2s0.1-2.4 0.1-2.4 0.2-0.4 0.2-1c0-1.2-0.4-2-0.3-2.3zM8.9 7.1c0 0-0.8 0.5-1.1 0.8s-0.5 1.6-0.5 1.6-0.2 0.6-0.4 0.8c-0.2 0.2-0.9 2.2-1.1 2.9s-0.3 2.8-0.4 3.6c-0.1 0.7-0.5 0.9-0.5 0.9s-0.6-2.5-0.5-4.3c0.1-1.8 1.1-5.3 1.1-5.8s1.5-3.4 2-3.9 0.8-0.4 1.3 0c0.6 0.6 0.1 2 0 2.3-0.2 0.6 0.1 1.1 0.1 1.1zM30.6 7.2c-0.1 0.5-0.6 0.8-0.6 1.1 0 0.4 0 1.7 0 1.7s-0.2 0.7-0.5 1.1c-0.3 0.4-0.8 0.5-1.2 0.4s-1.1-1-1.2-1.4c-0.3-0.7 0.2-1.9 0.2-1.9s-0.6-0.3-0.7-0.8c-0.2-0.6 0.4-0.9 0.5-1.4 0.2-0.4-0.4-0.8-0.4-0.8s0.9 0 1.2 0c0.3 0 1.4 0.2 1.4 0.2s1.3-0.1 1.4-0.1l-0.3 0.5c0 0.1 0.3 0.8 0.2 1.4zM28.9 10c0 0-0.1-0.2-0.3-0.2-0.2 0.1 0 0.3 0.1 0.3s0.4 0 0.4 0l-0.2-0.1zM29.5 10.2c0 0 0.2-0.2 0.3-0.2s0.2 0.2 0.1 0.3c-0.2-0.1-0.4-0.1-0.4-0.1z"></path>
</svg>
