<?xml version="1.0" encoding="utf-8"?>
<!-- Generated by IcoMoon.io -->
<!DOCTYPE svg PUBLIC "-//W3C//DTD SVG 1.1//EN" "http://www.w3.org/Graphics/SVG/1.1/DTD/svg11.dtd">
<svg version="1.1" xmlns="http://www.w3.org/2000/svg" xmlns:xlink="http://www.w3.org/1999/xlink" width="32" height="32" viewBox="0 0 32 32">
<path d="M31.883 17.078c0.064-0.319 0.16-0.701 0.096-1.114-0.062-0.414-0.191-1.75-0.254-1.909s-0.223-0.7-0.096-1.082c0.127-0.381 0.414-1.113 0.031-1.368-0.381-0.254-0.986 0.095-0.986 0.095s-1.654-1.463-1.908-1.717-2.131-1.146-2.131-1.146-2.99-1.686-4.738-1.908c-1.75-0.223-5.313-0.827-6.044-0.7s-0.731-0.063-0.731-0.063l-0.7 0.223-0.19-0.159-0.509 0.127h-0.382l-0.574 0.383h-0.414l-0.827 0.382-0.826 0.063-0.445 0.254-0.51 0.223c0 0-0.35 0.096-0.381 0.191-0.032 0.096-0.573 0.318-0.573 0.318l-0.477 0.414c0 0-0.986 0.477-1.082 0.699-0.095 0.223-1.812 1.877-1.939 2.068-0.128 0.191-1.019 0.604-1.113 1.049 0 0-1.846-0.063-2.291-0.318s-0.636-0.159-0.954-0.382c-0.318-0.222-0.604-0.636-0.795-0.572s-0.159 0.668-0.063 0.954c0.095 0.287 0.986 0.954 1.495 1.336s1.24 0.954 1.399 1.368 0.541 1.114 0.541 1.114-0.159 1.716-0.191 2.068c-0.031 0.35-0.127 1.049-0.254 1.367-0.128 0.318-0.51 0.445-0.604 0.795-0.096 0.35 0.223 1.113 0.413 1.336s0.445 0.287 0.445 0.287 0.286 0.254 0.604 0.412c0.318 0.16 0.954 0 1.113 0s0.668 0.191 0.668 0.191 0.668 0.223 1.209 0.096c0.54-0.127 1.018-0.35 1.018-0.35s-0.063 1.939-0.541 2.545c-0.477 0.604-0.764 1.018-1.018 1.176-0.255 0.158-0.668 0.445-0.668 0.445s0.286 0.254 0.509 0.223-0.063 0.223 0.19 0.287c0.255 0.062 0.669 0.094 0.986-0.033 0.318-0.127 0.731-0.35 0.891-0.381s0.191 0.287 0.414 0.064 0-0.541 0.031-0.668c0.032-0.129 0.223-1.051 0.351-1.305s1.018-2.258 1.081-2.449 0.509-1.051 0.509-1.051 2.036-1.049 2.418-1.145c0.381-0.096 0.953-0.381 1.271 0.16 0.318 0.539 0.445 1.525 0.541 1.939s0.19 1.812 0.127 2.131-0.254 1.082-0.572 1.463c-0.318 0.383-0.509 0.764-0.509 0.764l0.572 0.096c0 0-0.063 0.477 0.223 0.477s0.509 0 0.891-0.223 0.572-0.604 0.572-0.604 0.159 0.158 0.351 0.031c0.19-0.127 0.063-0.668 0.063-0.764s0-1.877 0.254-2.131c0.255-0.254 0.763-2.545 0.89-2.83 0.129-0.287 0.479-0.277 0.479-0.277s-0.033 0.445 0.189 0.51c0.223 0.062 0.191-0.414 0.191-0.414l0.941 0.285c0 0-0.111 0.43 0.203 0.479 0.127 0.020 0.129-0.418 0.129-0.418l0.346-0.002 0.83-0.121 0.191 0.35c0 0 0.143 0.105 0.223 0.031s0-0.445 0-0.445l0.668-0.158c0 0 0.15 0.314 0.223 0.318 0.070 0.002 0.158-0.064 0.158-0.064l-0.031-0.35 0.795 0.127c0 0 0.084 0.195 0.127 0.254s0.16 0 0.16 0l0.096-0.35c0 0 0.127-0.104 0.254 0.182 0.127 0.287 0.764 1.559 0.699 1.908s-0.604 1.082-0.637 1.336c-0.031 0.256-0.477 0.605-0.508 0.701-0.031 0.094-0.637 0.35-0.541 0.572s0.826 0.127 1.178 0.158c0.35 0.031 0.572-0.318 0.668-0.285 0.094 0.031 0.127-0.352 0.381-0.701s0.668-1.525 0.826-1.781c0.16-0.254 0.383-0.572 0.445-1.018 0.064-0.445-0.316-1.432-0.062-1.463s1.303 0.955 1.525 1.082c0.225 0.127 1.273 0.986 1.465 1.303 0.189 0.318 0.062 1.496 0.223 1.877 0.158 0.383 0.189 1.113 0.223 1.209 0.031 0.096 0.381 0.795 0.699 0.826 0.318 0.033 0.381-0.539 0.541-0.795 0.158-0.254 0.127-0.539 0.158-1.049s-0.477-0.891-0.35-1.367c0.127-0.479 0.031-1.146 0.031-1.273s-0.318-0.572-0.094-0.764c0.221-0.189 0.094-0.381 0-0.699-0.096-0.318 0.189-0.986 0.285-1.494 0.096-0.51 0.318-2.545 0.318-2.545s0.191 0.541 0.191 0.859c0 0.317-0.033 0.668 0.189 0.795s0.035-0.254 0.098-0.571zM3.179 20.602c-0.074 0.373-0.232 0.324-0.305 0.389 0 0-0.252-0.645 0.063-0.859 0.133-0.091 0.286 0.245 0.242 0.47zM4.175 21.305c-0.063 0.189-0.382-0.096-0.572-0.318s0.223-0.732 0.223-0.732c0.349 0.063 0.413 0.858 0.349 1.050zM7.264 16.855c-0.255 0.095-0.604 0.159-0.764 0.317 0 0 0.096-0.508 0.286-0.603 0.191-0.096 0.478-0.191 0.668-0.159 0.192 0.031 0.064 0.349-0.19 0.445zM31.152 12.911l-0.191-0.604 0.381-0.254c0.096 0.858-0.19 0.858-0.19 0.858z"></path>
</svg>
