<svg xmlns="http://www.w3.org/2000/svg" width="32" height="32" viewBox="0 0 32 32"><path d="M12.853 19.2c1.493.64 2.773 1.227 3.627 1.387a8.16 8.16 0 0 0 1.867.213c1.067 0 2.133-.267 2.56-1.333.96-2.293-1.333-4.267-2.453-5.227-.907-.8-4.213-3.36-9.227-4-2.827-.373-4.853-.107-6.4.747-.853.48-2.4 2.08-1.76 4.16.373 1.28 1.493 2.027 3.253 2.24h.64c1.013-.053 2.933-.16 4.96.64 1.013.32 2.027.8 2.933 1.173zm-7.946-2.72c-.267 0-.427.053-.533 0-.533-.053-2.4-.053-2.72-1.493-.587-2.187 1.173-3.04 1.6-3.253 1.12-.587 2.133-1.013 3.893-1.013-.32.107-1.12.427-.907.853.213.48.427.213.64.107s1.12-.64.907-.427c-.16.213-.907.853-.373.907.587.053.747-.053.907-.693.107-.32.053-.587-.16-.747a.68.68 0 0 1 .32.053l1.013.16c-.32.267-.747.8-.64 1.28.107.64.64 1.067.8.48.16-.48.32-1.44.373-1.707.16 0 .267.053.427.053-.107.427-.267 1.12.107 1.12.373.053.693-.587.693-1.013.533.107 1.013.213 1.44.373-.107.16-.16.587.32.853.587.267.8.213.8.213s-.053.587.48.64c.533.053.053.267.693.533s1.44 1.28 1.333.587c-.107-.693-1.333-1.173-1.333-1.173s.107-.533-.373-.587c-.48-.053-.373-.48-.747-.533-.16 0-.267-.16-.373-.267 2.453.96 3.733 2.4 4.373 2.933 1.44 1.28 3.04 2.933 2.453 4.427-.427 1.013-2.4.907-3.787.64-1.227-.213-1.867-.907-3.307-1.493-.96-.427-1.973-.853-2.987-1.28a11.848 11.848 0 0 0-4.16-.747c-.427.16-.853.16-1.173.213zm1.28-3.68s-.587.053-.853.587-.267 1.12.267.853c.587-.213 1.493-1.333.587-1.44zm1.28 2.293c.053.48 1.067.267.853.427-.16.107-.533 1.173.16.853.693-.267.8-1.067.213-1.387-.48-.32-1.28-.32-1.227.107zm3.413.8s.427-.533-.107-.64c-.693-.16-.64.16-.8.693s-.373.853.213.693c.587-.213.693-.747.693-.747zm.427-1.066c.213-.267.48-.96.48-.96s.373.48.373.8c0 .373-.213.16-.427.747-.16.587.053 1.067.053 1.067s-.693.373-.533.587c.16.213.427.48.64 0 .213-.373.64-.533.8-.853 0 .267.053.64.32.747.587.213.8-.427.48-.907-.373-.533-.64-1.28-.64-1.28s1.227-.267.8-.8c-.427-.533-1.067.373-1.067.373s.8-1.067.373-1.333-.853.16-.853.16-.053-1.28-.373-.693c-.267.587-.427 1.173-.427 1.173s-.213-.96-.533-.693c-.587.587-.267 1.28-.053 1.76.213.32.32.373.587.107zm3.36 2.88c.533-.16.48-1.227.48-1.227l.587-.16s-.213.373.053.8c.267.48 1.12 1.227 1.12.48s-.587-1.493-.587-1.493 1.173-.96.427-1.067c-.747-.053-.907.693-.907.693l-.96.267-.267-.267c-.48-.107-.907-.533-1.067-.107-.107.373.587 2.293 1.12 2.08zM28.053 6.4c-5.28-2.667-7.573-3.627-10.187-3.733l-.693-.107c-1.547-.053-3.733 0-4.8 1.067-.64.587-1.387 1.44-1.387 2.667 0 .693.267 1.653 1.333 2.507 1.813 1.44 4.8 1.973 6.293 2.453 0 0 3.52.747 5.547 1.973 3.147 1.867 4.96 1.333 5.92.533.427-.373.693-.747.853-1.12 1.44-3.2-2.133-5.867-2.88-6.24zm2.027 5.653c-1.813 3.147-4.053.533-5.707-.107-.427-.16-1.28-.587-2.027-.853-1.28-.533-7.04-1.173-9.333-2.88-.48-.373-1.333-1.44-1.333-1.92-.053-2.667 3.253-2.933 4.907-2.88l.907.107c2.347.107 5.76.48 10.293 3.68 1.493 1.013 3.467 2.827 2.293 4.853zM16.96 6.72s1.067-1.173.213-1.12c-.853 0-1.12.8-1.12 1.387s-.107 1.973.533 1.867c.693-.16.267-1.76.373-2.133zm2.453 1.867s.747-.427.48-.907c-.213-.48.32-1.28-.533-1.227-.853 0-1.12.267-1.12.267s0-.16-.32-.32c-.373-.107-.96.373-.64.747.267.373 1.12.213 1.12.213s-.32 0-.107.587c0 0-.747.213-.907.853s-.053 1.44.48 1.12c.587-.32.907-.853.907-.853s.96 1.76 1.28 1.013c.32-.747-.64-1.493-.64-1.493zm1.227.373s-.107 1.173.587 1.227c.693 0 .907-.267.48-.853-.427-.64-1.067-.373-1.067-.373zm6.88-1.12c-1.28-.8-2.133-1.013-2.827-.64-.693.427-1.333.533-1.813 1.28-.267.373-.533.853-.533 1.387s-.427.96.213 1.173c.64.213 1.653.96 1.44.427s.213-.853.213-.853 2.56 1.173 2.347.267c-.267-.907-1.493-.96-1.707-1.12s-.907-1.12-1.12-.427c-.213.693-.587 1.6-.747.96-.107-.64 0-1.28.64-1.653s1.44-.907 1.92-.427c.48.48 1.707 2.027 2.187 1.493.48-.587 1.067-1.067-.213-1.867zm-5.173-1.813c-.96.693-1.6.907-1.6 1.76 0 .64.907.427 1.067.053.16-.427.533-.533 1.067-.96.533-.48.427-1.547-.533-.853zm-3.627-.16c1.12.107 2.56-.267 1.867-.64-.747-.32-1.387.107-1.387.107s.373-1.067-.053-.907c-.533.267-.213-.747-.747.053s-.8 1.28.32 1.387zm3.307 14.986l-.373.16c-.907.32-2.667 1.493-4.213 1.44h-.053c-.853 0-3.36 0-4.267-.373-.64-.267-1.28-.587-1.92-.96-1.28-.747-2.027-1.813-3.253-1.067-.64.373-1.067.853-1.067 1.653-.053 1.173.64 2.027 1.28 2.72 1.12 1.28 2.24 2.72 4 3.787l.427.267c1.387.853 2.933 1.92 5.813.587 2.453-1.12 5.333-2.347 6.293-3.253l.8-.8c.747-.907 1.6-2.133.427-3.573-1.387-1.653-2.933-.96-3.893-.587zm2.293 4.267c-.533.48-2.187 1.173-4.053 1.973.213-.533.16-1.067.16-1.067s.693.853.747.107c0-.48-.16-.8-.32-1.067.267.32.747.853.96.48.32-.48-.747-1.227-.747-1.227s0-1.12-.533-.907c-.533.213-.16.8-.16.8s-.48-.853-.693-.32c-.107.32.053.693.267.907-.16-.213-.427-.373-.48-.053-.107.587.533.96.533.96s-.267.907-.48.96c-.213.053.16-.96-.48-.853-.64.16-.747.907-.32 1.173.213.107.427.267.64.373-.533.213-1.067.48-1.6.693-2.08.96-3.36.16-4.64-.64l-.427-.267c-1.547-.96-2.773-2.133-3.84-3.307-.533-.587-.853-1.44-.747-2.08.053-.213.107-.427.213-.533.053-.053.107-.107.213-.16.427-.267 1.12.107 2.187.747.64.373 1.387.8 2.133 1.067 1.12.427 3.413.48 4.373.48-.32.213-.427.427-.427.427s-.213-.533-.48-.267c-.533.587-1.387 1.387-.48 1.28.853-.107 1.12-.587 1.12-.587s-.427.747.16.853c.587.107.587-.533.587-.533s0 .907.64.8c.64-.16.96-1.227.373-1.547s-.907.053-.907.053.107-.213.107-.373c1.707-.053 2.88-1.013 3.787-1.387l1.013-.48c1.12-.48 2.08-.16 2.613.533.587.587.213 1.813-1.013 2.987zm-7.787.693c-.8-.267-1.013-.107-1.12.16-.053.267-.267-.107-.747-.267.053 0 .053 0 .107-.053.533-.32 0-.853 0-.853s.32-.373.107-.587c-.373-.32-.907-.267-.853.32.053.373.16 1.013.427 1.173-.587 0-.373.747-.373.747l-.64-.533c-.16-.213-.64-.8-.693-.267-.107.533 0 .8.427 1.12.373.32 1.067.96 1.12.693s.533-.587.533-.587-.107 1.013.427 1.013c.533 0 .267-1.013.267-1.013s.267.8.693.853c.48.053.427-.8.427-.8s.747-.853-.107-1.12z"/></svg>