<?xml version="1.0" encoding="utf-8"?>
<!-- Generated by IcoMoon.io -->
<!DOCTYPE svg PUBLIC "-//W3C//DTD SVG 1.1//EN" "http://www.w3.org/Graphics/SVG/1.1/DTD/svg11.dtd">
<svg version="1.1" xmlns="http://www.w3.org/2000/svg" xmlns:xlink="http://www.w3.org/1999/xlink" width="32" height="32" viewBox="0 0 32 32">
<path d="M12.853 19.2c1.493 0.64 2.773 1.227 3.627 1.387 0.427 0.107 1.12 0.213 1.867 0.213 1.067 0 2.133-0.267 2.56-1.333 0.96-2.293-1.333-4.267-2.453-5.227-0.907-0.8-4.213-3.36-9.227-4-2.827-0.373-4.853-0.107-6.4 0.747-0.853 0.48-2.4 2.080-1.76 4.16 0.373 1.28 1.493 2.027 3.253 2.24 0.107 0 0.373 0 0.64 0 1.013-0.053 2.933-0.16 4.96 0.64 1.013 0.32 2.027 0.8 2.933 1.173zM4.907 16.48c-0.267 0-0.427 0.053-0.533 0-0.533-0.053-2.4-0.053-2.72-1.493-0.587-2.187 1.173-3.040 1.6-3.253 1.12-0.587 2.133-1.013 3.893-1.013-0.32 0.107-1.12 0.427-0.907 0.853 0.213 0.48 0.427 0.213 0.64 0.107s1.12-0.64 0.907-0.427c-0.16 0.213-0.907 0.853-0.373 0.907 0.587 0.053 0.747-0.053 0.907-0.693 0.107-0.32 0.053-0.587-0.16-0.747 0.107 0 0.213 0 0.32 0.053l1.013 0.16c-0.32 0.267-0.747 0.8-0.64 1.28 0.107 0.64 0.64 1.067 0.8 0.48 0.16-0.48 0.32-1.44 0.373-1.707v0c0.16 0 0.267 0.053 0.427 0.053-0.107 0.427-0.267 1.12 0.107 1.12 0.373 0.053 0.693-0.587 0.693-1.013 0.533 0.107 1.013 0.213 1.44 0.373-0.107 0.16-0.16 0.587 0.32 0.853 0.587 0.267 0.8 0.213 0.8 0.213s-0.053 0.587 0.48 0.64c0.533 0.053 0.053 0.267 0.693 0.533s1.44 1.28 1.333 0.587c-0.107-0.693-1.333-1.173-1.333-1.173s0.107-0.533-0.373-0.587c-0.48-0.053-0.373-0.48-0.747-0.533-0.16 0-0.267-0.16-0.373-0.267 2.453 0.96 3.733 2.4 4.373 2.933 1.44 1.28 3.040 2.933 2.453 4.427-0.427 1.013-2.4 0.907-3.787 0.64-1.227-0.213-1.867-0.907-3.307-1.493-0.96-0.427-1.973-0.853-2.987-1.28-1.547-0.587-3.040-0.747-4.16-0.747-0.427 0.16-0.853 0.16-1.173 0.213zM6.187 12.8c0 0-0.587 0.053-0.853 0.587s-0.267 1.12 0.267 0.853c0.587-0.213 1.493-1.333 0.587-1.44zM7.467 15.093c0.053 0.48 1.067 0.267 0.853 0.427-0.16 0.107-0.533 1.173 0.16 0.853 0.693-0.267 0.8-1.067 0.213-1.387-0.48-0.32-1.28-0.32-1.227 0.107zM10.88 15.893c0 0 0.427-0.533-0.107-0.64-0.693-0.16-0.64 0.16-0.8 0.693s-0.373 0.853 0.213 0.693c0.587-0.213 0.693-0.747 0.693-0.747zM11.307 14.827c0.213-0.267 0.48-0.96 0.48-0.96s0.373 0.48 0.373 0.8c0 0.373-0.213 0.16-0.427 0.747-0.16 0.587 0.053 1.067 0.053 1.067s-0.693 0.373-0.533 0.587c0.16 0.213 0.427 0.48 0.64 0 0.213-0.373 0.64-0.533 0.8-0.853 0 0.267 0.053 0.64 0.32 0.747 0.587 0.213 0.8-0.427 0.48-0.907-0.373-0.533-0.64-1.28-0.64-1.28s1.227-0.267 0.8-0.8c-0.427-0.533-1.067 0.373-1.067 0.373s0.8-1.067 0.373-1.333-0.853 0.16-0.853 0.16-0.053-1.28-0.373-0.693c-0.267 0.587-0.427 1.173-0.427 1.173s-0.213-0.96-0.533-0.693c-0.587 0.587-0.267 1.28-0.053 1.76 0.213 0.32 0.32 0.373 0.587 0.107zM14.667 17.707c0.533-0.16 0.48-1.227 0.48-1.227l0.587-0.16c0 0-0.213 0.373 0.053 0.8 0.267 0.48 1.12 1.227 1.12 0.48s-0.587-1.493-0.587-1.493 1.173-0.96 0.427-1.067c-0.747-0.053-0.907 0.693-0.907 0.693l-0.96 0.267-0.267-0.267c-0.48-0.107-0.907-0.533-1.067-0.107-0.107 0.373 0.587 2.293 1.12 2.080zM28.053 6.4c-5.28-2.667-7.573-3.627-10.187-3.733l-0.693-0.107c-1.547-0.053-3.733 0-4.8 1.067-0.64 0.587-1.387 1.44-1.387 2.667 0 0.693 0.267 1.653 1.333 2.507 1.813 1.44 4.8 1.973 6.293 2.453 0 0 3.52 0.747 5.547 1.973 3.147 1.867 4.96 1.333 5.92 0.533 0.427-0.373 0.693-0.747 0.853-1.12 1.44-3.2-2.133-5.867-2.88-6.24zM30.080 12.053c-1.813 3.147-4.053 0.533-5.707-0.107-0.427-0.16-1.28-0.587-2.027-0.853-1.28-0.533-7.040-1.173-9.333-2.88-0.48-0.373-1.333-1.44-1.333-1.92-0.053-2.667 3.253-2.933 4.907-2.88l0.907 0.107c2.347 0.107 5.76 0.48 10.293 3.68 1.493 1.013 3.467 2.827 2.293 4.853zM16.96 6.72c0 0 1.067-1.173 0.213-1.12-0.853 0-1.12 0.8-1.12 1.387s-0.107 1.973 0.533 1.867c0.693-0.16 0.267-1.76 0.373-2.133zM19.413 8.587c0 0 0.747-0.427 0.48-0.907-0.213-0.48 0.32-1.28-0.533-1.227-0.853 0-1.12 0.267-1.12 0.267s0-0.16-0.32-0.32c-0.373-0.107-0.96 0.373-0.64 0.747 0.267 0.373 1.12 0.213 1.12 0.213s-0.32 0-0.107 0.587c0 0-0.747 0.213-0.907 0.853s-0.053 1.44 0.48 1.12c0.587-0.32 0.907-0.853 0.907-0.853s0.96 1.76 1.28 1.013c0.32-0.747-0.64-1.493-0.64-1.493zM20.64 8.96c0 0-0.107 1.173 0.587 1.227 0.693 0 0.907-0.267 0.48-0.853-0.427-0.64-1.067-0.373-1.067-0.373zM27.52 7.84c-1.28-0.8-2.133-1.013-2.827-0.64-0.693 0.427-1.333 0.533-1.813 1.28-0.267 0.373-0.533 0.853-0.533 1.387s-0.427 0.96 0.213 1.173c0.64 0.213 1.653 0.96 1.44 0.427s0.213-0.853 0.213-0.853 2.56 1.173 2.347 0.267c-0.267-0.907-1.493-0.96-1.707-1.12s-0.907-1.12-1.12-0.427c-0.213 0.693-0.587 1.6-0.747 0.96-0.107-0.64 0-1.28 0.64-1.653s1.44-0.907 1.92-0.427c0.48 0.48 1.707 2.027 2.187 1.493 0.48-0.587 1.067-1.067-0.213-1.867zM22.347 6.027c-0.96 0.693-1.6 0.907-1.6 1.76 0 0.64 0.907 0.427 1.067 0.053 0.16-0.427 0.533-0.533 1.067-0.96 0.533-0.48 0.427-1.547-0.533-0.853zM18.72 5.867c1.12 0.107 2.56-0.267 1.867-0.64-0.747-0.32-1.387 0.107-1.387 0.107s0.373-1.067-0.053-0.907c-0.533 0.267-0.213-0.747-0.747 0.053s-0.8 1.28 0.32 1.387zM22.027 20.853l-0.373 0.16c-0.907 0.32-2.667 1.493-4.213 1.44h-0.053c-0.853 0-3.36 0-4.267-0.373-0.64-0.267-1.28-0.587-1.92-0.96-1.28-0.747-2.027-1.813-3.253-1.067-0.64 0.373-1.067 0.853-1.067 1.653-0.053 1.173 0.64 2.027 1.28 2.72 1.12 1.28 2.24 2.72 4 3.787l0.427 0.267c1.387 0.853 2.933 1.92 5.813 0.587 2.453-1.12 5.333-2.347 6.293-3.253 0.213-0.213 0.48-0.48 0.8-0.8 0.747-0.907 1.6-2.133 0.427-3.573-1.387-1.653-2.933-0.96-3.893-0.587zM24.32 25.12c-0.533 0.48-2.187 1.173-4.053 1.973 0.213-0.533 0.16-1.067 0.16-1.067s0.693 0.853 0.747 0.107c0-0.48-0.16-0.8-0.32-1.067 0.267 0.32 0.747 0.853 0.96 0.48 0.32-0.48-0.747-1.227-0.747-1.227s0-1.12-0.533-0.907c-0.533 0.213-0.16 0.8-0.16 0.8s-0.48-0.853-0.693-0.32c-0.107 0.32 0.053 0.693 0.267 0.907-0.16-0.213-0.427-0.373-0.48-0.053-0.107 0.587 0.533 0.96 0.533 0.96s-0.267 0.907-0.48 0.96c-0.213 0.053 0.16-0.96-0.48-0.853-0.64 0.16-0.747 0.907-0.32 1.173 0.213 0.107 0.427 0.267 0.64 0.373-0.533 0.213-1.067 0.48-1.6 0.693-2.080 0.96-3.36 0.16-4.64-0.64l-0.427-0.267c-1.547-0.96-2.773-2.133-3.84-3.307-0.533-0.587-0.853-1.44-0.747-2.080 0.053-0.213 0.107-0.427 0.213-0.533 0.053-0.053 0.107-0.107 0.213-0.16 0.427-0.267 1.12 0.107 2.187 0.747 0.64 0.373 1.387 0.8 2.133 1.067 1.12 0.427 3.413 0.48 4.373 0.48-0.32 0.213-0.427 0.427-0.427 0.427s-0.213-0.533-0.48-0.267c-0.533 0.587-1.387 1.387-0.48 1.28 0.853-0.107 1.12-0.587 1.12-0.587s-0.427 0.747 0.16 0.853c0.587 0.107 0.587-0.533 0.587-0.533s0 0.907 0.64 0.8c0.64-0.16 0.96-1.227 0.373-1.547s-0.907 0.053-0.907 0.053 0.107-0.213 0.107-0.373c1.707-0.053 2.88-1.013 3.787-1.387l1.013-0.48c1.12-0.48 2.080-0.16 2.613 0.533 0.587 0.587 0.213 1.813-1.013 2.987zM16.533 25.813c-0.8-0.267-1.013-0.107-1.12 0.16-0.053 0.267-0.267-0.107-0.747-0.267 0.053 0 0.053 0 0.107-0.053 0.533-0.32 0-0.853 0-0.853s0.32-0.373 0.107-0.587c-0.373-0.32-0.907-0.267-0.853 0.32 0.053 0.373 0.16 1.013 0.427 1.173-0.587 0-0.373 0.747-0.373 0.747l-0.64-0.533c-0.16-0.213-0.64-0.8-0.693-0.267-0.107 0.533 0 0.8 0.427 1.12 0.373 0.32 1.067 0.96 1.12 0.693s0.533-0.587 0.533-0.587-0.107 1.013 0.427 1.013c0.533 0 0.267-1.013 0.267-1.013s0.267 0.8 0.693 0.853c0.48 0.053 0.427-0.8 0.427-0.8s0.747-0.853-0.107-1.12z"></path>
</svg>
