<?xml version="1.0" encoding="utf-8"?>
<!-- Generated by IcoMoon.io -->
<!DOCTYPE svg PUBLIC "-//W3C//DTD SVG 1.1//EN" "http://www.w3.org/Graphics/SVG/1.1/DTD/svg11.dtd">
<svg version="1.1" xmlns="http://www.w3.org/2000/svg" xmlns:xlink="http://www.w3.org/1999/xlink" width="32" height="32" viewBox="0 0 32 32">
<path d="M31.998 15.019c-0.068-0.555-0.393-0.427-0.566-0.601s0.061-0.499-0.346-0.557-0.791 0.189-0.791 0.189c-0.066-0.222-0.461-0.557-0.611-0.223-0.285 0.633-0.301 1.002-0.301 1.002-0.289 0.116-0.658-0.048-0.658-0.048s-0.439-1-0.928-1.392c-1.449-1.16-2.551-1.392-2.551-1.392s-1.855-2.029-4.117-2.783-6.494-1.276-8.233-0.87c-1.74 0.406-2.609 1.102-2.841 1.624s-1.102 1.507-1.565 1.797-4.754 0.986-6.378 1.74c-1.624 0.753-2.372 1.991-2.029 2.551 0.638 1.044 2.203 0.928 3.769 0.406 1.565-0.522 3.827-2.030 4.638-2.146s0.638 0.928 0.754 1.218 0.406 0.812 0.406 0.812-2.087 1.391-2.261 1.913c-0.174 0.522-0.081 0.777 0.086 0.701 0.412-0.189 0.49-0.301 0.49-0.301-0.145 0.199-0.51 0.618-0.233 0.756 0.111 0.057 0.579-0.3 0.579-0.3s-0.241 0.425-0.056 0.513c0.167 0.077 0.584-0.324 0.584-0.324s-0.344 0.549 0.062 0.49c0.406-0.058 0.841-0.213 1.247-0.734s0.779-1.611 1.127-1.728 1.855-0.464 2.261-0.464 1.739-0.638 3.421-0.058c0.731 0.251 1.392 0.174 2.203 0.58 0.812 0.406 0.753 0.638 1.159 1.218 0.328 0.468 0.593 0.989 0.684 1.173-0.383 0.178-1.383 0.764-1.292 1.339 0.067 0.423 0.401 0.155 0.534 0.2 0.027 0.009 0.050 0.023 0.068 0.043-0.189 0.385-0.27 0.818-0.109 0.898 0.232 0.115 0.674-0.293 0.731-0.062 0.058 0.232 0.245 0.646 0.428 0.642 0.41-0.010 0.471-0.536 0.708-0.507 0.278 0.033 0.082 0.592 0.545 0.534 0.465-0.059 0.502-0.757 0.502-0.757s0.457 0.565 0.797 0.266c0.139-0.121 0.078-0.738-0.029-1.112-0.189-0.657-0.68-1.169-0.68-1.169 0-0.232 0.129-1.371 0.129-1.371s0.521 0 0.754 0.464 1.16 1.449 1.508 1.681c0.204 0.137 0.606 0.412 0.917 0.652 0.042 0.908 0.245 3.033 1.239 3.979 0.963 0.916 1.938 0.406 2.312 0.125s0.906-0.531 0.844-1.312c-0.038-0.477-0.483-1.060-0.938-1.83-0.081-0.216-0.184-0.443-0.316-0.686l-0.291-0.984c0 0 0.174-0.406 0.174-0.696s0.291-0.349 0.291-1.276-0.291-1.971-0.291-1.971l-0.020-0.414c0 0 0.434 0.404 0.779 0.523 0.424 0.145 0.867 0.301 0.924 0.011 0.059-0.29-0.176-0.526 0.115-0.526 0.289 0 0.521-0.174 0.58-0.348 0.057-0.174-0.287-0.428-0.227-0.628 0.098-0.336 0.332-0.292 0.309-0.47zM25.688 19.875c-0.239-0.144-0.781-0.812-0.219-1.062s0.812 0.656 0.812 0.656c0.094 0.625-0.281 0.593-0.593 0.406z"></path>
</svg>
