<?xml version="1.0" encoding="utf-8"?>
<!-- Generated by IcoMoon.io -->
<!DOCTYPE svg PUBLIC "-//W3C//DTD SVG 1.1//EN" "http://www.w3.org/Graphics/SVG/1.1/DTD/svg11.dtd">
<svg version="1.1" xmlns="http://www.w3.org/2000/svg" xmlns:xlink="http://www.w3.org/1999/xlink" width="32" height="32" viewBox="0 0 32 32">
<path d="M31.989 13.452c-0.116-0.757-1.513-2.008-1.92-1.979s-1.949 0.611-2.59 1.396c-0.224 0.275-1.774 1.804-2.211 1.92s-2.415-0.232-2.677-0.349-1.483-0.67-1.483-0.67 0.203-0.61 0.494-0.814c0.291-0.203 0.262-1.251-0.116-1.92s-1.164-1.862-1.861-1.92c-0.698-0.059-1.833-0.378-1.892 0.582s-0.175 2.793-0.291 2.938c0 0-3.433-1.135-5.236-1.484s-4.015 0.029-4.742 0.088c-0.728 0.058-1.571 0.407-1.892 0.407-0.319 0-1.6-0.059-2.123 0.116s-1.019 0.814-1.106 1.483-0.146 1.339-0.29 1.63c-0.146 0.29-0.902 1.105-1.077 1.222-0.174 0.116-0.872 0.698-0.96 1.047-0.087 0.35 0.204 1.164 0.204 1.164s-0.204 0.262-0.059 0.582c0.146 0.319 0.757 0.465 1.076 0.582 0.32 0.116 2.328 0.523 2.444 0.64s4.219 1.222 5.004 1.338c0.785 0.117 4.975 0.582 6.633 0.117 1.658-0.466 4.073-2.008 4.073-2.008l0.698-0.204c0 0 0.291 1.717 0.582 2.124s1.251 0.902 1.601 0.757c0.349-0.146 1.338-1.513 1.513-2.065 0.174-0.553 0.174-1.396-0.117-1.833-0.29-0.437-1.076-1.193-1.076-1.193s0.902-0.203 1.193-0.174c0.291 0.028 1.454 0.319 1.716 0.436s3.491 3.317 3.928 3.288 1.979-1.426 2.153-2.473c0.174-1.048-0.553-2.183-0.466-2.531s0.989-1.484 0.873-2.24zM3.914 14.79c-0.554 0-1.004-0.547-1.004-1.222s0.45-1.222 1.004-1.222c0.555 0 1.004 0.547 1.004 1.222s-0.449 1.222-1.004 1.222z"></path>
</svg>
