<?xml version="1.0" encoding="utf-8"?>
<!-- Generated by IcoMoon.io -->
<!DOCTYPE svg PUBLIC "-//W3C//DTD SVG 1.1//EN" "http://www.w3.org/Graphics/SVG/1.1/DTD/svg11.dtd">
<svg version="1.1" xmlns="http://www.w3.org/2000/svg" xmlns:xlink="http://www.w3.org/1999/xlink" width="32" height="32" viewBox="0 0 32 32">
<path d="M30.701 23.778c0 0 0.452-1.016 0.367-1.298s-0.395 0-0.395 0 0.056-0.508-0.169-0.875-0.564 0.028-0.564 0.028 0.056-0.649-0.31-0.818c-0.367-0.169-0.705-0.028-0.705-0.028s-0.508-2.708-0.733-3.442c-0.226-0.733-2.201-4.57-2.201-4.57s-2.144-2.342-3.639-2.398-2.138-0.431-2.68-0.452c-2.229-0.085-3.611 0.677-3.611 0.677s-0.987-0.056-1.58-0.169c-0.592-0.113-1.721 0.141-1.862 0.31s-1.016 0.282-1.016 0.198-0.141-0.339-0.649-0.367c-0.189-0.011 0.056-0.903 0.056-0.903s0.056-0.367 0.395-0.592c0.339-0.226 1.072-1.213 1.439-1.834s0.31-1.693 0.31-1.693 0.254-2.003-0.028-2.201c-0.282-0.198-0.508-0.564-1.072-0.395s-1.806 0.48-2.003 0.818c-0.198 0.339-0.959 0.818-1.157 2.003s-0.48 1.185-0.564 1.383c-0.085 0.198-0.113 0.48-0.254 0.903s-0.31 0.48-0.677 0.536c0 0-0.705 0.282-1.072 0.339s-1.947 0.733-2.229 0.931c-0.282 0.198-0.282 0.564-0.677 0.846s-1.298 1.411-1.495 1.636-0.846 0.903-0.846 1.664c0 0.762 0.395 0.564 0.395 0.564s-0.028 0.339 0.113 0.649c0.141 0.31 0.423 0.508 0.875 0.621s1.241 0.085 1.241 0.085 0.649 0.141 1.551 0.254 1.58 0.169 1.58 0.169-0.31 0.48-0.056 0.762c0.254 0.282 1.072 0.818 1.129 0.903s1.185 1.495 1.777 1.721c0.592 0.226 1.947 1.185 1.947 1.185s1.636 0.649 1.806 0.903c0.169 0.254 0.226 0.733 0.226 0.733s-0.733 0.056-1.016 0.367-0.367 0.733-0.367 0.733-0.169 0.452-0.113 0.564c0.056 0.113 0.48 0.113 0.48 0.113s-0.536 0.762-0.452 1.016c0.085 0.254 0.875 0.198 0.987 0.198s1.241 0.367 1.664 0.367c0.423 0 1.58-0.056 1.862 0s2.878 0.48 3.16 0.395c0.282-0.085 1.467 0.085 1.467 0.085s2.567-0.141 3.273-0.198c0.705-0.056 2.172-0.339 2.172-0.339s2.229 0.141 2.849-0.141c0.621-0.282 1.129-1.016 1.383-1.636 0.252-0.62-0.312-0.31-0.312-0.31zM6.439 11.562c-0.028 0.339-0.508 0.818-0.79 0.931s-0.762-0.056-0.762-0.056-0.282 0.085-0.536 0.085c-0.254 0-0.028-0.226-0.028-0.226s-0.028-0.339 0-0.536 0.48-0.649 0.48-0.649c0.254-0.141 0.705-0.226 1.044-0.169s0.62 0.282 0.592 0.621z"></path>
</svg>
