<svg xmlns="http://www.w3.org/2000/svg" width="32" height="32" viewBox="0 0 32 32"><path d="M31.89 10.367c-.11-.217-.443-.403-.897-.5-.15-.032-.317-.078-.372-.101s-.278-.111-.497-.197a7.39 7.39 0 0 1-.621-.275c-1.472-.793-1.895-.915-3.329-.95-1.33-.032-1.488-.083-1.571-.519-.098-.509-.529-.917-.921-.918l.001.01c-.057 0-.111.016-.165.024-.175.058-.424.305-.424.421 0 .035-.146.134-.323.222s-.349.209-.38.269c-.101.189-.312.382-.418.382-.056 0-.126.024-.156.056-.031.032-.255.065-.496.077-.241.016-.445.042-.455.069-.01.024-.069.048-.135.048-.089 0-.11.019-.087.081.039.101-.105.217-.279.219-.144 0-.284.107-.414.309-.071.109-.125.136-.28.136-.11 0-.218.032-.254.074-.035.04-.074.063-.087.05-.04-.039-.31.136-.31.202 0 .073-.115.12-.3.12-.078 0-.154.021-.171.046-.049.08-.334.202-.472.202-.072 0-.154.022-.182.051-.034.035-.102.033-.21 0-.119-.041-.177-.042-.229 0-.039.032-.244.063-.458.069-.371.016-.41 0-.89-.227-.276-.131-.556-.239-.621-.239s-.306-.045-.533-.098a3.494 3.494 0 0 0-.605-.097c-.215 0-.59-.069-.987-.182a1.178 1.178 0 0 0-.429-.046.53.53 0 0 1-.304-.026c-.19-.076-.481-.088-.808-.033-.182.032-.285.029-.321-.016-.077-.077-.132-.066-.132.027 0 .072-.093.078-.857.059-.566-.016-.905-.043-.993-.086-.117-.057-.153-.054-.271.023a1.077 1.077 0 0 1-.287.126 5.509 5.509 0 0 0-.426.142c-.149.057-.315.104-.367.104s-.187.054-.299.117a1.518 1.518 0 0 1-.372.154c-.094.02-.271.091-.394.155-.122.066-.286.12-.364.12s-.142.021-.142.043c0 .024-.047.056-.104.072-.076.02-.096.054-.073.123.037.117-.019.162-.379.304-.155.061-.321.153-.368.207-.048.052-.109.095-.139.095-.028 0-.131.074-.228.165s-.388.261-.647.378c-.522.236-.599.285-.583.367.006.032-.056.089-.138.131-.244.125-.621.399-.621.45 0 .027-.084.083-.187.125-.208.087-.47.374-.371.407.114.038.062.108-.213.283-.15.095-.272.205-.272.242s-.104.14-.229.229c-.188.134-.222.183-.197.28.022.089-.001.137-.094.197-.066.043-.109.11-.096.146.015.036.001.081-.029.099s-.043.074-.028.123c.016.049-.004.116-.046.151s-.076.092-.076.128-.071.172-.158.301c-.112.166-.141.241-.096.256.039.016-.07.154-.277.354-.188.183-.373.404-.41.492-.061.146-.059.168.026.23.091.066.092.074-.025.197a.542.542 0 0 0-.133.239c-.005.063-.012.128-.014.145s-.097.135-.208.261c-.202.229-.202.231-.075.231.159 0 .17.113.021.219-.197.139-.053.141.182 0 .126-.075.241-.123.256-.107.016.017-.088.169-.231.341-.215.258-.248.321-.186.36.065.04.064.066-.014.2-.098.171-.174.525-.113.524a.785.785 0 0 0 .203-.098c.147-.09.166-.092.194-.018.018.043.006.123-.026.172-.081.131-.072.152.055.135.089-.016.107.016.093.084-.096.527-.072 1.492.038 1.561.043.025.054.08.03.152-.032.102-.021.107.113.076.147-.031.147-.031.133.182-.02.277.013.389.104.354.05-.018.075.017.079.092.003.063.012.186.018.268a.414.414 0 0 1-.025.198c-.019.026-.037.133-.04.237s-.022.216-.044.248c-.021.033-.042.285-.046.559-.012.764-.015.811-.068.844-.077.049-.006.123.084.088.063-.023.07-.016.04.088-.021.066.483.576.627.734.112.123.207.59 2.654.813 16.246 1.237 26.098.166 26.608-.116.541-.1.482-.252 0-.25-.049-.02-4.914.678-17.889-.219l-3.683-.412c.051 0 3.715.061 4.337.062.078 0 .332.05.534 0 .203-.053.993 0 1.321-.047.626-.09.737-.142.793-.365a.621.621 0 0 1 .112-.219c.069-.078.139-.111.064-.141-.045-.017-.327-.199-.371-.162-.044.036-.197-.154-.242-.15-.079.025-.712-.142-.758-.137-.045 0-.257.02-.387.116-.183.017-.124.061-.256.081-.204-.041-.657.029-.679-.164-.039-.295-.034-.354.041-.438.065-.072.087-.182.087-.464-.001-.346.029-.44.104-.319.061.096.129-.016.098-.156-.031-.146.046-.198.152-.1.094.088.365-.089.529-.34.184-.279.244-.311.64-.326.234-.016.324-.04.578-.214.244-.167.344-.205.527-.205.125 0 .24-.021.255-.046s.16-.043.321-.039c.224.016.319-.016.396-.087a.231.231 0 0 1 .232-.06c.088.021.203 0 .353-.073.176-.085.246-.097.331-.056.109.055.295.115.432.143.041.016.151.029.245.049.111.021.255.117.412.275.133.133.269.242.303.242.033 0 .1.066.147.144.047.079.149.198.228.265a.972.972 0 0 1 .205.24c.121.232.578.904.733.927.227.159.719.819.993.999.191.125.629.023.949.105l.188.197c.145.15.098-.139.188-.054.218.091.361.42.574.421h.938c.561 0 .923.072 1.373 0 .366-.061-.057-.422-.407-.498-.498-.109-.847-.723-.995-.788-1.327-.583-1.075-.366-1.448-1.202-.106-.164-.262-.438-.344-.605s-.171-.332-.197-.366c-.06-.075-.113-.296-.137-.558a14.88 14.88 0 0 0-.148-1.158c-.021-.091-.011-.324.023-.521l.071-.442a.402.402 0 0 1 .095-.177c.046-.051.085-.107.085-.123s.073-.158.163-.318.193-.385.231-.502c.048-.146.096-.211.16-.211.063 0 .091-.036.091-.124 0-.069.022-.125.05-.125s.05-.049.05-.105c0-.081.023-.098.1-.078.072.019.1 0 .1-.066 0-.05.025-.204.058-.343.044-.19.08-.252.148-.252.06 0 .092-.038.092-.105 0-.058.056-.17.123-.25.101-.12.113-.168.074-.272-.064-.17-.065-.167.082-.167.112 0 .125-.016.096-.111-.082-.261-.063-.312.114-.298.133.016.194-.018.299-.136.146-.167.481-.354.571-.32.031.016.18-.027.33-.086.177-.069.414-.114.671-.125.219-.016.446-.042.507-.072a.367.367 0 0 1 .224-.023c.081.022.137 0 .19-.069.059-.077.15-.105.397-.123.646-.043.649-.177.787-.23.343-.117.677-.142.783-.335.018-.09-.042-.17-.012-.179.03-.016.288-.043.452-.078.163-.035.354-.101.425-.15a.909.909 0 0 1 .258-.12.42.42 0 0 0 .189-.104c.032-.039.08-.069.107-.069.092 0 .857-.412.846-.958-.003-.123.149-.262.212-.34l.113-.14c.045-.135.039-.656-.084-.896zm-3.846.165c-.022.044-.044.034-.111.044-.067.012-.156.379-.802.424-.479.033-.926-.245-.829-.606.228-.859 1.029-.619 1.229-.519.201.1.338.483.445.512.169.045.068.145.068.145z"/></svg>