<?xml version="1.0" encoding="utf-8"?>
<!-- Generated by IcoMoon.io -->
<!DOCTYPE svg PUBLIC "-//W3C//DTD SVG 1.1//EN" "http://www.w3.org/Graphics/SVG/1.1/DTD/svg11.dtd">
<svg version="1.1" xmlns="http://www.w3.org/2000/svg" xmlns:xlink="http://www.w3.org/1999/xlink" width="32" height="32" viewBox="0 0 32 32">
<path d="M31.89 10.367c-0.11-0.217-0.443-0.403-0.897-0.5-0.15-0.032-0.317-0.078-0.372-0.101s-0.278-0.111-0.497-0.197c-0.219-0.087-0.498-0.208-0.621-0.275-1.472-0.793-1.895-0.915-3.329-0.95-1.33-0.032-1.488-0.083-1.571-0.519-0.098-0.509-0.529-0.917-0.921-0.918l0.001 0.010c-0.057 0-0.111 0.016-0.165 0.024-0.175 0.058-0.424 0.305-0.424 0.421 0 0.035-0.146 0.134-0.323 0.222s-0.349 0.209-0.38 0.269c-0.101 0.189-0.312 0.382-0.418 0.382-0.056 0-0.126 0.024-0.156 0.056-0.031 0.032-0.255 0.065-0.496 0.077-0.241 0.016-0.445 0.042-0.455 0.069-0.010 0.024-0.069 0.048-0.135 0.048-0.089 0-0.11 0.019-0.087 0.081 0.039 0.101-0.105 0.217-0.279 0.219-0.144 0-0.284 0.107-0.414 0.309-0.071 0.109-0.125 0.136-0.28 0.136-0.11 0-0.218 0.032-0.254 0.074-0.035 0.040-0.074 0.063-0.087 0.050-0.040-0.039-0.31 0.136-0.31 0.202 0 0.073-0.115 0.12-0.3 0.12-0.078 0-0.154 0.021-0.171 0.046-0.049 0.080-0.334 0.202-0.472 0.202-0.072 0-0.154 0.022-0.182 0.051-0.034 0.035-0.102 0.033-0.21 0-0.119-0.041-0.177-0.042-0.229 0-0.039 0.032-0.244 0.063-0.458 0.069-0.371 0.016-0.41 0-0.89-0.227-0.276-0.131-0.556-0.239-0.621-0.239s-0.306-0.045-0.533-0.098c-0.227-0.055-0.5-0.097-0.605-0.097-0.215 0-0.59-0.069-0.987-0.182-0.149-0.042-0.338-0.063-0.429-0.046-0.089 0.017-0.226 0.016-0.304-0.026-0.19-0.076-0.481-0.088-0.808-0.033-0.182 0.032-0.285 0.029-0.321-0.016-0.077-0.077-0.132-0.066-0.132 0.027 0 0.072-0.093 0.078-0.857 0.059-0.566-0.016-0.905-0.043-0.993-0.086-0.117-0.057-0.153-0.054-0.271 0.023-0.074 0.049-0.203 0.106-0.287 0.126-0.084 0.021-0.275 0.086-0.426 0.142-0.149 0.057-0.315 0.104-0.367 0.104s-0.187 0.054-0.299 0.117c-0.111 0.067-0.279 0.133-0.372 0.154-0.094 0.020-0.271 0.091-0.394 0.155-0.122 0.066-0.286 0.12-0.364 0.12s-0.142 0.021-0.142 0.043c0 0.024-0.047 0.056-0.104 0.072-0.076 0.020-0.096 0.054-0.073 0.123 0.037 0.117-0.019 0.162-0.379 0.304-0.155 0.061-0.321 0.153-0.368 0.207-0.048 0.052-0.109 0.095-0.139 0.095-0.028 0-0.131 0.074-0.228 0.165s-0.388 0.261-0.647 0.378c-0.522 0.236-0.599 0.285-0.583 0.367 0.006 0.032-0.056 0.089-0.138 0.131-0.244 0.125-0.621 0.399-0.621 0.45 0 0.027-0.084 0.083-0.187 0.125-0.208 0.087-0.47 0.374-0.371 0.407 0.114 0.038 0.062 0.108-0.213 0.283-0.15 0.095-0.272 0.205-0.272 0.242s-0.104 0.14-0.229 0.229c-0.188 0.134-0.222 0.183-0.197 0.28 0.022 0.089-0.001 0.137-0.094 0.197-0.066 0.043-0.109 0.11-0.096 0.146 0.015 0.036 0.001 0.081-0.029 0.099s-0.043 0.074-0.028 0.123c0.016 0.049-0.004 0.116-0.046 0.151s-0.076 0.092-0.076 0.128-0.071 0.172-0.158 0.301c-0.112 0.166-0.141 0.241-0.096 0.256 0.039 0.016-0.070 0.154-0.277 0.354-0.188 0.183-0.373 0.404-0.41 0.492-0.061 0.146-0.059 0.168 0.026 0.23 0.091 0.066 0.092 0.074-0.025 0.197-0.065 0.071-0.126 0.177-0.133 0.239-0.005 0.063-0.012 0.128-0.014 0.145s-0.097 0.135-0.208 0.261c-0.202 0.229-0.202 0.231-0.075 0.231 0.159 0 0.17 0.113 0.021 0.219-0.197 0.139-0.053 0.141 0.182 0 0.126-0.075 0.241-0.123 0.256-0.107 0.016 0.017-0.088 0.169-0.231 0.341-0.215 0.258-0.248 0.321-0.186 0.36 0.065 0.040 0.064 0.066-0.014 0.2-0.098 0.171-0.174 0.525-0.113 0.524 0.021 0 0.114-0.043 0.203-0.098 0.147-0.090 0.166-0.092 0.194-0.018 0.018 0.043 0.006 0.123-0.026 0.172-0.081 0.131-0.072 0.152 0.055 0.135 0.089-0.016 0.107 0.016 0.093 0.084-0.096 0.527-0.072 1.492 0.038 1.561 0.043 0.025 0.054 0.080 0.030 0.152-0.032 0.102-0.021 0.107 0.113 0.076 0.147-0.031 0.147-0.031 0.133 0.182-0.020 0.277 0.013 0.389 0.104 0.354 0.050-0.018 0.075 0.017 0.079 0.092 0.003 0.063 0.012 0.186 0.018 0.268 0.006 0.080-0.006 0.171-0.025 0.198-0.019 0.026-0.037 0.133-0.040 0.237s-0.022 0.216-0.044 0.248c-0.021 0.033-0.042 0.285-0.046 0.559-0.012 0.764-0.015 0.811-0.068 0.844-0.077 0.049-0.006 0.123 0.084 0.088 0.063-0.023 0.070-0.016 0.040 0.088-0.021 0.066 0.483 0.576 0.627 0.734 0.112 0.123 0.207 0.59 2.654 0.813 16.246 1.237 26.098 0.166 26.608-0.116 0.541-0.1 0.482-0.252 0-0.25-0.049-0.020-4.914 0.678-17.889-0.219l-3.683-0.412c0.051 0 3.715 0.061 4.337 0.062 0.078 0 0.332 0.050 0.534 0 0.203-0.053 0.993 0 1.321-0.047 0.626-0.090 0.737-0.142 0.793-0.365 0.019-0.073 0.069-0.171 0.112-0.219 0.069-0.078 0.139-0.111 0.064-0.141-0.045-0.017-0.327-0.199-0.371-0.162-0.044 0.036-0.197-0.154-0.242-0.15-0.079 0.025-0.712-0.142-0.758-0.137-0.045 0-0.257 0.020-0.387 0.116-0.183 0.017-0.124 0.061-0.256 0.081-0.204-0.041-0.657 0.029-0.679-0.164-0.039-0.295-0.034-0.354 0.041-0.438 0.065-0.072 0.087-0.182 0.087-0.464-0.001-0.346 0.029-0.44 0.104-0.319 0.061 0.096 0.129-0.016 0.098-0.156-0.031-0.146 0.046-0.198 0.152-0.1 0.094 0.088 0.365-0.089 0.529-0.34 0.184-0.279 0.244-0.311 0.64-0.326 0.234-0.016 0.324-0.040 0.578-0.214 0.244-0.167 0.344-0.205 0.527-0.205 0.125 0 0.24-0.021 0.255-0.046s0.16-0.043 0.321-0.039c0.224 0.016 0.319-0.016 0.396-0.087 0.071-0.066 0.141-0.081 0.232-0.060 0.088 0.021 0.203 0 0.353-0.073 0.176-0.085 0.246-0.097 0.331-0.056 0.109 0.055 0.295 0.115 0.432 0.143 0.041 0.016 0.151 0.029 0.245 0.049 0.111 0.021 0.255 0.117 0.412 0.275 0.133 0.133 0.269 0.242 0.303 0.242 0.033 0 0.1 0.066 0.147 0.144 0.047 0.079 0.149 0.198 0.228 0.265 0.079 0.066 0.171 0.174 0.205 0.24 0.121 0.232 0.578 0.904 0.733 0.927 0.227 0.159 0.719 0.819 0.993 0.999 0.191 0.125 0.629 0.023 0.949 0.105l0.188 0.197c0.145 0.15 0.098-0.139 0.188-0.054 0.218 0.091 0.361 0.42 0.574 0.421 0.328 0 0.641 0 0.938 0 0.561 0 0.923 0.072 1.373 0 0.366-0.061-0.057-0.422-0.407-0.498-0.498-0.109-0.847-0.723-0.995-0.788-1.327-0.583-1.075-0.366-1.448-1.202-0.106-0.164-0.262-0.438-0.344-0.605s-0.171-0.332-0.197-0.366c-0.060-0.075-0.113-0.296-0.137-0.558-0.034-0.389-0.113-0.997-0.148-1.158-0.021-0.091-0.011-0.324 0.023-0.521 0.032-0.197 0.064-0.396 0.071-0.442 0.006-0.046 0.048-0.126 0.095-0.177 0.046-0.051 0.085-0.107 0.085-0.123s0.073-0.158 0.163-0.318 0.193-0.385 0.231-0.502c0.048-0.146 0.096-0.211 0.16-0.211 0.063 0 0.091-0.036 0.091-0.124 0-0.069 0.022-0.125 0.050-0.125s0.050-0.049 0.050-0.105c0-0.081 0.023-0.098 0.1-0.078 0.072 0.019 0.1 0 0.1-0.066 0-0.050 0.025-0.204 0.058-0.343 0.044-0.19 0.080-0.252 0.148-0.252 0.060 0 0.092-0.038 0.092-0.105 0-0.058 0.056-0.17 0.123-0.25 0.101-0.12 0.113-0.168 0.074-0.272-0.064-0.17-0.065-0.167 0.082-0.167 0.112 0 0.125-0.016 0.096-0.111-0.082-0.261-0.063-0.312 0.114-0.298 0.133 0.016 0.194-0.018 0.299-0.136 0.146-0.167 0.481-0.354 0.571-0.32 0.031 0.016 0.18-0.027 0.33-0.086 0.177-0.069 0.414-0.114 0.671-0.125 0.219-0.016 0.446-0.042 0.507-0.072 0.060-0.031 0.16-0.039 0.224-0.023 0.081 0.022 0.137 0 0.19-0.069 0.059-0.077 0.15-0.105 0.397-0.123 0.646-0.043 0.649-0.177 0.787-0.23 0.343-0.117 0.677-0.142 0.783-0.335 0.018-0.090-0.042-0.17-0.012-0.179 0.030-0.016 0.288-0.043 0.452-0.078 0.163-0.035 0.354-0.101 0.425-0.15 0.070-0.049 0.186-0.103 0.258-0.12 0.072-0.018 0.158-0.066 0.189-0.104 0.032-0.039 0.080-0.069 0.107-0.069 0.092 0 0.857-0.412 0.846-0.958-0.003-0.123 0.149-0.262 0.212-0.34l0.113-0.14c0.045-0.135 0.039-0.656-0.084-0.896zM28.044 10.532c-0.022 0.044-0.044 0.034-0.111 0.044-0.067 0.012-0.156 0.379-0.802 0.424-0.479 0.033-0.926-0.245-0.829-0.606 0.228-0.859 1.029-0.619 1.229-0.519 0.201 0.1 0.338 0.483 0.445 0.512 0.169 0.045 0.068 0.145 0.068 0.145z"></path>
</svg>
