<?xml version="1.0" encoding="utf-8"?>
<!-- Generated by IcoMoon.io -->
<!DOCTYPE svg PUBLIC "-//W3C//DTD SVG 1.1//EN" "http://www.w3.org/Graphics/SVG/1.1/DTD/svg11.dtd">
<svg version="1.1" xmlns="http://www.w3.org/2000/svg" xmlns:xlink="http://www.w3.org/1999/xlink" width="32" height="32" viewBox="0 0 32 32">
<path d="M31.212 15.625c-0.468-1.208-1.587-2.193-2.235-2.281-0.647-0.089-1.163 0.179-1.365 0.447-0.2 0.269-0.246 1.074-0.246 1.074s-1.319 0.268-1.453 0.469c-0.134 0.202-0.2 0.514-0.2 0.514s-0.246 0.111-0.404 0.068c-0.156-0.045-1.32-0.111-1.656 0.625-0.334 0.739-0.444 1.631-0.558 1.675-0.112 0.049-0.202-0.197-0.382-0.11-0.177 0.091-0.87 0.426-0.87 0.426s-0.336-0.403-0.514-0.583c-0.18-0.18-0.314-0.221-0.314-0.221s0.448-0.248 0.492-0.72c0.045-0.467-0.178-1.921-0.312-2.055-0.133-0.133-0.426-0.583-0.426-0.583s0.27-0.065 0.471-0.267c0.199-0.202 0.582-0.738 0.582-0.738s0.132 0.335 0.355 0.446c0.226 0.113 1.008 0.851 1.255 0.918 0.244 0.067 0.269-0.045 0.269-0.045s0.468 0.223 0.693 0.135c0.222-0.090 0.378-0.291 0.378-0.291s-0.066-0.112-0.535-0.089c-0.424 0.019-0.625-0.089-0.625-0.089s0.089-0.089-0.047-0.27c-0.133-0.179-1.162-1.208-1.542-1.319-0.381-0.112-0.852-0.068-0.852-0.068s-0.713-0.871-0.871-0.916c-0.158-0.045 0.445 0.022 0.672-0.269 0.223-0.29-0.158-0.136-0.246-0.111-0.090 0.021-0.716 0.111-0.716 0.111s-0.069 0.045-0.159-0.136c-0.087-0.177-0.96-0.983-1.072-1.028-0.11-0.044-0.493-0.044-0.493-0.044s-0.244-0.179-0.515-0.179c-0.27 0-1.027 0.895-1.027 0.895l-0.268-0.111c0 0-0.917-1.075-1.253-1.185-0.335-0.113-0.447 0.044-0.447 0.044s-0.201-0.314-0.492-0.29c-0.291 0.021-0.895 0.558-0.74 1.185 0.158 0.625 1.79 2.728 1.79 2.728s-0.76-0.626-1.297-0.827-2.349-0.962-2.819-1.006c-0.469-0.045-1.072-0.181-1.072-0.181s-0.381-0.244-0.716-0.312c-0.336-0.067-1.588 0.157-1.588 0.157l-0.225-0.135c0 0-0.133-0.626-0.447-0.983-0.313-0.36-1.319-0.896-1.633-0.918-0.314-0.020-0.738-0.177-0.738-0.177s0.334-0.85-0.402-1.678c-0.738-0.828-1.567-0.916-1.567-0.916s0.135-0.828-0.044-1.119c-0.179-0.292-0.447-0.984-0.447-0.984s0.402-0.381 0.312-0.716c-0.089-0.335-0.156-1.008-0.156-1.008s0.873 0.114 1.074 0.025c0.201-0.090 0.425-0.27 0.425-0.27s0.201 0.022 0.313 0.112c0.111 0.089 1.639 1.448 2.93 0.984 0.872-0.313 0.693-1.074 0.693-1.074s0.066 0.471-0.47 0.649c-0.437 0.146-0.514-0.156-0.648-0.514-0.095-0.252-0.090-1.251-0.783-1.723-0.693-0.47-1.611-0.267-1.745-0.089-0.134 0.18-0.492 0.336-0.492 0.336s-0.066-0.202-0.312-0.179c-0.247 0.023-1.923 0.134-2.125 0.404-0.202 0.268-0.090 0.491-0.090 0.491s-0.716 0.447-0.761 0.894c-0.043 0.448 0.246 1.656 0.246 1.656s-0.468 1.185-0.089 1.654c0.38 0.471 0.917 1.006 0.917 1.006s0.134 1.254 0.582 1.768c0.448 0.513 1.276 0.917 1.499 0.983 0.223 0.068 0.447 0.133 0.447 0.133s0.089 1.187 0.806 1.656c0.714 0.469 1.743 0.693 1.743 0.693s-0.045 1.568 0.225 1.925c0.268 0.357 0.469 1.073 0.714 1.32 0.247 0.246 1.186 1.006 1.208 1.164 0.023 0.154-0.514-0.068-0.605 0.11-0.088 0.18-0.088 0.311-0.088 0.311s-0.179-0.22-0.449-0.177c-0.268 0.045-2.146 1.095-2.279 1.587-0.117 0.422-0.017 0.466 0.013 0.471-0.057-0.002-0.386 0.008-0.283 0.312 0.111 0.337 0.873 2.329 0.873 2.329l0.133 0.244c0 0-0.201 0.045-0.312 0.224-0.113 0.18-0.359 0.58-0.494 0.717-0.133 0.134 0 0.289 0.135 0.313 0.135 0.021 0.962-0.56 1.096-0.851 0.133-0.292 0-0.314 0-0.314s0.089-0.044 0.089-0.333c0-0.291-0.648-2.238-0.693-2.305-0.045-0.068 0.268-0.047 0.492-0.248 0.223-0.202 1.79-1.364 1.79-1.364s-0.067 0.114 0.134 0.244c0.202 0.139 0.76 0.631 0.76 0.631s-1.455 1.070-1.499 1.184c-0.044 0.114 0.068 0.312 0.068 0.312s-0.224 0.159-0.179 0.379c0.044 0.225 0.648 2.438 0.648 2.438s-0.158 0.136-0.246 0.337c-0.090 0.2-0.292 0.783-0.292 1.005 0 0.223 0.225 0.249 0.336 0.134 0.112-0.107 0.514-0.692 0.604-0.825 0.089-0.134 0.066-0.471 0.066-0.471s0.157-0.044 0.157-0.267c0-0.226-0.514-2.325-0.514-2.325s0.201 0.019 0.357-0.091c0.157-0.11 1.61-1.164 1.61-1.164l0.65 0.357c0 0-1.522 1.144-1.746 1.455-0.223 0.312-0.022 0.49-0.022 0.49s-0.134 0.159-0.156 0.448c-0.022 0.292 1.208 2.596 1.208 2.596s-0.135 0.064-0.18 0.224c-0.045 0.155-0.402 1.005-0.313 1.162 0.090 0.155 0.248 0.18 0.336 0.113 0.088-0.070 0.336-0.829 0.446-0.918 0.113-0.091 0.202-0.313 0.18-0.402-0.003-0.016-0.007-0.023-0.008-0.028 0.004 0 0.017-0.025 0.030-0.266 0.023-0.399-0.736-2.188-0.782-2.257-0.044-0.068-0.269-0.246-0.269-0.246s0.358-0.021 0.491-0.111c0.135-0.089 1.924-1.477 1.924-1.477l0.738 0.672c0 0-0.85 0.736-0.895 1.051-0.045 0.312 0.112 0.448 0.112 0.448s-0.336 0.18-0.313 0.513c0.022 0.339 1.073 2.978 1.073 2.978l0.201 0.244c0 0-0.246 0.044-0.267 0.333-0.023 0.296-0.135 0.672-0.069 0.765 0.069 0.085 0.201 0.021 0.314-0.068 0.112-0.093 0.537-0.896 0.515-1.074s-0.113-0.335-0.113-0.335-0.022-0.022-0.044-0.312c-0.022-0.291-0.402-1.453-0.537-1.657-0.134-0.2-0.268-0.692-0.268-0.692s-0.112 0 0.089-0.18c0.202-0.18 0.694-0.602 0.716-0.67s0.447-0.67 0.447-0.67 1.14 0.111 1.387 0.29c0.248 0.18 0.939 0.491 1.186 0.537 0.245 0.043 0.871-0.024 0.871-0.024s0.091 0.092 0.382 0.113c0.29 0.021 0.604-0.137 0.604-0.137s-0.403 0.561-0.424 0.74c-0.023 0.18 0 0.403 0 0.403s-0.829-0.025-1.231 0.156c-0.403 0.18-1.14 1.118-1.23 1.364s-0.045 0.848-0.045 0.848-0.335 0.472-0.379 0.809c-0.045 0.333 0.357 1.609 0.515 1.855 0.156 0.244 2.014 1.050 2.014 1.050s1.497 0.918 2.569 0.848c1.074-0.063 3.244-0.312 4.405-1.765 1.166-1.451 1.1-1.966 1.121-2.214 0.021-0.246-0.248-0.089-0.381 0.021-0.137 0.114-0.537 0.246-0.537 0.246s0.16-0.278 0-0.267c-0.293 0.021-0.491 0.066-0.783 0.135-0.291 0.065-0.447 0.065-0.804 0.024-0.29-0.040-1.9-0.517-2.416-0.651s-2.147-0.401-2.865-0.091c-0.715 0.314-1.363 0.874-1.363 0.874s0.023-0.424-0.089-0.513c-0.112-0.091 0.269-0.091 0.491-0.202 0.224-0.111 1.275-0.651 1.453-0.938 0.178-0.291 0.449-1.209 0.449-1.209s0.448 0 0.716-0.269c0.267-0.267 0.468-0.716 0.468-0.938 0-0.226-0.268-0.829-0.268-0.829s0.268 0.091 0.336-0.089c0.066-0.178 0.047-0.38 0.047-0.38s0.625 0.56 0.871 0.56 0.646 0.333 0.715 0.357c0.068 0.023 0.225 0.135 0.27 0.064 0.045-0.064-0.471-1.519-0.471-1.519s0.359 0.225 0.471 0.491c0.11 0.269 0 0.651 0.133 0.692 0 0 0.493-1.050 0.403-1.988 0 0 0.134-0.022 0.269-0.022 0.132 0 0.647-0.111 0.851-0.468 0.2-0.359 0.244-0.717 0.244-0.717s1.186 0.399 1.791-0.359c0.604-0.761 0.559-1.611 0.58-1.768 0.023-0.154 0.11-0.154 0.225-0.154 0.111 0 0.088 0.421 0.312 0.38 0.226-0.046 1.186-0.136 1.253-0.179 0.070-0.047 0.538 1.363 0.494 1.7-0.046 0.335-0.813 1.716-1.365 2.325-0.225 0.246 0.783 0 0.961-0.135 0.179-0.134-0.090-0.337 0.179-0.424 0.27-0.093 0.625 0 0.625-0.291 0-0.292 0.068-0.426 0.294-0.446 0.222-0.025 0.581-0.181 0.692-0.383 0.111-0.2-0.156 0.383-0.111 0.559 0.043 0.18 0.133 0.359-0.045 0.45-0.18 0.087-0.359-0.024-0.428 0.198-0.064 0.226-0.108 0.381-0.288 0.426-0.181 0.046-0.29-0.021-0.424 0.18-0.136 0.203-0.315 0.357-0.448 0.357-0.136 0 0.287 0.15 1.061-0.047 1.123-0.284 1.845-1.472 2.16-2.123 0.313-0.645 0.493-2.302 0.021-3.509zM16.989 14.485c-0.112-0.158-0.761-0.516-0.761-0.516s-0.045-0.492-0.067-0.715c-0.022-0.225-1.409-2.125-1.409-2.125l-0.068-0.537c0 0 1.163 0.648 1.253 0.737 0.089 0.090 0.291-0.021 0.291-0.021l0.224 0.357 0.023 0.515c0 0-0.068 0.492-0.068 0.717-0.001 0.224 0.695 1.744 0.582 1.588zM18.667 15.805l-0.138-0.337c0 0-0.624-1.789-0.825-2.213-0.204-0.426-0.627-0.917-0.514-1.007 0.109-0.088 1.005-1.274 1.005-1.274-0.023 0.088 0.358 0.178 0.448 0.202 0.088 0.021 0.491 0.402 0.491 0.402s-0.963 1.028-0.983 1.296c-0.021 0.27 0.133 0.449 0.133 0.449l-0.112 0.604c0 0 0.292 0.604 0.357 0.916 0.068 0.313 0.382 0.828 0.36 1.030-0.017 0.146 0.101 0.321 0.163 0.4l0.037 0.045c0 0-0.016-0.016-0.037-0.045l-0.385-0.468zM20.725 13.255c-0.068 0.133-0.516 0.692-0.626 0.872-0.114 0.179 0.153 0.334 0.153 0.334s-0.111 0.539-0.043 0.873c0.068 0.336 0.469 1.991 0.469 1.991s-0.627-0.47-0.781-0.536c-0.158-0.068-0.201-0.091-0.201-0.091s0.133-0.403 0.133-0.715c0-0.312-0.559-1.878-0.759-2.125-0.202-0.246-0.338-0.38-0.202-0.447 0.134-0.067 0.626-1.366 0.626-1.366s0.224 0.18 0.29 0.292c0.066 0.112 1.007 0.784 0.941 0.918z"></path>
</svg>
