<?xml version="1.0" encoding="utf-8"?>
<!-- Generated by IcoMoon.io -->
<!DOCTYPE svg PUBLIC "-//W3C//DTD SVG 1.1//EN" "http://www.w3.org/Graphics/SVG/1.1/DTD/svg11.dtd">
<svg version="1.1" xmlns="http://www.w3.org/2000/svg" xmlns:xlink="http://www.w3.org/1999/xlink" width="32" height="32" viewBox="0 0 32 32">
<path d="M21.936 30.789c0 0 0.762-0.051 0.762-0.457s-0.152-0.863-0.152-0.863-0.355-0.711-0.305-1.219 0.051-3.2 0.051-3.2 0.355-0.762 0.355-1.219c0-0.457 0.152-2.336 0.152-2.336s0.406-0.406 0.813-0.406c0.406 0 1.168-0.203 1.523-0.508s1.676-2.133 1.828-2.641c0.152-0.508 0.711-0.914 0.711-1.574s-0.051-2.692-0.355-3.453c-0.305-0.762-0.965-4.52-1.168-5.18s-0.152-1.32-0.152-1.473 0.051-1.32-0.355-2.031-0.559-1.523-0.559-1.523 0.406 0.051 1.219-0.051 0.914-0.457 1.117-0.863 0.254-0.863-0.102-0.813c-0.355 0.051-1.219-0.203-1.574-0.102s-1.117 0.559-1.117 0.559-1.066-0.152-1.32-0.254c-0.254-0.102-0.457-0.355-0.813-0.305s-0.711 0.406-1.016 0.406-1.168 0.051-1.168 0.051-0.406-0.254-0.762-0.508-0.813-0.355-1.27-0.254c-0.457 0.102-0.813 0-0.863 0.203s-0.051 0.406 0.152 0.711c0.203 0.305 0.632 0.637 0.965 0.762 0.406 0.152 1.168 0.203 1.117 0.355s-0.457 0.813-0.711 1.168-0.914 1.93-0.914 1.93-2.742-0.457-3.606-0.559c-0.863-0.102-3.047 0-3.555 0.152s-2.946 0.813-3.606 1.574c-0.66 0.762-1.981 2.59-2.184 4.317s-0.914 5.332-0.813 6.297c0.102 0.965 0.254 2.844 0.66 3.453s0.609 0.965 0.762 1.168 0.254 0.762 0.254 0.762 0.305 1.168 0.355 1.828c0.051 0.66 0.102 1.93-0.102 2.692s-0.457 1.016-0.355 1.523c0.102 0.508 0 0.813 0.203 1.066s1.32 0.508 1.676 0.254c0.355-0.254 0-1.371 0-1.371s0.051-0.559-0.152-0.914c-0.203-0.355-0.406-2.031-0.152-2.438s0.66-1.625 0.609-2.285 0.102-1.473 0.102-1.473 0.457-0.609 0.406-1.066c-0.051-0.457 0.305-0.965 0.305-0.965s0.66 1.168 1.27 1.524c0.609 0.355 1.219 0.609 1.574 0.813s0.863 0.355 0.863 0.355 0.355 0.914 0.508 1.625c0.152 0.711 0.102 3.403-0.102 3.86s-0.508 1.219-0.508 1.524c0 0.305 0.051 0.711 0.355 0.813s1.016 0.203 1.523-0.051c0.187-0.094 0.152-0.406 0.051-0.813s-0.102-0.457-0.152-0.965c-0.051-0.508-0.051-3.657 0.102-4.114s0.457-1.981 0.457-1.981l2.387-0.051c0 0 0.355 1.27 0.355 1.828s0.152 0.863 0.254 1.32c0.102 0.457 0.051 2.59-0.051 3.25s0.117 0.7 0.051 0.965c-0.102 0.406-0.406 0.762-0.152 1.371 0.083 0.199 0.508 0.559 1.168 0.457 0.362-0.056 0.762-0.457 0.762-0.813s-0.305-1.117-0.305-1.117 0.152-0.305 0.051-0.762c-0.102-0.457-0.508-2.692-0.406-3.098s0.508-1.524 0.305-2.234c-0.203-0.711-0.051-1.524-0.051-1.524l1.625-0.355c0 0 0.102 0.751 0.102 1.219 0 0.305 0.152 1.523 0.203 1.93s0.203 1.168 0.152 1.574c-0.051 0.406-0.102 2.895-0.102 2.895s-0.305 0.965-0.203 1.27c0.102 0.304 1.016 0.355 1.016 0.355z"></path>
</svg>
