<svg xmlns="http://www.w3.org/2000/svg" width="32" height="32" viewBox="0 0 32 32"><path d="M31.2 12.96c-.16-.107-.373-.213-.587-.16a4.71 4.71 0 0 1-1.173.16c0-.107 0-.213.053-.267.107-.587.64-1.227.64-1.227l-.16-.16s-.427.587-.587 1.333c-.053.107-.053.213-.053.373h-.053c-.107 0-.32-.053-.533-.107 0-.32.053-.693.107-.907.107-.587.64-1.227.64-1.227l-.16-.16s-.427.587-.587 1.333c-.053.267-.107.64-.107.96-.693-.16-1.6-.427-1.867-.533-.32-.16-1.173-.587-1.867-.64-.747-.053-1.707.16-2.133.267s-.96.213-1.333.107c-.32-.107-2.4-1.12-2.933-1.227s-2.72-.373-4 .533c-1.28.907-2.08 2.56-2.24 3.52s.053 1.707.053 1.707-1.44-.373-2.293-.427c-.853-.053-3.2 0-4.693.48s-3.733 1.28-3.733 1.28-.533.107-.693.213c-.16.107-.107.213.053.213.373 0 1.493-.32 1.653-.373.427-.16 2.933-.907 3.307-.96s2.4-.32 4.053-.053 2.613.64 2.613.64.48.747.64.8c.16.107.693.533.693.533s.107.267.267.32c.16.053.267 0 .267 0l.213.48s.16.48.267.587 0 .32.267.48c.213.107.373.053.48.373.107.267.107.427.107.48 0 .107.053.373.213.427s.107-.32.107-.32-.107-.32.107-.267c.213.053.32.213.373.267.053.107.107.213.267.267.107.107.267.107.267.107s.373.373.373.267-.16-.267-.16-.267l-.053-.267s.107.267.32.267c.213.053.373-.053.373-.053s.32.213.32.107c0-.107-.16-.213-.213-.213s-.373-.213-.373-.213h.427c.107 0 .373.053.32-.053-.107-.107-.267-.107-.267-.107s-.107-.213-.373-.267c-.267-.107-.587-.16-.587-.16s-.48-.107-.693-.427a2.193 2.193 0 0 1-.373-.64l.053-.427s.427 0 .64.107.747.213.907.267c.16 0 .907.267.907.267s.693.213.8.32c.107.107.32.533.427.693.107.213.533.693.693.8s.747.267.747.267.373.267.48.32c.16.053.213.053.213.053l-.053-.16-.213-.213s.16.053.32.053.267.107.427.107c.16 0 .373 0 .267-.107s-.373-.16-.373-.16l-.267-.16s.427.107.48.107h.16c0-.16-.32-.213-.32-.213s-.267-.16-.48-.213a3.55 3.55 0 0 1-.587-.213c-.053-.053-.213-.053-.427-.267 0-.053-.267-.587-.16-.747.053-.107.32-.267.48-.373l.48-.32s.32-.32.587-.32c.267 0 .693-.16.907-.267s.64-.32.8-.32h.693s.267.373.267.533c0 .16-.053.32 0 .48.053.107-.053.373.107.427.107.053.107-.213.107-.213s.107-.32.213-.32c.107 0 .107.267.213.373s.053.267.16.373c.107.107.213.267.267.107v-.373l.053-.267.32.16s.267.267.427.267.107-.107.053-.213c-.053-.107-.267-.427-.267-.427s.267.107.373.107c.107 0 .267-.107.213-.16-.053-.107-.373-.213-.48-.213s.267 0 .267-.107-.267-.213-.373-.213c-.107-.053-.427.107-.587-.053s-.64-.64-.693-.747c-.053-.107.107-.16.16-.48.107-.32.107-.747.107-.747l.587-.587s.907-.373 1.333-.747c.373-.373.8-.64 1.067-.8.053-.053.16-.107.32-.16 0 .32 0 .64.053.907.16.747.587 1.333.587 1.333l.16-.16s-.533-.64-.64-1.28c-.053-.213-.053-.533-.053-.853l.32-.16c.053.267.107.48.213.693.32.693.8 1.173.8 1.173l.107-.16s-.64-.533-.853-1.12c-.053-.16-.16-.427-.213-.64.213-.107.427-.213.533-.32 0 .053.053.053.053.107.32.693.8 1.173.8 1.173l.107-.16s-.64-.533-.853-1.12c0-.053 0-.053-.053-.107.213-.267.267-.373.267-.373s.853-.32 1.013-.587c.053-.053.053-.32-.107-.427zm-4.107 1.493c-.16-.107-.107-.373 0-.427.213-.107.373.16.373.16s-.213.32-.373.267z"/></svg>