<?xml version="1.0" encoding="utf-8"?>
<!-- Generated by IcoMoon.io -->
<!DOCTYPE svg PUBLIC "-//W3C//DTD SVG 1.1//EN" "http://www.w3.org/Graphics/SVG/1.1/DTD/svg11.dtd">
<svg version="1.1" xmlns="http://www.w3.org/2000/svg" xmlns:xlink="http://www.w3.org/1999/xlink" width="32" height="32" viewBox="0 0 32 32">
<path d="M31.2 12.96c-0.16-0.107-0.373-0.213-0.587-0.16-0.16 0.053-0.693 0.16-1.173 0.16 0-0.107 0-0.213 0.053-0.267 0.107-0.587 0.64-1.227 0.64-1.227l-0.16-0.16c0 0-0.427 0.587-0.587 1.333-0.053 0.107-0.053 0.213-0.053 0.373 0 0-0.053 0-0.053 0-0.107 0-0.32-0.053-0.533-0.107 0-0.32 0.053-0.693 0.107-0.907 0.107-0.587 0.64-1.227 0.64-1.227l-0.16-0.16c0 0-0.427 0.587-0.587 1.333-0.053 0.267-0.107 0.64-0.107 0.96-0.693-0.16-1.6-0.427-1.867-0.533-0.32-0.16-1.173-0.587-1.867-0.64-0.747-0.053-1.707 0.16-2.133 0.267s-0.96 0.213-1.333 0.107c-0.32-0.107-2.4-1.12-2.933-1.227s-2.72-0.373-4 0.533c-1.28 0.907-2.080 2.56-2.24 3.52s0.053 1.707 0.053 1.707-1.44-0.373-2.293-0.427c-0.853-0.053-3.2 0-4.693 0.48s-3.733 1.28-3.733 1.28-0.533 0.107-0.693 0.213c-0.16 0.107-0.107 0.213 0.053 0.213 0.373 0 1.493-0.32 1.653-0.373 0.427-0.16 2.933-0.907 3.307-0.96s2.4-0.32 4.053-0.053c1.653 0.267 2.613 0.64 2.613 0.64s0.48 0.747 0.64 0.8c0.16 0.107 0.693 0.533 0.693 0.533s0.107 0.267 0.267 0.32c0.16 0.053 0.267 0 0.267 0l0.213 0.48c0 0 0.16 0.48 0.267 0.587s0 0.32 0.267 0.48c0.213 0.107 0.373 0.053 0.48 0.373 0.107 0.267 0.107 0.427 0.107 0.48 0 0.107 0.053 0.373 0.213 0.427s0.107-0.32 0.107-0.32-0.107-0.32 0.107-0.267c0.213 0.053 0.32 0.213 0.373 0.267 0.053 0.107 0.107 0.213 0.267 0.267 0.107 0.107 0.267 0.107 0.267 0.107s0.373 0.373 0.373 0.267-0.16-0.267-0.16-0.267l-0.053-0.267c0 0 0.107 0.267 0.32 0.267 0.213 0.053 0.373-0.053 0.373-0.053s0.32 0.213 0.32 0.107c0-0.107-0.16-0.213-0.213-0.213s-0.373-0.213-0.373-0.213 0.32 0 0.427 0c0.107 0 0.373 0.053 0.32-0.053-0.107-0.107-0.267-0.107-0.267-0.107s-0.107-0.213-0.373-0.267c-0.267-0.107-0.587-0.16-0.587-0.16s-0.48-0.107-0.693-0.427c-0.267-0.32-0.373-0.64-0.373-0.64l0.053-0.427c0 0 0.427 0 0.64 0.107s0.747 0.213 0.907 0.267c0.16 0 0.907 0.267 0.907 0.267s0.693 0.213 0.8 0.32c0.107 0.107 0.32 0.533 0.427 0.693 0.107 0.213 0.533 0.693 0.693 0.8s0.747 0.267 0.747 0.267 0.373 0.267 0.48 0.32c0.16 0.053 0.213 0.053 0.213 0.053l-0.053-0.16-0.213-0.213c0 0 0.16 0.053 0.32 0.053s0.267 0.107 0.427 0.107c0.16 0 0.373 0 0.267-0.107s-0.373-0.16-0.373-0.16l-0.267-0.16c0 0 0.427 0.107 0.48 0.107 0.107 0 0.16 0 0.16 0 0-0.16-0.32-0.213-0.32-0.213s-0.267-0.16-0.48-0.213c-0.213-0.053-0.48-0.16-0.587-0.213-0.053-0.053-0.213-0.053-0.427-0.267 0-0.053-0.267-0.587-0.16-0.747 0.053-0.107 0.32-0.267 0.48-0.373s0.48-0.32 0.48-0.32 0.32-0.32 0.587-0.32c0.267 0 0.693-0.16 0.907-0.267s0.64-0.32 0.8-0.32c0.16 0 0.693 0 0.693 0s0.267 0.373 0.267 0.533c0 0.16-0.053 0.32 0 0.48 0.053 0.107-0.053 0.373 0.107 0.427 0.107 0.053 0.107-0.213 0.107-0.213s0.107-0.32 0.213-0.32c0.107 0 0.107 0.267 0.213 0.373s0.053 0.267 0.16 0.373c0.107 0.107 0.213 0.267 0.267 0.107 0-0.16 0-0.373 0-0.373l0.053-0.267 0.32 0.16c0 0 0.267 0.267 0.427 0.267s0.107-0.107 0.053-0.213c-0.053-0.107-0.267-0.427-0.267-0.427s0.267 0.107 0.373 0.107c0.107 0 0.267-0.107 0.213-0.16-0.053-0.107-0.373-0.213-0.48-0.213s0.267 0 0.267-0.107c0-0.107-0.267-0.213-0.373-0.213-0.107-0.053-0.427 0.107-0.587-0.053s-0.64-0.64-0.693-0.747c-0.053-0.107 0.107-0.16 0.16-0.48 0.107-0.32 0.107-0.747 0.107-0.747l0.587-0.587c0 0 0.907-0.373 1.333-0.747 0.373-0.373 0.8-0.64 1.067-0.8 0.053-0.053 0.16-0.107 0.32-0.16 0 0.32 0 0.64 0.053 0.907 0.16 0.747 0.587 1.333 0.587 1.333l0.16-0.16c0 0-0.533-0.64-0.64-1.28-0.053-0.213-0.053-0.533-0.053-0.853 0.107-0.053 0.213-0.107 0.32-0.16 0.053 0.267 0.107 0.48 0.213 0.693 0.32 0.693 0.8 1.173 0.8 1.173l0.107-0.16c0 0-0.64-0.533-0.853-1.12-0.053-0.16-0.16-0.427-0.213-0.64 0.213-0.107 0.427-0.213 0.533-0.32 0 0.053 0.053 0.053 0.053 0.107 0.32 0.693 0.8 1.173 0.8 1.173l0.107-0.16c0 0-0.64-0.533-0.853-1.12 0-0.053 0-0.053-0.053-0.107 0.213-0.267 0.267-0.373 0.267-0.373s0.853-0.32 1.013-0.587c0.053-0.053 0.053-0.32-0.107-0.427zM27.093 14.453c-0.16-0.107-0.107-0.373 0-0.427 0.213-0.107 0.373 0.16 0.373 0.16s-0.213 0.32-0.373 0.267z"></path>
</svg>
