<?xml version="1.0" encoding="utf-8"?>
<!-- Generated by IcoMoon.io -->
<!DOCTYPE svg PUBLIC "-//W3C//DTD SVG 1.1//EN" "http://www.w3.org/Graphics/SVG/1.1/DTD/svg11.dtd">
<svg version="1.1" xmlns="http://www.w3.org/2000/svg" xmlns:xlink="http://www.w3.org/1999/xlink" width="32" height="32" viewBox="0 0 32 32">
<path d="M31.307 24.053c-0.213-0.48-0.907-0.32-0.907-0.32s-0.373-0.48-0.8-0.8c-0.373-0.32-1.707-0.907-1.707-0.907s-0.693-0.32-1.28-0.48c-0.587-0.213-0.8-0.8-1.173-1.227s-1.28-0.8-1.6-1.013c-0.32-0.213-1.067-1.707-1.813-2.080-0.693-0.427-1.28-1.12-1.28-1.12l0.107-0.8v-0.8l0.8 0.587c0 0 0.48 0.427 0.907 0.907 0.373 0.48 1.813 0.907 1.813 0.907s0.8 1.12 1.493 1.387c0.693 0.32 3.2 0.32 3.2 0.32s1.28 1.12 1.813 0.8c0.48-0.32-1.013-0.907-1.707-1.227s-1.707-0.427-2.507-0.427c-0.8 0-0.907-0.907-1.493-1.12l-1.813-1.493c0 0-1.28-1.013-1.92-1.227s-1.813-0.107-1.813-0.107l-0.587-1.227c0 0 0.587-0.107 0.907-0.32s0-1.013 0-1.013 1.493 0.587 2.4 0.693c0.907 0.107 1.973-0.48 2.507-0.693 0.48-0.213 0.907-1.6 0.907-1.6s0.48-0.213 0.8-0.8-0.267-2.4-0.267-2.4 0 0-0.107-0.48c-0.107-0.32-2.187-1.707-2.827-1.92-0.587-0.213-1.173-0.8-1.173-0.8l0.587-1.387c-0.587 0.107-1.227 1.013-1.12 1.707s1.973 1.813 1.973 2.080c0 0.32 1.12 1.387 1.12 1.387-0.32 0.48 0.373 2.4 0.373 2.4s-0.587 0-1.227 0.587c-0.587 0.587-1.387 0.8-1.387 0.8s-0.907-0.107-1.707-0.213c-0.8-0.107-1.12 0.373-1.6 0.48s-0.907 0.907-0.907 0.907l-0.8 0.373c0 0 0.427-1.813 0.32-2.613s-0.693-3.307-1.28-3.573c-0.267-0.16-0.427-0.107-0.533 0-0.107-0.107-0.267-0.16-0.533 0-0.587 0.32-1.173 2.827-1.227 3.627-0.107 0.8 0.32 2.613 0.32 2.613l-0.8-0.373c0 0-0.427-0.8-0.907-0.907s-0.8-0.587-1.6-0.48c-0.8 0.107-1.707 0.213-1.707 0.213s-0.8-0.213-1.387-0.8-1.227-0.533-1.227-0.533 0.693-1.92 0.373-2.4c0 0 1.067-1.12 1.067-1.387s1.867-1.44 1.973-2.133c0.107-0.693-0.533-1.6-1.12-1.707l0.64 1.387c0 0-0.587 0.587-1.173 0.8s-2.667 1.653-2.773 2.133c-0.107 0.48-0.107 0.48-0.107 0.48s-0.587 1.813-0.267 2.4c0.32 0.587 0.8 0.8 0.8 0.8s0.427 1.387 0.907 1.6c0.48 0.213 1.6 0.8 2.507 0.64 0.907-0.107 2.4-0.747 2.4-0.747s-0.267 0.8 0 1.013c0.32 0.213 0.907 0.267 0.907 0.267l-0.587 1.227c0 0-1.173-0.107-1.813 0.107-0.587 0.213-1.867 1.227-1.867 1.227l-1.76 1.547c-0.587 0.213-0.693 1.12-1.493 1.12s-1.813 0.107-2.507 0.427-2.187 0.907-1.707 1.227 1.76-0.8 1.76-0.8 2.507-0.053 3.2-0.32 1.493-1.44 1.493-1.44 1.387-0.427 1.76-0.907c0.373-0.48 0.907-0.907 0.907-0.907l0.8-0.587v0.8l0.107 0.8c0 0-0.587 0.693-1.28 1.12s-1.493 1.92-1.76 2.133-1.173 0.64-1.6 1.013c-0.373 0.427-0.587 1.013-1.173 1.227s-1.28 0.533-1.28 0.533-1.28 0.64-1.707 0.907-0.8 0.8-0.8 0.8-0.693-0.213-0.907 0.32c-0.213 0.48 1.28-0.107 1.28-0.107s0.693 0.107 1.28-0.213 1.76-1.12 1.76-1.12 1.173-0.213 1.6-0.747c0.373-0.48 0.907-0.907 0.907-0.907s0.907-0.587 1.173-1.013c0.32-0.427 1.013-0.693 1.067-1.227 0.107-0.48 0.693-0.8 0.693-0.8l-0.267 1.227c0 0-1.067 1.013-1.173 1.707s-1.067 1.6-1.173 2.4c-0.107 0.8-0.16 1.707-0.16 1.707s-0.267 1.6-0.267 2.027c0 0.373-1.547 2.027-1.547 2.027l-1.387 0.32c0 0-0.587 0.107-0.693 0.533 0 0.267 1.067-0.213 1.067-0.213s0.213 0.32 0.693 0.213c0.48-0.107 1.387-0.64 1.387-0.64s1.28-1.44 1.653-2.24c0.373-0.8 0.373-2.613 0.373-2.613l0.053-1.493 0.747-1.92h0.373c0 0-0.16 3.68 1.067 5.173s3.253 2.453 4.64 2.453c0 0 0.107 0 0.107 0 1.387 0 3.413-1.013 4.587-2.507 1.227-1.493 1.013-5.173 1.013-5.173h0.373l0.8 1.92 0.107 1.493c0 0 0 1.813 0.373 2.613s1.707 2.187 1.707 2.187 0.907 0.48 1.387 0.587c0.48 0.107 0.693-0.213 0.693-0.213s1.12 0.48 1.013 0.107c-0.107-0.373-0.693-0.48-0.693-0.48l-1.387-0.32c0 0-1.6-1.6-1.6-2.027 0-0.373-0.32-1.973-0.32-1.973s-0.107-0.907-0.213-1.707c-0.107-0.8-1.067-1.707-1.173-2.4s-1.173-1.707-1.173-1.707l-0.32-1.173c0 0 0.587 0.32 0.693 0.8s0.8 0.8 1.12 1.227c0.32 0.427 1.173 1.013 1.173 1.013s0.48 0.427 0.907 0.907c0.373 0.48 1.6 0.693 1.6 0.693s1.173 0.8 1.813 1.12c0.587 0.32 1.28 0.213 1.28 0.213s1.653 0.587 1.44 0.053z"></path>
</svg>
