<svg xmlns="http://www.w3.org/2000/svg" width="32" height="32" viewBox="0 0 32 32"><path d="M31.04 18.987c-.32-1.547-1.013-2.667-1.92-3.36-.747-.533-1.973-1.227-3.093-1.6-.213-.053-.427-.107-.587-.213-.8-.267-1.387-.427-2.08-.48-.64-.053-1.547.16-2.4.533.16-.48.48-1.173.427-2.08-.107-2.08-.907-3.52-2.027-4.32-.96-.693-2.827-1.493-3.52-1.707.32-.48.32-.8.32-.8l.213-.747s-.48 1.067-.8 1.547c-.373 0-1.12.053-1.813.213v-.16c0-.32.053-.587-.16-.747s-.64.053-.64.053l.107.533c0 .107.053.32.053.533-.107.053-.16.053-.213.107l-.533.267c-.053 0-.053.053-.107.053-.053-.053-.053-.053-.053-.107-.053-.16-.64-.64-.8-.96s-.747-1.227-.747-1.227.053 1.6.373 1.92c.16.16.427.48.587.747-.48.267-1.067.64-1.547 1.28-.427-.107-.8-.213-.8-.213s.32.213.693.373c-.053.053-.053.107-.107.16-.16.267-.267.64-.427.853-.693.96-1.173 1.387-1.173 3.093 0 .64.053 1.067.107 1.44-.16 0-.373.053-.427.107-.16.107-.32.373-.373 0s-.053-.907.16-1.173c.16-.267.8-.96.533-1.173s-.747-.16-.907.16c-.16.32-.213.693-.267 1.013-.053.267-.533 1.013-.64 1.227h-.693c-.32-.427-.373-1.067-.373-1.067s-.16-.267-.267-.053-.16.693-.053.907-.427 0-.427 0-1.28-.747-1.28-1.067.267-2.08.267-2.08-.64 1.6-.533 2.027.8.853.8.853l.8.533c-.373.107-.8.32-.907.373-.213.107-1.6.587-2.347 1.92-.8 1.387-.96 4.16.053 5.92.96 1.707 1.493 2.293 2.507 2.773.8.427 1.76.427 2.133.427.213.213.8.747 1.173.907.053 0 .16.053.213.16.533.32 1.547.96 3.147.96.213 0 .427 0 .64-.053 2.293-.213 3.307-.747 3.307-.747.213-.16 1.387-.853 1.653-1.173.16-.213.427-.533.587-.693.267.053.853.16 1.227.053.32-.053.64-.16.8-.213.32.32 1.173 1.067 2.08 1.387 1.12.48 3.68.747 5.12.373s3.2-1.707 3.947-2.72c.8-1.013 1.44-3.04 1.013-4.853zM14.933 6.4c-.16.16-.267.373-.373.48-.16.16-.533.48-.533.48s-.107-.373-.16-.747c.32-.107.747-.16 1.067-.213zm-1.76.48v.32s-.16-.053-.32-.16c.16-.053.267-.107.32-.16zM12 7.467l.373.693s-.96.267-1.547.213c.373-.427.8-.693 1.173-.907zM9.92 9.6c.16-.213.32-.48.533-.747.053-.107.107-.16.213-.267.373.053 1.333.107 1.813.107.64 0 .907-.373 1.227-.213s.427.32.747.853c.32.48 1.333 1.6 1.6 1.707.267.053-.693-.8-1.013-1.493-.32-.747-.747-1.333-.64-1.28s.64-.267 1.28-.053c.693.16 1.493.48 2.08.587.533.053.907 0 .907 0s-.587-.053-1.173-.373c-.64-.32-1.173-.693-1.707-.693s-1.12-.053-1.12-.053.32-.64.747-1.227h.213c.32.053 2.24.8 3.36 1.6.96.693 1.493 1.92 1.6 3.84.053 1.387-.32 2.293-.587 2.56 0 0 0 .053-.053.053-.533.373-1.493 1.12-2.187 2.24-.16.267-.267.587-.373.853l-.48-.8c-.8-1.173-1.813-1.973-4.373-2.293 0-.16-.053-.267-.16-.267-.267-.107-.373-.16-.587.213-.16 0-.32-.053-.427-.053-.8-.053-1.547 0-2.133.16-.107-.267-.267-.853-.267-2.027 0-1.547.267-1.973.96-2.933zm1.387 5.333c.16 0 .32 0 .48.053-.053.533-.107 1.28-.213 1.76-.16.8-.32 1.227-.32 1.227s-.747-1.493-.96-1.973c-.213-.48-.373-.747-.373-.96v-.053c.373-.107.853-.107 1.387-.053zm.906 1.707c.053-.48.053-1.227.213-1.6 1.333.16 2.187.48 2.827.853-.373.213-1.28.853-1.547.96-.32.16-.853.48-1.067.64-.16.16-.373.587-.373.587s-.16-.96-.053-1.44zM2.027 22.133c-.907-1.547-.533-4.053.213-5.28C2.933 15.68 4 15.2 4.053 15.2h.053s.48-.267.853-.373c.16-.053.373-.107.64-.107.16.107.32.267.48.427 0 0 .587-.107 1.067-.16.267-.053.533 0 .747.053-.853.48-1.44 1.067-1.867 1.493-.107 0-.16.053-.16.107-.427.427-.8 1.12-1.067 1.973-.32.907-.427 1.973-.427 2.987.053 1.333.533 2.293 1.013 3.04-.373-.053-.64.107-1.067-.16-.853-.48-1.387-.693-2.293-2.347zM15.84 25.28c-.16.213-.96.747-1.493 1.013-.053.053-1.067.373-3.147.533-1.76.16-4.213-1.707-4.533-1.973-.107-.16-1.6-1.707-1.653-3.36-.053-2.08.64-3.787 1.28-4.48l.16-.16c.533-.587 1.333-1.387 2.667-1.76h.107c.16-.053.32-.053.48-.107-.107.16-.107.32-.107.533.053.48.48 1.387.587 1.653.053.267.64 1.973.64 1.973s-.48-.053-.907.053c-.427.16-.96.693-1.173.853s-.427.533-.427.533.373.267.853.32 1.067-.16 1.067-.16l1.067-.213.107.96c.054.48.373 1.173.373 1.173l.267.853s.373-.16.373-.8.053-1.013 0-1.28c-.053-.267.107-.96.107-.96s.267-.107.64.107c.373.213 1.12.64 1.6.747.48.053 1.813-.427 2.027-.64.213-.16-1.067.213-1.493.053-.48-.16-1.067-.64-1.387-.8s-.96-.373-1.013-.587.267-1.28.8-1.707c.427-.373 1.333-1.387 1.6-1.707.48.32.853.693 1.173 1.173.96 1.387 1.44 2.613 1.013 4.693s-1.013 2.667-1.013 2.667c-.16.213-.48.587-.64.8zm2.187-.8c-.213.053-.533 0-.8-.053.16-.267.32-.64.48-1.173.053.107.053.16.107.267.16.32.373.64.587.853-.107.053-.213.053-.373.107zm11.36-1.067c-.64.907-2.133 2.027-3.413 2.347s-3.68.373-4.693-.053c-.96-.427-1.973-1.387-1.973-1.387s-.587-.533-.8-1.013c-.213-.427-.32-1.013-.373-1.227v-.107c.267-1.333.16-2.347-.16-3.307 0 0-.053-1.12.373-1.867.96-1.493 2.347-2.08 2.4-2.08.96-.48 1.973-.8 2.667-.747.587 0 1.013.16 1.653.373.107.213.213.533.267.853.053.48-.053 1.387-.16 1.76s-.213.853-.213.853c-.107-.16-1.28-.48-1.44-.693s-1.013-.693-1.227-.907-1.12-1.387-1.12-1.387.907 1.707 1.493 2.347c.64.64 1.227 1.013 1.387 1.28s.373.267.213.64-.267 1.12-.16 1.493c.107.373.8 1.067.96 1.173s-.32-.16-.053-.853.64-1.12.64-1.12 1.28.747 1.547 1.067c.267.32 2.08 1.707 2.08 1.707s-.267-.693-.64-1.013-1.493-1.387-1.493-1.387l-.8-1.067s.533-.373.853-.64 1.333-.96 1.333-.96.853-.32.747-.32-.747 0-1.173.16c-.373.16-.853.427-.907.373s-.32-.053-.693-.053c-.373.053-.533-.107-.533-.107s.053-1.227-.107-1.973c-.107-.533-.32-1.013-.427-1.173l.48.16c1.067.32 2.187 1.12 2.88 1.653.8.587 1.227 1.547 1.547 2.933.267 1.707-.267 3.307-.96 4.267z"/></svg>