<svg xmlns="http://www.w3.org/2000/svg" width="32" height="32" viewBox="0 0 32 32"><path d="M30.659 27.429s-1.056-.211-1.303-.246-1.831-.21-2.146-.387c-.316-.176-.846-.985-.775-1.268s.353-.88.353-.88 1.021-1.831 1.197-2.641c.175-.81.315-2.465.315-2.604 0-.141 1.128-1.479 1.444-1.972s.985-1.62 1.162-2.324c.176-.704.211-1.725.106-2.535-.106-.81-.424-1.654-.424-1.654s-.528-.74-.564-1.126c-.035-.388-.104-2.289 0-2.852.106-.564.705-1.444.705-1.444s.331-.572.423-1.021c.281-1.372-.493-.492-.669-.351s-.88.88-1.092.915-1.021-.104-1.021-.104-.809-.07-1.23.071c-.201.066-.81-.846-.81-.846s-.353-.563-1.198-.633c-.399-.034-.422.352-.211.633.211.282.774 1.162.845 1.514s-.07 1.303-.035 1.584c.035.282-.246 1.619-.246 1.619l-.563.705s-3.625.845-4.576 1.619c-.95.774-3.414 4.013-4.049 5.351-.633 1.338-.457 5.245-.527 6.125s-.176 1.549-.353 1.76c-.146.176-.966.879-1.403 1.175-.562.108-1.998.353-2.998.27-1.267-.105-6.292-.287-7.454-.25-1.161.034-3.414.034-3.555.281-.141.246 2.147.458 2.675.493s3.3.215 4.567.355 5.949.598 7.006.668c.882.06 2.224.187 3.177-.079.422-.021.765-.044.941-.061.704-.071 1.796-.354 2.184-.283.386.071.81.353.81.353s-.141 1.197.281 1.374c.423.175 1.479.28 2.429.28s2.534-.035 2.746.141c.211.177.88.318 1.303.282.422-.035 1.02.036 1.126-.176.105-.211-.281-.738-.387-.81-.105-.07.633-.105.633-.105s1.021.282 1.62.282.915-.247.88-.353c-.174-.517.023-.132-1.339-.845zm-5.633.459s-.88 0-1.126-.035c-.247-.036-.318-1.057-.318-1.303s.847-.599.847-.599c0 .14.527.916.598 1.267.071.352-.001.67-.001.67z"/></svg>