<?xml version="1.0" encoding="utf-8"?>
<!-- Generated by IcoMoon.io -->
<!DOCTYPE svg PUBLIC "-//W3C//DTD SVG 1.1//EN" "http://www.w3.org/Graphics/SVG/1.1/DTD/svg11.dtd">
<svg version="1.1" xmlns="http://www.w3.org/2000/svg" xmlns:xlink="http://www.w3.org/1999/xlink" width="32" height="32" viewBox="0 0 32 32">
<path d="M30.659 27.429c0 0-1.056-0.211-1.303-0.246s-1.831-0.21-2.146-0.387c-0.316-0.176-0.846-0.985-0.775-1.268s0.353-0.88 0.353-0.88 1.021-1.831 1.197-2.641c0.175-0.81 0.315-2.465 0.315-2.604 0-0.141 1.128-1.479 1.444-1.972s0.985-1.62 1.162-2.324c0.176-0.704 0.211-1.725 0.106-2.535-0.106-0.81-0.424-1.654-0.424-1.654s-0.528-0.74-0.564-1.126c-0.035-0.388-0.104-2.289 0-2.852 0.106-0.564 0.705-1.444 0.705-1.444s0.331-0.572 0.423-1.021c0.281-1.372-0.493-0.492-0.669-0.351s-0.88 0.88-1.092 0.915-1.021-0.104-1.021-0.104-0.809-0.070-1.23 0.071c-0.201 0.066-0.81-0.846-0.81-0.846s-0.353-0.563-1.198-0.633c-0.399-0.034-0.422 0.352-0.211 0.633 0.211 0.282 0.774 1.162 0.845 1.514s-0.070 1.303-0.035 1.584c0.035 0.282-0.246 1.619-0.246 1.619l-0.563 0.705c0 0-3.625 0.845-4.576 1.619-0.95 0.774-3.414 4.013-4.049 5.351-0.633 1.338-0.457 5.245-0.527 6.125s-0.176 1.549-0.353 1.76c-0.146 0.176-0.966 0.879-1.403 1.175-0.562 0.108-1.998 0.353-2.998 0.27-1.267-0.105-6.292-0.287-7.454-0.25-1.161 0.034-3.414 0.034-3.555 0.281-0.141 0.246 2.147 0.458 2.675 0.493s3.3 0.215 4.567 0.355 5.949 0.598 7.006 0.668c0.882 0.060 2.224 0.187 3.177-0.079 0.422-0.021 0.765-0.044 0.941-0.061 0.704-0.071 1.796-0.354 2.184-0.283 0.386 0.071 0.81 0.353 0.81 0.353s-0.141 1.197 0.281 1.374c0.423 0.175 1.479 0.28 2.429 0.28s2.534-0.035 2.746 0.141c0.211 0.177 0.88 0.318 1.303 0.282 0.422-0.035 1.020 0.036 1.126-0.176 0.105-0.211-0.281-0.738-0.387-0.81-0.105-0.070 0.633-0.105 0.633-0.105s1.021 0.282 1.62 0.282 0.915-0.247 0.88-0.353c-0.174-0.517 0.023-0.132-1.339-0.845zM25.026 27.888c0 0-0.88 0-1.126-0.035-0.247-0.036-0.318-1.057-0.318-1.303s0.847-0.599 0.847-0.599c0 0.14 0.527 0.916 0.598 1.267 0.071 0.352-0.001 0.67-0.001 0.67z"></path>
</svg>
