<svg xmlns="http://www.w3.org/2000/svg" width="32" height="32" viewBox="0 0 32 32"><path d="M20.437 14.622a7.976 7.976 0 0 1-3.272-.709c-1.821-.672-3.598-2.619-4.238-5.029-1.71-5.819 2.418-7.945 2.862-8.168a6.04 6.04 0 0 1 2.869-.714c.673 0 1.32.109 1.925.309 1.844.617 3.488 2.228 4.692 4.647a6.85 6.85 0 0 1 .873 3.368c0 .756-.121 1.484-.345 2.165-.275 1.238-1.567 2.836-3.284 3.73a4.902 4.902 0 0 1-1.957.405l-.132-.002zM18.696 1.356a5.126 5.126 0 0 0-2.349.616l.028-.014c-.591.282-3.737 2.17-2.392 6.736.327 1.666 1.731 3.36 3.604 4.182.71.308 1.49.477 2.31.477.732 0 1.432-.135 2.078-.383.896-.328 2.034-1.487 2.578-2.937a6.069 6.069 0 0 0 .397-2.167c0-.924-.206-1.799-.574-2.583-1.053-2.051-3.114-3.928-5.679-3.928zM8.944 22.167c-.211-.017-.497-.166-.704-.39-.494-.543.053-1.086.254-1.254a1.08 1.08 0 0 1 1.214.003.6.6 0 0 1 .142.544c-.021.376-.242.753-.57.991a.758.758 0 0 1-.332.106zm-.201-1.383a.544.544 0 0 0-.293.545.154.154 0 0 0 .096.122.59.59 0 0 0 .548.103.668.668 0 0 0 .283-.535.155.155 0 0 0 0-.137.599.599 0 0 0-.638-.09zm-1.036-1.877h-.002a.812.812 0 0 1-.361-.084 1.077 1.077 0 0 1-.537-.891.77.77 0 0 1 .291-.706c.174-.103.381-.163.602-.163.155 0 .303.029.439.083l-.008-.003c.3.086.524.356.542.681a.897.897 0 0 1-.376.884 1.062 1.062 0 0 1-.587.197zm-.347-1.312a.287.287 0 0 0-.108.29c0 .225.118.424.295.539a.492.492 0 0 0 .476-.07.445.445 0 0 0 .2-.463.543.543 0 0 0-.863-.295zm-.694 3.688c-.346-.009-.756-.159-1.091-.406-.074-.124-.122-.279-.122-.446s.048-.322.13-.454c.092-.344.404-.65.798-.749a.803.803 0 0 1 .624.348 1.317 1.317 0 0 1 .353 1.061c-.048.23-.257.487-.536.62a.569.569 0 0 1-.157.024zm-.244-1.627c-.154.068-.324.262-.394.498a.197.197 0 0 0-.019.084.18.18 0 0 0 .066.139.879.879 0 0 0 .645.288.183.183 0 0 0 .109-.162.79.79 0 0 0-.164-.647.396.396 0 0 0-.268-.177zm0 0zM17.557 6.839a.579.579 0 0 1-.177 0 1.029 1.029 0 0 1-.766-.796c-.082-.75.151-1.222.704-1.373s.868.309 1.047.71a1.023 1.023 0 0 1-.158 1.129.867.867 0 0 1-.648.33zm-.044-1.686a.634.634 0 0 0-.352.714c.022.207.17.402.375.493a.541.541 0 0 0 .432-.187.604.604 0 0 0-.001-.675.416.416 0 0 0-.411-.347l-.045.002zm7.838 21.857a5.805 5.805 0 0 1-3.802-1.491 5.727 5.727 0 0 1-1.556-3.898c0-1.711.814-3.365 2.397-4.911 1.486-1.454 3.016-2.169 4.572-2.094 1.215.034 2.429.606 3.307 1.507.89.719 1.542 1.903 1.627 3.242.115 1.809-.715 3.745-2.397 5.622-.897 1.144-2.354 1.946-4.001 2.023h-.148zm1.345-11.08a6.05 6.05 0 0 0-5.472 5.651c-.002.048-.002.086-.002.123 0 1.211.455 2.316 1.204 3.152a5.06 5.06 0 0 0 3.13.906c1.101-.067 2.311-.706 3.152-1.675a6.415 6.415 0 0 0 1.753-4.415l-.002-.161c-.092-2.427-2.348-3.512-3.666-3.577h-.098zm-1.747 4.637a1.443 1.443 0 0 1-1.045-.503.962.962 0 0 1 .001-.983.975.975 0 0 1 .814-.538.835.835 0 0 1 .651.137c.235.227.383.547.383.902v.002a.932.932 0 0 1-.457.893.844.844 0 0 1-.344.089zm-.07-1.557h-.108a.584.584 0 0 0-.46.237.669.669 0 0 0 0 .505.597.597 0 0 0 .889.238.542.542 0 0 0 .161-.384.744.744 0 0 0-.286-.541.283.283 0 0 0-.171-.056l-.022.001zM16.629 32a6.789 6.789 0 0 1-2.883-.685c-2.128-.98-2.226-3.545-2.269-5.075 0-.266 0-.586-.043-.759l-.266.06a5.036 5.036 0 0 1-1.477.173h-.215c-1.562-.065-3.33-.136-6.845-2.945C1.606 21.95.066 19.515.006 16.863a6.151 6.151 0 0 1 2.161-4.875c2.997-2.627 7.141-1.558 9.348-.691 2.343.922 4.117 2.62 5.749 5.494 1.394 2.462-.222 4.914-.911 5.966l.401.076c.217.06.494.119.759.217 1.264.39 3.319 1.969 3.01 5.424a3.621 3.621 0 0 1-1.731 3.007 4.197 4.197 0 0 1-2.034.521L16.622 32zm-5.082-7.908h.032c.47 0 .873.283 1.049.687a3.526 3.526 0 0 1 .198 1.428c.055 1.698.12 3.58 1.416 4.177 1.399.64 3.2.64 4.09.119.624-.363 1.052-1.459 1.134-2.392a3.355 3.355 0 0 0-2.368-3.764c-.235-.071-.468-.125-.691-.179-.673-.163-1.258-.298-1.53-.77a.94.94 0 0 1-.074-.744c-.077.093.115-.341.394-.705.64-.97 2.262-2.754 1.286-4.484-1.486-2.62-3.043-3.927-5.104-4.74l-.374-.179c-1.904-.754-5.879-1.915-8.32.201-1.166 1.02-1.573 2.647-1.54 4.171.055 1.772.899 3.571 2.228 4.88 3.163 2.572 5.067 2.555 8.175 2.295z"/></svg>