<?xml version="1.0" encoding="utf-8"?>
<!-- Generated by IcoMoon.io -->
<!DOCTYPE svg PUBLIC "-//W3C//DTD SVG 1.1//EN" "http://www.w3.org/Graphics/SVG/1.1/DTD/svg11.dtd">
<svg version="1.1" xmlns="http://www.w3.org/2000/svg" xmlns:xlink="http://www.w3.org/1999/xlink" width="32" height="32" viewBox="0 0 32 32">
<path d="M20.604 11.641c-0.264 0.003-1.398 0.29-1.551 0.361-0.151 0.070-2.022 0.701-2.274 0.836-0.417 0.226-1.562 0.281-2.431 0.118-2.036-0.248-5.33-0.051-7.107 0.3-0.277 0.055-1.484 0.267-1.705 0.325-0.546 0.141-1.641 0.395-2.158 0.502-0.598 0.124-1.558 0.397-1.815 0.514-0.119 0.055-1.125 0.615-1.215 0.745-0.108 0.155-0.12 0.609-0.016 0.649 0.041 0.015 0.115 0.154 0.165 0.308 0.094 0.289 0.342 0.637 0.67 0.941 0.317 0.297 1.474 0.891 2.138 1.1 1.921 0.602 4.108 1.187 4.416 1.286 1.046 0.342 2.723 0.558 4.334 0.558l1.060 0.003c0 0 1.4 0.718 1.786 0.812 0.386 0.096 0.684-0.129 0.725-0.443s0.117-0.774 0.021-0.809c-0.045-0.018-0.029-0.059 0.051-0.13 0.082-0.073 0.89-0.205 0.993-0.249 0.178-0.073 0.192-0.071 0.339 0.063 0.086 0.079 1.384 1.474 1.433 1.565 0.748 0.731 1.283 0.467 1.329 0.467s0.245-0.092 0.441-0.207 0.489-0.266 0.649-0.338 1.941-1.55 2.037-1.613c0.205-0.141 0.518-0.561 0.521-0.701 0.001-0.053 0.035-0.143 0.078-0.2 0.096-0.126 0.102-0.356 0.014-0.445-0.049-0.049 0.237 0.032 0.382 0.036s1.087 0.094 2.146 0.564c0.145 0.074 0.639 0.33 1.188 0.604 0.175 0.088 0.638 0.355 1.030 0.59 0.392 0.24 0.857 0.498 0.98 0.577 0.775 0.45 1.056 0.595 1.658 0.427 0.604-0.168 0.984-1.496-0.105-2.355-1.518-1.199-0.75-1.618-0.631-1.755 0.307-0.358 1.089-1.092 1.219-1.223 0.377-0.376 0.674-1.062 0.581-1.341-0.125-0.375-0.935-1.089-2.985-0.288-0.083 0.032-0.479 0.225-0.88 0.427s-0.869 0.402-1.040 0.445c-0.168 0.042-1.188 0.448-2.013 0.328-1.833-0.228-3.788-0.532-3.862-0.552-0.152-0.043-0.209-0.216-0.1-0.3 0.043-0.032 0.122-0.208 0.178-0.395 0.229-0.764 0.009-1.873-0.409-2.073-0.047-0.026-0.143-0.035-0.265-0.034v0zM11.667 13.908c0.644 0 1.213 0.010 1.569 0.038 0.41 0.032 1.286 0.071 1.945 0.086 1.175 0.027 1.905 0.109 2.11 0.233 0.080 0.049 0.037 0.054-0.217 0.021-0.511-0.065-8.83-0.037-9.326 0.032-0.234 0.033-0.654 0.093-0.933 0.136-0.408 0.063-1.055 0.161-1.439 0.256-0.153-0.124-0.457-0.412-0.513-0.428-0.037-0.098 0.354 0.041 0.664 0.041 0.137 0 0.405-0.039 0.596-0.085s0.55-0.092 0.799-0.099c0.249-0.009 0.645-0.042 0.879-0.074 0.676-0.093 2.451-0.156 3.866-0.157v0zM3.14 15.030c0.031 0 0.067 0.019 0.129 0.060 0.073 0.048 0.157 0.135 0.189 0.194 0.048 0.090 0.041 0.297-0.048 0.297-0.059 0-0.122 0.037-0.141 0.004-0.020-0.031-0.197 0.371-0.141 0.336 0.050-0.032-0.115-0.773-0.405-0.682-0.068-0.050 0.101-0.062 0.147-0.062 0.041 0 0.115-0.040 0.169-0.087 0.044-0.041 0.071-0.060 0.101-0.060v0zM12.154 15.036c0.905 0 1.86 0.011 2.681 0.030 2.222 0.051 3.221 0.106 4.635 0.258 0.264 0.028 0.562 0.055 0.666 0.057 0.301 0.006 1.631 0.157 2.238 0.252 0.309 0.049 0.698 0.098 0.869 0.11 0.172 0.012 0.494 0.061 0.719 0.108s0.529 0.096 0.677 0.11c0.146 0.013 0.292 0.047 0.323 0.073 0.034 0.026 0.169 0.034 0.301 0.015 0.234-0.031 0.58 0.042 0.721 0.154 0.051 0.040 0.053 0.072 0.008 0.126-0.074 0.088-0.13 0.086-0.35-0.010-0.096-0.041-0.52-0.11-0.946-0.153-0.428-0.042-0.796-0.089-0.819-0.105-0.024-0.015-0.416-0.065-0.867-0.111-0.452-0.046-0.857-0.098-0.901-0.113-0.206-0.077-1.635-0.188-2.691-0.212-0.646-0.014-1.22-0.040-1.278-0.056-0.059-0.018-0.524-0.050-1.038-0.073s-1.112-0.080-1.333-0.125c-0.323-0.066-0.49-0.072-0.866-0.029-0.256 0.031-0.487 0.042-0.516 0.023-0.028-0.017-1.091-0.046-2.362-0.062-1.692-0.022-2.418-0.013-2.708 0.035-0.569 0.093-2.382 0.196-2.633 0.15-0.116-0.022-0.794 0.053-0.986 0.052-0.064-0.125-0.071-0.331-0.156-0.447-0.062-0.084 0.362 0.038 1.050 0.097 0.604 0.052 1.295 0.023 2.331-0.094 0.356-0.041 1.722-0.062 3.231-0.060v0zM2.241 15.151c0.027 0 0.055 0.004 0.080 0.013 0.048 0.011 0.098 0.009 0.146 0.013 0.014 0.004 0.031 0.013 0.027 0.031-0.044-0.003-0.096 0.005-0.128 0.039-0.056 0.042-0.128 0.063-0.167 0.125-0.061 0.062-0.109 0.146-0.109 0.234-0.007 0.033 0.018 0.068-0.001 0.099-0.026 0.024-0.043-0.025-0.036-0.049 0.004-0.041-0.039-0.065-0.053-0.1s-0.007-0.076-0.002-0.113c0.016-0.063 0.033-0.128 0.072-0.182 0.025-0.036 0.051-0.075 0.093-0.093 0.025-0.012 0.051-0.017 0.078-0.017v0zM28.354 15.433c0.044 0 0.096 0.002 0.159 0.014 0.124 0.024 0.343 0.045 0.481 0.047 0.139 0 0.252 0.027 0.252 0.056 0 0.068-0.727 0.065-0.896-0.002-0.147-0.060-0.122-0.113 0.004-0.115v0zM3.391 15.809c0.051 0.062 0.176 0.225 0.1 0.31-0.052 0.058-0.109 0.156-0.148 0.156-0.137 0.073-0.535 0.303-0.489-0.017 0.154-0.007 0.292-0.188 0.279-0.379 0.151 0.053 0.218-0.058 0.258-0.070zM2.372 16.14c0.089 0.022 0.327 0.091 0.31 0.112l0.018 0.103c-0.032 0.096-0.318 0.166-0.353 0.074-0.018-0.048-0.017-0.263-0.003-0.277 0.005-0.006 0.014-0.010 0.028-0.012v0zM28.265 16.248c0.647-0.004 0.879 0.011 0.954 0.066 0.097 0.071 0.099 0.076-0.003 0.13-0.057 0.031-0.141 0.037-0.184 0.014s-0.342-0.058-0.663-0.076c-1.011-0.060-1.063-0.128-0.104-0.134v0zM7.841 16.428c0.156 0 0.347 0 0.58 0 1.229 0.006 3.433 0.106 4.043 0.183 0.19 0.024 1.209 0.032 2.264 0.020 5.5-0.066 6.109-0.047 7.246 0.223 0.176 0.042 0.688 0.102 1.139 0.131 0.448 0.031 0.939 0.092 1.092 0.134 0.15 0.042 0.515 0.103 0.807 0.137 0.58 0.065 0.701 0.121 0.537 0.241-0.119 0.090-0.252 0.087-0.909-0.009-0.265-0.040-0.815-0.097-1.226-0.13s-0.891-0.104-1.066-0.156c-0.284-0.086-0.539-0.133-1.064-0.195-1.7-0.2-4.812-0.27-5.068-0.113-0.157 0.098-3.137 0.047-4.15-0.068-0.263-0.030-0.707-0.065-0.985-0.079-0.279-0.012-0.807-0.045-1.172-0.074-0.614-0.048-2.426-0.025-2.519 0.032-0.063 0.039-0.213-0.138-0.184-0.215 0.013-0.041 0.167-0.058 0.635-0.062v0zM26.891 17.096c0.058 0 0.147 0.005 0.282 0.018 0.396 0.036 1.173 0.271 1.528 0.46l0.2 0.104-0.16-0.006c-0.088-0.002-0.28-0.039-0.426-0.082-0.148-0.041-0.458-0.111-0.693-0.154-0.757-0.136-0.797-0.146-0.816-0.255-0.012-0.061-0.008-0.084 0.085-0.085v0zM22.070 17.578c0.358-0.003 0.484 0.040 0.411 0.127-0.035 0.043-0.221 0.083-0.471 0.101-0.225 0.015-0.781 0.054-1.235 0.086-0.454 0.033-0.993 0.065-1.198 0.074-0.206 0.008-0.709 0.055-1.119 0.104s-0.864 0.101-1.011 0.112c-0.363 0.029-0.673 0.084-0.801 0.141-0.059 0.025-0.311 0.066-0.56 0.092s-1.28 0.049-2.292 0.054c-1.498 0.009-1.897-0.007-2.158-0.073-0.175-0.045-0.373-0.092-0.439-0.106-0.066-0.013-0.12-0.047-0.12-0.075s0.053-0.087 0.12-0.129c0.105-0.068 0.156-0.068 0.413 0.004 0.182 0.047 0.484 0.072 0.799 0.066 0.278-0.007 0.734 0.006 1.012 0.027 0.463 0.036 0.975 0.012 2.59-0.121 0.296-0.025 0.562-0.059 0.591-0.075 0.147-0.093 1.183-0.183 3.426-0.302 0.542-0.028 1.264-0.066 1.604-0.088 0.172-0.011 0.317-0.016 0.437-0.017v-0.002zM27.097 18.22c0.098-0.004 0.26 0.035 0.512 0.118 0.283 0.095 0.348 0.134 0.298 0.185-0.075 0.074-0.067 0.074-0.524-0.025-0.365-0.078-0.459-0.131-0.402-0.227 0.020-0.032 0.056-0.049 0.116-0.051v0zM22.614 18.807c0.021 0 0.018 0.018-0.004 0.050-0.018 0.029-0.182 0.123-0.361 0.208-0.181 0.083-0.449 0.167-0.596 0.185l-0.265 0.029 0.239-0.070c0.132-0.039 0.398-0.148 0.596-0.239 0.243-0.116 0.354-0.163 0.391-0.163v0zM21.163 19.295l-0.213 0.079c-0.117 0.042-1.621 0.359-1.81 0.355-0.468 0.012-0.967-0.092-0.61-0.146 0.131-0.020 2.139-0.236 2.312-0.254l0.321-0.034zM14.125 20.030c0.009 0 0.019 0 0.030 0 0.116 0.004 0.732 0.385 0.732 0.453 0 0.126-0.336 0.064-0.624-0.117-0.201-0.129-0.272-0.319-0.138-0.336v0z"></path>
</svg>
