<svg xmlns="http://www.w3.org/2000/svg" width="32" height="32" viewBox="0 0 32 32"><path d="M27.692 18.36c-.303 1.509-.805 2.851-1.454 3.954 1.073 1.732 2.516 2.79 4.072 2.79.573 0 1.14-.144 1.691-.428-2.022-.78-3.631-3.173-4.308-6.317zM11.15 23.215c-1.048-1.169-1.85-2.862-2.28-4.855-.303 1.509-.804 2.851-1.454 3.954.544.879 1.185 1.583 1.887 2.064.661-.198 1.284-.598 1.847-1.163zm-6.46-8.433c.303-1.509.804-2.851 1.454-3.954-1.073-1.732-2.516-2.79-4.072-2.79-.573 0-1.14.144-1.691.428 2.022.78 3.631 3.172 4.308 6.316zm7.136-4.856c1.048 1.169 1.85 2.862 2.28 4.855.303-1.509.804-2.851 1.454-3.954-.544-.879-1.185-1.583-1.887-2.064-.66.198-1.284.598-1.846 1.163zm5.881 6.63a16.102 16.102 0 0 1 .277-1.774c.43-1.995 1.232-3.687 2.279-4.856.055-.061.113-.117.169-.175s.111-.12.169-.175c.517-.498 1.085-.876 1.69-1.11l.002-.001-.018-.008a3.912 3.912 0 0 0-.388-.174l-.032-.011a3.684 3.684 0 0 0-.366-.116l-.047-.013a3.44 3.44 0 0 0-.375-.071l-.081-.01c-.128-.014-.255-.024-.384-.024s-.256.01-.384.024l-.08.009c-.126.017-.252.04-.376.071l-.044.012a3.909 3.909 0 0 0-.79.303l-.015.008a4.477 4.477 0 0 0-.495.296c-.702.481-1.342 1.185-1.887 2.064-.052.085-.105.17-.155.258-.05.086-.098.175-.146.265-.764 1.423-1.295 3.22-1.476 5.221l-.002.015a16.102 16.102 0 0 1-.277 1.774c-.43 1.995-1.232 3.688-2.28 4.856-.055.061-.113.117-.169.175s-.111.12-.169.175c-.517.498-1.085.876-1.69 1.11h-.001l.017.008c.129.066.259.125.39.175l.031.011c.122.046.244.084.366.116l.049.014a3.468 3.468 0 0 0 .455.081c.128.014.255.024.384.024s.256-.01.384-.024l.081-.01c.125-.017.25-.04.375-.071l.048-.013c.123-.032.245-.071.367-.117l.031-.011c.131-.05.261-.109.39-.175l.015-.008a4.477 4.477 0 0 0 .495-.297c.702-.481 1.342-1.186 1.887-2.064.052-.085.105-.17.155-.258.05-.086.098-.175.146-.265.764-1.423 1.296-3.22 1.477-5.221v-.015zm-9.481 0a15.917 15.917 0 0 1 .277-1.774c.43-1.995 1.232-3.687 2.28-4.856.055-.061.113-.117.169-.175s.111-.12.169-.176c.517-.498 1.085-.876 1.689-1.11l.002-.001-.018-.008a3.928 3.928 0 0 0-.389-.174l-.031-.011a3.645 3.645 0 0 0-.368-.117l-.046-.013a3.532 3.532 0 0 0-.375-.071l-.081-.009c-.128-.014-.255-.024-.384-.024s-.256.01-.384.024l-.081.01c-.125.017-.25.04-.375.071l-.047.013a3.549 3.549 0 0 0-.367.117l-.031.011c-.13.05-.26.109-.389.175l-.017.009a4.17 4.17 0 0 0-.495.296c-.702.481-1.343 1.185-1.887 2.064-.052.085-.105.17-.155.258-.05.086-.098.175-.146.265-.764 1.423-1.295 3.22-1.476 5.221l-.002.015a15.917 15.917 0 0 1-.277 1.774c-.675 3.145-2.283 5.537-4.306 6.317.55.285 1.117.428 1.691.428 1.555 0 2.999-1.058 4.072-2.79.052-.085.105-.17.155-.258.05-.086.098-.175.146-.265.764-1.423 1.295-3.221 1.477-5.221l.002-.015zm12.422 6.667c-1.048-1.169-1.85-2.862-2.28-4.855-.303 1.509-.804 2.851-1.454 3.954.544.879 1.185 1.583 1.887 2.064.66-.198 1.284-.598 1.847-1.163zm.675-13.289c1.048 1.169 1.85 2.862 2.279 4.855.303-1.509.804-2.851 1.454-3.954-.544-.879-1.185-1.583-1.887-2.064-.66.198-1.284.598-1.846 1.163zm5.881 6.63a16.102 16.102 0 0 1 .277-1.774c.43-1.995 1.231-3.687 2.279-4.856.055-.061.113-.117.169-.175s.111-.12.169-.175c.517-.498 1.085-.876 1.69-1.11l.002-.001-.018-.008a3.912 3.912 0 0 0-.388-.174l-.032-.011a3.684 3.684 0 0 0-.366-.116l-.047-.013a3.44 3.44 0 0 0-.375-.071l-.081-.01c-.128-.014-.255-.024-.384-.024s-.256.01-.384.024l-.08.009c-.126.017-.252.04-.376.071l-.044.012a3.909 3.909 0 0 0-.79.303l-.015.008a4.477 4.477 0 0 0-.495.296c-.702.481-1.342 1.185-1.887 2.064-.052.085-.105.17-.155.258-.05.086-.098.175-.146.265-.764 1.423-1.295 3.22-1.477 5.221l-.002.015a16.102 16.102 0 0 1-.277 1.774c-.43 1.995-1.232 3.688-2.279 4.856-.055.061-.113.117-.169.175s-.111.12-.169.175c-.517.498-1.085.876-1.69 1.11h-.001l.017.008c.129.066.259.125.39.175l.031.011c.122.046.244.084.366.116l.049.014a3.468 3.468 0 0 0 .455.081c.128.014.255.024.384.024s.256-.01.384-.024l.081-.009c.125-.017.25-.04.375-.071l.048-.013c.123-.032.245-.071.367-.117l.031-.011c.131-.05.261-.109.39-.175l.015-.008a4.477 4.477 0 0 0 .495-.297c.702-.481 1.342-1.186 1.887-2.064.052-.085.105-.17.155-.258.05-.086.098-.175.146-.265.764-1.423 1.296-3.22 1.477-5.221v-.015z"/></svg>