<svg xmlns="http://www.w3.org/2000/svg" width="32" height="32" viewBox="0 0 32 32"><path d="M24.397 21.256a5.862 5.862 0 0 0-1.449-.849 5.162 5.162 0 0 1-.98 1.201c.633.225 1.143.537 1.524.94.462.491.56 1.094.293 1.812-.268.798-.814 1.634-1.683 2.038-3.695 1.714-6.363-2.667-11.665-2.868-.873-.033-1.703.312-2.49.778-.788.467-1.315 1.081-1.582 1.837-.115.28-.298 1.159.363 1.562.477.291 1.163.113 1.277-.166.307-.798.909-1.286 1.796-1.513 4.072-1.04 7.305 3.918 12.34 2.275.99-.323 1.891-1.139 2.514-1.981s.85-1.748.876-2.781c-.011-.834-.411-1.699-1.134-2.284zm.88-9.514c-.056.354-.116.806-.185 1.307-.12 1.481-.384 2.876-.779 4.113a13.646 13.646 0 0 1-.39 1.067c.872 1.759 2.415 3.243 3.667 3.243.464 0 .924-.147 1.369-.438-1.637-.799-3.377-3.093-3.682-9.29zM6.529 11c.245-1.546.651-2.92 1.178-4.05-.869-1.774-2.039-2.857-3.298-2.857-.464 0-.924.147-1.369.438C4.678 5.33 5.981 7.78 6.529 11zm7.684 9.6c-2.703.049-3.816-3.677-4.165-5.249a19.4 19.4 0 0 1-.132-.686c-.245 1.546-.651 2.92-1.178 4.05 1.544 3.649 4.917 3.549 6.707 3.199a5.187 5.187 0 0 1-1.232-1.314zm-6.26-1.885a9.21 9.21 0 0 0 .126-.264c.04-.088.079-.18.118-.271.619-1.458 1.05-3.299 1.196-5.347l.001-.016c.027-.36.066-.71.111-1.055.166-.844.531-2.452 1.092-3.526 1.219-2.337 4.14-2.593 6.045-2.54 2.781.077 5.204 1.198 5.991 3.468a14.122 14.122 0 0 1 .74-2.086 11.62 11.62 0 0 1 .331-.66c-.776-1.195-2.691-2.87-7.315-2.755-3.193.079-6.418.164-8.168 3.799a.1.1 0 0 0-.023.021c-.025.059-.047.121-.072.181-.418.928-.745 2.072-.958 3.492l.023.012c-.083.536-.148 1.09-.189 1.662l-.001.015a20.579 20.579 0 0 1-.224 1.816c-.549 3.221-1.852 5.671-3.49 6.47.445.291.905.438 1.369.438 1.26.001 2.429-1.083 3.298-2.857zm14.764-5.851c-.026.345-.062.687-.114 1.094-.026.207-.059.409-.091.61a5.13 5.13 0 0 1 1.096 2.523c.422-1.272.701-2.728.812-4.276a20.715 20.715 0 0 1 .229-1.866c.357-2.091 1.015-3.86 1.905-5.115.032-.046.066-.088.099-.131l.085-.112c.035-.046.069-.092.105-.136.293-.357.603-.655.927-.89l-.05-.017-.034-.012a2.008 2.008 0 0 0-.259-.062l-.044-.007a1.602 1.602 0 0 0-.535-.002l-.056.009a1.978 1.978 0 0 0-.26.062l-.03.011a2.203 2.203 0 0 0-.262.105 2.704 2.704 0 0 0-.502.31 3.617 3.617 0 0 0-.174.142c-.532.462-1.019 1.137-1.444 2.005l-.032.067c-.03.062-.061.124-.09.189-.039.085-.076.174-.115.263-.349.821-.772 2.109-1.019 3.852-.061.435-.114.891-.15 1.384zm-4.195 9.477a4.49 4.49 0 0 0 1.993-.468c.325-.16.629-.354.905-.583.319-.266.6-.574.836-.917.04-.058.076-.119.114-.179.293-.468.502-.992.607-1.554.051-.272.081-.55.081-.837a4.505 4.505 0 0 0-.976-2.801 4.52 4.52 0 0 0-3.561-1.735 4.541 4.541 0 0 0-4.536 4.536c0 1.015.34 1.95.905 2.707.365.488.824.9 1.352 1.209.67.392 1.447.621 2.279.621z"/></svg>