<svg xmlns="http://www.w3.org/2000/svg" width="32" height="32" viewBox="0 0 32 32"><path d="M28.8 24.045c0 .425-.346.77-.771.77h-8.631a.77.77 0 0 1-.77-.77v-4.166a.77.77 0 0 1 .77-.771h3.758l-6.401-6.401H15.44l-6.4 6.401h3.562a.77.77 0 0 1 .77.771v4.166a.77.77 0 0 1-.77.77H3.971a.77.77 0 0 1-.77-.77v-4.166a.77.77 0 0 1 .77-.771h3.414l6.398-6.401h-2a.77.77 0 0 1-.77-.769V7.771c0-.426.346-.771.77-.771h8.632c.426 0 .771.346.771.771v4.167a.771.771 0 0 1-.771.769h-2.001l6.399 6.401h3.217c.426 0 .771.346.771.771l-.001 4.166z"/></svg>