<svg xmlns="http://www.w3.org/2000/svg" width="32" height="32" viewBox="0 0 32 32"><path d="M18.848 7.413c.559.388.852.542.961.594.109.055 1.32.597 1.54.67.217.073.941.454 1.141.525.158.058.334.159.438.218.071.097.13.193.121.236a.413.413 0 0 1-.133.286c-.124.107-.696.338-.895.41-.181.07-1.071.437-1.306.527-.083.032-.391.179-.774.365-.248-.089-.549-.197-.658-.248-.2-.092-.943-.472-1.195-.689-.256-.218-.512-.48-.616-.634-.156-.232-.26-1.021-.235-1.322.013-.18.047-2.605.047-2.605s.72 1.083 1.564 1.667zm-1.816-2.247c-.011-.021-.795-1.509-1.928-1.611-1.175-.108-1.983.355-2.459 1.414-.183.405-.298.897-.381 1.519h1.924v15.03h2.273l-3.923 3.987c.069.822.138 1.472.204 1.856a.489.489 0 0 1-.485.572.491.491 0 0 1-.483-.407c-.071-.42-.147-1.145-.222-2.067l-3.879-3.941h2.219V6.487h1.383c.093-.776.234-1.391.473-1.922.651-1.445 1.84-2.129 3.442-1.987 1.675.151 2.671 2.06 2.712 2.14a.49.49 0 0 1-.87.448zm5.026 24.125c-.326.08-.666.149-1.041.149-.578 0-1.236-.161-2.045-.688-1.41-.916-1.399-3.068-1.398-3.159a.477.477 0 0 1 .496-.484.492.492 0 0 1 .485.496c0 .017-.004 1.705.951 2.325 1.012.658 1.625.58 2.319.41a.49.49 0 1 1 .233.951zm1.567-9.283c0 .291-.024.944-.074 1.161-.049.218-.144.47-.248.586-.145.161-.65.486-.958.596-.165.058-.512.209-.832.344a44.786 44.786 0 0 1-.714.291c-1.072.433-2.15.871-2.288.934-.292.145-.799.421-.965.652-.067.1-.141.204-.19.34a8.663 8.663 0 0 1-.13-.895c-.018-.312.024-1.161.096-1.496.06-.287.192-.749.459-1.016.111-.109.37-.302.68-.512.689-.341 2.197-1.085 2.361-1.146.239-.091 1.132-.459 1.304-.526.213-.083.76-.286.977-.458a.723.723 0 0 0 .223-.392c.066.103.138.229.18.33.13.329.119.92.119 1.207zm-6.028-2.284c-.001-.013.008-.063.019-.187.018-.197.077-.263.192-.438.05-.097.593-.437.846-.548.077-.035.504-.211 1.066-.438.039.014.071.029.087.036.109.055 1.32.598 1.54.67.217.072.941.454 1.141.526.159.056.336.159.439.218.072.097.132.192.12.234a.409.409 0 0 1-.133.286c-.124.108-.696.338-.896.412-.178.069-1.072.438-1.304.525-.083.033-.392.181-.776.367-.248-.09-.547-.198-.656-.249-.2-.091-.943-.47-1.195-.688a7.408 7.408 0 0 1-.279-.25c-.075-.113-.163-.254-.18-.328a.898.898 0 0 1-.031-.148zm6.028-5.869c0 .291-.024.942-.074 1.159-.049.217-.144.47-.248.586-.097.108-.36.29-.615.431-1.04.42-3.943 1.592-4.178 1.7-.292.144-.797.419-.965.649-.07.104-.146.21-.194.354a8.504 8.504 0 0 1-.125-.871c-.018-.314.024-1.159.096-1.499.06-.282.192-.747.459-1.012a4.25 4.25 0 0 1 .489-.38c.469-.234 2.415-1.195 2.603-1.266.238-.093 1.132-.459 1.304-.526.212-.084.759-.287.975-.457a.7.7 0 0 0 .214-.338c.052.089.105.182.139.262.131.327.12.919.12 1.208z"/></svg>