<svg xmlns="http://www.w3.org/2000/svg" width="32" height="32" viewBox="0 0 32 32"><path d="M32 13.546c0-6.279-1.837-11.373-4.109-11.413l.027-.001h-2.592s-5.838 4.573-14.602 6.367c-.268 1.415-.438 3.102-.438 5.047s.171 3.631.438 5.047c8.764 1.794 14.602 6.367 14.602 6.367h2.592l-.027-.001C30.163 24.919 32 19.825 32 13.546zm-4.136 10.33c-.298 0-.621-.325-.787-.518-.401-.47-.788-1.199-1.119-2.11-.739-2.04-1.147-4.776-1.147-7.702s.407-5.661 1.147-7.702c.33-.912.717-1.642 1.119-2.11.166-.194.488-.518.787-.518.298 0 .621.325.787.518.401.469.788 1.198 1.118 2.11.739 2.04 1.147 4.776 1.147 7.702s-.407 5.661-1.147 7.702c-.329.911-.717 1.642-1.118 2.11-.166.194-.489.518-.787.518zM8.119 13.546c0-1.623.119-3.201.345-4.659-1.48.205-3.029.323-4.636.323H1.732L0 12.169v2.755l1.733 2.959h2.096c1.605 0 3.155.118 4.636.323a30.533 30.533 0 0 1-.346-4.66zM26.43 8.543c-.283 1.522-.434 3.228-.434 5.004s.15 3.481.434 5.004c1.479-.037 2.673-2.263 2.673-5.004.001-2.742-1.193-4.968-2.673-5.004zM11.505 20.2l-4-.767 2.558 10.048a.835.835 0 0 0 1.146.584l3.705-1.483a.854.854 0 0 0 .444-1.222l-3.853-7.16z"/></svg>