<?xml version="1.0" encoding="utf-8"?>
<!-- Generated by IcoMoon.io -->
<!DOCTYPE svg PUBLIC "-//W3C//DTD SVG 1.1//EN" "http://www.w3.org/Graphics/SVG/1.1/DTD/svg11.dtd">
<svg version="1.1" xmlns="http://www.w3.org/2000/svg" xmlns:xlink="http://www.w3.org/1999/xlink" width="32" height="32" viewBox="0 0 32 32">
<path d="M32 13.546c0-6.279-1.837-11.373-4.109-11.413 0.009 0 0.018-0.001 0.027-0.001h-2.592c0 0-5.838 4.573-14.602 6.367-0.268 1.415-0.438 3.102-0.438 5.047s0.171 3.631 0.438 5.047c8.764 1.794 14.602 6.367 14.602 6.367h2.592c-0.009 0-0.018-0.001-0.027-0.001 2.272-0.040 4.109-5.134 4.109-11.413zM27.864 23.876c-0.298 0-0.621-0.325-0.787-0.518-0.401-0.47-0.788-1.199-1.119-2.11-0.739-2.040-1.147-4.776-1.147-7.702s0.407-5.661 1.147-7.702c0.33-0.912 0.717-1.642 1.119-2.11 0.166-0.194 0.488-0.518 0.787-0.518 0.298 0 0.621 0.325 0.787 0.518 0.401 0.469 0.788 1.198 1.118 2.11 0.739 2.040 1.147 4.776 1.147 7.702s-0.407 5.661-1.147 7.702c-0.329 0.911-0.717 1.642-1.118 2.11-0.166 0.194-0.489 0.518-0.787 0.518zM8.119 13.546c0-1.623 0.119-3.201 0.345-4.659-1.48 0.205-3.029 0.323-4.636 0.323-2.096 0-2.096 0-2.096 0l-1.732 2.959v2.755l1.733 2.959c0 0 0 0 2.096 0 1.605 0 3.155 0.118 4.636 0.323-0.227-1.459-0.346-3.036-0.346-4.66zM26.43 8.543c-0.283 1.522-0.434 3.228-0.434 5.004s0.15 3.481 0.434 5.004c1.479-0.037 2.673-2.263 2.673-5.004 0.001-2.742-1.193-4.968-2.673-5.004zM11.505 20.2l-4-0.767 2.558 10.048c0.133 0.521 0.648 0.782 1.146 0.584l3.705-1.483c0.498-0.199 0.698-0.749 0.444-1.222l-3.853-7.16z"></path>
</svg>
