<svg xmlns="http://www.w3.org/2000/svg" width="32" height="32" viewBox="0 0 32 32"><path d="M7.781 15.063c-.181.134-.412.201-.694.202h-1.6v-1.68h1.478c.141 0 .277.012.408.036s.246.064.347.125c.101.06.181.144.242.251s.091.245.091.412c0 .302-.091.52-.272.654zm-.573 1.277c.342 0 .617.079.825.237s.312.421.312.789c0 .189-.032.343-.096.463s-.149.217-.256.287c-.108.07-.232.121-.373.15-.14.031-.288.046-.442.046h-1.69V16.34h1.72zm23.387 2.505c.191-.964 1.513-1.839 1.513-2.857s-1.321-1.893-1.513-2.856c-.198-.993.68-2.3.3-3.213-.389-.928-1.947-1.238-2.505-2.063-.561-.831-.257-2.376-.968-3.079-.711-.708-2.271-.404-3.108-.959-.833-.555-1.144-2.1-2.08-2.486a1.41 1.41 0 0 0-.54-.097c-.745 0-1.628.423-2.384.423-.108 0-.215-.009-.318-.028-.972-.191-1.855-1.501-2.883-1.501-1.029 0-1.913 1.31-2.884 1.501a1.739 1.739 0 0 1-.317.028c-.758 0-1.64-.423-2.385-.423-.19 0-.372.028-.54.097-.937.386-1.248 1.931-2.08 2.483-.84.555-2.396.251-3.107.957-.712.705-.408 2.25-.97 3.082-.557.823-2.116 1.133-2.505 2.061-.381.913.495 2.223.298 3.217-.191.963-1.512 1.837-1.512 2.856s1.321 1.894 1.512 2.857c.197.992-.681 2.299-.299 3.212.388.928 1.949 1.237 2.505 2.062.562.834.256 2.376.966 3.078.712.71 2.271.405 3.109.96.832.555 1.143 2.101 2.08 2.485.167.069.349.099.539.099.747 0 1.629-.424 2.385-.424.109 0 .215.009.318.027.972.191 1.856 1.502 2.886 1.502 1.028 0 1.911-1.311 2.883-1.502.104-.019.21-.027.316-.027.758 0 1.641.424 2.385.424.189 0 .372-.029.54-.099.935-.385 1.247-1.931 2.081-2.482.838-.555 2.395-.25 3.105-.956.712-.705.409-2.251.97-3.082.559-.824 2.113-1.135 2.504-2.062.38-.912-.496-2.223-.297-3.215zm-20.882-.446c-.141.265-.331.48-.569.648s-.51.292-.815.372a3.652 3.652 0 0 1-.941.121h-3.48v-7.184h3.38c.342 0 .654.03.936.091s.523.159.724.297c.201.137.357.32.468.548.11.228.166.51.166.845 0 .363-.083.664-.247.905-.165.242-.408.44-.729.594.443.127.773.35.991.669s.328.703.328 1.152c0 .363-.071.676-.212.942zm6.731 1.141h-5.453v-7.184h5.373v1.328H12.57v1.54h3.481v1.228H12.57v1.761h3.874v1.327zm4.236-5.856v5.856h-1.579v-5.856h-2.153v-1.328h5.886v1.328H20.68zm6.68 5.856l-.543-1.6H24.13l-.563 1.6h-1.589l2.717-7.184h1.619l2.687 7.184H27.36zm-1.86-5.413l.904 2.636h-1.86l.935-2.636z"/></svg>