<svg xmlns="http://www.w3.org/2000/svg" width="32" height="32" viewBox="0 0 32 32"><path d="M18.315 18.608L11.8 14.872c-.243-.139-.291-.425-.108-.638l3.124-3.61 6.846 3.873c.243.137.448.022.454-.258l.006-.336a1.166 1.166 0 0 0-.387-.827l-5.548-4.433c-.017-.014-.039-.006-.057-.016-.022-.072-.022-.151-.07-.208l-2.026-2.476c-.177-.216-.448-.203-.603.03l-5.345 8.079a1.298 1.298 0 0 0-.151.918l.433 1.637c.072.272.345.572.608.668l6.251 2.301a.524.524 0 0 1 .314.656l-2.238 6.561a.824.824 0 0 0 .218.816l.318.282c.209.186.481.13.603-.121l4.093-8.452a.554.554 0 0 0-.22-.71zM13.966 3.81a3.051 3.051 0 1 1 6.104 0 3.051 3.051 0 1 1-6.104 0zM6.573 31.041C2.949 31.041 0 28.093 0 24.469s2.948-6.572 6.572-6.572 6.573 2.948 6.573 6.572-2.948 6.572-6.572 6.572zm0-11.608c-2.777 0-5.037 2.259-5.037 5.036s2.259 5.036 5.037 5.036 5.037-2.259 5.037-5.036-2.26-5.036-5.037-5.036zm18.855 11.608c-3.624 0-6.573-2.948-6.573-6.572s2.949-6.572 6.573-6.572c3.625 0 6.572 2.948 6.572 6.572s-2.947 6.572-6.572 6.572zm0-11.608c-2.777 0-5.037 2.259-5.037 5.036s2.26 5.036 5.037 5.036 5.037-2.259 5.037-5.036-2.26-5.036-5.037-5.036z"/></svg>