<?xml version="1.0" encoding="utf-8"?>
<!-- Generated by IcoMoon.io -->
<!DOCTYPE svg PUBLIC "-//W3C//DTD SVG 1.1//EN" "http://www.w3.org/Graphics/SVG/1.1/DTD/svg11.dtd">
<svg version="1.1" xmlns="http://www.w3.org/2000/svg" xmlns:xlink="http://www.w3.org/1999/xlink" width="32" height="32" viewBox="0 0 32 32">
<path d="M29.759 10.48l-1.018-8.363c-0.133-1.092-1.141-1.985-2.241-1.985h-21c-1.1 0-2.108 0.893-2.241 1.984l-1.018 8.363c-0.133 1.092-0.241 2.885-0.241 3.985v11.668c0 1.1 0.9 2 2 2v2.5c0 0.824 0.675 1.5 1.5 1.5h1c0.825 0 1.5-0.676 1.5-1.5v-2.5h16v2.5c0 0.824 0.675 1.5 1.5 1.5h1c0.825 0 1.5-0.676 1.5-1.5v-2.5c1.1 0 2-0.9 2-2v-11.668c0-1.1-0.108-2.893-0.241-3.984zM6 3.132c0-0.55 0.45-1 1-1h18c0.55 0 1 0.45 1 1v0.4c0 0.551-0.45 1-1 1h-18c-0.55 0-1-0.45-1-1v-0.4zM6.146 21.882c-0.967 0-1.75-0.785-1.75-1.75s0.783-1.75 1.75-1.75 1.75 0.785 1.75 1.75-0.784 1.75-1.75 1.75zM26.146 21.882c-0.967 0-1.75-0.785-1.75-1.75s0.783-1.75 1.75-1.75 1.75 0.785 1.75 1.75-0.784 1.75-1.75 1.75zM28 16.132h-24v-1.668c0-1.020 0.104-2.732 0.227-3.742l0.558-4.59h22.43l0.559 4.59c0.122 1.010 0.226 2.722 0.226 3.742v1.668z"></path>
</svg>
