<svg xmlns="http://www.w3.org/2000/svg" width="32" height="32" viewBox="0 0 32 32"><path d="M29.759 10.48l-1.018-8.363C28.608 1.025 27.6.132 26.5.132h-21c-1.1 0-2.108.893-2.241 1.984l-1.018 8.363A39.899 39.899 0 0 0 2 14.464v11.668c0 1.1.9 2 2 2v2.5c0 .824.675 1.5 1.5 1.5h1c.825 0 1.5-.676 1.5-1.5v-2.5h16v2.5c0 .824.675 1.5 1.5 1.5h1c.825 0 1.5-.676 1.5-1.5v-2.5c1.1 0 2-.9 2-2V14.464c0-1.1-.108-2.893-.241-3.984zM6 3.132c0-.55.45-1 1-1h18c.55 0 1 .45 1 1v.4c0 .551-.45 1-1 1H7c-.55 0-1-.45-1-1v-.4zm.146 18.75a1.75 1.75 0 1 1 .001-3.501 1.75 1.75 0 0 1-.001 3.501zm20 0a1.75 1.75 0 1 1 .001-3.501 1.75 1.75 0 0 1-.001 3.501zM28 16.132H4v-1.668c0-1.02.104-2.732.227-3.742l.558-4.59h22.43l.559 4.59c.122 1.01.226 2.722.226 3.742v1.668z"/></svg>