<svg xmlns="http://www.w3.org/2000/svg" width="32" height="32" viewBox="0 0 32 32"><path d="M31.595 12.837l-.747-.537a1.805 1.805 0 0 0-.905-.293h-.577a7.508 7.508 0 0 0-.369-.992l-2.889-6.076c-.472-.995-1.759-1.807-2.859-1.807H8.83c-1.1 0-2.387.812-2.858 1.807l-2.89 6.076a7.651 7.651 0 0 0-.369.992h-.655c-.275 0-.683.131-.905.293l-.748.537A1.108 1.108 0 0 0 0 13.63v.562c0 .275.216.561.481.635l.595.168c.265.076.706.137.982.137h.167v8c0 1.02.786 1.838 1.776 1.955v2.545c-.001.824.674 1.5 1.499 1.5h1c.825 0 1.5-.676 1.5-1.5v-2.5h16v2.5c0 .824.675 1.5 1.5 1.5h1c.825 0 1.5-.676 1.5-1.5v-2.529c1.029-.08 1.854-.922 1.854-1.971v-8h.088c.275 0 .717-.061.981-.137l.595-.168a.698.698 0 0 0 .482-.634v-.562c0-.276-.183-.632-.405-.794zM26 20.882a1.75 1.75 0 1 1 .001-3.501A1.75 1.75 0 0 1 26 20.882zM4.767 12.124c.03-.078.06-.172.091-.238l2.894-6.082c.143-.303.723-.672 1.052-.672h14.471c.33 0 .909.369 1.054.67l2.893 6.086c.028.059.054.143.081.211.117.295.229.648.325 1.033H4.452c.092-.375.2-.717.315-1.008zM6 17.382a1.75 1.75 0 1 1-.001 3.501A1.75 1.75 0 0 1 6 17.382z"/></svg>