<?xml version="1.0" encoding="utf-8"?>
<!-- Generated by IcoMoon.io -->
<!DOCTYPE svg PUBLIC "-//W3C//DTD SVG 1.1//EN" "http://www.w3.org/Graphics/SVG/1.1/DTD/svg11.dtd">
<svg version="1.1" xmlns="http://www.w3.org/2000/svg" xmlns:xlink="http://www.w3.org/1999/xlink" width="32" height="32" viewBox="0 0 32 32">
<path d="M28.179 7.907c-3.835-2.181-9.32-2.4-12.175-2.4-0.002 0.002-0.003 0.004-0.004 0.005-0.002-0.001-0.003-0.002-0.005-0.004-2.855 0-8.338 0.219-12.175 2.4-3.223 1.834-3.32 3.797-3.32 5.167v0.206c0 0.313 0.27 0.57 0.601 0.57h7.274c0.331 0 0.601-0.257 0.601-0.57v-0.694c0-1.732 1.656-2.009 2.57-2.155s3.186-0.29 4.449-0.29c0.002 0 0.003 0 0.005 0s0.003 0 0.004 0c1.264 0 3.534 0.142 4.45 0.29 0.913 0.147 2.569 0.425 2.569 2.155v0.694c0 0.313 0.271 0.57 0.602 0.57h7.273c0.33 0 0.602-0.257 0.602-0.57v-0.206c0-1.37-0.097-3.333-3.321-5.168zM16 13.632c-1.717 0-5.294-0.247-7.111 1.957-1.817 2.202-6.363 13.168-2.31 13.168 4.054 0 7.596 0 9.421 0s5.367 0 9.421 0-0.492-10.966-2.31-13.168c-1.817-2.203-5.393-1.957-7.111-1.957zM16 25.851c-2.675 0-4.844-2.17-4.844-4.844 0-2.675 2.169-4.844 4.844-4.844 2.676 0 4.844 2.169 4.844 4.844 0 2.674-2.168 4.844-4.844 4.844z"></path>
</svg>
