<?xml version="1.0" encoding="utf-8"?>
<!-- Generated by IcoMoon.io -->
<!DOCTYPE svg PUBLIC "-//W3C//DTD SVG 1.1//EN" "http://www.w3.org/Graphics/SVG/1.1/DTD/svg11.dtd">
<svg version="1.1" xmlns="http://www.w3.org/2000/svg" xmlns:xlink="http://www.w3.org/1999/xlink" width="32" height="32" viewBox="0 0 32 32">
<path d="M31.504 18.766c0-2.077-1.708-3.869-4.173-4.702-0.249 3.78-3.321 7.030-7.747 8.7 0.822 0.488 1.796 0.85 2.864 1.041 0.772 1.805 1.993 3.535 3.489 4.672-0.81-1.59-0.857-3.179-0.572-4.578 3.479-0.39 6.139-2.539 6.139-5.133zM25.269 13.57c0-4.591-5.584-8.313-12.47-8.313s-12.47 3.722-12.47 8.313c0 3.419 3.095 6.354 7.52 7.632 0.692 1.712 1.083 3.972-0.069 6.232 1.75-1.327 3.123-3.47 3.842-5.589 0.387 0.025 0.78 0.038 1.177 0.038 6.886 0.001 12.47-3.722 12.47-8.313z"></path>
</svg>
