<?xml version="1.0" encoding="utf-8"?>
<!-- Generated by IcoMoon.io -->
<!DOCTYPE svg PUBLIC "-//W3C//DTD SVG 1.1//EN" "http://www.w3.org/Graphics/SVG/1.1/DTD/svg11.dtd">
<svg version="1.1" xmlns="http://www.w3.org/2000/svg" xmlns:xlink="http://www.w3.org/1999/xlink" width="32" height="32" viewBox="0 0 32 32">
<path d="M27.842 5.625c-0.772 0-1.451-0.39-1.855-0.983-0.255 0.146-0.776 0.427-1.489 0.823 0.043 0.149 0.066 0.306 0.066 0.468 0 0.923-0.747 1.672-1.672 1.672-0.474 0-0.901-0.2-1.207-0.518-0.392 0.236-0.8 0.484-1.222 0.745 0.025 0.101 0.040 0.207 0.040 0.315 0 0.726-0.587 1.314-1.313 1.314-0.31 0-0.593-0.109-0.817-0.288-0.422 0.281-0.848 0.571-1.276 0.868 0.012 0.062 0.018 0.125 0.018 0.189 0 0.531-0.429 0.959-0.958 0.959-0.175 0-0.338-0.047-0.479-0.128-1.611 1.193-3.194 2.495-4.564 3.858 1.64 3.983 2.261 7.325 2.133 8.237-0.124 0.904-0.824 2.030-1.96 1.696-0.355-0.104-0.263-0.416-0.035-0.526 0.142-0.065 0.494-0.296 0.565-0.841 0.128-1.004-0.459-4.013-1.679-7.544-0.005 0.007-0.011-0.065-0.015-0.059-0.615 0.672-1.168 1.85-1.67 1.85h0.88c0.247 0 0.449 0.302 0.449 0.547 0 0.25-0.202 0.551-0.449 0.551h-1.592c-0.433 0-0.818 1.099-1.161 1.099h2.753c0.247 0 0.449 0.298 0.449 0.547 0 0.247-0.202 0.549-0.449 0.549h-3.324c-0.364 1.098-0.667 1.098-0.914 2.196h4.238c0.247 0 0.449 0.302 0.449 0.549s-0.202 0.549-0.449 0.549h-4.622c-1.836 4.391 1.052 6.142 1.125 6.186 0.406 0.238-0.024 0.907-0.968 0.501-6.486-2.789-0.568-11.728 4.799-16.308-1.415-3.755-3.491-7.899-6.133-10.742-0.006-0.006-0.012-0.025-0.016-0.030-0.419-0.448-0.117-0.612 0.247-0.254 0.003 0.004 0.007 0.001 0.010 0.005 3.113 3.033 5.351 6.756 6.868 10.148 1.301-1.111 2.906-2.255 4.585-3.346-0.019-0.078-0.032-0.161-0.032-0.247 0-0.53 0.431-0.959 0.96-0.959 0.235 0 0.452 0.086 0.619 0.227 0.416-0.257 0.833-0.51 1.245-0.756-0.090-0.179-0.143-0.382-0.143-0.597 0-0.726 0.589-1.313 1.312-1.313 0.46 0 0.863 0.236 1.097 0.594 0.4-0.226 0.789-0.443 1.165-0.651-0.146-0.247-0.23-0.536-0.23-0.844 0-0.923 0.748-1.671 1.671-1.671 0.66 0 1.23 0.383 1.503 0.94 0.728-0.378 1.25-0.64 1.473-0.752-0.174-0.318-0.271-0.684-0.271-1.072 0-1.241 1.005-2.246 2.245-2.246s2.246 1.005 2.246 2.246c0 1.241-1.006 2.247-2.246 2.247z"></path>
</svg>
