<?xml version="1.0" encoding="utf-8"?>
<!-- Generated by IcoMoon.io -->
<!DOCTYPE svg PUBLIC "-//W3C//DTD SVG 1.1//EN" "http://www.w3.org/Graphics/SVG/1.1/DTD/svg11.dtd">
<svg version="1.1" xmlns="http://www.w3.org/2000/svg" xmlns:xlink="http://www.w3.org/1999/xlink" width="32" height="32" viewBox="0 0 32 32">
<path d="M19.131 16.62l11.527-5.762c0.486-0.242 0.938-0.555 1.342-0.914v15.688c0 1.375-1.125 2.5-2.5 2.5h-27c-1.375 0-2.5-1.125-2.5-2.5v-15.688c0.404 0.36 0.856 0.672 1.342 0.915l11.527 5.761c0.868 0.434 1.98 0.674 3.131 0.674s2.263-0.24 3.131-0.674zM2.236 9.251c-1.23-0.615-2.236-2.017-2.236-3.119 0-1.1 1.125-2 2.5-2h27c1.375 0 2.5 0.9 2.5 2 0 1.102-1.006 2.504-2.237 3.119l-11.527 5.764c-0.615 0.307-1.425 0.461-2.236 0.461s-1.621-0.154-2.236-0.461l-11.528-5.764z"></path>
</svg>
