<svg xmlns="http://www.w3.org/2000/svg" width="32" height="32" viewBox="0 0 32 32"><path d="M20.6 9.042a1.32 1.32 0 1 1 2.642-.002 1.32 1.32 0 0 1-2.642.002zm6.307 0a1.322 1.322 0 1 1 2.643.001 1.322 1.322 0 0 1-2.643-.001zM20.6 12.587a1.32 1.32 0 1 1 2.641 0 1.32 1.32 0 1 1-2.641 0zm6.307 0a1.322 1.322 0 1 1 2.643.001 1.322 1.322 0 0 1-2.643-.001zM20.6 16.132a1.32 1.32 0 1 1 2.641 0 1.32 1.32 0 1 1-2.641 0zm6.307 0a1.322 1.322 0 1 1 2.643.001 1.322 1.322 0 0 1-2.643-.001zM20.6 19.676a1.322 1.322 0 0 1 2.641 0 1.322 1.322 0 0 1-2.641 0zm6.307 0a1.32 1.32 0 1 1 2.641.001 1.32 1.32 0 0 1-2.641-.001zM20.6 23.221a1.32 1.32 0 1 1 2.642-.002 1.32 1.32 0 0 1-2.642.002zm6.307 0a1.322 1.322 0 0 1 2.641 0 1.32 1.32 0 0 1-2.641 0zm-25.223 0a1.32 1.32 0 1 1 2.642 0 1.32 1.32 0 0 1-2.642 0zM14.295 1.952a1.322 1.322 0 1 1 2.643.001 1.322 1.322 0 0 1-2.643-.001zm0 0a1.322 1.322 0 1 1 2.643.001 1.322 1.322 0 0 1-2.643-.001zm0 28.36a1.32 1.32 0 1 1 2.642.002 1.32 1.32 0 0 1-2.642-.002zm0 0a1.32 1.32 0 1 1 2.642.002 1.32 1.32 0 0 1-2.642-.002zm3.152-26.587a1.322 1.322 0 0 1 2.641 0 1.32 1.32 0 0 1-2.641 0zm-6.303 0a1.32 1.32 0 1 1 2.642 0 1.32 1.32 0 0 1-2.642 0zm6.303 24.814a1.32 1.32 0 1 1 2.642.002 1.32 1.32 0 0 1-2.642-.002zm-6.303 0a1.32 1.32 0 1 1 2.64 0 1.32 1.32 0 0 1-2.64 0zm3.151-23.042a1.322 1.322 0 1 1 2.643.001 1.322 1.322 0 0 1-2.643-.001zm6.305 0a1.32 1.32 0 1 1 2.641 0 1.322 1.322 0 0 1-2.641 0zm-12.609 0a1.32 1.32 0 1 1 2.64-.002 1.32 1.32 0 0 1-2.64.002zm6.304 21.271a1.322 1.322 0 1 1 2.644-.002 1.322 1.322 0 0 1-2.644.002zm6.305 0a1.32 1.32 0 1 1 2.641 0 1.322 1.322 0 0 1-2.641 0zm-12.609 0a1.32 1.32 0 1 1 1.319 1.32 1.32 1.32 0 0 1-1.319-1.32zm9.456-19.499a1.32 1.32 0 1 1 2.642.002 1.32 1.32 0 0 1-2.642-.002zm6.306 0a1.32 1.32 0 1 1 2.642.002 1.32 1.32 0 0 1-2.642-.002zm-12.609 0a1.32 1.32 0 1 1 2.64 0 1.32 1.32 0 0 1-2.64 0zm-6.308 0a1.322 1.322 0 0 1 2.643 0 1.322 1.322 0 0 1-2.643 0zm12.611 3.544a1.32 1.32 0 1 1 2.642.002 1.32 1.32 0 0 1-2.642-.002zm6.306 0a1.32 1.32 0 1 1 2.642.002 1.32 1.32 0 0 1-2.642-.002zm-12.609 0a1.32 1.32 0 1 1 2.64 0 1.32 1.32 0 0 1-2.64 0zm-6.308 0a1.322 1.322 0 0 1 2.643 0 1.323 1.323 0 0 1-2.643 0zm12.611 3.546a1.322 1.322 0 1 1 2.643.001 1.322 1.322 0 0 1-2.643-.001zm6.306 0a1.322 1.322 0 1 1 2.643.001 1.322 1.322 0 0 1-2.643-.001zm-12.609 0a1.32 1.32 0 1 1 2.642 0 1.32 1.32 0 0 1-2.642 0zm-6.308 0a1.321 1.321 0 1 1 2.644 0 1.321 1.321 0 0 1-2.644 0zm12.611 3.544a1.32 1.32 0 1 1 2.64 0 1.32 1.32 0 0 1-2.64 0zm6.306 0a1.321 1.321 0 1 1 1.321 1.321 1.322 1.322 0 0 1-1.321-1.321zm-12.609 0a1.32 1.32 0 1 1 2.641 0 1.322 1.322 0 0 1-2.641 0zm-6.308 0a1.322 1.322 0 1 1 2.643.003 1.322 1.322 0 0 1-2.643-.003zm12.611 3.544a1.32 1.32 0 1 1 2.64.002 1.32 1.32 0 0 1-2.64-.002zm6.306 0a1.32 1.32 0 1 1 1.321 1.322 1.322 1.322 0 0 1-1.321-1.322zm-12.609 0a1.32 1.32 0 1 1 1.32 1.322c-.729 0-1.32-.592-1.32-1.322zm-6.308 0a1.322 1.322 0 1 1 2.643.005 1.322 1.322 0 0 1-2.643-.005zm12.611 3.545a1.32 1.32 0 1 1 2.64.002 1.32 1.32 0 0 1-2.64-.002zm6.306 0a1.32 1.32 0 1 1 1.321 1.323 1.323 1.323 0 0 1-1.321-1.323zm-12.609 0a1.32 1.32 0 1 1 1.32 1.323c-.729 0-1.32-.593-1.32-1.323zm-6.308 0a1.322 1.322 0 1 1 2.643.005 1.322 1.322 0 0 1-2.643-.005zm9.459-15.951a1.32 1.32 0 1 1 2.642.002 1.32 1.32 0 0 1-2.642-.002zm-6.304.001a1.32 1.32 0 1 1 2.64-.002 1.32 1.32 0 0 1-2.64.002zm-6.307 0a1.32 1.32 0 1 1 2.642 0 1.32 1.32 0 0 1-2.642 0zm12.611 3.545a1.322 1.322 0 1 1 2.643.001 1.322 1.322 0 0 1-2.643-.001zm-6.304 0a1.32 1.32 0 1 1 2.64-.002 1.32 1.32 0 0 1-2.64.002zm-6.307 0a1.32 1.32 0 1 1 2.642 0 1.32 1.32 0 0 1-2.642 0zm12.611 3.545a1.322 1.322 0 1 1 2.643.001 1.322 1.322 0 0 1-2.643-.001zm-6.304 0a1.32 1.32 0 1 1 2.64-.002 1.32 1.32 0 0 1-2.64.002zm-6.307 0a1.32 1.32 0 1 1 2.642 0 1.32 1.32 0 0 1-2.642 0zm12.611 3.544a1.32 1.32 0 1 1 2.642.002 1.32 1.32 0 0 1-2.642-.002zm-6.304 0a1.322 1.322 0 0 1 2.641 0 1.322 1.322 0 0 1-2.641 0zm-6.307 0a1.32 1.32 0 1 1 2.64 0 1.32 1.32 0 0 1-2.64 0zm12.611 3.545a1.322 1.322 0 1 1 2.643.001 1.322 1.322 0 0 1-2.643-.001zm-6.304 0a1.32 1.32 0 1 1 2.64-.002 1.32 1.32 0 0 1-2.64.002z"/></svg>