<?xml version="1.0" encoding="utf-8"?>
<!-- Generated by IcoMoon.io -->
<!DOCTYPE svg PUBLIC "-//W3C//DTD SVG 1.1//EN" "http://www.w3.org/Graphics/SVG/1.1/DTD/svg11.dtd">
<svg version="1.1" xmlns="http://www.w3.org/2000/svg" xmlns:xlink="http://www.w3.org/1999/xlink" width="32" height="32" viewBox="0 0 32 32">
<path d="M16 0.132c-8.823 0-16 7.179-16 16s7.177 16 16 16 16-7.178 16-16c0-8.821-7.178-16-16-16zM29.646 16.132c0 3.121-1.059 6-2.826 8.302-0.5-0.394-1.032-1.447-0.532-2.54 0.504-1.101 0.637-3.646 0.521-4.637-0.11-0.991-0.625-3.377-2.024-3.4-1.396-0.021-2.354-0.483-3.185-2.139-1.722-3.446 3.233-4.107 1.512-6.017-0.483-0.535-2.972 2.206-3.337-1.448-0.025-0.258 0.225-0.649 0.558-1.055 5.406 1.816 9.313 6.926 9.313 12.934zM14.125 2.622c-0.326 0.635-1.188 0.894-1.711 1.372-1.14 1.031-1.629 0.888-2.244 1.878-0.618 0.989-2.611 2.416-2.611 3.132 0 0.714 1.008 1.561 1.511 1.396s1.83-0.156 2.611 0.118c0.781 0.276 6.524 0.552 4.694 5.406-0.58 1.543-3.121 1.282-3.798 3.84-0.101 0.374-0.452 1.977-0.476 2.501-0.042 0.809 0.572 3.862-0.208 3.862-0.785 0-2.896-2.73-2.896-3.226 0-0.494-0.548-2.231-0.548-3.717s-2.528-1.463-2.528-3.438c0-1.783 1.372-2.669 1.062-3.523-0.302-0.849-2.711-0.88-3.715-0.983 1.753-4.55 5.881-7.931 10.857-8.618zM11.708 29.082c0.819-0.433 0.902-0.991 1.646-1.021 0.851-0.039 1.542-0.334 2.5-0.543 0.851-0.186 2.372-1.049 3.711-1.16 1.128-0.092 3.357 0.060 3.959 1.149-2.16 1.434-4.747 2.271-7.525 2.271-1.499 0-2.94-0.247-4.291-0.696z"></path>
</svg>
