<svg xmlns="http://www.w3.org/2000/svg" width="32" height="32" viewBox="0 0 32 32"><path d="M14.036 2.182c.34 0 .62.279.62.62V29.46c0 .342-.28.62-.62.62H12.64a.621.621 0 0 1-.62-.62V15.82H6.54c-.256 0-.574-.058-.879-.152a3.122 3.122 0 0 1-.808-.367l-3.681-2.526c-.208-.143-.312-.331-.312-.519s.104-.377.312-.519L4.853 9.21c.208-.142.502-.272.808-.366.305-.093.623-.152.879-.152h5.48v-5.89c0-.341.279-.62.62-.62h1.396zm17.513 6.456c.208.143.312.33.312.519s-.104.376-.312.519l-3.681 2.527a3.104 3.104 0 0 1-.808.367 3.203 3.203 0 0 1-.879.152h-9.354l-1.241-7.13h10.595c.256 0 .572.058.879.152.306.095.599.224.808.367l3.681 2.527z"/></svg>