<svg xmlns="http://www.w3.org/2000/svg" width="32" height="32" viewBox="0 0 32 32"><path d="M27.968 24.209c.618 0 1.208.263 1.62.721.391.431.59.991.561 1.573a2.168 2.168 0 0 1-.719 1.51 15.969 15.969 0 0 1-15.556 3.363v.009c-.042-.013-.082-.03-.124-.044-.183-.06-.361-.13-.54-.196-.217-.079-.434-.156-.645-.244-.169-.072-.332-.151-.498-.228-.216-.098-.432-.196-.642-.303-.152-.078-.298-.165-.447-.248-.217-.12-.433-.238-.643-.367-.134-.082-.262-.173-.393-.26-.217-.142-.434-.284-.643-.436-.114-.084-.223-.176-.335-.262-.217-.167-.433-.333-.641-.511-.095-.082-.184-.17-.277-.253a16.96 16.96 0 0 1-.635-.592c-.075-.075-.146-.156-.22-.234a15.433 15.433 0 0 1-.625-.678c-.058-.066-.11-.139-.167-.206a17.165 17.165 0 0 1-.606-.768c-.042-.059-.079-.118-.12-.177-.2-.279-.394-.562-.576-.856-.028-.046-.053-.095-.081-.141a16.201 16.201 0 0 1-.533-.944c-.018-.036-.033-.074-.052-.109a15.44 15.44 0 0 1-.478-1.026l-.031-.081c-.081-.196-.149-.398-.223-.596H1.812a2.139 2.139 0 1 1 0-4.278h.948a15.401 15.401 0 0 1-.035-.863l.001.268c-.008-.206-.016-.412-.016-.62 0-.159.007-.316.012-.473v.168c.006-.304.013-.609.036-.911h-.946a2.14 2.14 0 0 1 0-4.278h1.886c.065-.178.122-.358.193-.533l.003-.007a15.962 15.962 0 0 1 2.938-4.684c.049-.055.107-.098.161-.147C9.917 2.114 14.084.132 18.712.132c3.969 0 7.775 1.463 10.719 4.119.433.391.689.927.718 1.509s-.17 1.141-.561 1.574a2.185 2.185 0 0 1-3.084.157 11.606 11.606 0 0 0-7.792-2.994c-4.426 0-8.272 2.492-10.237 6.14H25.44a2.139 2.139 0 1 1 0 4.278H7.143c-.041.385-.063.773-.064 1.164.003-.141.015-.28.021-.421l.008 1.093c-.008-.162-.02-.322-.026-.484.004.364.024.725.062 1.08H25.44a2.138 2.138 0 1 1 0 4.278H8.491a11.76 11.76 0 0 0 2.645 3.318 11.69 11.69 0 0 0 2.735 1.756v.006a11.51 11.51 0 0 0 4.841 1.061c2.886 0 5.653-1.063 7.793-2.995a2.177 2.177 0 0 1 1.463-.562z"/></svg>