<?xml version="1.0" encoding="utf-8"?>
<!-- Generated by IcoMoon.io -->
<!DOCTYPE svg PUBLIC "-//W3C//DTD SVG 1.1//EN" "http://www.w3.org/Graphics/SVG/1.1/DTD/svg11.dtd">
<svg version="1.1" xmlns="http://www.w3.org/2000/svg" xmlns:xlink="http://www.w3.org/1999/xlink" width="32" height="32" viewBox="0 0 32 32">
<path d="M27.968 24.209c0.618 0 1.208 0.263 1.62 0.721 0.391 0.431 0.59 0.991 0.561 1.573-0.030 0.583-0.285 1.119-0.719 1.51-2.943 2.656-6.749 4.119-10.718 4.119-1.688 0-3.313-0.27-4.838-0.756v0.009c-0.042-0.013-0.082-0.030-0.124-0.044-0.183-0.060-0.361-0.13-0.54-0.196-0.217-0.079-0.434-0.156-0.645-0.244-0.169-0.072-0.332-0.151-0.498-0.228-0.216-0.098-0.432-0.196-0.642-0.303-0.152-0.078-0.298-0.165-0.447-0.248-0.217-0.12-0.433-0.238-0.643-0.367-0.134-0.082-0.262-0.173-0.393-0.26-0.217-0.142-0.434-0.284-0.643-0.436-0.114-0.084-0.223-0.176-0.335-0.262-0.217-0.167-0.433-0.333-0.641-0.511-0.095-0.082-0.184-0.17-0.277-0.253-0.216-0.194-0.43-0.388-0.635-0.592-0.075-0.075-0.146-0.156-0.22-0.234-0.213-0.221-0.425-0.444-0.625-0.678-0.058-0.066-0.11-0.139-0.167-0.206-0.208-0.252-0.413-0.505-0.606-0.768-0.042-0.059-0.079-0.118-0.12-0.177-0.2-0.279-0.394-0.562-0.576-0.856-0.028-0.046-0.053-0.095-0.081-0.141-0.187-0.309-0.367-0.623-0.533-0.944-0.018-0.036-0.033-0.074-0.052-0.109-0.17-0.336-0.332-0.676-0.478-1.026-0.011-0.026-0.020-0.055-0.031-0.081-0.081-0.196-0.149-0.398-0.223-0.596h-1.887c-1.181 0-2.139-0.957-2.139-2.139s0.958-2.139 2.139-2.139h0.948c-0.022-0.285-0.029-0.574-0.035-0.863l0.001 0.268c-0.008-0.206-0.016-0.412-0.016-0.62 0-0.159 0.007-0.316 0.012-0.473v0.168c0.006-0.304 0.013-0.609 0.036-0.911h-0.946c-1.181 0-2.139-0.958-2.139-2.139s0.958-2.139 2.139-2.139h1.886c0.065-0.178 0.122-0.358 0.193-0.533 0.001-0.002 0.002-0.005 0.003-0.007 0.694-1.705 1.681-3.292 2.938-4.684 0.049-0.055 0.107-0.098 0.161-0.147 2.924-3.153 7.091-5.135 11.719-5.135 3.969 0 7.775 1.463 10.719 4.119 0.433 0.391 0.689 0.927 0.718 1.509s-0.17 1.141-0.561 1.574c-0.413 0.458-1.004 0.72-1.62 0.72-0.543 0-1.062-0.2-1.464-0.563-2.139-1.931-4.906-2.994-7.792-2.994-4.426 0-8.272 2.492-10.237 6.14h16.965c1.182 0 2.139 0.958 2.139 2.139s-0.957 2.139-2.139 2.139h-18.297c-0.041 0.385-0.063 0.773-0.064 1.164 0.003-0.141 0.015-0.28 0.021-0.421l0.008 1.093c-0.008-0.162-0.020-0.322-0.026-0.484 0.004 0.364 0.024 0.725 0.062 1.080h18.296c1.182 0 2.139 0.957 2.139 2.139s-0.957 2.139-2.139 2.139h-16.949c0.68 1.259 1.57 2.389 2.645 3.318 0.821 0.705 1.74 1.299 2.735 1.756v0.006c1.474 0.681 3.113 1.061 4.841 1.061 2.886 0 5.653-1.063 7.793-2.995 0.402-0.363 0.921-0.562 1.463-0.562z"></path>
</svg>
