<?xml version="1.0" encoding="utf-8"?>
<!-- Generated by IcoMoon.io -->
<!DOCTYPE svg PUBLIC "-//W3C//DTD SVG 1.1//EN" "http://www.w3.org/Graphics/SVG/1.1/DTD/svg11.dtd">
<svg version="1.1" xmlns="http://www.w3.org/2000/svg" xmlns:xlink="http://www.w3.org/1999/xlink" width="32" height="32" viewBox="0 0 32 32">
<path d="M10.504 18.3l0.229-0.055 0.056-0.015 0.057-0.012 0.142-0.037c0.168-0.040 0.336-0.081 0.504-0.125l0.037-0.009 0.007-0.002c0.243-0.064 0.45-0.137 0.614-0.212-0.388-0.107-0.813-0.207-1.239-0.311-0.040-0.008-0.079-0.018-0.12-0.029-0.031-0.007-0.062-0.014-0.094-0.021-0.132-0.034-0.264-0.065-0.394-0.098-0.344-0.088-1.13-0.347-1.222-0.785 0.013-1.505 0.608-1.527 0.912-2.149 0.305-0.621 0.829-2.157 0.305-4.663-0.395-1.884-3.042-1.866-3.042-1.866s-0.009 0-0.012 0c-0.003 0-0.012 0-0.012 0s-0.372-0.002-0.859 0.095c-0.811 0.159-1.937 0.595-2.183 1.771-0.524 2.506 0 4.041 0.304 4.663 0.098 0.2 0.226 0.339 0.356 0.486 0.271 0.306 0.548 0.645 0.557 1.664-0.091 0.438-0.88 0.697-1.221 0.785-0.005 0.002-0.011 0.004-0.016 0.005-0.123 0.030-0.248 0.060-0.373 0.093-0.035 0.009-0.071 0.017-0.106 0.026-0.029 0.007-0.057 0.014-0.084 0.020-1.16 0.28-2.318 0.543-2.762 0.966-0.498 0.474-0.913 2.615-0.304 3.235 0.49 0.5 2.547 0.997 4.915 1.176 0.008 0 0.017-1.058 0.027-1.058 0.125-0.756 0.514-1.522 1.063-2.046 0.751-0.717 2.237-1.078 3.959-1.491zM25.639 21.839v0c-0.058-0.285-0.166-0.561-0.302-0.811-0.002 0-0.002-0.002-0.002-0.002-0.062-0.108-0.128-0.208-0.197-0.306-0.011-0.012-0.018-0.030-0.029-0.045-0.081-0.105-0.165-0.201-0.252-0.285-0.601-0.573-2.165-0.93-3.739-1.311-0.053-0.012-0.108-0.027-0.163-0.040-0.044-0.010-0.088-0.020-0.13-0.031-0.181-0.044-0.36-0.090-0.541-0.133-0.048-0.014-0.107-0.030-0.168-0.049-0.035-0.010-0.073-0.020-0.108-0.033-0.027-0.008-0.053-0.017-0.083-0.028-0.051-0.015-0.102-0.035-0.156-0.055-0.010-0.004-0.023-0.009-0.034-0.012-0.262-0.102-0.543-0.236-0.759-0.405-0.003-0.001-0.005-0.004-0.008-0.006-0.056-0.043-0.104-0.089-0.149-0.136-0.099-0.105-0.177-0.221-0.204-0.351 0.017-2.059 0.834-2.090 1.248-2.939 0.418-0.851 1.134-2.952 0.418-6.382-0.54-2.576-4.162-2.552-4.162-2.552s-0.012 0-0.016 0c-0.005 0-0.017 0-0.017 0s-0.509-0.004-1.174 0.128c-1.109 0.219-2.65 0.814-2.988 2.424-0.718 3.43 0 5.531 0.416 6.383 0.134 0.274 0.31 0.464 0.487 0.663 0.371 0.418 0.749 0.882 0.761 2.277-0.027 0.13-0.104 0.245-0.204 0.351-0.044 0.047-0.095 0.093-0.149 0.136-0.003 0.002-0.005 0.005-0.008 0.007-0.216 0.169-0.496 0.302-0.758 0.402-0.011 0.006-0.025 0.011-0.038 0.015-0.052 0.018-0.103 0.038-0.152 0.052-0.030 0.011-0.057 0.021-0.086 0.029-0.037 0.012-0.072 0.023-0.107 0.033-0.061 0.018-0.12 0.035-0.169 0.049-0.008 0.001-0.014 0.003-0.021 0.005-0.17 0.041-0.341 0.084-0.512 0.127-0.049 0.012-0.096 0.024-0.144 0.034-0.039 0.010-0.077 0.020-0.116 0.029-1.587 0.383-3.172 0.742-3.78 1.32-0.085 0.084-0.17 0.18-0.25 0.287-0.009 0.011-0.016 0.026-0.024 0.035-0.534 0.735-0.856 4.046-0.141 4.777 0.669 0.682 3.486 1.363 6.724 1.606 0.027 0.002 0.053 0.002 0.081 0.005 0.373 0.027 0.75 0.050 1.13 0.064 0 0 0.001 0 0.001 0 0.008 0.002 0.015 0.002 0.024 0.002s0.014 0 0.024 0c0.389 0.016 0.78 0.025 1.172 0.025 0.006 0 0.011 0 0.017 0 0.005 0 0.011 0 0.016 0 0.393 0 0.783-0.009 1.172-0.025 0.015 0 0.031 0 0.047-0.002 0.381-0.012 0.761-0.036 1.134-0.064 0.026-0.003 0.052-0.003 0.078-0.005 3.238-0.242 6.055-0.924 6.723-1.606 0.409-0.418 0.478-3.104 0.366-3.651v0zM31.131 18.483c-0.439-0.42-1.584-0.683-2.733-0.96-0.041-0.008-0.078-0.018-0.118-0.029-0.034-0.007-0.064-0.014-0.097-0.021-0.13-0.034-0.262-0.065-0.392-0.098-0.343-0.088-1.13-0.347-1.22-0.785 0.012-1.505 0.608-1.527 0.911-2.149s0.829-2.157 0.304-4.663c-0.395-1.884-3.041-1.866-3.041-1.866s-0.010 0-0.014 0c-0.002 0-0.011 0-0.011 0s-0.372-0.002-0.86 0.095c-0.809 0.159-1.936 0.595-2.184 1.771-0.522 2.506 0 4.041 0.307 4.663 0.096 0.201 0.226 0.339 0.354 0.486 0.273 0.306 0.549 0.645 0.558 1.664-0.093 0.438-0.88 0.697-1.223 0.785-0.006 0.002-0.010 0.004-0.015 0.005-0.124 0.030-0.25 0.060-0.375 0.093-0.034 0.009-0.069 0.017-0.105 0.026-0.029 0.007-0.055 0.014-0.083 0.020-0.436 0.105-0.871 0.207-1.268 0.317 0.168 0.076 0.379 0.153 0.631 0.218l0.555 0.136 0.101 0.026 0.099 0.023 0.071 0.017 0.188 0.044c1.721 0.415 3.209 0.774 3.962 1.491 0.548 0.523 0.938 1.289 1.060 2.046 0.010 0 0.020 1.058 0.027 1.058 2.366-0.178 4.425-0.675 4.915-1.176 0.608-0.619 0.192-2.761-0.305-3.235z"></path>
</svg>
