<svg xmlns="http://www.w3.org/2000/svg" width="32" height="32" viewBox="0 0 32 32"><path d="M16 .632C7.439.632.5 7.571.5 16.132s6.939 15.5 15.5 15.5 15.5-6.939 15.5-15.5S24.561.632 16 .632zm0 27.125a2.906 2.906 0 1 1 0-5.812 2.906 2.906 0 0 1 0 5.812zm6.785-16.406c-.151.511-.36.996-.63 1.453a7.597 7.597 0 0 1-.969 1.3c-.378.41-.791.803-1.245 1.18-.506.419-.913.792-1.219 1.115s-.515.604-.622.839c-.203.435-.355 1.477-.163 2.769h-3.872c-.031-2.297.306-3.421.708-4.253.41-.841 1.173-1.729 2.293-2.666.486-.397.862-.751 1.131-1.059s.475-.581.613-.823c.14-.242.227-.469.26-.68.032-.209.049-.427.049-.653 0-.421-.074-.808-.219-1.163s-.353-.662-.621-.92a2.922 2.922 0 0 0-.953-.606 3.302 3.302 0 0 0-1.227-.218c-1.767 0-2.844 1.232-3.231 3.7H8.992c.097-1.056.336-2.011.719-2.867s.882-1.584 1.502-2.182 1.342-1.059 2.166-1.381c.824-.324 1.721-.485 2.69-.485 1.033 0 1.975.148 2.826.444.852.297 1.58.709 2.188 1.236a5.587 5.587 0 0 1 1.422 1.89c.339.732.51 1.53.51 2.391a5.88 5.88 0 0 1-.23 1.639z"/></svg>