<?xml version="1.0" encoding="utf-8"?>
<!-- Generated by IcoMoon.io -->
<!DOCTYPE svg PUBLIC "-//W3C//DTD SVG 1.1//EN" "http://www.w3.org/Graphics/SVG/1.1/DTD/svg11.dtd">
<svg version="1.1" xmlns="http://www.w3.org/2000/svg" xmlns:xlink="http://www.w3.org/1999/xlink" width="32" height="32" viewBox="0 0 32 32">
<path d="M32 13.154l-5.768-9.678c0 0-3.012 2.308-4.037 2.211s-4.903-0.929-5.544-0.673c-0.332 0.133-1.006 0.866-1.65 1.645-0.628-0.101-2.663-0.624-7.319-3.36-0.259-0.152-0.59-0.080-0.764 0.165l-6.312 8.941c-0.107 0.151-0.134 0.346-0.074 0.521 0.055 0.158 1.288 3.647 4.056 6.751l0.771-0.871c-2.127-2.429-3.298-5.135-3.634-5.986l5.831-8.259c3.514 2.032 5.542 2.809 6.645 3.102-0.271 0.353-0.495 0.657-0.626 0.845-0.513 0.737-2.659 2.691-2.852 3.525-0.084 0.363 0.737 1.377 2.275 1.346 1.538-0.033 3.013-0.865 3.525-1.314s1.987-1.57 2.627-0.833 2.948 2.729 4.070 3.365c0.776 0.44 2.664 1.485 3.877 2.154 0.789 0.871 1.453 1.895 1.066 2.449-0.1 0.14-0.287 0.325-0.786 0.325-1.153 0-2.89-0.999-3.465-1.385 0 0 0 0 0-0.001-0.001 0-0.001 0-0.001 0-0.265-0.178-0.623-0.108-0.801 0.154s-0.109 0.622 0.152 0.801c1.191 0.81 3.131 2.476 3.266 3.498 0.022 0.17-0.010 0.292-0.109 0.407-0.219 0.256-0.549 0.379-1.011 0.379-1.384 0-3.18-1.105-3.198-1.118-0.268-0.166-0.616-0.087-0.787 0.176-0.172 0.263-0.102 0.614 0.158 0.79 0.784 0.536 2.070 1.688 2.18 2.491 0.023 0.18-0.017 0.321-0.133 0.458-0.216 0.255-0.502 0.374-0.896 0.374-1.023 0-2.219-0.807-2.231-0.814-0.22-0.15-0.514-0.129-0.711 0.048-0.196 0.179-0.248 0.469-0.122 0.703 0.281 0.521 0.548 1.418 0.293 1.674-0.008 0.007-0.064 0.034-0.2 0.034-0.407 0-1.032-0.237-1.543-0.482l-0.813 0.884c0.514 0.271 1.539 0.752 2.356 0.752 0.426 0 0.769-0.124 1.015-0.372 0.438-0.438 0.49-1.044 0.402-1.602 0.471 0.182 1.018 0.329 1.555 0.329 0.729 0 1.343-0.271 1.777-0.782 0.326-0.385 0.463-0.855 0.395-1.358-0.053-0.391-0.229-0.776-0.465-1.143 0.324 0.070 0.651 0.112 0.97 0.112 0.806 0 1.44-0.263 1.886-0.781 0.312-0.363 0.443-0.817 0.378-1.31-0.079-0.6-0.46-1.233-0.949-1.823 0.222 0.039 0.442 0.062 0.654 0.062 0.958 0 1.47-0.445 1.73-0.819 0.646-0.922 0.222-2.044-0.458-3.018l3.349-3.689zM7.313 22.12l-0.558 0.631c-0.557 0.629-1.52 0.687-2.149 0.129-0.629-0.557-0.687-1.518-0.13-2.148l3.548-4.005c0.557-0.63 1.519-0.689 2.147-0.131 0.63 0.557 0.688 1.519 0.131 2.148l-2.989 3.376zM18.35 24.368c0.629 0.558 0.687 1.521 0.132 2.148l-2.048 2.227c-0.557 0.628-1.52 0.687-2.149 0.129-0.629-0.556-0.687-1.518-0.13-2.147l0.584-0.636 0.251-0.271 1.212-1.319c0.557-0.629 1.518-0.688 2.148-0.131zM10.406 24.281v0l-1.056 1.192c-0.557 0.63-1.519 0.687-2.148 0.13s-0.687-1.518-0.13-2.148l3.548-4.005c0.557-0.63 1.52-0.689 2.148-0.131 0.629 0.557 0.688 1.52 0.13 2.149l-2.492 2.813zM14.166 25.654l-1.291 1.423c-0.557 0.629-1.519 0.688-2.148 0.13-0.63-0.556-0.688-1.519-0.131-2.149l0.371-0.408 2.607-2.874c0.557-0.629 1.519-0.688 2.148-0.13 0.63 0.556 0.688 1.519 0.131 2.149l-1.687 1.859z"></path>
</svg>
