<svg xmlns="http://www.w3.org/2000/svg" width="32" height="32" viewBox="0 0 32 32"><path d="M29.363 2.891l-.122-.122c-2.85-2.851-7.514-2.851-10.363 0l-6.604 6.603c-2.851 2.85-2.851 7.513 0 10.362l.121.122c.238.237.49.451.749.65l2.417-2.418a3.924 3.924 0 0 1-.79-.607l-.123-.121a3.973 3.973 0 0 1 0-5.612l6.604-6.604a3.972 3.972 0 0 1 5.611 0l.122.122a3.973 3.973 0 0 1 0 5.612l-2.987 2.988c.519 1.281.765 2.645.742 4.008l4.621-4.62c2.851-2.851 2.851-7.514.002-10.363zm-9.759 9.514a7.582 7.582 0 0 0-.749-.649l-2.417 2.416c.282.167.548.365.79.607l.123.123a3.973 3.973 0 0 1 0 5.612l-6.603 6.604a3.971 3.971 0 0 1-5.612 0l-.122-.122a3.972 3.972 0 0 1 0-5.611l2.988-2.988a10.225 10.225 0 0 1-.743-4.007l-4.62 4.62c-2.85 2.851-2.85 7.515 0 10.364l.122.122c2.85 2.851 7.514 2.851 10.364 0l6.604-6.603c2.85-2.851 2.85-7.515 0-10.364l-.125-.124z"/></svg>