<svg xmlns="http://www.w3.org/2000/svg" width="32" height="32" viewBox="0 0 32 32"><path d="M31.975 9.851H32v.781c0 1.102-1.006 2.504-2.236 3.119L28 14.632v-9H4v9l-1.764-.881C1.006 13.136 0 11.734 0 10.632v-.781h.025C.09 8.847.932 7.66 2 7.017V3.632h6.687l5.077-2.539C14.379.786 15.189.632 16 .632s1.621.155 2.236.461l5.077 2.539H30v3.385c1.068.642 1.91 1.83 1.975 2.834zM19.131 20.12l11.527-5.762A6.178 6.178 0 0 0 32 13.444v15.688c0 1.375-1.125 2.5-2.5 2.5h-27a2.507 2.507 0 0 1-2.5-2.5V13.444c.404.36.856.672 1.342.915l11.527 5.761c.868.434 1.98.674 3.131.674s2.263-.24 3.131-.674zM7.003 8.829h17.993v1.373H7.003zm0 2.68h17.993v1.373H7.003zm0 2.68h17.993v1.373H7.003z"/></svg>