<svg xmlns="http://www.w3.org/2000/svg" width="32" height="32" viewBox="0 0 32 32"><path d="M31.438 29.288c-1.118 1.143-5.827 2.28-11.239 2.684l-.133.01c-.624.045-1.255.084-1.893.107l-.078.004a55.53 55.53 0 0 1-1.961.039h-.055c-.656 0-1.31-.016-1.961-.037l-.039-.002c-.013 0-.026 0-.039-.002h-.002a57.544 57.544 0 0 1-1.89-.107l-.134-.01C6.6 31.569 1.892 30.433.774 29.29c-1.391-1.422-.441-3.893.695-4.979 1.015-.967 3.666-1.568 6.319-2.209l.194-.047.24-.059c.286-.07.571-.141.854-.213l.035-.008c.783-.201 2.585-.795 2.794-1.795-.021-2.33-.652-3.106-1.273-3.804-.295-.334-.59-.651-.814-1.11-.697-1.422-1.895-4.935-.697-10.669.564-2.692 3.141-3.685 4.995-4.051 1.112-.22 1.963-.214 1.963-.214h.055s6.054-.042 6.958 4.264c1.199 5.734 0 9.247-.697 10.668-.693 1.423-2.056 1.472-2.087 4.915.21 1 2.011 1.594 2.793 1.795.297.075.599.149.901.223l.217.053.273.066c2.632.634 5.245 1.234 6.252 2.193 1.136 1.086 2.086 3.557.694 4.979z"/></svg>