<?xml version="1.0" encoding="utf-8"?>
<!-- Generated by IcoMoon.io -->
<!DOCTYPE svg PUBLIC "-//W3C//DTD SVG 1.1//EN" "http://www.w3.org/Graphics/SVG/1.1/DTD/svg11.dtd">
<svg version="1.1" xmlns="http://www.w3.org/2000/svg" xmlns:xlink="http://www.w3.org/1999/xlink" width="32" height="32" viewBox="0 0 32 32">
<path d="M22.372 0.632h-12.021c-1.74 0-3.163 1.423-3.163 3.163v24.674c0 1.739 1.423 3.163 3.163 3.163h12.021c1.739 0 3.163-1.424 3.163-3.163v-24.674c0-1.74-1.424-3.163-3.163-3.163zM16.361 30.366c-1.223 0-2.215-0.708-2.215-1.581s0.992-1.582 2.215-1.582 2.214 0.708 2.214 1.582c0 0.873-0.991 1.581-2.214 1.581zM23.004 25.621h-13.286v-20.877h13.286v20.877z"></path>
</svg>
