<?xml version="1.0" encoding="utf-8"?>
<!-- Generated by IcoMoon.io -->
<!DOCTYPE svg PUBLIC "-//W3C//DTD SVG 1.1//EN" "http://www.w3.org/Graphics/SVG/1.1/DTD/svg11.dtd">
<svg version="1.1" xmlns="http://www.w3.org/2000/svg" xmlns:xlink="http://www.w3.org/1999/xlink" width="32" height="32" viewBox="0 0 32 32">
<path d="M30.488 18.988c0.192-0.962 1.512-1.838 1.512-2.856s-1.32-1.893-1.512-2.855c-0.198-0.994 0.68-2.301 0.3-3.213-0.389-0.928-1.948-1.238-2.505-2.062-0.562-0.831-0.258-2.376-0.968-3.079-0.712-0.708-2.271-0.404-3.109-0.959-0.832-0.555-1.144-2.101-2.080-2.486-0.167-0.069-0.35-0.097-0.539-0.097-0.746 0-1.628 0.423-2.384 0.423-0.109 0-0.215-0.009-0.318-0.028-0.972-0.191-1.855-1.501-2.884-1.501s-1.913 1.31-2.884 1.501c-0.103 0.017-0.209 0.026-0.317 0.026-0.758 0-1.641-0.423-2.385-0.423-0.19 0-0.372 0.028-0.54 0.097-0.937 0.385-1.248 1.931-2.080 2.482-0.839 0.556-2.396 0.252-3.107 0.957s-0.408 2.251-0.97 3.082c-0.556 0.824-2.114 1.135-2.503 2.063-0.381 0.912 0.495 2.222 0.297 3.216-0.191 0.962-1.512 1.837-1.512 2.856 0 1.018 1.32 1.894 1.512 2.857 0.198 0.993-0.68 2.3-0.299 3.213 0.388 0.928 1.948 1.237 2.505 2.062 0.562 0.834 0.256 2.376 0.966 3.078 0.712 0.71 2.271 0.405 3.109 0.959 0.832 0.556 1.143 2.101 2.080 2.486 0.167 0.069 0.349 0.098 0.54 0.098 0.746 0 1.628-0.423 2.385-0.423 0.109 0 0.214 0.009 0.318 0.027 0.971 0.191 1.856 1.502 2.885 1.502s1.911-1.311 2.884-1.502c0.104-0.019 0.209-0.027 0.316-0.027 0.758 0 1.64 0.423 2.385 0.423 0.189 0 0.371-0.028 0.539-0.098 0.936-0.386 1.248-1.931 2.081-2.483 0.839-0.554 2.395-0.249 3.106-0.955 0.711-0.705 0.408-2.251 0.97-3.082 0.558-0.824 2.113-1.135 2.504-2.062 0.38-0.913-0.496-2.223-0.298-3.217zM11.025 19.684h-1.58l-2.988-4.809h-0.020v4.809h-1.479v-7.184h1.569l2.999 4.819h0.020v-4.819h1.479v7.184zM17.866 19.684h-5.453v-7.184h5.373v1.329h-3.793v1.539h3.482v1.228h-3.482v1.761h3.874v1.327zM25.775 19.684h-1.57l-1.217-4.889h-0.021l-1.197 4.889h-1.6l-1.902-7.184h1.58l1.137 4.891h0.021l1.248-4.891h1.479l1.228 4.95h0.021l1.177-4.95h1.55l-1.934 7.184z"></path>
</svg>
