<?xml version="1.0" encoding="utf-8"?>
<!-- Generated by IcoMoon.io -->
<!DOCTYPE svg PUBLIC "-//W3C//DTD SVG 1.1//EN" "http://www.w3.org/Graphics/SVG/1.1/DTD/svg11.dtd">
<svg version="1.1" xmlns="http://www.w3.org/2000/svg" xmlns:xlink="http://www.w3.org/1999/xlink" width="32" height="32" viewBox="0 0 32 32">
<path d="M21.609 4.126c1.409 0 2.55 1.142 2.55 2.55v15.811h-3.060v-8.162h-2.040v-7.649c0-1.408 1.142-2.55 2.55-2.55zM14.47 4.126c0.281 0 0.51 0.229 0.509 0.51v4.59c0 0.451-0.4 0.703-0.845 1.020-0.561 0.399-1.195 0.902-1.195 2.040v10.201h-3.060v-10.202c0-1.138-0.633-1.641-1.195-2.040-0.445-0.317-0.844-0.569-0.844-1.020v-4.589c0-0.281 0.229-0.51 0.51-0.51s0.51 0.228 0.51 0.51v3.57c0 0.141 0.229 0.254 0.51 0.254s0.51-0.114 0.51-0.255v-3.569c0-0.281 0.228-0.51 0.51-0.51s0.51 0.228 0.51 0.51v3.569c0 0.141 0.229 0.255 0.51 0.255s0.51-0.114 0.51-0.255v-3.569c0-0.281 0.229-0.51 0.51-0.51s0.51 0.228 0.51 0.51v3.569c0 0.141 0.229 0.255 0.51 0.255s0.51-0.114 0.51-0.255v-3.569c0-0.281 0.229-0.51 0.51-0.51zM31.49 24.231c0.281 0 0.51 0.227 0.511 0.51v1.146c0 0.282-0.229 0.51-0.51 0.51h-2.155c0.012 0.057 0.031 0.112 0.031 0.17 0 0.727-1.61 1.828-2.338 1.828h-22.056c-0.728 0-2.338-1.1-2.338-1.828 0-0.058 0.018-0.113 0.031-0.17h-2.156c-0.281 0-0.51-0.228-0.51-0.51v-1.146c0-0.282 0.229-0.51 0.51-0.51h30.98z"></path>
</svg>
