<?xml version="1.0" encoding="utf-8"?>
<!-- Generated by IcoMoon.io -->
<!DOCTYPE svg PUBLIC "-//W3C//DTD SVG 1.1//EN" "http://www.w3.org/Graphics/SVG/1.1/DTD/svg11.dtd">
<svg version="1.1" xmlns="http://www.w3.org/2000/svg" xmlns:xlink="http://www.w3.org/1999/xlink" width="32" height="32" viewBox="0 0 32 32">
<path d="M30.974 24.136l-4.557-21.563c-0.121-0.577-0.637-0.979-1.231-0.963l-16.705 0.607c-0.536 0.020-0.995 0.388-1.131 0.906l-5.998 22.854c-0.085 0.324-0.033 0.669 0.145 0.953s0.464 0.481 0.792 0.548l1.519 0.303c0.602 0.124 1.198-0.227 1.391-0.807l0.656-1.967 11.103 1.955-0.662 3.258c-0.132 0.646 0.275 1.277 0.917 1.426l1.974 0.455c0.088 0.020 0.18 0.031 0.271 0.031 0.233 0 0.464-0.067 0.662-0.196 0.277-0.179 0.469-0.464 0.532-0.788l1.765-9.168 4.535 0.421 0.428 2.079c0.104 0.511 0.521 0.896 1.038 0.962l1.215 0.151c0.39 0.046 0.779-0.095 1.046-0.383 0.265-0.29 0.375-0.689 0.295-1.074zM15.573 20.334l-0.596 2.894-6.31-0.956 0.654-2.908 1.514 0.211 1.181-5.249-1.566-0.218 0.77-2.52 4.592 0.191-1.857 8.258 1.618 0.297zM17.093 8.793c-0.279 1.234-1.385 2.129-2.632 2.129-0.114 0-0.23-0.008-0.345-0.024-0.662-0.092-1.23-0.438-1.602-0.975-0.382-0.553-0.508-1.233-0.354-1.917 0.303-1.346 1.608-2.3 2.976-2.104 0.661 0.092 1.229 0.438 1.601 0.975 0.381 0.552 0.508 1.233 0.356 1.916zM23.027 19.453l1.897-9.72 1.67 10.175-3.567-0.455z"></path>
</svg>
