<?xml version="1.0" encoding="utf-8"?>
<!-- Generated by IcoMoon.io -->
<!DOCTYPE svg PUBLIC "-//W3C//DTD SVG 1.1//EN" "http://www.w3.org/Graphics/SVG/1.1/DTD/svg11.dtd">
<svg version="1.1" xmlns="http://www.w3.org/2000/svg" xmlns:xlink="http://www.w3.org/1999/xlink" width="32" height="32" viewBox="0 0 32 32">
<path d="M24 5.132c-3.074 0-5.877 1.156-8 3.057-2.123-1.901-4.926-3.057-8-3.057s-5.877 1.156-8 3.057v17.884c0.021 0.020 0.042 0.039 0.064 0.059 0.513 0.453 1.064 0.861 1.649 1.223 0.59-0.477 1.235-0.888 1.924-1.223 1.319-0.641 2.799-1 4.363-1s3.045 0.359 4.363 1c0.688 0.335 1.333 0.746 1.923 1.223 0.115 0.094 0.228 0.189 0.339 0.287 0.507 0.449 0.968 0.947 1.375 1.489 0.407-0.542 0.868-1.041 1.375-1.489 0.111-0.098 0.224-0.193 0.339-0.287 0.589-0.477 1.234-0.888 1.923-1.223 1.319-0.641 2.799-1 4.363-1 1.563 0 3.045 0.359 4.363 1 0.688 0.335 1.333 0.746 1.923 1.223 0.585-0.361 1.137-0.77 1.649-1.223 0.021-0.020 0.042-0.039 0.064-0.059v-17.884c-2.122-1.901-4.925-3.057-7.999-3.057zM8 23.132c-2.186 0-4.235 0.585-6 1.607v-15.607c1.671-1.256 3.749-2 6-2s4.329 0.745 6 2.001v15.606c-1.765-1.022-3.814-1.607-6-1.607zM24 23.132c-2.186 0-4.235 0.585-6 1.607v-15.606c1.671-1.256 3.748-2.001 6-2.001s4.329 0.744 6 2v15.607c-1.765-1.022-3.814-1.607-6-1.607z"></path>
</svg>
