<svg xmlns="http://www.w3.org/2000/svg" width="32" height="32" viewBox="0 0 32 32"><path d="M15.943 21.629a2.381 2.381 0 1 1-4.762 0 2.381 2.381 0 0 1 4.762 0zm-12.329-.805a3.098 3.098 0 1 0-.002-6.196 3.098 3.098 0 0 0 .002 6.196zm24.52-13.391a3.227 3.227 0 0 0-2.989 2.013 3.152 3.152 0 0 0-.175 1.867 3.231 3.231 0 1 0 3.164-3.88zM17.086 5.457a41.104 41.104 0 0 1 2.701-1.481c2.177-.938 5.577-2.033 7.448-.075.112.118.248.312.248.312.42.586.635 1.398.651 2.369.448-.042 1.192.038 1.507.195.011-.931-.133-1.773-.438-2.497 0 0-.297-.798-.918-1.434-.912-.932-2.208-1.391-3.825-1.391-1.95 0-4.298.733-6.768 2.011a21.4 21.4 0 0 0-1.45.786.067.067 0 0 0 .012.012c-.011.006-.023.012-.033.019l-.019.002.068-.004c.346.331.626.727.816 1.176zm8.185 11.984c-.023-.021-.03-.057-.03-.057.661-.912 1.26-1.83 1.79-2.745a4.052 4.052 0 0 1-1.357-.626 30.456 30.456 0 0 1-1.391 2.148 59.554 59.554 0 0 0-3.904-4.423l-.008.011-.498-.506a58.988 58.988 0 0 0-3.686-3.384 2.592 2.592 0 0 0-2.383-3.61c-.609 0-1.166.219-1.607.574C8.979 2.652 6.066 1.38 4.048 1.38c-.965 0-1.731.279-2.281.825-2.086 2.093-.104 6.848 3.598 11.827-.006.011-.015.02-.022.029.024.013.048.028.073.038 1.412 1.893 3.068 3.814 4.841 5.637a3.79 3.79 0 0 1 1.012-1.148 55.723 55.723 0 0 1-3.996-4.569 40.37 40.37 0 0 1 2.696-2.976 38.588 38.588 0 0 1 1.574-1.477 3.587 3.587 0 0 1-.927-1.171 40.104 40.104 0 0 0-1.699 1.593A41.299 41.299 0 0 0 6.354 12.8C2.981 8.151 1.707 4.422 2.847 3.281c.251-.249.653-.377 1.201-.377 1.507 0 4.102 1.025 7.293 3.173a2.556 2.556 0 0 0-.127.762 2.59 2.59 0 0 0 2.591 2.59c.518 0 .996-.156 1.4-.416a58.475 58.475 0 0 1 3.589 3.308 56.76 56.76 0 0 1 4.55 5.115 29.959 29.959 0 0 1-3.271 3.572C8.108 32.251 3.399 28.936 2.775 28.302a4.263 4.263 0 0 1-.25-.274c-.91-1.276-.876-3.592.146-6.352a4.01 4.01 0 0 1-1.368-.607C.275 23.792.066 26.238.807 27.994c0 0 .295.8.917 1.437.912.931 2.208 1.46 3.825 1.46 2.337 0 5.236-.758 8.24-2.758h-.003c1.102-1 2.215-1.463 3.321-2.309a38.731 38.731 0 0 0 3.4 2.21l.099.034c2.366 1.277 4.418 2.048 5.981 2.048.964 0 1.733-.29 2.282-.835 2.088-2.094.103-6.86-3.598-11.84zm2.518 10.753c-.249.248-.653.375-1.201.375-1.209 0-3.121-.662-5.479-2.034-.87-.51-1.797-1.11-2.764-1.804a40.663 40.663 0 0 0 5.925-6.063c.729.999 1.377 1.98 1.932 2.926l.1.176c.046.077.09.156.134.232.048.086.096.173.142.26l.079.14.162.31.003.006c.061.116.121.233.178.351l.011.018c.052.107.104.211.151.314.012.022.021.046.032.069.04.083.077.165.113.249l.058.127.079.183c.023.06.049.117.072.176.021.044.036.09.055.134.027.065.053.13.076.195.016.039.03.081.047.123.022.058.041.115.062.172.021.056.04.112.059.166.011.034.023.067.031.1.481 1.478.473 2.566-.057 3.099z"/></svg>