<?xml version="1.0" encoding="utf-8"?>
<!-- Generated by IcoMoon.io -->
<!DOCTYPE svg PUBLIC "-//W3C//DTD SVG 1.1//EN" "http://www.w3.org/Graphics/SVG/1.1/DTD/svg11.dtd">
<svg version="1.1" xmlns="http://www.w3.org/2000/svg" xmlns:xlink="http://www.w3.org/1999/xlink" width="32" height="32" viewBox="0 0 32 32">
<path d="M15.943 21.629c0 1.315-1.066 2.381-2.381 2.381s-2.381-1.066-2.381-2.381c0-1.315 1.066-2.381 2.381-2.381s2.381 1.066 2.381 2.381zM3.614 20.824c1.708 0 3.097-1.385 3.097-3.1 0-1.709-1.388-3.097-3.097-3.097s-3.097 1.388-3.097 3.097c0 1.716 1.388 3.1 3.097 3.1zM28.134 7.433c-1.351 0-2.508 0.831-2.989 2.013-0.155 0.374-0.243 0.782-0.243 1.21 0 0.226 0.023 0.444 0.068 0.657 0.301 1.473 1.604 2.582 3.164 2.582 1.783 0 3.23-1.447 3.23-3.23 0-1.788-1.447-3.232-3.23-3.232zM17.086 5.457c0.934-0.551 1.835-1.055 2.701-1.481 2.177-0.938 5.577-2.033 7.448-0.075 0.112 0.118 0.248 0.312 0.248 0.312 0.42 0.586 0.635 1.398 0.651 2.369 0.448-0.042 1.192 0.038 1.507 0.195 0.011-0.931-0.133-1.773-0.438-2.497 0 0-0.297-0.798-0.918-1.434-0.912-0.932-2.208-1.391-3.825-1.391-1.95 0-4.298 0.733-6.768 2.011-0.479 0.237-0.964 0.497-1.45 0.786 0.002 0.003 0.007 0.008 0.012 0.012-0.011 0.006-0.023 0.012-0.033 0.019 0 0-0.019 0.002-0.019 0.002l0.068-0.004c0.346 0.331 0.626 0.727 0.816 1.176zM25.271 17.441c-0.023-0.021-0.030-0.057-0.030-0.057 0.661-0.912 1.26-1.83 1.79-2.745-0.492-0.125-0.954-0.338-1.357-0.626-0.418 0.713-0.885 1.431-1.391 2.148-1.188-1.494-2.509-2.989-3.904-4.423-0.002 0.004-0.006 0.008-0.008 0.011-0.165-0.169-0.332-0.338-0.498-0.506-1.219-1.219-2.456-2.347-3.686-3.384 0.136-0.313 0.21-0.657 0.21-1.020 0-1.431-1.162-2.59-2.593-2.59-0.609 0-1.166 0.219-1.607 0.574-3.218-2.171-6.131-3.443-8.149-3.443-0.965 0-1.731 0.279-2.281 0.825-2.086 2.093-0.104 6.848 3.598 11.827-0.006 0.011-0.015 0.020-0.022 0.029 0.024 0.013 0.048 0.028 0.073 0.038 1.412 1.893 3.068 3.814 4.841 5.637 0.259-0.45 0.599-0.838 1.012-1.148-1.521-1.566-2.855-3.103-3.996-4.569 0.807-0.986 1.703-1.983 2.696-2.976 0.515-0.517 1.046-1.003 1.574-1.477-0.386-0.322-0.703-0.716-0.927-1.171-0.574 0.512-1.144 1.037-1.699 1.593-0.926 0.925-1.776 1.866-2.563 2.812-3.373-4.649-4.647-8.378-3.507-9.519 0.251-0.249 0.653-0.377 1.201-0.377 1.507 0 4.102 1.025 7.293 3.173-0.075 0.242-0.127 0.494-0.127 0.762 0 1.432 1.161 2.59 2.591 2.59 0.518 0 0.996-0.156 1.4-0.416 1.158 0.979 2.36 2.079 3.589 3.308 1.689 1.689 3.225 3.421 4.55 5.115-0.977 1.263-2.033 2.411-3.271 3.572-11.965 11.243-16.674 7.928-17.298 7.294-0.117-0.114-0.25-0.274-0.25-0.274-0.91-1.276-0.876-3.592 0.146-6.352-0.498-0.12-0.959-0.321-1.368-0.607-1.028 2.723-1.237 5.169-0.496 6.925 0 0 0.295 0.8 0.917 1.437 0.912 0.931 2.208 1.46 3.825 1.46 2.337 0 5.236-0.758 8.24-2.758h-0.003c1.102-1 2.215-1.463 3.321-2.309 1.17 0.861 2.312 1.571 3.4 2.21l0.099 0.034c2.366 1.277 4.418 2.048 5.981 2.048 0.964 0 1.733-0.29 2.282-0.835 2.088-2.094 0.103-6.86-3.598-11.84zM27.789 28.194c-0.249 0.248-0.653 0.375-1.201 0.375-1.209 0-3.121-0.662-5.479-2.034-0.87-0.51-1.797-1.11-2.764-1.804 0.945-0.785 1.876-1.63 2.78-2.533 1.144-1.143 2.194-2.328 3.145-3.53 0.729 0.999 1.377 1.98 1.932 2.926 0.034 0.059 0.066 0.117 0.1 0.176 0.046 0.077 0.090 0.156 0.134 0.232 0.048 0.086 0.096 0.173 0.142 0.26 0.026 0.045 0.053 0.094 0.079 0.14 0.055 0.105 0.109 0.208 0.162 0.31 0.002 0.004 0.002 0.004 0.003 0.006 0.061 0.116 0.121 0.233 0.178 0.351 0.004 0.006 0.008 0.014 0.011 0.018 0.052 0.107 0.104 0.211 0.151 0.314 0.012 0.022 0.021 0.046 0.032 0.069 0.040 0.083 0.077 0.165 0.113 0.249 0.020 0.042 0.039 0.085 0.058 0.127 0.026 0.061 0.053 0.121 0.079 0.183 0.023 0.060 0.049 0.117 0.072 0.176 0.021 0.044 0.036 0.090 0.055 0.134 0.027 0.065 0.053 0.13 0.076 0.195 0.016 0.039 0.030 0.081 0.047 0.123 0.022 0.058 0.041 0.115 0.062 0.172 0.021 0.056 0.040 0.112 0.059 0.166 0.011 0.034 0.023 0.067 0.031 0.1 0.481 1.478 0.473 2.566-0.057 3.099z"></path>
</svg>
