<?xml version="1.0" encoding="utf-8"?>
<!-- Generated by IcoMoon.io -->
<!DOCTYPE svg PUBLIC "-//W3C//DTD SVG 1.1//EN" "http://www.w3.org/Graphics/SVG/1.1/DTD/svg11.dtd">
<svg version="1.1" xmlns="http://www.w3.org/2000/svg" xmlns:xlink="http://www.w3.org/1999/xlink" width="32" height="32" viewBox="0 0 32 32">
<path d="M29.672 10.029c0.020 0.172 0.033 0.341 0.033 0.5v19c0 1.375-1.125 2.5-2.5 2.5h-17.925l9.646-11.023-6.548-5.728-6.886 7.868-3.072-2.302-0.715 0.952v-19.267c0-1.375 1.125-2.5 2.5-2.5h15c0.159 0 0.328 0.013 0.5 0.034v9.966h9.967zM6.443 32.234l-6.443-4.833 2.82-3.758 2.956 2.216 6.789-7.759 3.538 3.094zM21.763 7.972v-7.298c0.668 0.307 1.282 0.695 1.709 1.123l4.466 4.465c0.428 0.428 0.815 1.042 1.122 1.71h-7.297z"></path>
</svg>
