<?xml version="1.0" encoding="utf-8"?>
<!-- Generated by IcoMoon.io -->
<!DOCTYPE svg PUBLIC "-//W3C//DTD SVG 1.1//EN" "http://www.w3.org/Graphics/SVG/1.1/DTD/svg11.dtd">
<svg version="1.1" xmlns="http://www.w3.org/2000/svg" xmlns:xlink="http://www.w3.org/1999/xlink" width="32" height="32" viewBox="0 0 32 32">
<path d="M15.793 0.634c-8.56 0.114-15.406 7.145-15.292 15.705 0.115 8.561 7.146 15.406 15.706 15.291 8.56-0.113 15.405-7.146 15.292-15.705-0.115-8.561-7.147-15.406-15.706-15.291zM15.819 2.655c2.309-0.031 4.489 0.521 6.402 1.519l-2.086 3.477c-1.248-0.61-2.652-0.954-4.135-0.954s-2.887 0.343-4.136 0.954l-2.085-3.475c1.81-0.943 3.86-1.492 6.040-1.521zM7.519 20.268l-3.474 2.085c-0.943-1.81-1.492-3.86-1.521-6.041-0.031-2.308 0.522-4.488 1.519-6.401l3.477 2.086c-0.611 1.248-0.955 2.652-0.955 4.135s0.344 2.887 0.954 4.136zM16.181 29.609c-2.309 0.031-4.49-0.521-6.402-1.519l2.086-3.477c1.249 0.609 2.652 0.953 4.136 0.953 1.483 0 2.887-0.343 4.135-0.953l2.085 3.475c-1.811 0.943-3.861 1.491-6.040 1.521zM16 23.545c-4.094 0-7.413-3.318-7.413-7.413s3.319-7.413 7.413-7.413 7.413 3.319 7.413 7.413c0 4.095-3.319 7.413-7.413 7.413zM24.48 20.268c0.61-1.249 0.954-2.651 0.954-4.136 0-1.483-0.344-2.887-0.954-4.135l3.476-2.085c0.943 1.81 1.492 3.86 1.521 6.040 0.031 2.309-0.521 4.489-1.519 6.402l-3.478-2.086z"></path>
</svg>
