<?xml version="1.0" encoding="utf-8"?>
<!-- Generated by IcoMoon.io -->
<!DOCTYPE svg PUBLIC "-//W3C//DTD SVG 1.1//EN" "http://www.w3.org/Graphics/SVG/1.1/DTD/svg11.dtd">
<svg version="1.1" xmlns="http://www.w3.org/2000/svg" xmlns:xlink="http://www.w3.org/1999/xlink" width="32" height="32" viewBox="0 0 32 32">
<path d="M26 29.131v-14.569l2-2v16.569c0 1.651-1.35 3.001-3 3.001h-22c-1.65 0-3-1.35-3-3.001v-25.999c0-1.65 1.35-3 3-3h20.086l-6 6h-15.086v22.999c0 0.543 0.458 1 1 1h22c0.542 0 1-0.457 1-1zM7.545 19.136l5.452 5.456-0.487 0.49-0.038-0.006c-0.208 0.156-0.491 0.297-0.718 0.326l-5.256 0.668c-0.273 0.035-0.468-0.161-0.433-0.434l0.667-5.254c0.034-0.268 0.216-0.635 0.405-0.832v-0.004l0.008-0.008c0.001-0.002 0.002-0.004 0.004-0.006l0.043-0.042c0 0 0.001 0 0.002-0.002l0.351-0.352zM31.471 3.549c0.705 0.705 0.707 1.856 0.001 2.566l-2.572 2.57-5.451-5.451 2.568-2.568c0.709-0.712 1.87-0.712 2.575-0.004l2.879 2.887zM22.011 4.675l5.454 5.454-13.567 13.563-5.453-5.454z"></path>
</svg>
