<?xml version="1.0" encoding="utf-8"?>
<!-- Generated by IcoMoon.io -->
<!DOCTYPE svg PUBLIC "-//W3C//DTD SVG 1.1//EN" "http://www.w3.org/Graphics/SVG/1.1/DTD/svg11.dtd">
<svg version="1.1" xmlns="http://www.w3.org/2000/svg" xmlns:xlink="http://www.w3.org/1999/xlink" width="32" height="32" viewBox="0 0 32 32">
<path d="M30.568 18.050l-12-11.010c2.787-2.663 5.723-4.526 7.939-5.026 0.217-0.049 0.387-0.219 0.455-0.433s0.010-0.456-0.141-0.623c-0.045-0.050-0.092-0.101-0.139-0.142-0.493-0.454-1.155-0.684-1.961-0.684-2.213 0-5.451 1.792-8.548 4.71l-0.212-0.195c-0.651-0.595-1.753-0.546-2.348 0.101l-0.783 0.855c-0.619 0.675-0.573 1.729 0.102 2.348l0.211 0.193c-0.924 1.168-1.72 2.36-2.355 3.514h-4.53l-6.258 20.474h4.799l1.458-5.255h5.863l1.579 5.255h4.982l-5.633-18.165c0.686-1.192 1.526-2.425 2.49-3.626l11.999 11.010c0.309 0.282 0.707 0.438 1.125 0.438 0.463 0 0.91-0.195 1.223-0.537l0.785-0.854c0.617-0.675 0.572-1.728-0.102-2.348zM6.926 23.414l1.215-4.344c0.333-1.185 0.638-2.734 0.941-3.949h0.061c0.304 1.215 0.668 2.735 1.033 3.949l1.276 4.344h-4.526z"></path>
</svg>
