<?xml version="1.0" encoding="utf-8"?>
<!-- Generated by IcoMoon.io -->
<!DOCTYPE svg PUBLIC "-//W3C//DTD SVG 1.1//EN" "http://www.w3.org/Graphics/SVG/1.1/DTD/svg11.dtd">
<svg version="1.1" xmlns="http://www.w3.org/2000/svg" xmlns:xlink="http://www.w3.org/1999/xlink" width="32" height="32" viewBox="0 0 32 32">
<path d="M6 18.132h20c1.1 0 2-0.9 2-2v-12c0-1.1-0.9-2-2-2h-20c-1.099 0-2 0.9-2 2v12c0 1.1 0.901 2 2 2zM6 4.132h20v12h-20v-12zM31.74 27.612l-3.48-8.262c-0.143-0.34-0.575-0.619-0.96-0.619h-22.6c-0.385 0-0.817 0.279-0.96 0.619l-3.48 8.262c-0.142 0.34-0.26 0.916-0.26 1.282v0.574c0 0.365 0.316 0.664 0.7 0.664h30.6c0.385 0 0.7-0.299 0.7-0.664v-0.574c0-0.366-0.117-0.942-0.26-1.282zM12 28.232l0.5-3.801h7l0.5 3.801h-8z"></path>
</svg>
