<?xml version="1.0" encoding="utf-8"?>
<!-- Generated by IcoMoon.io -->
<!DOCTYPE svg PUBLIC "-//W3C//DTD SVG 1.1//EN" "http://www.w3.org/Graphics/SVG/1.1/DTD/svg11.dtd">
<svg version="1.1" xmlns="http://www.w3.org/2000/svg" xmlns:xlink="http://www.w3.org/1999/xlink" width="32" height="32" viewBox="0 0 32 32">
<path d="M25.23 14.698c0.088 0.065 0.112 0.196 0.051 0.289l-0.618 0.959c-0.059 0.092-0.19 0.13-0.288 0.079l-4.693-2.329c-0.098-0.051-0.246-0.149-0.33-0.223l-1.467-1.288c-0.084-0.074-0.187-0.051-0.232 0.051l-1.47 3.295c-0.045 0.102-0.039 0.264 0.012 0.362l2.81 5.337c0.051 0.098 0.103 0.268 0.117 0.378l1.149 9.489c0.015 0.109-0.064 0.214-0.173 0.232l-1.402 0.235c-0.108 0.018-0.222-0.053-0.252-0.158l-2.287-8.009c-0.030-0.106-0.114-0.258-0.188-0.34l-2.132-2.396c-0.073-0.084-0.169-0.068-0.213 0.034l-4.935 11.317c-0.045 0.102-0.163 0.147-0.264 0.102l-1.605-0.712c-0.101-0.045-0.157-0.169-0.127-0.274l3.96-13.724c0.030-0.106 0.006-0.265-0.055-0.358l-0.377-0.567c-0.061-0.092-0.091-0.254-0.069-0.362l1.413-6.501c0.023-0.108-0.048-0.196-0.159-0.196h-1.938c-0.111 0-0.209 0.091-0.22 0.2l-0.561 5.597c-0.011 0.11-0.109 0.2-0.22 0.2h-1.097c-0.111 0-0.201-0.090-0.201-0.2v-6.795c0-0.11 0.083-0.235 0.184-0.28l7.965-3.436c0.101-0.045 0.263-0.037 0.36 0.016l2.944 1.607c0.097 0.053 0.207 0.18 0.247 0.284l1.656 4.417c0.039 0.104 0.142 0.243 0.23 0.308l4.475 3.36zM15.502 2.679c0 0 0 0 0 0 0-1.407 1.14-2.547 2.547-2.547s2.547 1.14 2.547 2.547c0 0 0 0 0 0s0 0 0 0c0 1.407-1.14 2.547-2.547 2.547s-2.547-1.14-2.547-2.547c0 0 0 0 0 0z"></path>
</svg>
