<svg xmlns="http://www.w3.org/2000/svg" width="32" height="32" viewBox="0 0 32 32"><path d="M17.048 31c-2.075 0-4.758-.017-6.729-.686a.35.35 0 1 1-.027-.654c.064-.028 2.206-.626 2.887-.83.565-.17 1.65-1.371 1.943-2.191.297-.831.942-2.208.665-5.164-.152-1.618-.89-3.165-1.055-3.668-.725-.052-3.946-.341-4.83-2.877-.92-2.637 1.08-4.981 1.534-6.057.082-.195.16-.38.178-.46l.058-.253c.156-.667.667-1.895.556-2.896l-.018-.165c-.132-1.161-.622-3.447.987-3.983.23-.077.453-.116.661-.116 1.035 0 1.821 1.882 2.06 2.373.041.083.076.155.106.208.11.193.192.497.297.883.175.645.414 1.529.808 1.816.557.405 1.117.692 1.302.988.081.13.158.254.271.395.895 1.119 2.259 2.119 2.665 3.674.453 1.736-.658 3.566-1.445 4.424-.534.583-1.056 1.018-1.401 1.306-.117.098-.219.183-.271.233-.105.172-.657 1.057-.592 2.302.063 1.194.323 2.757.334 2.875.162 1.061.706 2.983.809 3.392.094.375.039 1.368.128 1.824.116-.018.459-.252.594-.252.345 0 .612.091.791.271.395.395.865 1.177 1.089 1.251.031-.004.765.134.802.134.443 0 2.118.448 2.378.518a.351.351 0 0 1 .055.658c-.108.05-3.707.727-7.59.727zm-4.786-1.351a18.17 18.17 0 0 0 4.962.689 17.94 17.94 0 0 0 5.245-.775c-.321-.07-.601-.122-.725-.122l.013-.004a.508.508 0 0 1-.118.014c-.571 0-1.808-1.231-1.821-1.243-.032-.032-.126-.065-.295-.065-.271 0-.554.085-.557.086a.35.35 0 0 1-.448-.27c-.003-.014-.267-1.4-.397-1.92-.136-.545-.589-3.517-.608-3.643a.11.11 0 0 1-.002-.018c-.001-.014-.135-1.36-.202-2.624-.06-1.144.09-2.594.437-2.941.07-.07.178-.16.327-.285a13.32 13.32 0 0 0 1.334-1.242c.62-.676 1.115-2.286.727-3.775-.371-1.422-1.501-2.334-2.347-3.391-.139-.173-.234-.326-.319-.462-.17-.272-.304-.486-.75-.811-.594-.432-.86-1.413-1.073-2.2-.08-.297-.163-.603-.229-.718a5.086 5.086 0 0 1-.127-.248c-.27-.553-.421-1.263-.972-1.263-.133 0-.643.081-.802.134-1.021.341-.749 1.211-.606 2.468l.019.168c.124 1.121-.185 2.439-.351 3.147l-.057.245c-.032.142-.109.326-.217.58-.42.995-1.559 2.913-.728 5.294.832 2.386 2.988 2.659 3.359 2.659l.034-.001a.352.352 0 0 1 .346.227c.025.067.62 1.673.823 3.835.289 3.085-.033 4.803-.353 5.701-.382 1.069-1.485 2.066-2.236 2.291-.313.094-.834.298-1.286.483zm2.856-12.738a.252.252 0 0 1-.246-.202c-.332-1.685-.958-4.49-1.225-4.846-.42-.56-.568-1.865-.651-2.94a2.563 2.563 0 0 1 .31-1.418c-.474-.458-.826-1.656-.971-2.216a.25.25 0 0 1 .18-.305.25.25 0 0 1 .305.18c.259 1.002.682 1.968.888 2.026.08.023.148.085.174.164s.015.167-.037.233c-.003.005-.407.543-.349 1.298.041.535-.183 2.471.352 2.827.802.535 1.369 4.153 1.516 4.899a.25.25 0 0 1-.198.294.197.197 0 0 1-.048.006zm2.273-.134c-.128 0-.122-2.193-.133-2.324-.003-.037-.452-1.577-.712-2.684-.033-.14-.017-.298.006-.516.043-.417.296-1.218.104-2.484-.135-.889-.846-1.361-.852-1.367a.25.25 0 0 1-.057-.242c.003-.011.312-1.095.062-2.285a.25.25 0 0 1 .491-.103 5.737 5.737 0 0 1-.037 2.396c.183.232.585.818.708 1.63.202 1.329.125 2.066.08 2.506-.016.156-.03.291-.016.349.268 1.141.594 4.698.607 4.849a.25.25 0 0 1-.227.272c-.008.003-.016.003-.024.003z"/></svg>