<svg xmlns="http://www.w3.org/2000/svg" width="32" height="32" viewBox="0 0 32 32"><path d="M24.6 12.7c-.7-.7-1.6-1.5-1.6-1.5l-2-2.7s1.2-.2 1.4-.5.2-.7.2-.7.7.2 1.3.3c.5.1.5-.4 0-.6-.5 0-1.6 0-1.7-.2s-.6-1.6-.6-1.6c-.1.1.5-1 2.7-2.1.7-.4.3-.9-.1-.8-2 .9-2.7 2.6-2.9 2.5s-.1-.5-.1-1 .1-1.3-.3-1.2c-.5.1 0 .6-.1 1.1s0 1-.4 1.1c-.2.1-1-.6-1.3-.5-.3.2.1.4.4.6s.6.2.8.7c.2.4.6 1.2.4 1.2-.2.1-1.8-.2-2-.1-.3.1-.7.4-.7.8.1.4.5 1.3.5 1.3s-1.6-1-2.4-1.1c-.8-.2-4.5-.2-4.9 0s.3-1.3.4-1.6c.4-.3.6-.9.4-1.2-.1-.4-1.4-2.1-1.4-2.1s.8-.2 1-.5c.1-.3-.3-.2-.5-.1s-.8.3-.9.2c-.1-.1-.3-.4-.3-.8S10.1.4 9.8.2c-.3-.3-.5-.3-.5.2s.2 1.8-.1 1.8c-.3 0-1.7-1.1-2-1.1-.2 0-.5.5 0 .6.5.2 1.7.7 1.7.9.1.3 0 .4-.3.4s-.7 0-.9.2c-.2.2.3.4.5.4.3 0 1.1-.3 1.4-.1.3.3.9 2 .9 2s-.7 1.8-1 2.1c-.3.2-.7.6-.7 1 0 0-1.4.9-1.8 1.1s-2.9 1.2-3.2 1.5c-.3.3-1 .1-1.3.4s-.6 1.5-.8 1.8c-.2.3-1.7 1.8-1.7 2.1s-.2.7 0 1c.2.2 1.4.3 1.4.3s1.1-.2 1.7-.3c.5-.1 4.2-1 4.7-1.2.5-.3 2.4-1.8 2.7-1.8s1.2.8 1.4 1c.2.1.4.5.4.5l-1.1.8s-.3-.2-.3-.6-.4-.3-.4-.1c0 .2-.5-.8-.7-.6s-.1.6.1 1c.2.3.8.9.6 1.1s-.9-.3-1.2-.5c-.3-.2-.9-.8-1.1-.4-.2.3.5.8 1 1 .4.2 1.2.3 1.1.6s-1 1.2-1.2 1.7c0 0-.3.5.1.6.3.1.7-.5.9-.8s1-1.3 1.1-1.2c.1.1.5.7.7 1s.2 1 .6.7c.3-.3 0-.7-.3-1.2-.3-.4-.6-.9-.4-1.2s.3-.5.6-.5c.3-.1 1.2-.2 1.7-.6s.9-.7.6-1.1c-.3-.4-1.5-1.4-1.5-1.4s.5 0 .8.1c.3.1 2.4 1.2 3 1.2s2.5.3 2.5.3-1.4 2.4-1.5 2.8c-.1.4-.1.7.3.9.3.2 1.6.6 1.6.6s0 .5-.3.5c-.4 0-.9 0-.9.2s-1.1-.3-1.1.2c0 .4.3.6.6.7s.9-.1 1 .2c0 .3-1.7 1.1-1.7 1.5 0 .3.1.9.6.3.6-.5 1.4-1.7 1.7-1.5.3.1.5 1 .6 1.8.1.9.1 1.6.3 1.7.1.1.2.7.5.5s.2-1 .1-1.6c-.1-.6-.1-1.1-.3-1.7-.3-.5-.5-1-.5-1.4.1-.4.7-.9.7-.9s.6.4 1 .5c.4.2 1.3.2 1.2-.1s-.5-.4-.7-.5c-.2-.1-1.2-.3-1.3-.5-.2-.2.5-.5.1-.9s-.8-.6-.8-.6 1.2-.8 1.4-1.5c.1-.3.3-.6.5-.7.6.2 1.8.6 3 1.3 1.1.7 6.9 4.9 4.4 11-2.7 5.9-15 0-15 0s-3.9-2.1-6.7-1.7c-.6.1-.6.5 0 .5 2.9-.3 7.2 2.1 8.2 2.5 1.1.5 11.6 5.2 14.5-.7 2.7-5.4-.3-11-6.4-15.6zM6.1 14.1c-.4.4-.7.3-1.3.2s-.5-.8-.2-1.1c.3-.3.8-.6 1-.5 1.4.6.9 1 .5 1.4z"/></svg>