<svg xmlns="http://www.w3.org/2000/svg" width="32" height="32" viewBox="0 0 32 32"><path d="M14.027 18.507c.373 0 .747-.373.747-.747s-.32-.693-.693-.693-.747.32-.747.693c0 .427.32.747.693.747zm.32-.747c0 .16-.053.32-.213.32s-.267-.16-.267-.32.107-.267.267-.267.213.107.213.267zm-.267-.48h-.107.107zm-1.867 11.093a.68.68 0 0 0 .32.053c.373 0 .747-.373.747-.8 0-.373-.32-.64-.747-.64-.213 0-.373.053-.48.213-.053.053-.107.16-.16.213-.107-.053-.213-.053-.32-.053-.373 0-.693.32-.693.693s.32.693.693.693c.32.107.533-.107.64-.373zm-.64.214h.107-.107zm.534-.694zm.16-.16c0-.16.16-.32.32-.32s.32.107.32.267c0 .16-.16.32-.32.32-.16.053-.32-.053-.32-.267zm-.214.374c.053 0 .053 0 0 0 .053 0 .053 0 0 0 0 .053.053 0 0 0 .053 0 0 0 0 0zm-.16 0c0 .16-.16.373-.32.373s-.32-.16-.32-.32.16-.373.32-.373c.213.053.32.16.32.32zm-.32-.427h-.053.053zM24.427 8.64c0-.32-.267-.64-.587-.747.053-.107.107-.213.107-.373 0-.213-.16-.427-.373-.587 0-.16-.107-.267-.213-.373V6.4c0-.053 0-.16-.053-.213.16-.16.267-.32.267-.533 0-.16-.107-.32-.213-.427.053-.107.053-.16.053-.267 0-.213-.107-.373-.213-.533-.107-.107-.213-.16-.32-.16-.053-.107-.053-.16-.107-.267.053-.107.053-.16.053-.267 0-.373-.32-.8-.693-.8a.68.68 0 0 0-.48.213c-.107-.213-.32-.32-.587-.32-.16 0-.32.053-.427.16-.107-.053-.16-.053-.267-.053-.16 0-.267.053-.427.107-.107-.053-.16-.053-.267-.053-.053 0-.053-.053-.107-.053 0-.107-.053-.16-.053-.213.053 0 .053-.053.107-.107.16-.16.213-.32.213-.48 0-.373-.32-.747-.693-.8.053-.267-.267-.533-.64-.533-.267 0-.587.16-.693.427-.107-.16-.32-.267-.587-.267-.16 0-.32.053-.48.16a.676.676 0 0 0-.48-.213c-.267 0-.533.16-.693.427-.053-.053-.16-.053-.267-.053-.32 0-.693.267-.747.587-.107-.107-.32-.267-.587-.267a.706.706 0 0 0-.693.693c0 .16.053.267.107.373-.213.107-.32.373-.32.587 0 .107 0 .16.053.267-.053.053-.107.16-.16.213-.32.107-.533.373-.533.693v.053l-.107.107c-.107-.16-.373-.32-.587-.32a.706.706 0 0 0-.693.693c0 .213.107.427.267.587v.16c0 .107.053.213.107.32h-.32c-.213.053-.373.16-.427.32-.053.107-.107.16-.107.267a1.176 1.176 0 0 0-.267.16c-.107.107-.16.16-.213.32-.107 0-.213.053-.32.16-.16.16-.267.32-.267.533 0 .16.053.373.213.48a.738.738 0 0 0-.587.693c0 .373.32.693.693.693 0 .053-.053.107-.053.213 0 .373.32.693.693.693h.053a.754.754 0 0 0-.373.64c0 .373.32.693.747.693-.053.107-.107.213-.107.32 0 .427.32.747.693.747a.656.656 0 0 0 .533-.267c.16 0 .8.107 1.067.16h.107c.213 0 .373-.107.587-.267a.407.407 0 0 1 .213-.107c.16-.053.267-.107.48-.16.053 0 .107 0 .16-.053.32-.053.533-.213.693-.373.107.213.213.373.373.48-.32.107-.533.427-.533.747s.213.587.533.693c0 .053-.053.16-.053.213 0 .213.053.373.213.48-.16.16-.213.373-.16.587.053.373.32.693.747.693 0 .8-.053 1.28-.107 1.493-.16.64-.48 3.2-.32 5.28.053.747 0 1.333-.053 1.867 0 .107 0 .213-.053.32a.73.73 0 0 0-.747.747c0 .16.053.32.16.427a.985.985 0 0 0-.267.64c0 .373.32.693.693.693.107 0 .16 0 .267-.053 0 .48-.053.907-.053 1.173v.053c-.427.107-1.653.373-2.293.373h-.373c-.8 0-1.973.32-2.08.373-.427.107-1.867.373-2.08.373-.32 0-.747.32-.853.693-.107.267 0 .533.267.747.107.107.267.107.48.107s.427-.053.64-.107c.16-.053.373-.107.533-.107.213 0 .693-.053 1.28-.107h.053c.693-.053 1.6-.16 2.08-.16h.16c.267 0 .64.053 1.067.053h1.6c.213 0 .48.053.8.053.427 0 .907-.053 1.173-.267.107-.107.213-.267.213-.427.053-.427-.107-.8-.213-1.067a1.125 1.125 0 0 1-.107-.32c-.053-.373-.16-3.307-.053-3.733.053-.16 0-.48 0-.853 0-.267-.053-.64-.053-1.067 0-.853 0-1.76.053-2.187.053-.213.053-.587.107-.96.107.267.427.48.693.48.373 0 .8-.267.8-.693s-.427-.693-.8-.693a.76.76 0 0 0-.64.32v-.267c.107-1.067.213-2.24.32-2.987.107-.853.053-1.867 0-2.507.053.32.32.587.693.587.32 0 .587-.213.693-.533.373 0 .747-.373.747-.747 0-.427-.373-.693-.747-.693-.32 0-.587.213-.747.533a.794.794 0 0 0-.64.64c0-.213-.053-.373-.053-.427v-.053c0-.107 0-.267.053-.373.053-.053.107-.053.107-.107.16-.107.32-.267.48-.533 0 0 .053 0 .107.053.107.053.693.107.853.16.107.053.533.213.907.213h.16c.053 0 .107 0 .16-.053a.68.68 0 0 0 .32.053.76.76 0 0 0 .373-.107c.107.213.373.373.64.373.16.213.373.32.587.32.373 0 .747-.32.747-.747 0-.373-.373-.747-.8-.747h-.053l-.053-.053a.793.793 0 0 0 .213-.48c0-.107 0-.213-.053-.32A.738.738 0 0 0 24 9.755a.971.971 0 0 0-.107-.373c.267-.107.533-.427.533-.747zm-5.814 10.933c0-.16.16-.32.32-.32s.32.16.32.32-.16.373-.32.373c-.213 0-.32-.16-.32-.373zm.107-.426zm.107.906c.053 0 .053 0 0 0zm3.146-8.64c0 .16-.16.267-.32.267-.107 0-.16-.053-.213-.107l-.053-.053c-.053 0-.053 0-.053.053-.053.053-.107.107-.16.107-.267.053-.8-.267-1.067-.267a1.43 1.43 0 0 1-.693-.16 1.905 1.905 0 0 1-.107-.533c.053-.213 0-.533-.107-.8 0-.053-.053-.107-.053-.16 0-.107 0-.213-.053-.32-.213-.427-.907-.747-1.28-.907-.48-.16-.907-.053-1.333.16-.107.053-.213.053-.213.053h-.053s-.053.053-.107.053c-.16.053-.32.16-.427.213l-.213.213c-.107.107-.053 0-.107.107-.053.16-.213.267-.267.373s-.053.267-.107.373v.106c0 .16.053.213.053.373 0 .107-.053.16-.053.267 0 .053.053.053.053.053 0 .213.053.373.107.587a.929.929 0 0 1-.587.48c-.267.053-.533.213-.8.32-.213.107-.427.213-.533.213a2.793 2.793 0 0 0-.747-.107h.053a.406.406 0 0 0 .267-.107c.107 0 .213.053.213.053h.053l.907-.213h.053c.053-.053.16-.053.267-.053.16 0 .32-.053.48-.16.213-.16.267-.32.267-.373.107-.213-.053-.32-.107-.373l-.053-.053c.107-.267.107-.32.053-.533v-.106c.16-.16.107-.32.053-.427l-.053-.053c.16-.107.213-.213.267-.373.053 0 .107 0 .107-.053.213-.053.213-.267.213-.32v-.053c.213-.053.267-.053.373-.213H16c.213.053.32-.16.32-.267V8.64c.267.053.32 0 .533-.16l.053-.053h.053c.213.107.32 0 .427-.107l.053-.053c.16.107.267.16.427.107a.165.165 0 0 1 .053.107c.107.16.213.16.32.107.053.053.16.053.213.053.053.107.16.16.267.16.053.107.16.107.267.16h.106c0 .213.213.267.267.32h.053c0 .213 0 .32.107.427-.053.053-.053.107-.053.107-.107.213.053.32.107.427l.053.053c-.16.213-.107.32-.053.533v.053c.053.213.267.373.853.267.267-.053.907-.107.907-.107s.64-.107.907-.16c.107 0 .16-.053.213-.107.107 0 .213 0 .267-.053s.16-.16.16-.32c0-.427-.16-.533-.213-.587h-.053a.4.4 0 0 0 .267-.373c0-.213-.16-.427-.32-.427s-.427-.053-.587.053c-.213-.107-.48.053-.533.053h-.053c.16-.107.48-.373.64-.48l.053-.053c.107.053.267 0 .373-.053.213-.107.427-.427.373-.747 0-.213-.16-.32-.373-.427-.16-.053-.427 0-.64.107.107-.107.16-.213.213-.427 0-.16-.053-.267-.053-.32-.16-.16-.373-.16-.427-.16-.373.053-.533.213-.64.48-.213.053-.373.267-.373.32l-.32.213c0-.053.053-.053.053-.053s.267-.587.427-.8c.107-.16.053-.267 0-.32.053-.053.053-.107.107-.107.107-.107.267-.267.213-.533 0-.16-.053-.267-.16-.32-.16-.107-.427-.107-.533-.107h-.053c-.053-.053-.213-.213-.48-.107-.16.053-.267.16-.373.267-.053-.32-.16-.533-.32-.587-.107-.053-.16-.053-.267 0-.053 0-.053.053-.107.053-.107.053-.32.107-.32.373v.427c-.16.16-.16.427-.16.48v.053c-.053-.16-.107-.587-.107-.8.16-.373.213-.853 0-1.067-.107-.16-.373-.213-.587-.213a.45.45 0 0 0-.373.213c0 .053-.053.107-.107.107-.107.107-.16.213-.16.427v.053c-.16-.267-.267-.48-.427-.533-.107 0-.16 0-.267.053-.267.16-.373.48-.267.8.107.267.213.427.32.48 0 .16.053.267.107.32l.053.373c0-.053 0-.053-.053-.053 0 0-.373-.533-.48-.747-.053-.107-.107-.16-.213-.16 0-.053 0-.107-.053-.16-.053-.213-.267-.48-.96-.32-.16.053-.267.16-.32.373s.053.427.213.533c.053.053.107.053.16.107-.16-.053-.373 0-.427.053l-.267.267c0 .053-.053.053-.053.107-.267-.533-.64-.427-.8-.373-.267.107-.373.427-.373.48-.053.16-.107.48.16.587l.107.053c.053.053.16.053.213.107v.214h-.053a1.1 1.1 0 0 0-.32-.213c-.267-.053-1.013-.107-1.12.16-.053.107-.053.267.053.427.053.107.213.16.427.16l.053.053c.107.107.213.32.427.32.053 0 .16-.053.267-.107.107.107.267.16.32.16l.053.053c-.16-.053-.587-.107-.8-.16h-.16a1.26 1.26 0 0 0-1.013-.213c-.16 0-.32.16-.32.373 0 .16.053.373.32.427 0 0 .053.053.107.053.16.107.427.267.64.267v.053c-.053-.053-.16-.053-.213-.053-.213 0-.96 0-.96.427 0 .213.053.373.16.533.16.16.427.213.747.16.053 0 .267 0 .427-.107.16.107.373.053.427.053l.373.053h-.053l-.853.213c-.16.053-.213.107-.267.16-.107-.053-.213-.053-.267-.053-.16 0-.267.107-.32.267-.16.053-.16.16-.16.267 0 0-.053 0-.053.053-.053.107-.16.107-.267.107-.16 0-.32-.16-.32-.32s.107-.267.267-.32c0 0 .053 0 .053-.053v-.16c0-.053.053-.16.107-.16l.053-.053c0-.053 0-.053-.053-.053a.292.292 0 0 1-.16-.267c0-.053 0-.053-.053-.107-.053 0-.053 0-.107.053a.292.292 0 0 1-.267.16c-.16 0-.32-.16-.32-.32s.107-.267.267-.32c.053 0 .053-.053.053-.053 0-.053 0-.053-.053-.107-.107-.053-.107-.16-.107-.267 0-.16.107-.267.267-.32h.212l.053-.053c0-.053 0-.053-.053-.053h-.212c-.16 0-.267-.16-.267-.32 0-.107.053-.213.213-.267.053 0 .053-.053.053-.107 0-.053-.053-.053-.053-.053-.053 0-.053 0-.107.053s-.16.107-.213.107a.294.294 0 0 1-.267-.16v-.053c0-.053-.053-.107-.053-.16 0-.213.213-.373.427-.267h.107s.053-.053 0-.107v-.107c0-.213.213-.373.427-.267h.107c0-.053.053-.053 0-.107 0-.053-.053-.053-.053-.107s0-.16.053-.213c.053-.053.107-.107.213-.107.107-.053.267.053.32.16 0 .053.053.053.107.053s.053-.053.053-.053c0-.16.16-.267.32-.267h.053c.053 0 .053 0 .053-.053v-.107c0-.054-.053-.053-.053-.107 0-.053-.053-.053-.053-.053-.16-.053-.213-.16-.213-.267s.053-.213.16-.267l.053-.053s.053.053.107.053c.107 0 .267.053.32.16 0 .053.053.053.107.053s.053 0 .053-.053c.053-.107.107-.16.16-.16l.053-.053v-.053c-.053-.053-.053-.107-.053-.16 0-.16.107-.267.267-.32.053 0 .053 0 .053-.053v-.107c-.053-.053-.053-.107-.053-.16 0-.16.16-.32.32-.32h.106l.053-.053c0-.16.16-.267.32-.267.107 0 .16.053.213.107h.107c.054 0 .053-.053.053-.107V3.73s-.053-.053-.107 0h-.053c-.16 0-.32-.16-.32-.32s.16-.32.32-.32.32.16.32.32v.214s.053.053.107 0c.107 0 .16 0 .213.053.053 0 .107 0 .107-.053v-.053l-.053-.053c-.213-.16-.32-.32-.32-.427 0-.16.16-.32.32-.32s.32.16.32.32v.053c-.053 0 0 .053 0 .053h.214c.054 0 .053 0 .053-.053v-.16c0-.16.16-.32.32-.32.053 0 .16.053.213.053h.053c.053 0 .053-.053.053-.053.053-.16.213-.213.32-.213.053 0 .053 0 .053-.053 0 0 .053-.053 0-.053 0-.053 0-.107.053-.16v-.053c0-.053-.053-.053-.053-.053-.053-.107-.213-.213-.213-.373s.16-.32.32-.32.32.16.32.373v.107c0 .054 0 .053.053.107h.107c.053-.053.107-.053.16-.053 0 0 .053 0 .053-.053v-.106c0-.16.16-.32.32-.32s.267.107.32.213c0 .053.053.053.053.053.053 0 .107.053.16.107l.053.053c.107 0 .213.107.267.267 0 .053 0 .053.053.053h.107c.053-.053.107-.107.213-.107s.213.053.267.16c0 0 0 .053.053.053v.266l.053.053c.053 0 .107.053.16.16l.053.053c.16 0 .267.16.267.32v.16l.053.053c.107 0 .213.053.267.16 0 .053.053.053.107.053h.107c.107 0 .213.053.267.16 0 .053.053.053.107.053s.053 0 .053-.053c.053-.107.16-.213.267-.213s.16.053.267.107l.053.053c.053 0 .053 0 .053-.053a.292.292 0 0 1 .267-.16c.16 0 .32.16.32.32 0 .053 0 .107-.053.16v.107c0 .054.053.053.053.053s.107.053.16.107l.053.053c.053 0 .053 0 .053-.053l.107-.107c.053 0 .053-.053.053-.107v-.107c0-.16.16-.32.32-.32s.32.16.32.32a.294.294 0 0 1-.16.267c-.053 0-.053.053-.053.107s.053.053.053.053c.16.053.213.16.213.32v.214s.053.053.107 0h.107c.16 0 .32.16.32.32a.294.294 0 0 1-.16.267c-.16-.16-.16-.16-.16-.107s.053.053.053.053c.107.053.213.16.213.267 0 .16-.107.267-.267.32-.053 0-.053.053-.053.053 0 .053 0 .053.053.107.107.053.16.16.16.267s-.053.16-.107.213c0 0-.053.053-.053.107s.053.053.053.053c.16 0 .267.16.267.32v.106l.053.053c.16 0 .267.16.267.32a.294.294 0 0 1-.16.267c-.053 0-.053.053-.053.107v.107c0 .107-.053.213-.213.267l-.053.053v.053s.053.107.053.16c0 .053 0 .16-.053.213v.107c0 .054.053.053.053.053.16 0 .267.16.267.32v.16l.053.053c.107.053.213.16.213.267 0 .16-.16.32-.32.32-.053 0-.107 0-.16-.053h-.107c-.054 0-.053.053-.053.107v.053c0 .107-.053.16-.107.213 0 0-.053.053 0 .053 0 0 0 .053.053.053.107.053.16.16.16.267 0 .16-.16.32-.32.32-.053 0-.053 0-.053.053v.266l.053.053c.16 0 .267.107.32.267 0 .053 0 .053.053.053h.107c.053-.053.107-.053.16-.053.16 0 .32.16.32.32s-.16.32-.32.32-.267-.107-.32-.267c0-.053 0-.053-.053-.053h-.107c-.053.053-.107.053-.16.053-.16 0-.32-.16-.32-.32v-.16l-.053-.053c-.107 0-.16-.053-.213-.107 0 0-.053-.053-.107 0-.107-.107-.107-.053-.16-.053zm-2.133.907s-.053 0-.053.053c0 0 0-.053.053-.053zm.427.48c0 .16-.16.32-.32.32s-.32-.16-.32-.32.16-.32.32-.32c.213 0 .32.16.32.32zM11.2 30.453c-.533.053-.907.053-1.12.053s-.427.053-.693.16c-.267.107-.427.16-.587.053-.053-.053-.107-.053-.053-.16.053-.16.16-.32.32-.32.32 0 1.6-.373 2.027-.48.48-.16 1.547-.267 2.133-.267h.16c.587.053 2.613-.267 2.88-.533.053-.053.053-.107.053-.107v-.213c.053-.533.107-1.653 0-2.24-.053-.107-.053-.267-.053-.48 0-.053-.053-.107-.107-.107s-.107 0-.16.053c-.053.053-.16.16-.267.16-.16 0-.32-.16-.32-.32s.213-.32.32-.32c.107 0 .16.053.213.16 0 .053.053.053.107.053s.107-.053.107-.107c0-.16.053-.32.053-.48.053-.587.107-1.333.107-2.347-.053-1.867 0-4.267.16-4.853.107-.32.213-1.227.267-2.4 0-.053-.053-.107-.107-.107s-.107 0-.16.053c-.053.053-.213.16-.267.16-.16 0-.267-.16-.267-.32s.16-.267.32-.267c.107 0 .16.053.213.107s.107.053.16.053c.053 0 .107-.053.107-.107v-.587c0-.053-.053-.107-.107-.107s-.107 0-.16.053c-.053.053-.213.16-.267.16-.16 0-.267-.16-.267-.32s.213-.267.32-.267c.107 0 .16.053.213.107s.107.053.16.053c.053 0 .107-.053.107-.107v-.373c0-.587-.16-.907-.48-1.173-.213-.213-.587-.427-.587-.64-.107-.533-.267-1.387.16-1.973s1.173-.533 1.333-.587c1.173-.053 1.44.693 1.6 1.547.107.587-.267.853-.587 1.12l-.16.16c-.267.267-.213.587-.213.693 0 .213.32 1.973.16 3.2-.107.747-.213 1.92-.32 2.987-.053.8-.267 1.493-.267 1.92-.053.48.053 1.387.053 2.24 0 .8.053 1.653 0 1.867-.107.533 0 3.467.053 3.733 0 .16.16.373.213.533.107.267.213.533.213.853 0 0 0 .053-.053.053-.267.213-1.12.16-1.653.107s-2.027 0-2.773-.053c-.373-.107-1.387.16-2.24.267zm-2.187-.533s.053 0 0 0c.053 0 0 0 0 0zm-.106 1.067zM10.24 9.44zm3.573.8c-.053 0-.373-.16-.427-.16l-.64-.053h-.053c-.053 0-.267 0-.373-.053 0 0-.053-.053-.107 0-.053 0-.053 0-.107.053-.053.107-.213.107-.32.107h-.053c-.267.053-.427 0-.533-.053v-.32c0-.053.107-.213.747-.213.16 0 .213.053.213.107s.053.053.107.053c.053 0 .053 0 .107-.053s.16-.053.267-.053c.053 0 .107-.053.107-.107s-.053-.107-.107-.107c-.107 0-.16-.053-.213-.107 0-.053-.053-.053-.053-.107s-.107-.053-.16-.053c-.16.053-.427-.16-.533-.267-.107-.053-.16-.107-.16-.107-.107-.053-.107-.16-.107-.16 0-.053.053-.107.107-.107.267 0 .533 0 .907.213.053 0 .107.053.107 0h.107c.267.053.48.267.48.267s.64 0 .907.053c.053 0 .107 0 .16-.053 0-.053 0-.107-.053-.16l-.427-.373s-.16-.053-.213-.053-.213-.107-.267-.16c-.053-.053-.107-.053-.16-.053-.107.053-.213.107-.267.107s-.16-.107-.213-.213c-.053-.107-.107-.16-.213-.16s-.213 0-.267-.053c-.053-.053-.053-.16 0-.16.053-.053.587-.107.853-.053.107.053.16.107.213.16s.107.053.16.053c.107-.053.213 0 .267 0s.107 0 .16-.053c.053-.053 0-.107-.053-.16-.107-.053-.107-.107-.16-.213v-.16c0-.053-.053-.107-.107-.107-.107 0-.16-.053-.267-.107l-.107-.053c-.16-.053-.053-.267-.053-.32s.053-.213.267-.32c.053-.053.267-.107.48.267.053.053.053.107.053.16s0 .107.053.107c0 0 .053 0 .053.053.107.107.32.267.48.373.053.053.107.053.16 0s.053-.053.053-.107v-.16c0-.053-.053-.107-.053-.107s-.16-.107-.267-.16l-.053-.053-.053-.053.053-.053c.053 0 .213-.107.32 0s.107.16.107.213v.107s.053.053.107.053h.267c.053 0 .107-.053.107-.053 0-.053 0-.107-.053-.16s-.213-.213-.213-.373c0-.053 0-.107-.107-.16-.053 0-.107-.053-.16-.107s-.107-.107-.213-.16c-.107-.053-.107-.213-.107-.267 0-.107.053-.16.107-.16.267-.053.587-.107.693.16v.16c0 .053 0 .053.053.107s.053.053.107.053.053 0 .107.053c.16.213.32.747.373.747 0 0 .373.427.533.693.053.053.107.053.16.053s.107-.053.107-.107c0-.053.053-.48 0-.533l-.16-.533v-.053s-.053-.16-.053-.267c0-.053 0-.107-.053-.107-.107-.053-.16-.213-.267-.427s0-.373.16-.533h.053c.107 0 .213.213.32.427l.053.107c.053.107.053.16.053.213s0 .107.053.107.107.16.16.213c0 .053.107.107.16.053.053 0 .107-.053.107-.16s0-.16.053-.213c.053-.053.053-.107 0-.16s-.107-.213-.107-.373.053-.213.107-.267.053-.107.107-.16c.053-.053.107-.107.213-.107.16 0 .32.053.373.107.107.107.107.48-.053.853v.053c.053.267 0 .907 0 .907s.16.267.16.533c0 .053.053.107.107.107s.213-.053.213-.107l.107-.64v-.053c0-.053 0-.267.107-.373.053-.053.053-.107.053-.16v-.48c0-.107.053-.107.16-.16.053 0 .107-.053.16-.053h.053c.053 0 .16.16.16.427 0 .107-.053.213-.213.267-.053 0-.053.053-.053.053v.107c.053.053.053.16.053.267 0 .053 0 .107.053.107h.107l.053-.053c.053-.107.053-.16.107-.16s.053-.053.107-.053c.053 0 .107-.107.053-.16-.053-.32.267-.427.32-.48.107-.053.16 0 .267.053.053.053.107.107.213.107.053 0 .267-.053.373.053.053.053.053.107.053.16 0 .16-.053.267-.16.373-.053.053-.16.16-.213.267v.107c.053.053.053.053 0 .16-.107.213-.64.8-.64.8s0 .32-.16.64c-.053.053 0 .107 0 .16.053.053.107.053.16 0s.213-.107.267-.16l.587-.533.053-.053c.053-.053.16-.213.32-.213.053 0 .107-.053.107-.107.053-.213.213-.32.48-.32.053 0 .16 0 .213.053 0 0 .053.053 0 .107a.494.494 0 0 1-.48.427c-.053 0-.107.053-.107.107 0 .107-.053.16-.107.213s-.053.107 0 .16c.053.053.107.053.16 0 .107-.053.16-.107.213-.107s.107 0 .107.053c.053 0 .107 0 .16-.053 0 0 0-.053.053-.053.16-.107.373-.213.533-.16.107.053.16.107.213.213 0 .16-.16.427-.267.48s-.16.053-.267 0c-.053 0-.107 0-.16.053 0 0 0 .053-.053.053-.213.16-.64.373-.64.373s-.32.32-.533.48c-.053.053-.053.107-.053.16s.053.107.16.053l.693-.16h.053c.053-.053.267-.107.427-.053.053.053.107 0 .16 0 .053-.107.32-.053.427-.053.053 0 .107.107.107.213s-.107.16-.107.16c-.16.053-.267.053-.373 0-.053-.053-.107 0-.16.053s-.107.107-.213.16c-.053 0-.107.107-.053.16 0 .053.053.107.16.107s.16 0 .213.053c.053.053.107.053.107.107.053.053.107.053.16 0s.107-.053.16-.053c.053.053.053.16.053.32 0 .053 0 .107-.053.107h-.267c-.054 0-.053.053-.053.053s0 .053-.107.053c-.267.053-.48 0-.853.053-.267 0-.64.053-.907.16s-.64.213-.64.053v-.053c-.053-.213-.053-.213.053-.373s-.053-.267-.107-.373c-.053-.053-.053-.053-.053-.107v-.053s.16-.053.213-.107c.053-.053.053-.107 0-.16-.107-.107-.267-.107-.267-.267 0-.213-.16-.267-.267-.267.16-.32.16-.32.16-.373v-.106c0-.053 0-.053-.053-.107 0 0-.053-.053-.107-.053h-.106c-.16-.053-.16-.053-.213-.107l-.053-.053c-.107 0-.107-.053-.213-.16 0-.053-.107-.053-.107-.053h-.107c-.053-.053-.107-.053-.16-.053-.107.053-.107.053-.107 0 0 0 0-.053-.053-.053 0 0-.053-.053-.053-.107s-.107-.107-.16-.053c-.107 0-.107-.107-.267-.213s-.267 0-.373.107c-.053.053-.107.213-.107.16h-.213c-.054 0-.053.053-.053.053s0 .053-.053.053l-.053.053c-.16.107-.16.107-.32.107-.213 0-.267.16-.267.213-.053.107-.053.107-.107.107h-.16c-.053 0-.107 0-.107.053-.053.107-.053.107-.267.16s-.213.213-.213.32c0 .107 0 .107-.053.107h-.266c-.053 0-.107.053-.107.107 0 .16.053.213-.107.32s-.053.267-.053.373c.053.107.053.107 0 .107 0 0-.053 0-.053.053l-.053.053c-.053 0-.053.053-.053.107s0 .053.053.107c0 0 0 .053.053.053v.053c.053.213.053.213 0 .373-.107.16.053.267.107.32.107.053.053.053.053.107v.053s0 .107-.16.213c-.107.053-.32-.053-.48 0-.107 0-.427.053-.533.107l-.533.32c-.053 0-.16 0-.213-.053-.053 0-.107 0-.16.053 0 0-.053.107-.16.053s-.16-.053-.16-.053 0-.053.053-.107c0-.053.053-.053.053-.107.053 0 .107 0 .213.053h.107c.054 0 .053-.053.053-.053.107-.16.16-.32.16-.32 0-.053 0-.107-.053-.16s-.107-.053-.16 0c-.053.053-.267.16-.427.053a.414.414 0 0 1-.213-.213c0-.16-.053-.16-.107-.16s-.107.053-.107.107c0 .053-.053.107-.053.16s-.107.213-.213.16c-.053 0-.053-.053-.107-.107-.053-.107-.053-.32-.053-.427 0-.053.107-.107.16-.107s.16 0 .213.107c.053.053.053.053.107.053s.107-.053.107-.107v-.053c0-.107 0-.107.107-.107.267-.053.64-.053.64-.053l.96-.32c.053 0 .107-.053.107-.107.107-.107.053-.16 0-.16zm7.734-2.56s-.053.053 0 0l-.053.053s0-.053.053-.053zm.746 2.187c-.053 0-.053 0-.107.053 0 0-.053 0-.053-.053h.16zM11.52 11.84c.213.053.427-.16.48-.267.053.053.107.107.16.107s-.053.053-.053.107c0 .053 0 .053-.053.107-.053.107-.053.213 0 .32s.107.16.267.213h.053c-.107 0-.213-.053-.267-.053l-.053-.053c0-.053-.053-.053-.107-.053h-.053c-.053 0-.053 0-.053.053-.053.107-.16.213-.267.213-.16 0-.32-.16-.32-.32 0-.107.053-.16.107-.213s.053-.053 0-.107c0-.053-.053-.053-.053-.107.107 0 .16.053.213.053zm-.693-1.387zm-.8-1.066zm-.214-.107c-.16 0-.267-.16-.267-.32s.107-.267.267-.267c.16 0 .32.16.32.32s-.16.267-.32.267zm1.494 2.4zm-.214.373c0-.053 0 0 0 0zm0-.426s-.053 0 0 0c-.053 0 0 0 0 0zm-.96-2.08c0-.053 0-.053 0 0 0-.053 0-.053 0 0 0-.053 0-.053 0 0zm.16-.694zm-.16-1.546h.053-.053zm-.48 2.133c0-.053 0-.053 0 0 0-.053 0-.053 0 0 0-.053 0 0 0 0zm1.174 2.24zm1.12.8c.053 0 .053 0 0 0 .053 0 .053 0 0 0zm3.573-.747v.053a.606.606 0 0 1-.16-.427v-.267l-.053-.32s-.16-.693.16-1.173c.107-.107.587-.48.853-.693.107-.053.96-.267 1.173-.267.267 0 .8.32 1.013.48s.427.533.533.8c.107.267.107.587.053.747v-.053c-.16-.693-.427-1.92-1.92-1.867-.053 0-1.013.107-1.493.8-.48.747-.267 1.6-.16 2.187zm.32 2.4zm.427 4.8c0 .053 0 .053 0 0zm-.107 3.734c0 .107 0 .213.053.32-.053-.107-.053-.213-.053-.32zm0-2.72s0-.053 0 0c0-.053 0 0 0 0zm-.533-6.72c0-.16.16-.32.32-.32s.32.16.32.32-.16.32-.32.32c-.213-.053-.32-.16-.32-.32zm.266-.534zm-.48.427zm.64-.64zm.48 3.2zm-.16-2.08c.053 0 .053 0 0 0 .053 0 .053 0 0 0zm2.774-2.347c0-.053 0 0 0 0zm-3.04 13.28v-.107.107c0 .053 0 .053 0 0 0 .053 0 .053 0 0zm-.16.587h-.053.053zm-.267 1.867c-.16 0-.373-.16-.373-.32s.213-.373.373-.373.267.213.267.373-.107.32-.267.32zm-.48-.534zm.96.587zm-.267-.907c0 .053 0 .053 0 0 0 .053 0 0 0 0zm.16.214zm-.48-1.174c.053-.053.107-.053.16-.053-.053 0-.107.053-.16.053zm.107 1.974zm.213-.054zm3.734-13.813c0 .16-.16.32-.32.32s-.213-.107-.213-.32c0-.16.053-.32.213-.32.053 0 .16.053.213.053l.053.053c.053.107.053.16.053.213zm-1.227.107zm.96.373zm-.107-.907zm-.053-1.44c0 .053 0 .053 0 0zm1.28.374s.053 0 0 0c.053 0 .053 0 0 0 .053 0 .053 0 0 0h.053c-.053 0-.107 0-.107-.053.053 0 .053.053.053.053zm-9.227-6.774zm4.854-3.733s-.053 0 0 0c-.053 0-.053 0 0 0zm-3.36 3.36c0-.053 0 0 0 0zm-.267.64zm3.36-2.987s.053 0 0 0zm-1.067.267s.053 0 0 0zm-.266 0zm-1.12 1.013zM12.213 5.28zm.107.053zm.053 0s0 .053 0 0c-.053.053-.053.053 0 0-.053.053 0 .053 0 0zM13.44 3.68zm.587-.8zm.106.053zm.214-.266c.053 0 .053 0 0 0zm.693.16zm1.013-.534zM16 2.133c0-.053 0-.053 0 0 0-.053 0-.053 0 0 0-.053 0-.053 0 0zm-.32-.426zm0 .373c0 .16-.16.373-.32.373-.053 0-.107 0-.16-.053a.292.292 0 0 1-.16-.267c0-.16.213-.427.373-.427s.267.213.267.373zm-1.173.16zm-.16.107c0 .16-.16.32-.32.32s-.32-.16-.32-.32.107-.267.32-.267c.16 0 .32.053.32.267zm-2.294 2.666a.294.294 0 0 1-.16.267l-.053.053-.053-.053c-.16 0-.267-.107-.267-.267s.053-.32.213-.32.32.107.32.32zm-.48.48c0-.053.053-.053 0 0 .053-.053.053-.053 0 0 .053-.053.053-.053 0 0zm-.106.32zM16.8 1.6c0 .053 0 .053 0 0 0 .053 0 .053 0 0zm-.053-.107zm1.28.107s0 .053 0 0c0 .053 0 .053 0 0zm.64.373zm.213.214c0-.16.16-.373.32-.373s.373.213.373.373-.213.267-.373.267a.294.294 0 0 1-.267-.16s0-.053-.053-.053v-.053c0 .053 0 0 0 0zm.48.48s0-.053 0 0zm-.053.053c0 .053 0 .053 0 0zm-.427-1.173c0 .16-.16.32-.32.32s-.373-.107-.373-.267c0-.16.16-.373.32-.373.213-.053.373.107.373.32zm-.96.16v-.053.053zm-.213-.16c.053 0 .053 0 0 0 .053 0 0 0 0 0zm4 2.026c.053 0 .053 0 0 0 .053 0 .053 0 0 0 .053 0 0 0 0 0zm-.107.267zm0-.32zm-1.28-.213h.107c-.053-.053-.053-.053-.107 0zm2.773 2.826zm.587 2.827c-.16 0-.32-.16-.32-.32s.16-.32.32-.32.32.16.32.32c0 .213-.16.32-.32.32zm-.533-3.627c0-.053 0-.053 0 0zm-.214 5.814s.053 0 0 0zm.32.373c.053 0 .053 0 0 0zm.054-1.333zm-.48-5.654h-.053.053zm-3.04-1.226h-.053.053zm-1.28-2.24H18.4h.107zm-1.28.16h-.107.107zm-.907 0h-.053.053zm-.96.373zm-1.333.267h-.107.107c-.053 0 0 0 0 0zm-2.294 2.666h-.107.107zM11.2 6.24h-.106.107zm1.973 6.4c.053 0 .053 0 0 0 .053 0 .053 0 0 0zm2.347 14.507h.107-.107zm.373 1.653l.107-.053c-.267.107-1.067.267-1.707.373.64-.107 1.333-.213 1.6-.32zm-1.706.32zm-3.04.427c.107-.053 1.013-.267 1.76-.32-.747 0-1.653.267-1.76.32-.373.107-1.653.373-2.027.373.427-.053 1.653-.267 2.027-.373zM9.973 30.72h.48-.48zm6.294-.267h-2.826c-.16 0-.427 0-.693.053.373-.053.693-.053.907-.053.747.053 2.507 0 2.613 0 .16 0 .693.053 1.227.053h-.427c-.32 0-.587-.053-.8-.053zm-3.68.054h.16c-.053-.053-.107 0-.16 0zM20 13.28c-.053 0-.053 0 0 0-.053 0 0 0 0 0zm-.053-.96zm1.173-.48s.053 0 0 0c.053 0 .053 0 0 0 .053 0 0 0 0 0zm.48.053h.107-.107zm.427-.16c.053 0 .053-.053 0 0 .053-.053.053-.053 0 0zm1.28.747c.053 0 .053 0 0 0 .053 0 .053 0 0 0z"/></svg>