<svg xmlns="http://www.w3.org/2000/svg" width="32" height="32" viewBox="0 0 32 32"><path d="M28.747 13.12c-1.6-.8-2.08-.853-2.4-1.013s-2.187-.587-2.4-.587c-.213-.053-.8-.107-.8-.107s-.48-.533-.587-.587c-.107-.053.107.373.213.48.16.16.053.213.053.213s-.48.373-1.493.8c-.96.427-2.08.747-2.56.907s-1.867.267-1.867.267l-.213-.427s.267 0 .373-.053c.053-.053.213-.053.373-.16 0-.107-.107-.053-.373-.16s-.587-.16-.587-.16-.267-.48-.48-.48c-.213 0-.427.053-.427.053s-.32-.107-.427.053c-.213.267-.267.48-.267.48s-.213.213-.587.373c-.107.053.427.16.533.053 0 0 .053.267-.213.32-1.493.053-4.96-1.067-5.653-1.44-.747-.373-.48-.64-.587-.64s0 .427.267.64c0 0-1.44.213-2.293.533-.32.107-2.187 1.013-2.507 1.173s-1.707.907-2.293 1.6-.587.747-.373.907 1.227-.533 1.92-.32 1.173.747 1.173.747 1.013-.48 1.973-.267c1.707.373 2.72 1.92 2.72 1.92s.96-1.227 2.453-1.173 2.827 1.547 2.827 1.547 2.08 2.347 2.133 2.667c.107.32-.053.587.053.907a.6.6 0 0 0 .213.267l.053-.107c0 .053.053.107.053.107s.16 0 .16-.053c0 0 0-.107-.053-.16l.107.053s.107-.32-.107-.533c-.16-.213-.213-.693-.213-.693l.587.373v-1.013l.373 1.067.533-.213s.16.267.213.533-.107.533-.053.747c0 .053.053.107.107.16l.053-.213v.267c.053.053.213.053.267 0v-.32l.107.213.053-.053c.107-.213-.16-.64-.16-.64l-.053-.427s.96-3.093 1.28-3.307c.267-.213 2.24-1.707 3.253-1.707 1.28 0 2.293 1.12 2.293 1.12s.693-1.92 1.92-2.187c1.28-.213 1.707.16 1.707.16s.267-.8.693-.8c.427-.053 1.12.32 1.12.32s-.587-1.173-2.187-2.027z"/></svg>