<svg xmlns="http://www.w3.org/2000/svg" width="32" height="32" viewBox="0 0 32 32"><path d="M16.053 12.693zm14.454-3.466c-1.653-.32-3.307.64-3.84.853-.373.16-4.693 2.187-6.88 3.2 0-.267-.107-.693-.16-.96.107-.053.213-.16.267-.16.16-.053.587-.693.747-.96.16-.213-.053-.533-.053-.533s.96-1.12 1.227-1.227c.213-.107.053-.373.053-.373l.427-.587.48-.48c.213-.16-.213-.427-.48-.32-.267.16-.213.48-.427.693s-.267.533-.267.533-.32.107-.48.373c-.213.32-.853 1.227-.853 1.227s-.213.053-.533.32c-.267.267-.48 1.12-.587 1.28 0-.053-.053-.107-.107-.16-.107-.053-.373-.267-.533-.427 0-.213-.32-.427-.32-.64.053-.213.053-.8-.053-1.067-.053-.213-.48-.32-.48-.32s-.373-.587-.693-.693c.16-.213.373-.48.427-.587.16-.16.8-.48 1.067-.587.213-.053.96-.427 1.28-.64s1.067-.373 1.387-.427c.32-.053.373-.053.587-.213s-.48-.16-.693-.107c-.213.053-.853.16-1.12.267s-.693.427-1.013.48c-.32.053-.853.48-1.333.693-.427.213-.533.427-.693.587-.053.107-.16.267-.267.427-.213-.053-.64-.053-.64-.053s-.427.053-.64.053c-.053-.16-.16-.32-.267-.427-.16-.16-.213-.373-.693-.587-.427-.213-1.013-.64-1.333-.693s-.747-.427-1.013-.48c-.267-.107-.853-.213-1.12-.267-.213-.053-.96-.053-.693.107.213.16.32.16.587.213.32.053 1.067.213 1.387.427s1.067.587 1.28.64c.213.053.907.427 1.067.587.107.107.267.373.427.587-.32.16-.693.693-.693.693s-.427.107-.48.32c-.053.213-.053.853-.053 1.067.053.213-.32.427-.32.64-.16.16-.373.32-.533.427-.053 0-.107.053-.107.16-.107-.213-.267-1.013-.587-1.28s-.533-.32-.533-.32-.427-.907-.64-1.173a1.3 1.3 0 0 0-.48-.373s-.053-.32-.267-.533c-.213-.213-.16-.533-.427-.693s-.693.16-.48.32c.213.16.48.48.48.48l.427.587s-.16.267.053.373 1.227 1.227 1.227 1.227-.16.32-.053.533c.16.213.587.853.747.96.053 0 .16.107.267.16-.053.267-.16.693-.16.96-2.187-1.013-6.507-3.04-6.88-3.2-.533-.213-2.187-1.173-3.84-.853-1.653.267-.053 2.453-.053 2.453s1.6 1.867 2.08 1.973c.427.107 1.44.16 1.44.16s-.427.533-.267.96c.16.427 1.867 1.333 2.187 1.387s1.547.373 2.08.16c.48-.213 1.707-.96 2.187-1.067s.853-.053.853-.053l.16.747s-1.6.48-1.867.587c-.267.16-1.067 1.12-1.067 1.12s-.907 1.013-1.12 1.173c-.213.16-.587.64-.533.8s-.32.427-.427.48c-.107.053-.267.48-.267.48s-.427.053-.427.213-.373.533-.373.533-.373.32-.32.533c.053.213.16.48.373.427.213-.107.693-1.173.8-1.227s.32-.427.32-.427.32-.16.48-.48c.213-.373.32-.16.64-.427s1.333-1.6 1.333-1.6.693-.053 1.067-.213c.32-.16.96-.8 1.067-.8s.693-.32.693-.32v.747s-.533.16-.8.32c-.267.213-2.453 2.72-2.56 3.253s.213.693.213.693l-.427 1.973-.053.853-.16.64s-.373.32-.32.533l.053.213s-.267.267-.16.533c.107.267-.427.693-.32.96.16.213.48.373.587 0s.213-1.12.213-1.12.32-.16.32-.587.16-.48.213-.8c.107-.32 0-.267.267-.64s.64-2.72.64-2.72.373-.48.533-.747c.16-.267 1.227-2.293 1.227-2.293l.053-.373.427-.053s-.587.747-.427.96l.16.16c-.107.373-.267 1.013-.32 1.387 0 .32.16.747.267.96-.107 1.44.48 2.827.8 3.093.053.053.16.107.267.107.053.16.48.64.693.907.427.587 3.787.587 4.213 0 .213-.267.64-.747.693-.907.107 0 .16-.053.267-.107.32-.32.907-1.653.8-3.093.107-.213.267-.64.267-.96s-.213-1.013-.32-1.387c.053-.053.16-.107.16-.16.16-.213-.427-.96-.427-.96l.427.053.053.373s1.067 2.027 1.227 2.293.533.747.533.747.373 2.347.64 2.72c.267.373.16.32.267.64s.213.373.213.8.32.587.32.587.107.747.213 1.12c.107.373.48.213.587 0 .16-.213-.427-.693-.32-.96s-.16-.533-.16-.533l.053-.213c.053-.213-.32-.533-.32-.533l-.16-.64-.053-.853-.427-1.973s.32-.16.213-.693-2.293-3.04-2.56-3.253c-.267-.213-.8-.32-.8-.32v-.693s.587.32.693.32.693.64 1.067.8c.32.16 1.067.213 1.067.213s.96 1.333 1.333 1.6c.32.267.427.053.64.427s.48.48.48.48.213.32.32.427c.107.053.533 1.12.8 1.227.213.107.32-.213.373-.427s-.32-.533-.32-.533-.373-.427-.373-.533c0-.16-.427-.213-.427-.213s-.16-.427-.267-.48-.427-.32-.427-.48c.053-.16-.32-.693-.533-.8-.213-.16-1.12-1.173-1.12-1.173s-.8-.96-1.067-1.12c-.267-.16-1.867-.587-1.867-.587l.16-.747s.373-.053.853.053 1.707.853 2.187 1.067c.48.213 1.707-.107 2.08-.16.32-.053 2.027-.96 2.187-1.387s-.267-1.067-.267-1.067 1.013-.053 1.44-.16c.427-.107 2.08-1.973 2.08-1.973s1.44-2.133-.213-2.453zm-17.44 3.146c.107-.16.32-.373.48-.427.213-.053.533-.373.747-.533a4.354 4.354 0 0 1 1.76-.373 4.37 4.37 0 0 1 1.76.373c.213.16.533.48.747.533.16.053.32.213.48.427-.053.267.373.533.373.8 0 .107-.427.427-.427.267s-.373-.427-.64-.533c-.267-.107-1.28-.16-2.24-.16-.96 0-1.973.053-2.24.16s-.64.427-.64.533c0 .16-.427-.16-.427-.267-.107-.267.32-.533.267-.8zm1.12 6.347c-.427-.16-1.067-.64-1.067-.64s1.013.16 1.44.107c1.493-.107 1.493-.107 2.88 0 .427.053 1.493-.107 1.493-.107s-.64.533-1.067.64c-1.28.373-2.507.373-3.68 0zM4.16 13.12c-.32-.16-1.76-1.067-1.973-1.44s-.427-.533-.587-.907c-.16-.373.107-.853.48-1.013.373-.213 1.813.373 1.813.373s2.293.907 4.64 1.973c.693.32 1.28.587 1.76.8-.373-.107-.853-.16-1.44-.16-.32 0-3.04.267-3.147.267-.053-.053-1.227.267-1.547.107zm8.267 1.493c-.16.16-.373.16-.373-.107 0-.213-.587-.107-.853.053s0 .48 0 .48-.267-.16-.587-.053c-.32.107-1.547.747-1.813.8-.213.053-1.227 0-1.707-.16s-.8-.267-1.013-.373c-.213-.107-.747-.48-.64-.8.053-.32.053-.48.213-.48s1.493-.48 1.76-.587c.213-.053 1.067-.213 1.387-.213h1.973c1.973.907 1.76.853 1.867.907 0-.053-.053.373-.213.533zm4.906 11.254c-.48.16-1.76.32-2.56 0-.213-.053-.747-.32-.853-.907.267-.107.533 0 .853-.16.8-.32 1.707-.32 2.613 0 .32.107.587.053.853.16-.213.587-.747.8-.907.907zm2.24-5.494c0 .213.107.907-.107 1.387-.213.107-.587.32-1.28.427-1.6.267-2.72.32-4.267 0a4.292 4.292 0 0 1-1.28-.427c-.213-.48-.16-1.173-.107-1.387.053-.32.267-.64.32-.747.267.107.267.107.533.16 1.387.373 3.733.373 5.28 0 .267-.053.267-.053.533-.16.107.107.32.427.373.747zm6.4-5.12c-.213.107-.587.267-1.013.373s-1.44.213-1.707.16c-.213-.053-1.493-.693-1.813-.8s-.587.053-.587.053.267-.32 0-.48c-.267-.16-.853-.267-.853-.053s-.213.267-.373.107c-.16-.16-.213-.587-.213-.587.053-.053-.107 0 1.867-.907h1.973c.32.053 1.173.16 1.387.213s1.6.587 1.76.587c.16 0 .16.213.213.48.053.373-.427.747-.64.853zm4.534-4.533c-.16.373-.32.533-.587.907-.213.373-1.653 1.333-1.973 1.44-.32.16-1.493-.16-1.6-.107s-2.827-.267-3.147-.267c-.587 0-1.067.053-1.44.16.48-.213 1.067-.48 1.76-.8 2.347-1.067 4.64-1.973 4.64-1.973s1.44-.533 1.813-.373c.427.213.693.64.533 1.013zM16 12.693z"/></svg>