<svg xmlns="http://www.w3.org/2000/svg" width="32" height="32" viewBox="0 0 32 32"><path d="M23.2 12.96l-2.933 5.28c.107-.373.267-.853.267-.96v-.107l2.453-5.28s-1.227 2.56-2.187 4.48-.32.32-.64.64l2.293-5.547c-.053.107-1.92 4.32-2.613 5.867-.16.16-.267.32-.32.373 0 .053-.053.053-.053.107.267-1.12.907-3.68.907-3.68l-1.28 4.32c-.32.533-.64 1.12-.64 1.12l1.12-.747s-1.28 1.013-1.333 1.067c-.107.16-.48.8-.587 1.067s.907-.373.907-.373-1.067.8-1.28 1.013c-.16.16-.64.8-.907 1.173-.32.373-.533.853-.747 1.547-.16.48-.747 2.027-.747 2.027s0-1.867.213-2.827.32-1.493.373-2.133c.107-.64.32-3.093.32-3.2s.747-1.387.8-2.293c.053-.907.16-2.347.16-2.347s-.48 1.28-.533 1.173c-.053-.053.267-1.707.373-2.293v-.266c.16-1.44.907-7.573.907-7.573l-.96 6.667c-.053-.32-.053-.64-.107-.8-.053-.213-.053-.64-.107-1.12l.907-6.773-.96 5.973c0-.16-.053-.32-.053-.427a15.944 15.944 0 0 1-.16-1.173l.48-5.547-.587 5.067a2.507 2.507 0 0 0-.32-.8L15.573.802l-.213 5.227c-.107.373-.16.853-.16.853l.64 1.867-.8-1.547-.907-4.48.747 4.907c-.053.32-.053.693-.053.8.053.16.48 1.28.747 1.867-.267-.48-.747-1.387-.853-1.547l-1.12-4.213 1.013 4.693c-.053.267-.053.533-.053.64.053.213 1.067 2.88 1.067 2.88l-1.12-2.347c-.213-.8-.853-2.88-.853-2.88l.64 3.093c-.053.267-.107.64-.053.907.16.533 1.227 3.147 1.387 3.573l-1.493-2.987-1.12-2.24 1.12 3.04c.053.8.107 2.027.213 2.347.107.587.64 2.187.693 2.667s.053 2.133-.053 2.507c-.053.373-.213 1.067-.213 1.067s-.267-1.227-.907-2.347c-.48-.96-1.973-4.267-1.973-4.267l-.213 2.293-.053-2.773s-.053-.64-.427-1.28a9.851 9.851 0 0 0-.747-1.067c-.373-.96-1.067-2.827-1.547-4.107.373 1.12.907 2.72 1.227 3.733 0 .107 0 .32-.053.587L8.376 8.535l1.92 4.267v.48L7.469 8.589l2.773 4.96v.693l-1.973-2.72 1.973 3.2c.053.32.107.64.16.907-.8-1.173-2.453-3.573-2.453-3.52s1.547 2.4 2.507 3.893c.107.48.213.8.213.8s.107.427.32.907c-.693-.8-2.027-2.347-2.027-2.347l2.347 3.147c.107.213.427.533.533.693.48.693 2.08 1.173 2.08 1.173s.48 1.067.64 1.387c.16.32.213 1.173.107 1.493s-.267 2.933-.213 3.36c.053.427.16 1.92.107 2.187s-.213 2.027-.213 2.027.267.427.533.32c.267-.107.107-.373.107-1.013s.32-3.36.32-3.36 1.6-1.6 2.027-2.24c.427-.587 1.067-1.76 1.12-1.92.053-.107.64-1.707.907-2.133.213-.32.587-1.12.747-1.6l3.093-5.92zM8.587 6.613S8.8 7.2 9.067 8c-.267-.8-.427-1.387-.48-1.387z"/></svg>