<svg xmlns="http://www.w3.org/2000/svg" width="32" height="32" viewBox="0 0 32 32"><path d="M26.702 24.995c-2.743-1.211-7.028-1.576-9.845-.763l.118-.54c.08-.362.322-.684-.04-1.046s-.523 0-.523 0 .04-1.367 0-1.81c-.018-.197-.02-1.324-.006-2.602.35-.516 1.139-1.324 1.454-1.531.626-.412.965-.331 1.568-.437.603-.105.483-.377.322-.545s-.772-.094-1.133.007c-1.266.353-1.712 1.151-2.207 2.211.019-1.509.06-1.216.123-1.744.056-.469-.33-1.549.084-2.257.276-.18.639-.394.962-.527.226-.093.785.101.905-.261.066-.199.068-.523-.382-.523-.603 0-1.086.603-1.086.603l-.397.502c.005-.951-.005-1.828-.005-2.03 0-.402-.121-.523-.161-.804s.08-1.086.08-1.287.362-.483.563-.643.282-.603.322-.885a.956.956 0 0 1 .119-.312c.424-.229 1.301-.731 1.08-.854-.289-.161-.797.443-.797.443l-.133.139a.436.436 0 0 0 .052-.18c0-.048-.02-.075-.051-.089l.48-.515c.156-.121.679-.442.438-.643s-.603.322-.603.322l-.431.829c-.088.014-.177.056-.177.056s-.259.724-.259 1.046-.684.845-.684.845-.08-1.086-.201-1.488c-.121-.402.282-1.367.282-1.367s0-.965.08-1.448 0-.603.282-.402c.235.168.524-.223.498-.405.249-.045.518-.246.468-.52 0 0-.952.121-.832.396-.236-.011-.496.006-.496.006l-.016-.057c.116-.383.244-.896.205-1.208a11.319 11.319 0 0 0-.152-.81c.231-.286.676-.899.244-.917l-.272.788a47.035 47.035 0 0 0-.199-.875C16.62.605 16.251 0 16.251 0s-.442 1.126 0 .925c.014-.007.026-.015.038-.023l.158 1.774-.046.791-.101-.37s-.169-.523-.274-.402.274 1.045.274 1.045-.531-.201-.652 0 .652.322.652.322-.049 1.729-.006 1.85c.043.121-.164 1.287-.268 1.528-.105.241.306 2.534.266 2.695s.08.764-.266.643c-.346-.121 0-1.247 0-1.247s-.257-.885-.378-1.166c-.121-.282-.282-.764-.623-1.086-.097-.092-.167-.243-.218-.411-.018.085-.059.139-.135.129-.138-.017-.318-.164-.482-.332-.121-.267-.462-.93-.785-.736-.415.249.327.684.327.684l.487.154a.628.628 0 0 1 .062.109c.04.121.523.442.724.684.201.241.362 1.086.563 1.448s.282.925.188 1.408c-.093.483.536.724.536 1.166 0 .261-.093 2.741-.169 6.301-.199-.522-.632-1.234-1.306-1.229-.795.007-1.547.603-1.225.925s.389-.282 1.115-.282c.629 0 1.165.73 1.406 1.011l-.088 4.096s-.579-.121-.7 0-.161.764 0 1.448c.051.217.07.373.071.485a.756.756 0 0 1-.192-.042s-2.643-1.423-6.033-1.159c-3.62.282-5.671 1.327-5.831 2.574-.181 1.401 3.051-.169 4.022-.442 2.855-.804 4.331-1.101 5.943-1.026 2.11.099 1.859.375 2.11.652 0 0-2.096.367-3.83 1.457-.927.583-2.306 1.202-2.869 3.092-.472 1.585 1.877 3.325 3.325.858 2.09-3.561 1.214-3.682 3.325-5.121.885-.603-.523 2.132-.523 2.132s-.773 1.651.201 2.453c1.367 1.126 2.685.403 2.936-.442.322-1.086-.523-2.493-.643-2.815s-.684-1.207-.603-1.448.065-.443.462-.543c.478-.12 2.936-.503 7.621 1.87 3.027 1.533 3.218-.804 1.885-1.392zM14.721 6.096c.023-.224-.05-.707-.521-.736 0 0 .399.76.472.845.006.006.011.006.017.001.017.19.051.441.118.662.041-.192-.032-.552-.086-.772zm-.858.018s.218-.955 0-.986-.437.232-.437.232-.346-.165-.281-.235c0 0-.598.096-.229.495.132.143-.521.196-.334.352s.312.406.312.406-.438.25-.188.344 1.024-.108 1.024-.108l.133-.5zm1.92-2.453s-.168-.689-.372-.814-.266.281-.266.281-.531.009-.5.114c.031.105.312.23.312.23s-.46.003-.449.189.511.186.511.186-.156.281 0 .313.763 0 .763 0L16 3.815l-.217-.154zm.894-2.315s.812.343.999 0-.188-.437-.188-.437.324-.219.24-.375-.365 0-.365 0 .129-.406-.154-.344c-.283.062-.346.375-.346.375s-.375.176-.312.276-.079.433.126.505zm1.687 3.779s-.25.619-.312.811.156.567.156.567.906.062 1.062 0 0-.389 0-.389.5-.33.375-.549-.531-.205-.531-.205.406-.42.188-.482-.563.482-.563.482-.283-.463-.375-.235z"/></svg>