<svg xmlns="http://www.w3.org/2000/svg" viewBox="0 0 60 60"><path d="M5 27.1c-.1 0-.1 0 0 0zm52.6.8l.4-.3s-2 0-2.7-.5c-.7-.5-2.5-3.3-2.9-3.7-.5-.3-2.7-3.3-4.6-3.9-1.9-.6-3.3-1.5-6.2-1.2s-5.1 1-5.9 1.3c-.8.3-6 1.2-7.2 1.2-1.2 0-1.7-.3-2.7-.3-1.1 0-2.1 0-2.8.4-.1.1-3.1-.2-4.1-.9-1.1-.7-2.6-1.9-3.4-2.5-.8-.6-1.9-1.2-1.9-1.2s-.2-1.4-1.3-1.9c-.2-.1-.5-.2-.7-.3 0-.1.1-.1.1-.1.2-.3 1.1-.5 1.8-.7.7-.2 1.7.1 2.4.3.6.2 1.8 1.2 2.1 1.3.2.2.8.3.9.2.1-.2-.4-1.3-.7-1.6-.2-.2-1.2-1-.8-.9.3.1 1.2.5 1.5.7.3.2.4-.1.4-.1l-.9-1.2s-1.7-1.3-4.1-1.1c-2.4.2-3.9 1.2-4.5 1.7-.3.2-.5.5-.8.8-.2 0-.3-.1-.3-.1s-.7 0-1.1.2-1.2.6-1.3 1c-.2.4-.3.8-.6 1-.3.2-3.6 2.7-4 3.1-.5.7-.7 1.1-.7 1.5 0 .4-.2.4-.2.9s.4.9.4.9-.2.5 0 .7c.3.2 1 .8 1.6.8s1.2-.2 1.8.1c.6.3 1.3.6 1 2-.4 1.2-.6 1.5-.6 1.6l.8-.7v.8l.7-1.2.1.5s.4-1 .6-1.3c.2-.4.8-1.3 1.5-1.6.7-.4 2.3 0 2.7.4.4.4 4.3 4.8 4.5 5s2.5 3.6 2.7 4.2c.2.6 1.2 2.9 1.7 3.5.3.3 1.3.8 2 1.2.2.3.3.6.4.8.5.8.6 2.2.6 2.7s1 3 1 3.3.3 2.2.1 2.9c-.2.8-1 1.1-1.2 1.6-.2.5-.4.8-.4 1.3s-.2.6.4.7c.3 0 1 .1 1.5.1-.1.3-.2.5-.2.8 0 .5-.2.6.4.7.6.1 1.9.2 2.3 0 .5-.2.8-1 .8-1.3 0-.3-.1-.9.2-1 .2-.2.4 0 .5-.8.1-.7-.5-1.4-.5-2 0-.6-.7-2.7-.5-3.3.2-.6.2-1.8.1-2 0-.2.3-2.3.6-3.1.1-.3.2-.7.2-1.3 1-.1 1.9-.2 2.1-.1.8.1 2 .3 2 .3s4.4.8 6.3.5c1-.2 2.2-.5 3.1-.8.4 1 .8 1.9.9 2.2.4.7 1 3.7 1 4.9-.1 1.2-.8 3.3-.8 3.3s-1.4 1.7-1.3 2.5c.1.8 1.4.9 2.1.8.6-.2 1.2-.5 1.2-.5s-.2-1.4.2-1.9c.4-.4.6 0 .7-.7.1-.7-.1-2 0-2.9.1-.7.2-3 .3-4.4.1.2.1.3.2.4.4.7 1 3.7 1 4.9-.1 1.5-.9 3.5-.9 3.5s-1.4 1.7-1.3 2.5c.1.8 1.4.9 2.1.8.6-.2 1.2-.5 1.2-.5s-.2-1.4.2-1.9c.4-.4.6 0 .7-.7.1-.7-.1-2 0-2.9.1-1 .3-4.8.4-5.4.1-.6-.2-.7-.5-1.3-.3-.6-.3-2.5.2-3.5.4-.9 2.7-4.6 3-6.3.4-1.1 1-2.6 1-2.6s1.1 1 2.4.9c1.3-.1 2.1-.6 2.1-.6l.5-.5-1.1-.1z"/></svg>