<svg xmlns="http://www.w3.org/2000/svg" width="32" height="32" viewBox="0 0 32 32"><path d="M29.571 28.459c-.065-.332-.766-.798-.998-1.032-.232-.231-.699-.598-.433-1.331.455-1.249.516-3.118-1.165-6.223-2.197-4.061-9.298-10.694-10.417-11.883-3.163-3.362-4.394-6.49-4.394-6.49-.41 1.273-.079 2.966.423 4.362-.373-.313-.866-.488-1.101-.559-.197-.369-.54-.62-.997-.726a2.226 2.226 0 0 0-.51-.056c-.477-.715-1.264-.832-1.751-.781-.311-.409-.754-.609-1.291-.58a2.212 2.212 0 0 0-.599.123c-.36-.321-.845-.403-1.386-.23-.31.099-.566.257-.691.342-.534 0-.965.258-1.221.733a2.037 2.037 0 0 0-.217.663c-.509.688-.461 1.263-.327 1.626.084.232.212.406.31.515-.12.44-.036.901.247 1.343.135.209.287.372.394.474a1.945 1.945 0 0 0 .521 1.818c-.046.279.089.621.403 1.02.168.214.351.399.46.504-.031.742.533 1.19.957 1.379.113.883.831 1.329 1.163 1.489.064.363.345.876.743 1.182-2.336-.746-4.382-.296-4.382-.296s1.625.566 2.262 1.031c2.097 1.531 3.962 3.428 8.254 8.088 4.295 4.659 8.388 4.625 9.32 4.56s1.83-.233 1.931-.267c.1-.034 1.01-.353 1.33-.166.4.232 1.498 1.397 1.498 1.397.599.167 1.731-1.696 1.664-2.029zM9.628 17.041l.61-.517c.331.537.914 1.449 1.127 1.556.068.035.172.116.286.214a2.045 2.045 0 0 0-.065.062 36.333 36.333 0 0 0-1.958-1.315zm5.722-2.077c-.224.153-.882.736-1.593 1.383a62.501 62.501 0 0 0-1.22-1.752c.248-.205.434-.357.514-.416.154-.116.412-.369.711-.663l.375-.366c.155.179.372.441.583.699.394.478.671.813.827.972a5.092 5.092 0 0 1-.197.143zm-2.611-1.107c-.055.061-.23.211-.47.408-.278-.37-.967-1.349-1.513-2.134.062-.056.109-.097.136-.119.102-.087.608-.425 1.1-.752.126-.084.243-.163.352-.234.1.121.259.318.424.522.42.519.934 1.153 1.132 1.354-.549.425-1.038.817-1.161.955zm-2.584-1.732c-.225.25-.912.828-1.477 1.292a33.579 33.579 0 0 1-.838-1.345c.243-.173.819-.662 1.338-1.11.196.251.729.931.977 1.163zm.269.301c.197.271.492.716.745 1.097.375.568.594.895.718 1.051-.266.214-.562.45-.845.674l-.698.557c-.073-.096-.156-.198-.238-.299-.14-.171-.284-.349-.326-.433-.079-.158-.624-.955-.876-1.322a68.665 68.665 0 0 0 1.52-1.325zm5.085 2.855c.029-.04.121-.134.251-.261.331.364 1.201 1.501 1.461 1.864-.206.205-.386.383-.509.51-.229.235-.792.662-1.397 1.094-.32-.432-1.065-1.439-1.329-1.806.881-.784 1.446-1.295 1.523-1.401zm-3.336-.382c.182.242.46.64.682.958.291.416.461.657.566.797-.578.529-1.153 1.064-1.526 1.413-.319-.44-1.052-1.478-1.287-1.854.494-.418 1.084-.913 1.565-1.314zm-.219-4.264l.109.103c-.634.405-1.214.783-1.56 1.053L9.49 10.693c.08-.071.159-.137.23-.199.219-.191.393-.341.438-.376.065-.053.347-.296.666-.573.167.172.497.49 1.13 1.09zm1.461 6.556l.269-.239c.171.217.518.712.766 1.064.242.345.416.593.514.722-.552.39-1.091.753-1.397.957a70.342 70.342 0 0 1-1.444-1.349c.312-.284.821-.738 1.292-1.155zM6.037 7.282c.055.091.179.293.321.502.223.329.364.495.454.581l-1.177.79-.455-1.099a2.17 2.17 0 0 0 .298-.251c.033-.043.263-.256.559-.523zm-.274 2.115c.347-.276.888-.682 1.205-.918.183.117.565.545.804.828-.454.312-1.049.726-1.43 1.015a29.945 29.945 0 0 0-.579-.925zm15.194 10.097c-.061.025-.108.108-.265.394-.206.376-.516.942-.894 1.321-.285.285-.878.675-1.413 1.002a101.457 101.457 0 0 0-1.346-1.638c.269-.242.483-.44.529-.493a48.06 48.06 0 0 1 1.06-1.061.083.083 0 0 0 .005-.113.084.084 0 0 0-.113-.012c-.026.019-.651.493-1.006.826a25.19 25.19 0 0 1-.696.602c-.288-.338-.937-1.126-1.325-1.598.698-.514 1.338-.991 1.427-1.081.054-.052.25-.241.511-.488.152.167.411.429.746.767.261.265.506.512.585.604.021.026.044.051.084.051.034 0 .064-.02.077-.049.025-.056.027-.062-.556-.864a30.993 30.993 0 0 0-.611-.815c.494-.467 1.078-1.016 1.379-1.299 1.046 1.387 1.955 2.6 2.444 3.304-.312.34-.566.605-.622.64zm-9.04-.956c.073.069.144.138.205.2-.079-.057-.158-.115-.237-.17l.032-.03zm4.829 2.299l1.473 1.473c-.328.197-.618.359-.773.448l-1.532-1.177.832-.744zm2.164-5.587c-.344.329-.894.857-1.377 1.329a40.815 40.815 0 0 1-.681-.892 31.557 31.557 0 0 0-.756-.984c.434-.406 1.014-.933 1.421-1.299l1.393 1.846zm-1.496-1.985c-.35.303-.985.847-1.486 1.255a157.392 157.392 0 0 1-1.483-1.659c.253-.231.48-.417.617-.469.284-.109.789-.498 1.124-.77.397.536.812 1.089 1.228 1.643zM3.288 5.058l.049-.063.006-.079c0-.002.026-.285.171-.547.176-.318.443-.461.814-.439l.1.005.079-.061c.039-.031 1.006-.765 1.563-.105l.135.159.187-.092c.002-.002.268-.13.589-.145.396-.017.688.14.896.478l.1.163.187-.042c.01-.002.974-.212 1.438.633l.087.158.179-.021c.002 0 .235-.025.502.037.338.08.568.259.685.535l.052.123.129.032c.265.066 1.003.327 1.229.736l.022.039.646.584c.113.229.224.435.331.612.464.772 1.434 2.125 2.56 3.646-.219.109-.47.244-.608.347-.284.213-.721.542-1.162.88a43.195 43.195 0 0 0-.714-1.016 12.51 12.51 0 0 0-.709-.916c.331-.225.502-.351.538-.396.098-.13.724-.888.73-.896.027-.034.025-.083-.007-.113s-.081-.03-.114-.001c-.006.006-.7.632-1.058.893a11.55 11.55 0 0 1-.41.271c-.192-.091-.83-.606-1.432-1.131.414-.36.815-.711.847-.74a.08.08 0 0 0 .011-.113.083.083 0 0 0-.114-.017c-.038.027-.474.335-.954.683l-.538-.509a.083.083 0 0 0-.124.11l.422.574c-.487.355-.957.71-1.051.82a3.612 3.612 0 0 1-.339.295l-.637-.668a.083.083 0 0 0-.13.102l.493.78c-.193.153-.41.321-.615.481-.299.233-.541.421-.717.562a7.529 7.529 0 0 0-.495-.461 9.074 9.074 0 0 1-.572-.535A37.19 37.19 0 0 0 7.954 9.5a.075.075 0 0 0 .02.003.083.083 0 0 0 .046-.014.085.085 0 0 0 .037-.08l.439-.394a.08.08 0 0 0 .01-.113.082.082 0 0 0-.111-.018l-.452.306c-.17-.305-.511-.881-.716-1.035-.181-.135-.636-.728-.919-1.114.511-.451 1.096-.948 1.249-1.032a.961.961 0 0 0 .039-.015c.069-.026.06-.088.059-.095a.084.084 0 0 0-.116-.061l-.022.007-.029.012c-.211.083-.72.3-.972.578a4.512 4.512 0 0 1-.403.368l-.607-.636c-.03-.032-.079-.035-.112-.008s-.042.074-.018.111l.485.74c-.215.171-.495.386-.854.654l-.665-1.223c.216-.175.398-.326.464-.391a76.834 76.834 0 0 0 1.167-1.268.082.082 0 0 0 .001-.109.082.082 0 0 0-.107-.017c-.031.019-.743.474-1.013.743-.134.135-.463.42-.75.666a2.384 2.384 0 0 1-.311-.516l-.01-.085c-.013-.11-.02-.17-.098-.17-.012 0-.075.005-.086.087a.458.458 0 0 0 .032.207c.043.337.105.569.193.713l-.223.187-.309.174-.015-.012c-.031-.025-.75-.613.011-1.592zm.001 2.213c.092-.071.437-.34.777-.61.059.149.116.345.169.528.111.379.197.653.303.81-.211.149-.461.323-.634.444-.047-.038-.65-.535-.615-1.172zm.674 1.618c.178-.1.544-.346.873-.581.152.244.333.689.465 1.072l-.7.469a.094.094 0 0 0-.027.029l-.195.348a1.433 1.433 0 0 1-.416-1.337zm.827 2.369c-.23-.292-.294-.476-.297-.572l.018-.015c.007-.007.551-.633.894-.966.086.275.28.822.513 1.003-.111.123-.316.317-.501.493-.174.166-.291.277-.366.354a3.534 3.534 0 0 1-.261-.297zm.902 1.531c-.257-.211-.361-.462-.319-.769l.006-.046a7.75 7.75 0 0 0 .228-.285c.191-.248.44-.571.654-.764.282.248.711.732 1.005 1.087-.181.173-.768.648-1.207.993a1.517 1.517 0 0 1-.367-.216zm.62.566c.093-.062.261-.207.625-.529.177-.156.366-.323.536-.466.231.411.613 1.071.834 1.358-.261.211-.444.357-.451.362l-.003.002-.518.46-.042-.015c-.008-.002-.902-.327-.981-1.172zm1.907 2.482l-.062-.031c-.335-.167-.568-.57-.652-.817.056-.02.127-.091.328-.304.203-.212.479-.503.687-.636.015-.009.031-.021.049-.034.115.16.268.402.401.611.352.557.506.788.606.828.074.03.263.339.413.638-.292.238-.403.339-.423.379a3.03 3.03 0 0 1-.291.361l-.039-.021a7.71 7.71 0 0 0-.548-.283l-.469-.691zm5.572 4.134c.294-.215.827-.603 1.371-1.003.274.319.92 1.095 1.35 1.611-.394.329-.777.646-.915.759-.596-.456-1.204-.918-1.806-1.367zm7.451 8.688c1.729.2 3.275-.969 3.275-.969-3.861.135-6.291-2.562-6.291-2.562 4.229 2.631 5.734 1.864 6.162 1.751a7.435 7.435 0 0 1-.205-.986c-.514.184-1.639.339-3.432-.662-.152-.085-.475-.313-.918-.646l.411-.457c.121-.077 1.204-.771 1.369-.938.17-.168.941-1.293.975-1.343a.081.081 0 0 0-.017-.11.082.082 0 0 0-.112.007c-.005.006-.471.501-1.092 1.025-.512.431-1.677 1.157-2.079 1.405-.417-.318-.901-.689-1.427-1.094.633-.439 1.999-1.384 2.177-1.512.262-.186 1.069-1.482 1.191-1.728.056-.113.277-.43.51-.75 2.403 3.578 2.726 5.819 2.768 6.453.115.749.349 1.44.427 1.917l.115.562c-2.495 1.332-3.807.637-3.807.637z"/></svg>