<svg xmlns="http://www.w3.org/2000/svg" width="32" height="32" viewBox="0 0 32 32"><path d="M3.145 3.053s-.861.474-1.206.775S.733 4.603.561 4.905c-.172.302.302 1.378.302 1.378s.129 1.12.431 1.378c.302.258.948.345.948.345s1.637.646 1.809.732c.172.086 1.335.603 1.335.603l.301 1.378s-.388 2.024-.345 2.498.215 2.239.215 2.239.215 2.67.258 3.101c.043.431.861 2.584.775 3.23s0 2.111.086 2.412c.086.301-.215 2.326-.301 2.498s-.991 1.507-.991 1.507-.818 0-.947.345-.689.517-.258.861 2.196.517 2.455.345.904-.904.904-.904l.603-1.981s.603-1.809.732-2.756c.16-1.172.646-3.273.646-3.273l1.852.818s.904 2.326.775 3.144-.301 2.067-.172 2.412c.129.345-.043 1.68-.517 2.326s-1.163 1.12-1.335 1.593c-.173.474 1.249 1.077 2.283.905s1.163-.56 1.206-.818c.043-.259.388-2.024.56-2.326s.129-1.68.215-1.895c.086-.215.345-2.928.474-3.532s.129-2.412.129-2.412 2.627-.689 3.575-1.163c.947-.474 2.067-.818 2.067-.818s.999 1.195 1.637 1.594c1.378.861 1.464 1.163 1.723 1.594.188.313.431 1.077.388 1.206s-.086 1.034-.431 1.335c-.344.302-.461.715-.344.818.388.345 1.034.517 1.594.215s.818-.474.775-1.034c-.043-.56-.377-1.721-.301-2.154.172-.991-.129-1.637-.129-1.637s1.68 1.378 2.369 1.594 1.507 1.421 1.55 2.024c.043.603-.301 1.249-.301 1.249s-.517.646-.344.904c.172.258 1.206.861 1.981.474s.474-1.034.474-1.034-.129-1.637-.215-1.938c-.086-.302-.689-1.68-.646-2.067s-.172-.991-.431-1.163-1.292-2.197-1.292-2.197-.258-.431-.344-1.292c-.086-.861-.043-1.464-.474-2.627s-1.68-1.938-1.723-2.455c-.043-.517-.387-1.593-.172-1.895s.818-3.144.517-4.695c-.59-3.035-1.68-4.135-2.239-4.652-.659-.608-1.68-1.12-2.024-.862s.076.75.818 1.766c.818 1.12 1.637 2.498 1.421 4.824s-.904 3.058-1.206 3.23c-.301.172-3.359.086-3.79.086s-2.498-.043-2.843-.345c-.344-.302-.904-.689-1.507-.905s-1.292-.56-1.292-.56-.043-.474-.388-.732c-.344-.258-.56-.732-.56-.732s.818-.689.689-1.766-.861-2.498-1.507-2.972S10.384.809 10.04.637C9.695.465 9.308.422 9.308.422S9.007.12 8.361.077c-.646-.043-2.11-.086-2.11-.086S5.174.034 4.916.163 3.882 1.24 3.71 1.412s-.603.689-.646.861c-.043.172.087.776.087.776z"/></svg>