<svg xmlns="http://www.w3.org/2000/svg" width="32" height="32" viewBox="0 0 32 32"><path d="M28.388 5.472c-.41-.284-.928-.41-1.224-.875-1.419-2.225-3.598-3.462-6.008-4.176-3.004-.888-5.973-.259-8.836.829-1.486.565-2.95.952-4.575.709-1.3-.196-2.633-.18-3.857.467-.332.175-.78.341-.69.794.087.444.563.259.864.3 2.17.299 2.717 1.142 2.031 3.181-.068.201-.119.41-.207.602-1.327 2.897-1.636 5.968-1.375 9.085.18 2.133.042 4.45 1.527 6.2.787.928 1.354 1.895 1.678 2.941-.091.518-.234 1.195-.429 1.716-.197.526-.854 1.89-.732 3.292.08.925.609 1.463.609 1.463s.305-.061.488-.488c.188-.438.427-.793.915-1.28.641-.641 1.341-1.646 1.28-2.195s.348-.291.61-.366c.427-.122 1.158-.488 1.524-.671s1.402-.183 1.402-.183-.244-.61-.671-.854-.748-.532-2.134-.671c-.809-.081-1.134-1.154-1.261-1.867.043-1.553-.197-3.093-.269-4.64-.198-4.252 2.958-8.085 7.14-8.89.098.514.141 1.188.182 1.56.061.549-.061 1.158 1.28 0 1.077-.93 2.334-3.053 2.334-3.053.736-.685 1.529-.96 2.451-1.165 1.816-.402 3.209-.256 5.029-.232.407.005 1.341.183 1.565-.162.292-.452-.137-1.022-.642-1.372z"/></svg>