<svg xmlns="http://www.w3.org/2000/svg" width="32" height="32" viewBox="0 0 32 32"><path d="M31.276 28.166c-.137-.684-.137-.959-.274-1.37-.137-.41.137-1.78 0-2.739s-.822-4.383-.822-4.383.959-3.561.684-5.343c-.273-1.78-1.232-4.246-1.918-5.479-.684-1.233-3.149-3.287-3.149-3.287s.41-.958.41-1.781c0-.821-4.246-3.425-6.163-3.698s-5.342.137-6.164.685-3.15 1.37-3.698 1.643c-.548.274-2.466.548-2.877.548 0 0-1.643.548-2.329 1.643S3.47 7.482 3.47 8.577c0 1.096-.822 4.794-.685 6.712.062.866.235 2.32.381 3.83-.627.973-1.735 2.712-2.026 3.293-.317.634 1.155-.765 2.16-1.754.098 1.299.139 2.504.031 3.261-.274 1.918 0 4.794.411 5.753s2.26 1.198 2.26 1.198.913-.098 1.027-.651c.205-.993-.993-.445-1.37-1.369-.258-.633-.548-2.055 0-4.384.258-1.099.685-3.973.958-4.52s1.506-2.739 1.917-3.698c.411-.959 2.329-1.78 2.329-1.78L11 17.481s.685 4.246.822 5.342.274 4.246.136 5.069c-.136.822-1.095 1.369-1.37 1.78-.274.41-.137.684.548.959s2.054.137 2.739 0 .959-1.232.822-1.918-.548-2.466-.411-3.561c.137-1.095.685-4.246.685-4.246l.547-1.506s.685 2.877.821 3.835c.137.959 0 4.383.137 5.067s-.754 1.986-.822 2.466.136.959.684 1.096c.549.137 1.834.22 2.602 0 .959-.274 1.37-.959 1.096-1.369s-.686-1.781-.686-2.602c0-.823 0-4.384.274-5.205.273-.823 1.096-2.877 1.096-2.877s.959 2.466 1.643 2.877c.684.41 1.096 1.643 1.096 2.465 0 .823-.411 1.918-.411 1.918s-.959.548-.548 1.096 2.192.274 2.602.137c.411-.137.686-.822.686-1.507 0-.684-.548-2.739-.548-3.287s-.411-2.328-.274-2.877c.137-.548.823-.959.823-.959s1.095 3.014 1.78 3.561c.684.548 1.096 1.096 1.096 1.917 0 .823-.137 2.055-.137 2.055s-1.507 1.37-1.096 1.918c.41.548 1.643.548 2.465.41.823-.136 1.507-.683 1.37-1.369z"/></svg>