<svg xmlns="http://www.w3.org/2000/svg" width="32" height="32" viewBox="0 0 32 32"><path d="M28.042 19.354c-.242-.222-.46-.421-.638-.593-.716-.695-2.673-2.248-4.495-3.661.113 0 .559-.005.78-.042.254-.042.976-.807 1.103-1.104s.68-.424.849-.551c.17-.127.128-.467-.339-.255s-1.74 1.188-1.952 1.315c-.155.093-.809.041-1.182.063-.939-.724-1.775-1.36-2.318-1.771.011-.149.021-.309.021-.371 0-.127.128-1.358.128-1.358s.382-.509.721-.594c.34-.085.425-.552.637-1.146s.085-1.061.255-1.357c.17-.297 0-1.019 0-1.019s.339-.189.552-.636c.806-1.697 2.291-3.013 2.63-3.352.34-.339.085-.509-.254-.382s-2.971 3.14-3.056 3.352c-.084.212-.424.551-.509 1.018s-.594 2.079-.637 2.249c-.042.169-.81.424-.81.424s0-.171-.014-.42c.066-.088.144-.24.234-.492.382-1.061-.892-1.973-1.104-2.206-.106-.118-.364-.197-.593-.248.216-.145.542-.38.758-.623.34-.382.467-.636.637-.933s-.297-.467-.297-.467-.807.806-.807 1.23c0 .312-.435.554-.665.661a1.933 1.933 0 0 0-.522-.237c-.34-.085-1.099.069-1.099.069-.039.01-.061.023-.094.035-.032-.011-.055-.025-.094-.035 0 0-.684-.154-1.023-.069-.201.05-.392.156-.523.237-.229-.107-.664-.349-.664-.661 0-.424-.807-1.23-.807-1.23s-.467.169-.297.467c.17.297.297.551.637.933.219.246.551.485.766.628-.223.051-.466.129-.568.242-.212.233-1.485 1.146-1.104 2.206.08.221.148.364.208.455-.011.245-.01.415-.01.415s-.777-.212-.82-.382c-.042-.17-.551-1.782-.636-2.249s-.425-.806-.51-1.018c-.085-.212-2.715-3.225-3.055-3.352s-.594.042-.255.382c.34.339 1.825 1.655 2.631 3.352.212.447.552.636.552.636s-.17.721 0 1.019c.17.297.042.764.255 1.357.212.594.297 1.061.636 1.146.34.084.722.594.722.594s.127 1.23.127 1.358c0 .062.011.221.021.371-.543.412-1.379 1.047-2.318 1.771-.373-.022-1.025.03-1.181-.063-.213-.127-1.485-1.103-1.952-1.315s-.509.127-.34.255c.17.127.722.254.849.551s.849 1.061 1.104 1.104c.222.037.666.042.779.042-1.821 1.413-3.778 2.965-4.495 3.661-.178.172-.396.371-.637.593C2.158 21.002-.858 23.764.233 26.47c.414 1.027 1.043 1.697 1.871 1.99a3.12 3.12 0 0 0 1.037.169c.986 0 2.174-.393 3.598-1.183 1.245-.691 2.895-2.064 4.232-3.482-.159.354-.321.738-.409 1.021-.212.679-.637 2.079-.807 2.291-.17.213-1.061 1.91-1.188 2.079-.128.17.105.413.254.17.807-1.315 1.443-1.654 1.57-2.121s.552-1.782.552-1.782.509-.552.679-.934c.142-.317.254-1.332.458-2.009.296-.378.555-.745.757-1.088.137.488.458 1.554.779 2.036.425.637 1.23 1.569 1.74 1.654.26.044 1.03.044 1.29 0 .51-.085 1.315-1.018 1.74-1.654.32-.482.642-1.548.778-2.036.202.343.462.71.757 1.088.204.677.317 1.691.459 2.009.17.382.679.934.679.934s.424 1.315.552 1.782c.127.467.764.806 1.569 2.121.148.243.382 0 .255-.17-.127-.169-1.019-1.866-1.188-2.079-.17-.212-.595-1.612-.807-2.291a10.447 10.447 0 0 0-.41-1.021c1.338 1.418 2.987 2.791 4.233 3.482 1.423.79 2.611 1.183 3.597 1.183.375 0 .72-.058 1.038-.169.827-.293 1.456-.963 1.87-1.99 1.091-2.704-1.925-5.466-3.726-7.116zm-1.401-.235c.182.178.404.381.651.607 1.4 1.282 4.233 3.382 4.369 5.36a47.842 47.842 0 0 0-1.228-1.33c-.382-.382-1.867-1.527-2.885-2.249-.884-.625-7.315-6.895-9.009-8.551a.683.683 0 0 1 .281-.128c.134.098 6.416 4.929 7.821 6.291zm-8.099.924c.068.239.139.464.211.673-.303.206-1.055.675-1.683.708a6.319 6.319 0 0 1-.469.006c-.17-.071-.398-.091-.398-.091s-.07.019-.203.039c-.132-.021-.203-.039-.203-.039s-.228.02-.398.091a6.286 6.286 0 0 1-.468-.006c-.629-.033-1.381-.502-1.684-.708.072-.209.144-.434.211-.673.565.12 2.107.113 2.542.108.435.005 1.977.012 2.542-.108zM12.873 9.022c.228-.131 1.084-.637 1.194-.858.099-.198.883-.93.736-1.537.474-.168.851-.153.892-.151.05.072.172.087.268.054.096.033.218.018.268-.054.044-.002.47-.019.992.179-.117.601.646 1.315.743 1.509.105.21.889.679 1.155.835.043.158.171.331.113.501-.344 1.004-6.058 1.373-6.468 0-.049-.165.068-.326.107-.478zM4.437 19.925c.247-.227.469-.43.651-.607 1.403-1.362 7.958-6.391 8.091-6.488a.698.698 0 0 1 .268.114c-1.604 1.566-8.174 7.975-9.066 8.607-1.019.722-2.504 1.867-2.886 2.249-.255.256-.81.867-1.152 1.247.16-1.967 2.702-3.849 4.094-5.122zM.504 26.218a2.474 2.474 0 0 1-.17-.786c.373-.436 1.168-1.345 1.457-1.505.382-.212 2.334-1.824 2.843-2.206s2.758-2.674 3.013-2.716.637.976.425 1.442c-.213.467-1.062 1.315-1.358 1.655-.297.339-2.631 2.164-3.055 2.546s-1.655 1.569-1.867 1.866c-.13.183-.372.539-.539.789-.319-.332-.599-.712-.749-1.085zm11.88-6.238c-.591 1.656-3.168 5.489-5.459 6.762-.485.27-.935.484-1.354.654.201-.262.253-.289.379-.415.17-.169 1.909-2.164 2.037-2.418.125-.252 1.688-1.694 1.936-2.223-.579.607-1.812 1.913-2.021 2.053-.255.17-1.824 1.952-2.164 2.376-.254.317-.927.721-1.301 1.075-.723.186-1.333.193-1.838.015-.305-.107-.793-.026-1.15-.359.1-.27.294-.694.598-.942.467-.382 1.654-1.824 1.994-1.994s2.419-2.037 2.885-2.376c.467-.34 1.23-1.146 1.358-1.528s.382-1.188.212-1.399c-.17-.213-.382-.255-.085-.764.297-.51 1.952-2.292 2.122-2.334.169-.043.169.212.254.637.085.424-.297 1.018-.467 1.442s-.976 1.909-1.23 2.206-1.061 1.485-1.527 1.952-1.824 1.697-2.079 2.036c-.254.34 0 .128.17.085s.212-.127.679-.552c.467-.424 1.104-1.188 1.442-1.527.34-.339 1.443-1.739 1.655-2.036s1.188-1.909 1.357-2.461c.17-.552.425-.977.34-1.315-.085-.34-.17-.722.085-.934.254-.212 1.442-1.612 1.909-1.994a3.66 3.66 0 0 0 .523-.542c.377.622.141 1.274.099 1.688-.02.199-.037.422-.045.617-.143 1.031-.776 3.011-1.314 4.515zm5.025 3.225c-.263.237-.817.164-1.203.074h-.411c-.386.09-.94.163-1.204-.074-.303-.272-1.42-1.781-1.555-1.98.07-.142.066-.09.07-.099 0 0 1.485 1.612 2.894 1.063 1.409.549 2.895-1.063 2.895-1.063.003.009-.001-.043.069.099-.134.199-1.252 1.708-1.555 1.98zm11.862 4.866c-.536.097-1.269-.03-2.008-.227-.356-.337-.81-.788-1.073-1.117-.339-.425-1.909-2.207-2.164-2.376-.209-.14-1.441-1.445-2.021-2.053.247.528 1.811 1.971 1.936 2.222.128.255 1.867 2.249 2.037 2.419.129.13.103.141.296.393a12.538 12.538 0 0 1-1.299-.634c-2.29-1.271-4.758-4.92-5.349-6.575-.538-1.506-1.181-3.627-1.323-4.659a10.937 10.937 0 0 0-.046-.617c-.041-.406-.269-1.046.084-1.659.129.155.288.325.466.471.467.382 1.655 1.782 1.909 1.995.255.212.17.594.085.933-.085.34.17.764.34 1.315s1.146 2.164 1.357 2.461 1.315 1.697 1.655 2.037c.339.339.976 1.104 1.442 1.527.467.425.509.509.679.552s.425.255.17-.085-1.612-1.57-2.079-2.037-1.273-1.654-1.527-1.951c-.255-.297-1.061-1.782-1.23-2.207-.17-.424-.552-1.018-.467-1.442s.085-.679.255-.637c.169.043 1.824 1.825 2.121 2.334.297.51.085.552-.085.764s.085 1.019.212 1.4c.128.382.892 1.188 1.358 1.527s2.546 2.207 2.885 2.376c.34.17 1.527 1.612 1.994 1.994.337.276.539.769.627 1.024-.344.314-.925.476-1.237.532zm1.451-.74a41.927 41.927 0 0 0-.585-.858c-.212-.297-1.442-1.485-1.867-1.867-.424-.382-2.758-2.206-3.055-2.546-.297-.339-1.146-1.188-1.357-1.654-.213-.467.169-1.485.424-1.442s2.503 2.333 3.013 2.715c.509.382 2.461 1.994 2.843 2.207.311.172 1.198 1.201 1.524 1.585a2.464 2.464 0 0 1-.165.748c-.156.382-.446.773-.775 1.112zM9.938 22.314c-.002.007-.012.019-.016.026.127-.134.225-.235.271-.281.254-.253-.043-.253-.255.255zm11.797-.296c.046.046.143.147.271.281-.003-.008-.013-.02-.016-.026-.212-.51-.51-.51-.255-.255z"/></svg>