<svg xmlns="http://www.w3.org/2000/svg" width="32" height="32" viewBox="0 0 32 32"><path d="M2.7 14.6c-.1 0-.1 0 0 0zM31 15l.2-.2s-1.1 0-1.5-.3c-.4-.3-1.3-1.8-1.6-2-.3-.2-1.5-1.8-2.5-2.1-1-.3-1.8-.8-3.3-.6-1.6.2-2.7.5-3.2.7-.4.2-3.2.6-3.9.6s-.8-.1-1.3-.1c-.6 0-1.1 0-1.5.2-.1.1-1.7-.1-2.2-.5-.6-.4-1.4-1-1.8-1.3-.4-.3-1-.6-1-.6s-.2-.8-.8-1c-.1-.1-.2-.1-.4-.2 0-.1.1-.1.1-.1.1-.2.6-.3 1-.4.4-.1.9.1 1.3.2.3.1.9.7 1.1.7.1.1.4.2.5.1 0-.1-.2-.7-.4-.8-.1-.1-.6-.6-.4-.5l.8.4c.2.1.2-.1.2-.1l-.5-.6s-.9-.7-2.2-.6c-1.3.1-2.1.6-2.4.9-.2.1-.3.3-.5.4-.1 0-.2-.1-.2-.1s-.4 0-.6.1c-.1.2-.6.4-.6.6l-.3.6c-.2.1-2 1.4-2.2 1.6-.3.4-.4.6-.4.8 0 .2-.1.2-.1.5s.2.5.2.5-.1.3 0 .4c.2.1.5.4.9.4s.6-.1 1 .1.7.3.5 1c-.2.6-.3.8-.3.9l.4-.4v.4l.4-.6.1.3s.2-.5.3-.7c.1-.2.4-.7.8-.9.4-.2 1.2 0 1.5.2.2.2 2.3 2.6 2.4 2.7.1.1 1.3 1.9 1.5 2.3s.6 1.6.9 1.9c.2.2.7.4 1.1.6.1.2.2.3.2.4.3.4.3 1.2.3 1.5s.5 1.6.5 1.8.2 1.2.1 1.6c-.1.4-.5.6-.6.9-.1.3-.2.4-.2.7s-.1.3.2.4c.2 0 .5.1.8.1-.1.2-.1.3-.1.4 0 .3-.1.3.2.4.3.1 1 .1 1.2 0 .3-.1.4-.5.4-.7s-.1-.5.1-.5c.1-.1.2 0 .3-.4.1-.4-.3-.8-.3-1.1s-.4-1.5-.3-1.8c.1-.3.1-1 .1-1.1 0-.1.2-1.2.3-1.7.1-.2.1-.4.1-.7.5-.1 1-.1 1.1-.1.4.1 1.1.2 1.1.2s2.4.3 3.4.1c.5-.1 1.2-.3 1.7-.4.2.5.4 1 .5 1.2.2.4.5 2 .5 2.6-.1.6-.4 1.8-.4 1.8s-.8.9-.7 1.3c.1.4.8.5 1.1.4.3-.1.6-.3.6-.3s-.1-.8.1-1c.2-.2.3 0 .4-.4.1-.4-.1-1.1 0-1.6.1-.4.1-1.6.2-2.4.1.1.1.2.1.2.2.4.5 2 .5 2.6-.1.8-.5 1.9-.5 1.9s-.8.9-.7 1.3c.1.4.8.5 1.1.4.3-.1.6-.3.6-.3s-.1-.8.1-1c.2-.2.3 0 .4-.4.1-.4-.1-1.1 0-1.6s.2-2.6.2-2.9c.1-.3-.1-.4-.3-.7s-.2-1.3.1-1.9c.2-.5 1.5-2.5 1.6-3.4.2-.6.5-1.4.5-1.4s.6.5 1.3.5 1.1-.3 1.1-.3l.3-.3c.2.4-.4.3-.4.3z"/></svg>