<svg xmlns="http://www.w3.org/2000/svg" width="32" height="32" viewBox="0 0 32 32"><path d="M24.053 16.16a.4.4 0 0 1 .107-.213c.373-1.173-.853-1.493-.853-1.493h-.053c.107-.107.213-.267.267-.48.373-1.173-.853-1.493-.853-1.493h-.16s0-.053-.053-.053c-.16-.267-.373-.373-.64-.427.213-1.013-.907-1.333-.907-1.333s-.16 0-.32.053c0-.213-.053-.373-.107-.533.16.053.32.053.533 0 .64-.213.96-.907.853-1.44s-.64-.907-1.067-.96c-.48-.053-.907.16-1.067.64-.267-.053-.587-.16-.693-.267-.213-.213-.587-.587-.693-1.067-.16-.48-.587-1.28-1.12-1.867s-1.173-.693-1.387-1.173c-.213-.48-.16-1.28-.213-1.813S15.36.748 14.454.854c-.427.053-.427.693-.213.907s.48.107.693.427.267 1.44.213 1.813c-.053.373-.107 1.867-.373 1.973s-.96.267-2.027 1.653c-1.067 1.387-1.173 2.827-1.333 3.307-.053.267-.213.96-.32 1.653-.16-.107-.267-.107-.267-.107s-.96.107-1.227.64c-.16.373-.16.8 0 1.12-.213.053-.48.16-.64.373-.053-.053-.107-.053-.107-.053s-.96.107-1.227.64-.107 1.28.427 1.493c.16.107.427.16.64.16 0 .16.053.267.107.373-.32 0-.693.16-.8.48-.32.693 0 1.387.587 1.547.373.107.8.267 1.12.107 0 .213.107.427.267.48l.64.427s-.16.693-.16 1.067c0 .373.16.8.32.907s.427.48 1.067.427c-.053.267-.053.533.053.693a1.268 1.268 0 0 0-.48.427c-.267.587-.107 1.28.427 1.493.373.16.96.32 1.387-.107.107.053.16.053.16.053l.533.107s-.373.8-.16 1.173.853.48.853.48-.693.96-.373 1.707c.32.747 1.12.96 1.547.8.053 0 .107-.053.16-.053-.107.533-.107 1.28.48 1.547.64.267 1.547.32 1.867-.853.107-.48.053-.8-.107-1.013.48-.053 1.067-.373 1.12-1.013v-.267c.48.16 1.12.107 1.387-.747s-.32-1.28-.64-1.44c.16-.32.213-.64.107-.96.32-.053.587-.32.747-.8.053-.16.053-.267.053-.373.427.053.907-.053 1.173-.8.213-.693-.16-1.12-.48-1.333v-.053c.16-.533.053-.853-.16-1.12.107-.107.213-.213.213-.373v-.107c.053.053.107.107.213.107.48.213 1.333.427 1.707-.64.107-.373.107-.64 0-.853.48.107 1.067.053 1.333-.8.32-1.013-.907-1.387-.907-1.387zM16.8 11.947l-.267-.427s.427.213.64.427H16.8zm2.347-3.414c.107 0 .373.107.587.213v.533a1.698 1.698 0 0 0-.747-.16c-.053-.267-.053-.64.16-.587zM15.68 4.96c.053-.373.587-.213 1.013.16s.96 1.013 1.28 1.653c.32.64.587 1.92.747 2.347-.213.053-.427.16-.587.32-.373.32-.48.907-.427 1.28 0 .32.267.587.48.8-.107 0-.16.053-.267.107s-.16.107-.267.16c-.213-.107-.427-.267-.64-.373-.267-.107-.693-.427-.907-.587s-.267-1.493-.267-1.76c0-.267.053-1.547 0-2.027-.053-.373-.213-1.653-.16-2.08zm-4.213 7.787c.107-.213.16-.693.32-1.227.053.32.213.64.427.747l.533.267c-.16.16-.213.373-.213.693 0 .64.213.693.213.693l-.373.213s0-.373-.533-.533c0-.373-.213-.64-.373-.853 0 .053 0 0 0 0zm1.973-2.72c-.267-.053-.533-.107-.747 0-.32.107-.533.213-.693.373.16-.64.267-1.173.427-1.333.32-.373.587-.533.693-.907.16-.373.747-1.387 1.12-1.493.32-.107.587-.213.587-.213s-.107 1.173-.213 1.6c-.16.427-.747 1.013-1.067 1.76-.053.107-.053.16-.107.213zm1.707 1.813c-.053 0-.053-.053-.107-.053-.16-.053-.373 0-.533.053 0-.533-.213-1.173-.48-1.493-.053-.053-.16-.16-.267-.213.053-.213.16-.373.213-.48.213-.267.8-.96.907-1.387s.373-1.013.373-1.013.213.693.16 1.28.16 1.547 0 2.027c-.107.373-.16.96-.267 1.28zm.64.747s-.16-.32-.373-.587c.053-.213.16-.373.267-.373.213-.053.587.053.587.053l.213.32c-.107.053-.213.107-.32.213s-.213.32-.267.533c-.053 0-.107-.053-.107-.16z"/></svg>