<svg xmlns="http://www.w3.org/2000/svg" width="32" height="32" viewBox="0 0 32 32"><path d="M31.979 16.488c-.219-2.523-.877-5.706-3.401-7.242-2.523-1.536-3.62-2.084-7.899-.658 0 0-2.085.256-2.963.256s-4.169-.476-5.156-.476c-.988 0-3.511.622-5.157 1.5s-3.218 2.122-3.657 2.341c-.438.22-2.304-.219-2.743.768-.271.61 1.133 1.755 1.133 1.755S-.387 17.914.052 20.658c.439 2.742 2.523 2.633 3.072 2.961.548.33 5.287.469 5.596.439 1.17-.109 2.523-.658 3.621-.658h2.743c.329 0 .303.557-.402.768-.731.221-1.682.768-1.353 1.098s1.024-.146 1.024-.146-.646.771-.073.914c.292.074 1.134-.549 1.134-.549s-.402.805.256.586 1.39-1.023 1.39-1.023 1.427-.988 2.414-1.646 2.743-1.316 3.511-1.207c.769.109 3.401-.768 3.95-1.098.549-.328 1.646-.658 1.646-.658s-.766 1.293-.401 1.244c.548-.072.95-.256.95-.256s-.072.621.366.621.841-.621.841-.621l.22-1.756c-.003-.001 1.642-.659 1.422-3.183zM5.282 17.877c-.731-.291-.292-1.426-.292-1.426.914-.804 1.609.439 1.609.988s-.586.731-1.317.438z"/></svg>