<svg xmlns="http://www.w3.org/2000/svg" width="32" height="32" viewBox="0 0 32 32"><path d="M12.072 4.89c2.845-.265 5.012-.39 7.357 0 .659.567 1.507.039 2.265.395.335.157.733.462 1.174.452.727-.016 1.318.508 2.04.498.488.9 1.727.687 2.267 1.542.21.333.884.251.951.641.088.504.47.632.752.886.57.512 1.034 1.102 1.502 1.707.205.264.466.495.463.816-.005.444.216.674.536.909.469.344.357.943.329 1.363-.024.372.063.513.294.688v2.943c-.114.051-.406-.114-.32.158.095.301-.137.527-.125.695.048.617-.43 1.035-.476 1.633-.032.427-.03 1.135-.782 1.3-.596.131-1.037.485-1.37 1.061-.242.42-.45.971-.935 1.177-.762.326-1.561.18-2.338-.023-.186-.048-.198-.211-.156-.382.06-.245.178-.454.354-.634.087-.088.257-.164.129-.319-.126-.152-.24-.063-.398.018-.491.254-1.193-.24-1.584.43-.007.012-.091-.003-.123-.027-.186-.134-1.046.165-1.356.21-.026.265-.117.056-.487.064-.378.008-.642.317-.741.123-.087-.171-.203-.346-.401-.273-.73.27-1.055-.186-1.07.09-.011.192-.059.51-.245.501-.569-.026-.654.462-.755.761-.324.966-1.145 1.567-1.63 2.407-.143.249-.381.45-.697.473-.659.046-1.309.145-1.969-.102-.504-.189-.495-.447-.236-.792.22-.293.499-.534 1.05-.691-.453-.043-.701-.031-.93-.095-.466-.131-.752-.637-.49-.869.252-.224.32-.479.333-.76.026-.574-.498-.159-.69-.358a.253.253 0 0 0-.113-.07c-.736-.176-1.454-.233-2.215-.021-.243.069-.707.043-.961-.208-.882-.872-1.924-.858-3.022-.611-.131.029-.282.066-.325.2-.065.203-.723.134-1.059.295-.939.452-2.009.549-2.917 1.116-.629.393-1.531.277-1.849-.178-.389-.559-.162-1.099.187-1.599.026-.037.048-.075.071-.113.817-1.306.721-2.637.152-4.006-.177-.426-.666-.887-.056-1.373.031-.023-.008-.171-.048-.243-.342-.619-.918-1.095-1.118-1.811-.053-.19-.408-.283-.248-.549.152-.253.86-1.274.791-1.921 0-.001.108-.029.16-.019.572.104.743-.324.948-.709.08-.151.004-.395.209-.464.97-.331 1.075-1.55 2.098-1.945.452-.175 1.275-.482 1.361-1.3.008-.075.217-.128.33-.196.569-.34 1.22-.545 1.761-.897.451-.293.635-.876 1.357-.938.644-.053 2.814-.678 3.015-1.057z"/></svg>