<svg xmlns="http://www.w3.org/2000/svg" width="32" height="32" viewBox="0 0 32 32"><path d="M31.556 20.246l.471-.038s.124-5.032-.031-6.834-.901-3.107-1.056-3.355-.497-.28-.497-.28c-.28-.373-1.305-.932-1.305-.932s-1.74-.839-3.013-.963c-.466-.045-3.137.264-3.557.45s-2.19.575-3.495.652c-.233.014-2.314-.28-2.454-.326s-1.491-.885-2.004-1.072c-.512-.186-1.771-.373-1.771-.373S8.505 4.734 7.952 4.488c-.839-.373-2.236-.715-2.47-.761s-1.025-.326-1.025-.326L3.075 2.314l-.015.388-.42.078s.373.528.404.994c0 0-.916.932-1.056 1.258s-.497 1.103-.497 1.103S.73 7.455.497 7.781s-.606 1.631-.466 2.19c.14.559.326.559.559.652s.357.264.683.264c.326 0 .559-.342.652-.528s.249-.528.482-.621 1.662-.932 1.848-1.025c.186-.093.699-.575 1.025-.528s.621.217.963.59c.31.338.917 1.336 1.149 1.569s1.491 1.771 1.491 1.771.047 1.491.187 1.771c.14.28.559 1.491.559 1.491s.233.932.512 1.165c.28.233.606.466.606.466s.419 1.631.559 1.91c.14.279.885 2.423.932 2.796s0 1.118.233 1.398c.233.279.326.978.326.978s.135 1.314.093 2.081c-.047.854-.559 1.273-.559 1.273s-1.025.652-.932.885c.093.233.885.42 1.258.42s1.041-.311 1.041-.311.311-.575.264-.808c-.047-.233-.006-.455.093-.932.233-1.118-.093-2.003-.047-2.376s-.186-1.724-.186-1.724l-.046-1.584s.885 1.771.979 2.376.155 2.159.062 2.718c-.058.35-.808 1.289-.854 1.522s1.258.419 1.631.186c.373-.233.419-.792.419-.792s-.295-.746-.109-.792.311-.901.217-1.274c-.093-.373-.435-2.578-.435-2.578s-.326-2.439-.326-2.811c0-.373.015-1.848.015-1.848s3.316.152 4.209.078c2.439-.202 3.914-1.631 3.914-1.631s.373-.28.559-.187c.186.093.326.357.606.404s.652.062.652.062.528 2.703.901 3.386c.141.259.575 1.849.528 2.175s-.31 4.178-.544 4.458c-.233.279-.978.978-.978.978s-.404.59-.279.715c.124.124.621.357.994.31s.901-.342.901-.342.031-.978.311-.932c.279.047.544-.404.497-.544s.279-2.563.419-2.889c.14-.326.699-2.33.699-2.33s.885 1.491.932 1.817c.047.326.746 3.355.512 4.1s-.699 1.631-.792 1.817c-.093.186-.372.512.14.652s1.538.047 1.724-.233 0-.777.093-1.242.047-.715.186-.994c.14-.28 0-1.258.047-1.631s-.186-2.05-.186-2.05.047-2.128.047-2.687c0-.164.036-.433.088-.739z"/></svg>