<svg xmlns="http://www.w3.org/2000/svg" viewBox="0 0 60 60"><path d="M59.17 12.24c-.14-.62-.73-1.02-.72-1.62.01-.47.45-.78.53-1.07.03-.12.22-2.2.19-2.26.01.01-.99-.82-.94-.78-.34-.27.31-.2-.66-.41-.33-.07-.71-.07-1.05-.07a9.38 9.38 0 0 0-4.47 1.06c-1.2-3.26-6.08-3.54-8.54-1.67-.48-1.34-1.91-2.18-3.18-2.63-.59-.21-1.77-.63-2.29-.22-.08.07-.27.81-.09.88-.34-.14-1.55.07-1.71.48-.2.51.36.28.43.59.05.21-.3.79-.41.94-.65.93-2.87.83-1.77 2.1-.26.11-.98.51-.35.71-.58.51.28.58.6.71-.07.26-1.9 1.78-.76 1.65-.19.43-1.08.35-1.55.49-.71.22-1.34.55-2 .87-.82.4-1.66.75-2.49 1.11-1.97.85-4.08 1.61-5.85 2.86-4.61 3.27-9.73 7.28-11.41 12.9a18.63 18.63 0 0 0-.78 4.44c-.09 1.72.07 3.51-.34 5.19-.11.51-.27 1.05-.62 1.45-.26.3-.73.44-.93.78-.77 1.25.46-.52-.12.79-.31.71-1.15 1.61-1.75 2.06-.32.25-.7.39-1 .68-.36.35-.37.7-.61 1.07-.42.63-1.11 1.08-1.54 1.72-.36.54-.68 1.07-1.05 1.6-.44.62-.78 1.1-.74 1.71.03.49.26.65.38 1.06.15.55.02 1.21.16 1.78.17.68.5 1.27.96 1.8.45.51 1.05 1.25 1.58 1.66.76.6 1.58.43 2.42.58.82.14 1.59.5 2.43.57.47.04.97-.02 1.44-.05 1.01-.06 2.01.21 2.98.09 1.09-.13 2.13-.36 3.25-.43 1.14-.08 2.29-.04 3.43-.16.67-.07 1.33-.11 2.01-.15.91-.05 1.68.26 2.61.06.96-.21 1.67-.59 2.68-.69.75-.07 1.36-.04 2.06.02.8.07 1.56-.17 2.32-.22.78-.05 1.58.27 2.32.57.74.3 2.9 1.56 3.61.77s-.7-2.73-1.13-3.27c-1.23-1.56-3.12-2.5-4.94-3.16-1.31-.48-2.79-.39-4.16-.37-1.9.03-3.7.05-5.61.27-.64.07-1.18-.02-1.78-.01-.7.01-1.16.4-1.78.57-.72.2-1.62.11-2.3.06-.84-.06-1.5.08-2.32.19-.77.1-3.7-.14-2.89-1.73.23-.45 1.63-.69 2.07-1.09.27-.25.43-.59.77-.78.46-.26 1-.31 1.46-.63.47-.33.47-.38 1-.5.39-.09.81-.06 1.21-.15.26-.06.84-.37 1.11-.34.29.03.79.52 1.04.66.73.39 1.35.59 2.17.56 5-.22 9.99-.79 14.99-1.01 1.04-.05 2.08.03 3.11.13.5.05 2.44.35 2.65-.39.18-.65-.97-1.4-1.39-1.72-2.78-2.16-6.27-.98-9.33-2.16 1.02-1.31 2.05-2.62 3.07-3.94 1.14 1.17 2.35 2.39 3.83 3.1 1.81.87 3.53 1.91 5.2 3.04.97.65 1.96 1.18 3.15 1.26.88.06 1.52-.37 2.34-.46.64-.07 1.13.3 1.67.49.17.06.34.24.52.31.13.05.34-.16.46-.11.67.25 1.59 1.45 1.87-.08.13-.71-.3-1.89-.56-2.53-.43-1.08-.89-1.15-1.95-1.1-1.18.06-2.66 0-3.7-.64-1.32-.81-1.03-2.35-1.38-3.66-.28-1.05-.85-2.03-1.19-3.08-.1-.31-.71-1.66-.55-1.94.13-.23 1.37-.54 1.64-.7 1.07-.64 1.56-1.41 1.8-2.61.34-1.7.39-3.82 1.12-5.43.28-.62.39-.49 1.04-.9 1.19-.74 1.79-1.93 2.32-3.18.41.2-.23.65.65.5.31-.05 1-.41 1.28-.56.56-.31 1.45-1.09 1.51-1.72.27.59.54-.48.57-.51.18-.16.8-.33 1.07-.43.45-.16.4.34.54-.38.11-.55-.2-1.33-.27-1.88-.03-.22-.1-.52-.06-.73 0-.01.33-.06.36-.24.04-.23-.14-.69-.04-.88.04-.08.25-.06.3-.13.38-.47.92-.71.77-1.38zM31.08 55.77c-.37.05-.74.07-1.11.07-.01-.16-.02-.32-.04-.48-.17-.44 0-1.24.05-1.7.05-.43.07-1.02.29-1.4.39-.69.35-.8 1.25-.41-.65 1.17-.66 2.63-.44 3.92zm-6.39.54c-.29-1.02-.47-2.08-.53-3.14-.06-1.11-.24-1.71.99-1.66-.2 1.5.01 3.17.45 4.61-.29.1-.59.16-.91.19zM9.54 50.99c-.18-.06.01 0 0 0zm-2.66-7.14c1.44.43 2.78 1.15 3.87 2.2.42.41.8.86 1.13 1.34.63.91.86 1.15-.21 1.71-1.1-2.42-3.24-3.78-5.82-4.22.26-.42.61-.78 1.03-1.03zm7.73-.07c.31.92-.27 2.3.51 3.05-.21.11-.43.19-.65.24.29-2.95-2.51-5.27-5.16-5.85.72-.8 2.19.04 2.88.55.73.55 2.11 1.08 2.42 2.01zM2.33 50.12c.25-1.75 1.77-1.35 3.11-1.14 1.49.23 2.95.65 4.38 1.11-1.14 1-2.21.3-3.54.05-1.28-.24-2.68-.42-3.95-.02zm4.89 3.7c-.77.63-1.3 1.47-1.64 2.4-.85-.4-.8-.51-.33-1.4.41-.76.93-1.4 1.58-1.96 1.06-.91 2.82-2.59 3.98-1.1-1.28.52-2.52 1.18-3.59 2.06zm6.79-1.42c.49-.02.98-.05 1.47-.1-.65.74-1.1 1.54-1.32 2.5-.11.48-.13.99-.16 1.48-.05.81.03.91-.84.92-.04-.93-.01-1.9.16-2.83.06-.32.31-1.84.69-1.97zm5.7 4.31c-.81.1-.65.14-.9-.45-.2-.48-.11-1.31-.11-1.83-.01-.52.01-1.03.07-1.55.1-.83.3-.89 1.12-1.09-.64 1.52-.41 3.34-.18 4.92zM34.94 8.02c-.08-.08-.02-.08 0 0zm4.54 2.38c-.64.92-1.27 3.2-2.51 3.09-.93-.08-1.73-.63-1.96-1.48-.32-1.16.04-1.64.41-2.61.33-.85-.24-1.79.35-2.49.32-.39.98-.46 1.26-.91.34-.55.08-1.39.58-1.87.94-.91 2.17-.75 3.27-.33.63.25 1.31.58 1.76 1.11.58.7.4 1-.13 1.68-1.02 1.27-2.11 2.48-3.03 3.81zm4.76.92c-.6.56-2.2.92-2.13-.44.09-1.65 2.68-.07 2.13.44zm3.11 1.54c-.81.23-1.98-1.64-.49-1.9.44-.08 1.09.16 1.37.5.66.8-.12 1.19-.88 1.4zm9.46-5.62c1.59.37.64 2.06.65 3.03 0 .49.37.9.45 1.37.12.67-.22 1.13-.47 1.73-.46 1.13.1 2.36-.89 3.13-.4.31-.86.42-1.07.86-.22.45-.04 1-.35 1.46-.22.32-.78.71-1.13.84-.21.08-.64.23-.87.09-.44-.26-.09-.32-.1-.79-.03-1.69-.13-3.34-.28-5.04-.15-1.71-.15-3.44-.32-5.15-.05-.48-.21-.71.11-.99.25-.22.9-.25 1.24-.31 1-.2 2.02-.28 3.03-.23z"/></svg>