<svg xmlns="http://www.w3.org/2000/svg" width="32" height="32" viewBox="0 0 32 32"><path d="M31.3 19.2c-.8-.3-2.5-.3-3.5-.2-.8.1-2.6.4-3.4.4-.9 0-2.1-.1-2.9-.7-.4-.3-.9-.8-1.2-1.2 0-.4-.1-.7-.1-.8 0-.4-.9-3.1-1.7-4s-2.3-1.8-3-2c-.8-.2-3.3-.4-3.8-.2s-1.6.8-1.9 1.2c-.3.4-1 .7-1 .7s.3-.8-.4-1.7c-.7-.8-1.2-1-1.8-.6-.5.4-1.1 1.9-1.1 1.9H4.3s-.4-.4-.8-.9c-.3-.5-.5-1.5-.7-1.4s-.6 1.5-.5 1.8c.2.3.8 1.5.8 1.5s-.5.9-.6 1.1c-.1.2-.2.6-.3.8h-.1c-.5 0-.8.4-.8.8 0 .2.1.5.3.6-.3.4-1.6 1.9-1.6 1.9s-.2.6.1.6c.3 0 1.1.2 1.1.2h4.2c.3.1 1.4.7 1.6.9s1 1.4 1 1.4-.6.7-.9.9c-.3.2-.5.3-.8.2s-.7.1-.8.3c-.1.2-.5.5-.2.5s1-.2 1-.2 0 .3.3.3 1.2-.2 1.2-.2.3 0 .9-.3c.6-.3 1.4-.6 1.4-.6s.7 0 1.2-.3.9-.1.9-.1.7.1 1.1-.2c.5-.3.9-.9 1-1 .1 0 .9 0 1.3.2s1.1.4 1.1.4 0 .6-.3.7c-.3.1-.5 0-.8.1s-.8.2-.9.5c-.1.3-.1.6 0 .5.1 0 .4-.3.4-.3s-.2.5.1.4c.2-.1.5-.3.5-.3h.5s-.2.3.1.3.6-.2.6-.2.8-.2 1-.5c.2-.3.2-.6.2-.6s-.5-.5-.2-.5c.3-.1 1-.1 1.5-.3.5-.3 1-.8 1-1.1.5.2 1 .5 1.4.6.8.2 2.7 0 3.4-.2.8-.2 2.4-.5 2.7-.5s2.5-.2 3.2.1.7 0 .7 0 .3-.4-.5-.7zM4.6 17.4c-.6 0-1.1-.5-1.1-1.1s.5-1.1 1.1-1.1 1.1.5 1.1 1.1c0 .6-.5 1.1-1.1 1.1z"/></svg>