<svg xmlns="http://www.w3.org/2000/svg" width="32" height="32" viewBox="0 0 32 32"><path d="M27.112 24.384c-.154-.058-.735-.463-1.038-.68l-2.111-2.545-1.959-2.621c-.602-1.528-1.496-3.831-1.573-4.124.01-.074-.028-.208-.387-.477l-1.921-1.326 1.626.407c.255.063 1.619.181 2.018.148.414-.029 2.941-.92 3.227-1.021.104-.036 1.021-.359 1.233-.816a.459.459 0 0 0 .017-.366c-.212-.545-1.24-.584-1.855-.608a21.166 21.166 0 0 1-.241-.01c-.446 0-4.218.736-6.596 1.209.041-.147.073-.278.092-.36a2.16 2.16 0 0 0 .029-.413c.632-.561 1.801-1.194 1.939-1.315.183-.158.302-.325.315-.343.68-1.141 1.81-3.003 1.946-3.141.159-.138.246-.371.281-.479.588-.415 1.519-1.062 1.645-1.12.198-.09.357-.36.417-.472l2.125-1.364.042-.039c.08-.113.104-.21.071-.289l-.058-.095-.082-.013a.295.295 0 0 0-.134.014c-.19.06-1.768 1.06-2.232 1.356l-.346.172-1.764 1.402-.31.113-.028.05c-.671 1.233-1.769 3.211-1.981 3.507-.118.038-.182.184-.224.278-.009.023-.013.033-.009.033-.08.075-.785.67-1.633 1.098l-.007-.113-.276-.782-.11-.22c.077-.152.229-.507.15-.82a.52.52 0 0 0-.146-.246.213.213 0 0 0 .1-.2.217.217 0 0 0 .204-.215.21.21 0 0 0-.057-.145.215.215 0 0 0 .098-.336h.033a.216.216 0 0 0 .209-.268l.052.007a.215.215 0 0 0 .209-.162.218.218 0 0 0-.071-.22l.21.034a.218.218 0 0 0 .213-.18.22.22 0 0 0-.04-.164l.176.026a.218.218 0 0 0 .212-.181.236.236 0 0 0 0-.065l.097.043h.039c.078 0 .15-.043.188-.111a.214.214 0 0 0-.085-.293l-.023-.013c.012-.008.023-.017.035-.024l.127.051.077.014a.21.21 0 0 0 .199-.134.217.217 0 0 0-.001-.166l-.003-.005a.217.217 0 0 0 .123-.274.225.225 0 0 0-.205-.139l-.073.013a.815.815 0 0 0-.089.04.22.22 0 0 0-.05-.121.222.222 0 0 0-.165-.077.217.217 0 0 0-.215.196l-.017.184a.233.233 0 0 0-.19-.09h-.001a.207.207 0 0 0-.146.075.21.21 0 0 0-.051.157l.002.029a.272.272 0 0 0-.106-.029.216.216 0 0 0-.213.186l-.039.289a.216.216 0 0 0-.341.175v.13c-.128-.071-.318.034-.318.189v.206a.214.214 0 0 0-.161-.073l-.061.006-.03.014a.217.217 0 0 0-.105.284l.008.016-.059.012a.224.224 0 0 0-.057.031l.018-.025a.215.215 0 0 0-.055-.299c-.037-.025-.069-.028-.127-.038l-.02-3.302c-.04-.579-.067-.766-.141-.824l-.01-.027h-.112a.176.176 0 0 0-.083.015l-.022.016c-.069.064-.096.259-.135.828l-.02 3.292c-.058-.01-.09.012-.125.037a.214.214 0 0 0-.058.298l.011.021a.206.206 0 0 0-.049-.025l-.058-.012.006-.014a.216.216 0 0 0-.107-.286l-.056-.019h-.032a.218.218 0 0 0-.162.073v-.206c0-.156-.191-.257-.319-.188v-.13c0-.165-.215-.264-.34-.175l-.039-.289c-.014-.104-.104-.184-.236-.184h-.004a.217.217 0 0 0-.079.026l.002-.027c.01-.118-.079-.222-.215-.233a.216.216 0 0 0-.174.09l-.017-.185c-.011-.111-.102-.194-.23-.194h-.002a.21.21 0 0 0-.147.076.22.22 0 0 0-.05.122 1.183 1.183 0 0 0-.088-.041l-.074-.013a.214.214 0 0 0-.201.14.206.206 0 0 0 .006.165c.023.051.065.09.116.11l-.002.005a.222.222 0 0 0-.002.166.218.218 0 0 0 .2.135l.205-.065.036.024-.026.014a.215.215 0 1 0 .105.404l.069-.008.065-.036a.222.222 0 0 0 0 .063c.016.104.098.18.246.181l.142-.022-.002.003a.218.218 0 0 0-.037.161c.018.104.126.185.248.177l.173-.029a.22.22 0 0 0-.069.223.216.216 0 0 0 .208.157l.052-.006a.215.215 0 0 0 .209.267h.034a.218.218 0 0 0-.045.154c.009.083.062.15.145.178a.215.215 0 0 0 .145.363.207.207 0 0 0 .102.197.533.533 0 0 0-.148.247c-.079.314.074.67.15.822l-.117.236-.261.725-.009.041-.006.113c-1.157-.553-1.561-1.041-1.611-1.083l-.026-.056c-.041-.095-.105-.241-.223-.28-.212-.296-1.3-2.279-1.967-3.515l-.027-.05-.31-.114-1.788-1.429-.303-.147C8.552 3.157 6.977 2.15 6.788 2.09a.293.293 0 0 0-.133-.015l-.108.03-.032.077c-.034.079-.01.177.07.289l2.161 1.412c.059.112.217.383.415.475.126.058 1.055.708 1.641 1.126.034.108.12.342.276.479.137.14 1.26 2.007 1.943 3.161.005.007.125.175.306.334.138.121 1.305.764 1.936 1.325 0 .192.01.328.029.413.019.082.051.212.091.359-2.377-.473-6.146-1.209-6.62-1.209-.06.004-.133.007-.216.01-.615.023-1.644.062-1.856.608a.455.455 0 0 0 .017.366c.213.457 1.13.78 1.232.815.287.102 2.813.993 3.228 1.022.404.028 1.764-.085 2.018-.148l1.625-.407-1.926 1.329c-.354.266-.391.399-.382.473-.078.293-.971 2.596-1.574 4.124l-1.954 2.615-2.089 2.525c-.33.242-.91.647-1.065.705-.07.026-.283.106-.252.276.008.043.074.196.395.127.298-.067 1.073-.549 1.262-.736.177-.177 2.102-2.491 2.185-2.592.321-.403 1.923-2.421 2.011-2.567.089-.147.238-.444.244-.459.534-1.429 1.352-3.599 1.414-3.725.058-.116.218-.252.277-.296l1.979-1.555a.199.199 0 0 0-.003.076.17.17 0 0 0 .095.132l.054.02h.038l-1.667 2.464c-.017.017-.166.176-.13.499.029.262.808 4.967.843 5.174 0 .001.013.083-.049.229-.027.062-.15.397-.312.836-.311.844-.888 2.415-.972 2.549-.04.05-.148.235-.449.753-.436.751-1.247 2.148-1.448 2.331-.242.221-1.086 1.427-1.88 2.578l-.198.286c-.031.044-.115.161-.058.272l.068.094h.092c.116 0 .261-.104.358-.201.1-.1.556-.725 1.241-1.667.37-.509.752-1.035.804-1.092.148-.16 1.812-2.822 1.925-3.049.11-.221 1.081-2.913 1.285-3.479a.26.26 0 0 0 .073-.055c.087-.094.122-.252.107-.484-.028-.407-.749-4.299-.881-5.013.103-.066.244-.188.269-.365.03-.097.389-.723 1.284-2.161a4.17 4.17 0 0 1-.073.19c-.115.289-.194.505-.172.655a1.61 1.61 0 0 1-.029.447c-.015.091-.089.556-.058.745.019.111-.009.423-.029.588-.043.26-.081.598-.02.717.011.045-.004.223-.016.353-.029.336-.042.55.021.675.072.144.203.426.246.517.002.116.022.424.148.582.062.078.121.311.15.479.219.595.38.595.441.595h.066c.066 0 .222 0 .449-.624.021-.14.08-.372.143-.45.125-.158.145-.466.147-.582.042-.091.174-.373.246-.518.062-.125.049-.338.021-.675a3.36 3.36 0 0 1-.021-.339c.066-.132.029-.47-.014-.724-.021-.171-.049-.483-.03-.594.032-.189-.042-.654-.058-.75a1.561 1.561 0 0 1-.028-.441c.021-.151-.058-.367-.173-.656-.024-.063-.057-.143-.074-.193.896 1.438 1.255 2.064 1.283 2.153.026.184.169.308.271.375-.133.712-.854 4.605-.881 5.013-.016.232.019.391.106.484.021.021.044.04.072.054.202.562 1.175 3.26 1.286 3.481.114.229 1.779 2.891 1.925 3.048.051.056.431.578.798 1.083.688.947 1.146 1.575 1.246 1.676.098.097.243.201.358.201l.118-.013.042-.081c.057-.111-.027-.229-.059-.272a74.212 74.212 0 0 0-.188-.271c-.798-1.157-1.646-2.371-1.891-2.593-.201-.184-1.017-1.588-1.454-2.343-.295-.509-.401-.691-.438-.735-.089-.141-.667-1.713-.978-2.558-.161-.438-.283-.771-.311-.834-.062-.145-.049-.227-.047-.234.033-.2.812-4.905.841-5.167.035-.318-.108-.478-.112-.478l-1.685-2.486h.002a.212.212 0 0 0 .09-.02l.084-.055.011-.078a.186.186 0 0 0-.003-.077l1.983 1.557c.057.043.216.179.274.295.062.125.879 2.296 1.42 3.739 0 0 .148.297.237.444s1.69 2.164 2.013 2.569c.082.099 2.006 2.413 2.183 2.59.188.188.964.669 1.263.736a.793.793 0 0 0 .173.022c.181 0 .216-.115.222-.15.034-.165-.18-.245-.25-.271zM16.875 6.698a.216.216 0 0 0-.045.221l.061.166a.215.215 0 0 0-.15-.011v-.059c.038-.248.097-.305.092-.305l.042-.012z"/></svg>