<svg xmlns="http://www.w3.org/2000/svg" width="32" height="32" viewBox="0 0 32 32"><path d="M29.021 28.265s-.078-.629-.393-.747-1.022-.275-1.022-.275.157-.629.118-1.415-.275-2.084-.236-2.28c.04-.197-.274-1.651-.668-2.556s-1.77-2.241-1.77-2.241-.943-3.066-1.809-4.443c-.864-1.376-2.634-2.398-3.499-2.673s-3.381-.511-4.403-.511-4.01.983-4.521 1.455c-.511.472-2.477-1.691-2.713-1.887-.235-.198-2.854-3.268-3.694-4.444-.59-.826-1.851-2.475-1.691-4.718.118-1.651-.157-1.69-.314-1.376s-.237 2.197-.237 2.83c0 1.416 1.337 3.853 1.769 4.521s1.887 2.438 2.87 3.656c.377.467 2.516 2.556 2.398 2.949s-1.573 1.966-1.966 2.359-1.219.943-1.612 1.101-1.101.55-1.297 1.298c-.197.747-.629 1.494-.59 1.611s-.236.944-.433 1.18c-.196.236-.943 1.258-.668 1.455.277.197.552-.314.709-.314 0 0 .157.433.236.707s.079.59.393.473c.314-.118.354-.904.354-.904s.432.706.708.824c.275.118.393-.394.393-.394s-.649-1.316 2.673-.55c.364.084 2.005.433 2.163.472s.983 1.927 1.179 2.005c.197.079.826.629.865.904s-.079.943-.04 1.219c.04.275.04.865-.039 1.455s-.079 1.101.433 1.415c0 0 1.415.708 2.201.551.787-.157 1.219-.669 1.73-.708s2.28-.118 3.027-.314 1.611-.433 2.162-.786c.55-.354 1.494-.314 1.926-.433.433-.118.826-.314 1.416-.786s1.219-1.141 1.219-1.141.118 1.219-.079 1.533c-.196.314.04.236.314.197s.433.078.433.354.118.629.394.394c.275-.236.196-.59.196-.59s.826.117.904.314c.079.196.354.354.394.196s.275.079.354-.275c.079-.353-.237-.667-.237-.667zm-14.836-3.346c0 .366-.813.812-.813.812-.528 0-.163-.894.082-1.26.244-.365.528-.69.854-.65.324.041-.123.732-.123 1.098zm.565-3.023s-.668-.59-.983-1.062c-.314-.471-.079-1.14.197-1.808.275-.669-.275-1.259-.236-2.319.039-1.062.865-1.219.982-.59.118.629 1.69 2.438 1.849 2.674.156.235.375 1.23.235 1.258-1.218.234-1.926 1.886-2.044 1.847zm3.878 5.232c-.162.404-1.174.688-1.578.485s-1.174-.323-1.052-1.012c0 0 .931-1.294 1.781-1.092s1.01 1.215.849 1.619zm7.131-2.991c-.551.746-1.298 1.297-2.162 1.219-.865-.079-1.533-.354-1.651-.63-.118-.274.039-.235.472-.629.433-.393.472-.786.433-1.021-.039-.236-.865.354-.865.354s-.472.314-.786.275c-.314-.04-.865-.865-.196-2.084.084-.154.393-.747 1.219-.865.825-.117 1.809-.472 2.162-.59.354-.117 1.14-.354 1.298-.393.156-.039.511 1.533.511 2.201-.003.669.116 1.416-.435 2.163z"/></svg>