<svg xmlns="http://www.w3.org/2000/svg" width="32" height="32" viewBox="0 0 32 32"><path d="M31.883 17.078c.064-.319.16-.701.096-1.114-.062-.414-.191-1.75-.254-1.909s-.223-.7-.096-1.082c.127-.381.414-1.113.031-1.368-.381-.254-.986.095-.986.095s-1.654-1.463-1.908-1.717-2.131-1.146-2.131-1.146-2.99-1.686-4.738-1.908c-1.75-.223-5.313-.827-6.044-.7s-.731-.063-.731-.063l-.7.223-.19-.159-.509.127h-.382l-.574.383h-.414l-.827.382-.826.063-.445.254-.51.223s-.35.096-.381.191c-.032.096-.573.318-.573.318l-.477.414s-.986.477-1.082.699c-.095.223-1.812 1.877-1.939 2.068-.128.191-1.019.604-1.113 1.049 0 0-1.846-.063-2.291-.318s-.636-.159-.954-.382c-.318-.222-.604-.636-.795-.572s-.159.668-.063.954c.095.287.986.954 1.495 1.336s1.24.954 1.399 1.368.541 1.114.541 1.114l-.191 2.068c-.031.35-.127 1.049-.254 1.367-.128.318-.51.445-.604.795-.096.35.223 1.113.413 1.336s.445.287.445.287.286.254.604.412c.318.16.954 0 1.113 0s.668.191.668.191.668.223 1.209.096c.54-.127 1.018-.35 1.018-.35s-.063 1.939-.541 2.545c-.477.604-.764 1.018-1.018 1.176-.255.158-.668.445-.668.445s.286.254.509.223-.063.223.19.287c.255.062.669.094.986-.033.318-.127.731-.35.891-.381s.191.287.414.064 0-.541.031-.668c.032-.129.223-1.051.351-1.305s1.018-2.258 1.081-2.449.509-1.051.509-1.051 2.036-1.049 2.418-1.145c.381-.096.953-.381 1.271.16.318.539.445 1.525.541 1.939s.19 1.812.127 2.131-.254 1.082-.572 1.463a4.507 4.507 0 0 0-.509.764l.572.096s-.063.477.223.477.509 0 .891-.223.572-.604.572-.604.159.158.351.031c.19-.127.063-.668.063-.764s0-1.877.254-2.131c.255-.254.763-2.545.89-2.83.129-.287.479-.277.479-.277s-.033.445.189.51c.223.062.191-.414.191-.414l.941.285s-.111.43.203.479c.127.02.129-.418.129-.418l.346-.002.83-.121.191.35s.143.105.223.031 0-.445 0-.445l.668-.158s.15.314.223.318c.07.002.158-.064.158-.064l-.031-.35.795.127s.084.195.127.254.16 0 .16 0l.096-.35s.127-.104.254.182c.127.287.764 1.559.699 1.908s-.604 1.082-.637 1.336c-.031.256-.477.605-.508.701-.031.094-.637.35-.541.572s.826.127 1.178.158c.35.031.572-.318.668-.285.094.031.127-.352.381-.701s.668-1.525.826-1.781c.16-.254.383-.572.445-1.018.064-.445-.316-1.432-.062-1.463s1.303.955 1.525 1.082c.225.127 1.273.986 1.465 1.303.189.318.062 1.496.223 1.877.158.383.189 1.113.223 1.209.031.096.381.795.699.826.318.033.381-.539.541-.795.158-.254.127-.539.158-1.049s-.477-.891-.35-1.367c.127-.479.031-1.146.031-1.273s-.318-.572-.094-.764c.221-.189.094-.381 0-.699-.096-.318.189-.986.285-1.494.096-.51.318-2.545.318-2.545s.191.541.191.859c0 .317-.033.668.189.795s.035-.254.098-.571zM3.179 20.602c-.074.373-.232.324-.305.389 0 0-.252-.645.063-.859.133-.091.286.245.242.47zm.996.703c-.063.189-.382-.096-.572-.318s.223-.732.223-.732c.349.063.413.858.349 1.05zm3.089-4.45c-.255.095-.604.159-.764.317 0 0 .096-.508.286-.603.191-.096.478-.191.668-.159.192.031.064.349-.19.445zm23.888-3.944l-.191-.604.381-.254c.096.858-.19.858-.19.858z"/></svg>