<svg xmlns="http://www.w3.org/2000/svg" width="32" height="32" viewBox="0 0 32 32"><path d="M22.534 11.083s.128-.383.415-.447c.288-.064.512.128.863-.128s.479-.512.8-.703c.319-.192.831-.831.99-.959.16-.128.831-.671.672-.831-.16-.16-.384-.416-.735-.479s-1.406.064-1.566 0-.64-.192-.352-.384c.287-.192 1.022-.639 1.343-.895.319-.255.799-.607.927-.895s.479-.607.191-.799c-.287-.192-1.022-.064-1.15-.256s-.16-.479 0-.639c.159-.16.415-.991.319-1.215s-.607.032-.703-.256c-.096-.288-.16-.991-.256-1.438-.096-.448-.256-.863-.511-.735-.256.128.063.927 0 1.279-.064.352-.416 1.822-.959 1.822-.544 0-.672-.288-.672-.288s-.575.128-.895-.128c-.32-.256-.448-.16-.479.032-.032.192.128 1.598 0 1.822s-.224.575-.447.224c-.225-.352-.448-.703-.704-.831-.255-.128-.479-.128-.575.096s-.352 1.183-.191 1.535c.16.352.671 1.183.543 1.47s-.415.416-.607.319c-.191-.096-.799-.543-1.022-.607s-.768-.32-.927-.096c-.16.224 0 1.055.191 1.311.192.256.735 1.407.735 1.407s.64.863.319 1.086c-.319.224-.511.096-.799.032s-.768-.224-.959-.192c-.191.032-.512 0-.512 0s.768-1.63.576-1.726c-.192-.096-1.087.607-1.151.288s.224-.639.352-.767.735-1.375.8-1.63c.063-.256.063-.416-.192-.352-.256.064-1.502.64-1.566.416s.288-1.598.416-1.854c.127-.256.383-1.087.159-1.183s-.511.192-.607.256-.608.446-.608.254-.128-1.598-.255-1.822c-.128-.224-.288 0-.416.128s-.32.512-.448.288c-.128-.224-.383-.832-.575-.991s-.607-.383-.831-.352c-.224.032-.64.511-.448.767s.831 1.918.448 1.758c-.384-.16-1.119-.704-1.215-.704s-.128.448 0 .799.607 1.023.32 1.023-.928-.287-.928-.287.032.319.16.671c.128.352 1.023 1.247 1.183 1.503s.639.991.383 1.055c-.255.064-.703-.319-1.119-.447s-1.086-.352-1.15-.129c-.064.224.352.864.512 1.023s.767.959.895 1.151c.128.191 1.087.799.799.895s-.831-.192-1.022-.064c-.192.127.447.831.352.959-.096.127-1.023.927-1.055 1.086s-.288 1.151-.511.735-.128-1.854-.096-1.95c.032-.096-.192-1.726-.416-1.95s-.352-.255-.479 0c-.128.256-.288.863-.607.704-.32-.16-.703-1.311-.991-1.471-.29-.159-.354-.254-.545.033-.192.288-.352.895-.544.575s-.511-1.054-.799-1.182-.224 0-.575.096c-.352.096-.543-.288-.863-.16s-.384-.096-.735-.032-.704.224-.576.671c.128.448.735.927.543 1.119s-.895.064-.831.352.831 1.119 1.023 1.183 1.087.224.799.447c-.288.224-1.215-.064-1.215.288s1.055 1.119 1.183 1.151l-.032.512c.128.255.575.288.991.416s1.502-.128 1.342.255c-.16.384-.799.448-.927.543-.128.096-.863.224-.735.543.128.32.479.384.927.543.447.16 1.342.064 1.438.16s.543.32.959.352 1.598-.48 1.598-.128-.224.543-.384.543-1.98.384-1.852.703c.128.32.991.8 1.311.959.32.16 1.662 0 1.534.416-.127.415-.575.415-.416.64.16.224 2.206 1.15 2.333 1.406s1.119.639 1.311.767.799.16.959.384 1.662 1.662 1.758 2.109c.096.448.959 1.662 1.087 2.27s.831 2.557.735 2.749c-.096.191-.384.511-.16.735s.607.063.607.543.096 1.343.256 1.502c.16.16.416.256.512-.128.031-.124-.799-2.429-.863-2.876-.063-.448-.671-2.27-.575-2.812.096-.544.287-1.119.447-1.79.16-.672.384-1.023.384-1.023s.287.128.607-.287c.319-.416.224-.384.735-.672.511-.287 1.214-.606 1.183-.959-.032-.352-.735-.543-.224-.799s1.055-.447 1.246-.767c.191-.32.224-.64.224-.64s-.639.16-.415-.16c.224-.319.447-.639.735-.734.287-.097.895-.8 1.086-1.119.192-.319.416-.575.032-.703s-.895-.128-1.087-.224c-.191-.097-1.183 0-1.311-.16s-.256-.192-.031-.416c.224-.224.352-.543.479-.64a.998.998 0 0 1 .671-.16c.287.032 1.886-.416 2.077-.639.192-.224-.159-.479.16-.576.319-.096.607-.352.863-.575s.799-.895.767-1.055c-.031-.16-.639-.288-1.15-.384-.512-.096-1.215-.096-1.502 0-.288.096-.959.32-.959.064s.448-.543.448-.543zm-11.123 3.484c-.224.096-.576.575-.863.416-.288-.16.032-.543.288-.959s.288-.895.288-.895c.16.224.927.959.927.959s-.417.383-.64.479zm4.219-.128s.16.352.256.607.543.671.543 1.022c0 .353-.671.32-.831.16s.064-.543.064-.543-.352.096-.543.032c-.192-.063.511-1.278.511-1.278zm-1.982 4.092c-.064-.256-.192.128-.416.128s-.032-.64-.064-.959c-.032-.32-.096-.544-.319-.607-.224-.064-.509-.342-.384-.384.575-.191.767.512.895.703.128.192.639 1.119.703 1.343s-.223.575-.223.575-.128-.543-.192-.799zm1.183 3.964c-.096.159-.863-.672-.991-.928s.064-1.246.064-1.246c.447.159.671 1.15.639 1.246-.032.097.384.768.288.928zm-.064-3.677c-.16-.096.598-2.126.575-2.014-.032.16.64.959.64.959s-.192.128-.352.192c-.16.065-.703.96-.863.863zm2.462 5.435c-.128.256-.352.799-.576 1.087-.224.287-.447-.479-.607-.735s-.958-2.462-.99-2.781.127-.703 0-1.087c-.128-.383.032-.99.255-1.438.224-.447.383-.639.383-.639.192-.32.672-.288.896-.032s-.224.64-.384.735.192.703.352.927c.16.224.416 1.278.416 1.566 0 .287.479 1.215.479 1.215s-.098.926-.224 1.182zm.382-10.421c-.256.256-1.374-.416-1.374-.416l-.576-.128c-.224-.096-.192-.224-.032-.447.16-.224.512-.927.512-.927s1.278 1.151 1.438 1.375c.16.223.288.287.032.543z"/></svg>