<svg xmlns="http://www.w3.org/2000/svg" width="32" height="32" viewBox="0 0 32 32"><path d="M31.998 15.019c-.068-.555-.393-.427-.566-.601s.061-.499-.346-.557-.791.189-.791.189c-.066-.222-.461-.557-.611-.223-.285.633-.301 1.002-.301 1.002-.289.116-.658-.048-.658-.048s-.439-1-.928-1.392c-1.449-1.16-2.551-1.392-2.551-1.392s-1.855-2.029-4.117-2.783-6.494-1.276-8.233-.87c-1.74.406-2.609 1.102-2.841 1.624s-1.102 1.507-1.565 1.797-4.754.986-6.378 1.74C.488 14.258-.26 15.496.083 16.056c.638 1.044 2.203.928 3.769.406 1.565-.522 3.827-2.03 4.638-2.146s.638.928.754 1.218.406.812.406.812-2.087 1.391-2.261 1.913c-.174.522-.081.777.086.701.412-.189.49-.301.49-.301-.145.199-.51.618-.233.756.111.057.579-.3.579-.3s-.241.425-.056.513c.167.077.584-.324.584-.324s-.344.549.062.49c.406-.058.841-.213 1.247-.734s.779-1.611 1.127-1.728 1.855-.464 2.261-.464 1.739-.638 3.421-.058c.731.251 1.392.174 2.203.58.812.406.753.638 1.159 1.218.328.468.593.989.684 1.173-.383.178-1.383.764-1.292 1.339.067.423.401.155.534.2.027.009.05.023.068.043-.189.385-.27.818-.109.898.232.115.674-.293.731-.062.058.232.245.646.428.642.41-.01.471-.536.708-.507.278.033.082.592.545.534.465-.059.502-.757.502-.757s.457.565.797.266c.139-.121.078-.738-.029-1.112-.189-.657-.68-1.169-.68-1.169 0-.232.129-1.371.129-1.371s.521 0 .754.464 1.16 1.449 1.508 1.681c.204.137.606.412.917.652.042.908.245 3.033 1.239 3.979.963.916 1.938.406 2.312.125s.906-.531.844-1.312c-.038-.477-.483-1.06-.938-1.83a5.424 5.424 0 0 0-.316-.686l-.291-.984s.174-.406.174-.696.291-.349.291-1.276-.291-1.971-.291-1.971l-.02-.414s.434.404.779.523c.424.145.867.301.924.011.059-.29-.176-.526.115-.526.289 0 .521-.174.58-.348.057-.174-.287-.428-.227-.628.098-.336.332-.292.309-.47zm-6.31 4.856c-.239-.144-.781-.812-.219-1.062s.812.656.812.656c.094.625-.281.593-.593.406z"/></svg>