<svg xmlns="http://www.w3.org/2000/svg" width="32" height="32" viewBox="0 0 32 32"><path d="M31.989 13.452c-.116-.757-1.513-2.008-1.92-1.979s-1.949.611-2.59 1.396c-.224.275-1.774 1.804-2.211 1.92s-2.415-.232-2.677-.349-1.483-.67-1.483-.67.203-.61.494-.814c.291-.203.262-1.251-.116-1.92s-1.164-1.862-1.861-1.92c-.698-.059-1.833-.378-1.892.582s-.175 2.793-.291 2.938c0 0-3.433-1.135-5.236-1.484s-4.015.029-4.742.088c-.728.058-1.571.407-1.892.407-.319 0-1.6-.059-2.123.116s-1.019.814-1.106 1.483-.146 1.339-.29 1.63c-.146.29-.902 1.105-1.077 1.222-.174.116-.872.698-.96 1.047-.087.35.204 1.164.204 1.164s-.204.262-.059.582c.146.319.757.465 1.076.582.32.116 2.328.523 2.444.64s4.219 1.222 5.004 1.338c.785.117 4.975.582 6.633.117 1.658-.466 4.073-2.008 4.073-2.008l.698-.204s.291 1.717.582 2.124 1.251.902 1.601.757c.349-.146 1.338-1.513 1.513-2.065.174-.553.174-1.396-.117-1.833-.29-.437-1.076-1.193-1.076-1.193s.902-.203 1.193-.174c.291.028 1.454.319 1.716.436s3.491 3.317 3.928 3.288 1.979-1.426 2.153-2.473c.174-1.048-.553-2.183-.466-2.531s.989-1.484.873-2.24zM3.914 14.79c-.554 0-1.004-.547-1.004-1.222s.45-1.222 1.004-1.222c.555 0 1.004.547 1.004 1.222s-.449 1.222-1.004 1.222z"/></svg>