<svg xmlns="http://www.w3.org/2000/svg" width="32" height="32" viewBox="0 0 32 32"><path d="M31.9 13.3l-.8-1.4c-.1-.3-.4-.3-.7-.2-.2-.3-.3-.6-.6-.9.1-.2 0-.4-.1-.6l-.9-1.3c-.1-.2-.3-.2-.5-.2-.1-.2-.3-.3-.4-.5.1-.2.1-.6-.1-.8l-1.1-1.1c-.1-.1-.2-.1-.3-.2.1-.2 0-.5-.2-.7l-1.1-1c-.2-.2-.6-.2-.8.1 0 .1-.1.1-.1.2-.1-.1-.3-.2-.5-.3V4c-.1-.1-.2-.1-.2-.1.1-.3 0-.6-.3-.7l-1.3-.7c-.3-.2-.6 0-.7.3-.3-.1-.7-.2-1-.3v-.1c.1-.3-.1-.7-.4-.8l-1.4-.4c-.3-.1-.5.1-.6.4 0-.3-.2-.5-.5-.5L15.9.9h-.2c-.1-.2-.3-.4-.5-.4L13.8.4c-.3 0-.5.3-.6.6 0 .1 0 .3.1.4h-.1v-.1c0-.3-.3-.6-.6-.6H12V.5c-.1-.3-.3-.5-.6-.5L9.9.4c-.3 0-.4.4-.4.7 0 .1 0 .1.1.2H9v-.1C8.9.8 8.6.6 8.3.7L6.9 1c-.3 0-.5.3-.4.7.2.6.8.6.9.7 0 0-4.2 1.3-5.9 5.2-5.3 12.6 5.4 23.8 5.4 23.8s2.3 1.2 4.7-.8C12.1 30.2-.6 22.1 2 10c1.4-6.6 6.6-7.1 6.6-7.1.1.2.3.4.5.4h1.4c.3 0 .5-.3.5-.6.3.1.6.1.9.2.2.1.3.1.5.1h.3c.2.1.5.2.8.3v.1c-.1.3.1.7.4.7l1.4.4c.2 0 .3 0 .4-.1.2.1.3.2.5.3-.2.2-.2.6 0 .8l1.1 1.1c.2.2.6.2.8-.1.1-.1.1-.2.1-.3.1.1.2.1.2.2s0 .3.1.4l.7 1.4c.1.3.5.4.7.2.1-.1.2-.2.2-.3.1.1.1.2.2.3-.1.2-.1.5 0 .7l.8 1.4c.1.2.3.3.5.2v.4l.7 1.5c.1.3.4.4.7.3.1.2.1.3.2.5-.3.1-.4.4-.3.8l.5 1.6c.1.2.2.3.4.4-.1.1-.2.3-.1.6l.4 1.6c.1.3.4.5.7.4s.5-.4.4-.8l-.4-1.6c0-.2-.2-.3-.3-.4v-.1c.1-.2.1-.3.1-.5l-.6-1.6c-.1-.2-.3-.4-.5-.4l-.3-.6c.1-.2.2-.4.1-.7l-.7-1.5c-.1-.2-.3-.4-.5-.3 0-.2 0-.3-.1-.5l-.8-1.4c-.2-.3-.5-.3-.7-.2-.1-.1-.2-.3-.3-.4 0-.1 0-.2-.1-.2l-.7-1.4c-.1-.3-.5-.4-.7-.2-.1 0-.1.1-.2.2-.1-.1-.2-.2-.4-.3 0-.1-.1-.2-.1-.2l-1.1-1.1c-.2-.2-.4-.2-.6-.1-.2-.1-.4-.2-.5-.3v-.1c.1-.3-.1-.7-.4-.7L14.2 3s0-.1.1-.1l1.2.2c.1 0 .2.1.4.1 0 .2.1.5.3.6l1.3.7c.3.1.6 0 .7-.2.2.1.4.3.6.4.3.2.6.5.9.8l.3.4c-.1.2-.1.5.1.7l1 1.2c.1.2.4.2.6 0 .2.2.3.5.5.7-.1.2-.1.4.1.6l.9 1.3c.1.1.2.2.4.2.1.2.2.4.3.7-.2.2-.2.5-.1.7l.6 1.5c.1.2.3.4.5.4l.6 1.4v.1l.3.9c-.1 0-.1 0-.2.1-.3.2-.4.5-.2.8l.7 1.5c.1.1.1.2.2.2v.4l.4 1.3c-.1 0-.2-.1-.3 0-.3.1-.5.4-.4.7l.3 1.6c.1.3.4.5.6.5.3-.1.5-.4.4-.7l-.3-1.4c.1.1.3.1.4 0 .3-.1.4-.4.4-.8l-.4-1.6c0-.2-.1-.3-.3-.4V18l-.7-1.5c0-.1-.1-.2-.2-.2-.1-.2-.1-.5-.2-.8h.3c.3-.2.4-.5.2-.8l-.6-1.5c-.1-.2-.3-.3-.5-.3l-.5-1.4c-.1-.3-.4-.4-.6-.3l-.3-.6s.1 0 .1-.1c.2-.2.3-.6.1-.9l-.6-1c.2-.2.2-.6 0-.9l-1.1-1.1c-.2-.2-.5-.2-.7 0l-.7-.6c.1-.2.1-.6-.1-.8l-.9-.9c0-.1-.1-.2-.2-.3l-1.2-1c-.2-.2-.6-.1-.7.1-.1.1-.1.2-.1.3l-1.3-.7c-.1-.1-.2-.1-.4 0 .1-.4-.1-.7-.4-.7l1.3.2c.2 0 .3-.1.4-.2h.2l.3.3 1.4.4c.2.1.3 0 .5-.1.4.1.7.2 1.1.4 0 .2.1.4.3.5l1.3.7c.1 0 .1.1.2.1-.1.2 0 .5.2.7l1.2 1c.2.2.6.1.8-.1v-.3l.8.7c.1.1.2.1.3.1-.1.2 0 .5.1.7l1.1 1.1c.2.2.4.2.6.1.1.1.2.3.3.4-.2.2-.3.6-.1.9l.9 1.3c.2.3.5.3.8.1.2.3.4.6.5.9-.1.2-.2.5 0 .7L31 14c.2.3.5.4.7.2.3-.2.4-.6.2-.9zm-20-10.7c-.3-.1-.5-.1-.8-.2v-.1c.3 0 .5 0 .8.1v.2zM10.8 2v-.3c.1.1.2.2.4.2l.9-.1c0 .1-.1.2-.2.3-.3 0-.7-.1-1.1-.1zm4.9-.1l-1.3-.3c-.2 0-.4.1-.5.3l-1.2-.1c.2 0 .3-.1.4-.3.7 0 1.5 0 2.2.1.1.2.2.3.4.3z"/></svg>