<svg xmlns="http://www.w3.org/2000/svg" width="32" height="32" viewBox="0 0 32 32"><path d="M31.212 15.625c-.468-1.208-1.587-2.193-2.235-2.281-.647-.089-1.163.179-1.365.447-.2.269-.246 1.074-.246 1.074s-1.319.268-1.453.469c-.134.202-.2.514-.2.514s-.246.111-.404.068c-.156-.045-1.32-.111-1.656.625-.334.739-.444 1.631-.558 1.675-.112.049-.202-.197-.382-.11-.177.091-.87.426-.87.426s-.336-.403-.514-.583c-.18-.18-.314-.221-.314-.221s.448-.248.492-.72c.045-.467-.178-1.921-.312-2.055-.133-.133-.426-.583-.426-.583s.27-.065.471-.267c.199-.202.582-.738.582-.738s.132.335.355.446c.226.113 1.008.851 1.255.918.244.067.269-.045.269-.045s.468.223.693.135c.222-.09.378-.291.378-.291s-.066-.112-.535-.089c-.424.019-.625-.089-.625-.089s.089-.089-.047-.27c-.133-.179-1.162-1.208-1.542-1.319-.381-.112-.852-.068-.852-.068s-.713-.871-.871-.916c-.158-.045.445.022.672-.269.223-.29-.158-.136-.246-.111-.09.021-.716.111-.716.111s-.069.045-.159-.136c-.087-.177-.96-.983-1.072-1.028-.11-.044-.493-.044-.493-.044s-.244-.179-.515-.179c-.27 0-1.027.895-1.027.895l-.268-.111s-.917-1.075-1.253-1.185c-.335-.113-.447.044-.447.044s-.201-.314-.492-.29c-.291.021-.895.558-.74 1.185.158.625 1.79 2.728 1.79 2.728s-.76-.626-1.297-.827-2.349-.962-2.819-1.006c-.469-.045-1.072-.181-1.072-.181s-.381-.244-.716-.312c-.336-.067-1.588.157-1.588.157l-.225-.135s-.133-.626-.447-.983c-.313-.36-1.319-.896-1.633-.918-.314-.02-.738-.177-.738-.177s.334-.85-.402-1.678c-.738-.828-1.567-.916-1.567-.916s.135-.828-.044-1.119c-.179-.292-.447-.984-.447-.984s.402-.381.312-.716c-.089-.335-.156-1.008-.156-1.008s.873.114 1.074.025c.201-.09.425-.27.425-.27s.201.022.313.112c.111.089 1.639 1.448 2.93.984.872-.313.693-1.074.693-1.074s.066.471-.47.649c-.437.146-.514-.156-.648-.514-.095-.252-.09-1.251-.783-1.723C5.336.303 4.418.506 4.284.684c-.134.18-.492.336-.492.336S3.726.818 3.48.841c-.247.023-1.923.134-2.125.404-.202.268-.09.491-.09.491s-.716.447-.761.894C.461 3.078.75 4.286.75 4.286S.282 5.471.661 5.94c.38.471.917 1.006.917 1.006s.134 1.254.582 1.768c.448.513 1.276.917 1.499.983.223.068.447.133.447.133s.089 1.187.806 1.656c.714.469 1.743.693 1.743.693s-.045 1.568.225 1.925c.268.357.469 1.073.714 1.32.247.246 1.186 1.006 1.208 1.164.023.154-.514-.068-.605.11-.088.18-.088.311-.088.311s-.179-.22-.449-.177c-.268.045-2.146 1.095-2.279 1.587-.117.422-.017.466.013.471-.057-.002-.386.008-.283.312.111.337.873 2.329.873 2.329l.133.244s-.201.045-.312.224c-.113.18-.359.58-.494.717-.133.134 0 .289.135.313.135.021.962-.56 1.096-.851.133-.292 0-.314 0-.314s.089-.044.089-.333c0-.291-.648-2.238-.693-2.305-.045-.068.268-.047.492-.248.223-.202 1.79-1.364 1.79-1.364s-.067.114.134.244c.202.139.76.631.76.631s-1.455 1.07-1.499 1.184c-.044.114.068.312.068.312s-.224.159-.179.379c.044.225.648 2.438.648 2.438s-.158.136-.246.337c-.09.2-.292.783-.292 1.005 0 .223.225.249.336.134.112-.107.514-.692.604-.825.089-.134.066-.471.066-.471s.157-.044.157-.267c0-.226-.514-2.325-.514-2.325s.201.019.357-.091c.157-.11 1.61-1.164 1.61-1.164l.65.357s-1.522 1.144-1.746 1.455c-.223.312-.022.49-.022.49s-.134.159-.156.448c-.022.292 1.208 2.596 1.208 2.596s-.135.064-.18.224c-.045.155-.402 1.005-.313 1.162.09.155.248.18.336.113.088-.07.336-.829.446-.918.113-.091.202-.313.18-.402-.003-.016-.007-.023-.008-.028.004 0 .017-.025.03-.266.023-.399-.736-2.188-.782-2.257-.044-.068-.269-.246-.269-.246s.358-.021.491-.111c.135-.089 1.924-1.477 1.924-1.477l.738.672s-.85.736-.895 1.051c-.045.312.112.448.112.448s-.336.18-.313.513c.022.339 1.073 2.978 1.073 2.978l.201.244s-.246.044-.267.333c-.023.296-.135.672-.069.765.069.085.201.021.314-.068.112-.093.537-.896.515-1.074s-.113-.335-.113-.335-.022-.022-.044-.312c-.022-.291-.402-1.453-.537-1.657-.134-.2-.268-.692-.268-.692s-.112 0 .089-.18c.202-.18.694-.602.716-.67s.447-.67.447-.67 1.14.111 1.387.29c.248.18.939.491 1.186.537.245.043.871-.024.871-.024s.091.092.382.113c.29.021.604-.137.604-.137s-.403.561-.424.74c-.023.18 0 .403 0 .403s-.829-.025-1.231.156c-.403.18-1.14 1.118-1.23 1.364s-.045.848-.045.848-.335.472-.379.809c-.045.333.357 1.609.515 1.855.156.244 2.014 1.05 2.014 1.05s1.497.918 2.569.848c1.074-.063 3.244-.312 4.405-1.765 1.166-1.451 1.1-1.966 1.121-2.214.021-.246-.248-.089-.381.021-.137.114-.537.246-.537.246s.16-.278 0-.267a4.442 4.442 0 0 0-.783.135c-.291.065-.447.065-.804.024-.29-.04-1.9-.517-2.416-.651s-2.147-.401-2.865-.091c-.715.314-1.363.874-1.363.874s.023-.424-.089-.513c-.112-.091.269-.091.491-.202.224-.111 1.275-.651 1.453-.938.178-.291.449-1.209.449-1.209s.448 0 .716-.269c.267-.267.468-.716.468-.938 0-.226-.268-.829-.268-.829s.268.091.336-.089c.066-.178.047-.38.047-.38s.625.56.871.56.646.333.715.357c.068.023.225.135.27.064.045-.064-.471-1.519-.471-1.519s.359.225.471.491c.11.269 0 .651.133.692 0 0 .493-1.05.403-1.988 0 0 .134-.022.269-.022.132 0 .647-.111.851-.468.2-.359.244-.717.244-.717s1.186.399 1.791-.359c.604-.761.559-1.611.58-1.768.023-.154.11-.154.225-.154.111 0 .088.421.312.38.226-.046 1.186-.136 1.253-.179.07-.047.538 1.363.494 1.7-.046.335-.813 1.716-1.365 2.325-.225.246.783 0 .961-.135.179-.134-.09-.337.179-.424.27-.093.625 0 .625-.291 0-.292.068-.426.294-.446.222-.025.581-.181.692-.383.111-.2-.156.383-.111.559.043.18.133.359-.045.45-.18.087-.359-.024-.428.198-.064.226-.108.381-.288.426-.181.046-.29-.021-.424.18-.136.203-.315.357-.448.357-.136 0 .287.15 1.061-.047 1.123-.284 1.845-1.472 2.16-2.123.313-.645.493-2.302.021-3.509zm-14.223-1.14c-.112-.158-.761-.516-.761-.516s-.045-.492-.067-.715c-.022-.225-1.409-2.125-1.409-2.125l-.068-.537s1.163.648 1.253.737c.089.09.291-.021.291-.021l.224.357.023.515s-.068.492-.068.717c-.001.224.695 1.744.582 1.588zm1.678 1.32l-.138-.337s-.624-1.789-.825-2.213c-.204-.426-.627-.917-.514-1.007.109-.088 1.005-1.274 1.005-1.274-.023.088.358.178.448.202.088.021.491.402.491.402s-.963 1.028-.983 1.296c-.021.27.133.449.133.449l-.112.604s.292.604.357.916c.068.313.382.828.36 1.03-.017.146.101.321.163.4l.037.045s-.016-.016-.037-.045l-.385-.468zm2.058-2.55c-.068.133-.516.692-.626.872-.114.179.153.334.153.334s-.111.539-.043.873c.068.336.469 1.991.469 1.991s-.627-.47-.781-.536c-.158-.068-.201-.091-.201-.091s.133-.403.133-.715c0-.312-.559-1.878-.759-2.125-.202-.246-.338-.38-.202-.447.134-.067.626-1.366.626-1.366s.224.18.29.292c.066.112 1.007.784.941.918z"/></svg>