<svg xmlns="http://www.w3.org/2000/svg" width="32" height="32" viewBox="0 0 32 32"><path d="M21.936 30.789s.762-.051.762-.457-.152-.863-.152-.863-.355-.711-.305-1.219.051-3.2.051-3.2.355-.762.355-1.219c0-.457.152-2.336.152-2.336s.406-.406.813-.406c.406 0 1.168-.203 1.523-.508s1.676-2.133 1.828-2.641c.152-.508.711-.914.711-1.574s-.051-2.692-.355-3.453c-.305-.762-.965-4.52-1.168-5.18s-.152-1.32-.152-1.473.051-1.32-.355-2.031-.559-1.523-.559-1.523.406.051 1.219-.051.914-.457 1.117-.863.254-.863-.102-.813c-.355.051-1.219-.203-1.574-.102s-1.117.559-1.117.559-1.066-.152-1.32-.254c-.254-.102-.457-.355-.813-.305s-.711.406-1.016.406-1.168.051-1.168.051-.406-.254-.762-.508-.813-.355-1.27-.254c-.457.102-.813 0-.863.203s-.051.406.152.711c.203.305.632.637.965.762.406.152 1.168.203 1.117.355s-.457.813-.711 1.168-.914 1.93-.914 1.93-2.742-.457-3.606-.559c-.863-.102-3.047 0-3.555.152s-2.946.813-3.606 1.574c-.66.762-1.981 2.59-2.184 4.317s-.914 5.332-.813 6.297c.102.965.254 2.844.66 3.453s.609.965.762 1.168.254.762.254.762.305 1.168.355 1.828c.051.66.102 1.93-.102 2.692s-.457 1.016-.355 1.523c.102.508 0 .813.203 1.066s1.32.508 1.676.254c.355-.254 0-1.371 0-1.371s.051-.559-.152-.914c-.203-.355-.406-2.031-.152-2.438s.66-1.625.609-2.285.102-1.473.102-1.473.457-.609.406-1.066c-.051-.457.305-.965.305-.965s.66 1.168 1.27 1.524c.609.355 1.219.609 1.574.813s.863.355.863.355.355.914.508 1.625c.152.711.102 3.403-.102 3.86s-.508 1.219-.508 1.524c0 .305.051.711.355.813s1.016.203 1.523-.051c.187-.094.152-.406.051-.813s-.102-.457-.152-.965c-.051-.508-.051-3.657.102-4.114s.457-1.981.457-1.981l2.387-.051s.355 1.27.355 1.828.152.863.254 1.32c.102.457.051 2.59-.051 3.25s.117.7.051.965c-.102.406-.406.762-.152 1.371.083.199.508.559 1.168.457.362-.056.762-.457.762-.813s-.305-1.117-.305-1.117.152-.305.051-.762c-.102-.457-.508-2.692-.406-3.098s.508-1.524.305-2.234c-.203-.711-.051-1.524-.051-1.524l1.625-.355s.102.751.102 1.219c0 .305.152 1.523.203 1.93s.203 1.168.152 1.574c-.051.406-.102 2.895-.102 2.895s-.305.965-.203 1.27c.102.304 1.016.355 1.016.355z"/></svg>