<svg xmlns="http://www.w3.org/2000/svg" width="32" height="32" viewBox="0 0 32 32"><path d="M31.2 11.5c-.2-.3-1.2.1-1.2 0-.4-.3-1.3 0-1.3 0-.5-.4-1.8.1-1.8.1 1.6 1.5.3 3.2.3 3.2-.4-.8-.4-2.7-2.2-3.4-.7-.3-2.1.1-1.7.3 2.6 1.5 2.1 4.1 2.1 4.1s-1-1.8-2.5-2.9c-1.5-1.1-4.5-1.5-5.4-1.4-3.7.3-5.3 2-6.6 2.9-1.2 1-3.6 5.2-4 5.8-.4.5 0 1.6 0 1.6s-.9-.5-.9-.7c-.5-1.3-1.9-7.9-1.9-7.9-.4 0 .2 5.6.4 6.5.1.7.3 1.6.5 2.4-.1.1-1.5-1.2-1.7-1.5C1.6 18.3 1.2 16 1.1 16c-.4-.2.8 5.8 2.7 7.2-.3.3-.4.7-.4 1.2-.1.7 0 2.3 0 2.3 1.6.9 3.5.4 3.9.7.4.2 5.7 0 8.2 0s6.2-.2 6.6-.4c.4-.2.3-.6-.4-1s-1.4-.4-2.2-.8c-.8-.4-1.7-1.1-1.7-1.1s.7.3 2.6.3 2.9-.6 5.2-2.1 1.6-4.8 1.6-4.8.9-.4 1.1-.8c.3-.4.5-1.5.5-1.5s.3-.2.7-.5c.4-.3.1-1.2.1-1.2s.6-.4 1-1c.1-.3.9-.8.6-1z"/></svg>