<svg xmlns="http://www.w3.org/2000/svg" width="32" height="32" viewBox="0 0 32 32"><path d="M30.24 23.093l.8.16-.907-.587.267-.32-.107-.107c-.053-.053-.267-.267-.48-.427.053 0 .107-.053.107-.053l.267-.107-.64-.373.533-.213-.427-.107a1.281 1.281 0 0 0-.48-.107c.053 0 .053-.053.107-.053l.427-.213-.48-.053c-.107 0-.267-.053-.48-.053l.96-.32-1.173.053.373-.32h-.64l.267-.373-.853.107.267-.587-.747.32.16-.533-.533.267.16-.48-.533.32.053-.107-1.12.213.107-.533-.64.373-.16-.853-.213.853-.16-.213-.427.48-.427-.16-.213.427-.32-.32-.16.427-.213-.32-.16.427-.373-.587.053.96-.373-.16-.053.373-.533-.373.16.48-.373-.16.053.213-.213-.107.053.373-.107-.053-.053.053c-.213.107-.587.32-.693.32h-.107c-.213.053-.64.16-1.013.16-.213-.267-.373-.8-.267-1.067.16-.373.32-2.453 0-3.627s-1.973-3.573-3.36-4.107c-1.067-.373-2.773-.693-3.52-.693h-.373c-.96-.053-1.28-.32-1.333-.427-.107-.16-.213-.32-.267-.373.107-.053.213-.213.267-.427.16-.48 0-.96-.427-1.387-.267-.267-.8-.587-.907-.64-.16-.16-.907-1.12-2.613-1.173-1.76-.16-2.187.107-2.293.213l-1.44 1.173-.64.533c-.053.053-.267.32-.267.32-.107.267-.053.533.107.853.053.107.32.747.533.96.16.16.48.267.64.267.053.16.213.373.533.587.427.267 1.653.373 1.76.373.427.107.853.267.907.373.107.213.213.693-.053 1.387-.267.747-.107 1.653.053 2.08.16.373.587 1.653.587 1.867v.107c-.16.213-.32.48-.373.64-.053.213-.32.32-.267.693h.32s-.267.587-.32.747-.107.533-.107.533-.267.373-.213.587l.373-.32s.213.48.107.533-.64 0-.747.053c-.107.053-.48.053-.64.053s-.427.32-.32.32h.427s0 .107.107.16c.107 0 .213.107.48.107s.8-.053.907-.053.427.053.427.053-.107.053-.16.267-.107.267-.107.267c.16 0 .48-.213.48-.213s.213-.107.32-.373c.107-.213.427-.693.427-.693s.32-.053.48-.267c0-.053.053-.053.053-.107l.053.053.053-.213c.053-.267.053-.64.053-.853.16-.053.32-.16.32-.373 0-.107.16-.267.267-.373.16-.107.32-.267.373-.267.107 0 .16-.053.213-.107.16-.107.267-.213.427-.16.32.107.853.533.96.64.053.107.107.373.107.48l.053.107h.213c-.16.533-.053.64-.053.693.107.107.213.107.32.107.053.747.16.747.267.8h.32v.053l-.213.16h-.16c-.213 0-.427 0-.64.053s-.427.107-.64.053h-.16c-.267 0-.427-.053-.64-.053h-.16c-.373-.053-.8-.053-1.013.16-.16.16-.373.267-.373.267-.107.107-.533.373-.533.64v.213l.587-.213c.053.107.213.213.427.213h.587c.053.107.107.32.267.373.213.107.693.053.8 0l.8-.053s.693-.053 1.12.053c.427.053 1.28 0 1.44 0s1.227.107 1.6-.107c.373-.267.32-.693.32-.747v-.16c.16.107.48.267.8.32.267.053.427 0 .533-.053l.587.16.213-.213c.213 0 .8-.053 1.067-.107.32-.053 1.067-.267 1.28-.373l.32.16.427-.213.427.053.213-.107.427.053.267-.32.48.053.32-.32.64.16v-.213l.693.213-.107-.373.373.16.16-.16.533.427.107-.373.32.427.267-.32.32.32.16-.107.107.48.267-.053-.107.427.373-.053-.32.64.373-.16-.32.48.373.107-.107.533.587.107c-.107.16-.267.267-.32.32l-.213.213.48.053-.16.16-.373.267.853-.053-.213.48.64-.16-.267.8.693-.693-.053.587.587-.747.213.587.267-.8.373.907v-1.44l.427.16-.373-1.12.48.107-.267-.533.587.213-.64-.693zM6.187 8.693c.373 0 .747.533.747.533s0 .747-.373.8c-.373.053-1.387-.213-1.387-.213s-.533.213-.373 0c.053-.107.213-.16.213-.16s.16-.32.32-.587c.213-.213.48-.373.853-.373zM8.32 19.947z"/></svg>