<svg xmlns="http://www.w3.org/2000/svg" viewBox="0 0 60 60"><path d="M69.1-29.6zM56.8 33.9c-1-2.5-3-4.6-3-4.6s2.5-.9 3.1-3.9-.9-4.6-2.2-4.5-5.4.2-5.4.2 3.8-4 3.5-6.8c0-.3-.1-.6-.1-.9l.3-1s2.6-5.5.5-4.1c-.9.6-1.7 1.3-2.3 2-.6-.8-1.3-1.3-1.8-1.6-1.4-.6-3.1-6.9-3.9-7.4s-3.5 1.5-4 3.1c-1.4 4.3-1 6.1-.1 6.6 1.8.8 3.3.2 3.8 0 1.3-.7 2.4.6 2.6 2.1s-7 5-8.2 4.9c-.9 0-.6-3.8-2.2-3.9-7.1-.2-9.2 4.3-9.2 4.3s-4.4-.1-9.7.5-10.9 3.9-12.7 6.7-3.5 6-2.5 11.1 8.9 5.8 11.8 7 6.8 2.5 9 4.1 7 7.4 10.6 8.4 6.9 2 11.1.4 10.1-6 11.2-10.5.8-9.7-.2-12.2zM20 35.4c-1.1.1-1.9-1.5-1.2-2.4s2.4.8 2.4.8c.2.3 0 1.4-1.2 1.6zm11.7 6.5c-1.1.1-1.9-1.5-1.2-2.4s2.4.8 2.4.8c.2.3-.1 1.5-1.2 1.6z"/></svg>