<svg xmlns="http://www.w3.org/2000/svg" width="32" height="32" viewBox="0 0 32 32"><path d="M20.604 11.641c-.264.003-1.398.29-1.551.361-.151.07-2.022.701-2.274.836-.417.226-1.562.281-2.431.118-2.036-.248-5.33-.051-7.107.3-.277.055-1.484.267-1.705.325-.546.141-1.641.395-2.158.502-.598.124-1.558.397-1.815.514-.119.055-1.125.615-1.215.745-.108.155-.12.609-.016.649.041.015.115.154.165.308.094.289.342.637.67.941.317.297 1.474.891 2.138 1.1 1.921.602 4.108 1.187 4.416 1.286 1.046.342 2.723.558 4.334.558l1.06.003s1.4.718 1.786.812c.386.096.684-.129.725-.443s.117-.774.021-.809c-.045-.018-.029-.059.051-.13.082-.073.89-.205.993-.249.178-.073.192-.071.339.063.086.079 1.384 1.474 1.433 1.565.748.731 1.283.467 1.329.467s.245-.092.441-.207.489-.266.649-.338 1.941-1.55 2.037-1.613c.205-.141.518-.561.521-.701a.413.413 0 0 1 .078-.2c.096-.126.102-.356.014-.445-.049-.049.237.032.382.036s1.087.094 2.146.564c.145.074.639.33 1.188.604.175.088.638.355 1.03.59.392.24.857.498.98.577.775.45 1.056.595 1.658.427.604-.168.984-1.496-.105-2.355-1.518-1.199-.75-1.618-.631-1.755.307-.358 1.089-1.092 1.219-1.223.377-.376.674-1.062.581-1.341-.125-.375-.935-1.089-2.985-.288-.083.032-.479.225-.88.427s-.869.402-1.04.445c-.168.042-1.188.448-2.013.328a104.371 104.371 0 0 1-3.862-.552c-.152-.043-.209-.216-.1-.3.043-.032.122-.208.178-.395.229-.764.009-1.873-.409-2.073-.047-.026-.143-.035-.265-.034zm-8.937 2.267c.644 0 1.213.01 1.569.038.41.032 1.286.071 1.945.086 1.175.027 1.905.109 2.11.233.08.049.037.054-.217.021-.511-.065-8.83-.037-9.326.032-.234.033-.654.093-.933.136-.408.063-1.055.161-1.439.256-.153-.124-.457-.412-.513-.428-.037-.098.354.041.664.041.137 0 .405-.039.596-.085s.55-.092.799-.099c.249-.009.645-.042.879-.074.676-.093 2.451-.156 3.866-.157zM3.14 15.03c.031 0 .067.019.129.06a.665.665 0 0 1 .189.194c.048.09.041.297-.048.297-.059 0-.122.037-.141.004-.02-.031-.197.371-.141.336.05-.032-.115-.773-.405-.682-.068-.05.101-.062.147-.062.041 0 .115-.04.169-.087.044-.041.071-.06.101-.06zm9.014.006c.905 0 1.86.011 2.681.03 2.222.051 3.221.106 4.635.258.264.028.562.055.666.057.301.006 1.631.157 2.238.252.309.049.698.098.869.11.172.012.494.061.719.108s.529.096.677.11c.146.013.292.047.323.073.034.026.169.034.301.015.234-.031.58.042.721.154.051.04.053.072.008.126-.074.088-.13.086-.35-.01-.096-.041-.52-.11-.946-.153-.428-.042-.796-.089-.819-.105-.024-.015-.416-.065-.867-.111a12.174 12.174 0 0 1-.901-.113c-.206-.077-1.635-.188-2.691-.212-.646-.014-1.22-.04-1.278-.056-.059-.018-.524-.05-1.038-.073s-1.112-.08-1.333-.125c-.323-.066-.49-.072-.866-.029-.256.031-.487.042-.516.023-.028-.017-1.091-.046-2.362-.062-1.692-.022-2.418-.013-2.708.035-.569.093-2.382.196-2.633.15-.116-.022-.794.053-.986.052-.064-.125-.071-.331-.156-.447-.062-.084.362.038 1.05.097.604.052 1.295.023 2.331-.094.356-.041 1.722-.062 3.231-.06zm-9.913.115a.24.24 0 0 1 .08.013c.048.011.098.009.146.013.014.004.031.013.027.031-.044-.003-.096.005-.128.039-.056.042-.128.063-.167.125a.348.348 0 0 0-.109.234c-.007.033.018.068-.001.099-.026.024-.043-.025-.036-.049.004-.041-.039-.065-.053-.1s-.007-.076-.002-.113a.522.522 0 0 1 .072-.182c.025-.036.051-.075.093-.093a.177.177 0 0 1 .078-.017zm26.113.282a.82.82 0 0 1 .159.014c.124.024.343.045.481.047.139 0 .252.027.252.056 0 .068-.727.065-.896-.002-.147-.06-.122-.113.004-.115zm-24.963.376c.051.062.176.225.1.31-.052.058-.109.156-.148.156-.137.073-.535.303-.489-.017.154-.007.292-.188.279-.379.151.053.218-.058.258-.07zm-1.019.331c.089.022.327.091.31.112l.018.103c-.032.096-.318.166-.353.074a.808.808 0 0 1-.003-.277c.005-.006.014-.01.028-.012zm25.893.108c.647-.004.879.011.954.066.097.071.099.076-.003.13-.057.031-.141.037-.184.014s-.342-.058-.663-.076c-1.011-.06-1.063-.128-.104-.134zm-20.424.18h.58c1.229.006 3.433.106 4.043.183.19.024 1.209.032 2.264.02 5.5-.066 6.109-.047 7.246.223.176.042.688.102 1.139.131.448.031.939.092 1.092.134.15.042.515.103.807.137.58.065.701.121.537.241-.119.09-.252.087-.909-.009-.265-.04-.815-.097-1.226-.13s-.891-.104-1.066-.156c-.284-.086-.539-.133-1.064-.195-1.7-.2-4.812-.27-5.068-.113-.157.098-3.137.047-4.15-.068-.263-.03-.707-.065-.985-.079a39.69 39.69 0 0 1-1.172-.074c-.614-.048-2.426-.025-2.519.032-.063.039-.213-.138-.184-.215.013-.041.167-.058.635-.062zm19.05.668c.058 0 .147.005.282.018.396.036 1.173.271 1.528.46l.2.104-.16-.006a2.12 2.12 0 0 1-.426-.082 9.85 9.85 0 0 0-.693-.154c-.757-.136-.797-.146-.816-.255-.012-.061-.008-.084.085-.085zm-4.821.482c.358-.003.484.04.411.127-.035.043-.221.083-.471.101l-1.235.086a54.46 54.46 0 0 1-1.198.074c-.206.008-.709.055-1.119.104s-.864.101-1.011.112c-.363.029-.673.084-.801.141-.059.025-.311.066-.56.092s-1.28.049-2.292.054c-1.498.009-1.897-.007-2.158-.073a14.413 14.413 0 0 0-.439-.106c-.066-.013-.12-.047-.12-.075s.053-.087.12-.129c.105-.068.156-.068.413.004.182.047.484.072.799.066.278-.007.734.006 1.012.027.463.036.975.012 2.59-.121.296-.025.562-.059.591-.075.147-.093 1.183-.183 3.426-.302a168 168 0 0 0 1.604-.088c.172-.011.317-.016.437-.017v-.002zm5.027.642c.098-.004.26.035.512.118.283.095.348.134.298.185-.075.074-.067.074-.524-.025-.365-.078-.459-.131-.402-.227.02-.032.056-.049.116-.051zm-4.483.587c.021 0 .018.018-.004.05-.018.029-.182.123-.361.208a2.497 2.497 0 0 1-.596.185l-.265.029.239-.07c.132-.039.398-.148.596-.239.243-.116.354-.163.391-.163zm-1.451.488l-.213.079c-.117.042-1.621.359-1.81.355-.468.012-.967-.092-.61-.146.131-.02 2.139-.236 2.312-.254l.321-.034zm-7.038.735h.03c.116.004.732.385.732.453 0 .126-.336.064-.624-.117-.201-.129-.272-.319-.138-.336z"/></svg>