<?xml version="1.0" encoding="utf-8"?>
<!-- Generated by IcoMoon.io -->
<!DOCTYPE svg PUBLIC "-//W3C//DTD SVG 1.1//EN" "http://www.w3.org/Graphics/SVG/1.1/DTD/svg11.dtd">
<svg version="1.1" xmlns="http://www.w3.org/2000/svg" xmlns:xlink="http://www.w3.org/1999/xlink" width="32" height="32" viewBox="0 0 32 32">
<path d="M30.832 14.747h-23.060v-2.097c0-0.331-0.175-0.638-0.46-0.806-0.284-0.168-0.637-0.172-0.927-0.013l-5.903 3.265c-0.3 0.166-0.486 0.485-0.482 0.827s0.194 0.657 0.498 0.817l5.904 3.115c0.137 0.072 0.286 0.107 0.436 0.107 0.168 0 0.334-0.045 0.482-0.134 0.28-0.169 0.452-0.473 0.452-0.801v-1.946h23.060c0.645 0 1.168-0.524 1.168-1.167 0-0.644-0.523-1.167-1.168-1.167z"></path>
</svg>
