<?xml version="1.0" encoding="utf-8"?>
<!-- Generated by IcoMoon.io -->
<!DOCTYPE svg PUBLIC "-//W3C//DTD SVG 1.1//EN" "http://www.w3.org/Graphics/SVG/1.1/DTD/svg11.dtd">
<svg version="1.1" xmlns="http://www.w3.org/2000/svg" xmlns:xlink="http://www.w3.org/1999/xlink" width="32" height="32" viewBox="0 0 32 32">
<path d="M28.906 9.181c-0.512-0.298-1.172-0.127-1.472 0.386l-2.58 4.418-4.264-0.035-3.036-3.352 1.53-4.759c0.181-0.564-0.129-1.172-0.695-1.354-0.565-0.181-1.172 0.129-1.353 0.696l-1.531 4.757-4.276 0.922-3.356-3.704c-0.398-0.44-1.079-0.474-1.519-0.075-0.44 0.398-0.475 1.079-0.075 1.519l3.354 3.704-1.339 4.166-4.884 1.053c-0.582 0.126-0.951 0.696-0.825 1.278 0.108 0.505 0.557 0.85 1.051 0.85 0.076 0 0.151-0.009 0.227-0.024l4.883-1.054 2.939 3.241-1.53 4.757c-0.183 0.567 0.128 1.173 0.695 1.353 0.108 0.036 0.22 0.053 0.329 0.053 0.454 0 0.878-0.292 1.025-0.748l1.53-4.757 4.481-0.966 4.287 2.441c0.163 0.094 0.348 0.14 0.532 0.14 0.202 0 0.403-0.056 0.579-0.17l4.195-2.677c0.41-0.261 0.593-0.761 0.449-1.226l-1.533-4.965 2.569-4.398c0.301-0.511 0.127-1.17-0.387-1.47zM17.556 19.449l-4.276 0.921-2.937-3.241 1.341-4.168 4.276-0.921 2.937 3.244-1.341 4.165zM23.001 21.758l-3.32-1.893 1.211-3.761 3.911 0.032 1.154 3.734-2.956 1.888z"></path>
</svg>
