<?xml version="1.0" encoding="utf-8"?>
<!-- Generated by IcoMoon.io -->
<!DOCTYPE svg PUBLIC "-//W3C//DTD SVG 1.1//EN" "http://www.w3.org/Graphics/SVG/1.1/DTD/svg11.dtd">
<svg version="1.1" xmlns="http://www.w3.org/2000/svg" xmlns:xlink="http://www.w3.org/1999/xlink" width="32" height="32" viewBox="0 0 32 32">
<path d="M23.868 10.117l-1.122 0.627 2.563 0.669 0.689-2.486-1.152 0.643c-2.128-2.991-5.617-4.773-9.361-4.773h-0.142v1.096h0.142c3.338 0.001 6.459 1.577 8.383 4.224zM7.156 12.433l-0.686-2.49-2.565 0.665 1.157 0.649c-1.604 3.286-1.448 7.109 0.425 10.255l0.070 0.119 0.974-0.546-0.074-0.125c-1.669-2.803-1.822-6.214-0.418-9.154l1.117 0.627zM24.395 20.774c-1.67 2.807-4.641 4.643-7.969 4.933l0.001-1.249-1.875 1.817 1.871 1.818 0.002-1.285c3.732-0.293 7.067-2.335 8.94-5.482l0.074-0.125-0.974-0.546-0.070 0.119zM9.941 21.65c-0.897 0-1.668 0.314-2.315 0.94s-0.969 1.376-0.969 2.247c0 0.87 0.323 1.619 0.969 2.247 0.646 0.626 1.418 0.94 2.315 0.94s1.669-0.314 2.315-0.94c0.646-0.628 0.969-1.376 0.969-2.247s-0.323-1.619-0.969-2.247c-0.646-0.627-1.418-0.94-2.315-0.94zM9.941 3.787c-0.897 0-1.668 0.314-2.315 0.94-0.646 0.627-0.968 1.377-0.968 2.246 0 0.871 0.323 1.62 0.969 2.246 0.646 0.628 1.418 0.94 2.315 0.94s1.669-0.313 2.315-0.94c0.646-0.626 0.969-1.375 0.969-2.246 0-0.87-0.323-1.619-0.969-2.247-0.647-0.625-1.419-0.939-2.316-0.939zM29.111 15.014c-0.236-0.857-0.743-1.502-1.52-1.938s-1.606-0.538-2.488-0.309-1.549 0.722-1.997 1.476c-0.449 0.753-0.555 1.558-0.318 2.414s0.743 1.502 1.52 1.938c0.777 0.435 1.606 0.538 2.489 0.308 0.882-0.229 1.548-0.721 1.997-1.474 0.446-0.753 0.553-1.558 0.317-2.415z"></path>
</svg>
