<?xml version="1.0" encoding="utf-8"?>
<!-- Generated by IcoMoon.io -->
<!DOCTYPE svg PUBLIC "-//W3C//DTD SVG 1.1//EN" "http://www.w3.org/Graphics/SVG/1.1/DTD/svg11.dtd">
<svg version="1.1" xmlns="http://www.w3.org/2000/svg" xmlns:xlink="http://www.w3.org/1999/xlink" width="32" height="32" viewBox="0 0 32 32">
<path d="M25.609 22.661h-0.069c-0.265-1.139-1.282-1.987-2.501-1.987s-2.237 0.849-2.502 1.987h-1.989c-0.264-1.139-1.282-1.987-2.501-1.987s-2.237 0.849-2.502 1.987h-1.988c-0.265-1.139-1.283-1.987-2.502-1.987s-2.237 0.849-2.502 1.987h-0.48c-1.606 0-2.913-1.307-2.913-2.913s1.307-2.912 2.913-2.912h0.205v0.103h0.301c0.301 1.086 1.293 1.885 2.476 1.885s2.175-0.798 2.475-1.885h2.041c0.301 1.086 1.293 1.885 2.475 1.885s2.175-0.798 2.475-1.885h2.041c0.301 1.086 1.294 1.885 2.476 1.885s2.174-0.798 2.475-1.885h0.301c2.249 0 4.079-1.83 4.079-4.079s-1.83-4.079-4.079-4.079h-0.252c-0.225-1.19-1.269-2.091-2.524-2.091s-2.299 0.9-2.524 2.091h-1.944c-0.225-1.19-1.269-2.091-2.524-2.091s-2.299 0.9-2.524 2.091h-1.944c-0.225-1.19-1.269-2.091-2.524-2.091-1.222 0-2.237 0.856-2.498 1.999-0.009 0.031-0.022 0.059-0.030 0.091h-0.069c-1.607 0-2.912-1.307-2.912-2.913h-1.167c0 2.249 1.83 4.079 4.079 4.079h0.069c0.265 1.139 1.282 1.987 2.501 1.987 1.22 0 2.237-0.849 2.502-1.987h2.041c0.301 1.086 1.293 1.885 2.475 1.885s2.175-0.798 2.475-1.885h2.041c0.301 1.086 1.294 1.885 2.476 1.885s2.174-0.798 2.475-1.885h0.301c1.607 0 2.913 1.307 2.913 2.913s-1.307 2.913-2.913 2.913h-0.205v-0.103h-0.068c-0.265-1.139-1.282-1.987-2.501-1.987s-2.237 0.849-2.502 1.987h-1.989c-0.264-1.139-1.282-1.987-2.501-1.987s-2.237 0.849-2.502 1.987h-1.988c-0.265-1.139-1.283-1.987-2.502-1.987s-2.237 0.849-2.502 1.987h-0.48c-2.249 0-4.079 1.83-4.079 4.079s1.83 4.079 4.079 4.079h0.48c0.265 1.139 1.283 1.987 2.502 1.987s2.237-0.849 2.502-1.987h1.988c0.265 1.139 1.283 1.987 2.502 1.987s2.237-0.849 2.501-1.987h1.989c0.265 1.139 1.282 1.987 2.502 1.987s2.237-0.849 2.501-1.987h0.069c1.606 0 2.913 1.307 2.913 2.912h1.165c0.001-2.248-1.829-4.078-4.078-4.078z"></path>
</svg>
