<?xml version="1.0" encoding="utf-8"?>
<!-- Generated by IcoMoon.io -->
<!DOCTYPE svg PUBLIC "-//W3C//DTD SVG 1.1//EN" "http://www.w3.org/Graphics/SVG/1.1/DTD/svg11.dtd">
<svg version="1.1" xmlns="http://www.w3.org/2000/svg" xmlns:xlink="http://www.w3.org/1999/xlink" width="32" height="32" viewBox="0 0 32 32">
<path d="M18.546 7.597c0 0 2.254-0.461 2.254 1.571v0.602c0 0.182 0.402 0.434 0.53 0.561l1.544 1.398c0.13 0.125 0.447 0.278 0.619 0.334l0.808 0.257c0.173 0.056 0.435 0.21 0.563 0.336l0.244 0.234-0.113 0.118c-0.191 0.19-0.19 0.505 0.002 0.694l0.7 0.698c0.192 0.194 0.505 0.192 0.696 0l1.63-1.626c0.19-0.193 0.19-0.505 0-0.698l-0.698-0.7c-0.194-0.19-0.506-0.19-0.698 0l-0.117 0.118-0.234-0.234c-0.125-0.127-0.278-0.372-0.334-0.542l-0.258-0.774c-0.014-0.045-0.036-0.096-0.062-0.148-0.002-0.003 0.031-0.006 0.028-0.009-0.023-0.049-0.050-0.098-0.050-0.148v-0.075c0 0-0.069 0-0.070 0-0.057 0-0.122-0.14-0.182-0.198l-1.859-1.844c-0.128-0.127-0.378-0.258-0.551-0.302 0 0-3.551-0.846-4.481 0.085 0-0.001-0.091 0.263 0.089 0.292zM15.285 11.164h5.393c-0.291-0.8-0.678-0.939-0.678-1.394v-0.206h-7.2v1.066l0.054 0.534h2.431zM18.934 13.624c-0.303 0.301-0.697 0.74-1.020 0.74h2.867c0.818-0.8 1.8-1.688 1.813-1.702l-1.34-1.338-2.32 2.3zM27.993 14.31l-0.843 0.937c-0.077 0.076-0.111 0.024-0.198 0.083 0.158 0.314 0.339 0.634 0.433 0.634h-21.866c0.177 0 0.511-0.878 0.874-1.604-0.495-0.142-0.942-0.432-1.176-0.892l-0.307-0.064c-0.684 1.342-1.71 2.8-1.71 2.8 0 0.082 0 0.169 0 0.239v7.955c0 0.438 0.88 0.366 1.317 0.366h23.87c0.437 0 0.414 0.072 0.414-0.366v-7.955c0-0.070 0-0.157 0-0.239-0.001 0-0.278-0.873-0.808-1.894zM21.6 20.288v0.010c0 1.214-1.084 2.066-2.298 2.066h-5.926c-1.214 0-2.176-0.851-2.176-2.066v-1.134c0-0.8 2.4-0.8 2.4 0v0.8h5.6v-0.8c0-0.8 2.4-0.8 2.4 0v1.124zM5.841 12.090l0.45 0.902c0.075 0.146 0.24 0.382 0.411 0.436 0.057 0.018 0.114 0.136 0.169 0.136h1.794c0.086 0 0.186-0.234 0.285-0.268l1.282 1.068h4.441c0 0-3.471-3.414-3.471-3.453v-1.918c-0.001-0.22-0.149-0.478-0.346-0.574l-2.737-1.368c-0.197-0.099-0.481-0.043-0.637 0.113l-0.298 0.316c-0.157 0.156-0.155 0.446 0 0.6l1.6 1.597c0.155 0.154 0.154 0.341-0.002 0.498l-0.731 0.731c-0.155 0.155-0.41 0.155-0.566 0l-1.597-1.597c-0.155-0.154-0.41-0.154-0.566 0l-0.298 0.299c-0.156 0.154-0.203 0.445-0.104 0.639l0.921 1.843z"></path>
</svg>
