<?xml version="1.0" encoding="utf-8"?>
<!-- Generated by IcoMoon.io -->
<!DOCTYPE svg PUBLIC "-//W3C//DTD SVG 1.1//EN" "http://www.w3.org/Graphics/SVG/1.1/DTD/svg11.dtd">
<svg version="1.1" xmlns="http://www.w3.org/2000/svg" xmlns:xlink="http://www.w3.org/1999/xlink" width="32" height="32" viewBox="0 0 32 32">
<path d="M28.8 24.045c0 0.425-0.346 0.77-0.771 0.77h-8.631c-0.426 0-0.77-0.345-0.77-0.77v-4.166c0-0.426 0.345-0.771 0.77-0.771h3.758l-6.401-6.401h-1.315l-6.4 6.401h3.562c0.426 0 0.77 0.346 0.77 0.771v4.166c0 0.425-0.345 0.77-0.77 0.77h-8.631c-0.426 0-0.77-0.345-0.77-0.77v-4.166c0-0.426 0.345-0.771 0.77-0.771h3.414l6.398-6.401h-2c-0.426 0-0.77-0.345-0.77-0.769v-4.167c0-0.426 0.346-0.771 0.77-0.771h8.632c0.426 0 0.771 0.346 0.771 0.771v4.167c0 0.424-0.346 0.769-0.771 0.769h-2.001l6.399 6.401h3.217c0.426 0 0.771 0.346 0.771 0.771l-0.001 4.166z"></path>
</svg>
