<?xml version="1.0" encoding="utf-8"?>
<!-- Generated by IcoMoon.io -->
<!DOCTYPE svg PUBLIC "-//W3C//DTD SVG 1.1//EN" "http://www.w3.org/Graphics/SVG/1.1/DTD/svg11.dtd">
<svg version="1.1" xmlns="http://www.w3.org/2000/svg" xmlns:xlink="http://www.w3.org/1999/xlink" width="32" height="32" viewBox="0 0 32 32">
<path d="M12.284 18.639c-0.255 0.108-0.512 0.161-0.772 0.161-0.41 0-0.779-0.072-1.106-0.214s-0.604-0.339-0.829-0.589-0.398-0.544-0.518-0.881c-0.12-0.337-0.18-0.701-0.18-1.091 0-0.4 0.060-0.771 0.18-1.114s0.293-0.642 0.518-0.896 0.501-0.455 0.829-0.6c0.328-0.145 0.697-0.217 1.106-0.217 0.275 0 0.541 0.041 0.799 0.123s0.49 0.204 0.697 0.364c0.207 0.16 0.379 0.357 0.514 0.593s0.217 0.505 0.248 0.81h-1.125c-0.070-0.3-0.205-0.525-0.405-0.675s-0.443-0.225-0.728-0.225c-0.265 0-0.49 0.052-0.675 0.154s-0.335 0.24-0.45 0.412-0.198 0.368-0.251 0.589-0.079 0.447-0.079 0.683c0 0.224 0.027 0.444 0.079 0.656s0.136 0.404 0.251 0.573 0.265 0.306 0.45 0.409 0.41 0.154 0.675 0.154c0.39 0 0.691-0.099 0.904-0.296s0.336-0.484 0.371-0.859h-1.185v-0.877h2.25v2.895h-0.75l-0.12-0.608c-0.21 0.271-0.442 0.46-0.697 0.568zM18.57 13.325v0.989h-2.587v1.238h2.242v0.915h-2.242v2.212h-1.178v-5.355h3.764zM23.017 13.325v0.989h-2.587v1.238h2.242v0.915h-2.242v2.212h-1.177v-5.355h3.765zM28.043 6.397l-4.437-4.436c-0.965-0.966-2.873-1.756-4.24-1.756h-14.904c-1.366 0-2.483 1.117-2.483 2.484v26.828c0 1.366 1.118 2.484 2.484 2.484h22.853c1.366 0 2.485-1.118 2.485-2.485v-18.878c-0-1.367-0.791-3.275-1.757-4.24zM26.637 7.803c0.096 0.098 0.192 0.216 0.288 0.351h-5.076v-5.075c0.135 0.094 0.255 0.19 0.352 0.288l4.436 4.436zM27.811 29.517c0 0.27-0.227 0.497-0.497 0.497h-22.853c-0.269 0-0.497-0.227-0.497-0.497v-26.828c0-0.27 0.227-0.497 0.497-0.497h14.904c0.151 0 0.319 0.019 0.497 0.052v7.896h7.897c0.034 0.178 0.052 0.348 0.052 0.497v18.879z"></path>
</svg>
