<?xml version="1.0" encoding="utf-8"?>
<!-- Generated by IcoMoon.io -->
<!DOCTYPE svg PUBLIC "-//W3C//DTD SVG 1.1//EN" "http://www.w3.org/Graphics/SVG/1.1/DTD/svg11.dtd">
<svg version="1.1" xmlns="http://www.w3.org/2000/svg" xmlns:xlink="http://www.w3.org/1999/xlink" width="32" height="32" viewBox="0 0 32 32">
<path d="M8.317 13.325v0.989h-2.588v1.238h2.242v0.915h-2.242v2.212h-1.178v-5.355h3.765zM11.069 13.325l2.002 5.355h-1.223l-0.405-1.192h-2.002l-0.42 1.192h-1.185l2.025-5.355h1.207zM11.137 16.61l-0.675-1.966h-0.015l-0.697 1.966h1.387zM14.249 17.36c0.065 0.125 0.151 0.226 0.259 0.303s0.233 0.135 0.379 0.172 0.295 0.056 0.45 0.056c0.105 0 0.217-0.009 0.338-0.026s0.232-0.051 0.338-0.101 0.192-0.119 0.262-0.206 0.105-0.198 0.105-0.334c0-0.145-0.047-0.262-0.139-0.352s-0.213-0.165-0.364-0.225c-0.15-0.059-0.32-0.113-0.51-0.157s-0.383-0.095-0.578-0.15c-0.2-0.050-0.395-0.111-0.585-0.184s-0.36-0.166-0.51-0.281c-0.15-0.114-0.271-0.259-0.364-0.431s-0.139-0.382-0.139-0.626c0-0.275 0.059-0.514 0.176-0.716s0.271-0.371 0.462-0.507c0.19-0.136 0.405-0.235 0.645-0.3s0.48-0.098 0.72-0.098c0.28 0 0.549 0.031 0.806 0.094s0.486 0.164 0.686 0.303c0.2 0.14 0.358 0.319 0.476 0.536 0.117 0.218 0.177 0.482 0.177 0.791h-1.14c-0.010-0.16-0.044-0.293-0.101-0.398s-0.134-0.188-0.229-0.248c-0.095-0.060-0.204-0.102-0.326-0.127s-0.256-0.037-0.401-0.037c-0.095 0-0.19 0.010-0.285 0.030s-0.181 0.055-0.258 0.105c-0.078 0.050-0.142 0.113-0.191 0.188s-0.075 0.17-0.075 0.285c0 0.105 0.020 0.19 0.060 0.255s0.118 0.125 0.236 0.18 0.28 0.11 0.488 0.165 0.479 0.125 0.813 0.21c0.1 0.020 0.239 0.056 0.416 0.109 0.177 0.052 0.354 0.136 0.529 0.251s0.326 0.269 0.453 0.461 0.192 0.439 0.192 0.739c0 0.245-0.048 0.472-0.142 0.682s-0.236 0.392-0.424 0.544c-0.188 0.153-0.42 0.271-0.698 0.357s-0.599 0.128-0.964 0.128c-0.295 0-0.582-0.037-0.858-0.109s-0.522-0.186-0.735-0.341c-0.213-0.155-0.382-0.352-0.506-0.593s-0.185-0.525-0.18-0.855h1.14c0.001 0.18 0.033 0.332 0.098 0.457zM17.61 14.315v-0.989h4.387v0.989h-1.605v4.365h-1.177v-4.365h-1.605zM26.122 18.492c-0.355 0.205-0.787 0.308-1.297 0.308-0.41 0-0.779-0.072-1.106-0.214s-0.604-0.339-0.829-0.589c-0.224-0.25-0.398-0.544-0.517-0.881s-0.18-0.701-0.18-1.091c0-0.4 0.060-0.771 0.18-1.114s0.293-0.642 0.517-0.896c0.225-0.255 0.502-0.455 0.829-0.6s0.697-0.217 1.106-0.217c0.415 0 0.785 0.072 1.11 0.217s0.6 0.345 0.825 0.6 0.398 0.553 0.517 0.896c0.12 0.342 0.18 0.713 0.18 1.114 0 0.39-0.059 0.753-0.18 1.087s-0.293 0.63-0.517 0.885l0.668 0.608-0.547 0.57-0.758-0.683zM25.949 17.255c0.1-0.136 0.18-0.302 0.24-0.503 0.059-0.2 0.090-0.442 0.090-0.727 0-0.236-0.026-0.463-0.078-0.682s-0.137-0.416-0.252-0.589-0.265-0.31-0.45-0.412-0.41-0.154-0.675-0.154-0.489 0.052-0.675 0.154-0.335 0.24-0.45 0.412c-0.114 0.172-0.198 0.368-0.251 0.589s-0.079 0.447-0.079 0.682c0 0.224 0.026 0.444 0.079 0.656s0.136 0.404 0.251 0.573c0.115 0.17 0.265 0.306 0.45 0.409s0.41 0.154 0.675 0.154c0.085 0 0.175-0.003 0.27-0.008s0.163-0.027 0.203-0.067l-0.503-0.457 0.547-0.585 0.608 0.556zM28.043 6.397l-4.437-4.436c-0.965-0.966-2.873-1.756-4.24-1.756h-14.904c-1.366 0-2.483 1.117-2.483 2.484v26.828c0 1.366 1.118 2.484 2.484 2.484h22.853c1.366 0 2.485-1.118 2.485-2.485v-18.878c-0-1.367-0.791-3.275-1.757-4.24zM26.637 7.803c0.096 0.098 0.192 0.216 0.288 0.351h-5.076v-5.075c0.135 0.094 0.255 0.19 0.352 0.288l4.436 4.436zM27.811 29.517c0 0.27-0.227 0.497-0.497 0.497h-22.853c-0.269 0-0.497-0.227-0.497-0.497v-26.828c0-0.27 0.227-0.497 0.497-0.497h14.904c0.151 0 0.319 0.019 0.497 0.052v7.896h7.897c0.034 0.178 0.052 0.348 0.052 0.497v18.879z"></path>
</svg>
