<?xml version="1.0" encoding="utf-8"?>
<!-- Generated by IcoMoon.io -->
<!DOCTYPE svg PUBLIC "-//W3C//DTD SVG 1.1//EN" "http://www.w3.org/Graphics/SVG/1.1/DTD/svg11.dtd">
<svg version="1.1" xmlns="http://www.w3.org/2000/svg" xmlns:xlink="http://www.w3.org/1999/xlink" width="32" height="32" viewBox="0 0 32 32">
<path d="M10.316 13.325c0.255 0 0.488 0.023 0.697 0.068s0.39 0.119 0.54 0.221c0.15 0.102 0.267 0.239 0.349 0.409 0.082 0.171 0.124 0.38 0.124 0.63 0 0.27-0.062 0.495-0.184 0.675s-0.303 0.328-0.543 0.443c0.33 0.095 0.576 0.261 0.739 0.499s0.243 0.524 0.243 0.858c0 0.27-0.053 0.504-0.158 0.701s-0.246 0.359-0.424 0.483c-0.178 0.125-0.38 0.218-0.607 0.278s-0.461 0.090-0.701 0.090h-2.595v-5.355h2.519zM10.166 15.492c0.21 0 0.383-0.050 0.518-0.15s0.203-0.262 0.203-0.488c0-0.124-0.023-0.227-0.068-0.307s-0.105-0.143-0.18-0.188c-0.075-0.046-0.162-0.076-0.259-0.094s-0.198-0.027-0.303-0.027h-1.102v1.252h1.192zM10.233 17.765c0.115 0 0.225-0.011 0.33-0.034s0.197-0.060 0.277-0.113c0.080-0.052 0.143-0.124 0.191-0.214s0.072-0.205 0.072-0.345c0-0.275-0.078-0.471-0.232-0.589s-0.36-0.176-0.615-0.176h-1.283v1.47h1.26zM15.746 13.325l2.002 5.355h-1.223l-0.405-1.192h-2.002l-0.42 1.192h-1.185l2.025-5.355h1.207zM15.813 16.61l-0.675-1.966h-0.015l-0.697 1.966h1.387zM19.871 13.325l1.253 3.683h0.015l1.185-3.683h1.657v5.355h-1.102v-3.795h-0.015l-1.313 3.795h-0.907l-1.313-3.758h-0.015v3.758h-1.102v-5.355h1.657zM28.043 6.397l-4.437-4.436c-0.965-0.966-2.873-1.756-4.24-1.756h-14.904c-1.366 0-2.483 1.117-2.483 2.484v26.828c0 1.366 1.118 2.484 2.484 2.484h22.853c1.366 0 2.485-1.118 2.485-2.485v-18.878c-0-1.367-0.791-3.275-1.757-4.24zM26.637 7.803c0.096 0.098 0.192 0.216 0.288 0.351h-5.076v-5.075c0.135 0.094 0.255 0.19 0.352 0.288l4.436 4.436zM27.811 29.517c0 0.27-0.227 0.497-0.497 0.497h-22.853c-0.269 0-0.497-0.227-0.497-0.497v-26.828c0-0.27 0.227-0.497 0.497-0.497h14.904c0.151 0 0.319 0.019 0.497 0.052v7.896h7.897c0.034 0.178 0.052 0.348 0.052 0.497v18.879z"></path>
</svg>
