<?xml version="1.0" encoding="utf-8"?>
<!-- Generated by IcoMoon.io -->
<!DOCTYPE svg PUBLIC "-//W3C//DTD SVG 1.1//EN" "http://www.w3.org/Graphics/SVG/1.1/DTD/svg11.dtd">
<svg version="1.1" xmlns="http://www.w3.org/2000/svg" xmlns:xlink="http://www.w3.org/1999/xlink" width="32" height="32" viewBox="0 0 32 32">
<path d="M7.878 14.911c0.12-0.343 0.292-0.642 0.517-0.896s0.501-0.455 0.829-0.6c0.328-0.145 0.697-0.217 1.106-0.217 0.415 0 0.785 0.072 1.11 0.217s0.6 0.345 0.825 0.6c0.225 0.255 0.398 0.553 0.518 0.896s0.18 0.713 0.18 1.114c0 0.39-0.060 0.753-0.18 1.091s-0.293 0.631-0.518 0.881-0.5 0.447-0.825 0.589c-0.325 0.142-0.695 0.214-1.11 0.214-0.41 0-0.779-0.072-1.106-0.214s-0.604-0.339-0.829-0.589-0.397-0.544-0.518-0.881c-0.12-0.337-0.18-0.701-0.18-1.091-0-0.4 0.060-0.771 0.18-1.114zM8.954 16.681c0.053 0.212 0.136 0.404 0.251 0.573s0.265 0.306 0.45 0.409 0.41 0.154 0.675 0.154c0.265 0 0.49-0.052 0.675-0.154s0.335-0.239 0.45-0.409 0.198-0.361 0.251-0.573c0.053-0.213 0.079-0.431 0.079-0.656 0-0.236-0.027-0.463-0.079-0.682s-0.136-0.416-0.251-0.589-0.265-0.31-0.45-0.412c-0.185-0.102-0.41-0.154-0.675-0.154s-0.49 0.052-0.675 0.154-0.335 0.24-0.45 0.412-0.198 0.368-0.251 0.589-0.079 0.447-0.079 0.682c0 0.224 0.027 0.443 0.079 0.656zM16.286 13.325c0.255 0 0.487 0.023 0.698 0.068s0.39 0.119 0.54 0.221c0.151 0.102 0.267 0.239 0.349 0.409 0.082 0.171 0.123 0.38 0.123 0.63 0 0.27-0.061 0.495-0.183 0.675s-0.303 0.328-0.544 0.443c0.33 0.095 0.576 0.261 0.739 0.499s0.244 0.524 0.244 0.858c0 0.27-0.052 0.504-0.157 0.701s-0.247 0.359-0.424 0.483c-0.177 0.125-0.38 0.218-0.608 0.278s-0.462 0.090-0.701 0.090h-2.595v-5.355h2.52zM16.136 15.492c0.21 0 0.383-0.050 0.517-0.15s0.202-0.262 0.202-0.488c0-0.124-0.023-0.227-0.067-0.307s-0.105-0.143-0.18-0.188c-0.075-0.046-0.162-0.076-0.259-0.094s-0.198-0.027-0.303-0.027h-1.102v1.252h1.192zM16.203 17.765c0.115 0 0.225-0.011 0.33-0.034s0.198-0.060 0.277-0.113c0.080-0.052 0.143-0.124 0.192-0.214s0.072-0.205 0.072-0.345c0-0.275-0.078-0.471-0.233-0.589s-0.36-0.176-0.615-0.176h-1.283v1.47h1.26zM18.993 14.911c0.12-0.343 0.293-0.642 0.517-0.896s0.501-0.455 0.829-0.6 0.697-0.217 1.107-0.217c0.415 0 0.785 0.072 1.11 0.217s0.6 0.345 0.825 0.6c0.224 0.255 0.398 0.553 0.517 0.896s0.18 0.713 0.18 1.114c0 0.39-0.060 0.753-0.18 1.091s-0.293 0.631-0.517 0.881c-0.225 0.25-0.5 0.447-0.825 0.589s-0.695 0.214-1.11 0.214c-0.41 0-0.779-0.072-1.107-0.214s-0.604-0.339-0.828-0.589-0.398-0.544-0.517-0.881c-0.12-0.337-0.18-0.701-0.18-1.091 0-0.4 0.060-0.771 0.18-1.114zM20.070 16.681c0.052 0.212 0.136 0.404 0.252 0.573 0.114 0.17 0.265 0.306 0.45 0.409s0.41 0.154 0.675 0.154c0.265 0 0.489-0.052 0.675-0.154s0.335-0.239 0.45-0.409c0.114-0.17 0.198-0.361 0.251-0.573 0.052-0.213 0.079-0.431 0.079-0.656 0-0.236-0.026-0.463-0.079-0.682s-0.136-0.416-0.251-0.589-0.265-0.31-0.45-0.412-0.41-0.154-0.675-0.154c-0.265 0-0.49 0.052-0.675 0.154s-0.335 0.24-0.45 0.412c-0.115 0.172-0.198 0.368-0.252 0.589-0.052 0.22-0.078 0.447-0.078 0.682-0 0.224 0.026 0.443 0.078 0.656zM28.043 6.397l-4.437-4.436c-0.965-0.966-2.873-1.756-4.24-1.756h-14.904c-1.366 0-2.483 1.117-2.483 2.484v26.828c0 1.366 1.118 2.484 2.484 2.484h22.853c1.366 0 2.485-1.118 2.485-2.485v-18.878c-0-1.367-0.791-3.275-1.757-4.24zM26.637 7.803c0.096 0.098 0.192 0.216 0.288 0.351h-5.076v-5.075c0.135 0.094 0.255 0.19 0.352 0.288l4.436 4.436zM27.811 29.517c0 0.27-0.227 0.497-0.497 0.497h-22.853c-0.269 0-0.497-0.227-0.497-0.497v-26.828c0-0.27 0.227-0.497 0.497-0.497h14.904c0.151 0 0.319 0.019 0.497 0.052v7.896h7.897c0.034 0.178 0.052 0.348 0.052 0.497v18.879z"></path>
</svg>
