<?xml version="1.0" encoding="utf-8"?>
<!-- Generated by IcoMoon.io -->
<!DOCTYPE svg PUBLIC "-//W3C//DTD SVG 1.1//EN" "http://www.w3.org/Graphics/SVG/1.1/DTD/svg11.dtd">
<svg version="1.1" xmlns="http://www.w3.org/2000/svg" xmlns:xlink="http://www.w3.org/1999/xlink" width="32" height="32" viewBox="0 0 32 32">
<path d="M8.649 16.732l1.051 0.333c-0.161 0.586-0.429 1.020-0.803 1.305-0.375 0.284-0.851 0.427-1.426 0.427-0.713 0-1.299-0.244-1.758-0.732-0.459-0.486-0.689-1.152-0.689-1.997 0-0.893 0.231-1.588 0.692-2.082s1.068-0.741 1.82-0.741c0.657 0 1.19 0.194 1.6 0.582 0.244 0.229 0.427 0.559 0.55 0.989l-1.073 0.257c-0.063-0.278-0.196-0.498-0.397-0.659s-0.447-0.242-0.734-0.242c-0.398 0-0.721 0.143-0.969 0.428s-0.372 0.748-0.372 1.388c0 0.678 0.122 1.162 0.366 1.45s0.561 0.433 0.952 0.433c0.288 0 0.536-0.092 0.744-0.274 0.208-0.184 0.357-0.472 0.447-0.864zM10.258 18.705v-5.369h2.281c0.573 0 0.991 0.049 1.251 0.145s0.468 0.268 0.624 0.514c0.156 0.246 0.235 0.529 0.235 0.846 0 0.402-0.118 0.736-0.355 0.998s-0.591 0.428-1.062 0.497c0.235 0.137 0.428 0.287 0.581 0.451 0.152 0.163 0.358 0.454 0.617 0.871l0.655 1.049h-1.296l-0.784-1.168c-0.278-0.418-0.469-0.68-0.572-0.79-0.102-0.108-0.211-0.183-0.326-0.223s-0.296-0.061-0.546-0.061h-0.22v2.241h-1.084zM11.342 15.607h0.802c0.52 0 0.845-0.022 0.974-0.066s0.23-0.12 0.304-0.227 0.11-0.242 0.11-0.403c0-0.181-0.049-0.326-0.145-0.438s-0.232-0.181-0.409-0.211c-0.088-0.011-0.351-0.018-0.791-0.018h-0.846v1.363zM20.512 18.705h-1.178l-0.469-1.22h-2.146l-0.443 1.22h-1.15l2.091-5.369h1.146l2.149 5.369zM18.517 16.581l-0.739-1.992-0.725 1.992h1.465zM21.073 18.705v-5.369h1.622l0.974 3.662 0.963-3.662h1.626v5.369h-1.008v-4.226l-1.066 4.226h-1.044l-1.062-4.226v4.226h-1.007zM28.043 6.397l-4.437-4.436c-0.965-0.966-2.873-1.756-4.24-1.756h-14.904c-1.366 0-2.483 1.117-2.483 2.484v26.828c0 1.366 1.118 2.484 2.484 2.484h22.853c1.366 0 2.485-1.118 2.485-2.485v-18.878c-0-1.367-0.791-3.275-1.757-4.24zM26.637 7.803c0.096 0.098 0.192 0.216 0.288 0.351h-5.076v-5.075c0.135 0.094 0.255 0.19 0.352 0.288l4.436 4.436zM27.811 29.517c0 0.27-0.227 0.497-0.497 0.497h-22.853c-0.269 0-0.497-0.227-0.497-0.497v-26.828c0-0.27 0.227-0.497 0.497-0.497h14.904c0.151 0 0.319 0.019 0.497 0.052v7.896h7.897c0.034 0.178 0.052 0.348 0.052 0.497v18.879z"></path>
</svg>
