<?xml version="1.0" encoding="utf-8"?>
<!-- Generated by IcoMoon.io -->
<!DOCTYPE svg PUBLIC "-//W3C//DTD SVG 1.1//EN" "http://www.w3.org/Graphics/SVG/1.1/DTD/svg11.dtd">
<svg version="1.1" xmlns="http://www.w3.org/2000/svg" xmlns:xlink="http://www.w3.org/1999/xlink" width="32" height="32" viewBox="0 0 32 32">
<path d="M11.438 14.754c-0.070-0.113-0.158-0.211-0.262-0.296s-0.224-0.151-0.356-0.198c-0.133-0.047-0.271-0.072-0.416-0.072-0.265 0-0.49 0.052-0.675 0.154s-0.335 0.24-0.45 0.412-0.198 0.368-0.251 0.589-0.079 0.447-0.079 0.683c0 0.224 0.027 0.444 0.079 0.656s0.136 0.404 0.251 0.573 0.265 0.306 0.45 0.409 0.41 0.154 0.675 0.154c0.36 0 0.642-0.11 0.844-0.33s0.326-0.511 0.371-0.87h1.14c-0.030 0.335-0.107 0.637-0.232 0.907s-0.29 0.5-0.495 0.69-0.445 0.335-0.72 0.435c-0.275 0.099-0.578 0.15-0.908 0.15-0.41 0-0.779-0.072-1.106-0.214s-0.604-0.339-0.829-0.589-0.398-0.544-0.518-0.881c-0.12-0.337-0.18-0.701-0.18-1.091 0-0.4 0.060-0.771 0.18-1.114s0.293-0.642 0.518-0.896 0.501-0.455 0.829-0.6c0.328-0.145 0.697-0.217 1.106-0.217 0.295 0 0.573 0.043 0.836 0.127s0.498 0.209 0.705 0.371c0.207 0.162 0.379 0.364 0.514 0.604s0.22 0.515 0.255 0.825h-1.14c-0.021-0.133-0.065-0.258-0.135-0.37zM15.217 13.325l1.252 3.683h0.015l1.185-3.683h1.657v5.355h-1.102v-3.795h-0.015l-1.313 3.795h-0.907l-1.313-3.758h-0.015v3.758h-1.103v-5.355h1.658zM21.54 13.325v4.364h2.61v0.99h-3.787v-5.355h1.177zM28.043 6.397l-4.437-4.436c-0.965-0.966-2.873-1.756-4.24-1.756h-14.904c-1.366 0-2.483 1.117-2.483 2.484v26.828c0 1.366 1.118 2.484 2.484 2.484h22.853c1.366 0 2.485-1.118 2.485-2.485v-18.878c-0-1.367-0.791-3.275-1.757-4.24zM26.637 7.803c0.096 0.098 0.192 0.216 0.288 0.351h-5.076v-5.075c0.135 0.094 0.255 0.19 0.352 0.288l4.436 4.436zM27.811 29.517c0 0.27-0.227 0.497-0.497 0.497h-22.853c-0.269 0-0.497-0.227-0.497-0.497v-26.828c0-0.27 0.227-0.497 0.497-0.497h14.904c0.151 0 0.319 0.019 0.497 0.052v7.896h7.897c0.034 0.178 0.052 0.348 0.052 0.497v18.879z"></path>
</svg>
