<?xml version="1.0" encoding="utf-8"?>
<!-- Generated by IcoMoon.io -->
<!DOCTYPE svg PUBLIC "-//W3C//DTD SVG 1.1//EN" "http://www.w3.org/Graphics/SVG/1.1/DTD/svg11.dtd">
<svg version="1.1" xmlns="http://www.w3.org/2000/svg" xmlns:xlink="http://www.w3.org/1999/xlink" width="32" height="32" viewBox="0 0 32 32">
<path d="M13.807 13.325c0.24 0 0.457 0.039 0.649 0.116s0.357 0.184 0.495 0.319c0.137 0.135 0.242 0.291 0.315 0.469s0.108 0.368 0.108 0.573c0 0.315-0.066 0.588-0.198 0.818s-0.348 0.406-0.649 0.525v0.015c0.145 0.040 0.265 0.101 0.36 0.183s0.172 0.18 0.232 0.293c0.060 0.113 0.104 0.236 0.131 0.372s0.046 0.27 0.056 0.405c0.005 0.085 0.010 0.185 0.015 0.3 0.005 0.114 0.014 0.233 0.027 0.352s0.033 0.234 0.060 0.341c0.027 0.108 0.069 0.198 0.123 0.274h-1.178c-0.065-0.17-0.105-0.372-0.12-0.608s-0.037-0.46-0.068-0.675c-0.040-0.28-0.125-0.485-0.255-0.614s-0.342-0.195-0.637-0.195h-1.178v2.093h-1.178v-5.355h2.887zM13.387 15.747c0.27 0 0.473-0.060 0.607-0.18s0.203-0.316 0.203-0.585c0-0.261-0.068-0.448-0.203-0.566s-0.338-0.177-0.607-0.177h-1.29v1.508h1.29zM18.645 13.325c0.345 0 0.666 0.055 0.964 0.165s0.555 0.275 0.773 0.495c0.218 0.22 0.387 0.495 0.51 0.825s0.184 0.718 0.184 1.162c0 0.39-0.050 0.75-0.151 1.080s-0.251 0.614-0.453 0.855c-0.203 0.239-0.455 0.428-0.758 0.567-0.302 0.137-0.659 0.206-1.069 0.206h-2.31v-5.355h2.31zM18.562 17.689c0.17 0 0.335-0.027 0.495-0.082s0.302-0.146 0.427-0.274 0.225-0.294 0.3-0.499c0.075-0.204 0.113-0.454 0.113-0.75 0-0.27-0.026-0.514-0.078-0.731s-0.139-0.404-0.259-0.559c-0.12-0.155-0.279-0.274-0.476-0.357-0.198-0.082-0.442-0.124-0.732-0.124h-0.84v3.375h1.050zM28.043 6.397l-4.437-4.436c-0.965-0.966-2.873-1.756-4.24-1.756h-14.904c-1.366 0-2.483 1.117-2.483 2.484v26.828c0 1.366 1.118 2.484 2.484 2.484h22.853c1.366 0 2.485-1.118 2.485-2.485v-18.878c-0-1.367-0.791-3.275-1.757-4.24zM26.637 7.803c0.096 0.098 0.192 0.216 0.288 0.351h-5.076v-5.075c0.135 0.094 0.255 0.19 0.352 0.288l4.436 4.436zM27.811 29.517c0 0.27-0.227 0.497-0.497 0.497h-22.853c-0.269 0-0.497-0.227-0.497-0.497v-26.828c0-0.27 0.227-0.497 0.497-0.497h14.904c0.151 0 0.319 0.019 0.497 0.052v7.896h7.897c0.034 0.178 0.052 0.348 0.052 0.497v18.879z"></path>
</svg>
