<?xml version="1.0" encoding="utf-8"?>
<!-- Generated by IcoMoon.io -->
<!DOCTYPE svg PUBLIC "-//W3C//DTD SVG 1.1//EN" "http://www.w3.org/Graphics/SVG/1.1/DTD/svg11.dtd">
<svg version="1.1" xmlns="http://www.w3.org/2000/svg" xmlns:xlink="http://www.w3.org/1999/xlink" width="32" height="32" viewBox="0 0 32 32">
<path d="M24.585 0.319c0.249-0.249 0.653-0.249 0.904 0l6.325 6.325c0.249 0.249 0.249 0.655 0 0.904l-8.585 8.584 8.583 8.585c0.25 0.249 0.25 0.655 0.001 0.904l-6.325 6.325c-0.25 0.249-0.654 0.248-0.905-0.001l-8.583-8.584-8.584 8.584c-0.249 0.248-0.655 0.248-0.904 0l-6.325-6.325c-0.249-0.249-0.249-0.655 0-0.903l8.584-8.585-8.584-8.584c-0.249-0.249-0.249-0.654 0-0.904l6.325-6.325c0.249-0.249 0.655-0.249 0.904 0l8.584 8.584 8.585-8.584z"></path>
</svg>
