<?xml version="1.0" encoding="utf-8"?>
<!-- Generated by IcoMoon.io -->
<!DOCTYPE svg PUBLIC "-//W3C//DTD SVG 1.1//EN" "http://www.w3.org/Graphics/SVG/1.1/DTD/svg11.dtd">
<svg version="1.1" xmlns="http://www.w3.org/2000/svg" xmlns:xlink="http://www.w3.org/1999/xlink" width="32" height="32" viewBox="0 0 32 32">
<path d="M31.63 17.587c0.493 0.488 0.493 1.287-0.001 1.779l-0.897 0.889-0.479 0.473-3.81-3.773 0.478-0.473 0.896-0.889c0.495-0.492 1.308-0.492 1.801-0.002l2.012 1.996zM15.423 28.292l3.383 3.352-3.876 0.488zM22.511 17.92l-6.020 5.963c-0.939 0.103-1.921 0.178-2.921 0.217-0.020 0.001-0.039 0.001-0.059 0.002-0.488 0.017-0.979 0.030-1.471 0.030-0.007 0-0.014 0-0.021 0s-0.014 0-0.021 0c-0.492 0-0.983-0.012-1.471-0.030-0.019-0.001-0.039-0.001-0.058-0.002-4.671-0.18-9.009-1.139-9.95-2.101-1.043-1.066-0.331-2.92 0.521-3.734 0.888-0.847 3.448-1.32 5.732-1.902 0.587-0.151 1.938-0.596 2.096-1.346-0.023-2.58-1.045-2.618-1.566-3.684-0.522-1.066-1.42-3.701-0.522-8.002 0.677-3.23 5.218-3.199 5.218-3.199s0.015 0 0.021 0c0.006 0 0.021 0 0.021 0s4.542-0.031 5.219 3.199c0.898 4.3 0 6.935-0.523 8.001-0.521 1.067-1.542 1.104-1.566 3.684 0.158 0.75 1.51 1.196 2.096 1.346 1.954 0.498 4.106 0.917 5.245 1.558zM25.016 18.368l3.812 3.776-8.38 8.299-3.811-3.776z"></path>
</svg>
