<?xml version="1.0" encoding="utf-8"?>
<!-- Generated by IcoMoon.io -->
<!DOCTYPE svg PUBLIC "-//W3C//DTD SVG 1.1//EN" "http://www.w3.org/Graphics/SVG/1.1/DTD/svg11.dtd">
<svg version="1.1" xmlns="http://www.w3.org/2000/svg" xmlns:xlink="http://www.w3.org/1999/xlink" width="32" height="32" viewBox="0 0 32 32">
<path d="M21.842 6.098c-2.175 0-4.187 0.693-5.841 1.86-1.654-1.167-3.667-1.86-5.841-1.86-5.602 0-10.159 4.558-10.159 10.159s4.557 10.16 10.159 10.16c2.174 0 4.187-0.692 5.841-1.861 1.655 1.169 3.667 1.861 5.841 1.861 5.601 0 10.158-4.558 10.158-10.16 0-5.601-4.558-10.159-10.158-10.159zM16.001 20.303c-0.799-1.149-1.271-2.542-1.271-4.045s0.472-2.896 1.271-4.045c0.799 1.148 1.27 2.542 1.27 4.045s-0.471 2.895-1.27 4.045zM3.048 16.257c0-3.922 3.19-7.111 7.111-7.111 1.313 0 2.54 0.364 3.596 0.986-1.294 1.705-2.073 3.823-2.073 6.125s0.778 4.419 2.073 6.125c-1.057 0.623-2.283 0.987-3.596 0.987-3.921 0-7.111-3.19-7.111-7.112zM21.842 23.369c-1.312 0-2.539-0.364-3.596-0.987 1.295-1.705 2.072-3.822 2.072-6.125 0-2.302-0.777-4.42-2.072-6.125 1.057-0.622 2.283-0.986 3.596-0.986 3.92 0 7.111 3.189 7.111 7.111s-3.191 7.112-7.111 7.112z"></path>
</svg>
