<?xml version="1.0" encoding="utf-8"?>
<!-- Generated by IcoMoon.io -->
<!DOCTYPE svg PUBLIC "-//W3C//DTD SVG 1.1//EN" "http://www.w3.org/Graphics/SVG/1.1/DTD/svg11.dtd">
<svg version="1.1" xmlns="http://www.w3.org/2000/svg" xmlns:xlink="http://www.w3.org/1999/xlink" width="32" height="32" viewBox="0 0 32 32">
<path d="M21.214 2.232h-9.928c-0.546 0-0.993 0.446-0.993 0.993s0.447 0.993 0.993 0.993h0.993v6.668c0 1.092-0.461 2.752-1.024 3.687l-5.895 9.789c-0.564 0.935-0.625 2.5-0.136 3.478l0.209 0.418c0.489 0.977 1.782 1.776 2.874 1.776h15.887c1.091 0 2.385-0.798 2.873-1.776l0.209-0.418c0.489-0.978 0.428-2.543-0.136-3.478l-5.895-9.789c-0.563-0.935-1.024-2.595-1.024-3.687v-6.667h0.993c0.546 0 0.993-0.446 0.993-0.993 0-0.548-0.447-0.993-0.993-0.993zM21.214 0.132v0c1.706 0 3.094 1.388 3.092 3.093 0 1.315-0.825 2.442-1.986 2.888v4.771c0 0.708 0.359 1.998 0.723 2.603l5.895 9.788c0.94 1.559 1.030 3.871 0.217 5.5l-0.21 0.419c-0.851 1.704-2.851 2.938-4.752 2.938h-15.886c-1.903 0-3.901-1.234-4.754-2.939l-0.208-0.417c-0.815-1.629-0.724-3.942 0.215-5.5l5.895-9.79c0.365-0.604 0.723-1.894 0.723-2.602v-4.771c-1.16-0.446-1.986-1.573-1.986-2.888 0-1.705 1.388-3.093 3.093-3.093h9.929zM25.458 24.726c0 0 0.42 0.793 0.422 1.259 0 1.038-0.797 1.881-1.811 1.974l-0.007 0.020h-15.621l-0.008-0.020c-1.014-0.093-1.81-0.936-1.81-1.974 0-0.466 0.419-1.259 0.419-1.259l4.929-7.866h8.558l4.929 7.866z"></path>
</svg>
