<?xml version="1.0" encoding="utf-8"?>
<!-- Generated by IcoMoon.io -->
<!DOCTYPE svg PUBLIC "-//W3C//DTD SVG 1.1//EN" "http://www.w3.org/Graphics/SVG/1.1/DTD/svg11.dtd">
<svg version="1.1" xmlns="http://www.w3.org/2000/svg" xmlns:xlink="http://www.w3.org/1999/xlink" width="32" height="32" viewBox="0 0 32 32">
<path d="M31.36 18.253c0.092-0.693 0.14-1.401 0.14-2.121s-0.048-1.427-0.14-2.121l-2.402-0.199c-0.216-1.25-0.599-2.44-1.131-3.544l1.826-1.595c-0.666-1.255-1.494-2.409-2.456-3.431l-2.059 1.273c-0.878-0.864-1.874-1.604-2.963-2.193l0.556-2.381c-1.239-0.609-2.571-1.055-3.97-1.31l-0.93 2.26c-0.598-0.084-1.209-0.131-1.831-0.131s-1.233 0.046-1.832 0.132l-0.93-2.26c-1.397 0.255-2.73 0.701-3.97 1.311l0.555 2.38c-1.088 0.59-2.085 1.33-2.964 2.193l-2.058-1.273c-0.962 1.023-1.79 2.175-2.455 3.431l1.826 1.595c-0.531 1.104-0.915 2.295-1.13 3.544l-2.402 0.199c-0.092 0.693-0.14 1.401-0.14 2.12s0.048 1.428 0.14 2.121l2.401 0.198c0.216 1.25 0.599 2.44 1.13 3.545l-1.826 1.595c0.665 1.255 1.494 2.408 2.456 3.429l2.059-1.273c0.878 0.865 1.874 1.604 2.963 2.192l-0.555 2.382c1.24 0.609 2.572 1.055 3.97 1.31l0.93-2.26c0.598 0.086 1.21 0.131 1.832 0.131 0.623 0 1.233-0.046 1.833-0.131l0.929 2.262c1.398-0.255 2.73-0.7 3.971-1.309l-0.556-2.382c1.088-0.59 2.084-1.328 2.964-2.193l2.059 1.273c0.961-1.022 1.79-2.175 2.455-3.429l-1.826-1.596c0.532-1.104 0.915-2.295 1.131-3.543l2.4-0.201zM16 20.692c-2.478 0-4.487-2.042-4.487-4.56 0-2.519 2.010-4.56 4.487-4.56s4.487 2.042 4.487 4.56c0 2.518-2.009 4.56-4.487 4.56z"></path>
</svg>
