<?xml version="1.0" encoding="utf-8"?>
<!-- Generated by IcoMoon.io -->
<!DOCTYPE svg PUBLIC "-//W3C//DTD SVG 1.1//EN" "http://www.w3.org/Graphics/SVG/1.1/DTD/svg11.dtd">
<svg version="1.1" xmlns="http://www.w3.org/2000/svg" xmlns:xlink="http://www.w3.org/1999/xlink" width="32" height="32" viewBox="0 0 32 32">
<path d="M30.184 21.298c-1.416-1.411-3.467-1.959-5.388-1.663l-9.179-9.181c0.083-0.244 0.141-0.49 0.141-0.702v-4.446c0-0.545-0.4-1.193-0.889-1.433l-6.797-3.402c-0.489-0.241-1.201-0.127-1.588 0.259l-0.741 0.74c-0.387 0.387-0.387 1.021 0 1.402l3.956 3.956c0.385 0.383 0.385 1.015 0 1.402l-1.813 1.814c-0.386 0.385-1.015 0.385-1.401 0l-3.957-3.956c-0.385-0.383-1.017-0.383-1.402 0l-0.739 0.739c-0.387 0.384-0.503 1.102-0.259 1.586l3.399 6.8c0.247 0.485 0.892 0.885 1.437 0.885l4.446 0.002c0.213 0 0.46-0.059 0.706-0.142l9.49 9.491c-0.067 1.676 0.519 3.373 1.792 4.652 1.175 1.171 2.735 1.816 4.395 1.816 1.656 0 3.219-0.646 4.398-1.82 2.413-2.424 2.413-6.37-0.007-8.799zM27.67 27.577c-1.007 1.004-2.757 0.993-3.753 0.006-1.033-1.038-1.033-2.728-0.004-3.761 0.502-0.5 1.169-0.776 1.879-0.776 0.707 0 1.376 0.276 1.872 0.771 1.034 1.039 1.034 2.728 0.006 3.76z"></path>
</svg>
