<?xml version="1.0" encoding="utf-8"?>
<!-- Generated by IcoMoon.io -->
<!DOCTYPE svg PUBLIC "-//W3C//DTD SVG 1.1//EN" "http://www.w3.org/Graphics/SVG/1.1/DTD/svg11.dtd">
<svg version="1.1" xmlns="http://www.w3.org/2000/svg" xmlns:xlink="http://www.w3.org/1999/xlink" width="32" height="32" viewBox="0 0 32 32">
<path d="M30.466 12.822c0.754 0.754 0.754 1.986-0.001 2.741l-0.569 0.569c-4.882 4.882-6.616 15.499-16.303 15.499s-11.625-9.687-11.625-13.562v-9.687c0-1.065 0.87-1.938 1.936-1.938s1.938 0.873 1.938 1.938v5.813c0 0.535 0.434 0.969 0.969 0.969s0.969-0.434 0.969-0.969v-9.688c0-1.065 0.868-1.938 1.934-1.938s1.938 0.873 1.938 1.938v9.688c0 0.535 0.434 0.969 0.969 0.969s0.969-0.434 0.969-0.969v-11.625c0-1.066 0.872-1.938 1.938-1.938s1.938 0.873 1.938 1.938v11.625c0 0.535 0.435 0.969 0.969 0.969s0.969-0.434 0.969-0.969v-9.688c0-1.066 0.872-1.938 1.938-1.938s1.938 0.873 1.938 1.938v9.688c0 2.811 2.27 0.802 3.603-0.53l0.843-0.843c0.753-0.754 1.986-0.754 2.74 0v0z"></path>
</svg>
