<?xml version="1.0" encoding="utf-8"?>
<!-- Generated by IcoMoon.io -->
<!DOCTYPE svg PUBLIC "-//W3C//DTD SVG 1.1//EN" "http://www.w3.org/Graphics/SVG/1.1/DTD/svg11.dtd">
<svg version="1.1" xmlns="http://www.w3.org/2000/svg" xmlns:xlink="http://www.w3.org/1999/xlink" width="32" height="32" viewBox="0 0 32 32">
<path d="M16 7.452c-10.169 0-15.5 7.492-15.5 8.68s5.331 8.68 15.5 8.68c10.168 0 15.5-7.492 15.5-8.68s-5.332-8.68-15.5-8.68zM16 22.809c-3.805 0-6.889-2.988-6.889-6.677s3.084-6.677 6.889-6.677 6.889 2.989 6.889 6.677c0 3.688-3.084 6.677-6.889 6.677zM16 16.132c-0.631-0.692 1.028-3.338 0-3.338-1.902 0-3.445 1.495-3.445 3.338s1.542 3.339 3.445 3.339 3.444-1.495 3.444-3.339c0-0.847-2.908 0.589-3.444 0z"></path>
</svg>
