<?xml version="1.0" encoding="utf-8"?>
<!-- Generated by IcoMoon.io -->
<!DOCTYPE svg PUBLIC "-//W3C//DTD SVG 1.1//EN" "http://www.w3.org/Graphics/SVG/1.1/DTD/svg11.dtd">
<svg version="1.1" xmlns="http://www.w3.org/2000/svg" xmlns:xlink="http://www.w3.org/1999/xlink" width="32" height="32" viewBox="0 0 32 32">
<path d="M19.247 16.857l-4.075 4.076 2.759 2.76c-1.808 0.267-3.864 0.439-5.932 0.439-5.219 0-10.436-1.066-11.48-2.133-1.043-1.066-0.332-2.92 0.521-3.734 0.888-0.847 3.448-1.32 5.732-1.902 0.587-0.151 1.939-0.596 2.096-1.346-0.023-2.58-1.045-2.618-1.566-3.684-0.522-1.066-1.42-3.701-0.522-8.002 0.677-3.23 5.219-3.199 5.219-3.199s4.543-0.031 5.219 3.198c0.899 4.301 0 6.936-0.522 8.002-0.523 1.067-1.544 1.104-1.566 3.684 0.158 0.75 1.509 1.196 2.096 1.346 0.667 0.17 1.355 0.332 2.021 0.495zM27.8 25.132l4.2 4.199-2.801 2.801-4.199-4.199-4.199 4.199-2.801-2.801 4.2-4.199-4.2-4.199 2.801-2.801 4.199 4.199 4.199-4.199 2.801 2.801z"></path>
</svg>
