<?xml version="1.0" encoding="utf-8"?>
<!-- Generated by IcoMoon.io -->
<!DOCTYPE svg PUBLIC "-//W3C//DTD SVG 1.1//EN" "http://www.w3.org/Graphics/SVG/1.1/DTD/svg11.dtd">
<svg version="1.1" xmlns="http://www.w3.org/2000/svg" xmlns:xlink="http://www.w3.org/1999/xlink" width="32" height="32" viewBox="0 0 32 32">
<path d="M27.837 21.293c-1.427-1.425-3.241-2.159-4.936-2.159h-0.91l-1.997-2 7.988-8.001c1.996-2 1.996-6.001 0-8.001l-11.982 12.002-11.982-12.002c-1.996 2-1.996 6.001 0 8.001l7.988 8.001-1.997 2h-0.91c-1.693 0-3.509 0.735-4.936 2.159-2.551 2.545-2.896 6.327-0.771 8.448 0.938 0.935 2.198 1.391 3.533 1.391 1.694 0 3.509-0.735 4.937-2.159 1.675-1.671 2.397-3.875 2.096-5.792l2.042-2.046 2.043 2.046c-0.302 1.917 0.422 4.121 2.096 5.792 1.427 1.424 3.242 2.159 4.936 2.159 1.335 0 2.595-0.456 3.531-1.391 2.126-2.12 1.781-5.903-0.769-8.448zM11.032 25.555c-0.241 0.56-0.595 1.073-1.052 1.529s-0.974 0.81-1.535 1.051c-0.504 0.216-1.030 0.33-1.521 0.33-0.473 0-1.144-0.105-1.652-0.612-0.504-0.504-0.609-1.166-0.609-1.635 0-0.486 0.114-1.007 0.329-1.507 0.241-0.56 0.594-1.073 1.051-1.529s0.974-0.81 1.536-1.051c0.504-0.216 1.030-0.33 1.521-0.33 0.474 0 1.145 0.106 1.652 0.613 0.504 0.503 0.61 1.166 0.61 1.634-0.001 0.486-0.115 1.007-0.33 1.507zM16 19.963c-1.56 0-2.824-1.267-2.824-2.829s1.264-2.829 2.824-2.829 2.824 1.267 2.824 2.829-1.264 2.829-2.824 2.829zM26.727 27.852c-0.508 0.507-1.179 0.613-1.651 0.613-0.491 0-1.018-0.114-1.521-0.33-0.562-0.241-1.078-0.594-1.536-1.051-0.457-0.456-0.81-0.97-1.051-1.529-0.215-0.5-0.329-1.021-0.329-1.507 0-0.469 0.106-1.131 0.61-1.635 0.508-0.506 1.179-0.612 1.652-0.612 0.49 0 1.017 0.114 1.521 0.33 0.562 0.241 1.079 0.594 1.536 1.051s0.81 0.97 1.051 1.529c0.215 0.5 0.329 1.021 0.329 1.507-0.001 0.468-0.107 1.131-0.611 1.634z"></path>
</svg>
