<?xml version="1.0" encoding="utf-8"?>
<!-- Generated by IcoMoon.io -->
<!DOCTYPE svg PUBLIC "-//W3C//DTD SVG 1.1//EN" "http://www.w3.org/Graphics/SVG/1.1/DTD/svg11.dtd">
<svg version="1.1" xmlns="http://www.w3.org/2000/svg" xmlns:xlink="http://www.w3.org/1999/xlink" width="32" height="32" viewBox="0 0 32 32">
<path d="M30.538 27.011l-7.343-6.245c-0.76-0.684-1.571-0.997-2.227-0.967 1.733-2.029 2.781-4.664 2.781-7.543 0.001-6.419-5.204-11.624-11.624-11.624-6.419 0-11.625 5.205-11.625 11.624 0 6.42 5.205 11.625 11.625 11.625 2.879 0 5.514-1.048 7.544-2.78-0.030 0.655 0.282 1.467 0.967 2.227l6.245 7.343c1.069 1.188 2.815 1.289 3.882 0.224 1.065-1.068 0.965-2.815-0.225-3.884zM12.125 20.006c-4.28 0-7.75-3.47-7.75-7.75s3.47-7.75 7.75-7.75 7.75 3.47 7.75 7.75-3.47 7.75-7.75 7.75zM13.958 6.756h-3.667v3.667h-3.666v3.667h3.667v3.667h3.667v-3.667h3.667v-3.667h-3.667v-3.667z"></path>
</svg>
