<?xml version="1.0" encoding="utf-8"?>
<!-- Generated by IcoMoon.io -->
<!DOCTYPE svg PUBLIC "-//W3C//DTD SVG 1.1//EN" "http://www.w3.org/Graphics/SVG/1.1/DTD/svg11.dtd">
<svg version="1.1" xmlns="http://www.w3.org/2000/svg" xmlns:xlink="http://www.w3.org/1999/xlink" width="32" height="32" viewBox="0 0 32 32">
<path d="M30.539 27.012l-7.344-6.245c-0.759-0.684-1.57-0.997-2.227-0.967 1.733-2.029 2.781-4.664 2.781-7.543 0-6.42-5.205-11.625-11.625-11.625s-11.624 5.205-11.624 11.625 5.205 11.625 11.625 11.625c2.879 0 5.514-1.047 7.544-2.78-0.030 0.655 0.282 1.467 0.967 2.227l6.245 7.344c1.069 1.188 2.815 1.288 3.882 0.223 1.065-1.068 0.964-2.815-0.224-3.884zM12.125 20.007c-4.28 0-7.75-3.47-7.75-7.75s3.47-7.75 7.75-7.75 7.75 3.47 7.75 7.75-3.47 7.75-7.75 7.75z"></path>
</svg>
