<?xml version="1.0" encoding="utf-8"?>
<!-- Generated by IcoMoon.io -->
<!DOCTYPE svg PUBLIC "-//W3C//DTD SVG 1.1//EN" "http://www.w3.org/Graphics/SVG/1.1/DTD/svg11.dtd">
<svg version="1.1" xmlns="http://www.w3.org/2000/svg" xmlns:xlink="http://www.w3.org/1999/xlink" width="32" height="32" viewBox="0 0 32 32">
<path d="M4.75 30.862l2.907-3.369h18.39c-0.445-1.278-0.92-2.635-1.408-4.025h-13.458l2.769-3.164h9.573c-0.513-1.446-1.025-2.882-1.521-4.261h-5.766l-3.614-3.164h8.233c-0.784-2.144-1.474-3.987-1.98-5.261h-4.286c-0.505 1.272-1.194 3.111-1.977 5.252l-0.19-0.167-1.505-1.318-0.077-0.071c1.273-3.447 2.337-6.172 2.714-6.724 1.033-1.514 2.386-1.802 3.179-1.729 0.791-0.074 2.147 0.213 3.178 1.729 1.039 1.523 7.303 19.539 8.777 23.796h2.074c0.683 0 1.238 0.555 1.238 1.238s-0.554 1.238-1.238 1.238h-26.012zM5.693 26.698l-5.693-4.27 2.492-3.322 2.612 1.959 6-6.858 3.126 2.737-8.537 9.754z"></path>
</svg>
