<?xml version="1.0" encoding="utf-8"?>
<!-- Generated by IcoMoon.io -->
<!DOCTYPE svg PUBLIC "-//W3C//DTD SVG 1.1//EN" "http://www.w3.org/Graphics/SVG/1.1/DTD/svg11.dtd">
<svg version="1.1" xmlns="http://www.w3.org/2000/svg" xmlns:xlink="http://www.w3.org/1999/xlink" width="32" height="32" viewBox="0 0 32 32">
<path d="M24 1.882c-4.418 0-8 3.582-8 8v4h-15c-0.55 0-1 0.45-1 1v14c0 0.55 0.45 1 1 1h18c0.55 0 1-0.45 1-1v-14c0-0.55-0.45-1-1-1h-1v-4c0-3.314 2.686-6 6-6s6 2.686 6 6v4h2v-4c0-4.418-3.582-8-8-8zM11.654 21.385l0.346 4.497h-4l0.346-4.497c-0.811-0.537-1.346-1.457-1.346-2.503 0-1.657 1.343-3 3-3s3 1.343 3 3c0 1.046-0.535 1.966-1.346 2.503z"></path>
</svg>
