<?xml version="1.0" encoding="utf-8"?>
<!-- Generated by IcoMoon.io -->
<!DOCTYPE svg PUBLIC "-//W3C//DTD SVG 1.1//EN" "http://www.w3.org/Graphics/SVG/1.1/DTD/svg11.dtd">
<svg version="1.1" xmlns="http://www.w3.org/2000/svg" xmlns:xlink="http://www.w3.org/1999/xlink" width="32" height="32" viewBox="0 0 32 32">
<path d="M18.002 24.63c-0.553 0-1-0.447-1-1v-7.999c0-0.552 0.447-1 1-1h4c0.553 0 1 0.448 1 1v7.999c0 0.553-0.447 1-1 1h-4zM26.004 24.63c-0.553 0-1-0.447-1-1v-20c0-0.552 0.447-1 1-1h4c0.553 0 1 0.448 1 1v20c0 0.553-0.447 1-1 1h-4zM10 24.63c-0.552 0-1-0.447-1-1v-14c0-0.552 0.448-1 1-1h4c0.552 0 1 0.448 1 1v14c0 0.553-0.448 1-1 1h-4zM1.999 24.63c-0.552 0-1-0.447-1-1v-6c0-0.552 0.448-1 1-1h4c0.552 0 1 0.448 1 1v6c0 0.553-0.448 1-1 1h-4zM0 25.63h32v4h-32z"></path>
</svg>
