<?xml version="1.0" encoding="utf-8"?>
<!-- Generated by IcoMoon.io -->
<!DOCTYPE svg PUBLIC "-//W3C//DTD SVG 1.1//EN" "http://www.w3.org/Graphics/SVG/1.1/DTD/svg11.dtd">
<svg version="1.1" xmlns="http://www.w3.org/2000/svg" xmlns:xlink="http://www.w3.org/1999/xlink" width="32" height="32" viewBox="0 0 32 32">
<path d="M19.152 22.013l-0.911 3.286h-3.002l3.913-12.804h3.8l3.971 12.804h-3.116l-0.987-3.286h-3.668zM22.401 19.847l-0.798-2.717c-0.229-0.76-0.456-1.709-0.646-2.47h-0.037c-0.19 0.76-0.381 1.729-0.59 2.47l-0.76 2.717h2.831zM10.497 14.507l4.836 2.792-4.836 2.792zM11.314 18.299h-6.983v-7.997h2v5.997h4.983zM29.867 6c1.101 0 2 0.9 1.999 2v22c0 1.101-0.899 2-2 2h-17.998c-1.099 0-2-0.899-2-2v-4h-8.001c-1.1 0-2-0.9-2-2v-22c0-1.1 0.9-2 2-2h20c1.1 0 2 0.9 2 2v4h6zM12.869 28.999h16v-20h-19.001c0 0-0.45-2.974 2.002-3 3.215-0.035 8.998 0 8.998 0v-3h-18v20h10.002zM12.917 10.951h-3.048v-1.951l2.001-2.014h1.047z"></path>
</svg>
