<?xml version="1.0" encoding="utf-8"?>
<!-- Generated by IcoMoon.io -->
<!DOCTYPE svg PUBLIC "-//W3C//DTD SVG 1.1//EN" "http://www.w3.org/Graphics/SVG/1.1/DTD/svg11.dtd">
<svg version="1.1" xmlns="http://www.w3.org/2000/svg" xmlns:xlink="http://www.w3.org/1999/xlink" width="32" height="32" viewBox="0 0 32 32">
<path d="M31.429 11.561h-10.858v-10.858c0-0.314-0.257-0.571-0.571-0.571h-8c-0.315 0-0.571 0.257-0.571 0.571v10.857h-10.858c-0.314 0.001-0.571 0.257-0.571 0.572v8c0 0.314 0.257 0.571 0.571 0.571h10.857v10.856c0.001 0.316 0.257 0.573 0.572 0.573h8c0.314 0 0.571-0.257 0.571-0.572v-10.857h10.857c0.315 0 0.572-0.257 0.572-0.571v-8c0-0.315-0.257-0.571-0.571-0.571z"></path>
</svg>
