<?xml version="1.0" encoding="utf-8"?>
<!-- Generated by IcoMoon.io -->
<!DOCTYPE svg PUBLIC "-//W3C//DTD SVG 1.1//EN" "http://www.w3.org/Graphics/SVG/1.1/DTD/svg11.dtd">
<svg version="1.1" xmlns="http://www.w3.org/2000/svg" xmlns:xlink="http://www.w3.org/1999/xlink" width="32" height="32" viewBox="0 0 32 32">
<path d="M26.629 31.132h-1.016l-8.741-8.742c-0.236 0.081-0.472 0.136-0.677 0.136l-4.258-0.002c-0.522 0-1.14-0.383-1.376-0.848l-3.256-6.514c-0.235-0.463-0.123-1.152 0.248-1.519l0.708-0.708c0.369-0.367 0.975-0.367 1.343 0l3.791 3.79c0.369 0.369 0.972 0.369 1.341 0l1.737-1.738c0.37-0.371 0.37-0.976 0-1.343l-3.79-3.79c-0.37-0.366-0.37-0.973 0-1.344l0.711-0.708c0.369-0.37 1.052-0.479 1.52-0.248l6.624 3.259c0.468 0.229 0.962 0.851 0.962 1.374v4.259c0 0.203-0.167 0.438-0.245 0.672l8.745 8.86v0.783c0 2.41-1.961 4.371-4.371 4.371z"></path>
</svg>
