<?xml version="1.0" encoding="utf-8"?>
<!-- Generated by IcoMoon.io -->
<!DOCTYPE svg PUBLIC "-//W3C//DTD SVG 1.1//EN" "http://www.w3.org/Graphics/SVG/1.1/DTD/svg11.dtd">
<svg version="1.1" xmlns="http://www.w3.org/2000/svg" xmlns:xlink="http://www.w3.org/1999/xlink" width="32" height="32" viewBox="0 0 32 32">
<path d="M20.6 9.042c0-0.729 0.593-1.321 1.322-1.321s1.319 0.592 1.319 1.321c0 0.729-0.59 1.321-1.319 1.321s-1.322-0.592-1.322-1.321v0zM26.907 9.042c0-0.729 0.592-1.321 1.32-1.321s1.321 0.591 1.321 1.321c0 0.729-0.592 1.321-1.321 1.321-0.728-0.001-1.32-0.592-1.32-1.321v0zM20.6 12.587c0-0.729 0.593-1.321 1.322-1.321s1.319 0.591 1.319 1.321-0.59 1.321-1.319 1.321-1.322-0.592-1.322-1.321v0zM26.907 12.587c0-0.729 0.592-1.321 1.32-1.321s1.321 0.591 1.321 1.321-0.592 1.321-1.321 1.321c-0.728-0.001-1.32-0.592-1.32-1.321v0zM20.6 16.132c0-0.729 0.593-1.321 1.322-1.321s1.319 0.591 1.319 1.321c0 0.729-0.59 1.321-1.319 1.321s-1.322-0.592-1.322-1.321v0zM26.907 16.132c0-0.729 0.592-1.321 1.32-1.321s1.321 0.591 1.321 1.321c0 0.729-0.592 1.321-1.321 1.321-0.728 0-1.32-0.592-1.32-1.321v0zM20.6 19.676c0-0.729 0.593-1.32 1.322-1.32s1.319 0.591 1.319 1.32-0.59 1.32-1.319 1.32-1.322-0.591-1.322-1.32v0zM26.907 19.676c0-0.729 0.592-1.32 1.32-1.32s1.321 0.591 1.321 1.32-0.592 1.32-1.321 1.32c-0.728 0-1.32-0.591-1.32-1.32v0zM20.6 23.221c0-0.729 0.593-1.321 1.322-1.321s1.319 0.592 1.319 1.321-0.59 1.32-1.319 1.32-1.322-0.591-1.322-1.32v0zM26.907 23.221c0-0.729 0.592-1.321 1.32-1.321s1.321 0.592 1.321 1.321-0.592 1.32-1.321 1.32c-0.728 0-1.32-0.591-1.32-1.32v0zM1.684 23.221c0-0.729 0.591-1.321 1.32-1.321s1.321 0.592 1.321 1.321-0.592 1.32-1.321 1.32-1.32-0.591-1.32-1.32v0zM14.295 1.952c0-0.729 0.592-1.321 1.321-1.321s1.321 0.591 1.321 1.321-0.592 1.321-1.321 1.321-1.321-0.591-1.321-1.321v0zM14.295 1.952c0-0.729 0.592-1.321 1.321-1.321s1.321 0.591 1.321 1.321-0.592 1.321-1.321 1.321-1.321-0.591-1.321-1.321v0zM14.295 30.312c0-0.729 0.592-1.32 1.321-1.32s1.321 0.591 1.321 1.32-0.592 1.321-1.321 1.321-1.321-0.592-1.321-1.321v0zM14.295 30.312c0-0.729 0.592-1.32 1.321-1.32s1.321 0.591 1.321 1.32-0.592 1.321-1.321 1.321-1.321-0.592-1.321-1.321v0zM17.447 3.725c0-0.729 0.592-1.321 1.321-1.321s1.32 0.591 1.32 1.321c0 0.729-0.591 1.32-1.32 1.32s-1.321-0.591-1.321-1.32v0zM11.144 3.725c0-0.729 0.591-1.321 1.32-1.321s1.321 0.591 1.321 1.321c0 0.729-0.592 1.32-1.321 1.32s-1.32-0.591-1.32-1.32v0zM17.447 28.539c0-0.729 0.592-1.32 1.321-1.32s1.32 0.591 1.32 1.32-0.591 1.322-1.32 1.322-1.321-0.592-1.321-1.322v0zM11.144 28.539c0-0.729 0.591-1.32 1.32-1.32s1.321 0.591 1.321 1.32-0.592 1.322-1.321 1.322-1.32-0.592-1.32-1.322v0zM14.295 5.497c0-0.729 0.592-1.321 1.321-1.321s1.321 0.591 1.321 1.321c0 0.729-0.592 1.32-1.321 1.32s-1.321-0.591-1.321-1.32v0zM20.6 5.497c0-0.729 0.593-1.321 1.322-1.321s1.319 0.591 1.319 1.321c0 0.729-0.59 1.32-1.319 1.32s-1.322-0.591-1.322-1.32v0zM7.991 5.497c0-0.729 0.59-1.321 1.319-1.321s1.322 0.591 1.322 1.321c0 0.729-0.593 1.32-1.322 1.32s-1.319-0.591-1.319-1.32v0zM14.295 26.768c0-0.731 0.592-1.323 1.321-1.323s1.321 0.592 1.321 1.323c0 0.729-0.592 1.32-1.321 1.32s-1.321-0.591-1.321-1.32v0zM20.6 26.768c0-0.731 0.593-1.323 1.322-1.323s1.319 0.592 1.319 1.323c0 0.729-0.59 1.32-1.319 1.32s-1.322-0.591-1.322-1.32v0zM7.991 26.768c0-0.731 0.59-1.323 1.319-1.323s1.322 0.592 1.322 1.323c0 0.729-0.593 1.32-1.322 1.32s-1.319-0.591-1.319-1.32v0zM17.447 7.269c0-0.729 0.592-1.32 1.321-1.32s1.32 0.591 1.32 1.32c0 0.729-0.591 1.32-1.32 1.32s-1.321-0.59-1.321-1.32v0zM23.753 7.269c0-0.729 0.592-1.32 1.321-1.32s1.322 0.591 1.322 1.32c0 0.729-0.593 1.321-1.322 1.321s-1.321-0.591-1.321-1.321v0zM11.144 7.269c0-0.729 0.591-1.32 1.32-1.32s1.321 0.591 1.321 1.32c0 0.729-0.592 1.32-1.321 1.32s-1.32-0.59-1.32-1.32v0zM4.836 7.269c0-0.729 0.594-1.32 1.322-1.32 0.729 0 1.321 0.591 1.321 1.32s-0.592 1.321-1.321 1.321c-0.728 0-1.322-0.591-1.322-1.321v0zM17.447 10.813c0-0.729 0.592-1.32 1.321-1.32s1.32 0.591 1.32 1.32c0 0.73-0.591 1.322-1.32 1.322s-1.321-0.591-1.321-1.322v0zM23.753 10.813c0-0.729 0.592-1.32 1.321-1.32s1.322 0.591 1.322 1.32c0 0.73-0.593 1.322-1.322 1.322s-1.321-0.591-1.321-1.322v0zM11.144 10.813c0-0.729 0.591-1.32 1.32-1.32s1.321 0.591 1.321 1.32c0 0.73-0.592 1.322-1.321 1.322s-1.32-0.591-1.32-1.322v0zM4.836 10.813c0-0.729 0.594-1.32 1.322-1.32 0.729 0 1.321 0.591 1.321 1.32s-0.592 1.322-1.321 1.322c-0.728 0-1.322-0.591-1.322-1.322v0zM17.447 14.359c0-0.729 0.592-1.321 1.321-1.321s1.32 0.591 1.32 1.321-0.591 1.321-1.32 1.321-1.321-0.591-1.321-1.321v0zM23.753 14.359c0-0.729 0.592-1.321 1.321-1.321s1.322 0.591 1.322 1.321-0.593 1.321-1.322 1.321-1.321-0.591-1.321-1.321v0zM11.144 14.359c0-0.729 0.591-1.321 1.32-1.321s1.321 0.591 1.321 1.321-0.592 1.321-1.321 1.321-1.32-0.591-1.32-1.321v0zM4.836 14.359c0-0.729 0.594-1.321 1.322-1.321 0.729 0 1.321 0.591 1.321 1.321s-0.592 1.321-1.321 1.321c-0.728 0-1.322-0.591-1.322-1.321v0zM17.447 17.903c0-0.73 0.592-1.32 1.321-1.32s1.32 0.59 1.32 1.32c0 0.729-0.591 1.321-1.32 1.321s-1.321-0.592-1.321-1.321v0zM23.753 17.903c0-0.73 0.592-1.32 1.321-1.32s1.322 0.59 1.322 1.32c0 0.729-0.593 1.321-1.322 1.321s-1.321-0.592-1.321-1.321v0zM11.144 17.903c0-0.73 0.591-1.32 1.32-1.32s1.321 0.59 1.321 1.32c0 0.729-0.592 1.321-1.321 1.321s-1.32-0.592-1.32-1.321v0zM4.836 17.903c0-0.73 0.594-1.32 1.322-1.32 0.729 0 1.321 0.59 1.321 1.32 0 0.729-0.592 1.321-1.321 1.321-0.728 0.001-1.322-0.592-1.322-1.321v0zM17.447 21.447c0-0.729 0.592-1.319 1.321-1.319s1.32 0.59 1.32 1.319-0.591 1.322-1.32 1.322-1.321-0.592-1.321-1.322v0zM23.753 21.447c0-0.729 0.592-1.319 1.321-1.319s1.322 0.59 1.322 1.319-0.593 1.322-1.322 1.322-1.321-0.592-1.321-1.322v0zM11.144 21.447c0-0.729 0.591-1.319 1.32-1.319s1.321 0.59 1.321 1.319-0.592 1.322-1.321 1.322-1.32-0.592-1.32-1.322v0zM4.836 21.447c0-0.729 0.594-1.319 1.322-1.319 0.729 0 1.321 0.59 1.321 1.319s-0.592 1.322-1.321 1.322c-0.728 0.001-1.322-0.592-1.322-1.322v0zM17.447 24.992c0-0.729 0.592-1.319 1.321-1.319s1.32 0.59 1.32 1.319-0.591 1.323-1.32 1.323-1.321-0.593-1.321-1.323v0zM23.753 24.992c0-0.729 0.592-1.319 1.321-1.319s1.322 0.59 1.322 1.319-0.593 1.323-1.322 1.323-1.321-0.593-1.321-1.323v0zM11.144 24.992c0-0.729 0.591-1.319 1.32-1.319s1.321 0.59 1.321 1.319-0.592 1.323-1.321 1.323-1.32-0.593-1.32-1.323v0zM4.836 24.992c0-0.729 0.594-1.319 1.322-1.319 0.729 0 1.321 0.59 1.321 1.319s-0.592 1.323-1.321 1.323c-0.728 0.001-1.322-0.593-1.322-1.323v0zM14.295 9.041c0-0.729 0.592-1.32 1.321-1.32s1.321 0.592 1.321 1.32c0 0.73-0.592 1.322-1.321 1.322s-1.321-0.592-1.321-1.322v0zM7.991 9.042c0-0.729 0.59-1.321 1.319-1.321s1.322 0.592 1.322 1.321c0 0.729-0.593 1.321-1.322 1.321s-1.319-0.592-1.319-1.321v0zM1.684 9.042c0-0.729 0.591-1.321 1.32-1.321s1.321 0.591 1.321 1.321c0 0.729-0.592 1.321-1.321 1.321s-1.32-0.592-1.32-1.321v0zM14.295 12.587c0-0.729 0.592-1.321 1.321-1.321s1.321 0.591 1.321 1.321-0.592 1.321-1.321 1.321-1.321-0.592-1.321-1.321v0zM7.991 12.587c0-0.729 0.59-1.321 1.319-1.321s1.322 0.591 1.322 1.321-0.593 1.321-1.322 1.321-1.319-0.592-1.319-1.321v0zM1.684 12.587c0-0.729 0.591-1.321 1.32-1.321s1.321 0.591 1.321 1.321-0.592 1.321-1.321 1.321-1.32-0.592-1.32-1.321v0zM14.295 16.132c0-0.729 0.592-1.321 1.321-1.321s1.322 0.591 1.322 1.321c0 0.729-0.592 1.321-1.321 1.321s-1.322-0.592-1.322-1.321v0zM7.991 16.132c0-0.729 0.59-1.321 1.319-1.321s1.323 0.591 1.323 1.321c0 0.729-0.593 1.321-1.322 1.321s-1.32-0.592-1.32-1.321v0zM1.684 16.132c0-0.729 0.591-1.321 1.32-1.321s1.321 0.591 1.321 1.321c0 0.729-0.592 1.321-1.321 1.321s-1.32-0.592-1.32-1.321v0zM14.295 19.676c0-0.729 0.592-1.32 1.321-1.32s1.321 0.591 1.321 1.32-0.592 1.32-1.321 1.32-1.321-0.591-1.321-1.32v0zM7.991 19.676c0-0.729 0.59-1.32 1.319-1.32s1.322 0.591 1.322 1.32-0.593 1.32-1.322 1.32-1.319-0.591-1.319-1.32v0zM1.684 19.676c0-0.729 0.591-1.32 1.32-1.32s1.321 0.591 1.321 1.32-0.592 1.32-1.321 1.32-1.32-0.591-1.32-1.32v0zM14.295 23.221c0-0.729 0.592-1.321 1.321-1.321s1.321 0.592 1.321 1.321-0.592 1.32-1.321 1.32-1.321-0.591-1.321-1.32v0zM7.991 23.221c0-0.729 0.59-1.321 1.319-1.321s1.322 0.592 1.322 1.321-0.593 1.32-1.322 1.32-1.319-0.591-1.319-1.32v0z"></path>
</svg>
