<?xml version="1.0" encoding="utf-8"?>
<!-- Generated by IcoMoon.io -->
<!DOCTYPE svg PUBLIC "-//W3C//DTD SVG 1.1//EN" "http://www.w3.org/Graphics/SVG/1.1/DTD/svg11.dtd">
<svg version="1.1" xmlns="http://www.w3.org/2000/svg" xmlns:xlink="http://www.w3.org/1999/xlink" width="32" height="32" viewBox="0 0 32 32">
<path d="M31.595 12.837l-0.747-0.537c-0.223-0.162-0.63-0.293-0.905-0.293h-0.577c-0.113-0.367-0.235-0.711-0.369-0.992l-2.889-6.076c-0.472-0.995-1.759-1.807-2.859-1.807h-14.419c-1.1 0-2.387 0.812-2.858 1.807l-2.89 6.076c-0.133 0.281-0.256 0.625-0.369 0.992h-0.655c-0.275 0-0.683 0.131-0.905 0.293l-0.748 0.537c-0.222 0.162-0.405 0.518-0.405 0.793v0.562c0 0.275 0.216 0.561 0.481 0.635l0.595 0.168c0.265 0.076 0.706 0.137 0.982 0.137h0.167v8c0 1.020 0.786 1.838 1.776 1.955v2.545c-0.001 0.824 0.674 1.5 1.499 1.5h1c0.825 0 1.5-0.676 1.5-1.5v-2.5h16v2.5c0 0.824 0.675 1.5 1.5 1.5h1c0.825 0 1.5-0.676 1.5-1.5v-2.529c1.029-0.080 1.854-0.922 1.854-1.971v-8h0.088c0.275 0 0.717-0.061 0.981-0.137l0.595-0.168c0.265-0.074 0.482-0.359 0.482-0.634v-0.562c0-0.276-0.183-0.632-0.405-0.794zM26 20.882c-0.967 0-1.75-0.785-1.75-1.75s0.783-1.75 1.75-1.75 1.75 0.785 1.75 1.75-0.783 1.75-1.75 1.75zM4.767 12.124c0.030-0.078 0.060-0.172 0.091-0.238l2.894-6.082c0.143-0.303 0.723-0.672 1.052-0.672h14.471c0.33 0 0.909 0.369 1.054 0.67l2.893 6.086c0.028 0.059 0.054 0.143 0.081 0.211 0.117 0.295 0.229 0.648 0.325 1.033h-23.176c0.092-0.375 0.2-0.717 0.315-1.008zM6 17.382c0.967 0 1.75 0.785 1.75 1.75s-0.783 1.75-1.75 1.75-1.75-0.785-1.75-1.75 0.783-1.75 1.75-1.75z"></path>
</svg>
