<?xml version="1.0" encoding="utf-8"?>
<!-- Generated by IcoMoon.io -->
<!DOCTYPE svg PUBLIC "-//W3C//DTD SVG 1.1//EN" "http://www.w3.org/Graphics/SVG/1.1/DTD/svg11.dtd">
<svg version="1.1" xmlns="http://www.w3.org/2000/svg" xmlns:xlink="http://www.w3.org/1999/xlink" width="32" height="32" viewBox="0 0 32 32">
<path d="M26.502 0.132c-0.001 0-0.003 0-0.005 0-2.819 0-5.104 2.285-5.104 5.104 0 1.421 0.58 2.706 1.517 3.631l-1.538 2.427c-0.519-0.197-1.12-0.311-1.747-0.311-0.004 0-0.009 0-0.013 0-1.693 0.002-3.197 0.829-4.13 2.1l-5.353-2.222c0.055-0.282 0.087-0.607 0.087-0.939 0-2.821-2.287-5.108-5.108-5.108s-5.108 2.287-5.108 5.108c0 2.821 2.287 5.108 5.108 5.108 0.347 0 0.687-0.035 1.015-0.101l3.395 7.942c-1.3 0.938-2.135 2.448-2.135 4.154 0 2.821 2.287 5.108 5.108 5.108s5.108-2.287 5.108-5.108c0-1.401-0.564-2.67-1.477-3.593l1.675-2.574c0.535 0.211 1.154 0.333 1.802 0.333 0.004 0 0.008 0 0.012 0 0.001 0 0.002 0 0.004 0 2.819 0 5.104-2.285 5.104-5.104 0-1.421-0.58-2.706-1.517-3.631l1.538-2.427c0.519 0.197 1.12 0.311 1.747 0.311 0.004 0 0.009 0 0.013-0 0.059 0.002 0.129 0.004 0.199 0.004 2.821 0 5.108-2.287 5.108-5.108s-2.287-5.108-5.108-5.108c-0.069 0-0.138 0.001-0.206 0.004zM5.11 13.053c-1.717 0-3.109-1.392-3.109-3.109s1.392-3.109 3.109-3.109c1.714 0 3.104 1.387 3.109 3.101 0 0.003 0 0.005 0 0.008 0 1.717-1.392 3.109-3.109 3.109 0 0 0 0 0 0zM12.523 30.163c-0.001 0-0.001 0-0.002 0-1.717 0-3.109-1.392-3.109-3.109s1.392-3.109 3.109-3.109c1.714 0 3.104 1.387 3.109 3.101 0 0.002 0 0.003 0 0.004 0 1.717-1.392 3.109-3.109 3.109-0.003 0-0.005 0-0.008 0zM14.303 22.254c-0.537-0.21-1.159-0.332-1.81-0.332-0.348 0-0.688 0.035-1.016 0.101l-3.386-7.945c-0.151 0.217 0.63-0.408 1.193-1.199l5.315 2.216c-0.063 0.3-0.099 0.645-0.099 0.999 0 1.398 0.563 2.664 1.474 3.585zM19.592 19.24c-1.716-0.001-3.107-1.392-3.107-3.109s1.392-3.109 3.109-3.109c1.716 0 3.108 1.391 3.109 3.107-0.001 1.716-1.392 3.107-3.109 3.107 0 0 0 0 0 0zM26.498 8.32c-1.717 0-3.109-1.392-3.109-3.109s1.392-3.109 3.109-3.109c1.717 0 3.109 1.392 3.109 3.109-0.002 1.715-1.393 3.105-3.109 3.105 0 0 0 0 0 0z"></path>
</svg>
