<?xml version="1.0" encoding="utf-8"?>
<!-- Generated by IcoMoon.io -->
<!DOCTYPE svg PUBLIC "-//W3C//DTD SVG 1.1//EN" "http://www.w3.org/Graphics/SVG/1.1/DTD/svg11.dtd">
<svg version="1.1" xmlns="http://www.w3.org/2000/svg" xmlns:xlink="http://www.w3.org/1999/xlink" width="32" height="32" viewBox="0 0 32 32">
<path d="M17.196 25.764c-0.198-0.437-0.401-0.889-0.614-1.392-0.032-0.075-0.093-0.134-0.171-0.162-0.032-0.011-0.066-0.017-0.1-0.017-0.047 0-0.093 0.011-0.134 0.032l-5.479 2.824c-0.074 0.038-0.129 0.107-0.149 0.186-0.021 0.081-0.007 0.166 0.039 0.236 1.765 2.676 3.345 3.977 4.831 3.977 0.575 0 1.131-0.198 1.654-0.588 0.847-0.633 1.204-1.343 1.125-2.235-0.072-0.799-0.482-1.709-1.001-2.861zM10.941 27.472c0.008 0.012 0.017 0.026 0.025 0.038-0.008-0.012-0.017-0.025-0.025-0.038zM11.075 27.671c0.004 0.006 0.008 0.011 0.011 0.017-0.004-0.005-0.008-0.011-0.011-0.017zM11.19 27.835c0.008 0.011 0.016 0.023 0.024 0.034-0.008-0.011-0.016-0.022-0.024-0.034zM11.326 28.029c0.006 0.008 0.011 0.016 0.018 0.024-0.005-0.008-0.011-0.016-0.018-0.024zM11.447 28.196c0.007 0.009 0.014 0.018 0.021 0.027-0.007-0.009-0.014-0.018-0.021-0.027zM11.584 28.38c0.007 0.009 0.014 0.018 0.021 0.028-0.007-0.010-0.014-0.018-0.021-0.028zM11.713 28.55c0.005 0.006 0.010 0.013 0.015 0.020-0.005-0.006-0.010-0.013-0.015-0.020zM11.848 28.723c0.008 0.010 0.015 0.020 0.023 0.029-0.008-0.009-0.015-0.020-0.023-0.029zM11.99 28.898c0.002 0.002 0.003 0.004 0.005 0.006-0.002-0.002-0.003-0.004-0.005-0.006zM12.119 29.053c0.008 0.010 0.016 0.019 0.024 0.029-0.008-0.009-0.016-0.019-0.024-0.029zM12.396 29.371c0.008 0.009 0.015 0.017 0.024 0.026-0.008-0.009-0.015-0.017-0.024-0.026zM12.679 29.671c0.008 0.008 0.015 0.015 0.022 0.023-0.007-0.008-0.014-0.015-0.022-0.023zM12.547 29.535c0.003 0.003 0.007 0.007 0.009 0.010-0.003-0.003-0.006-0.007-0.009-0.010zM15.402 31.153c0.014 0 0.028 0 0.043 0-0.008 0-0.018 0-0.026 0-0.005 0-0.011-0-0.017-0zM12.831 29.823c0.005 0.006 0.011 0.011 0.017 0.016-0.006-0.005-0.011-0.011-0.017-0.016zM12.969 29.953c0.007 0.006 0.012 0.012 0.019 0.018-0.007-0.006-0.013-0.012-0.019-0.018zM13.118 30.089c0.008 0.006 0.015 0.012 0.023 0.019-0.008-0.006-0.015-0.012-0.023-0.019zM13.264 30.213c0.005 0.003 0.009 0.008 0.013 0.011-0.005-0.003-0.008-0.008-0.013-0.011zM13.411 30.331c0.008 0.006 0.017 0.013 0.025 0.020-0.008-0.006-0.017-0.013-0.025-0.020zM13.57 30.453c0.001 0 0.001 0 0.002 0.001-0.001-0-0.001-0-0.002-0.001zM13.707 30.549c0.009 0.006 0.018 0.012 0.027 0.018-0.009-0.006-0.018-0.012-0.027-0.018zM13.871 30.655c0.001 0 0.002 0.002 0.003 0.002-0.001-0-0.002-0.002-0.003-0.002zM14.008 30.737c0.009 0.006 0.018 0.011 0.028 0.015-0.009-0.006-0.018-0.010-0.028-0.015zM14.172 30.826c0.005 0.003 0.011 0.006 0.016 0.008-0.005-0.003-0.011-0.006-0.016-0.008zM14.313 30.893c0.009 0.004 0.018 0.009 0.027 0.012-0.009-0.003-0.018-0.008-0.027-0.012zM14.476 30.963c0.008 0.003 0.016 0.006 0.024 0.009-0.008-0.003-0.015-0.006-0.024-0.009zM14.622 31.017c0.008 0.003 0.015 0.006 0.024 0.009-0.008-0.003-0.016-0.006-0.024-0.009zM14.781 31.065c0.009 0.003 0.020 0.006 0.028 0.008-0.009-0.003-0.018-0.005-0.028-0.008zM14.937 31.102c0.005 0.001 0.011 0.003 0.017 0.004-0.005-0.002-0.011-0.003-0.017-0.004zM15.091 31.13c0.011 0.002 0.021 0.003 0.031 0.005-0.010-0.002-0.021-0.003-0.031-0.005zM15.258 31.148c0.001 0 0.002 0 0.004 0-0.001-0-0.002-0-0.004-0zM16.366 30.942c-0.020 0.009-0.038 0.017-0.058 0.026 0.019-0.009 0.038-0.017 0.058-0.026zM16.267 30.985c-0.020 0.008-0.040 0.015-0.059 0.023 0.020-0.007 0.040-0.015 0.059-0.023zM16.169 31.022c-0.021 0.008-0.042 0.014-0.063 0.021 0.021-0.007 0.042-0.014 0.063-0.021zM16.072 31.055c-0.025 0.008-0.050 0.014-0.075 0.021 0.024-0.008 0.049-0.015 0.075-0.021zM15.974 31.082c-0.033 0.009-0.065 0.016-0.098 0.023 0.033-0.006 0.065-0.015 0.098-0.023zM15.852 31.11c-0.024 0.005-0.049 0.010-0.073 0.014 0.024-0.003 0.049-0.009 0.073-0.014zM15.742 31.13c-0.020 0.003-0.040 0.006-0.060 0.008 0.021-0.002 0.040-0.005 0.060-0.008zM15.641 31.142c-0.019 0.002-0.037 0.004-0.056 0.006 0.019-0.002 0.038-0.004 0.056-0.006zM15.542 31.15c-0.018 0.001-0.037 0.002-0.055 0.002 0.018 0 0.037-0.001 0.055-0.002zM16.799 30.695c0.032-0.023 0.066-0.046 0.097-0.071-0.032 0.025-0.064 0.048-0.097 0.071zM16.407 30.923c0.020-0.009 0.038-0.018 0.058-0.029-0.020 0.010-0.038 0.019-0.058 0.029zM16.505 30.873c0.020-0.010 0.038-0.021 0.058-0.032-0.019 0.011-0.038 0.022-0.058 0.032zM16.604 30.819c0.019-0.012 0.040-0.024 0.059-0.037-0.020 0.012-0.041 0.024-0.059 0.037zM16.701 30.759c0.023-0.014 0.044-0.029 0.066-0.044-0.022 0.015-0.044 0.029-0.066 0.044zM24.606 17.138l-6.005-1.178c-0.018-0.004-0.038-0.005-0.056-0.005-0.062 0-0.123 0.020-0.174 0.057-0.067 0.049-0.109 0.123-0.117 0.205-0.052 0.474-0.107 0.907-0.16 1.327-0.16 1.253-0.286 2.242-0.12 3.029 0.184 0.877 0.735 1.451 1.73 1.808 0.347 0.125 0.689 0.188 1.018 0.188 1.724 0 3.069-1.654 4.11-5.056 0.024-0.080 0.014-0.166-0.029-0.238s-0.114-0.122-0.196-0.137zM19.92 22.144c0.011 0.003 0.023 0.006 0.034 0.010-0.011-0.003-0.023-0.006-0.034-0.010zM20.037 22.178c0.014 0.004 0.027 0.007 0.041 0.011-0.013-0.004-0.026-0.006-0.041-0.011zM20.152 22.207c0.015 0.003 0.029 0.006 0.044 0.010-0.015-0.003-0.029-0.006-0.044-0.010zM20.265 22.231c0.015 0.003 0.031 0.006 0.046 0.008-0.015-0.002-0.030-0.005-0.046-0.008zM20.377 22.25c0.015 0.002 0.031 0.003 0.047 0.006-0.016-0.002-0.032-0.003-0.047-0.006zM20.488 22.263c0.015 0.002 0.031 0.003 0.047 0.004-0.017-0.001-0.032-0.003-0.047-0.004zM20.596 22.27c0.016 0.001 0.032 0.002 0.048 0.002-0.016-0-0.032-0.001-0.048-0.002zM20.703 22.274c0.019 0 0.038 0 0.056-0-0.012 0-0.026 0.001-0.038 0.001-0.006 0-0.011-0-0.017-0zM20.797 22.273c0.021-0.001 0.043-0.002 0.064-0.003-0.021 0.002-0.043 0.003-0.064 0.003zM20.893 22.267c0.031-0.002 0.063-0.006 0.093-0.009-0.031 0.004-0.062 0.008-0.093 0.009zM21.006 22.256c0.025-0.003 0.050-0.006 0.074-0.011-0.024 0.004-0.049 0.007-0.074 0.011zM21.113 22.239c0.020-0.003 0.039-0.007 0.058-0.011-0.020 0.004-0.039 0.008-0.058 0.011zM21.209 22.221c0.018-0.004 0.037-0.009 0.055-0.013-0.018 0.005-0.037 0.009-0.055 0.013zM21.3 22.198c0.018-0.006 0.036-0.011 0.054-0.015-0.018 0.005-0.036 0.010-0.054 0.015zM21.39 22.172c0.018-0.006 0.037-0.012 0.055-0.018-0.018 0.006-0.037 0.012-0.055 0.018zM21.477 22.142c0.023-0.009 0.046-0.017 0.067-0.026-0.022 0.009-0.045 0.017-0.067 0.026zM21.564 22.109c0.029-0.012 0.057-0.024 0.085-0.037-0.028 0.013-0.056 0.026-0.085 0.037zM21.669 22.062c0.021-0.010 0.043-0.020 0.064-0.031-0.021 0.011-0.042 0.021-0.064 0.031zM21.762 22.017c0.018-0.009 0.037-0.019 0.053-0.029-0.017 0.009-0.035 0.020-0.053 0.029zM21.847 21.971c0.017-0.010 0.035-0.020 0.052-0.030-0.017 0.011-0.035 0.020-0.052 0.030zM21.93 21.922c0.017-0.011 0.035-0.021 0.052-0.033-0.017 0.012-0.034 0.023-0.052 0.033zM22.011 21.87c0.018-0.012 0.038-0.026 0.056-0.039-0.019 0.013-0.038 0.026-0.056 0.039zM22.089 21.816c0.053-0.038 0.105-0.078 0.156-0.119-0.052 0.041-0.103 0.081-0.156 0.119zM22.264 21.681c0.020-0.016 0.038-0.032 0.057-0.049-0.018 0.016-0.038 0.032-0.057 0.049zM22.345 21.611c0.017-0.015 0.034-0.030 0.052-0.046-0.017 0.015-0.034 0.030-0.052 0.046zM22.422 21.541c0.016-0.015 0.032-0.031 0.049-0.047-0.017 0.017-0.033 0.032-0.049 0.047zM22.495 21.471c0.017-0.017 0.034-0.034 0.050-0.051-0.017 0.017-0.034 0.035-0.050 0.051zM22.638 21.322c0.048-0.052 0.095-0.107 0.14-0.162-0.046 0.055-0.093 0.108-0.14 0.162zM22.568 21.397c0.019-0.020 0.038-0.041 0.058-0.062-0.020 0.021-0.039 0.041-0.058 0.062zM24.511 17.549c0.012-0.041 0.026-0.081 0.038-0.123-0.012 0.041-0.026 0.082-0.038 0.123zM22.797 21.139c0.017-0.021 0.033-0.041 0.050-0.063-0.017 0.021-0.034 0.041-0.050 0.063zM22.867 21.049c0.015-0.020 0.031-0.040 0.047-0.059-0.015 0.020-0.030 0.040-0.047 0.059zM22.936 20.961c0.015-0.020 0.030-0.041 0.046-0.061-0.015 0.020-0.030 0.041-0.046 0.061zM23.002 20.872c0.016-0.023 0.032-0.046 0.048-0.069-0.016 0.023-0.032 0.046-0.048 0.069zM23.066 20.78c0.020-0.030 0.041-0.059 0.061-0.090-0.020 0.030-0.041 0.060-0.061 0.090zM23.129 20.688c0.021-0.032 0.044-0.066 0.064-0.099-0.021 0.033-0.043 0.067-0.064 0.099zM23.2 20.578c0.018-0.029 0.037-0.057 0.054-0.086-0.017 0.029-0.035 0.058-0.054 0.086zM23.271 20.464c0.015-0.024 0.029-0.048 0.044-0.073-0.014 0.024-0.029 0.049-0.044 0.073zM23.334 20.36c0.014-0.023 0.027-0.047 0.041-0.070-0.014 0.023-0.027 0.047-0.041 0.070zM23.394 20.256c0.013-0.024 0.027-0.048 0.041-0.073-0.014 0.024-0.027 0.049-0.041 0.073zM23.452 20.151c0.015-0.027 0.030-0.054 0.044-0.081-0.015 0.027-0.029 0.055-0.044 0.081zM23.509 20.047c0.038-0.072 0.076-0.144 0.113-0.218-0.037 0.074-0.075 0.147-0.113 0.218zM23.634 19.805c0.014-0.029 0.028-0.056 0.042-0.085-0.015 0.029-0.028 0.057-0.042 0.085zM23.692 19.684c0.012-0.026 0.025-0.051 0.037-0.077-0.012 0.026-0.024 0.052-0.037 0.077zM23.747 19.569c0.011-0.026 0.023-0.051 0.034-0.076-0.011 0.024-0.023 0.050-0.034 0.076zM23.8 19.454c0.012-0.026 0.024-0.052 0.035-0.078-0.012 0.026-0.023 0.052-0.035 0.078zM23.852 19.34c0.014-0.031 0.027-0.062 0.040-0.093-0.013 0.032-0.026 0.063-0.040 0.093zM23.902 19.224c0.016-0.039 0.033-0.078 0.050-0.119-0.017 0.040-0.034 0.079-0.050 0.119zM23.956 19.095c0.015-0.035 0.029-0.070 0.044-0.106-0.014 0.035-0.029 0.070-0.044 0.106zM24.015 18.951c0.011-0.027 0.021-0.053 0.032-0.081-0.010 0.026-0.021 0.053-0.032 0.081zM24.065 18.826c0.010-0.026 0.020-0.050 0.029-0.075-0.010 0.024-0.020 0.049-0.029 0.075zM24.113 18.705c0.010-0.026 0.019-0.051 0.029-0.076-0.010 0.024-0.020 0.049-0.029 0.076zM24.158 18.584c0.010-0.026 0.020-0.053 0.030-0.081-0.011 0.027-0.020 0.055-0.030 0.081zM24.203 18.462c0.012-0.032 0.023-0.065 0.035-0.098-0.012 0.032-0.023 0.065-0.035 0.098zM24.247 18.341c0.015-0.041 0.029-0.081 0.043-0.122-0.014 0.041-0.029 0.081-0.043 0.122zM24.302 18.184c0.011-0.029 0.020-0.058 0.031-0.088-0.011 0.030-0.021 0.059-0.031 0.088zM24.349 18.050c0.009-0.026 0.017-0.052 0.026-0.078-0.008 0.026-0.017 0.052-0.026 0.078zM24.391 17.924c0.009-0.025 0.017-0.050 0.025-0.075-0.009 0.025-0.017 0.050-0.025 0.075zM24.433 17.799c0.008-0.026 0.015-0.051 0.024-0.076-0.009 0.025-0.016 0.050-0.024 0.076zM24.472 17.674c0.009-0.027 0.017-0.055 0.026-0.082-0.009 0.027-0.017 0.055-0.026 0.082zM15.749 22.5c-0.219-0.619-0.405-1.218-0.57-1.833-0.21-0.781-0.339-1.827-0.476-2.934-0.205-1.659-0.438-3.54-1.007-4.989-0.319-0.813-0.712-1.418-1.198-1.849-0.562-0.498-1.249-0.749-2.041-0.749-0.535 0-1.132 0.116-1.774 0.344-0.001 0-0.002 0.001-0.004 0.001-0.034 0.012-0.838 0.316-1.628 1.123-0.727 0.742-1.582 2.069-1.521 4.175 0.091 3.166 1.583 5.977 2.697 7.816 0.156 0.259 0.341 0.582 0.553 0.956 0.2 0.351 0.426 0.747 0.669 1.161 0.055 0.093 0.152 0.145 0.254 0.145 0.045 0 0.091-0.011 0.134-0.033l5.768-2.974c0.13-0.067 0.191-0.22 0.142-0.358zM14.716 19.927c-0.009-0.052-0.019-0.105-0.028-0.158 0.009 0.053 0.018 0.106 0.028 0.158zM14.896 20.743c-0.012-0.046-0.024-0.093-0.036-0.14 0.011 0.047 0.024 0.095 0.036 0.14zM14.854 20.584c-0.011-0.046-0.022-0.091-0.033-0.138 0.011 0.047 0.021 0.093 0.033 0.138zM14.816 20.421c-0.011-0.047-0.021-0.093-0.031-0.14 0.010 0.048 0.021 0.094 0.031 0.14zM14.78 20.255c-0.010-0.049-0.020-0.098-0.030-0.148 0.010 0.050 0.020 0.099 0.030 0.148zM14.748 20.090c-0.010-0.050-0.020-0.101-0.029-0.153 0.009 0.052 0.019 0.103 0.029 0.153zM14.684 19.742c-0.009-0.052-0.018-0.103-0.026-0.155 0.008 0.052 0.018 0.104 0.026 0.155zM14.653 19.555c-0.008-0.052-0.017-0.105-0.024-0.157 0.008 0.053 0.016 0.105 0.024 0.157zM14.623 19.366c-0.008-0.055-0.017-0.11-0.024-0.165 0.008 0.055 0.016 0.11 0.024 0.165zM14.597 19.183c-0.008-0.053-0.015-0.108-0.023-0.163 0.008 0.054 0.015 0.108 0.023 0.163zM14.57 18.997c-0.008-0.055-0.015-0.11-0.023-0.166 0.007 0.056 0.015 0.111 0.023 0.166zM14.541 18.79c-0.007-0.052-0.014-0.107-0.021-0.16 0.007 0.053 0.014 0.107 0.021 0.16zM14.514 18.581c-0.007-0.052-0.014-0.105-0.021-0.159 0.007 0.053 0.014 0.106 0.021 0.159zM14.487 18.37c-0.005-0.044-0.011-0.087-0.017-0.131 0.005 0.044 0.011 0.087 0.017 0.131zM14.459 18.149c-0.004-0.032-0.008-0.066-0.012-0.098 0.004 0.032 0.008 0.066 0.012 0.098zM14.28 16.729c0-0 0-0.001 0-0.002s0 0.001 0 0.002zM14.251 16.514c0-0 0-0 0 0s0-0 0 0zM14.159 15.874c0-0.003-0.001-0.007-0.001-0.009 0.001 0.003 0.001 0.007 0.001 0.009zM14.125 15.661c-0.001-0.005-0.001-0.008-0.002-0.012 0.001 0.004 0.002 0.008 0.002 0.012zM14.089 15.444c0-0.002-0.001-0.003-0.001-0.005 0 0.002 0.001 0.003 0.001 0.005zM14.014 15.023c-0.001-0.002-0.001-0.004-0.001-0.006 0 0.002 0.001 0.004 0.001 0.006zM13.974 14.819c-0.001-0.005-0.002-0.011-0.004-0.017 0.001 0.005 0.002 0.011 0.004 0.017zM13.931 14.609c-0.001-0.005-0.002-0.011-0.004-0.015 0.001 0.005 0.002 0.010 0.004 0.015zM13.884 14.398c0-0.001-0.001-0.002-0.001-0.002 0 0.001 0.001 0.002 0.001 0.002zM13.789 14.002c-0.002-0.005-0.002-0.010-0.004-0.014 0.001 0.005 0.002 0.009 0.004 0.014zM13.737 13.806c-0.002-0.007-0.004-0.013-0.005-0.020 0.002 0.007 0.004 0.013 0.005 0.020zM13.681 13.607c-0.002-0.005-0.003-0.011-0.005-0.015 0.002 0.005 0.003 0.010 0.005 0.015zM13.561 13.227c-0.001-0.002-0.001-0.004-0.002-0.007 0.001 0.002 0.002 0.005 0.002 0.007zM13.499 13.050c-0.002-0.006-0.005-0.012-0.007-0.018 0.002 0.007 0.004 0.012 0.007 0.018zM13.431 12.868c-0.002-0.007-0.005-0.014-0.008-0.020 0.003 0.007 0.005 0.014 0.008 0.020zM13.357 12.688c-0.002-0.004-0.004-0.008-0.005-0.012 0.002 0.004 0.004 0.008 0.005 0.012zM13.207 12.356c-0.002-0.004-0.004-0.008-0.006-0.012 0.002 0.004 0.004 0.008 0.006 0.012zM13.126 12.197c-0.004-0.007-0.007-0.012-0.011-0.020 0.004 0.007 0.008 0.013 0.011 0.020zM13.039 12.039c-0.004-0.006-0.007-0.011-0.011-0.018 0.003 0.006 0.007 0.012 0.011 0.018zM12.945 11.884c-0.002-0.003-0.004-0.005-0.005-0.008 0.002 0.003 0.004 0.006 0.005 0.008zM12.851 11.741c-0.001-0.001-0.001-0.002-0.002-0.004 0.001 0.001 0.001 0.002 0.002 0.004zM12.757 11.61c-0.004-0.005-0.008-0.011-0.011-0.015 0.004 0.005 0.008 0.011 0.011 0.015zM12.653 11.478c-0.005-0.006-0.009-0.011-0.014-0.018 0.005 0.006 0.010 0.011 0.014 0.018zM12.543 11.35c-0.004-0.005-0.008-0.009-0.012-0.014 0.004 0.005 0.008 0.009 0.012 0.014zM12.425 11.227c-0.001-0.001-0.002-0.002-0.004-0.004 0.002 0.002 0.002 0.002 0.004 0.004zM12.313 11.122c-0.003-0.003-0.006-0.005-0.009-0.008 0.003 0.002 0.006 0.005 0.009 0.008zM12.194 11.021c-0.005-0.005-0.011-0.009-0.017-0.014 0.006 0.005 0.011 0.009 0.017 0.014zM12.063 10.924c-0.007-0.005-0.012-0.009-0.019-0.014 0.007 0.005 0.013 0.009 0.019 0.014zM11.927 10.833c-0.005-0.003-0.010-0.006-0.014-0.009 0.005 0.003 0.009 0.006 0.014 0.009zM11.649 10.684c-0.005-0.002-0.011-0.005-0.017-0.008 0.006 0.003 0.011 0.006 0.017 0.008zM11.5 10.621c-0.008-0.003-0.015-0.006-0.023-0.009 0.008 0.003 0.015 0.006 0.023 0.009zM11.341 10.566c-0.008-0.002-0.015-0.005-0.023-0.007 0.008 0.002 0.015 0.005 0.023 0.007zM11.173 10.52c-0.005-0.001-0.009-0.002-0.014-0.003 0.005 0.001 0.010 0.002 0.014 0.003zM11.007 10.485c-0.003-0.001-0.006-0.001-0.009-0.002 0.003 0.001 0.006 0.001 0.009 0.002zM10.841 10.46c-0.008-0.001-0.016-0.002-0.024-0.003 0.008 0.001 0.015 0.002 0.024 0.003zM10.659 10.444c-0.010-0.001-0.020-0.001-0.029-0.002 0.009 0 0.019 0.001 0.029 0.002zM10.466 10.438c-0.009 0-0.018 0-0.027 0 0.005 0 0.011-0.001 0.017-0.001 0.003 0.001 0.007 0.001 0.009 0.001zM10.271 10.443v0 0zM10.095 10.456c-0.009 0.001-0.020 0.002-0.029 0.002 0.009-0.001 0.020-0.002 0.029-0.002zM9.894 10.48c-0.011 0.002-0.023 0.004-0.034 0.005 0.011-0.002 0.023-0.004 0.034-0.005zM9.678 10.517c-0.007 0.001-0.014 0.002-0.021 0.004 0.008-0.002 0.014-0.003 0.021-0.004zM9.476 10.559c-0.008 0.002-0.015 0.003-0.022 0.005 0.007-0.002 0.014-0.004 0.022-0.005zM9.261 10.614c-0.012 0.003-0.025 0.007-0.038 0.011 0.013-0.004 0.025-0.008 0.038-0.011zM9.027 10.682c-0.011 0.004-0.023 0.008-0.034 0.011 0.011-0.004 0.023-0.008 0.034-0.011zM26.405 4.599c-0.558-2.031-1.762-3.051-2.676-3.547-0.991-0.54-1.849-0.595-1.886-0.597-0.001 0-0.003 0-0.004 0-0.111-0.005-0.221-0.008-0.328-0.008-1.313 0-2.301 0.385-2.937 1.143-1.406 1.675-0.857 4.798-0.372 7.553 0.194 1.099 0.376 2.137 0.404 2.945 0.025 0.696 0.019 1.384-0.017 2.102-0.008 0.146 0.094 0.275 0.238 0.303l6.328 1.242c0.019 0.004 0.038 0.005 0.056 0.005 0.133 0 0.252-0.090 0.285-0.223 0.14-0.569 0.261-1.107 0.367-1.582 0.094-0.418 0.175-0.78 0.25-1.073 0.381-1.506 0.602-2.832 0.679-4.055 0.096-1.534-0.031-2.911-0.387-4.21zM21.674 0.743c-0.016 0-0.032 0-0.048-0 0.016 0 0.032 0 0.048 0zM21.526 0.741c-0.011 0-0.020 0-0.030 0 0.006 0 0.011 0 0.015 0s0.009 0 0.015 0zM18.98 1.585c-0.006 0.006-0.012 0.011-0.018 0.017 0.006-0.006 0.012-0.012 0.018-0.017zM21.253 0.746c-0.008 0-0.015 0-0.022 0.001 0.008-0 0.014-0.001 0.022-0.001zM20.997 0.762c-0.006 0-0.012 0.001-0.017 0.002 0.006-0 0.012-0.001 0.017-0.002zM20.756 0.789c-0.005 0-0.009 0.001-0.014 0.002 0.005-0 0.009-0.001 0.014-0.002zM20.526 0.828c-0.003 0-0.007 0.001-0.011 0.002 0.003-0 0.007-0.001 0.011-0.002zM20.307 0.875c-0.003 0-0.005 0.001-0.006 0.001 0.002-0 0.004-0.001 0.006-0.001zM20.102 0.933c-0.002 0-0.003 0-0.004 0.001 0.001-0 0.003-0 0.004-0.001zM19.912 1c-0.003 0.001-0.005 0.002-0.007 0.002 0.002-0.001 0.005-0.002 0.007-0.002zM19.732 1.075c-0.004 0.002-0.008 0.003-0.011 0.004 0.003-0.002 0.007-0.002 0.011-0.004zM19.561 1.161c-0.005 0.002-0.009 0.004-0.014 0.007 0.005-0.002 0.009-0.005 0.014-0.007zM19.401 1.254c-0.005 0.003-0.010 0.006-0.015 0.010 0.005-0.004 0.010-0.006 0.015-0.010zM19.252 1.356c-0.006 0.004-0.011 0.008-0.017 0.012 0.006-0.004 0.011-0.008 0.017-0.012zM19.111 1.466c-0.006 0.005-0.012 0.010-0.017 0.014 0.006-0.004 0.011-0.009 0.017-0.014zM18.858 1.712c-0.006 0.006-0.012 0.013-0.018 0.020 0.006-0.006 0.012-0.014 0.018-0.020zM18.745 1.847c-0.006 0.008-0.012 0.015-0.017 0.022 0.006-0.008 0.012-0.015 0.017-0.022zM18.641 1.988c-0.006 0.008-0.011 0.017-0.017 0.025 0.006-0.008 0.012-0.016 0.017-0.025zM18.546 2.136c-0.006 0.009-0.011 0.018-0.017 0.027 0.005-0.009 0.011-0.018 0.017-0.027zM18.459 2.292c-0.006 0.010-0.011 0.021-0.015 0.030 0.005-0.010 0.010-0.020 0.015-0.030zM18.38 2.454c-0.005 0.010-0.009 0.022-0.014 0.032 0.005-0.010 0.009-0.022 0.014-0.032zM18.309 2.623c-0.005 0.011-0.009 0.023-0.013 0.034 0.005-0.011 0.009-0.023 0.013-0.034zM18.245 2.797c-0.004 0.013-0.008 0.025-0.012 0.037 0.004-0.013 0.008-0.025 0.012-0.037zM18.19 2.977c-0.004 0.013-0.008 0.026-0.011 0.038 0.003-0.013 0.006-0.026 0.011-0.038zM18.14 3.163c-0.003 0.014-0.006 0.027-0.009 0.041 0.004-0.014 0.006-0.027 0.009-0.041zM18.099 3.353c-0.003 0.014-0.006 0.029-0.009 0.042 0.003-0.014 0.006-0.029 0.009-0.042zM18.064 3.549c-0.003 0.014-0.005 0.030-0.007 0.044 0.003-0.014 0.004-0.029 0.007-0.044zM18.034 3.75c-0.002 0.015-0.004 0.030-0.006 0.045 0.002-0.014 0.003-0.030 0.006-0.045zM18.011 3.955c-0.002 0.015-0.003 0.031-0.005 0.046 0.002-0.015 0.003-0.031 0.005-0.046zM17.994 4.163c-0.001 0.016-0.002 0.032-0.003 0.048 0.001-0.016 0.002-0.032 0.003-0.048zM17.982 4.377c-0.001 0.016-0.002 0.032-0.002 0.048 0-0.016 0.001-0.032 0.002-0.048zM17.975 4.593c-0 0.016-0 0.033-0.001 0.050 0-0.016 0-0.033 0.001-0.050zM17.973 4.813c0 0.016 0 0.033 0 0.050 0-0.016-0-0.033-0-0.050zM18.198 7.324c0.004 0.025 0.008 0.050 0.011 0.074-0.004-0.025-0.008-0.050-0.011-0.074zM17.976 5.029c0 0.019 0.001 0.037 0.002 0.056-0-0.019-0.001-0.037-0.002-0.056zM17.983 5.248c0.001 0.021 0.002 0.042 0.003 0.062-0.001-0.021-0.002-0.042-0.003-0.062zM17.994 5.471c0.001 0.022 0.003 0.044 0.004 0.066-0.002-0.022-0.003-0.044-0.004-0.066zM18.009 5.696c0.002 0.024 0.003 0.047 0.006 0.071-0.003-0.024-0.005-0.047-0.006-0.071zM18.027 5.923c0.003 0.024 0.005 0.050 0.007 0.074-0.003-0.024-0.005-0.050-0.007-0.074zM18.049 6.154c0.003 0.024 0.006 0.049 0.008 0.074-0.003-0.025-0.005-0.050-0.008-0.074zM18.073 6.386c0.003 0.026 0.006 0.051 0.009 0.077-0.003-0.026-0.006-0.051-0.009-0.077zM18.101 6.619c0.003 0.026 0.006 0.051 0.009 0.076-0.003-0.026-0.006-0.051-0.009-0.076zM18.131 6.854c0.003 0.024 0.006 0.050 0.010 0.074-0.004-0.024-0.006-0.049-0.010-0.074zM18.163 7.088c0.003 0.024 0.006 0.049 0.011 0.074-0.004-0.024-0.008-0.049-0.011-0.074zM18.387 8.487c0.084 0.485 0.169 0.96 0.247 1.417-0.078-0.456-0.163-0.932-0.247-1.417zM18.233 7.559c0.004 0.027 0.009 0.053 0.012 0.079-0.004-0.027-0.008-0.053-0.012-0.079zM18.27 7.793c0.005 0.029 0.009 0.057 0.014 0.085-0.005-0.028-0.009-0.057-0.014-0.085zM18.308 8.027c0.005 0.030 0.010 0.060 0.015 0.090-0.005-0.030-0.010-0.060-0.015-0.090zM18.348 8.258c0.008 0.044 0.015 0.089 0.023 0.134-0.007-0.044-0.015-0.089-0.023-0.134zM18.671 10.131c0.011 0.068 0.023 0.134 0.032 0.2-0.010-0.066-0.021-0.133-0.032-0.2zM18.634 9.908c0.012 0.071 0.023 0.14 0.035 0.21-0.012-0.070-0.023-0.14-0.035-0.21zM18.823 11.168c0.008 0.060 0.015 0.121 0.021 0.181-0.006-0.060-0.013-0.12-0.021-0.181zM18.706 10.348c0.011 0.065 0.020 0.13 0.030 0.194-0.011-0.065-0.020-0.13-0.030-0.194zM18.739 10.559c0.009 0.064 0.018 0.127 0.028 0.191-0.009-0.063-0.018-0.127-0.028-0.191zM18.77 10.768c0.009 0.063 0.017 0.125 0.026 0.187-0.009-0.062-0.017-0.124-0.026-0.187zM18.799 10.97c0.009 0.062 0.016 0.123 0.023 0.183-0.008-0.060-0.015-0.121-0.023-0.183zM18.901 12.078c-0.002-0.056-0.005-0.113-0.009-0.17 0.003 0.057 0.006 0.114 0.009 0.17zM18.892 11.904c-0.003-0.056-0.008-0.114-0.012-0.172 0.005 0.058 0.009 0.116 0.012 0.172zM18.881 11.724c-0.005-0.057-0.009-0.116-0.015-0.175 0.006 0.059 0.011 0.117 0.015 0.175zM18.864 11.539c-0.006-0.058-0.012-0.117-0.018-0.177 0.006 0.060 0.012 0.119 0.018 0.177z"></path>
</svg>
