<?xml version="1.0" encoding="utf-8"?>
<!-- Generated by IcoMoon.io -->
<!DOCTYPE svg PUBLIC "-//W3C//DTD SVG 1.1//EN" "http://www.w3.org/Graphics/SVG/1.1/DTD/svg11.dtd">
<svg version="1.1" xmlns="http://www.w3.org/2000/svg" xmlns:xlink="http://www.w3.org/1999/xlink" width="32" height="32" viewBox="0 0 32 32">
<path d="M18.315 18.608l-6.515-3.736c-0.243-0.139-0.291-0.425-0.108-0.638l3.124-3.61 6.846 3.873c0.243 0.137 0.448 0.022 0.454-0.258l0.006-0.336c0.006-0.28-0.168-0.652-0.387-0.827l-5.548-4.433c-0.017-0.014-0.039-0.006-0.057-0.016-0.022-0.072-0.022-0.151-0.070-0.208l-2.026-2.476c-0.177-0.216-0.448-0.203-0.603 0.030l-5.345 8.079c-0.155 0.235-0.223 0.646-0.151 0.918l0.433 1.637c0.072 0.272 0.345 0.572 0.608 0.668l6.251 2.301c0.263 0.096 0.404 0.392 0.314 0.656l-2.238 6.561c-0.090 0.265 0.008 0.632 0.218 0.816l0.318 0.282c0.209 0.186 0.481 0.13 0.603-0.121l4.093-8.452c0.122-0.251 0.023-0.571-0.22-0.71zM13.966 3.81c0-1.686 1.366-3.052 3.052-3.052s3.052 1.366 3.052 3.052c0 0 0 0 0 0 0 1.686-1.366 3.052-3.052 3.052s-3.052-1.366-3.052-3.052c0 0 0 0 0 0zM6.573 31.041c-3.624 0-6.573-2.948-6.573-6.572s2.948-6.572 6.572-6.572 6.573 2.948 6.573 6.572-2.948 6.572-6.572 6.572zM6.573 19.433c-2.777 0-5.037 2.259-5.037 5.036s2.259 5.036 5.037 5.036 5.037-2.259 5.037-5.036-2.26-5.036-5.037-5.036zM25.428 31.041c-3.624 0-6.573-2.948-6.573-6.572s2.949-6.572 6.573-6.572c3.625 0 6.572 2.948 6.572 6.572s-2.947 6.572-6.572 6.572zM25.428 19.433c-2.777 0-5.037 2.259-5.037 5.036s2.26 5.036 5.037 5.036 5.037-2.259 5.037-5.036-2.26-5.036-5.037-5.036z"></path>
</svg>
