<?xml version="1.0" encoding="utf-8"?>
<!-- Generated by IcoMoon.io -->
<!DOCTYPE svg PUBLIC "-//W3C//DTD SVG 1.1//EN" "http://www.w3.org/Graphics/SVG/1.1/DTD/svg11.dtd">
<svg version="1.1" xmlns="http://www.w3.org/2000/svg" xmlns:xlink="http://www.w3.org/1999/xlink" width="32" height="32" viewBox="0 0 32 32">
<path d="M27.625 7.414h-5.812v-3.875c0-1.065-0.872-1.938-1.938-1.938h-7.75c-1.065 0-1.938 0.872-1.938 1.938v3.875h-5.812c-2.131 0-3.875 1.744-3.875 3.875v15.5c0 2.132 1.744 3.875 3.875 3.875h23.25c2.132 0 3.875-1.743 3.875-3.875v-15.5c0-2.132-1.743-3.875-3.875-3.875zM12.125 3.539h7.75v3.875h-7.75v-3.875zM23.75 20.977h-5.812v5.812h-3.875v-5.812h-5.813v-3.875h5.812v-5.812h3.875v5.812h5.812v3.875z"></path>
</svg>
