<?xml version="1.0" encoding="utf-8"?>
<!-- Generated by IcoMoon.io -->
<!DOCTYPE svg PUBLIC "-//W3C//DTD SVG 1.1//EN" "http://www.w3.org/Graphics/SVG/1.1/DTD/svg11.dtd">
<svg version="1.1" xmlns="http://www.w3.org/2000/svg" xmlns:xlink="http://www.w3.org/1999/xlink" width="32" height="32" viewBox="0 0 32 32">
<path d="M6.573 16.735c-0.125 0.042-0.25 0.071-0.358 0.070l-2.255-0.001c-0.276 0-0.604-0.203-0.729-0.449l-1.724-3.449c-0.124-0.244-0.065-0.609 0.131-0.804l0.375-0.375c0.195-0.195 0.516-0.195 0.711 0l2.007 2.006c0.195 0.195 0.515 0.195 0.71 0l0.92-0.92c0.196-0.196 0.196-0.516 0-0.711l-2.007-2.006c-0.196-0.193-0.196-0.514 0-0.711l0.377-0.375c0.196-0.195 0.557-0.253 0.805-0.131l3.447 1.726c0.248 0.122 0.451 0.451 0.451 0.727v2.255c0 0.107-0.029 0.232-0.071 0.356l4.4 4.401h-5.582l-1.608-1.609zM30.544 15.204c0.24 0.243 0.24 0.636 0.002 0.877l-2.048 2.045c-0.24 0.241-0.633 0.242-0.875 0l-0.878-0.879c-0.24-0.239-0.24-0.634 0.002-0.873l0.146-0.147-0.293-0.293c-0.162-0.159-0.469-0.352-0.685-0.422l-0.969-0.323c-0.217-0.071-0.524-0.264-0.685-0.421l-1.754-1.756c-0.16-0.16-0.291-0.476-0.292-0.705v-0.755c-0.853-2.555-3.209-1.976-3.209-1.976-0.225-0.034-0.297-0.361-0.297-0.361 1.167-1.17 5.443-0.101 5.443-0.101 0.219 0.056 0.532 0.232 0.693 0.391l2.338 2.34c0.16 0.159 0.354 0.468 0.423 0.682l0.323 0.971c0.072 0.214 0.263 0.522 0.42 0.682l0.294 0.293 0.147-0.147c0.241-0.239 0.633-0.239 0.877 0l0.877 0.878zM28.916 14.243c0.147 0.419 0.596 1.347 1.108 2.36l-1.462 1.46c-0.783-1.57-1.626-3.32-1.682-3.676-0.065-0.409-0.356-0.461-0.601-0.461h-2.861l-0.911-0.913c-0.16-0.16-0.291-0.476-0.292-0.705v-0.396h4.064c0.451 0 0.823 0.090 1.134 0.229 0.083 0.132 0.156 0.272 0.193 0.386l0.323 0.971c0.072 0.214 0.263 0.522 0.42 0.682l0.294 0.293 0.147-0.147c0.037-0.037 0.083-0.058 0.126-0.083zM21.441 18.344h-3.602c0.405-0.275 0.899-0.683 1.281-1.062l2.918-2.89 1.682 1.682c-0.014 0.017-1.251 1.241-2.279 2.27zM6.17 11.912h3.265v1.675c0 0.102-0.028 0.22-0.066 0.338h-3.646c-0.246 0-0.537 0.052-0.601 0.461-0.041 0.261-0.508 1.276-1.063 2.419h-0.1c-0.276 0-0.604-0.203-0.729-0.449l-0.57-1.141c0.265-0.56 0.449-0.987 0.473-1.143 0 0 0.113-0.704 0.627-1.308l0.97 0.969c0.099 0.099 0.227 0.147 0.356 0.147s0.257-0.048 0.355-0.147l0.92-0.92c0.195-0.196 0.195-0.516 0-0.711l-0.191-0.191zM20.704 12.307c0.003 0.573 0.243 1.178 0.61 1.618h-9.835l-0.535-0.536v-1.478h9.76v0.396zM30.746 18.013l-1.18 1.179c-0.096 0.096-0.199 0.18-0.31 0.255 0.2 0.394 0.367 0.722 0.483 0.947h-27.479c0.222-0.433 0.642-1.254 1.097-2.167-0.621-0.179-1.184-0.618-1.478-1.196l-0.059-0.119c-0.858 1.687-1.82 3.482-1.82 3.482v0c0 0.104 0 0.213 0 0.301v10c0 0.551 0.45 1 1 1h30c0.551 0 1-0.449 1-1v-10c0-0.088 0-0.197 0-0.301 0 0-0.588-1.097-1.254-2.381zM22.29 25.541c0 1.525-1.241 2.768-2.768 2.768h-7.045c-1.526 0-2.768-1.242-2.768-2.768v-1.51c0-0.139 0.112-0.252 0.251-0.252h2.013c0.139 0 0.251 0.113 0.251 0.252v1.51c0 0.134 0.117 0.252 0.251 0.252h7.045c0.135 0 0.252-0.118 0.252-0.252v-1.51c0-0.139 0.112-0.252 0.251-0.252h2.014c0.139 0 0.251 0.113 0.251 0.252v1.51z"></path>
</svg>
