<?xml version="1.0" encoding="utf-8"?>
<!-- Generated by IcoMoon.io -->
<!DOCTYPE svg PUBLIC "-//W3C//DTD SVG 1.1//EN" "http://www.w3.org/Graphics/SVG/1.1/DTD/svg11.dtd">
<svg version="1.1" xmlns="http://www.w3.org/2000/svg" xmlns:xlink="http://www.w3.org/1999/xlink" width="32" height="32" viewBox="0 0 32 32">
<path d="M1.972 3.936c0-2.1 6.268-3.803 14-3.803s14 1.703 14 3.803c0 2.1-6.268 3.803-14 3.803s-14-1.703-14-3.803zM15.972 12.132c6.52 0 11.983-0.957 13.541-2.25 0.288 0.4 0.459 0.818 0.459 1.25 0 2.76-6.268 5-14 5s-14-2.24-14-5c0-0.432 0.17-0.85 0.459-1.25 1.557 1.293 7.020 2.25 13.541 2.25zM15.972 28.132c6.52 0 11.983-0.957 13.541-2.25 0.288 0.4 0.459 0.818 0.459 1.25 0 2.566-5.418 4.682-12.393 4.967-0.011 0-0.021 0.001-0.032 0.001-0.517 0.020-1.042 0.032-1.575 0.032s-1.058-0.012-1.575-0.032c-0.012 0-0.022-0.001-0.033-0.001-6.975-0.285-12.392-2.402-12.392-4.967 0-0.432 0.17-0.85 0.459-1.25 1.557 1.293 7.020 2.25 13.541 2.25zM15.972 24.382c-7.732 0-14-2.24-14-5 0-0.432 0.17-0.85 0.459-1.25 1.557 1.293 7.021 2.25 13.541 2.25s11.983-0.957 13.541-2.25c0.288 0.4 0.459 0.818 0.459 1.25 0 2.76-6.268 5-14 5z"></path>
</svg>
