<?xml version="1.0" encoding="utf-8"?>
<!-- Generated by IcoMoon.io -->
<!DOCTYPE svg PUBLIC "-//W3C//DTD SVG 1.1//EN" "http://www.w3.org/Graphics/SVG/1.1/DTD/svg11.dtd">
<svg version="1.1" xmlns="http://www.w3.org/2000/svg" xmlns:xlink="http://www.w3.org/1999/xlink" width="32" height="32" viewBox="0 0 32 32">
<path d="M7.781 15.063c-0.181 0.134-0.412 0.201-0.694 0.202h-1.6v-1.68h1.478c0.141 0 0.277 0.012 0.408 0.036s0.246 0.064 0.347 0.125c0.101 0.060 0.181 0.144 0.242 0.251s0.091 0.245 0.091 0.412c0 0.302-0.091 0.52-0.272 0.654zM7.208 16.34c0.342 0 0.617 0.079 0.825 0.237s0.312 0.421 0.312 0.789c0 0.189-0.032 0.343-0.096 0.463s-0.149 0.217-0.256 0.287c-0.108 0.070-0.232 0.121-0.373 0.15-0.14 0.031-0.288 0.046-0.442 0.046h-1.69v-1.972h1.72zM30.595 18.845c0.191-0.964 1.513-1.839 1.513-2.857s-1.321-1.893-1.513-2.856c-0.198-0.993 0.68-2.3 0.3-3.213-0.389-0.928-1.947-1.238-2.505-2.063-0.561-0.831-0.257-2.376-0.968-3.079-0.711-0.708-2.271-0.404-3.108-0.959-0.833-0.555-1.144-2.1-2.080-2.486-0.167-0.069-0.351-0.097-0.54-0.097-0.745 0-1.628 0.423-2.384 0.423-0.108 0-0.215-0.009-0.318-0.028-0.972-0.191-1.855-1.501-2.883-1.501-1.029 0-1.913 1.31-2.884 1.501-0.103 0.019-0.208 0.028-0.317 0.028-0.758 0-1.64-0.423-2.385-0.423-0.19 0-0.372 0.028-0.54 0.097-0.937 0.386-1.248 1.931-2.080 2.483-0.84 0.555-2.396 0.251-3.107 0.957-0.712 0.705-0.408 2.25-0.97 3.082-0.557 0.823-2.116 1.133-2.505 2.061-0.381 0.913 0.495 2.223 0.298 3.217-0.191 0.963-1.512 1.837-1.512 2.856s1.321 1.894 1.512 2.857c0.197 0.992-0.681 2.299-0.299 3.212 0.388 0.928 1.949 1.237 2.505 2.062 0.562 0.834 0.256 2.376 0.966 3.078 0.712 0.71 2.271 0.405 3.109 0.96 0.832 0.555 1.143 2.101 2.080 2.485 0.167 0.069 0.349 0.099 0.539 0.099 0.747 0 1.629-0.424 2.385-0.424 0.109 0 0.215 0.009 0.318 0.027 0.972 0.191 1.856 1.502 2.886 1.502 1.028 0 1.911-1.311 2.883-1.502 0.104-0.019 0.21-0.027 0.316-0.027 0.758 0 1.641 0.424 2.385 0.424 0.189 0 0.372-0.029 0.54-0.099 0.935-0.385 1.247-1.931 2.081-2.482 0.838-0.555 2.395-0.25 3.105-0.956 0.712-0.705 0.409-2.251 0.97-3.082 0.559-0.824 2.113-1.135 2.504-2.062 0.38-0.912-0.496-2.223-0.297-3.215zM9.713 18.399c-0.141 0.265-0.331 0.48-0.569 0.648s-0.51 0.292-0.815 0.372c-0.305 0.081-0.619 0.121-0.941 0.121h-3.48v-7.184h3.38c0.342 0 0.654 0.030 0.936 0.091s0.523 0.159 0.724 0.297c0.201 0.137 0.357 0.32 0.468 0.548 0.11 0.228 0.166 0.51 0.166 0.845 0 0.363-0.083 0.664-0.247 0.905-0.165 0.242-0.408 0.44-0.729 0.594 0.443 0.127 0.773 0.35 0.991 0.669s0.328 0.703 0.328 1.152c0 0.363-0.071 0.676-0.212 0.942zM16.444 19.54h-5.453v-7.184h5.373v1.328h-3.794v1.54h3.481v1.228h-3.481v1.761h3.874v1.327zM20.68 13.684v5.856h-1.579v-5.856h-2.153v-1.328h5.886v1.328h-2.154zM27.36 19.54l-0.543-1.6h-2.687l-0.563 1.6h-1.589l2.717-7.184h1.619l2.687 7.184h-1.641zM25.5 14.127l0.904 2.636h-1.86l0.935-2.636z"></path>
</svg>
