<?xml version="1.0" encoding="utf-8"?>
<!-- Generated by IcoMoon.io -->
<!DOCTYPE svg PUBLIC "-//W3C//DTD SVG 1.1//EN" "http://www.w3.org/Graphics/SVG/1.1/DTD/svg11.dtd">
<svg version="1.1" xmlns="http://www.w3.org/2000/svg" xmlns:xlink="http://www.w3.org/1999/xlink" width="32" height="32" viewBox="0 0 32 32">
<path d="M31.044 24.746c0.782 0.746 1.436 2.447 0.481 3.426-0.958 0.978-3.555 1.956-8.342 1.956-2.556 0-4.481-0.28-5.873-0.689 0.233-0.162 0.439-0.334 0.618-0.517 0.525-0.537 0.796-1.246 0.782-2.049-0.018-1.034-0.523-2.174-1.288-2.903-0.112-0.107-0.21-0.206-0.303-0.301-0.064-0.065-0.128-0.128-0.191-0.19 0.355-0.159 0.816-0.314 1.462-0.479 0.538-0.136 1.777-0.544 1.921-1.232-0.020-2.367-0.957-2.403-1.435-3.382-0.479-0.976-1.304-3.394-0.479-7.337 0.607-2.908 4.635-2.935 4.782-2.935 0.003 0 0.004 0 0.004 0s0.002 0 0.005 0c0.147 0 4.175 0.027 4.782 2.935 0.825 3.943 0 6.36-0.479 7.337-0.48 0.979-1.417 1.015-1.437 3.382 0.145 0.687 1.384 1.095 1.923 1.232 2.095 0.534 2.251 0.966 3.067 1.746zM13.612 23c2.096 0.534 2.252 0.966 3.069 1.745 0.783 0.746 1.436 2.447 0.479 3.426s-3.554 1.956-8.342 1.956c-4.786 0-7.383-0.977-8.34-1.956-0.958-0.98-0.303-2.68 0.478-3.426 0.816-0.78 0.973-1.212 3.069-1.746 0.539-0.136 1.777-0.544 1.921-1.232-0.020-2.367-0.957-2.403-1.435-3.382-0.479-0.976-1.304-3.394-0.479-7.337 0.607-2.908 4.635-2.935 4.782-2.935 0.003 0 0.004 0 0.004 0s0.002 0 0.004 0c0.148 0 4.175 0.028 4.783 2.936 0.825 3.943 0 6.36-0.479 7.337-0.48 0.979-1.417 1.015-1.437 3.382 0.145 0.687 1.384 1.095 1.923 1.232z"></path>
</svg>
