<?xml version="1.0" encoding="utf-8"?>
<!-- Generated by IcoMoon.io -->
<!DOCTYPE svg PUBLIC "-//W3C//DTD SVG 1.1//EN" "http://www.w3.org/Graphics/SVG/1.1/DTD/svg11.dtd">
<svg version="1.1" xmlns="http://www.w3.org/2000/svg" xmlns:xlink="http://www.w3.org/1999/xlink" width="32" height="32" viewBox="0 0 32 32">
<path d="M14.036 2.182c0.34 0 0.62 0.279 0.62 0.62v26.658c0 0.342-0.28 0.62-0.62 0.62h-1.396c-0.341 0-0.62-0.278-0.62-0.62v-13.64h-5.48c-0.256 0-0.574-0.058-0.879-0.152-0.306-0.095-0.6-0.224-0.808-0.367l-3.681-2.526c-0.208-0.143-0.312-0.331-0.312-0.519s0.104-0.377 0.312-0.519l3.681-2.527c0.208-0.142 0.502-0.272 0.808-0.366 0.305-0.093 0.623-0.152 0.879-0.152h5.48v-5.89c0-0.341 0.279-0.62 0.62-0.62h1.396zM31.549 8.638c0.208 0.143 0.312 0.33 0.312 0.519s-0.104 0.376-0.312 0.519l-3.681 2.527c-0.209 0.143-0.502 0.273-0.808 0.367-0.307 0.093-0.623 0.152-0.879 0.152h-9.354l-1.241-7.13h10.595c0.256 0 0.572 0.058 0.879 0.152 0.306 0.095 0.599 0.224 0.808 0.367l3.681 2.527z"></path>
</svg>
