<?xml version="1.0" encoding="utf-8"?>
<!-- Generated by IcoMoon.io -->
<!DOCTYPE svg PUBLIC "-//W3C//DTD SVG 1.1//EN" "http://www.w3.org/Graphics/SVG/1.1/DTD/svg11.dtd">
<svg version="1.1" xmlns="http://www.w3.org/2000/svg" xmlns:xlink="http://www.w3.org/1999/xlink" width="32" height="32" viewBox="0 0 32 32">
<path d="M31.568 19.317c0.238 0.138 0.432 0.477 0.432 0.752v1.667c0 0.275-0.219 0.445-0.485 0.379l-13.515-3.379v7.083l0.434 0.417 0.133 0.127 3.072 2.945c0.199 0.19 0.361 0.57 0.361 0.845v1.583c0 0.274-0.188 0.375-0.416 0.223l-5.584-3.723-5.584 3.723c-0.228 0.152-0.416 0.051-0.416-0.223v-1.583c0-0.276 0.162-0.656 0.361-0.845l3.639-3.489v-7.083l-13.515 3.379c-0.267 0.066-0.485-0.104-0.485-0.379v-1.667c0-0.275 0.195-0.614 0.432-0.752l13.568-7.916v-6.216c0-1.1 0.402-2.805 0.894-3.79l0.211-0.422c0.492-0.984 1.297-0.984 1.789 0l0.211 0.422c0.493 0.985 0.895 2.69 0.895 3.79v6.216l13.568 7.916z"></path>
</svg>
