<?xml version="1.0" encoding="utf-8"?>
<!-- Generated by IcoMoon.io -->
<!DOCTYPE svg PUBLIC "-//W3C//DTD SVG 1.1//EN" "http://www.w3.org/Graphics/SVG/1.1/DTD/svg11.dtd">
<svg version="1.1" xmlns="http://www.w3.org/2000/svg" xmlns:xlink="http://www.w3.org/1999/xlink" width="32" height="32" viewBox="0 0 32 32">
<path d="M5.833 18.111v4.646c0 2 4.477 5 10 5 5.522 0 9.999-3 9.999-5v-4.646l-9.999 5.001-10-5.001zM15.833 3.757l-16 8 16 8 12.981-6.491-0.981 8.491h2v-9l1.999-1-15.999-8zM16.832 12.207c-0.8 0-1.449-0.649-1.449-1.45s0.649-1.451 1.449-1.451c0.802 0 1.45 0.649 1.45 1.451s-0.648 1.45-1.45 1.45z"></path>
</svg>
