<?xml version="1.0" encoding="utf-8"?>
<!-- Generated by IcoMoon.io -->
<!DOCTYPE svg PUBLIC "-//W3C//DTD SVG 1.1//EN" "http://www.w3.org/Graphics/SVG/1.1/DTD/svg11.dtd">
<svg version="1.1" xmlns="http://www.w3.org/2000/svg" xmlns:xlink="http://www.w3.org/1999/xlink" width="32" height="32" viewBox="0 0 32 32">
<path d="M11 6.132c0 2.762 2.238 5 5 5s5-2.238 5-5-2.238-5-5-5-5 2.238-5 5zM31.562 23.883l-8-10c-0.396-0.493-0.976-0.75-1.562-0.75v-0.001h-12c-0.586 0-1.167 0.257-1.562 0.75l-8 10c-0.524 0.656-0.584 1.57-0.146 2.289 0.368 0.604 1.020 0.96 1.708 0.96 0.13 0 0.262-0.013 0.393-0.039l5.607-1.12v6.159h16v-6.159l5.608 1.122c0.131 0.026 0.262 0.039 0.393 0.039 0.688 0 1.341-0.356 1.708-0.96 0.436-0.719 0.378-1.634-0.147-2.29zM22 21.491l-1.608-0.321c-1.083-0.218-2.137 0.485-2.353 1.569-0.217 1.082 0.486 2.137 1.569 2.353l2.392 0.479v1.561l-6 2-6-2v-1.561l2.392-0.478c1.083-0.217 1.786-1.271 1.569-2.353-0.217-1.084-1.27-1.785-2.353-1.569l-1.608 0.32v-4.359l6 2 6-2v4.359z"></path>
</svg>
