<?xml version="1.0" encoding="utf-8"?>
<!-- Generated by IcoMoon.io -->
<!DOCTYPE svg PUBLIC "-//W3C//DTD SVG 1.1//EN" "http://www.w3.org/Graphics/SVG/1.1/DTD/svg11.dtd">
<svg version="1.1" xmlns="http://www.w3.org/2000/svg" xmlns:xlink="http://www.w3.org/1999/xlink" width="32" height="32" viewBox="0 0 32 32">
<path d="M31.438 29.288c-1.118 1.143-5.827 2.28-11.239 2.684-0.044 0.004-0.089 0.006-0.133 0.010-0.624 0.045-1.255 0.084-1.893 0.107-0.026 0.002-0.052 0.002-0.078 0.004-0.651 0.023-1.305 0.039-1.961 0.039-0.009 0-0.019 0-0.028 0s-0.018 0-0.027 0c-0.656 0-1.31-0.016-1.961-0.037-0.013 0-0.026-0.002-0.039-0.002s-0.026 0-0.039-0.002c-0.001 0-0.002 0-0.002 0-0.637-0.025-1.267-0.062-1.89-0.107-0.045-0.004-0.090-0.006-0.134-0.010-5.414-0.405-10.122-1.541-11.24-2.684-1.391-1.422-0.441-3.893 0.695-4.979 1.015-0.967 3.666-1.568 6.319-2.209 0.065-0.016 0.129-0.031 0.194-0.047 0.080-0.020 0.16-0.039 0.24-0.059 0.286-0.070 0.571-0.141 0.854-0.213 0.012-0.002 0.023-0.006 0.035-0.008 0.783-0.201 2.585-0.795 2.794-1.795-0.021-2.33-0.652-3.106-1.273-3.804-0.295-0.334-0.59-0.651-0.814-1.11-0.697-1.422-1.895-4.935-0.697-10.669 0.564-2.692 3.141-3.685 4.995-4.051 1.112-0.22 1.963-0.214 1.963-0.214s0.020 0 0.027 0c0.008 0 0.028 0 0.028 0s6.054-0.042 6.958 4.264c1.199 5.734 0 9.247-0.697 10.668-0.693 1.423-2.056 1.472-2.087 4.915 0.21 1 2.011 1.594 2.793 1.795 0.297 0.075 0.599 0.149 0.901 0.223 0.072 0.018 0.145 0.035 0.217 0.053 0.091 0.021 0.182 0.045 0.273 0.066 2.632 0.634 5.245 1.234 6.252 2.193 1.136 1.086 2.086 3.557 0.694 4.979z"></path>
</svg>
