<?xml version="1.0" encoding="utf-8"?>
<!-- Generated by IcoMoon.io -->
<!DOCTYPE svg PUBLIC "-//W3C//DTD SVG 1.1//EN" "http://www.w3.org/Graphics/SVG/1.1/DTD/svg11.dtd">
<svg version="1.1" xmlns="http://www.w3.org/2000/svg" xmlns:xlink="http://www.w3.org/1999/xlink" width="32" height="32" viewBox="0 0 32 32">
<path d="M24.873 29.931c-0.865 0.885-4.51 1.763-8.699 2.078-0.035 0.002-0.069 0.004-0.103 0.006-0.483 0.035-0.971 0.064-1.464 0.084-0.020 0-0.040 0.002-0.060 0.002-0.504 0.017-1.010 0.031-1.518 0.031-0.006 0-0.014 0-0.021 0s-0.014 0-0.021 0c-0.508 0-1.014-0.014-1.52-0.031-0.010 0-0.020 0-0.030-0.002-0.009 0-0.020 0-0.030 0 0 0-0.001 0-0.001 0-0.492-0.020-0.98-0.049-1.462-0.084-0.035-0.002-0.069-0.004-0.104-0.006-4.19-0.314-7.834-1.193-8.699-2.078-1.076-1.1-0.341-3.012 0.538-3.854 0.786-0.748 2.838-1.215 4.891-1.711 0.050-0.012 0.1-0.023 0.15-0.035 0.062-0.016 0.124-0.031 0.186-0.045 0.222-0.055 0.443-0.109 0.662-0.166 0.009-0.002 0.018-0.004 0.027-0.006 0.605-0.155 2-0.616 2.162-1.389-0.016-1.802-0.504-2.402-0.985-2.943-0.229-0.257-0.457-0.504-0.63-0.859-0.54-1.1-1.467-3.818-0.54-8.256 0.437-2.084 2.431-2.852 3.866-3.136 0.86-0.17 1.519-0.166 1.519-0.166s0.016 0 0.021 0c0.006 0 0.021 0 0.021 0s4.685-0.032 5.383 3.301c0.928 4.438 0 7.156-0.539 8.256-0.537 1.102-1.592 1.139-1.616 3.803 0.163 0.774 1.558 1.235 2.162 1.389 0.23 0.059 0.464 0.115 0.697 0.174 0.057 0.014 0.112 0.027 0.168 0.041 0.071 0.016 0.142 0.033 0.212 0.051 2.037 0.49 4.060 0.955 4.839 1.697 0.88 0.842 1.614 2.754 0.538 3.854zM24.869 0.132c-3.938 0-7.131 2.411-7.131 5.383 0 2.323 1.949 4.303 4.679 5.057 0.040 0.226 0.091 0.547 0.091 0.746 0 0.937-0.358 1.825-0.997 2.626 0.988-0.416 2.381-1.752 3.244-3.048 0.038 0 0.076 0.002 0.114 0.002 3.939 0 7.131-2.411 7.131-5.384 0-2.971-3.192-5.382-7.131-5.382z"></path>
</svg>
