<?xml version="1.0" encoding="utf-8"?>
<!-- Generated by IcoMoon.io -->
<!DOCTYPE svg PUBLIC "-//W3C//DTD SVG 1.1//EN" "http://www.w3.org/Graphics/SVG/1.1/DTD/svg11.dtd">
<svg version="1.1" xmlns="http://www.w3.org/2000/svg" xmlns:xlink="http://www.w3.org/1999/xlink" width="32" height="32" viewBox="0 0 32 32">
<path d="M16 0.632c-8.561 0-15.5 6.939-15.5 15.5s6.939 15.5 15.5 15.5 15.5-6.939 15.5-15.5-6.939-15.5-15.5-15.5zM16 27.757c-1.605 0-2.906-1.301-2.906-2.906s1.301-2.906 2.906-2.906 2.906 1.301 2.906 2.906-1.301 2.906-2.906 2.906zM22.785 11.351c-0.151 0.511-0.36 0.996-0.63 1.453-0.269 0.458-0.593 0.892-0.969 1.3-0.378 0.41-0.791 0.803-1.245 1.18-0.506 0.419-0.913 0.792-1.219 1.115s-0.515 0.604-0.622 0.839c-0.203 0.435-0.355 1.477-0.163 2.769h-3.872c-0.031-2.297 0.306-3.421 0.708-4.253 0.41-0.841 1.173-1.729 2.293-2.666 0.486-0.397 0.862-0.751 1.131-1.059s0.475-0.581 0.613-0.823c0.14-0.242 0.227-0.469 0.26-0.68 0.032-0.209 0.049-0.427 0.049-0.653 0-0.421-0.074-0.808-0.219-1.163s-0.353-0.662-0.621-0.92c-0.27-0.259-0.587-0.46-0.953-0.606-0.366-0.145-0.774-0.218-1.227-0.218-1.767 0-2.844 1.232-3.231 3.7h-3.876c0.097-1.056 0.336-2.011 0.719-2.867s0.882-1.584 1.502-2.182 1.342-1.059 2.166-1.381c0.824-0.324 1.721-0.485 2.69-0.485 1.033 0 1.975 0.148 2.826 0.444 0.852 0.297 1.58 0.709 2.188 1.236 0.609 0.528 1.082 1.158 1.422 1.89 0.339 0.732 0.51 1.53 0.51 2.391-0.003 0.58-0.079 1.127-0.23 1.639z"></path>
</svg>
