<?xml version="1.0" encoding="utf-8"?>
<!-- Generated by IcoMoon.io -->
<!DOCTYPE svg PUBLIC "-//W3C//DTD SVG 1.1//EN" "http://www.w3.org/Graphics/SVG/1.1/DTD/svg11.dtd">
<svg version="1.1" xmlns="http://www.w3.org/2000/svg" xmlns:xlink="http://www.w3.org/1999/xlink" width="32" height="32" viewBox="0 0 32 32">
<path d="M17.894 6.295h-15.945c-1.077 0-1.949 0.872-1.949 1.948v21.94c0 1.077 0.872 1.949 1.949 1.949h21.942c1.076 0 1.948-0.872 1.948-1.948v-16.036l-3.896 3.897v10.19h-18.046v-18.043h10.099l3.898-3.897zM32 9.914c-0.001 0.251-0.144 0.308-0.321 0.132l-2.848-2.849-14.829 14.828c-0.231 0.231-0.605 0.231-0.836 0l-3.083-3.083c-0.231-0.231-0.231-0.605 0-0.836l14.827-14.828-2.848-2.848c-0.177-0.176-0.116-0.321 0.132-0.321h9.354c0.249-0.001 0.453 0.203 0.452 0.453v9.352z"></path>
</svg>
