<?xml version="1.0" encoding="utf-8"?>
<!-- Generated by IcoMoon.io -->
<!DOCTYPE svg PUBLIC "-//W3C//DTD SVG 1.1//EN" "http://www.w3.org/Graphics/SVG/1.1/DTD/svg11.dtd">
<svg version="1.1" xmlns="http://www.w3.org/2000/svg" xmlns:xlink="http://www.w3.org/1999/xlink" width="33" height="32" viewBox="0 0 33 32">
<path d="M16.404 0c-9.029 0.041-16.333 7.369-16.333 16.404 0 7.176 4.608 13.276 11.027 15.503 0.218 0.085 0.34 0.114 0.468 0.114 0.453 0 0.82-0.367 0.82-0.82 0-0.016-0-0.031-0.001-0.047 0-0.385 0-1.416 0-2.787-4.558 0.996-5.531-2.203-5.531-2.203-0.124-0.721-0.831-1.714-1.799-2.333-1.506-1.030 0.1-1.006 0.1-1.006 0.984 0.090 1.953 0.741 2.499 1.671 0.622 1.097 1.765 1.815 3.076 1.815 0.624 0 1.211-0.163 1.719-0.448 0.016-0.756 0.41-1.581 1.025-2.181-3.643-0.411-7.475-1.817-7.475-8.109-0-0.029-0.001-0.064-0.001-0.099 0-1.665 0.642-3.18 1.692-4.311-0.219-0.582-0.344-1.259-0.344-1.964 0-0.861 0.186-1.679 0.52-2.416s1.297-0.42 4.438 1.724c1.23-0.35 2.642-0.551 4.101-0.551s2.871 0.201 4.211 0.577c3.019-2.147 4.402-1.714 4.402-1.714 0.319 0.7 0.505 1.518 0.505 2.379 0 0.706-0.125 1.383-0.354 2.009 1.059 1.085 1.701 2.598 1.701 4.261 0 0.024-0 0.048-0 0.072 0 6.3-3.832 7.683-7.487 8.093 0.728 0.711 1.179 1.703 1.179 2.8 0 0.083-0.003 0.165-0.008 0.246 0.001 2.18 0.001 3.949 0.001 4.488-0.001 0.013-0.001 0.029-0.001 0.045 0 0.453 0.367 0.82 0.82 0.82 0.128 0 0.25-0.029 0.358-0.082 6.547-2.248 11.172-8.358 11.172-15.547 0-9.060-7.344-16.404-16.404-16.404-0.032 0-0.065 0-0.097 0z"></path>
</svg>
