<?xml version="1.0" encoding="utf-8"?>
<!-- Generated by IcoMoon.io -->
<!DOCTYPE svg PUBLIC "-//W3C//DTD SVG 1.1//EN" "http://www.w3.org/Graphics/SVG/1.1/DTD/svg11.dtd">
<svg version="1.1" xmlns="http://www.w3.org/2000/svg" xmlns:xlink="http://www.w3.org/1999/xlink" width="32" height="32" viewBox="0 0 32 32">
<path d="M23.040 11.2c-1.387-1.28-3.52-1.333-5.013-0.107-1.28 1.067-1.6 2.88-0.747 4.267 0.747 1.173 1.813 1.653 3.147 1.707 0.64 0 1.28-0.16 1.867-0.48 2.133-1.12 2.507-3.84 0.747-5.387zM9.6 10.987c-1.333 1.067-1.707 2.773-0.907 4.16 0.693 1.28 1.867 1.867 3.307 1.92 0.747 0 1.28-0.16 1.867-0.48 2.027-1.067 2.4-3.68 0.8-5.333-1.387-1.28-3.627-1.44-5.067-0.267zM30.187 15.36c-0.16 0.053-0.32 0.107-0.48 0.213-0.107 0.053-0.16 0.16-0.267 0.107s-0.053-0.213-0.053-0.267c0-2.027 0-4 0-6.027 0-1.813 0-3.627 0-5.44 0-1.493-1.227-2.827-2.827-2.827-3.52 0.053-7.040 0-10.56 0-3.573 0-7.093 0-10.667 0-0.213 0-0.427 0-0.64 0.053-1.227 0.32-2.080 1.44-2.080 2.773 0 3.787 0 7.573 0 11.307 0 0.053 0 0.16 0 0.213s0 0.16-0.053 0.213c-0.107 0.053-0.16-0.053-0.213-0.053-0.213-0.16-0.373-0.267-0.64-0.267-0.32-0.053-0.64 0.213-0.64 0.587-0.053 0.427 0.213 0.693 0.427 0.96 0.693 0.8 1.493 1.44 2.4 2.027 1.067 0.747 2.24 1.333 3.413 1.867 0.267 0.107 0.267 0.16 0.213 0.427s-0.16 0.587-0.213 0.853c-0.32 1.547-0.427 3.147-0.107 4.693 0.32 1.44 1.013 2.667 2.187 3.627 0.693 0.587 1.493 0.907 2.4 1.067 0.747 0.107 1.493 0.053 2.24-0.32s1.227-0.96 1.493-1.76c0.107-0.373 0.16-0.747 0.16-1.12 0-1.76 0-3.52 0-5.28 0-0.48 0-0.48 0.48-0.373 0.32 0.107 0.32 0.107 0.32 0.427 0 1.76 0 3.467 0 5.227 0 0.213 0 0.427 0.053 0.693 0.213 1.333 1.28 2.4 2.56 2.507 0.64 0.053 1.227 0.053 1.867-0.16 0.427-0.16 0.853-0.267 1.227-0.48 1.227-0.747 1.973-1.813 2.453-3.093 0.533-1.387 0.587-2.88 0.373-4.373-0.107-0.747-0.267-1.493-0.427-2.187-0.053-0.213 0-0.267 0.16-0.373 0.053 0 0.107-0.053 0.16-0.053 1.28-0.533 2.507-1.227 3.627-2.027 0.8-0.587 1.547-1.227 2.187-1.973 0.16-0.213 0.267-0.427 0.32-0.693-0.053-0.427-0.373-0.8-0.853-0.693zM27.68 16.853c-1.813 0.907-3.733 1.493-5.76 1.6-1.013 0.053-2.080 0.053-3.093 0-0.427 0-0.853-0.053-1.28 0.053-0.587 0.16-0.96 0.48-1.067 1.067-0.053 0.267-0.107 0.267-0.32 0.107-0.32-0.213-0.587-0.48-0.853-0.747-0.373-0.32-0.747-0.48-1.227-0.533-0.64-0.053-1.28 0-1.92 0.053-0.587 0.053-1.12 0-1.707-0.053-1.387-0.053-2.72-0.32-4.053-0.8-0.64-0.213-1.28-0.48-1.92-0.8-0.16 0-0.213-0.107-0.213-0.267 0-3.84 0-7.733 0-11.573 0-0.373 0.053-0.747 0.16-1.067 0.213-0.64 0.64-1.013 1.28-1.12 0.267-0.053 0.533-0.107 0.853-0.107 3.147 0 6.347 0 9.493 0 3.2 0 6.347 0 9.547 0 0.32 0 0.587 0.053 0.907 0.107 0.587 0.16 1.013 0.533 1.227 1.12 0.16 0.373 0.213 0.8 0.213 1.227 0 3.733 0 7.52 0 11.253 0 0.267-0.107 0.373-0.267 0.48z"></path>
</svg>
