<?xml version="1.0" encoding="utf-8"?>
<!-- Generated by IcoMoon.io -->
<!DOCTYPE svg PUBLIC "-//W3C//DTD SVG 1.1//EN" "http://www.w3.org/Graphics/SVG/1.1/DTD/svg11.dtd">
<svg version="1.1" xmlns="http://www.w3.org/2000/svg" xmlns:xlink="http://www.w3.org/1999/xlink" width="32" height="32" viewBox="0 0 32 32">
<path d="M16.16 31.2c-8.533 0-15.467-6.933-15.467-15.52 0-8.48 6.987-15.467 15.573-15.413 8.373 0.053 15.36 6.933 15.36 15.52-0.053 8.48-6.987 15.413-15.467 15.413zM16.16 30.507c8.107 0 14.667-6.56 14.773-14.613 0.107-8.267-6.56-14.933-14.72-14.933-8.213 0-14.827 6.613-14.827 14.667-0.053 8.267 6.56 14.88 14.773 14.88zM26.133 7.253c-1.44 0.16-1.92 1.387-1.707 2.56 0.107 0.64 0.267 1.227 0.533 1.813 0.533 1.12 0.587 2.347 0.587 3.52 0 2.080-0.747 4-1.493 5.867-0.267 0.64-0.533 1.333-0.8 2.027-0.427-1.12-0.853-2.187-1.227-3.253-0.907-2.347-1.76-4.747-2.667-7.147-0.053-0.16-0.107-0.32-0.107-0.48-0.053-0.533 0.267-0.853 0.8-0.96 0.213 0 0.373-0.053 0.587-0.053 0.16 0 0.373 0 0.587-0.053 0-0.213 0-0.427 0-0.64-3.040 0-6.080 0-9.12 0 0 0.16 0 0.32 0 0.533 0.267 0.053 0.587 0.107 0.907 0.213 0.747 0.213 1.227 0.64 1.493 1.387 0.427 1.173 0.907 2.347 1.387 3.52 0.053 0.16 0.053 0.32 0 0.48-0.907 2.187-1.813 4.427-2.773 6.613 0 0.053-0.053 0.107-0.107 0.213-0.213-0.533-0.427-0.96-0.587-1.44-1.227-3.040-2.453-6.133-3.68-9.173-0.16-0.427-0.16-0.8 0.053-1.12 0.213-0.373 0.587-0.427 1.013-0.427 0.16 0 0.267 0 0.427 0 0-0.213 0-0.427 0-0.64-2.027 0-4.053 0-6.133 0 1.76-3.947 4.64-6.507 8.8-7.573 5.12-1.333 10.24 0.587 13.227 4.213zM12 28.267c1.493-3.52 2.987-6.933 4.533-10.507 1.333 3.52 2.667 6.933 4 10.453-2.88 0.96-5.707 0.96-8.533 0.053zM3.573 12.16c2.027 5.013 4.053 10.027 6.133 15.040-1.12-0.213-3.84-2.88-4.96-4.853-1.813-3.2-2.187-6.613-1.227-10.187 0 0 0.053 0 0.053 0zM28.693 11.893c1.76 5.227-0.213 11.947-5.867 15.2 1.973-5.067 3.893-10.133 5.867-15.2z"></path>
</svg>
