<?xml version="1.0" encoding="utf-8"?>
<!-- Generated by IcoMoon.io -->
<!DOCTYPE svg PUBLIC "-//W3C//DTD SVG 1.1//EN" "http://www.w3.org/Graphics/SVG/1.1/DTD/svg11.dtd">
<svg version="1.1" xmlns="http://www.w3.org/2000/svg" xmlns:xlink="http://www.w3.org/1999/xlink" width="32" height="32" viewBox="0 0 32 32">
<path d="M25.354 22.145c0.057 0.163 0.097 0.361 0.122 0.594 0.023 0.233 0.038 0.502 0.045 0.809h-1.619v-0.312c0-0.188 0.012-0.375 0.040-0.564s0.071-0.359 0.132-0.512c0.061-0.153 0.143-0.276 0.247-0.371s0.235-0.142 0.396-0.142 0.293 0.043 0.396 0.127c0.103 0.084 0.183 0.208 0.241 0.371zM18.764 21.825c0.344 0 0.569 0.219 0.672 0.66s0.155 1.096 0.155 1.967c0 0.87-0.051 1.527-0.155 1.967s-0.327 0.659-0.672 0.659c-0.353 0-0.58-0.22-0.684-0.659-0.103-0.441-0.155-1.097-0.155-1.967 0-0.871 0.051-1.527 0.155-1.967s0.331-0.66 0.684-0.66zM26.885 15.749h-21.494c-2.901 0-5.253 2.352-5.253 5.253v5.429c0 2.9 2.352 5.253 5.253 5.253h21.494c2.901 0 5.254-2.353 5.254-5.253v-5.429c0-2.901-2.353-5.253-5.254-5.253zM9.858 19.6h-1.792v8.845h-1.655v-8.845h-1.792v-1.752h5.239v1.752zM14.822 28.444h-1.516v-0.936h-0.023c-0.169 0.396-0.387 0.679-0.655 0.846s-0.574 0.252-0.919 0.252c-0.506 0-0.895-0.171-1.167-0.511-0.272-0.342-0.408-0.913-0.408-1.715v-5.922h1.585v5.507c0 0.415 0.054 0.704 0.161 0.868s0.279 0.244 0.517 0.244c0.559 0 0.839-0.439 0.839-1.32v-5.299h1.585v7.986zM20.718 27.643c-0.307 0.643-0.786 0.964-1.437 0.964-0.322 0-0.592-0.073-0.811-0.223-0.218-0.147-0.415-0.41-0.591-0.786h-0.023v0.847h-1.517v-10.597h1.585v3.354h0.023c0.168-0.315 0.357-0.554 0.569-0.711 0.21-0.158 0.464-0.238 0.764-0.238 0.65 0 1.13 0.33 1.437 0.987 0.306 0.657 0.459 1.729 0.459 3.213 0.001 1.483-0.153 2.547-0.458 3.19zM27.037 24.764h-3.137v0.638c0 0.237 0.013 0.468 0.040 0.69s0.071 0.421 0.132 0.594c0.062 0.173 0.142 0.312 0.241 0.415s0.223 0.156 0.368 0.156c0.268 0 0.463-0.124 0.586-0.371s0.207-0.623 0.252-1.128h1.425c-0.030 0.93-0.222 1.638-0.574 2.122s-0.907 0.727-1.665 0.727c-0.575 0-1.023-0.123-1.346-0.37-0.321-0.247-0.559-0.574-0.712-0.979s-0.247-0.861-0.281-1.365c-0.035-0.505-0.052-1.009-0.052-1.514 0-0.534 0.028-1.049 0.086-1.544 0.058-0.494 0.173-0.935 0.345-1.32s0.419-0.692 0.741-0.921c0.321-0.228 0.751-0.341 1.287-0.341 0.459 0 0.836 0.097 1.132 0.29 0.295 0.192 0.526 0.465 0.695 0.815 0.168 0.352 0.283 0.776 0.344 1.276 0.062 0.5 0.093 1.057 0.093 1.67v0.46zM9.355 5.584h0.026l1.302-4.639h2.030l-2.407 7.279v4.723h-1.875v-4.723l-2.408-7.279h2.108l1.224 4.639zM12.934 6.375c0.096-0.594 0.252-1.090 0.469-1.488s0.5-0.7 0.853-0.908c0.351-0.208 0.782-0.311 1.295-0.311 0.538-0.011 0.984 0.082 1.34 0.277 0.356 0.196 0.637 0.496 0.846 0.899 0.208 0.403 0.355 0.902 0.442 1.496 0.086 0.594 0.13 1.289 0.13 2.084 0 0.773-0.048 1.457-0.144 2.051-0.095 0.594-0.252 1.090-0.468 1.488s-0.502 0.692-0.853 0.882c-0.352 0.191-0.783 0.286-1.295 0.286-0.539 0.011-0.985-0.075-1.341-0.261s-0.638-0.476-0.846-0.874-0.356-0.896-0.442-1.496c-0.087-0.6-0.13-1.292-0.13-2.076 0.001-0.772 0.049-1.455 0.144-2.049zM14.613 9.703c0.018 0.393 0.059 0.729 0.124 1.009s0.163 0.499 0.292 0.655c0.131 0.157 0.304 0.235 0.521 0.235 0.364 0 0.616-0.246 0.755-0.74 0.138-0.492 0.208-1.305 0.208-2.437s-0.070-1.944-0.208-2.438c-0.139-0.492-0.391-0.739-0.755-0.739-0.218 0-0.391 0.079-0.521 0.235-0.129 0.157-0.227 0.376-0.292 0.656s-0.106 0.616-0.124 1.008c-0.018 0.393-0.026 0.818-0.026 1.278 0 0.459 0.009 0.886 0.026 1.278zM23.489 11.888c-0.19 0.448-0.438 0.768-0.741 0.958-0.304 0.191-0.651 0.286-1.041 0.286-0.572 0-1.014-0.193-1.321-0.58-0.309-0.387-0.462-1.034-0.462-1.941v-6.708h1.796v6.237c0 0.471 0.061 0.799 0.183 0.984 0.121 0.185 0.316 0.277 0.585 0.277 0.634 0 0.95-0.499 0.95-1.497v-6.001h1.796v9.044h-1.718v-1.059h-0.027z"></path>
</svg>
