<?xml version="1.0" encoding="utf-8"?>
<!-- Generated by IcoMoon.io -->
<!DOCTYPE svg PUBLIC "-//W3C//DTD SVG 1.1//EN" "http://www.w3.org/Graphics/SVG/1.1/DTD/svg11.dtd">
<svg version="1.1" xmlns="http://www.w3.org/2000/svg" xmlns:xlink="http://www.w3.org/1999/xlink" width="32" height="32" viewBox="0 0 32 32">
<path d="M29.496 12.125h-1.736c-1.065 0-1.998-0.9-2.071-1.938v0c-0.001-5.529-4.46-9.687-10.028-9.687h-5.081c-5.563 0-10.076 4.48-10.080 10.010v10.983c0 5.53 4.517 10.007 10.081 10.007h10.852c5.568 0 10.067-4.477 10.067-10.006v-7.097c0-1.104-0.892-2.272-2.004-2.272zM10.188 8.25h5.812c1.065 0 1.938 0.872 1.938 1.938s-0.873 1.937-1.938 1.937h-5.812c-1.066 0-1.938-0.872-1.938-1.938s0.872-1.937 1.938-1.937zM21.812 23.75h-11.624c-1.066 0-1.938-0.872-1.938-1.938s0.872-1.938 1.938-1.938h11.625c1.065 0 1.938 0.872 1.938 1.938s-0.873 1.938-1.939 1.938z"></path>
</svg>
