<?xml version="1.0" encoding="utf-8"?>
<!-- Generated by IcoMoon.io -->
<!DOCTYPE svg PUBLIC "-//W3C//DTD SVG 1.1//EN" "http://www.w3.org/Graphics/SVG/1.1/DTD/svg11.dtd">
<svg version="1.1" xmlns="http://www.w3.org/2000/svg" xmlns:xlink="http://www.w3.org/1999/xlink" width="32" height="32" viewBox="0 0 32 32">
<path d="M22.176 16.512c2.304 0 4.64 0 6.944 0 0.48 0 0.608 0.192 0.608 0.608 0 3.936 0 7.904 0 11.84 0 0.704 0 0.704-0.704 0.608-4.032-0.576-8.064-1.152-12.128-1.664-0.608-0.096-1.28-0.192-1.92-0.224-0.288-0.032-0.384-0.128-0.384-0.48 0-3.456 0-6.848 0-10.304 0-0.48 0.288-0.48 0.608-0.48 2.304 0 4.64 0 6.944 0 0.032 0.064 0.032 0.064 0.032 0.096zM22.112 15.168c-2.304 0-4.608 0-6.912 0-0.48 0-0.608-0.096-0.608-0.608 0-3.296 0-6.624 0-9.984 0-0.48 0.128-0.608 0.576-0.704 4.704-0.576 9.344-1.248 14.048-1.92 0.416-0.032 0.512 0.032 0.512 0.48 0 4.032 0 8.096 0 12.128 0 0.48-0.192 0.576-0.576 0.576-2.336 0-4.704 0-7.040 0 0 0 0 0 0 0.032zM7.68 16.416c1.664 0 3.392 0 5.088 0 0.416 0 0.608 0.096 0.608 0.576 0 3.296 0 6.624 0 9.888 0 0.416-0.096 0.512-0.512 0.48-3.52-0.48-6.976-0.96-10.432-1.44-0.384-0.064-0.512-0.192-0.512-0.576 0-2.816 0-5.664 0-8.448 0-0.48 0.192-0.512 0.576-0.512 1.728 0 3.456 0 5.184 0.032 0-0.032 0-0.032 0 0zM7.584 15.264c-1.728 0-3.456 0-5.12 0-0.32 0-0.48-0.096-0.48-0.416 0-2.88 0-5.76 0-8.64 0-0.32 0.128-0.48 0.48-0.512 3.008-0.384 6.080-0.8 9.12-1.248 0.416-0.032 0.896-0.128 1.344-0.128 0.32 0 0.416 0.096 0.416 0.416 0 3.36 0 6.656 0 10.016 0 0.416-0.224 0.416-0.576 0.416-1.728 0-3.456 0-5.216 0 0.032 0.064 0.032 0.064 0.032 0.096z"></path>
</svg>
