<?xml version="1.0" encoding="utf-8"?>
<!-- Generated by IcoMoon.io -->
<!DOCTYPE svg PUBLIC "-//W3C//DTD SVG 1.1//EN" "http://www.w3.org/Graphics/SVG/1.1/DTD/svg11.dtd">
<svg version="1.1" xmlns="http://www.w3.org/2000/svg" xmlns:xlink="http://www.w3.org/1999/xlink" width="32" height="32" viewBox="0 0 32 32">
<path d="M4.625 23.233c2.286 0 4.134 1.857 4.131 4.119 0 2.276-1.846 4.111-4.131 4.111-2.275 0-4.125-1.835-4.125-4.111 0-2.262 1.849-4.119 4.125-4.119zM0.505 11.033c11.279 0 20.46 9.181 20.462 20.466h-5.968c0-3.882-1.51-7.538-4.247-10.271-2.74-2.74-6.379-4.254-10.247-4.254v-5.941zM0.512 0.5c17.085 0 30.988 13.912 30.988 31h-5.96c0-13.814-11.23-25.056-25.028-25.056v-5.944z"></path>
</svg>
