<?xml version="1.0" encoding="utf-8"?>
<!-- Generated by IcoMoon.io -->
<!DOCTYPE svg PUBLIC "-//W3C//DTD SVG 1.1//EN" "http://www.w3.org/Graphics/SVG/1.1/DTD/svg11.dtd">
<svg version="1.1" xmlns="http://www.w3.org/2000/svg" xmlns:xlink="http://www.w3.org/1999/xlink" width="32" height="32" viewBox="0 0 32 32">
<path d="M0.5 11.875l1.259 1.651c0 0 2.597-2.046 3.462-1.022 0.865 1.022 4.169 13.379 5.273 15.659 0.962 1.998 3.618 4.641 6.529 2.754s12.589-10.15 14.321-19.908c1.731-9.756-11.646-7.711-13.062 0.787 3.541-2.126 5.431 0.864 3.619 4.25-1.809 3.382-3.462 5.588-4.327 5.588s-1.529-2.264-2.519-6.219c-1.022-4.090-1.015-11.457-5.269-10.623-4.013 0.786-9.286 7.083-9.286 7.083z"></path>
</svg>
