<?xml version="1.0" encoding="utf-8"?>
<!-- Generated by IcoMoon.io -->
<!DOCTYPE svg PUBLIC "-//W3C//DTD SVG 1.1//EN" "http://www.w3.org/Graphics/SVG/1.1/DTD/svg11.dtd">
<svg version="1.1" xmlns="http://www.w3.org/2000/svg" xmlns:xlink="http://www.w3.org/1999/xlink" width="32" height="32" viewBox="0 0 32 32">
<path d="M22.187 15.84c0.267 0.373 0.533 0.693 0.693 1.067 0.64 1.387 0.48 2.827-0.053 4.213-0.053 0.16-0.907 0.587-1.013 0.587-0.267-0.053-0.213-0.267-0.213-0.427 0.053-1.28-0.053-2.56-0.373-3.84-0.16-0.693-0.427-1.333-0.8-1.973-0.48-0.907-0.853-1.867-1.067-2.88-0.053-0.427-0.373-0.8-0.587-1.173-0.107-0.213-0.213-0.373-0.32-0.587-0.267-0.373-0.32-0.747-0.053-1.173 0.267-0.533 0.16-1.067-0.267-1.44-0.16-0.16-0.16-0.32-0.053-0.48 0.373-0.8 0.213-1.547-0.32-2.24-0.427-0.533-0.96-0.747-1.493-0.587-0.587 0.16-1.067 0.8-1.12 1.44 0 0.213 0.107 0.48-0.107 0.587-0.32 0.107-0.693 0.053-1.013 0-0.107 0-0.107-0.16-0.107-0.267-0.053-0.32-0.107-0.64-0.267-0.96-0.213-0.373-0.693-0.64-1.12-0.533-0.48 0.053-0.693 0.427-0.747 0.853-0.107 0.587-0.053 1.227 0.16 1.813 0.107 0.213 0.053 0.373-0.107 0.533-0.64 0.64-0.64 1.173-0.107 1.867 0.32 0.427 0.267 1.547-0.053 1.973-0.32 0.373-0.64 0.747-0.8 1.227-0.213 0.587-0.107 0.96 0.427 1.333 0.053 0.053 0.16 0.053 0.213 0.16-0.053 0.053-0.053 0.053-0.107 0.107-1.227 0.373-1.76 1.333-2.187 2.4-0.533 1.333-0.8 2.667-0.853 4.16-0.373-0.267-0.427-0.693-0.48-1.067-0.16-1.227 0.213-2.4 0.747-3.467 0.16-0.373 0.373-0.693 0.533-1.067-0.373 0.16-0.853 1.12-1.28 2.453-0.373 1.12-0.373 1.6-0.107 2.827-0.48-0.213-0.96-0.107-1.387 0.107-0.267 0.16-0.32 0-0.32-0.213-0.053-0.533 0.107-1.013 0.32-1.493 0.8-1.867 1.6-3.733 2.667-5.44 0.213-0.32 0.427-0.64 0.693-0.907 0.693-0.8 1.387-1.653 1.493-2.773 0.053-0.533 0-1.067-0.053-1.6-0.053-1.333-0.053-2.667-0.16-4-0.16-2.293 1.547-3.787 3.36-4.213 2.613-0.587 4.853 0.747 5.653 3.307 0.213 0.693 0.373 1.387 0.373 2.080-0.053 2.453 0.64 4.64 2.133 6.56 1.013 1.333 1.92 2.773 2.667 4.32 0.587 1.28 0.96 2.613 0.853 4 0 0.107 0 0.16 0 0.267-0.107 0.8-0.48 0.96-1.12 0.48-0.427-0.32-0.96-0.427-1.44-0.48-0.373 0-0.373-0.16-0.213-0.427 0.693-1.707 0.533-3.253-0.693-4.693-0.107-0.16-0.213-0.267-0.373-0.427 0 0.053-0.053 0.107-0.053 0.107zM16.96 2.347c0.107 0.267-0.107 0.693 0.373 0.747 0.267 0.053 0.64-0.32 0.64-0.587 0-0.32-0.267-0.64-0.587-0.64-0.267 0.053-0.427 0.213-0.427 0.48zM17.173 4.48c0.427 0.32 0.907 0.48 1.067 0.96 0 0.053 0.107 0.053 0.16 0.053 0.053-0.053 0.053-0.107 0.053-0.213-0.107-0.373-0.747-0.853-1.28-0.8zM14.027 5.44c-0.107-0.587-0.533-0.853-1.013-0.747 0.373 0.267 0.747 0.427 1.013 0.747zM10.293 31.467c-0.373 0-0.747-0.053-1.067-0.213-1.547-0.8-3.253-1.12-4.907-1.493-0.32-0.053-0.693-0.16-1.013-0.32-0.64-0.267-0.853-0.747-0.693-1.387 0.213-0.907 0.267-1.76 0-2.667-0.213-0.693 0.213-1.227 0.96-1.333 1.067-0.107 1.867-0.64 2.453-1.547 0.107-0.16 0.213-0.32 0.32-0.427 0.587-0.747 1.333-0.747 1.92 0.053 0.267 0.373 0.533 0.747 0.747 1.12 1.067 1.547 2.080 3.147 3.253 4.693 0.747 0.96 0.64 1.707-0.267 2.613-0.8 0.8-0.96 0.907-1.707 0.907zM19.573 29.12c-0.053-0.853 0.213-1.707 0.32-2.56 0.107-0.96 0.213-1.92 0.16-2.933 0-0.16 0-0.373 0-0.533 0.107-0.8 0.693-1.067 1.387-0.693 0.16 0.107 0.16 0.213 0.213 0.373 0.373 1.493 1.653 1.92 2.827 0.907 0.267-0.213 0.48-0.533 0.693-0.8 0.16-0.213 0.427-0.427 0.693-0.32 0.32 0.107 0.373 0.427 0.32 0.747-0.107 0.96 0.267 1.6 1.067 2.133 0.32 0.213 0.64 0.373 0.907 0.64 0.64 0.48 0.64 1.013-0.053 1.493-0.373 0.267-0.8 0.48-1.173 0.747-1.173 0.747-2.347 1.44-3.307 2.453-0.747 0.8-1.707 0.853-2.72 0.693-0.8-0.16-1.28-0.747-1.333-1.6 0-0.32 0-0.533 0-0.747zM16.907 8c0.213 0.053 0.373 0.107 0.587 0.213 0.427 0.16 0.747 0.373 0.693 0.907-0.053 0.587-0.213 0.96-0.747 1.173-0.587 0.213-1.173 0.533-1.653 0.907-0.8 0.587-1.76 0.533-2.453-0.053-0.32-0.267-0.64-0.587-0.96-0.907 1.227 0.853 2.453 0.533 3.627-0.053 0.533-0.267 1.067-0.533 1.547-0.907 0.107-0.107 0.373-0.16 0.213-0.373-0.107-0.16-0.32-0.053-0.427 0-0.533 0.267-1.12 0.587-1.653 0.907-1.227 0.747-2.347 0.693-3.413-0.32-0.427-0.373-0.427-0.587 0.053-1.013 0.107-0.053 0.16-0.16 0.267-0.213 0.213-0.16 0.32-0.267 0.053-0.533-0.373-0.373-0.48-0.8-0.267-1.28 0.107-0.213 0.213-0.373 0.48-0.373 0.213-0.053 0.373 0.107 0.48 0.32 0.213 0.267 0.213 0.587 0.213 0.853 0 0.213 0.053 0.267 0.267 0.213 0.693-0.32 1.387-0.267 2.080 0.107 0.213 0.107 0.267 0.053 0.267-0.213 0-0.213 0-0.48 0-0.693 0.053-0.32 0.16-0.533 0.533-0.587 0.32-0.053 0.64 0.053 0.8 0.373 0.213 0.533 0.107 1.013-0.587 1.547zM14.773 7.627c0.213 0.16 0.373 0.427 0.64 0.32 0.107-0.053 0.107-0.213 0.053-0.267-0.213-0.213-0.427-0.267-0.693-0.053zM13.227 6.667c0-0.16-0.053-0.373-0.267-0.373-0.107 0-0.213 0.107-0.16 0.213 0.053 0.213 0.107 0.373 0.32 0.427 0.107 0 0.053-0.16 0.107-0.267zM14.027 7.733c0-0.107-0.053-0.16-0.16-0.16-0.213 0-0.373 0.053-0.427 0.267-0.053 0.107 0.053 0.16 0.16 0.16 0.213 0 0.373-0.107 0.427-0.267zM16.96 6.24c-0.107 0-0.16 0.053-0.16 0.16 0.053 0.16 0.16 0.32 0.373 0.373 0.107 0 0.16-0.053 0.16-0.16-0.053-0.16-0.213-0.32-0.373-0.373zM19.307 26.613c-0.16 1.067-0.32 2.080-0.32 3.093 0 0.213-0.16 0.16-0.32 0.16-0.64 0-1.28-0.053-1.92-0.107-1.173-0.053-2.347 0.107-3.52 0.213 0-0.48 0.107-1.013 0.053-1.493-0.053-0.267 0.32-0.16 0.533-0.16 1.227 0.107 2.4-0.107 3.52-0.533 0.64-0.213 1.28-0.64 1.973-1.173zM23.36 21.493c0.48-0.053 0.907 0.107 1.333 0.373 0.32 0.16 0.373 0.373 0.16 0.64-0.48 0.587-0.96 1.12-1.813 1.12-0.587 0-0.747-0.16-0.64-0.747 0.053-0.213 0-0.48-0.107-0.64-0.267-0.373 0-0.533 0.267-0.64s0.533-0.107 0.8-0.107zM9.28 22.507c0.853 0.747 1.707 1.44 2.56 2.187 0.213 0.213 0.427 0.427 0.533 0.693 0.213 0.48-0.053 0.907-0.587 1.013-0.213 0.053-0.213-0.107-0.32-0.213-0.747-1.227-1.547-2.453-2.293-3.68 0.053 0.053 0.107 0 0.107 0z"></path>
</svg>
