<?xml version="1.0" encoding="utf-8"?>
<!-- Generated by IcoMoon.io -->
<!DOCTYPE svg PUBLIC "-//W3C//DTD SVG 1.1//EN" "http://www.w3.org/Graphics/SVG/1.1/DTD/svg11.dtd">
<svg version="1.1" xmlns="http://www.w3.org/2000/svg" xmlns:xlink="http://www.w3.org/1999/xlink" width="32" height="32" viewBox="0 0 32 32">
<path d="M31.5 7.012c-0.852 1.275-1.931 2.394-3.174 3.292 0.014 0.272 0.020 0.547 0.020 0.823 0 8.405-6.397 18.096-18.095 18.096-3.592 0-6.935-1.053-9.749-2.858 0.498 0.060 1.004 0.090 1.517 0.090 2.98 0 5.722-1.017 7.898-2.723-2.783-0.051-5.131-1.89-5.941-4.416 0.388 0.074 0.786 0.113 1.196 0.113 0.581 0 1.143-0.077 1.676-0.222-2.909-0.586-5.101-3.155-5.101-6.237 0-0.027 0-0.055 0.001-0.081 0.858 0.477 1.838 0.762 2.88 0.795-1.707-1.14-2.83-3.087-2.83-5.293 0-1.166 0.314-2.258 0.862-3.198 3.136 3.848 7.823 6.38 13.109 6.646-0.108-0.465-0.165-0.95-0.165-1.45 0-3.512 2.847-6.359 6.359-6.359 1.83 0 3.483 0.772 4.643 2.007 1.447-0.284 2.81-0.814 4.039-1.543-0.476 1.486-1.485 2.732-2.798 3.519 1.287-0.153 2.513-0.496 3.653-1.001z"></path>
</svg>
