<?xml version="1.0" encoding="utf-8"?>
<!-- Generated by IcoMoon.io -->
<!DOCTYPE svg PUBLIC "-//W3C//DTD SVG 1.1//EN" "http://www.w3.org/Graphics/SVG/1.1/DTD/svg11.dtd">
<svg version="1.1" xmlns="http://www.w3.org/2000/svg" xmlns:xlink="http://www.w3.org/1999/xlink" width="32" height="32" viewBox="0 0 32 32">
<path d="M13.979 28.85c-3.492-0.004-6.347-0.554-9.028-1.874-1.312-0.646-2.495-1.476-3.437-2.612-1.559-1.88-1.857-3.993-1.156-6.289 0.549-1.799 1.521-3.364 2.695-4.81 1.792-2.208 3.872-4.090 6.379-5.464 1.083-0.594 2.217-1.058 3.46-1.199 0.504-0.058 1.001-0.036 1.488 0.113 0.876 0.269 1.445 1.004 1.541 1.929 0.084 0.825-0.070 1.612-0.299 2.395-0.095 0.324 0.067 0.496 0.398 0.427 0.159-0.033 0.314-0.088 0.47-0.139 0.733-0.243 1.456-0.526 2.201-0.723 1.025-0.27 2.070-0.4 3.136-0.206 1.574 0.287 2.376 1.435 2.054 2.997-0.080 0.39-0.203 0.773-0.331 1.151-0.17 0.504-0.104 0.675 0.41 0.831 0.81 0.245 1.566 0.592 2.244 1.101 1.567 1.176 2.114 2.889 1.509 4.75-0.511 1.57-1.521 2.79-2.759 3.834-2.073 1.748-4.493 2.775-7.123 3.341-1.439 0.308-2.895 0.469-3.852 0.447zM13.727 14.271c-1.901 0.002-3.666 0.315-5.356 0.998-1.649 0.666-3.118 1.594-4.177 3.061-0.978 1.353-1.313 2.83-0.694 4.433 0.426 1.102 1.215 1.916 2.184 2.559 1.596 1.059 3.379 1.535 5.27 1.681 2.123 0.163 4.178-0.126 6.163-0.886 1.713-0.656 3.228-1.604 4.343-3.103 1.445-1.944 1.336-4.232-0.29-6.016-0.578-0.634-1.271-1.119-2.032-1.506-1.725-0.875-3.569-1.22-5.411-1.221zM31.996 11.388c0.029 0.891-0.121 1.757-0.392 2.603-0.156 0.486-0.598 0.814-1.080 0.822-0.554 0.009-1.019-0.261-1.158-0.773-0.077-0.282-0.070-0.623 0.009-0.906 0.52-1.87 0.257-3.611-0.841-5.203-0.991-1.436-2.372-2.284-4.104-2.537-0.679-0.099-1.358-0.091-2.035 0.045-0.621 0.125-1.14-0.095-1.404-0.585-0.37-0.685-0.013-1.532 0.748-1.714 0.98-0.235 1.972-0.269 2.976-0.125 1.947 0.28 3.606 1.117 4.961 2.537 1.29 1.353 2.058 2.963 2.271 4.829 0.020 0.171 0.040 0.343 0.050 0.515 0.006 0.163-0.001 0.328-0.001 0.492zM23.559 7.28c1.878-0.023 3.671 1.347 4.047 3.408 0.12 0.659 0.061 1.304-0.144 1.938-0.18 0.561-0.727 0.852-1.276 0.691-0.524-0.153-0.84-0.705-0.677-1.259 0.405-1.381-0.488-2.421-1.36-2.622-0.318-0.073-0.666-0.082-0.992-0.044-0.603 0.070-1.153-0.263-1.241-0.808-0.103-0.628 0.271-1.135 0.913-1.227 0.241-0.035 0.486-0.052 0.73-0.077zM11.816 25.739c-1.38-0.021-2.539-0.365-3.492-1.236-1.438-1.313-1.674-3.4-0.574-5.076 0.969-1.476 2.371-2.271 4.101-2.517 1.171-0.166 2.29 0.014 3.326 0.594 2.122 1.187 2.701 3.708 1.311 5.762-0.954 1.409-2.325 2.163-3.99 2.41-0.261 0.039-0.525 0.049-0.682 0.063zM10.19 23.768c0.939 0.004 1.699-0.49 2-1.208 0.351-0.836-0.074-1.694-0.953-1.927-0.762-0.202-1.639 0.132-2.111 0.812-0.334 0.481-0.447 1.002-0.17 1.544 0.282 0.55 0.776 0.765 1.234 0.779zM13.085 21.031c0.389 0 0.75-0.327 0.751-0.68 0-0.289-0.259-0.528-0.578-0.531-0.386-0.004-0.738 0.323-0.74 0.687-0.001 0.311 0.229 0.524 0.567 0.524z"></path>
</svg>
