<?xml version="1.0" encoding="utf-8"?>
<!-- Generated by IcoMoon.io -->
<!DOCTYPE svg PUBLIC "-//W3C//DTD SVG 1.1//EN" "http://www.w3.org/Graphics/SVG/1.1/DTD/svg11.dtd">
<svg version="1.1" xmlns="http://www.w3.org/2000/svg" xmlns:xlink="http://www.w3.org/1999/xlink" width="32" height="32" viewBox="0 0 32 32">
<path d="M20.437 14.622c-1.151-0.001-2.267-0.255-3.272-0.709-1.821-0.672-3.598-2.619-4.238-5.029-1.71-5.819 2.418-7.945 2.862-8.168 0.831-0.45 1.819-0.714 2.869-0.714 0.673 0 1.32 0.109 1.925 0.309 1.844 0.617 3.488 2.228 4.692 4.647 0.549 0.97 0.873 2.131 0.873 3.368 0 0.756-0.121 1.484-0.345 2.165-0.275 1.238-1.567 2.836-3.284 3.73-0.605 0.262-1.264 0.405-1.957 0.405-0.044 0-0.088-0.001-0.132-0.002zM18.696 1.356c-0.798 0.005-1.624 0.228-2.349 0.616l0.028-0.014c-0.591 0.282-3.737 2.17-2.392 6.736 0.327 1.666 1.731 3.36 3.604 4.182 0.71 0.308 1.49 0.477 2.31 0.477 0.732 0 1.432-0.135 2.078-0.383 0.896-0.328 2.034-1.487 2.578-2.937 0.256-0.671 0.397-1.402 0.397-2.167 0-0.924-0.206-1.799-0.574-2.583-1.053-2.051-3.114-3.928-5.679-3.928zM8.944 22.167c-0.211-0.017-0.497-0.166-0.704-0.39-0.494-0.543 0.053-1.086 0.254-1.254 0.17-0.115 0.379-0.184 0.605-0.184s0.435 0.069 0.609 0.187c0.096 0.104 0.158 0.248 0.158 0.406 0 0.047-0.006 0.094-0.016 0.138-0.021 0.376-0.242 0.753-0.57 0.991-0.068 0.047-0.195 0.093-0.332 0.106zM8.743 20.784c-0.177 0.092-0.296 0.274-0.296 0.483 0 0.021 0.001 0.041 0.003 0.062 0.005 0.052 0.044 0.101 0.096 0.122 0.101 0.081 0.23 0.13 0.37 0.13 0.062 0 0.122-0.010 0.178-0.027 0.166-0.116 0.279-0.312 0.283-0.535 0.010-0.020 0.016-0.044 0.016-0.068s-0.006-0.048-0.016-0.069c-0.104-0.089-0.241-0.143-0.39-0.143-0.088 0-0.172 0.019-0.248 0.053zM7.707 18.907c-0.001 0-0.001 0-0.002 0-0.129 0-0.252-0.030-0.361-0.084-0.304-0.172-0.521-0.505-0.537-0.891-0.004-0.031-0.006-0.064-0.006-0.098 0-0.247 0.116-0.467 0.297-0.608 0.174-0.103 0.381-0.163 0.602-0.163 0.155 0 0.303 0.029 0.439 0.083l-0.008-0.003c0.3 0.086 0.524 0.356 0.542 0.681 0.008 0.045 0.012 0.095 0.012 0.146 0 0.306-0.154 0.576-0.388 0.738-0.153 0.113-0.361 0.189-0.587 0.197zM7.36 17.595c-0.070 0.053-0.114 0.136-0.114 0.23 0 0.020 0.002 0.041 0.006 0.060 0 0.225 0.118 0.424 0.295 0.539 0.054 0.021 0.113 0.032 0.175 0.032 0.113 0 0.218-0.038 0.301-0.102 0.125-0.079 0.208-0.218 0.208-0.376 0-0.030-0.003-0.059-0.008-0.087-0.059-0.237-0.272-0.412-0.527-0.412-0.127 0-0.244 0.044-0.336 0.117zM6.666 21.283c-0.346-0.009-0.756-0.159-1.091-0.406-0.074-0.124-0.122-0.279-0.122-0.446s0.048-0.322 0.13-0.454c0.092-0.344 0.404-0.65 0.798-0.749 0.252 0.009 0.483 0.145 0.624 0.348 0.225 0.238 0.362 0.557 0.362 0.909 0 0.052-0.003 0.102-0.009 0.152-0.048 0.23-0.257 0.487-0.536 0.62-0.044 0.014-0.1 0.023-0.157 0.024zM6.422 19.656c-0.154 0.068-0.324 0.262-0.394 0.498-0.013 0.029-0.019 0.055-0.019 0.084 0 0.056 0.026 0.106 0.066 0.139 0.159 0.175 0.389 0.286 0.645 0.288 0.063-0.028 0.107-0.090 0.109-0.162 0.009-0.044 0.014-0.095 0.014-0.147 0-0.19-0.067-0.363-0.178-0.5-0.045-0.080-0.147-0.155-0.268-0.177zM6.422 19.656v0zM17.557 6.839c-0.026 0.004-0.056 0.007-0.087 0.007s-0.061-0.002-0.090-0.007c-0.371-0.081-0.683-0.396-0.766-0.796-0.082-0.75 0.151-1.222 0.704-1.373s0.868 0.309 1.047 0.71c0.065 0.13 0.102 0.284 0.102 0.446 0 0.262-0.098 0.501-0.26 0.683-0.145 0.188-0.381 0.319-0.648 0.33zM17.513 5.153c-0.219 0.103-0.367 0.322-0.367 0.575 0 0.048 0.005 0.094 0.015 0.139 0.022 0.207 0.17 0.402 0.375 0.493 0.009 0.002 0.015 0.002 0.020 0.002 0.165 0 0.312-0.073 0.412-0.189 0.064-0.095 0.102-0.212 0.102-0.337s-0.038-0.242-0.103-0.338c-0.033-0.197-0.204-0.347-0.411-0.347-0.015 0-0.030 0.001-0.045 0.002zM25.351 27.010c-1.427-0.012-2.777-0.574-3.802-1.491-0.947-1-1.545-2.379-1.556-3.898 0-1.711 0.814-3.365 2.397-4.911 1.486-1.454 3.016-2.169 4.572-2.094 1.215 0.034 2.429 0.606 3.307 1.507 0.89 0.719 1.542 1.903 1.627 3.242 0.115 1.809-0.715 3.745-2.397 5.622-0.897 1.144-2.354 1.946-4.001 2.023l-0.148 0zM26.696 15.93c-2.955 0.275-5.292 2.672-5.472 5.651-0.002 0.048-0.002 0.086-0.002 0.123 0 1.211 0.455 2.316 1.204 3.152 0.808 0.568 1.819 0.911 2.909 0.911 0.074 0 0.148-0.002 0.221-0.005 1.101-0.067 2.311-0.706 3.152-1.675 1.088-1.155 1.753-2.707 1.753-4.415 0-0.054-0.001-0.107-0.002-0.161-0.092-2.427-2.348-3.512-3.666-3.577h-0.098zM24.949 20.567c-0.402-0.009-0.784-0.202-1.045-0.503-0.085-0.142-0.134-0.31-0.134-0.49s0.049-0.348 0.135-0.493c0.143-0.296 0.452-0.515 0.814-0.538 0.053-0.011 0.11-0.017 0.169-0.017 0.18 0 0.346 0.057 0.482 0.154 0.235 0.227 0.383 0.547 0.383 0.902 0 0.001 0 0.001 0 0.002 0.003 0.026 0.004 0.057 0.004 0.088 0 0.343-0.185 0.643-0.461 0.805-0.082 0.045-0.209 0.082-0.344 0.089zM24.879 19.010h-0.108c-0.186 0.002-0.354 0.095-0.46 0.237-0.032 0.075-0.050 0.161-0.050 0.251s0.018 0.176 0.050 0.254c0.094 0.206 0.302 0.349 0.543 0.349 0.129 0 0.249-0.041 0.346-0.111 0.098-0.096 0.16-0.233 0.161-0.384-0.008-0.207-0.119-0.409-0.286-0.541-0.048-0.036-0.107-0.056-0.171-0.056-0.007 0-0.015 0-0.022 0.001zM16.629 32c-0.977-0.005-1.984-0.25-2.883-0.685-2.128-0.98-2.226-3.545-2.269-5.075 0-0.266 0-0.586-0.043-0.759l-0.266 0.060c-0.399 0.111-0.858 0.175-1.331 0.175-0.049 0-0.098-0.001-0.146-0.002l-0.215 0c-1.562-0.065-3.33-0.136-6.845-2.945-1.025-0.819-2.565-3.254-2.625-5.906-0.002-0.055-0.003-0.12-0.003-0.186 0-1.877 0.84-3.558 2.164-4.689 2.997-2.627 7.141-1.558 9.348-0.691v0c2.343 0.922 4.117 2.62 5.749 5.494 1.394 2.462-0.222 4.914-0.911 5.966v0l0.401 0.076c0.217 0.060 0.494 0.119 0.759 0.217 1.264 0.39 3.319 1.969 3.010 5.424-0.021 1.255-0.708 2.377-1.731 3.007-0.599 0.331-1.294 0.521-2.034 0.521-0.046 0-0.091-0.001-0.136-0.002zM11.547 24.092c0.010-0 0.021-0 0.032-0 0.47 0 0.873 0.283 1.049 0.687 0.131 0.361 0.205 0.77 0.205 1.195 0 0.078-0.002 0.156-0.007 0.233 0.055 1.698 0.12 3.58 1.416 4.177 1.399 0.64 3.2 0.64 4.090 0.119 0.624-0.363 1.052-1.459 1.134-2.392 0.028-0.164 0.045-0.353 0.045-0.545 0-1.525-1.019-2.812-2.413-3.219-0.235-0.071-0.468-0.125-0.691-0.179-0.673-0.163-1.258-0.298-1.53-0.77-0.074-0.132-0.118-0.29-0.118-0.458 0-0.1 0.015-0.196 0.044-0.286-0.077 0.093 0.115-0.341 0.394-0.705 0.64-0.97 2.262-2.754 1.286-4.484-1.486-2.62-3.043-3.927-5.104-4.74l-0.374-0.179c-1.904-0.754-5.879-1.915-8.32 0.201-1.166 1.020-1.573 2.647-1.54 4.171 0.055 1.772 0.899 3.571 2.228 4.88 3.163 2.572 5.067 2.555 8.175 2.295z"></path>
</svg>
