<?xml version="1.0" encoding="utf-8"?>
<!-- Generated by IcoMoon.io -->
<!DOCTYPE svg PUBLIC "-//W3C//DTD SVG 1.1//EN" "http://www.w3.org/Graphics/SVG/1.1/DTD/svg11.dtd">
<svg version="1.1" xmlns="http://www.w3.org/2000/svg" xmlns:xlink="http://www.w3.org/1999/xlink" width="32" height="32" viewBox="0 0 32 32">
<path d="M30.983 19.047c-0.741 0.039-3.238 0.031-3.679 0.126-0.031-0.015-0.062-0.031-0.092-0.050-0.105-0.076-0.423-0.010-0.469-0.003-2.219-0.15-3.458-0.827-3.497-0.85-0.433-0.267-0.887-0.625-1.291-0.973-0.164-0.178-1.119-1.1-1.633-1.293-0.144-0.099-0.184-0.241-0.167-0.404 0.089-0.866-0.258-1.589-0.745-2.266-0.159-0.409-0.507-0.729-0.507-0.738 0.001-0.001-0.572-0.875-2.771-1.84-0.137-0.139-1.792-0.734-1.961-0.787-0.527-0.143-1.050-0.257-1.568-0.34 0.638 0.514 1.593 1.499 1.622 2.809 0 0-1.039-2.086-2.706-2.919-1-0.112-1.469-0.061-2.423 0.129 0.673 0.249 1.645 0.814 2.065 2.083 0 0-1.31-1.442-3.039-1.796-0.944 0.26-1.45 0.544-2.332 1.202 0.585 0.207 2.286 0.873 2.896 2.008 0 0-1.814-1.397-3.46-1.501-0.305 0.282-1.083 1.266-1.516 1.799-0.207 0.055-0.147 0.284-0.261 0.4l-0.003 0.005c-0.127 0.098-0.215 0.385-0.235 0.393-0.077-0.199-0.229-0.31-0.446-0.347-0.041-0.021-0.53 0.001-0.917-0.088-0.247-0.045-0.34-0.238-0.489-0.32-0.13-0.071-0.225-0.285-0.386-0.197-0.162 0.091-0.137 0.311-0.143 0.485-0.031 0.803 0.239 1.131 1.212 1.481-0.318 0.499-0.754 0.93-0.886 1.537-0.104 0.124-0.259 1.591-0.399 2.162-0.049 0.050-0.117 0.093-0.184 0.239-0.088 0.252-0.14 0.414-0.228 0.667-0.051 0.005-0.1 0.017-0.144 0.043-0.184 0.236-0.298 0.492-0.086 0.762 0.181 0.229 0.42 0.153 0.647 0.062 0.524-0.154 0.96-0.451 1.34-0.836 0.064-0.024 0.109-0.068 0.134-0.132 0.056-0.080 0.329-0.254 0.409-0.26 0.168-0.030 0.306-0.112 0.412-0.246l0.008-0.009c0.071-0.081 0.73-0.227 0.896-0.129 0.071 0.133 0.426 0.034 0.285 0.344-0.26 0.197-0.283 0.32-0.601 0.419-0.291 0.090-0.426 0.258-0.505 0.336-0.015 0.003-0.481 0.71-0.034 0.707 0.094-0.001 0.065-0.014 0.157-0.033 0.062 0.309 0.399 0.13 0.572 0.19 0.067 0.19 0.381 0.258 0.937 0.024 0.288-0.187 0.5-0.455 0.747-0.686 0.103-0.107 0.208-0.213 0.309-0.322 0.028-0.024 0.054-0.055 0.080-0.084 0.081-0.019 0.156-0.051 0.225-0.097 0.009 0.002 0.018 0.002 0.028 0.006 0.070 0.31-0.282 0.304-0.375 0.495-0.572 0.54-0.617 0.888-0.449 0.988 0.135 0.135 0.271 0.011 0.326 0.135 0.034 0.090 0.173 0.117 0.213 0.157 0.617 0.101 0.607-0.387 0.818-0.225-0.065 0.101-0.379 0.286-0.111 0.427 0.336 0.053 0.55 0.066 0.779-0.368 0.016 0 0.031-0.013 0.046-0.038 0.007-0.012 0.006-0.023 0-0.034 0.224-0.089 0.337-0.306 0.482-0.484-0.007-0.203 0.080-0.337 0.283-0.386 0.038-0.048 0.388-0.645 0.384-0.814 0.075-0.36 0.37-0.331 0.642-0.4 0.95-0.243 1.912-0.083 2.867-0.123 0.116 0.194 0.45 0.070 0.538 0.122 0.007-0.036 0.923 0.087 1.35 0.028 0.105-0.026 0.211-0.018 0.317-0.004-0.27 0.119-0.673 0.312-0.804 0.465-0.128 0.15-0.118 0.219-0.017 0.253s0.269 0.033 0.269 0.033-0.134 0.067 0.034 0.102c0.168 0.033 0.388-0.017 0.472-0.034s0.37-0.033 0.438-0.033 0.438-0.151 0.538-0.186c0.102-0.033 0.438 0 0.74-0.033 0.294-0.033 0.536-0.081 0.628-0.146-0.404 0.593-1.087 0.793-1.662 1.145-0.354 0.217-0.474 0.236-0.222 0.42 0.291 0.213 0.859 0.16 0.965 0.157 0.5-0.017 0.751 0.101 1.425-0.225 0.382-0.185 0.64-0.225 1.188-0.516 0.331-0.107 0.755-0.043 0.939-0.493 0.027-0.144 0.112-0.232 0.256-0.266 0.181-0.090 0.054-0.289 0.146-0.411 0.107-0.349 0.201-0.321 0.309-0.67l0.063-0.365 0.038-0.032c0.091 0.043 0.183 0.086 0.273 0.13 0.467 0.268 0.824 0.456 1.155 0.707 0.368 0.279 1.623 0.653 1.856 0.763-0.161-0.018 1.304 0.334 1.83 0.312 0.457 0.043 2.262-0.049 2.698-0.173 0.193 0.033 0.686-0.13 0.831-0.169 0.968-0.256 1.984-0.283 2.933-0.627 0.142-0.080 0.376-0.021 0.407-0.268-0.11-0.261-0.933-0.169-1.014-0.188zM12.609 19.11c-0.002-0.002-0.003-0.004-0.005-0.006 0.002 0.001 0.003 0.002 0.005 0.003 0 0.001 0 0.002 0 0.003z"></path>
</svg>
