<?xml version="1.0" encoding="utf-8"?>
<!-- Generated by IcoMoon.io -->
<!DOCTYPE svg PUBLIC "-//W3C//DTD SVG 1.1//EN" "http://www.w3.org/Graphics/SVG/1.1/DTD/svg11.dtd">
<svg version="1.1" xmlns="http://www.w3.org/2000/svg" xmlns:xlink="http://www.w3.org/1999/xlink" width="32" height="32" viewBox="0 0 32 32">
<path d="M25.531 21.102c-1.658-2.104-2.366-4.757-2.106-7.885 0.105-1.265 0.385-2.949 0.655-4.577 0.44-2.651 0.819-4.941 0.602-5.94-0.217-1.001-0.987-1.7-1.872-1.7-0.578 0-1.661 0.308-2.425 2.374-0.091 0.248-0.187 0.508-0.285 0.779-1.065 2.917-2.674 7.326-4.903 9.086-2.466 1.946-5.204 3.877-9.159 4.236-2.657 0.242-3.794 1.503-3.743 2.645 0.059 1.297 1.459 1.888 2.735 1.888 0.041 0 0.083 0 0.125-0.002l0.49-0.012c1.031-0.026 2.315-0.059 3.697-0.059 3.283 0 5.639 0.198 7.003 0.588 2.854 0.815 6.087 2.942 7.806 4.621 0.49 0.479 0.932 0.921 1.322 1.311 1.695 1.694 2.545 2.545 3.44 2.545 0 0 0 0 0 0 0.241 0 0.475-0.067 0.695-0.199 0.16-0.096 0.366-0.293 0.439-0.687 0.306-1.666-2.056-5.89-4.516-9.012zM10.539 20.905c-1.393 0-3.692 0.173-4.728 0.2l-0.489 0.012c-0.035 0.001-0.069 0.001-0.104 0.001-1.248 0-2.048-0.637-2.071-1.146-0.033-0.728 1.082-1.684 3.063-1.865 4.193-0.381 7.4-2.057 9.855-3.995 2.423-1.913 3.688-6.472 4.852-9.662 0.098-0.269 0.193-0.529 0.284-0.775 0.424-1.147 0.802-1.905 1.389-2.016 1.065-0.2 1.404 0.678 1.532 1.265 0.156 0.718-0.335 2.582-0.723 4.583-0.183-0.517-0.505-1.165-1.008-1.32-0.866-0.266-1.465-0.466-1.798 0.733s-1.465 3.063-2.064 3.995c-0.599 0.932-0.533 2.464-0.2 2.93s1.132 2.197 0.333 2.53-3.13 0-3.862 0.999c-0.733 0.999-1.065 2.198-0.533 2.93 0.136 0.187 0.316 0.388 0.509 0.583-1.039-0.028-2.348 0.018-4.237 0.018zM29.16 30.054c-0.085 0.051-0.163 0.075-0.247 0.075v0c-0.535 0-1.445-0.911-2.823-2.29-0.392-0.392-0.836-0.836-1.33-1.319-0.663-0.648-1.495-1.429-2.432-2.2 1.062-0.15 1.992-0.966 2.127-1.417 0.119-0.397 0.308-0.867 0.272-1.42 0.040 0.053 0.077 0.106 0.118 0.158 1.416 1.798 2.92 3.536 3.738 5.258 0.975 2.047 0.653 3.071 0.577 3.155z"></path>
</svg>
