<?xml version="1.0" encoding="utf-8"?>
<!-- Generated by IcoMoon.io -->
<!DOCTYPE svg PUBLIC "-//W3C//DTD SVG 1.1//EN" "http://www.w3.org/Graphics/SVG/1.1/DTD/svg11.dtd">
<svg version="1.1" xmlns="http://www.w3.org/2000/svg" xmlns:xlink="http://www.w3.org/1999/xlink" width="32" height="32" viewBox="0 0 32 32">
<path d="M28.747 13.12c-1.6-0.8-2.080-0.853-2.4-1.013s-2.187-0.587-2.4-0.587c-0.213-0.053-0.8-0.107-0.8-0.107s-0.48-0.533-0.587-0.587c-0.107-0.053 0.107 0.373 0.213 0.48 0.16 0.16 0.053 0.213 0.053 0.213s-0.48 0.373-1.493 0.8c-0.96 0.427-2.080 0.747-2.56 0.907s-1.867 0.267-1.867 0.267l-0.213-0.427c0 0 0.267 0 0.373-0.053 0.053-0.053 0.213-0.053 0.373-0.16 0-0.107-0.107-0.053-0.373-0.16s-0.587-0.16-0.587-0.16-0.267-0.48-0.48-0.48c-0.213 0-0.427 0.053-0.427 0.053s-0.32-0.107-0.427 0.053c-0.213 0.267-0.267 0.48-0.267 0.48s-0.213 0.213-0.587 0.373c-0.107 0.053 0.427 0.16 0.533 0.053 0 0 0.053 0.267-0.213 0.32-1.493 0.053-4.96-1.067-5.653-1.44-0.747-0.373-0.48-0.64-0.587-0.64s0 0.427 0.267 0.64c0 0-1.44 0.213-2.293 0.533-0.32 0.107-2.187 1.013-2.507 1.173s-1.707 0.907-2.293 1.6-0.587 0.747-0.373 0.907 1.227-0.533 1.92-0.32 1.173 0.747 1.173 0.747 1.013-0.48 1.973-0.267c1.707 0.373 2.72 1.92 2.72 1.92s0.96-1.227 2.453-1.173 2.827 1.547 2.827 1.547 2.080 2.347 2.133 2.667c0.107 0.32-0.053 0.587 0.053 0.907 0.053 0.16 0.213 0.267 0.213 0.267l0.053-0.107c0 0.053 0.053 0.107 0.053 0.107s0.16 0 0.16-0.053c0 0 0-0.107-0.053-0.16l0.107 0.053c0 0 0.107-0.32-0.107-0.533-0.16-0.213-0.213-0.693-0.213-0.693l0.587 0.373v-1.013l0.373 1.067 0.533-0.213c0 0 0.16 0.267 0.213 0.533s-0.107 0.533-0.053 0.747c0 0.053 0.053 0.107 0.107 0.16l0.053-0.213v0.267c0.053 0.053 0.213 0.053 0.267 0 0-0.107 0-0.32 0-0.32l0.107 0.213c0 0 0.053-0.053 0.053-0.053 0.107-0.213-0.16-0.64-0.16-0.64l-0.053-0.427c0 0 0.96-3.093 1.28-3.307 0.267-0.213 2.24-1.707 3.253-1.707 1.28 0 2.293 1.12 2.293 1.12s0.693-1.92 1.92-2.187c1.28-0.213 1.707 0.16 1.707 0.16s0.267-0.8 0.693-0.8c0.427-0.053 1.12 0.32 1.12 0.32s-0.587-1.173-2.187-2.027z"></path>
</svg>
