<?xml version="1.0" encoding="utf-8"?>
<!-- Generated by IcoMoon.io -->
<!DOCTYPE svg PUBLIC "-//W3C//DTD SVG 1.1//EN" "http://www.w3.org/Graphics/SVG/1.1/DTD/svg11.dtd">
<svg version="1.1" xmlns="http://www.w3.org/2000/svg" xmlns:xlink="http://www.w3.org/1999/xlink" width="32" height="32" viewBox="0 0 32 32">
<path d="M27.787 29.013c-0.267 0.053-1.387 0-1.867-0.053s-0.853-0.373-1.547-0.533c-0.64-0.16-2.347-0.587-2.347-0.587-0.427-0.373-0.96-0.533-1.12-0.64s0-0.533 0.053-0.96c0.053-0.373 0.587-1.707 0.48-2.133s-0.32-1.013-0.32-1.013l0.48 0.32-0.213-0.64 0.373 0.107-0.213-0.96h0.533c0 0-0.48-1.28-0.64-1.44s0.053-0.587-0.107-1.227c-0.16-0.587-0.373-1.547-0.693-1.867s0.48 0 0.48 0-0.8-1.173-1.227-1.227c-0.373-0.053-2.133-1.44-2.667-1.707s-1.493-0.053-2.187-0.587c-0.693-0.533-0.96-0.96-1.333-1.6s-0.48-3.573-0.693-4.427c-0.213-0.853-0.64-2.133-0.96-2.987-0.213-0.747-1.28-1.653-1.28-1.653s0.267-0.64-0.267-0.853c-0.533-0.213-1.173-0.107-1.173-0.107s-1.227-0.747-1.707-0.853c-0.48-0.107-1.173-0.213-1.173-0.213s-1.12-0.267-1.493-0.32c-0.373-0.053-0.587-0.107-0.693 0.32-0.107 0.48 0 1.28 0.213 1.44s0 0.427 0.107 0.693c0.107 0.267 0.8 0.96 0.853 1.387s0.427 1.44 0.533 1.653c0.107 0.213 0.373 0.48 0.373 0.48s0.533 1.707 0.587 2.347c0.053 0.64-0.427 1.653-0.427 2.24s0.373 0.64 0.373 0.64-0.373 1.173-0.32 1.44c0.053 0.267 0.373-0.053 0.373-0.053s-0.053 0.747-0.213 1.227-0.32 1.067-0.693 1.707c-0.373 0.64-0.64 1.493-1.013 2.027-0.32 0.533-0.533 0.853-0.853 1.28-0.32 0.373-0.16 0.96-0.16 0.96l0.32-0.48c0 0 0.213 0.267 0.48 0.16s0.693-0.907 0.693-0.907 0.267-0.48 0.48-0.64c0.213-0.16 0.693-0.427 0.693-0.427s-0.267 1.173-0.533 1.44c-0.267 0.267-0.693 0.64-0.747 0.96-0.053 0.267-0.427 1.013-0.267 0.853 0.16-0.107 0.48-0.48 0.48-0.48s0.267 0.32 0.533 0.213c0.267-0.107 0.427-0.32 0.427-0.32l0.053 0.373 0.48-0.427c0 0 0.32 0.053 0.587-0.373s0.587-0.96 0.587-0.96l0.267-0.747c0 0 0.16 0.533 0.533 0.587s0.373 0.053 0.373 0.053l0.16 0.96 0.373-0.16-0.16 0.693 0.427-0.107-0.213 0.96 0.587 0.8c0 0-0.48 0.48-0.427 1.173 0.053 0.64 0.373 0.533 0.053 1.387-0.32 0.8-0.48 1.44-0.533 2.080s0.373 0.587 0.16 1.227c-0.213 0.587-0.16 0.747-0.533 0.853s-0.693 0-1.067 0.16c-0.32 0.16-0.8 0.267-0.8 0.267s-0.267 0-0.373 0.267c-0.107 0.267 0.053-0.053 0.32 0s0.053 0.213 0.373 0.267c0.32 0.053 0.427-0.053 0.8 0s0.533 0.053 0.853 0.053c0.32 0 2.187-0.16 2.667 0s1.173 0.267 1.173 0.267l0.693-0.053c0 0-0.373 0.213-0.32 0.427s0.373 0.053 0.373 0.053l0.48 0.053h0.587c0 0 0.587 0.107 0.747 0s1.227-0.373 1.6-0.32 2.24 0.107 2.56-0.16c0.32-0.267 0.16-0.533 0.427-0.533s2.24-0.267 2.933-0.213c0.64 0.053 2.080 0.427 2.56 0.427s1.44-0.16 1.867-0.32c0.533-0.267 0.96-1.067 0.96-1.067s-0.533 0-0.96 0.053zM7.307 2.88c-0.373 0.053-0.587-0.587-0.587-0.587 0.213-0.16 0.373-0.533 1.013-0.053 0 0-0.053 0.587-0.427 0.64z"></path>
</svg>
