<?xml version="1.0" encoding="utf-8"?>
<!-- Generated by IcoMoon.io -->
<!DOCTYPE svg PUBLIC "-//W3C//DTD SVG 1.1//EN" "http://www.w3.org/Graphics/SVG/1.1/DTD/svg11.dtd">
<svg version="1.1" xmlns="http://www.w3.org/2000/svg" xmlns:xlink="http://www.w3.org/1999/xlink" width="32" height="32" viewBox="0 0 32 32">
<path d="M31.3 19.2c-0.8-0.3-2.5-0.3-3.5-0.2-0.8 0.1-2.6 0.4-3.4 0.4-0.9 0-2.1-0.1-2.9-0.7-0.4-0.3-0.9-0.8-1.2-1.2 0-0.4-0.1-0.7-0.1-0.8 0-0.4-0.9-3.1-1.7-4s-2.3-1.8-3-2c-0.8-0.2-3.3-0.4-3.8-0.2s-1.6 0.8-1.9 1.2c-0.3 0.4-1 0.7-1 0.7s0.3-0.8-0.4-1.7c-0.7-0.8-1.2-1-1.8-0.6-0.5 0.4-1.1 1.9-1.1 1.9h-1.2c0 0-0.4-0.4-0.8-0.9-0.3-0.5-0.5-1.5-0.7-1.4s-0.6 1.5-0.5 1.8c0.2 0.3 0.8 1.5 0.8 1.5s-0.5 0.9-0.6 1.1c-0.1 0.2-0.2 0.6-0.3 0.8 0 0-0.1 0-0.1 0-0.5 0-0.8 0.4-0.8 0.8 0 0.2 0.1 0.5 0.3 0.6-0.3 0.4-1.6 1.9-1.6 1.9s-0.2 0.6 0.1 0.6c0.3 0 1.1 0.2 1.1 0.2s2.1 0 2.4 0c0.4 0 1.5 0 1.8 0 0.3 0.1 1.4 0.7 1.6 0.9s1 1.4 1 1.4-0.6 0.7-0.9 0.9c-0.3 0.2-0.5 0.3-0.8 0.2s-0.7 0.1-0.8 0.3c-0.1 0.2-0.5 0.5-0.2 0.5s1-0.2 1-0.2 0 0.3 0.3 0.3c0.3 0 1.2-0.2 1.2-0.2s0.3 0 0.9-0.3c0.6-0.3 1.4-0.6 1.4-0.6s0.7 0 1.2-0.3c0.5-0.3 0.9-0.1 0.9-0.1s0.7 0.1 1.1-0.2c0.5-0.3 0.9-0.9 1-1 0.1 0 0.9 0 1.3 0.2s1.1 0.4 1.1 0.4 0 0.6-0.3 0.7c-0.3 0.1-0.5 0-0.8 0.1s-0.8 0.2-0.9 0.5c-0.1 0.3-0.1 0.6 0 0.5 0.1 0 0.4-0.3 0.4-0.3s-0.2 0.5 0.1 0.4c0.2-0.1 0.5-0.3 0.5-0.3h0.5c0 0-0.2 0.3 0.1 0.3s0.6-0.2 0.6-0.2 0.8-0.2 1-0.5c0.2-0.3 0.2-0.6 0.2-0.6s-0.5-0.5-0.2-0.5c0.3-0.1 1-0.1 1.5-0.3 0.5-0.3 1-0.8 1-1.1 0.5 0.2 1 0.5 1.4 0.6 0.8 0.2 2.7 0 3.4-0.2 0.8-0.2 2.4-0.5 2.7-0.5s2.5-0.2 3.2 0.1 0.7 0 0.7 0 0.3-0.4-0.5-0.7zM4.6 17.4c-0.6 0-1.1-0.5-1.1-1.1s0.5-1.1 1.1-1.1 1.1 0.5 1.1 1.1c0 0.6-0.5 1.1-1.1 1.1z"></path>
</svg>
