<?xml version="1.0" encoding="utf-8"?>
<!-- Generated by IcoMoon.io -->
<!DOCTYPE svg PUBLIC "-//W3C//DTD SVG 1.1//EN" "http://www.w3.org/Graphics/SVG/1.1/DTD/svg11.dtd">
<svg version="1.1" xmlns="http://www.w3.org/2000/svg" xmlns:xlink="http://www.w3.org/1999/xlink" width="32" height="32" viewBox="0 0 32 32">
<path d="M29.021 28.265c0 0-0.078-0.629-0.393-0.747s-1.022-0.275-1.022-0.275 0.157-0.629 0.118-1.415-0.275-2.084-0.236-2.28c0.040-0.197-0.274-1.651-0.668-2.556s-1.77-2.241-1.77-2.241-0.943-3.066-1.809-4.443c-0.864-1.376-2.634-2.398-3.499-2.673s-3.381-0.511-4.403-0.511-4.010 0.983-4.521 1.455c-0.511 0.472-2.477-1.691-2.713-1.887-0.235-0.198-2.854-3.268-3.694-4.444-0.59-0.826-1.851-2.475-1.691-4.718 0.118-1.651-0.157-1.69-0.314-1.376s-0.237 2.197-0.237 2.83c0 1.416 1.337 3.853 1.769 4.521s1.887 2.438 2.87 3.656c0.377 0.467 2.516 2.556 2.398 2.949s-1.573 1.966-1.966 2.359c-0.393 0.393-1.219 0.943-1.612 1.101s-1.101 0.55-1.297 1.298c-0.197 0.747-0.629 1.494-0.59 1.611s-0.236 0.944-0.433 1.18c-0.196 0.236-0.943 1.258-0.668 1.455 0.277 0.197 0.552-0.314 0.709-0.314 0 0 0.157 0.433 0.236 0.707s0.079 0.59 0.393 0.473c0.314-0.118 0.354-0.904 0.354-0.904s0.432 0.706 0.708 0.824c0.275 0.118 0.393-0.394 0.393-0.394s-0.649-1.316 2.673-0.55c0.364 0.084 2.005 0.433 2.163 0.472s0.983 1.927 1.179 2.005c0.197 0.079 0.826 0.629 0.865 0.904s-0.079 0.943-0.040 1.219c0.040 0.275 0.040 0.865-0.039 1.455s-0.079 1.101 0.433 1.415c0 0 1.415 0.708 2.201 0.551 0.787-0.157 1.219-0.669 1.73-0.708s2.28-0.118 3.027-0.314 1.611-0.433 2.162-0.786c0.55-0.354 1.494-0.314 1.926-0.433 0.433-0.118 0.826-0.314 1.416-0.786s1.219-1.141 1.219-1.141 0.118 1.219-0.079 1.533c-0.196 0.314 0.040 0.236 0.314 0.197s0.433 0.078 0.433 0.354 0.118 0.629 0.394 0.394c0.275-0.236 0.196-0.59 0.196-0.59s0.826 0.117 0.904 0.314c0.079 0.196 0.354 0.354 0.394 0.196s0.275 0.079 0.354-0.275c0.079-0.353-0.237-0.667-0.237-0.667zM14.185 24.919c0 0.366-0.813 0.812-0.813 0.812-0.528 0-0.163-0.894 0.082-1.26 0.244-0.365 0.528-0.69 0.854-0.65 0.324 0.041-0.123 0.732-0.123 1.098zM14.75 21.896c0 0-0.668-0.59-0.983-1.062-0.314-0.471-0.079-1.14 0.197-1.808 0.275-0.669-0.275-1.259-0.236-2.319 0.039-1.062 0.865-1.219 0.982-0.59 0.118 0.629 1.69 2.438 1.849 2.674 0.156 0.235 0.375 1.23 0.235 1.258-1.218 0.234-1.926 1.886-2.044 1.847zM18.628 27.128c-0.162 0.404-1.174 0.688-1.578 0.485s-1.174-0.323-1.052-1.012c0 0 0.931-1.294 1.781-1.092s1.010 1.215 0.849 1.619zM25.759 24.137c-0.551 0.746-1.298 1.297-2.162 1.219-0.865-0.079-1.533-0.354-1.651-0.63-0.118-0.274 0.039-0.235 0.472-0.629 0.433-0.393 0.472-0.786 0.433-1.021-0.039-0.236-0.865 0.354-0.865 0.354s-0.472 0.314-0.786 0.275c-0.314-0.040-0.865-0.865-0.196-2.084 0.084-0.154 0.393-0.747 1.219-0.865 0.825-0.117 1.809-0.472 2.162-0.59 0.354-0.117 1.14-0.354 1.298-0.393 0.156-0.039 0.511 1.533 0.511 2.201-0.003 0.669 0.116 1.416-0.435 2.163z"></path>
</svg>
