<?xml version="1.0" encoding="utf-8"?>
<!-- Generated by IcoMoon.io -->
<!DOCTYPE svg PUBLIC "-//W3C//DTD SVG 1.1//EN" "http://www.w3.org/Graphics/SVG/1.1/DTD/svg11.dtd">
<svg version="1.1" xmlns="http://www.w3.org/2000/svg" xmlns:xlink="http://www.w3.org/1999/xlink" width="32" height="32" viewBox="0 0 32 32">
<path d="M23.253 13.173c0.32 0.533 0.587 1.12 1.067 1.547 0.16 0.16 0.267 0.427 0.427 0.587 0.16 0.213 0.107 0.32-0.053 0.267 0.107 0.373 0.267 0.8 0.373 1.173 0 0.053 0.053 0.16-0.053 0.213-0.053 0-0.16-0.053-0.213-0.107-0.053-0.107-0.107-0.213-0.107-0.267 0.053 0.213 0.107 0.427 0.16 0.64 0 0.053 0.053 0.16-0.053 0.213-0.107 0-0.16-0.053-0.213-0.16-0.107-0.213-0.213-0.48-0.32-0.747 0.053 0.267 0.107 0.48 0.16 0.693 0 0.053 0 0.16-0.053 0.16-0.16 0.053-0.267-0.267-0.267-0.32-0.107-0.267-0.16-0.533-0.267-0.8 0 0.213 0.053 0.427 0.053 0.64 0 0.053 0 0.16-0.053 0.16s-0.107-0.053-0.16-0.107c-0.053-0.107-0.053-0.213-0.107-0.32-0.16-0.48-0.32-1.013-0.48-1.493-0.053-0.213-0.053-0.48-0.16-0.64-0.373-0.533-0.853-1.067-1.227-1.6-0.267-0.32-0.533-0.587-0.747-0.907l-0.16-0.107c-0.16-0.213-0.267-0.533-0.427-0.747-0.213-0.373-0.48-0.693-0.693-1.067-0.267-0.48-0.48-0.907-0.693-1.387-0.053-0.053-0.053-0.16-0.107-0.267-0.16 0.96-0.373 1.92-0.533 2.827-0.107 0.533 0 1.067 0.053 1.547 0.053 0.747 0.32 1.493 0.32 2.24 0 0.693 0.053 1.44 0.107 2.133 0.053 0.533 0 1.067-0.107 1.547-0.16 0.853-0.373 1.707-0.533 2.613-0.16 0.853-0.16 1.76 0.053 2.613 0.16 0.64 0.053 1.227-0.053 1.867-0.213 0.907-0.427 1.76-0.533 2.667-0.107 0.533-0.053 1.12 0.16 1.653 0.107 0.213 0.32 0.373 0.48 0.587 0.053 0.107 0.107 0.213 0.107 0.32-0.053 0.053-0.16 0.107-0.213 0.107-0.267 0-0.533 0-0.8 0-0.107 0-0.213-0.053-0.32-0.107-0.16-0.107-0.32-0.213-0.427-0.373-0.053-0.107-0.053-0.267-0.053-0.373 0-0.267 0-0.533 0.053-0.747 0-0.16 0.053-0.373 0.053-0.533 0-0.587 0-1.173-0.053-1.76-0.053-0.747-0.32-1.493-0.267-2.24 0.053-0.427 0.107-0.853 0.107-1.28 0-0.32-0.107-0.64-0.16-0.907s-0.107-0.533-0.107-0.853c0-0.64 0-1.227-0.053-1.867-0.053-0.8-0.107-1.6-0.16-2.4 0-0.267 0-0.533 0.053-0.8 0-0.16 0.053-0.213-0.107-0.213 0 0.533 0 1.013 0 1.547-0.053 0.533-0.107 1.12-0.16 1.653-0.053 0.373-0.107 0.747-0.107 1.12 0 0.8-0.053 1.547-0.267 2.293-0.107 0.267-0.053 0.64 0 0.96 0.107 0.747 0.107 1.44-0.053 2.187-0.107 0.373-0.107 0.747-0.16 1.12-0.053 0.267-0.053 0.48-0.107 0.747 0 0.213 0.053 0.48 0.053 0.693s0 0.427 0 0.64c0 0.16 0.053 0.373 0.053 0.533 0 0.107 0 0.32-0.053 0.373-0.213 0.16-0.427 0.373-0.64 0.48-0.16 0.053-0.373 0-0.533 0s-0.32 0-0.427 0c-0.053 0-0.16-0.053-0.16-0.053 0-0.107 0-0.213 0.053-0.267 0.107-0.107 0.213-0.213 0.32-0.32 0.267-0.267 0.427-0.533 0.373-0.907 0-0.16 0-0.32 0.053-0.427 0.107-0.427 0-0.853-0.053-1.28-0.16-0.853-0.373-1.653-0.48-2.507-0.107-0.587 0-1.173 0.107-1.76 0.053-0.213 0.053-0.427 0.107-0.64 0.053-0.96-0.107-1.867-0.32-2.827-0.107-0.587-0.213-1.173-0.267-1.707-0.053-0.32-0.053-0.64-0.053-0.96 0.053-0.587 0.107-1.227 0.16-1.813 0-0.107 0-0.213 0-0.267 0-0.533 0.053-1.067 0.213-1.6 0.107-0.373 0.107-0.747 0.16-1.12 0-0.213 0.053-0.427 0.053-0.64-0.053-0.533-0.107-1.067-0.213-1.6s-0.213-1.067-0.32-1.653c0-0.053-0.053-0.16-0.053-0.16-0.213 0.48-0.48 0.96-0.747 1.44-0.267 0.427-0.587 0.853-0.853 1.28-0.213 0.32-0.32 0.64-0.533 0.907-0.213 0.32-0.48 0.587-0.747 0.907-0.427 0.533-0.853 1.013-1.227 1.6-0.107 0.16-0.053 0.427-0.16 0.64-0.16 0.48-0.32 1.013-0.48 1.493-0.053 0.107-0.053 0.213-0.107 0.32 0 0.053-0.107 0.16-0.16 0.107-0.053 0-0.053-0.107-0.053-0.16 0-0.213 0.053-0.427 0.053-0.64-0.107 0.267-0.16 0.533-0.267 0.8 0 0.053-0.107 0.32-0.267 0.32-0.053 0-0.053-0.107-0.053-0.16 0.053-0.213 0.107-0.427 0.16-0.693-0.107 0.267-0.213 0.533-0.32 0.747-0.053 0.053-0.107 0.16-0.213 0.16-0.107-0.053-0.053-0.16-0.053-0.213 0.053-0.213 0.107-0.427 0.16-0.64-0.053 0.107-0.053 0.213-0.107 0.267s-0.107 0.16-0.213 0.107c-0.107-0.053-0.053-0.16-0.053-0.213 0.107-0.373 0.267-0.8 0.373-1.173-0.213 0-0.213-0.053-0.053-0.267s0.213-0.48 0.427-0.587c0.533-0.427 0.8-1.013 1.067-1.547s0.48-1.067 0.8-1.6c0.213-0.373 0.533-0.747 0.8-1.12 0.16-0.267 0.373-0.533 0.533-0.8 0.48-0.8 0.853-1.653 1.173-2.507 0.267-0.747 0.8-1.227 1.6-1.44 0.48-0.107 0.96-0.373 1.333-0.64 0.107-0.107 0.16-0.213 0.213-0.32 0-0.053 0-0.053 0-0.107 0-0.107 0-0.213 0-0.373 0-0.053-0.053-0.16-0.053-0.213-0.053-0.16-0.107-0.373-0.16-0.533 0 0-0.053 0-0.053 0-0.213-0.107-0.427-0.8-0.32-0.96 0.053-0.053 0.107-0.053 0.213-0.107-0.053-0.373-0.053-0.8 0.16-1.173 0.213-0.32 0.533-0.48 0.907-0.533 0.053 0 0.053 0 0.107 0 0 0 0.053 0 0.053 0s0 0 0 0 0 0 0 0c0.16 0 0.32 0 0.427 0.053 0.32 0.053 0.587 0.213 0.8 0.533 0.213 0.373 0.267 0.8 0.16 1.173 0.107 0.053 0.213 0.053 0.213 0.107 0.107 0.16-0.107 0.853-0.32 0.96 0 0-0.053 0-0.053 0-0.053 0.213-0.107 0.373-0.16 0.533-0.16 0.427-0.053 0.907 0.32 1.12 0.427 0.213 0.8 0.48 1.28 0.587 0.853 0.267 1.333 0.8 1.6 1.6 0.32 1.013 0.8 1.973 1.387 2.88 0.16 0.267 0.427 0.427 0.64 0.8 0.053 0.267 0.48 1.173 0.853 1.92z"></path>
</svg>
