<?xml version="1.0" encoding="utf-8"?>
<!-- Generated by IcoMoon.io -->
<!DOCTYPE svg PUBLIC "-//W3C//DTD SVG 1.1//EN" "http://www.w3.org/Graphics/SVG/1.1/DTD/svg11.dtd">
<svg version="1.1" xmlns="http://www.w3.org/2000/svg" xmlns:xlink="http://www.w3.org/1999/xlink" width="32" height="32" viewBox="0 0 32 32">
<path d="M24.418 16.605c0 0-2.404-0.583-3.060-0.656-0.681-0.076-2.418-0.364-3.935-0.364-1.53 0-4.59-0.292-5.902 0s-5.537-0.219-5.537-0.219 4.153 1.020 4.809 0.947c0.911 1.056 1.712 4.408 1.712 4.408 0.092-1.19-0.583-3.68-0.805-4.46 0.73-0.025 1.741-0.040 2.876-0.076l-0.104 8.143 0.619-8.161c1.322-0.049 2.741 0.132 3.863 0.279-0.748 1.531-0.657 6.789-0.657 6.789s0.328-3.716 0.983-5.137c0.365-0.79 0.83-1.241 1.172-1.487 1.173 0.062 3.965-0.007 3.965-0.007zM30.627 7.667c-1.901-4.768-6.378-7.304-13.307-7.539-0.203-0.007-0.434-0.015-0.49-0.024l-0.022-0.004c-0.026-0.004-0.649-0.101-1.657-0.101-1.613 0-4.083 0.244-6.688 1.405-4.958 2.21-6.999 6.247-7.775 8.457-0.602 1.716-0.338 3.294-0.011 4.316 0.386 1.206 1.023 2.148 1.483 2.546 1.042 0.903 4.23 1.141 4.261 1.143 0.565 0.041 1.312 0.15 1.548 0.185 0.847 0.399 1.679 0.972 1.768 1.223 0.294 0.824 0.814 3.086 0.676 5.753-0.019 0.378-0.133 0.947-0.254 1.549-0.338 1.687-0.688 3.431 0.2 4.16 1.202 0.986 3.777 1.337 5.787 1.337 0.987 0 4.298-0.101 5.435-1.4 0.526-0.6 0.298-1.927-0.449-4.867-0.179-0.706-0.349-1.373-0.379-1.665-0.173-1.688-0.031-3.205 0.081-3.615 0.007-0.005 0.015-0.010 0.023-0.015 0.232-0.149 0.62-0.399 0.7-0.875 0.015-0.092 0.154-0.448 0.555-0.51 0.055-0.009 0.165-0.019 0.378-0.019 0.249 0 0.56 0.014 0.861 0.027 0.318 0.014 0.647 0.028 0.931 0.028 0 0 0 0 0 0 0.491 0 0.758-0.043 0.95-0.152 0.271-0.149 2.185-0.682 2.768-0.799 0.328-0.066 1.864-0.722 2.848-2.535 1.136-2.094 1.061-4.789-0.223-8.010zM30.247 15.148c-0.744 1.471-2.281 2.362-2.623 2.405-0.965 0.121-2.367 0.214-2.901 0.491-0.034 0.007-0.148 0.026-0.439 0.026 0 0 0 0-0 0-0.259 0-0.576-0.014-0.883-0.027-0.313-0.014-0.636-0.028-0.909-0.028-0.233 0-0.405 0.010-0.544 0.032-0.913 0.141-1.371 0.898-1.463 1.387-0.037 0.043-0.149 0.115-0.217 0.159-0.066 0.042-0.128 0.083-0.182 0.124-0.674 0.506-0.235 3.76-0.155 4.538 0.038 0.372 0.201 1.013 0.407 1.823 0.26 1.024 0.779 3.447 0.583 3.935-0.158 0.171-0.447 0.352-0.825 0.523-0.15-0.35-0.552-1.397-0.814-3.146-0.292-1.95-0.15 2.272 0.039 3.44-0.58 0.185-1.263 0.338-1.992 0.423l-1.326-2.551 0.109 2.623c-1.201 0-2.406-0.147-3.392-0.383-0.019-0.864-0.106-4.868-0.106-3.989 0 0.984-0.765 3.716-0.765 3.716l0.137 0.068c-0.519-0.17-0.935-0.366-1.193-0.578-0.381-0.313 0.346-3.363 0.527-4.268 0.129-0.642 0.251-1.249 0.274-1.707 0.147-2.833-0.483-4.314-0.826-5.275-0.306-0.858-1.922-1.656-2.41-1.88l-0.069-0.032-0.074-0.012c-0.040-0.006-0.992-0.156-1.715-0.208-0.992-0.071-3.073-0.402-3.624-0.879-0.533-0.461-2.439-3.053-1.483-5.778 0.717-2.044 2.931-5.674 7.514-7.717 2.429-1.083 5.095-1.591 6.602-1.591 0.862 0 1.416 0.077 1.48 0.086 0.124 0.023 0.294 0.029 0.651 0.041 6.455 0.218 10.245 2.804 11.97 7.131 1.129 2.833 1.536 5.293 0.635 7.076z"></path>
</svg>
