<?xml version="1.0" encoding="utf-8"?>
<!-- Generated by IcoMoon.io -->
<!DOCTYPE svg PUBLIC "-//W3C//DTD SVG 1.1//EN" "http://www.w3.org/Graphics/SVG/1.1/DTD/svg11.dtd">
<svg version="1.1" xmlns="http://www.w3.org/2000/svg" xmlns:xlink="http://www.w3.org/1999/xlink" width="32" height="32" viewBox="0 0 32 32">
<path d="M23 25.1c0.1 0.6 1.1 1.8 1.1 1.8s0-0.9 0.3-1.6c0.2-0.5 0.4-1 0.1-1.8s-1.2-1.9-1.2-1.9 0.2 0.6 0 1.3c-0.3 0.7-0.4 1.5-0.3 2.2zM23.3 26.7l-0.4-0.3c0 0-0.9-1.3-2.1-1.4-1.2-0.2-1.1 0-2.4 0.2-0.8 0.1-1.8-0.1-1.8-0.1s2.1 2.1 2.9 2.1c0.8 0 1.3-0.5 2.3-0.4 0.5-0.1 1.5-0.1 1.5-0.1zM20.4 22.6c0.3 1.1 1.9 2.4 1.9 2.4s-0.1-0.8 0-1.7c0.1-0.8 0.3-1.4 0.2-2.2-0.2-0.8-2.1-3.6-1.8-2.9 0.3 0.6 0.1 0.9 0 2-0.2 1.1-0.6 1.3-0.3 2.4zM20.4 24.1c0 0-0.8-1.4-2.2-1.9-1.3-0.5-1.6-0.2-2.2 0-1.5 0.3-2.8-0.3-2.8-0.3s2 2.1 2.9 2.4c0.8 0.3 2.3 0.2 3 0.1 0.6-0.2 1.3-0.3 1.3-0.3zM13.5 21.3c1.1 0.4 2.5-0.1 3-0.2 0.4-0.1 0.6-0.2 0.6-0.2s-0.8-1.3-1.9-1.6c-1.2-0.3-1.4 0.1-2.5 0.2-0.4 0-1-0.1-1.5-0.2-2.7-1.7-4.8-4.9-4.8-4.9-0.1-0.1-0.2-0.1-0.3 0s-0.1 0.2 0 0.3 3 4.1 5.9 5.7c0.5 0.4 1.1 0.8 1.5 0.9zM11.2 18.3c1 0.4 2.8 0.1 2.8 0.1l0.7-0.1c0 0-0.3-1.5-1.7-1.9s-1.7-0.2-2.6-0.4c-0.5 0-1.1-0.3-1.4-0.4-2.7-2.4-4.7-5.8-4.7-5.9-0.1-0.1-0.2-0.1-0.3 0-0.1 0-0.2 0.1-0.1 0.2 0.2 0.3 3.5 5.5 6.8 7.9 0.2 0.3 0.4 0.4 0.5 0.5zM9.7 15.2c0.7 0.4 2.9 0.4 2.9 0.4s-0.3-1.4-1.5-2.2c-1-0.7-3-1-3.5-1-2.2-2.4-4.5-6.8-4.6-6.9 0-0.1-0.1-0.1-0.2-0.1 0 0 0 0 0 0-0.1 0.1-0.2 0.2-0.1 0.3 0.1 0.2 3 5.5 5.5 7.7 0.5 0.7 1.1 1.5 1.5 1.8zM8.8 11.7c0 0 0.7-1.1 0.3-1.9-0.2-0.6-1.6-1.5-2.3-2-2.1-2.8-4-7.6-4.1-7.7 0-0.1-0.1-0.1-0.2-0.1-0.1 0.1-0.2 0.2-0.1 0.3 0 0.1 2 4.5 4 7.4 0.1 0.6 0.3 2.1 0.5 2.5 0.3 0.5 0.6 1.1 1.9 1.5zM28.9 30.3c-0.8-0.4-3-2-3.1-2.3-0.2-0.3 0.4-1.3 0.4-2s-0.9-2.3-0.9-2.3-0.2 0.7-0.3 1.1c-0.1 0.4-0.3 1.3-0.3 1.7s0.3 1.2 0.3 1.2-1.3-0.3-1.7-0.4c-0.9-0.1-3.2 0.2-3.2 0.2 1.8 1.6 3.2 1.4 3.8 1.3 0.6 0 1.3-0.6 1.5-0.5s1.5 1.6 2.2 2.2c0.7 0.6 2.9 1.6 3.3 1.2s0.1-1.2 0.1-1.2-1.3 0.2-2.1-0.2zM10.1 8.9c0 0.3 0 0.8-0.1 1.1 0 0.7-0.7 2-0.2 2.1 0.8 0.2 1.8 1 1.8 1s0.6-1.2 0.4-2c-0.1-0.5-1-1.5-1.5-2-1.7-4-4.8-6.8-4.8-6.8-0.1-0.1-0.2-0.1-0.3 0s-0.1 0.2 0 0.3c0.1 0 3.2 2.9 4.7 6.3zM13.2 11.1c-0.1 0.7-0.8 1.7-0.7 2.5 0 1 1.4 2.3 1.4 2.3s0.4-0.5 0.5-1.1c0.2-0.6 0.1-1.3-0.1-2-0.2-0.6-0.5-1.2-0.7-1.6-1-2.7-3.4-6-3.5-6.2-0.1-0.1-0.2-0.1-0.3 0-0.1 0-0.1 0.1-0.1 0.2 0.1 0.1 2.5 3.3 3.5 5.9zM15.7 13c0 0.3-0.1 0.8-0.2 1.4-0.2 0.6-0.6 1.3-0.5 2.2s1.5 2.2 1.5 2.2 0.5-0.8 0.9-1.7c0.4-1-0.2-1.7-0.6-2.5-0.2-0.3-0.3-0.6-0.4-0.8-0.9-3.1-2.3-5.3-2.3-5.4-0.1-0.1-0.2-0.1-0.3-0.1-0.1 0.1-0.1 0.2-0.1 0.3-0.1 0 1.1 1.5 2 4.4zM18.5 15.9c0 0.4 0 0.8-0.1 1.1-0.2 0.9-0.9 1.5-0.8 2.7 0 1.2 1.6 2 1.7 2.1l0.2 0.1c0 0 0-0.4 0.1-1 0.2-0.8 0.6-1.7 0.5-2.6s-1.4-3.1-1.5-3.3c-0.7-1.6-1.6-3.1-1.6-3.2-0.1-0.1-0.2-0.1-0.3-0.1-0.1 0.1-0.1 0.2-0.1 0.3-0.1 0 1.2 2 1.9 3.9z"></path>
</svg>
