<?xml version="1.0" encoding="utf-8"?>
<!-- Generated by IcoMoon.io -->
<!DOCTYPE svg PUBLIC "-//W3C//DTD SVG 1.1//EN" "http://www.w3.org/Graphics/SVG/1.1/DTD/svg11.dtd">
<svg version="1.1" xmlns="http://www.w3.org/2000/svg" xmlns:xlink="http://www.w3.org/1999/xlink" width="32" height="32" viewBox="0 0 32 32">
<path d="M6.253 30.967c0 0 0 0 0 0-0.034 0-0.068-0.001-0.102-0.002-1.207-0.045-3.63-0.689-4.158-2.802-0.494-1.974 0.283-9.487 0.45-10.465 0.504-2.952 1.239-4.447 1.564-4.996-0.123-0.307-0.219-0.838 0.027-1.629 0.024-0.079 2.552-8.007 3.884-9.672 0.998-1.248 2.376-1.434 3.109-1.434 0.341 0 0.565 0.039 0.589 0.044 0.013 0.002 0.026 0.005 0.038 0.009 1.389 0.385 2.244 0.936 2.69 1.736 0.405 0.724 0.398 1.526 0.392 2.301-0.009 1.146-1.295 5.214-2.552 9.042-0.092 0.28-0.169 0.514-0.226 0.69-0.156 0.48-0.479 0.88-0.702 1.115 0.068 0.422 0.066 1.318-0.178 3.381-0.016 0.131-0.035 0.293-0.059 0.485-0.174 1.419-0.537 4.371-0.777 8.134-0.178 2.802-2.44 4.063-3.989 4.063zM5.096 12.414c0.165 0.156 0.155 0.382 0.016 0.565-0.325 0.436-2.039 1.989-2.412 6.62-0.093 1.154-0.543 5.984 0.159 8.348 0.66 2.223 2.629 2.458 3.413 2.487 0.022 0.001 0.045 0.001 0.068 0.001 0.944 0 2.855-1.15 3.010-3.589 0.242-3.789 0.836-6.446 1.011-7.873 0.023-0.19 0.043-0.351 0.059-0.481 0.275-2.318-0.017-3.291-0.047-3.449-0.023-0.032-0.042-0.067-0.056-0.105-0.064-0.176-0.012-0.373 0.131-0.495 0.004-0.004 0.499-0.431 0.661-0.93 0.057-0.176 0.134-0.412 0.227-0.693 0.683-2.081 2.498-7.609 2.507-8.77 0.011-1.442 0.019-2.485-2.405-3.163-0.047-0.007-0.198-0.027-0.412-0.027-0.572 0-1.646 0.143-2.411 1.099-1.006 1.257-2.883 7.386-3.497 9.363-0.219 0.709-0.055 1.036-0.022 1.092zM10.573 15.199c0.047 0.019 0.101 0.031 0.163 0.032-0.057 0-0.112-0.011-0.163-0.032zM23.573 22.678c0 0 0 0 0 0-0.568 0-1.089-0.123-1.551-0.366-1.634-0.86-3.266-4.254-4.241-6.282l-0.060-0.125c-0.904-1.878-2.664-9.29-2.691-11.87-0.026-2.504 1.306-3.27 1.577-3.4 0.721-0.443 1.439-0.667 2.136-0.667 1.835 0 2.934 1.531 3.227 2 0.227 0.363 0.488 1.261 1.010 3.097 0.553 1.942 1.31 4.602 2.317 7.392 0.13 0.36 0.297 0.787 0.473 1.239 0.8 2.048 1.795 4.597 1.556 6.189-0.117 0.779-0.597 1.5-1.353 2.029-0.694 0.485-1.569 0.764-2.4 0.764zM16.799 1.069c-0.081 0.037-1.26 0.645-1.236 3.97 0.017 2.439 2.043 9.227 2.895 10.998l0.060 0.125c0.866 1.802 2.547 4.636 3.92 5.358 0.332 0.175 0.713 0.263 1.134 0.263 1.39 0 2.705-0.931 2.87-2.033 0.203-1.356-0.784-3.885-1.505-5.731-0.179-0.457-0.347-0.89-0.481-1.261-1.017-2.819-1.779-5.496-2.336-7.451-0.396-1.393-0.54-2.552-0.685-2.837-0.515-1.017-1.139-1.93-2.514-1.93-0.535 0-1.472 0.13-2.057 0.494-0.024 0.017-0.038 0.025-0.065 0.035zM22.286 30.435c-0.838 0-3.117-0.202-5.346-0.637-2.928-0.57-4.825-1.331-5.638-2.261-0.716-0.819-1.057-2.21-0.848-3.463 0.183-1.098 0.764-1.979 1.637-2.479 0.717-0.412 1.613-0.621 2.664-0.621 1.243 0 2.368 0.286 2.909 0.424l0.107 0.027c0.662 0.166 5.474 0.899 7.558 0.899 0.238 0 0.485-0.004 0.724-0.007 0.247-0.004 0.502-0.007 0.755-0.007 1.647 0 3.493 0.137 4.554 1.769 0.645 0.993 0.812 2.182 0.459 3.262-0.347 1.060-1.161 1.9-2.234 2.305-1.889 0.714-4.485 0.738-6.037 0.752-0.453 0.004-0.811 0.007-1.006 0.027-0.067 0.007-0.151 0.010-0.258 0.010zM15.030 21.684c-0.892 0-2.284 0.25-2.864 0.583-0.815 0.468-1.103 1.265-1.2 1.852-0.165 0.987 0.098 2.109 0.64 2.728 1.565 1.789 8.454 2.954 10.104 2.954 0.099 0 0.147-0.003 0.167-0.005 0.235-0.023 0.611-0.027 1.086-0.031 1.492-0.014 4.679-0.105 6.419-0.763 0.818-0.309 1.578-1.219 1.84-2.020 0.269-0.822 0.228-1.884-0.269-2.648-0.738-1.135-2.345-1.13-4.147-1.13-0.246 0-0.498 0.004-0.741 0.007-0.243 0.004-0.493 0.007-0.738 0.007-2.192 0-6.443-0.88-7.147-1.056l-0.111-0.028c-0.505-0.129-1.908-0.45-3.039-0.45z"></path>
</svg>
