<?xml version="1.0" encoding="utf-8"?>
<!-- Generated by IcoMoon.io -->
<!DOCTYPE svg PUBLIC "-//W3C//DTD SVG 1.1//EN" "http://www.w3.org/Graphics/SVG/1.1/DTD/svg11.dtd">
<svg version="1.1" xmlns="http://www.w3.org/2000/svg" xmlns:xlink="http://www.w3.org/1999/xlink" width="32" height="32" viewBox="0 0 32 32">
<path d="M30.24 23.093l0.8 0.16-0.907-0.587 0.267-0.32-0.107-0.107c-0.053-0.053-0.267-0.267-0.48-0.427 0.053 0 0.107-0.053 0.107-0.053l0.267-0.107-0.64-0.373 0.533-0.213-0.427-0.107c-0.107-0.053-0.32-0.107-0.48-0.107 0.053 0 0.053-0.053 0.107-0.053l0.427-0.213-0.48-0.053c-0.107 0-0.267-0.053-0.48-0.053l0.96-0.32-1.173 0.053 0.373-0.32h-0.64l0.267-0.373-0.853 0.107 0.267-0.587-0.747 0.32 0.16-0.533-0.533 0.267 0.16-0.48-0.533 0.32 0.053-0.107-1.12 0.213 0.107-0.533-0.64 0.373-0.16-0.853-0.213 0.853-0.16-0.213-0.427 0.48-0.427-0.16-0.213 0.427-0.32-0.32-0.16 0.427-0.213-0.32-0.16 0.427-0.373-0.587 0.053 0.96-0.373-0.16-0.053 0.373-0.533-0.373 0.16 0.48-0.373-0.16 0.053 0.213-0.213-0.107 0.053 0.373-0.107-0.053-0.053 0.053c-0.213 0.107-0.587 0.32-0.693 0.32 0 0-0.053 0-0.107 0-0.213 0.053-0.64 0.16-1.013 0.16-0.213-0.267-0.373-0.8-0.267-1.067 0.16-0.373 0.32-2.453 0-3.627s-1.973-3.573-3.36-4.107c-1.067-0.373-2.773-0.693-3.52-0.693-0.16 0-0.267 0-0.373 0-0.96-0.053-1.28-0.32-1.333-0.427-0.107-0.16-0.213-0.32-0.267-0.373 0.107-0.053 0.213-0.213 0.267-0.427 0.16-0.48 0-0.96-0.427-1.387-0.267-0.267-0.8-0.587-0.907-0.64-0.16-0.16-0.907-1.12-2.613-1.173-1.76-0.16-2.187 0.107-2.293 0.213l-1.44 1.173c0 0-0.64 0.533-0.64 0.533-0.053 0.053-0.267 0.32-0.267 0.32-0.107 0.267-0.053 0.533 0.107 0.853 0.053 0.107 0.32 0.747 0.533 0.96 0.16 0.16 0.48 0.267 0.64 0.267 0.053 0.16 0.213 0.373 0.533 0.587 0.427 0.267 1.653 0.373 1.76 0.373 0.427 0.107 0.853 0.267 0.907 0.373 0.107 0.213 0.213 0.693-0.053 1.387-0.267 0.747-0.107 1.653 0.053 2.080 0.16 0.373 0.587 1.653 0.587 1.867 0 0 0 0.053 0 0.107-0.16 0.213-0.32 0.48-0.373 0.64-0.053 0.213-0.32 0.32-0.267 0.693h0.32c0 0-0.267 0.587-0.32 0.747s-0.107 0.533-0.107 0.533-0.267 0.373-0.213 0.587l0.373-0.32c0 0 0.213 0.48 0.107 0.533s-0.64 0-0.747 0.053c-0.107 0.053-0.48 0.053-0.64 0.053s-0.427 0.32-0.32 0.32c0.213 0 0.427 0 0.427 0s0 0.107 0.107 0.16c0.107 0 0.213 0.107 0.48 0.107s0.8-0.053 0.907-0.053 0.427 0.053 0.427 0.053-0.107 0.053-0.16 0.267-0.107 0.267-0.107 0.267c0.16 0 0.48-0.213 0.48-0.213s0.213-0.107 0.32-0.373c0.107-0.213 0.427-0.693 0.427-0.693s0.32-0.053 0.48-0.267c0-0.053 0.053-0.053 0.053-0.107l0.053 0.053 0.053-0.213c0.053-0.267 0.053-0.64 0.053-0.853 0.16-0.053 0.32-0.16 0.32-0.373 0-0.107 0.16-0.267 0.267-0.373 0.16-0.107 0.32-0.267 0.373-0.267 0.107 0 0.16-0.053 0.213-0.107 0.16-0.107 0.267-0.213 0.427-0.16 0.32 0.107 0.853 0.533 0.96 0.64 0.053 0.107 0.107 0.373 0.107 0.48l0.053 0.107h0.213c-0.16 0.533-0.053 0.64-0.053 0.693 0.107 0.107 0.213 0.107 0.32 0.107 0.053 0.747 0.16 0.747 0.267 0.8 0.053 0 0.107 0 0.213 0 0 0 0.053 0 0.107 0 0 0.053 0 0.053 0 0.053l-0.213 0.16c-0.053 0-0.107 0-0.16 0-0.213 0-0.427 0-0.64 0.053s-0.427 0.107-0.64 0.053c-0.053 0-0.107 0-0.16 0-0.267 0-0.427-0.053-0.64-0.053h-0.16c-0.373-0.053-0.8-0.053-1.013 0.16-0.16 0.16-0.373 0.267-0.373 0.267-0.107 0.107-0.533 0.373-0.533 0.64v0.213l0.587-0.213c0.053 0.107 0.213 0.213 0.427 0.213s0.48 0 0.587 0c0.053 0.107 0.107 0.32 0.267 0.373 0.213 0.107 0.693 0.053 0.8 0l0.8-0.053c0 0 0.693-0.053 1.12 0.053 0.427 0.053 1.28 0 1.44 0s1.227 0.107 1.6-0.107c0.373-0.267 0.32-0.693 0.32-0.747s0-0.107 0-0.16c0 0 0 0 0 0 0.16 0.107 0.48 0.267 0.8 0.32 0.267 0.053 0.427 0 0.533-0.053l0.587 0.16 0.213-0.213c0.213 0 0.8-0.053 1.067-0.107 0.32-0.053 1.067-0.267 1.28-0.373l0.32 0.16 0.427-0.213 0.427 0.053 0.213-0.107 0.427 0.053 0.267-0.32 0.48 0.053 0.32-0.32 0.64 0.16v-0.213l0.693 0.213-0.107-0.373 0.373 0.16 0.16-0.16 0.533 0.427 0.107-0.373 0.32 0.427 0.267-0.32 0.32 0.32 0.16-0.107 0.107 0.48 0.267-0.053-0.107 0.427 0.373-0.053-0.32 0.64 0.373-0.16-0.32 0.48 0.373 0.107-0.107 0.533 0.587 0.107c-0.107 0.16-0.267 0.267-0.32 0.32l-0.213 0.213 0.48 0.053c-0.053 0.053-0.107 0.107-0.16 0.16l-0.373 0.267 0.853-0.053-0.213 0.48 0.64-0.16-0.267 0.8 0.693-0.693-0.053 0.587 0.587-0.747 0.213 0.587 0.267-0.8 0.373 0.907v-1.44l0.427 0.16-0.373-1.12 0.48 0.107-0.267-0.533 0.587 0.213-0.64-0.693zM6.187 8.693c0.373 0 0.747 0.533 0.747 0.533s0 0.747-0.373 0.8c-0.373 0.053-1.387-0.213-1.387-0.213s-0.533 0.213-0.373 0c0.053-0.107 0.213-0.16 0.213-0.16s0.16-0.32 0.32-0.587c0.213-0.213 0.48-0.373 0.853-0.373zM8.32 19.947v0 0c0 0 0 0 0 0z"></path>
</svg>
