<?xml version="1.0" encoding="utf-8"?>
<!-- Generated by IcoMoon.io -->
<!DOCTYPE svg PUBLIC "-//W3C//DTD SVG 1.1//EN" "http://www.w3.org/Graphics/SVG/1.1/DTD/svg11.dtd">
<svg version="1.1" xmlns="http://www.w3.org/2000/svg" xmlns:xlink="http://www.w3.org/1999/xlink" width="32" height="32" viewBox="0 0 32 32">
<path d="M3.145 3.053c0 0-0.861 0.474-1.206 0.775s-1.206 0.775-1.378 1.077c-0.172 0.302 0.302 1.378 0.302 1.378s0.129 1.12 0.431 1.378c0.302 0.258 0.948 0.345 0.948 0.345s1.637 0.646 1.809 0.732c0.172 0.086 1.335 0.603 1.335 0.603l0.301 1.378c0 0-0.388 2.024-0.345 2.498s0.215 2.239 0.215 2.239 0.215 2.67 0.258 3.101c0.043 0.431 0.861 2.584 0.775 3.23s0 2.111 0.086 2.412c0.086 0.301-0.215 2.326-0.301 2.498s-0.991 1.507-0.991 1.507-0.818 0-0.947 0.345c-0.129 0.345-0.689 0.517-0.258 0.861s2.196 0.517 2.455 0.345 0.904-0.904 0.904-0.904l0.603-1.981c0 0 0.603-1.809 0.732-2.756 0.16-1.172 0.646-3.273 0.646-3.273l1.852 0.818c0 0 0.904 2.326 0.775 3.144s-0.301 2.067-0.172 2.412c0.129 0.345-0.043 1.68-0.517 2.326s-1.163 1.12-1.335 1.593c-0.173 0.474 1.249 1.077 2.283 0.905s1.163-0.56 1.206-0.818c0.043-0.259 0.388-2.024 0.56-2.326s0.129-1.68 0.215-1.895c0.086-0.215 0.345-2.928 0.474-3.532s0.129-2.412 0.129-2.412 2.627-0.689 3.575-1.163c0.947-0.474 2.067-0.818 2.067-0.818s0.999 1.195 1.637 1.594c1.378 0.861 1.464 1.163 1.723 1.594 0.188 0.313 0.431 1.077 0.388 1.206s-0.086 1.034-0.431 1.335c-0.344 0.302-0.461 0.715-0.344 0.818 0.388 0.345 1.034 0.517 1.594 0.215s0.818-0.474 0.775-1.034c-0.043-0.56-0.377-1.721-0.301-2.154 0.172-0.991-0.129-1.637-0.129-1.637s1.68 1.378 2.369 1.594 1.507 1.421 1.55 2.024c0.043 0.603-0.301 1.249-0.301 1.249s-0.517 0.646-0.344 0.904c0.172 0.258 1.206 0.861 1.981 0.474s0.474-1.034 0.474-1.034-0.129-1.637-0.215-1.938c-0.086-0.302-0.689-1.68-0.646-2.067s-0.172-0.991-0.431-1.163-1.292-2.197-1.292-2.197-0.258-0.431-0.344-1.292c-0.086-0.861-0.043-1.464-0.474-2.627s-1.68-1.938-1.723-2.455c-0.043-0.517-0.387-1.593-0.172-1.895s0.818-3.144 0.517-4.695c-0.59-3.035-1.68-4.135-2.239-4.652-0.659-0.608-1.68-1.12-2.024-0.862s0.076 0.75 0.818 1.766c0.818 1.12 1.637 2.498 1.421 4.824s-0.904 3.058-1.206 3.23c-0.301 0.172-3.359 0.086-3.79 0.086s-2.498-0.043-2.843-0.345c-0.344-0.302-0.904-0.689-1.507-0.905s-1.292-0.56-1.292-0.56-0.043-0.474-0.388-0.732c-0.344-0.258-0.56-0.732-0.56-0.732s0.818-0.689 0.689-1.766c-0.129-1.077-0.861-2.498-1.507-2.972s-1.68-1.465-2.024-1.637c-0.345-0.172-0.732-0.215-0.732-0.215s-0.301-0.302-0.947-0.345c-0.646-0.043-2.11-0.086-2.11-0.086s-1.077 0.043-1.335 0.172c-0.258 0.129-1.034 1.077-1.206 1.249s-0.603 0.689-0.646 0.861c-0.043 0.172 0.087 0.776 0.087 0.776z"></path>
</svg>
