<?xml version="1.0" encoding="utf-8"?>
<!-- Generated by IcoMoon.io -->
<!DOCTYPE svg PUBLIC "-//W3C//DTD SVG 1.1//EN" "http://www.w3.org/Graphics/SVG/1.1/DTD/svg11.dtd">
<svg version="1.1" xmlns="http://www.w3.org/2000/svg" xmlns:xlink="http://www.w3.org/1999/xlink" width="32" height="32" viewBox="0 0 32 32">
<path d="M27.185 30.774c-0.051-0.306-0.428-0.724-0.691-0.757s-0.888-0.461-0.888-0.461-0.527 0.047-0.527-0.428c0-0.198 0.296-0.263 0.428-0.527s0.855-1.316 1.152-2.402c0.296-1.086 0.263-1.875 0.23-2.435s-0.329-2.139-0.263-2.632c0.066-0.493-0.066-1.119-0.197-1.612s-0.395-1.119-0.395-1.119 0-1.678 0.066-2.402c0.066-0.724 0.296-1.612 0.296-1.612s0.165-1.908 0.033-2.665c-0.132-0.757-0.823-3.191-0.888-3.652s-0.691-2.073-0.691-2.073-0.132-0.888-0.263-1.316c-0.132-0.428-0.395-1.382-0.395-1.382s0.329-1.908 0.033-2.599c-0.296-0.691-0.461-0.691-0.461-0.691s-0.428 0.066-0.691 0.296c-0.263 0.23-0.724 1.020-0.921 1.415s-0.362 1.152-1.152 1.185c0 0-0.658 0.066-0.921 0.165s-1.316 0.165-1.481 0.165-0.724-0.165-0.855-0.296c-0.132-0.132-1.514-1.382-1.809-1.448s-0.888-0.132-0.888-0.132-0.263 0-0.23 0.724c0.033 0.724 0.165 1.514 0.296 1.645s0.494 0.888 0.527 1.152c0.033 0.263 0.263 1.020 0.296 1.283s-0.132 0.921-0.132 0.921-0.033 0.823 0.033 1.382c0.066 0.559 0.197 1.448 0.197 1.448s-0.197 0.987-0.164 1.481c0.033 0.494 0.132 1.875 0.263 2.336s0.198 1.283 0.033 1.645c-0.165 0.362-1.415 2.895-1.744 3.323s-1.217 1.908-1.415 2.204c-0.197 0.296-0.691 1.744-0.921 2.204s-0.592 1.053-0.625 1.514c-0.033 0.461 0.164 0.987 0.362 1.448s0.921 1.645 0.921 1.645l0.23 0.691c0 0-0.822 0.592-1.283 0.658s-1.086-0.099-1.678-0.164c-0.592-0.066-2.040-0.23-2.402-0.165s-1.053 0.132-1.349 0.329c-0.296 0.198-0.921 0.527-1.119 0.724s-0.527 0.592-0.461 0.79c0.066 0.198 0.79 0.066 1.184 0.066s1.184-0.033 1.546 0.099c0.362 0.132 2.172 0.263 2.402 0.296s2.863 0 2.961 0.033c0.099 0.033 1.349 0.197 1.546 0.132s1.25-0.132 1.25-0.132 1.086 0.658 1.481 0.592c0.395-0.066 0.658-0.132 0.658-0.132s0.461 0.296 0.658 0.231c0.198-0.066 0.757 0.164 0.757 0.164s0.165 0.165 0.559 0.099 0.855-0.066 0.855-0.066 0.658 0.23 0.921 0.066c0.263-0.165 0.757-0.329 0.757-0.329s0.362-0.329 0.329-0.559c-0.033-0.23 0.099-0.757 0.099-0.757s0 0.921 0.296 1.053c0.296 0.132 0.658 0.329 1.020 0.329s1.053-0.132 1.283-0.132 0.658 0.132 0.954-0.033c0.296-0.164 0.559-0.066 0.855-0.23 0.295-0.165 0.196-0.198 0.13-0.593zM19.683 6.887c-0.033 0.132-0.263 0.132-0.263 0.132s-0.362 0.066-0.625 0c-0.263-0.066-0.559-0.494-0.559-0.494s0.18-0.304 0.461-0.329c0.362-0.033 0.362-0.066 0.691 0.099s0.296 0.592 0.296 0.592zM22.558 6.441c-0.24 0.127-0.607 0.15-0.607 0.15s-0.224 0.056-0.287-0.064c0 0-0.135-0.407 0.145-0.646s0.288-0.207 0.647-0.262c0.278-0.043 0.526 0.208 0.526 0.208s-0.184 0.486-0.424 0.614z"></path>
</svg>
