<?xml version="1.0" encoding="utf-8"?>
<!-- Generated by IcoMoon.io -->
<!DOCTYPE svg PUBLIC "-//W3C//DTD SVG 1.1//EN" "http://www.w3.org/Graphics/SVG/1.1/DTD/svg11.dtd">
<svg version="1.1" xmlns="http://www.w3.org/2000/svg" xmlns:xlink="http://www.w3.org/1999/xlink" width="32" height="32" viewBox="0 0 32 32">
<path d="M31.979 16.488c-0.219-2.523-0.877-5.706-3.401-7.242-2.523-1.536-3.62-2.084-7.899-0.658 0 0-2.085 0.256-2.963 0.256s-4.169-0.476-5.156-0.476c-0.988 0-3.511 0.622-5.157 1.5s-3.218 2.122-3.657 2.341c-0.438 0.22-2.304-0.219-2.743 0.768-0.271 0.61 1.133 1.755 1.133 1.755s-2.523 3.182-2.084 5.926c0.439 2.742 2.523 2.633 3.072 2.961 0.548 0.33 5.287 0.469 5.596 0.439 1.17-0.109 2.523-0.658 3.621-0.658s2.414 0 2.743 0 0.303 0.557-0.402 0.768c-0.731 0.221-1.682 0.768-1.353 1.098s1.024-0.146 1.024-0.146-0.646 0.771-0.073 0.914c0.292 0.074 1.134-0.549 1.134-0.549s-0.402 0.805 0.256 0.586 1.39-1.023 1.39-1.023 1.427-0.988 2.414-1.646 2.743-1.316 3.511-1.207c0.769 0.109 3.401-0.768 3.95-1.098 0.549-0.328 1.646-0.658 1.646-0.658s-0.766 1.293-0.401 1.244c0.548-0.072 0.95-0.256 0.95-0.256s-0.072 0.621 0.366 0.621 0.841-0.621 0.841-0.621l0.22-1.756c-0.003-0.001 1.642-0.659 1.422-3.183zM5.282 17.877c-0.731-0.291-0.292-1.426-0.292-1.426 0.914-0.804 1.609 0.439 1.609 0.988s-0.586 0.731-1.317 0.438z"></path>
</svg>
