<?xml version="1.0" encoding="utf-8"?>
<!-- Generated by IcoMoon.io -->
<!DOCTYPE svg PUBLIC "-//W3C//DTD SVG 1.1//EN" "http://www.w3.org/Graphics/SVG/1.1/DTD/svg11.dtd">
<svg version="1.1" xmlns="http://www.w3.org/2000/svg" xmlns:xlink="http://www.w3.org/1999/xlink" width="32" height="32" viewBox="0 0 32 32">
<path d="M28.076 27.939c0.003-0.007 0.006-0.013 0.009-0.020 0.080 0.003 0.248-0.010 0.248-0.169 0-0.209-0.291-0.625-0.5-0.709-0.032-0.012-0.082-0.035-0.14-0.063-0.341-0.27-0.744-0.384-0.744-0.384s-0.206-0.575-0.083-1.439c0.124-0.863-0.493-2.22-0.493-2.22s0.74-0.986 0.37-2.22-1.11-1.233-1.11-2.343 0-2.22-0.74-3.453-2.343-2.096-2.343-2.096-1.357-0.37-1.974-0.986c-0.616-0.617-0.246-1.479-0.616-2.96s-1.48-1.973-2.343-2.713c-0.863-0.74-2.344-1.356-2.344-1.356s-1.357-0.986-1.357-1.48c0-0.493-0.245-2.425-0.862-2.795 0 0-1.111-0.534-2.467-0.534s-2.097 0.246-2.343 0.863c-0.246 0.617-0.74 2.343-1.11 2.713s-0.37 2.59-0.37 2.59-0.987 1.233-1.48 2.096c-0.493 0.864-1.109 2.713-0.739 4.439s1.726 3.823 1.849 5.303-0.617 2.836-0.37 4.194c0.247 1.357 2.96 3.452 3.453 4.192 0.493 0.739 0.371 1.686 0.371 1.686s0 1.48 0.493 1.973c0.493 0.493 1.972 0.534 1.972 0.534s0.246 0.986 1.233 1.233c0.986 0.246 2.755 0.329 3.371-0.288 0.617-0.616 1.069-1.396 0.904-1.89-0.164-0.493-0.68-0.746-0.823-0.246-0.024 0.085-0.059 0.14-0.099 0.18-0.017-0.096-0.061-0.239-0.195-0.32-0.12-0.073-0.296-0.032-0.423 0.013l0.223-1.271c0 0 0.287 0.072 0.66 0.163-0.079 0.113-0.145 0.239-0.128 0.345 0.049 0.296 0.209 0.375 0.584 0.292s0.375-0.334 0.666-0.292c0.067 0.010 0.151-0.005 0.238-0.029 0.026 0.006 0.052 0.011 0.075 0.015 0.616 0.123 0.74 0 1.357 0s1.315-0.37 1.455-0.695-0.18-1.648-0.55-2.265c-0.37-0.616-2.139-1.357-1.521-2.22 0.616-0.863 1.357-2.22 1.357-2.22s1.48 0.74 1.48 1.111c0 0.369 0.123 1.233 0.493 1.726s0.74 1.233 0.74 2.096-1.396 1.482-0.903 1.974 0.451-0.086 1.273-0.001c0.619 0.064 1.204 0.178 1.713 0.308 0.348 0.236 0.84 0.546 1.461 0.866 0.37 0.191 0.81 0.189 0.959 0.167 0.291-0.042 0.208-0.417 0.208-0.417l-0.208-0.333c0 0 0.208 0.125 0.333-0.125 0.136-0.271-0.086-0.459-0.174-0.518z"></path>
</svg>
