<?xml version="1.0" encoding="utf-8"?>
<!-- Generated by IcoMoon.io -->
<!DOCTYPE svg PUBLIC "-//W3C//DTD SVG 1.1//EN" "http://www.w3.org/Graphics/SVG/1.1/DTD/svg11.dtd">
<svg version="1.1" xmlns="http://www.w3.org/2000/svg" xmlns:xlink="http://www.w3.org/1999/xlink" width="32" height="32" viewBox="0 0 32 32">
<path d="M31.896 11.519c-0.144-0.277-0.25-0.497-0.437-0.712-0.147-0.272-0.263-0.435-0.494-0.679-0.178-0.093-0.277-0.273-0.552-0.35-0.241-0.268-0.772-0.243-1.125-0.367-0.481-0.11-1.145-0.136-1.529-0.393-0.488-0.050-0.972-0.366-1.469-0.204-0.388 0.090-0.893 0.039-1.255 0.236-0.728 0.107-1.484 0.146-2.22 0.268-0.657 0.062-1.412 0.004-2.1 0.126-1.061-0.035-1.967-0.272-3.035-0.302-0.915-0.090-2.002-0.038-2.813-0.307-0.569-0.092-1.001-0.37-1.658-0.327-0.424-0.083-0.846 0.033-1.122 0.095-0.552 0.153-0.966 0.346-1.647 0.297-0.761 0.053-1.547-0.13-2.127-0.314-0.449-0.1-0.901-0.147-1.277-0.302 0.068-0.445-0.106-0.614-0.396-0.818-0.113-0.078-0.336 0.292-0.322-0.020 0.095-0.405-0.167-0.7-0.428-0.938-0.19-0.264-0.382-0.499-0.588-0.736v0c-0.176 0.076-0.284 0.393-0.168 0.615 0.032 0.279 0.274 0.468 0.318 0.751-0.010 0.237-0.111-0.081-0.251-0.062-0.31-0.059-0.553 0.12-0.818-0.098-0.251-0.067-0.257 0.19-0.501-0.009-0.21-0.061-0.291-0.102-0.497-0.216-0.292-0.144-0.599-0.509-0.908-0.641-0.206 0.129-0.047 0.51 0.086 0.663 0.226 0.388 0.697 0.54 1.077 0.753 0.008 0.104-0.218 0.213-0.312 0.119-0.372-0.311-1.014-0.352-1.454-0.133-0.364 0.036-0.516 0.465-0.342 0.728 0.138 0.329 0.614 0.31 0.914 0.465-0.020 0.367 0.027 0.694-0.232 0.902-0.293 0.409-0.602 0.756-0.895 1.128-0.167 0.371-0.512 0.668-0.709 0.964-0.323 0.172-0.727 0.415-0.579 0.963 0.113 0.254 0.373 0.394 0.574 0.573 0.213 0.212 0.475 0.549 0.829 0.357 0.22-0.171 0.369-0.473 0.8-0.338 0.651 0.103 1.148-0.184 1.809-0.071 0.51-0.011 1.023 0.088 1.53 0.105 0.205 0.134 0.477 0.277 0.591 0.454 0.295 0.499 1.012 1.168 1.391 1.569 0.194 0.196 0.306 0.387 0.407 0.599 0.050 0.295 0.103 0.626 0.357 0.782 0.171 0.262 0.367 0.431 0.591 0.629 0.208 0.107 0.293 0.318 0.351 0.596 0.246 0.266 0.115 0.955 0.326 1.279 0.076 0.22 0.223 0.345 0.413 0.509 0.308 0.121 0.571 0.256 0.941 0.318 0.486 0.115 1.125 0.311 1.636 0.195 0.285 0.064 0.105 0.65 0.054 0.911-0.331 0.884 0.296 1.877 0.062 2.817-0.061 0.504-0.095 1.25-0.393 1.53-0.079 0.362-0.182 0.712-0.537 0.892-0.17 0.196-0.414 0.385-0.517 0.541-0.146 0.268 0.301 0.273 0.497 0.346 0.671 0.081 1.018-0.008 1.292-0.232 0.293-0.045 0.236-0.598 0.202-0.857 0.158-0.038 0.336-0.093 0.492-0.173 0.038-0.479-0.006-0.981 0.001-1.48-0.037-0.606 0.319-0.97 0.335-1.497 0.043 0.252 0.16 0.527 0.188 0.826 0.023 0.562 0.065 1.127 0.153 1.676-0.241 0.074-0.276 0.355-0.392 0.624-0.237 0.206-0.393 0.405-0.61 0.591-0.175 0.568 0.844 0.428 1.156 0.405 0.505 0.001 0.345-0.195 0.595-0.276 0.181-0.201 0.276-0.745 0.1-0.994 0.044-0.27 0.749 0.193 0.486-0.376-0.161-0.136-0.063-0.409-0.167-0.584-0.16-0.283-0.104-0.799-0.179-1.181-0.043-0.48-0.309-0.795-0.125-1.338 0.049-0.398 0.227-1.066-0.088-1.265-0.005-0.585 0.247-1.003 0.27-1.612 0.167-0.236 0.622-0.117 0.902-0.22 0.677-0.007 1.527-0.063 2.139 0.135 0.553 0.007 1.148 0.104 1.647 0.085 0.653-0.010 0.505 0.038 1.978-0.042 0.282 0.013 0.716-0.218 0.964-0.013 0.227 0.131 0.394 0.28 0.524 0.486 0.279 0.174 0.274 0.295 0.573 0.453 0.257 1.149 1.382 0.906 1.409 0.996 0.124 0.159 0.315 0.155 0.405 0.321 0.155 0.197 0.082 0.759 0.009 1.037-0.135 0.298-0.275 0.51-0.351 0.849-0.153 0.225-0.236 0.555-0.415 0.714-0.102 0.288-0.179 0.519-0.413 0.677-0.234 0.303-0.428 0.687-0.566 1.057-0.123 0.287-0.783 0.901-0.881 1.055-0.244 0.106-0.67 0.448-0.255 0.521 0.431 0.044 1.934 0.2 1.765-0.685 0.081-0.304 0.386-0.192 0.63-0.312 0.206-0.172 0.115-0.516 0.163-0.824 0.24-0.273 0.412-0.479 0.601-0.702 0.074-0.369 0.353-0.53 0.515-0.819 0.214-0.209 0.337-0.431 0.474-0.766 0.136-0.258 0.315-0.632 0.531-0.799 0.132-0.165 0.263-0.279 0.349-0.534 0.248 0.268 0.262 0.622 0.304 1.057 0.095 0.701-0.057 1.386-0.203 2.042-0.014 0.494-0.197 0.941-0.397 1.307-0.122 0.236-0.179 0.566-0.468 0.674-0.153 0.217-0.793 0.564-0.653 0.663-0.041 0.376 0.786 0.175 1.042 0.214 0.214-0.049 0.599-0.008 0.677-0.161 0.373-0.087 0.157-0.697 0.441-0.842 0.345 0.159 0.52-0.196 0.393-0.346-0.171-0.405 0.087-1.013 0.077-1.513 0.048-0.456 0.065-0.928 0.298-1.203 0.046-0.469 0.039-0.174 0.105 0.080 0.068 0.225 0.141 0.472 0.217 0.68 0.029 0.47-0.139 0.714-0.375 0.959-0.119 0.231 0.298 0.012 0.33-0.035 0.273-0.096 0.374-0.635 0.385-0.457 0.14 0.206-0.185 0.812 0.017 0.631 0.146-0.199 0.241-0.546 0.219-0.845 0.045 0.102 0.13 0.172 0.267 0.19 0.003-0.313-0.241-0.395-0.212-0.736-0.051-0.525 0.003-1.207 0.332-1.459 0.089-0.18 0.258-0.561 0.341-1.146 0.012-0.321 0.022-1.395-0.204-1.901-0.096-0.531 0.036-1.15 0.124-1.676-0.025-0.36-0.187-0.711-0.021-1.131 0.14-0.766 0.314-1.542 0.352-2.347 0.149-0.665 0.147-1.467 0.3-2.092 0.154-0.307 0.245-0.988 0.059-1.272zM30.604 17.323c-0.067 0.571 0.096 1.116 0.055 1.485-0.042 0.367-0.274 0.927-0.229 1.279 0.046 0.354-0.198 1.081-0.198 1.081s-0.49-1.309-0.583-1.61c-0.092-0.303-0.126-0.641 0.050-1.070s0.181-1.117 0.193-1.32c0.014-0.203 0.515-1.116 0.663-1.402s0.305-1.313 0.305-1.313c0.187 0.661-0.188 2.298-0.256 2.87z"></path>
</svg>
