<?xml version="1.0" encoding="utf-8"?>
<!-- Generated by IcoMoon.io -->
<!DOCTYPE svg PUBLIC "-//W3C//DTD SVG 1.1//EN" "http://www.w3.org/Graphics/SVG/1.1/DTD/svg11.dtd">
<svg version="1.1" xmlns="http://www.w3.org/2000/svg" xmlns:xlink="http://www.w3.org/1999/xlink" width="32" height="32" viewBox="0 0 32 32">
<path d="M24.053 16.16c0 0 0 0 0 0 0-0.053 0.053-0.16 0.107-0.213 0.373-1.173-0.853-1.493-0.853-1.493s0 0-0.053 0c0.107-0.107 0.213-0.267 0.267-0.48 0.373-1.173-0.853-1.493-0.853-1.493s-0.053 0-0.16 0c0 0 0-0.053-0.053-0.053-0.16-0.267-0.373-0.373-0.64-0.427 0.213-1.013-0.907-1.333-0.907-1.333s-0.16 0-0.32 0.053c0 0 0 0 0 0 0-0.213-0.053-0.373-0.107-0.533 0.16 0.053 0.32 0.053 0.533 0 0.64-0.213 0.96-0.907 0.853-1.44s-0.64-0.907-1.067-0.96c-0.48-0.053-0.907 0.16-1.067 0.64-0.267-0.053-0.587-0.16-0.693-0.267-0.213-0.213-0.587-0.587-0.693-1.067-0.16-0.48-0.587-1.28-1.12-1.867s-1.173-0.693-1.387-1.173c-0.213-0.48-0.16-1.28-0.213-1.813s-0.267-1.493-1.173-1.387c-0.427 0.053-0.427 0.693-0.213 0.907s0.48 0.107 0.693 0.427 0.267 1.44 0.213 1.813c-0.053 0.373-0.107 1.867-0.373 1.973s-0.96 0.267-2.027 1.653c-1.067 1.387-1.173 2.827-1.333 3.307-0.053 0.267-0.213 0.96-0.32 1.653-0.16-0.107-0.267-0.107-0.267-0.107s-0.96 0.107-1.227 0.64c-0.16 0.373-0.16 0.8 0 1.12-0.213 0.053-0.48 0.16-0.64 0.373-0.053-0.053-0.107-0.053-0.107-0.053s-0.96 0.107-1.227 0.64-0.107 1.28 0.427 1.493c0.16 0.107 0.427 0.16 0.64 0.16 0 0.16 0.053 0.267 0.107 0.373-0.32 0-0.693 0.16-0.8 0.48-0.32 0.693 0 1.387 0.587 1.547 0.373 0.107 0.8 0.267 1.12 0.107 0 0.213 0.107 0.427 0.267 0.48 0.32 0.213 0.64 0.427 0.64 0.427s-0.16 0.693-0.16 1.067c0 0.373 0.16 0.8 0.32 0.907s0.427 0.48 1.067 0.427c-0.053 0.267-0.053 0.533 0.053 0.693-0.213 0.107-0.373 0.267-0.48 0.427-0.267 0.587-0.107 1.28 0.427 1.493 0.373 0.16 0.96 0.32 1.387-0.107 0.107 0.053 0.16 0.053 0.16 0.053l0.533 0.107c0 0-0.373 0.8-0.16 1.173s0.853 0.48 0.853 0.48-0.693 0.96-0.373 1.707c0.32 0.747 1.12 0.96 1.547 0.8 0.053 0 0.107-0.053 0.16-0.053-0.107 0.533-0.107 1.28 0.48 1.547 0.64 0.267 1.547 0.32 1.867-0.853 0.107-0.48 0.053-0.8-0.107-1.013 0.48-0.053 1.067-0.373 1.12-1.013 0-0.107 0-0.213 0-0.267 0.48 0.16 1.12 0.107 1.387-0.747s-0.32-1.28-0.64-1.44c0 0 0 0 0 0 0.16-0.32 0.213-0.64 0.107-0.96 0.32-0.053 0.587-0.32 0.747-0.8 0.053-0.16 0.053-0.267 0.053-0.373 0.427 0.053 0.907-0.053 1.173-0.8 0.213-0.693-0.16-1.12-0.48-1.333 0 0 0-0.053 0-0.053 0.16-0.533 0.053-0.853-0.16-1.12 0.107-0.107 0.213-0.213 0.213-0.373 0-0.053 0-0.053 0-0.107 0.053 0.053 0.107 0.107 0.213 0.107 0.48 0.213 1.333 0.427 1.707-0.64 0.107-0.373 0.107-0.64 0-0.853 0.48 0.107 1.067 0.053 1.333-0.8 0.32-1.013-0.907-1.387-0.907-1.387zM16.8 11.947l-0.267-0.427c0 0 0.427 0.213 0.64 0.427-0.107 0-0.267 0-0.373 0zM19.147 8.533c0.107 0 0.373 0.107 0.587 0.213 0 0.16 0 0.373 0 0.533-0.213-0.107-0.48-0.16-0.747-0.16-0.053-0.267-0.053-0.64 0.16-0.587zM15.68 4.96c0.053-0.373 0.587-0.213 1.013 0.16s0.96 1.013 1.28 1.653c0.32 0.64 0.587 1.92 0.747 2.347-0.213 0.053-0.427 0.16-0.587 0.32-0.373 0.32-0.48 0.907-0.427 1.28 0 0.32 0.267 0.587 0.48 0.8-0.107 0-0.16 0.053-0.267 0.107s-0.16 0.107-0.267 0.16c-0.213-0.107-0.427-0.267-0.64-0.373-0.267-0.107-0.693-0.427-0.907-0.587s-0.267-1.493-0.267-1.76c0-0.267 0.053-1.547 0-2.027-0.053-0.373-0.213-1.653-0.16-2.080zM11.467 12.747c0.107-0.213 0.16-0.693 0.32-1.227 0.053 0.32 0.213 0.64 0.427 0.747 0.107 0.053 0.32 0.16 0.533 0.267-0.16 0.16-0.213 0.373-0.213 0.693 0 0.64 0.213 0.693 0.213 0.693l-0.373 0.213c0 0 0-0.373-0.533-0.533 0-0.373-0.213-0.64-0.373-0.853 0 0.053 0 0 0 0zM13.44 10.027c-0.267-0.053-0.533-0.107-0.747 0-0.32 0.107-0.533 0.213-0.693 0.373 0.16-0.64 0.267-1.173 0.427-1.333 0.32-0.373 0.587-0.533 0.693-0.907 0.16-0.373 0.747-1.387 1.12-1.493 0.32-0.107 0.587-0.213 0.587-0.213s-0.107 1.173-0.213 1.6c-0.16 0.427-0.747 1.013-1.067 1.76-0.053 0.107-0.053 0.16-0.107 0.213zM15.147 11.84c-0.053 0-0.053-0.053-0.107-0.053-0.16-0.053-0.373 0-0.533 0.053 0-0.533-0.213-1.173-0.48-1.493-0.053-0.053-0.16-0.16-0.267-0.213 0.053-0.213 0.16-0.373 0.213-0.48 0.213-0.267 0.8-0.96 0.907-1.387s0.373-1.013 0.373-1.013 0.213 0.693 0.16 1.28 0.16 1.547 0 2.027c-0.107 0.373-0.16 0.96-0.267 1.28zM15.787 12.587c0 0-0.16-0.32-0.373-0.587 0.053-0.213 0.16-0.373 0.267-0.373 0.213-0.053 0.587 0.053 0.587 0.053l0.213 0.32c-0.107 0.053-0.213 0.107-0.32 0.213s-0.213 0.32-0.267 0.533c-0.053 0-0.107-0.053-0.107-0.16z"></path>
</svg>
