<?xml version="1.0" encoding="utf-8"?>
<!-- Generated by IcoMoon.io -->
<!DOCTYPE svg PUBLIC "-//W3C//DTD SVG 1.1//EN" "http://www.w3.org/Graphics/SVG/1.1/DTD/svg11.dtd">
<svg version="1.1" xmlns="http://www.w3.org/2000/svg" xmlns:xlink="http://www.w3.org/1999/xlink" width="32" height="32" viewBox="0 0 32 32">
<path d="M31.276 28.166c-0.137-0.684-0.137-0.959-0.274-1.37-0.137-0.41 0.137-1.78 0-2.739s-0.822-4.383-0.822-4.383 0.959-3.561 0.684-5.343c-0.273-1.78-1.232-4.246-1.918-5.479-0.684-1.233-3.149-3.287-3.149-3.287s0.41-0.958 0.41-1.781c0-0.821-4.246-3.425-6.163-3.698s-5.342 0.137-6.164 0.685-3.15 1.37-3.698 1.643c-0.548 0.274-2.466 0.548-2.877 0.548 0 0-1.643 0.548-2.329 1.643s-1.506 2.877-1.506 3.972c0 1.096-0.822 4.794-0.685 6.712 0.062 0.866 0.235 2.32 0.381 3.83-0.627 0.973-1.735 2.712-2.026 3.293-0.317 0.634 1.155-0.765 2.16-1.754 0.098 1.299 0.139 2.504 0.031 3.261-0.274 1.918 0 4.794 0.411 5.753s2.26 1.198 2.26 1.198 0.913-0.098 1.027-0.651c0.205-0.993-0.993-0.445-1.37-1.369-0.258-0.633-0.548-2.055 0-4.384 0.258-1.099 0.685-3.973 0.958-4.52s1.506-2.739 1.917-3.698c0.411-0.959 2.329-1.78 2.329-1.78l0.137 3.013c0 0 0.685 4.246 0.822 5.342s0.274 4.246 0.136 5.069c-0.136 0.822-1.095 1.369-1.37 1.78-0.274 0.41-0.137 0.684 0.548 0.959s2.054 0.137 2.739 0c0.685-0.137 0.959-1.232 0.822-1.918s-0.548-2.466-0.411-3.561c0.137-1.095 0.685-4.246 0.685-4.246l0.547-1.506c0 0 0.685 2.877 0.821 3.835 0.137 0.959 0 4.383 0.137 5.067s-0.754 1.986-0.822 2.466 0.136 0.959 0.684 1.096c0.549 0.137 1.834 0.22 2.602 0 0.959-0.274 1.37-0.959 1.096-1.369s-0.686-1.781-0.686-2.602c0-0.823 0-4.384 0.274-5.205 0.273-0.823 1.096-2.877 1.096-2.877s0.959 2.466 1.643 2.877c0.684 0.41 1.096 1.643 1.096 2.465 0 0.823-0.411 1.918-0.411 1.918s-0.959 0.548-0.548 1.096 2.192 0.274 2.602 0.137c0.411-0.137 0.686-0.822 0.686-1.507 0-0.684-0.548-2.739-0.548-3.287s-0.411-2.328-0.274-2.877c0.137-0.548 0.823-0.959 0.823-0.959s1.095 3.014 1.78 3.561c0.684 0.548 1.096 1.096 1.096 1.917 0 0.823-0.137 2.055-0.137 2.055s-1.507 1.37-1.096 1.918c0.41 0.548 1.643 0.548 2.465 0.41 0.823-0.136 1.507-0.683 1.37-1.369z"></path>
</svg>
