<?xml version="1.0" encoding="utf-8"?>
<!-- Generated by IcoMoon.io -->
<!DOCTYPE svg PUBLIC "-//W3C//DTD SVG 1.1//EN" "http://www.w3.org/Graphics/SVG/1.1/DTD/svg11.dtd">
<svg version="1.1" xmlns="http://www.w3.org/2000/svg" xmlns:xlink="http://www.w3.org/1999/xlink" width="32" height="32" viewBox="0 0 32 32">
<path d="M27.112 24.384c-0.154-0.058-0.735-0.463-1.038-0.68l-2.111-2.545-1.959-2.621c-0.602-1.528-1.496-3.831-1.573-4.124 0.010-0.074-0.028-0.208-0.387-0.477l-1.921-1.326 1.626 0.407c0.255 0.063 1.619 0.181 2.018 0.148 0.414-0.029 2.941-0.92 3.227-1.021 0.104-0.036 1.021-0.359 1.233-0.816 0.057-0.122 0.062-0.248 0.017-0.366-0.212-0.545-1.24-0.584-1.855-0.608-0.083-0.003-0.156-0.006-0.241-0.010-0.446 0-4.218 0.736-6.596 1.209 0.041-0.147 0.073-0.278 0.092-0.36 0.019-0.085 0.028-0.22 0.029-0.413 0.632-0.561 1.801-1.194 1.939-1.315 0.183-0.158 0.302-0.325 0.315-0.343 0.68-1.141 1.81-3.003 1.946-3.141 0.159-0.138 0.246-0.371 0.281-0.479 0.588-0.415 1.519-1.062 1.645-1.12 0.198-0.090 0.357-0.36 0.417-0.472l2.125-1.364 0.042-0.039c0.080-0.113 0.104-0.21 0.071-0.289l-0.058-0.095-0.082-0.013c-0.040-0.006-0.082-0.002-0.134 0.014-0.19 0.060-1.768 1.060-2.232 1.356l-0.346 0.172-1.764 1.402-0.31 0.113-0.028 0.050c-0.671 1.233-1.769 3.211-1.981 3.507-0.118 0.038-0.182 0.184-0.224 0.278-0.009 0.023-0.013 0.033-0.009 0.033-0.080 0.075-0.785 0.67-1.633 1.098-0.004-0.070-0.007-0.113-0.007-0.113l-0.276-0.782-0.11-0.22c0.077-0.152 0.229-0.507 0.15-0.82-0.021-0.087-0.069-0.169-0.146-0.246 0.056-0.035 0.094-0.094 0.1-0.165 0.001-0.012 0.001-0.023 0-0.035 0.113-0.006 0.204-0.101 0.204-0.215 0-0.056-0.021-0.107-0.057-0.145 0.075-0.027 0.133-0.095 0.143-0.18 0.006-0.056-0.010-0.111-0.045-0.156h0.033c0.119 0 0.216-0.096 0.216-0.215 0-0.018-0.003-0.036-0.007-0.053l0.052 0.007c0.098 0 0.184-0.065 0.209-0.162 0.021-0.083-0.009-0.167-0.071-0.22l0.21 0.034c0.105 0 0.196-0.078 0.213-0.18 0.009-0.057-0.005-0.114-0.038-0.161-0.001-0.001-0.002-0.002-0.002-0.003l0.176 0.026c0.104 0 0.196-0.079 0.212-0.181 0.003-0.022 0.003-0.044 0-0.065l0.097 0.043h0.039c0.078 0 0.15-0.043 0.188-0.111 0.058-0.104 0.021-0.234-0.085-0.293l-0.023-0.013c0.012-0.008 0.023-0.017 0.035-0.024l0.127 0.051 0.077 0.014c0.090 0 0.169-0.054 0.199-0.134 0.022-0.054 0.021-0.112-0.001-0.166-0.001-0.002-0.002-0.003-0.003-0.005 0.106-0.042 0.162-0.163 0.123-0.274-0.034-0.082-0.115-0.139-0.205-0.139l-0.073 0.013c-0.009 0.003-0.037 0.014-0.089 0.040-0.004-0.044-0.021-0.086-0.050-0.121-0.037-0.044-0.089-0.072-0.165-0.077-0.11 0-0.203 0.083-0.215 0.196l-0.017 0.184c-0.040-0.054-0.108-0.090-0.19-0.090h-0.001c-0.058 0.004-0.109 0.031-0.146 0.075-0.038 0.043-0.056 0.1-0.051 0.157l0.002 0.029c-0.028-0.015-0.062-0.025-0.106-0.029-0.107 0-0.198 0.080-0.213 0.186l-0.039 0.289c-0.035-0.025-0.078-0.040-0.125-0.040-0.119 0-0.216 0.096-0.216 0.215v0.13c-0.128-0.071-0.318 0.034-0.318 0.189v0.206c-0.040-0.046-0.099-0.073-0.161-0.073l-0.061 0.006-0.030 0.014c-0.106 0.050-0.153 0.177-0.105 0.284l0.008 0.016-0.059 0.012c-0.021 0.008-0.040 0.018-0.057 0.031l0.018-0.025c0.033-0.048 0.045-0.105 0.034-0.162s-0.043-0.105-0.089-0.137c-0.037-0.025-0.069-0.028-0.127-0.038l-0.020-3.302c-0.040-0.579-0.067-0.766-0.141-0.824l-0.010-0.027h-0.112c-0.033 0-0.060 0.003-0.083 0.015l-0.022 0.016c-0.069 0.064-0.096 0.259-0.135 0.828l-0.020 3.292c-0.058-0.010-0.090 0.012-0.125 0.037-0.048 0.032-0.080 0.082-0.091 0.139-0.010 0.056 0.001 0.113 0.033 0.159l0.011 0.021c-0.015-0.010-0.031-0.019-0.049-0.025l-0.058-0.012 0.006-0.014c0.050-0.107 0.002-0.236-0.107-0.286l-0.056-0.019h-0.032c-0.062 0-0.121 0.027-0.162 0.073v-0.206c0-0.156-0.191-0.257-0.319-0.188v-0.13c0-0.165-0.215-0.264-0.34-0.175l-0.039-0.289c-0.014-0.104-0.104-0.184-0.236-0.184-0.001 0-0.003 0-0.004 0-0.028 0.003-0.055 0.013-0.079 0.026l0.002-0.027c0.010-0.118-0.079-0.222-0.215-0.233-0.071 0-0.135 0.036-0.174 0.090l-0.017-0.185c-0.011-0.111-0.102-0.194-0.23-0.194 0 0-0.001 0-0.002 0-0.058 0.004-0.11 0.032-0.147 0.076-0.029 0.035-0.046 0.077-0.050 0.122-0.052-0.026-0.080-0.038-0.088-0.041l-0.074-0.013c-0.090 0-0.172 0.057-0.201 0.14-0.021 0.054-0.019 0.112 0.006 0.165 0.023 0.051 0.065 0.090 0.116 0.11-0.001 0.001-0.001 0.003-0.002 0.005-0.022 0.053-0.023 0.111-0.002 0.166 0.033 0.081 0.113 0.135 0.2 0.135l0.205-0.065c0.012 0.008 0.023 0.016 0.036 0.024l-0.026 0.014c-0.102 0.058-0.14 0.188-0.084 0.292 0.038 0.069 0.11 0.112 0.189 0.112l0.069-0.008 0.065-0.036c-0.003 0.021-0.003 0.042 0 0.063 0.016 0.104 0.098 0.18 0.246 0.181l0.142-0.022c0 0.001-0.001 0.002-0.002 0.003-0.033 0.046-0.046 0.104-0.037 0.161 0.018 0.104 0.126 0.185 0.248 0.177l0.173-0.029c-0.062 0.053-0.091 0.138-0.069 0.223 0.026 0.093 0.112 0.157 0.208 0.157l0.052-0.006c-0.004 0.017-0.006 0.034-0.006 0.052 0 0.119 0.096 0.215 0.215 0.215h0.034c-0.034 0.044-0.050 0.098-0.045 0.154 0.009 0.083 0.062 0.15 0.145 0.178-0.036 0.039-0.059 0.091-0.059 0.148 0 0.115 0.090 0.209 0.204 0.215-0.001 0.012-0.001 0.025 0 0.038 0.007 0.067 0.044 0.125 0.102 0.159-0.078 0.078-0.126 0.16-0.148 0.247-0.079 0.314 0.074 0.67 0.15 0.822l-0.117 0.236-0.261 0.725-0.009 0.041c0 0-0.002 0.043-0.006 0.113-1.157-0.553-1.561-1.041-1.611-1.083-0.008-0.015-0.016-0.035-0.026-0.056-0.041-0.095-0.105-0.241-0.223-0.28-0.212-0.296-1.3-2.279-1.967-3.515l-0.027-0.050-0.31-0.114-1.788-1.429-0.303-0.147c-0.478-0.307-2.053-1.314-2.242-1.374-0.051-0.016-0.094-0.021-0.133-0.015l-0.108 0.030-0.032 0.077c-0.034 0.079-0.010 0.177 0.070 0.289l2.161 1.412c0.059 0.112 0.217 0.383 0.415 0.475 0.126 0.058 1.055 0.708 1.641 1.126 0.034 0.108 0.12 0.342 0.276 0.479 0.137 0.14 1.26 2.007 1.943 3.161 0.005 0.007 0.125 0.175 0.306 0.334 0.138 0.121 1.305 0.764 1.936 1.325 0 0.192 0.010 0.328 0.029 0.413 0.019 0.082 0.051 0.212 0.091 0.359-2.377-0.473-6.146-1.209-6.62-1.209v0c-0.060 0.004-0.133 0.007-0.216 0.010-0.615 0.023-1.644 0.062-1.856 0.608-0.046 0.118-0.040 0.244 0.017 0.366 0.213 0.457 1.13 0.78 1.232 0.815 0.287 0.102 2.813 0.993 3.228 1.022 0.404 0.028 1.764-0.085 2.018-0.148l1.625-0.407-1.926 1.329c-0.354 0.266-0.391 0.399-0.382 0.473-0.078 0.293-0.971 2.596-1.574 4.124l-1.954 2.615-2.089 2.525c-0.33 0.242-0.91 0.647-1.065 0.705-0.070 0.026-0.283 0.106-0.252 0.276 0.008 0.043 0.074 0.196 0.395 0.127 0.298-0.067 1.073-0.549 1.262-0.736 0.177-0.177 2.102-2.491 2.185-2.592 0.321-0.403 1.923-2.421 2.011-2.567 0.089-0.147 0.238-0.444 0.244-0.459 0.534-1.429 1.352-3.599 1.414-3.725 0.058-0.116 0.218-0.252 0.277-0.296l1.979-1.555c-0.007 0.029-0.006 0.053-0.003 0.076 0.008 0.058 0.042 0.106 0.095 0.132l0.054 0.020h0.035c0.001 0 0.002 0 0.003 0l-1.667 2.464c-0.017 0.017-0.166 0.176-0.13 0.499 0.029 0.262 0.808 4.967 0.843 5.174 0 0.001 0.013 0.083-0.049 0.229-0.027 0.062-0.15 0.397-0.312 0.836-0.311 0.844-0.888 2.415-0.972 2.549-0.040 0.050-0.148 0.235-0.449 0.753-0.436 0.751-1.247 2.148-1.448 2.331-0.242 0.221-1.086 1.427-1.88 2.578-0.101 0.146-0.172 0.25-0.198 0.286-0.031 0.044-0.115 0.161-0.058 0.272l0.068 0.094h0.092c0.116 0 0.261-0.104 0.358-0.201 0.1-0.1 0.556-0.725 1.241-1.667 0.37-0.509 0.752-1.035 0.804-1.092 0.148-0.16 1.812-2.822 1.925-3.049 0.11-0.221 1.081-2.913 1.285-3.479 0.027-0.014 0.052-0.032 0.073-0.055 0.087-0.094 0.122-0.252 0.107-0.484-0.028-0.407-0.749-4.299-0.881-5.013 0.103-0.066 0.244-0.188 0.269-0.365 0.030-0.097 0.389-0.723 1.284-2.161-0.018 0.052-0.048 0.129-0.073 0.19-0.115 0.289-0.194 0.505-0.172 0.655 0.021 0.145-0.013 0.369-0.029 0.447-0.015 0.091-0.089 0.556-0.058 0.745 0.019 0.111-0.009 0.423-0.029 0.588-0.043 0.26-0.081 0.598-0.020 0.717 0.011 0.045-0.004 0.223-0.016 0.353-0.029 0.336-0.042 0.55 0.021 0.675 0.072 0.144 0.203 0.426 0.246 0.517 0.002 0.116 0.022 0.424 0.148 0.582 0.062 0.078 0.121 0.311 0.15 0.479 0.219 0.595 0.38 0.595 0.441 0.595h0.066c0.066 0 0.222 0 0.449-0.624 0.021-0.14 0.080-0.372 0.143-0.45 0.125-0.158 0.145-0.466 0.147-0.582 0.042-0.091 0.174-0.373 0.246-0.518 0.062-0.125 0.049-0.338 0.021-0.675-0.012-0.13-0.026-0.307-0.021-0.339 0.066-0.132 0.029-0.47-0.014-0.724-0.021-0.171-0.049-0.483-0.030-0.594 0.032-0.189-0.042-0.654-0.058-0.75-0.016-0.074-0.049-0.297-0.028-0.441 0.021-0.151-0.058-0.367-0.173-0.656-0.024-0.063-0.057-0.143-0.074-0.193 0.896 1.438 1.255 2.064 1.283 2.153 0.026 0.184 0.169 0.308 0.271 0.375-0.133 0.712-0.854 4.605-0.881 5.013-0.016 0.232 0.019 0.391 0.106 0.484 0.021 0.021 0.044 0.040 0.072 0.054 0.202 0.562 1.175 3.26 1.286 3.481 0.114 0.229 1.779 2.891 1.925 3.048 0.051 0.056 0.431 0.578 0.798 1.083 0.688 0.947 1.146 1.575 1.246 1.676 0.098 0.097 0.243 0.201 0.358 0.201l0.118-0.013 0.042-0.081c0.057-0.111-0.027-0.229-0.059-0.272-0.024-0.035-0.092-0.133-0.188-0.271-0.798-1.157-1.646-2.371-1.891-2.593-0.201-0.184-1.017-1.588-1.454-2.343-0.295-0.509-0.401-0.691-0.438-0.735-0.089-0.141-0.667-1.713-0.978-2.558-0.161-0.438-0.283-0.771-0.311-0.834-0.062-0.145-0.049-0.227-0.047-0.234 0.033-0.2 0.812-4.905 0.841-5.167 0.035-0.318-0.108-0.478-0.112-0.478v0l-1.685-2.486c0.001 0 0.002 0 0.002 0 0.032 0 0.062-0.007 0.090-0.020l0.084-0.055 0.011-0.078c0.004-0.023 0.004-0.047-0.003-0.077l1.983 1.557c0.057 0.043 0.216 0.179 0.274 0.295 0.062 0.125 0.879 2.296 1.42 3.739 0 0 0.148 0.297 0.237 0.444s1.69 2.164 2.013 2.569c0.082 0.099 2.006 2.413 2.183 2.59 0.188 0.188 0.964 0.669 1.263 0.736 0.066 0.015 0.124 0.022 0.173 0.022 0.181 0 0.216-0.115 0.222-0.15 0.034-0.165-0.18-0.245-0.25-0.271zM16.875 6.698c-0.053 0.057-0.074 0.142-0.045 0.221l0.061 0.166c-0.028-0.013-0.059-0.020-0.090-0.020-0.020 0-0.041 0.003-0.060 0.009v-0.059c0.038-0.248 0.097-0.305 0.092-0.305l0.042-0.012z"></path>
</svg>
