<?xml version="1.0" encoding="utf-8"?>
<!-- Generated by IcoMoon.io -->
<!DOCTYPE svg PUBLIC "-//W3C//DTD SVG 1.1//EN" "http://www.w3.org/Graphics/SVG/1.1/DTD/svg11.dtd">
<svg version="1.1" xmlns="http://www.w3.org/2000/svg" xmlns:xlink="http://www.w3.org/1999/xlink" width="32" height="32" viewBox="0 0 32 32">
<path d="M29.352 22.321c-0.070-0.246-0.527-0.105-0.527-0.105l-0.421-0.386c0 0-0.562-0.421-1.018-0.597s-1.018 0-1.018 0-0.035-0.737-0.070-0.983c-0.035-0.246-0.913-1.369-0.983-1.474s-1.018-1.965-1.018-1.965-0.246-0.667-0.491-0.843c-0.107-0.077-0.221-0.086-0.315-0.073 0.017-1.080 0.017-2.088-0-2.349-0.022-0.334-0.482-2.091-0.86-3.396 0.147-0.103 0.297-0.219 0.403-0.325 0.281-0.281 0.421-0.983 0.526-1.264s0.772-2.387 0.948-2.773c0.176-0.386 0.070-0.807 0.351-0.843s0.351-0.281 0.597-0.456 0.702-0.842 0.913-1.439 0.035-0.632 0.035-0.632 0.316 0.070 0.491 0.035c0.176-0.035 0.281-0.351 0.281-0.351s-0.491 0.105-0.772-0.035c-0.281-0.14-0.14-0.807-0.14-0.807s-0.246 0.351-0.281 0.562c-0.035 0.211 0.246 0.386 0.246 0.386l-0.772 1.123c0 0-0.843 0.421-1.088 0.597s-0.386 0.632-0.386 0.632-0.316 0.175-0.456 0.421c-0.14 0.246-0.597 3.194-0.597 3.37s-0.070 0.562-0.070 0.562l-0.436 0.539c-0.125-0.405-0.224-0.69-0.266-0.749-0.176-0.246-1.031-0.255-1.171-0.36s-1.583-0.133-1.724-0.133c-0.14 0-1.084-0.114-0.972-0.309 0.354-0.619 1.568-0.289 1.989-0.309 0.928-0.044 1.247 0.69 1.563 0.62s0.035-0.351-0.035-0.632c-0.070-0.281-0.386-1.58-1.018-2.282-0.001-0.002-0.003-0.003-0.004-0.005 0.269-0.081 0.552-0.211 0.763-0.399 0.329-0.292 0.728-1.213 0.947-1.516s0.568-1.752 0.836-2.463c0.268-0.711 0.273-1-0.026-0.895s-0.55 0.739-0.657 1.052-0.825 2.352-0.915 2.589c-0.089 0.237-0.681 0.95-1.007 1.097-0.115 0.052-0.248 0.104-0.372 0.149-0.561-0.458-1.488-1.139-2.054-1.437-0.657-0.346-1.34-0.521-1.863-0.61-0.013-0.032-0.205-0.092-0.475-0.064-0.27-0.027-0.462 0.032-0.475 0.064-0.524 0.089-1.206 0.264-1.863 0.61-0.566 0.298-1.493 0.98-2.054 1.437-0.124-0.045-0.257-0.097-0.373-0.149-0.326-0.147-0.918-0.861-1.007-1.097s-0.807-2.276-0.915-2.589-0.357-0.947-0.658-1.052c-0.3-0.105-0.295 0.184-0.027 0.895s0.618 2.16 0.836 2.463c0.218 0.303 0.618 1.223 0.947 1.516 0.211 0.188 0.494 0.317 0.763 0.399-0.001 0.001-0.003 0.003-0.004 0.005-0.632 0.702-0.948 2.001-1.018 2.282s-0.351 0.562-0.035 0.632c0.316 0.070 0.414-0.443 1.563-0.686 0.412-0.087 1.856-0.111 2.099 0.376 0.101 0.201-0.987 0.066-1.127 0.066s-0.972 0.044-1.79 0.376c-0.163 0.066-0.885 0.114-1.061 0.36-0.043 0.060-0.141 0.345-0.266 0.749l-0.436-0.539c0 0-0.070-0.386-0.070-0.562s-0.456-3.124-0.597-3.37c-0.14-0.246-0.456-0.421-0.456-0.421s-0.14-0.457-0.386-0.632-1.088-0.597-1.088-0.597l-0.772-1.123c0 0 0.281-0.175 0.246-0.386s-0.281-0.562-0.281-0.562 0.141 0.667-0.14 0.807-0.772 0.035-0.772 0.035 0.105 0.316 0.281 0.351c0.176 0.035 0.491-0.035 0.491-0.035s-0.176 0.035 0.035 0.632 0.667 1.263 0.913 1.439c0.246 0.176 0.316 0.421 0.597 0.456s0.176 0.456 0.351 0.843c0.175 0.386 0.842 2.492 0.948 2.773s0.246 0.983 0.527 1.264c0.106 0.106 0.257 0.222 0.403 0.325-0.378 1.305-0.837 3.062-0.859 3.396-0.018 0.261-0.018 1.269-0.001 2.349-0.094-0.013-0.208-0.004-0.315 0.073-0.246 0.175-0.491 0.843-0.491 0.843s-0.948 1.86-1.018 1.965c-0.070 0.105-0.948 1.229-0.983 1.474s-0.070 0.983-0.070 0.983-0.561-0.175-1.018 0c-0.456 0.175-1.018 0.597-1.018 0.597l-0.421 0.386c0 0-0.456-0.14-0.526 0.105s0.035-0.105 0.316 0.141c0.281 0.246 0.281 0.421 0.281 0.421s-0.421 0.456-0.141 0.456c0.281 0 0.386-0.386 0.386-0.386l0.141-0.421c0 0 0.948-0.491 1.193-0.526s0.913-0.070 1.053-0.281c0.14-0.211 0.14-0.316 0.456-0.456s0.843-1.018 0.913-1.439c0.070-0.421 0.597-1.966 0.597-1.966l0.281-0.632c0 0 0.198 0.087 0.419 0.107 0.019 0.573 0.043 1.071 0.072 1.367 0.054 0.538 0.29 1.67 0.547 2.72-0.281 0.25-0.701 0.643-0.792 0.826-0.14 0.281-0.491 1.088-0.491 1.088s-0.281 0.211-0.246 0.421-0.211 2.738-0.211 3.054 0.316 1.474 0.316 1.474-0.386 0.491-0.491 0.737-0.386 0.807-0.386 0.807-0.421 0.843-0.421 1.053c0 0.211-0.070 0.562-0.070 0.562s-0.386 0.421-0.176 0.597c0.211 0.176 0.105-0.491 0.351-0.421s0.351 0.456 0.491 0.281c0.141-0.176-0.070-0.526-0.070-0.526s0.14-0.843 0.246-0.983 0.772-1.194 0.878-1.369 0.246-0.421 0.246-0.597 0.21-0.246 0.21-0.527-0.281-1.579-0.246-1.685c0.035-0.105-0.176-2.387-0.176-2.387l0.316-0.351c0 0 0.456 0 0.702-0.176 0.128-0.091 0.303-0.211 0.442-0.305 0.090 0.294 0.168 0.515 0.225 0.621 0.281 0.526 0.737 0.878 0.948 1.018s1.342 0.336 1.938 0.301c0.597-0.035 2.166-0.309 2.166-0.309s-0.092 0.585-0.619 0.796c-0.527 0.211-1.625 0.196-1.941 0.196s-1.123-0.211-1.123 0.070 1.194 1.439 1.966 1.755c0.772 0.316 1.369 0.281 1.65 0.491s0.913 0.351 1.123 0.211c0.024-0.016 0.229-0.016 0.253 0 0.211 0.14 0.842 0 1.123-0.211s0.877-0.176 1.65-0.491c0.772-0.316 1.966-1.474 1.966-1.755s-1.113 0.065-1.429 0.065c-0.316 0-1.109-0.187-1.635-0.398s-0.707-0.84-0.707-0.84c1.792 0.671 1.759 0.46 2.21 0.486 0.597 0.035 1.772-0.227 1.983-0.367s0.667-0.491 0.948-1.018c0.057-0.107 0.135-0.328 0.225-0.621 0.139 0.094 0.314 0.214 0.442 0.305 0.246 0.176 0.702 0.176 0.702 0.176l0.316 0.351c0 0-0.211 2.282-0.176 2.387s-0.246 1.404-0.246 1.685 0.211 0.351 0.211 0.527 0.14 0.421 0.246 0.597 0.772 1.229 0.878 1.369 0.246 0.983 0.246 0.983-0.211 0.351-0.070 0.526c0.141 0.176 0.246-0.211 0.491-0.281s0.14 0.597 0.351 0.421c0.211-0.175-0.176-0.597-0.176-0.597s-0.070-0.351-0.070-0.562c0-0.21-0.421-1.053-0.421-1.053s-0.281-0.562-0.386-0.807-0.491-0.737-0.491-0.737 0.316-1.158 0.316-1.474-0.246-2.843-0.211-3.054c0.035-0.211-0.246-0.421-0.246-0.421s-0.351-0.807-0.491-1.088c-0.092-0.183-0.512-0.575-0.792-0.826 0.256-1.050 0.493-2.182 0.547-2.72 0.030-0.297 0.054-0.794 0.072-1.367 0.222-0.019 0.419-0.107 0.419-0.107l0.281 0.632c0 0 0.527 1.544 0.597 1.966s0.597 1.299 0.913 1.439c0.316 0.14 0.316 0.246 0.456 0.456s0.807 0.246 1.053 0.281 1.193 0.526 1.193 0.526l0.14 0.421c0 0 0.105 0.386 0.386 0.386s-0.141-0.456-0.141-0.456 0-0.176 0.281-0.421c0.28-0.246 0.386 0.105 0.316-0.14z"></path>
</svg>
