<?xml version="1.0" encoding="utf-8"?>
<!-- Generated by IcoMoon.io -->
<!DOCTYPE svg PUBLIC "-//W3C//DTD SVG 1.1//EN" "http://www.w3.org/Graphics/SVG/1.1/DTD/svg11.dtd">
<svg version="1.1" xmlns="http://www.w3.org/2000/svg" xmlns:xlink="http://www.w3.org/1999/xlink" width="32" height="32" viewBox="0 0 32 32">
<path d="M12.072 4.89c2.845-0.265 5.012-0.39 7.357 0 0.659 0.567 1.507 0.039 2.265 0.395 0.335 0.157 0.733 0.462 1.174 0.452 0.727-0.016 1.318 0.508 2.040 0.498 0.488 0.9 1.727 0.687 2.267 1.542 0.21 0.333 0.884 0.251 0.951 0.641 0.088 0.504 0.47 0.632 0.752 0.886 0.57 0.512 1.034 1.102 1.502 1.707 0.205 0.264 0.466 0.495 0.463 0.816-0.005 0.444 0.216 0.674 0.536 0.909 0.469 0.344 0.357 0.943 0.329 1.363-0.024 0.372 0.063 0.513 0.294 0.688 0 0.981 0 1.961 0 2.943-0.114 0.051-0.406-0.114-0.32 0.158 0.095 0.301-0.137 0.527-0.125 0.695 0.048 0.617-0.43 1.035-0.476 1.633-0.032 0.427-0.030 1.135-0.782 1.3-0.596 0.131-1.037 0.485-1.37 1.061-0.242 0.42-0.45 0.971-0.935 1.177-0.762 0.326-1.561 0.18-2.338-0.023-0.186-0.048-0.198-0.211-0.156-0.382 0.060-0.245 0.178-0.454 0.354-0.634 0.087-0.088 0.257-0.164 0.129-0.319-0.126-0.152-0.24-0.063-0.398 0.018-0.491 0.254-1.193-0.24-1.584 0.43-0.007 0.012-0.091-0.003-0.123-0.027-0.186-0.134-1.046 0.165-1.356 0.21-0.026 0.265-0.117 0.056-0.487 0.064-0.378 0.008-0.642 0.317-0.741 0.123-0.087-0.171-0.203-0.346-0.401-0.273-0.73 0.27-1.055-0.186-1.070 0.090-0.011 0.192-0.059 0.51-0.245 0.501-0.569-0.026-0.654 0.462-0.755 0.761-0.324 0.966-1.145 1.567-1.63 2.407-0.143 0.249-0.381 0.45-0.697 0.473-0.659 0.046-1.309 0.145-1.969-0.102-0.504-0.189-0.495-0.447-0.236-0.792 0.22-0.293 0.499-0.534 1.050-0.691-0.453-0.043-0.701-0.031-0.93-0.095-0.466-0.131-0.752-0.637-0.49-0.869 0.252-0.224 0.32-0.479 0.333-0.76 0.026-0.574-0.498-0.159-0.69-0.358-0.030-0.030-0.072-0.061-0.113-0.070-0.736-0.176-1.454-0.233-2.215-0.021-0.243 0.069-0.707 0.043-0.961-0.208-0.882-0.872-1.924-0.858-3.022-0.611-0.131 0.029-0.282 0.066-0.325 0.2-0.065 0.203-0.723 0.134-1.059 0.295-0.939 0.452-2.009 0.549-2.917 1.116-0.629 0.393-1.531 0.277-1.849-0.178-0.389-0.559-0.162-1.099 0.187-1.599 0.026-0.037 0.048-0.075 0.071-0.113 0.817-1.306 0.721-2.637 0.152-4.006-0.177-0.426-0.666-0.887-0.056-1.373 0.031-0.023-0.008-0.171-0.048-0.243-0.342-0.619-0.918-1.095-1.118-1.811-0.053-0.19-0.408-0.283-0.248-0.549 0.152-0.253 0.86-1.274 0.791-1.921-0-0.001 0.108-0.029 0.16-0.019 0.572 0.104 0.743-0.324 0.948-0.709 0.080-0.151 0.004-0.395 0.209-0.464 0.97-0.331 1.075-1.55 2.098-1.945 0.452-0.175 1.275-0.482 1.361-1.3 0.008-0.075 0.217-0.128 0.33-0.196 0.569-0.34 1.22-0.545 1.761-0.897 0.451-0.293 0.635-0.876 1.357-0.938 0.644-0.053 2.814-0.678 3.015-1.057z"></path>
</svg>
