<?xml version="1.0" encoding="utf-8"?>
<!-- Generated by IcoMoon.io -->
<!DOCTYPE svg PUBLIC "-//W3C//DTD SVG 1.1//EN" "http://www.w3.org/Graphics/SVG/1.1/DTD/svg11.dtd">
<svg version="1.1" xmlns="http://www.w3.org/2000/svg" xmlns:xlink="http://www.w3.org/1999/xlink" width="32" height="32" viewBox="0 0 32 32">
<path d="M30.983 19.696c-0.035-0.417-0.765-2.919-1.564-3.927s-0.452-2.259-0.591-2.641c-0.139-0.382-1.355-3.649-1.877-4.309s-2.085-2.641-4.17-2.919-1.355-0.487-1.355-0.487l-0.626-0.035v-0.209l-0.938 0.243-0.278-0.139c0 0-0.973 0.382-1.112 0.452s-1.008 0.174-1.008 0.174-0.625-0.278-0.764-0.278-0.904-0.035-0.904-0.035-0.104-0.452-0.278-0.452-1.182 0.417-1.39 1.077c0 0-2.884 1.147-3.892 2.919s-1.703 3.406-1.911 3.753c-0.209 0.348-0.799 1.147-0.73 1.599 0.070 0.452 0.243 0.973 0.521 0.904s0.521 0.104 0.521 0.104 0.973 0.556 1.286 0.521c0.313-0.035 0.799-0.070 0.799-0.070s1.043 0.938 1.46 1.008c0.417 0.070 0.938 0.035 0.938 0.035s0.869 0.869 1.425 0.869c0.556 0 1.529 0 1.529 0l1.251 0.417c0 0 0.591 0.521 0.834 0.452s0.521-0.174 0.521-0.174l1.077 0.938c0 0-1.772-0.382-2.050-0.452s-1.39-0.417-1.599-0.417c-0.209 0-0.66-0.382-0.973-0.382s-1.008 0.035-1.112 0.174c-0.104 0.139-0.278 0.313-0.278 0.313s-0.172 0.278-0.033 0.348c0.139 0.070 0.626-0.035 0.626-0.035s-0.487 0.104-0.417 0.313c0.070 0.209 0.313 0.487 0.521 0.487s0.765 0.070 0.765 0.070 0.173-0.195 0.349-0.294c0.047-0.026 0.094-0.046 0.137-0.053 0.209-0.035 0.765-0.070 0.765-0.070l-0.87 0.312c0 0-0.209 0.104-0.174 0.278s0.209 0.417 0.487 0.348c0.278-0.070 0.973-0.243 0.973-0.243l0.521-0.104c0 0 1.738 0.243 2.085 0.382s1.46 0.382 1.703 0.278 0.591-0.348 0.591-0.348 0.626-0.035 0.799-0.209 0.278-0.487 0.278-0.487 1.251-0.799 1.39-0.869c0.139-0.070 2.016-0.348 2.259-0.521s1.494-0.799 1.494-0.799l0.382-0.174c0 0 1.842 2.016 1.043 3.336-0.799 1.321-3.753 3.475-7.020 3.44s-6.881-1.494-8.966-2.884c-2.085-1.39-3.232-2.745-3.232-2.745l-0.104 0.278-0.938-1.112v0.243l-1.425-0.904 0.104 0.278-1.633-0.938v0.278c0 0-1.494-1.077-2.398-1.251s-1.842-0.243-1.842-0.243l-0.904-0.348c0 0-0.139 0.104 0 0.278s1.46 1.147 1.738 1.321c0.278 0.174 3.058 1.564 3.51 1.668s3.128 1.703 3.406 1.981c0.278 0.278 2.641 2.016 4.761 3.197s6.186 3.371 11.538 1.703 5.004-4.795 4.969-5.212zM12.6 13.093c-0.695 0.035-0.904-0.591-1.043-0.765 0 0 0.452-0.313 0.869-0.313s1.147 0.313 1.147 0.313-0.278 0.73-0.973 0.765z"></path>
</svg>
