<?xml version="1.0" encoding="utf-8"?>
<!-- Generated by IcoMoon.io -->
<!DOCTYPE svg PUBLIC "-//W3C//DTD SVG 1.1//EN" "http://www.w3.org/Graphics/SVG/1.1/DTD/svg11.dtd">
<svg version="1.1" xmlns="http://www.w3.org/2000/svg" xmlns:xlink="http://www.w3.org/1999/xlink" width="32" height="32" viewBox="0 0 32 32">
<path d="M31.556 20.246l0.471-0.038c0 0 0.124-5.032-0.031-6.834s-0.901-3.107-1.056-3.355-0.497-0.28-0.497-0.28c-0.28-0.373-1.305-0.932-1.305-0.932s-1.74-0.839-3.013-0.963c-0.466-0.045-3.137 0.264-3.557 0.45s-2.19 0.575-3.495 0.652c-0.233 0.014-2.314-0.28-2.454-0.326s-1.491-0.885-2.004-1.072c-0.512-0.186-1.771-0.373-1.771-0.373s-4.339-2.441-4.892-2.687c-0.839-0.373-2.236-0.715-2.47-0.761s-1.025-0.326-1.025-0.326l-1.382-1.087-0.015 0.388-0.42 0.078c0 0 0.373 0.528 0.404 0.994 0 0-0.916 0.932-1.056 1.258s-0.497 1.103-0.497 1.103-0.761 1.32-0.994 1.646-0.606 1.631-0.466 2.19c0.14 0.559 0.326 0.559 0.559 0.652s0.357 0.264 0.683 0.264c0.326 0 0.559-0.342 0.652-0.528s0.249-0.528 0.482-0.621 1.662-0.932 1.848-1.025c0.186-0.093 0.699-0.575 1.025-0.528s0.621 0.217 0.963 0.59c0.31 0.338 0.917 1.336 1.149 1.569s1.491 1.771 1.491 1.771 0.047 1.491 0.187 1.771c0.14 0.28 0.559 1.491 0.559 1.491s0.233 0.932 0.512 1.165c0.28 0.233 0.606 0.466 0.606 0.466s0.419 1.631 0.559 1.91c0.14 0.279 0.885 2.423 0.932 2.796s0 1.118 0.233 1.398c0.233 0.279 0.326 0.978 0.326 0.978s0.135 1.314 0.093 2.081c-0.047 0.854-0.559 1.273-0.559 1.273s-1.025 0.652-0.932 0.885c0.093 0.233 0.885 0.42 1.258 0.42s1.041-0.311 1.041-0.311 0.311-0.575 0.264-0.808c-0.047-0.233-0.006-0.455 0.093-0.932 0.233-1.118-0.093-2.003-0.047-2.376s-0.186-1.724-0.186-1.724l-0.046-1.584c0 0 0.885 1.771 0.979 2.376s0.155 2.159 0.062 2.718c-0.058 0.35-0.808 1.289-0.854 1.522s1.258 0.419 1.631 0.186c0.373-0.233 0.419-0.792 0.419-0.792s-0.295-0.746-0.109-0.792 0.311-0.901 0.217-1.274c-0.093-0.373-0.435-2.578-0.435-2.578s-0.326-2.439-0.326-2.811c0-0.373 0.015-1.848 0.015-1.848s3.316 0.152 4.209 0.078c2.439-0.202 3.914-1.631 3.914-1.631s0.373-0.28 0.559-0.187c0.186 0.093 0.326 0.357 0.606 0.404s0.652 0.062 0.652 0.062 0.528 2.703 0.901 3.386c0.141 0.259 0.575 1.849 0.528 2.175s-0.31 4.178-0.544 4.458c-0.233 0.279-0.978 0.978-0.978 0.978s-0.404 0.59-0.279 0.715c0.124 0.124 0.621 0.357 0.994 0.31s0.901-0.342 0.901-0.342 0.031-0.978 0.311-0.932c0.279 0.047 0.544-0.404 0.497-0.544s0.279-2.563 0.419-2.889c0.14-0.326 0.699-2.33 0.699-2.33s0.885 1.491 0.932 1.817c0.047 0.326 0.746 3.355 0.512 4.1s-0.699 1.631-0.792 1.817c-0.093 0.186-0.372 0.512 0.14 0.652s1.538 0.047 1.724-0.233 0-0.777 0.093-1.242 0.047-0.715 0.186-0.994c0.14-0.28 0-1.258 0.047-1.631s-0.186-2.050-0.186-2.050 0.047-2.128 0.047-2.687c-0-0.164 0.036-0.433 0.088-0.739z"></path>
</svg>
