<?xml version="1.0" encoding="utf-8"?>
<!-- Generated by IcoMoon.io -->
<!DOCTYPE svg PUBLIC "-//W3C//DTD SVG 1.1//EN" "http://www.w3.org/Graphics/SVG/1.1/DTD/svg11.dtd">
<svg version="1.1" xmlns="http://www.w3.org/2000/svg" xmlns:xlink="http://www.w3.org/1999/xlink" width="32" height="32" viewBox="0 0 32 32">
<path d="M28.388 5.472c-0.41-0.284-0.928-0.41-1.224-0.875-1.419-2.225-3.598-3.462-6.008-4.176-3.004-0.888-5.973-0.259-8.836 0.829-1.486 0.565-2.95 0.952-4.575 0.709-1.3-0.196-2.633-0.18-3.857 0.467-0.332 0.175-0.78 0.341-0.69 0.794 0.087 0.444 0.563 0.259 0.864 0.3 2.17 0.299 2.717 1.142 2.031 3.181-0.068 0.201-0.119 0.41-0.207 0.602-1.327 2.897-1.636 5.968-1.375 9.085 0.18 2.133 0.042 4.45 1.527 6.2 0.787 0.928 1.354 1.895 1.678 2.941-0.091 0.518-0.234 1.195-0.429 1.716-0.197 0.526-0.854 1.89-0.732 3.292 0.080 0.925 0.609 1.463 0.609 1.463s0.305-0.061 0.488-0.488c0.188-0.438 0.427-0.793 0.915-1.28 0.641-0.641 1.341-1.646 1.28-2.195s0.348-0.291 0.61-0.366c0.427-0.122 1.158-0.488 1.524-0.671s1.402-0.183 1.402-0.183-0.244-0.61-0.671-0.854-0.748-0.532-2.134-0.671c-0.809-0.081-1.134-1.154-1.261-1.867 0.043-1.553-0.197-3.093-0.269-4.64-0.198-4.252 2.958-8.085 7.14-8.89 0.098 0.514 0.141 1.188 0.182 1.56 0.061 0.549-0.061 1.158 1.28 0 1.077-0.93 2.334-3.053 2.334-3.053 0.736-0.685 1.529-0.96 2.451-1.165 1.816-0.402 3.209-0.256 5.029-0.232 0.407 0.005 1.341 0.183 1.565-0.162 0.292-0.452-0.137-1.022-0.642-1.372z"></path>
</svg>
