<?xml version="1.0" encoding="utf-8"?>
<!-- Generated by IcoMoon.io -->
<!DOCTYPE svg PUBLIC "-//W3C//DTD SVG 1.1//EN" "http://www.w3.org/Graphics/SVG/1.1/DTD/svg11.dtd">
<svg version="1.1" xmlns="http://www.w3.org/2000/svg" xmlns:xlink="http://www.w3.org/1999/xlink" width="32" height="32" viewBox="0 0 32 32">
<path d="M25.512 17.015c0.024-0.036 0.624-0.868 2.032-0.868 0.229 0 0.47 0.022 0.713 0.066 0.503 0.236 1.042 0.312 1.573 0.218 1.424-0.252 2.38-1.617 2.129-3.042-0.223-1.255-1.309-2.166-2.582-2.166-0.152 0-0.307 0.013-0.459 0.040-0.531 0.094-1.015 0.349-1.4 0.739-0.569 0.331-1.135 0.499-1.678 0.499-0.576 0-0.979-0.192-1.121-0.273-0.243-0.538-0.551-1.070-0.915-1.583-0.002-0.293 0.093-1.451 1.592-2.312 0.531-0.139 0.996-0.43 1.345-0.843 0.928-1.109 0.782-2.769-0.325-3.699-0.472-0.395-1.069-0.612-1.684-0.612-0.778 0-1.512 0.342-2.013 0.938-0.347 0.412-0.554 0.918-0.598 1.466-0.562 1.556-1.606 1.895-1.964 1.966-0.568-0.276-1.168-0.495-1.783-0.652-0.226-0.285-0.804-1.219-0.239-2.761 0.319-0.449 0.487-0.971 0.487-1.509 0-1.45-1.177-2.627-2.624-2.627-1.446 0-2.623 1.177-2.623 2.624 0 0.539 0.168 1.060 0.485 1.508 0.567 1.544-0.011 2.478-0.237 2.762-0.618 0.158-1.217 0.377-1.785 0.653-0.356-0.072-1.402-0.412-1.962-1.963-0.044-0.548-0.25-1.056-0.597-1.469-0.499-0.595-1.233-0.937-2.011-0.937-0.616 0-1.214 0.218-1.686 0.614-0.537 0.45-0.866 1.083-0.926 1.781-0.062 0.698 0.153 1.379 0.603 1.916 0.347 0.412 0.81 0.704 1.341 0.843 1.499 0.859 1.595 2.017 1.594 2.31-0.363 0.512-0.671 1.045-0.917 1.587-0.144 0.081-0.547 0.273-1.121 0.273-0.543 0-1.106-0.167-1.675-0.497-0.386-0.392-0.871-0.648-1.401-0.742-0.155-0.027-0.312-0.042-0.467-0.042-1.271 0-2.353 0.913-2.573 2.17-0.122 0.69 0.032 1.386 0.435 1.96 0.402 0.574 1.003 0.957 1.693 1.079 0.529 0.093 1.069 0.021 1.569-0.215 0.245-0.045 0.487-0.067 0.719-0.067 1.424 0 2.022 0.854 2.032 0.869 0 0 0 0.001 0 0.001 0.051 0.578 0.15 1.143 0.296 1.677v0.003c-0.015 0.056-0.396 1.36-2.309 1.692-0.542-0.051-1.090 0.066-1.551 0.332-0.606 0.352-1.041 0.917-1.222 1.594-0.182 0.678-0.088 1.386 0.262 1.992 0.468 0.81 1.339 1.312 2.274 1.312 0.459 0 0.913-0.121 1.311-0.353 0.466-0.269 0.834-0.675 1.064-1.173 0.821-0.986 1.67-1.194 2.238-1.194 0.23 0 0.378 0.038 0.378 0.038 0.023 0.006 0.045 0.011 0.068 0.014 0.377 0.373 0.787 0.715 1.219 1.019 0.007 0.023 0.016 0.047 0.025 0.067 0.024 0.053 0.577 1.29-0.68 2.78-0.452 0.312-0.789 0.744-0.974 1.252-0.495 1.359 0.208 2.869 1.569 3.364 0.291 0.104 0.593 0.157 0.896 0.157 1.099 0 2.090-0.694 2.466-1.728 0.185-0.507 0.205-1.054 0.060-1.582-0.006-1.959 1.21-2.544 1.26-2.567 0.028-0.012 0.054-0.027 0.081-0.045 0.556 0.048 1.012 0.046 1.559 0 0.022 0.015 0.048 0.029 0.076 0.043 0.052 0.024 1.27 0.602 1.266 2.567-0.146 0.528-0.127 1.077 0.058 1.585 0.377 1.032 1.368 1.727 2.467 1.727 0.307 0 0.608-0.054 0.897-0.159 1.36-0.495 2.062-2.005 1.566-3.363-0.184-0.509-0.52-0.94-0.97-1.251-1.258-1.49-0.709-2.726-0.685-2.778 0.011-0.023 0.021-0.048 0.027-0.070 0.428-0.303 0.837-0.644 1.217-1.019 0.023-0.003 0.045-0.007 0.064-0.012l0.002-0.001c0.049-0.012 0.185-0.038 0.382-0.038 0.567 0 1.417 0.208 2.238 1.191 0.228 0.499 0.596 0.905 1.063 1.177 0.396 0.229 0.849 0.35 1.309 0.35 0.938 0 1.811-0.503 2.278-1.312 0.721-1.253 0.289-2.859-0.964-3.583-0.464-0.267-1.007-0.39-1.548-0.334-1.907-0.329-2.294-1.634-2.31-1.689-0.001-0.003-0.002-0.006-0.003-0.009 0.146-0.531 0.244-1.093 0.295-1.67 0.006-0.002 0.007-0.004 0.009-0.006zM24.666 16.939c-0.044 0.701-0.086 1.098-0.27 1.702-0.032 0.104-0.010 0.228 0.070 0.379 0.012 0.021 0.025 0.043 0.044 0.065 0.175 0.482 0.705 1.913 2.924 2.267 0.044 0.007 0.092 0.007 0.135 0.003 0.1-0.013 0.215-0.020 0.331-0.020 0.374 0 0.712 0.066 0.903 0.177 0.758 0.438 1.020 1.642 0.538 2.477-0.303 0.525-0.977 0.893-1.641 0.893-0.272 0-0.529-0.064-0.738-0.185-0.228-0.132-0.488-0.516-0.72-1.052-0.018-0.042-0.041-0.081-0.069-0.116-1.046-1.285-2.019-1.458-2.833-1.458-0.131 0-0.262 0.008-0.391 0.024-0.182-0.082-0.405-0.036-0.544 0.108-0.312 0.33-0.86 0.646-1.343 0.927-0.218 0.126-0.425 0.245-0.596 0.358-0.107 0.069-0.182 0.178-0.208 0.307-0.016 0.072-0.013 0.148 0.006 0.219-0.1 0.326-0.374 1.688 1.185 3.484 0.030 0.035 0.065 0.064 0.102 0.089 0.305 0.198 0.529 0.479 0.65 0.812 0.298 0.818-0.038 1.979-0.933 2.306-0.142 0.052-0.293 0.077-0.45 0.077-0.716 0-1.478-0.548-1.733-1.247-0.12-0.332-0.128-0.693-0.021-1.045 0.014-0.045 0.021-0.090 0.021-0.133 0.032-2.048-1.101-2.728-1.645-3.055l-0.061-0.037c-0.076-0.173-0.246-0.286-0.434-0.286-0.021 0-0.043 0.002-0.062 0.004-0.473 0.055-0.847 0.008-1.282-0.058-0.165-0.024-0.341-0.051-0.542-0.074-0.209-0.022-0.411 0.093-0.497 0.283-0.487 0.302-1.683 1.082-1.647 3.225 0 0.045 0.008 0.091 0.021 0.134 0.105 0.347 0.174 0.835 0.053 1.169-0.24 0.66-1.061 1.196-1.83 1.196-0.175 0-0.338-0.027-0.488-0.081-0.404-0.147-0.759-0.512-0.971-1-0.208-0.478-0.244-1.005-0.096-1.414 0.11-0.3 0.485-0.542 0.786-0.737l0.060-0.039c0.038-0.024 0.072-0.054 0.102-0.089 1.385-1.6 1.139-3.056 0.954-3.637 0.019-0.071 0.021-0.146 0.006-0.217-0.026-0.127-0.1-0.235-0.209-0.308-0.397-0.26-0.704-0.604-1.028-0.967-0.116-0.129-0.233-0.261-0.356-0.39-0.138-0.145-0.361-0.188-0.542-0.108-0.125-0.017-0.257-0.025-0.392-0.025-0.567 0-1.953 0.387-3.139 1.848-0.014 0.017-0.018 0.022-0.027 0.040-0.003 0.007-0.011 0.021-0.036 0.062l-0.062 0.104c-0.164 0.274-0.282 0.474-0.55 0.628-0.215 0.124-0.475 0.19-0.751 0.19-0.655 0-1.321-0.362-1.622-0.881-0.204-0.353-0.243-0.769-0.118-1.234 0.113-0.42 0.358-0.735 0.752-0.963 0.271-0.157 0.697-0.248 1.061-0.217l0.009 0.027h0.076c0.011 0 0.046-0.004 0.135-0.022 1.471-0.297 2.458-1.062 2.935-2.274 0.040-0.036 0.072-0.079 0.098-0.127 0.061-0.114 0.074-0.245 0.036-0.367-0.187-0.611-0.303-1.269-0.347-1.955-0.009-0.145-0.103-0.279-0.25-0.364-0.305-0.36-1.157-1.158-2.728-1.158-0.309 0-0.633 0.032-0.963 0.097-0.044 0.008-0.087 0.023-0.127 0.043-0.262 0.133-0.794 0.368-1.172 0.302-0.435-0.077-1.020-0.453-1.278-0.822-0.255-0.363-0.353-0.803-0.276-1.238 0.143-0.811 1.153-1.376 1.971-1.376 0.104 0 0.205 0.009 0.301 0.026 0.348 0.061 0.664 0.235 0.915 0.503 0.029 0.032 0.064 0.060 0.104 0.084 0.813 0.486 1.557 0.551 2.177 0.551 0.705 0 1.069-0.227 1.31-0.377 0.029-0.018 0.057-0.035 0.083-0.050 0.022-0.005 0.048-0.013 0.088-0.024 0.112-0.001 0.158-0.064 0.24-0.255 0.153-0.355 0.434-0.658 0.731-0.978 0.179-0.193 0.364-0.393 0.524-0.609 0.077-0.105 0.104-0.242 0.075-0.378 0.007-0.49-0.136-2.108-2.146-3.225-0.039-0.022-0.080-0.038-0.124-0.048-0.355-0.083-0.663-0.271-0.891-0.541-0.284-0.339-0.574-0.858-0.536-1.299 0.047-0.523 0.248-0.982 0.541-1.228 0.234-0.196 0.556-0.3 0.932-0.3 0.61 0 1.254 0.279 1.604 0.695 0.227 0.27 0.357 0.605 0.377 0.973 0.002 0.045 0.011 0.089 0.025 0.132 0.353 1.018 1.129 2.283 2.817 2.522 0.12 0.038 0.252 0.026 0.362-0.030 0.172-0.087 0.331-0.177 0.486-0.264 0.379-0.213 0.738-0.415 1.197-0.525 0.106-0.025 0.201-0.087 0.262-0.167l0.023-0.025c1.119-1.182 0.891-2.639 0.504-3.652-0.016-0.042-0.038-0.082-0.064-0.118-0.21-0.281-0.363-0.75-0.363-1.115 0-0.869 0.936-1.722 1.89-1.722 0.935 0 1.818 0.86 1.818 1.771 0 0.353-0.116 0.695-0.33 0.979-0.015 0.014-0.053 0.038-0.092 0.065-0.143 0.097-0.18 0.126-0.195 0.168-0.388 1.014-0.614 2.478 0.508 3.703 0.010 0.012 0.015 0.024 0.021 0.036 0.039 0.079 0.090 0.15 0.281 0.156 0.529 0.016 1.039 0.289 1.531 0.553 0.113 0.061 0.226 0.121 0.337 0.177 0.101 0.052 0.247 0.059 0.329 0.036 0.184-0.025 1.833-0.312 2.672-2.744 0.016-0.046 0.024-0.089 0.025-0.129 0.021-0.366 0.152-0.702 0.38-0.972 0.285-0.341 0.817-0.545 1.421-0.545 0.499 0 0.954 0.142 1.249 0.389 0.669 0.561 0.722 1.833 0.107 2.568-0.223 0.265-0.66 0.368-1.010 0.45-0.043 0.009-0.084 0.024-0.129 0.048-0.936 0.521-2.050 1.467-2.056 3.014-0.042 0.145-0.015 0.301 0.074 0.422 0.322 0.438 0.552 1.005 0.753 1.506 0.055 0.134 0.107 0.264 0.159 0.387 0.052 0.122 0.159 0.216 0.294 0.259l0.061 0.038c0.255 0.16 0.852 0.536 1.618 0.536 0.758 0 1.466-0.388 2.184-0.819 0.037-0.021 0.073-0.050 0.106-0.084 0.249-0.266 0.564-0.439 0.912-0.5 0.102-0.018 0.206-0.026 0.31-0.026 0.842 0 1.577 0.569 1.711 1.323 0.156 0.886-0.519 1.806-1.442 1.969-0.352 0.064-0.704 0.008-1.032-0.16-0.040-0.021-0.084-0.035-0.128-0.044l-0.179-0.036c-0.32-0.064-0.72-0.145-0.98-0.145-1.329 0-1.931 0.82-2.255 1.26-0.048 0.066-0.091 0.125-0.129 0.17-0.168 0.074-0.283 0.233-0.294 0.415zM12.255 13.275c-0.387-0.18-0.83-0.271-1.316-0.271-0.754 0-1.368 0.217-1.486 0.261l-0.095 0.054c-0.172 0.129-1.682 1.292-1.591 2.388 0.104 1.248 0.753 2.763 2.239 2.929 0.293 0.032 0.556 0.047 0.803 0.047 1.522 0 2.389-0.636 2.578-1.894 0.22-1.471 0.3-2.845-1.132-3.514zM12.766 16.589c-0.099 0.661-0.489 1.449-1.786 1.449-0.104 0-0.273-0.049-0.438-0.096-0.155-0.045-0.315-0.090-0.447-0.104-1.323-0.146-1.512-1.988-1.53-2.197-0.038-0.46 0.586-1.361 1.13-1.787 0.159-0.044 0.919-0.146 1.471-0.146 0.368 0 0.697 0.066 0.978 0.197 0.825 0.385 0.859 1.106 0.622 2.684zM19.326 17.767c-0.72-0.228-1.312-0.38-1.87-0.38-0.768 0-1.35 0.308-1.779 0.939-0.239 0.35-0.399 0.773-0.478 1.257-0.123 0.768 0.006 1.433 0.022 1.509l0.038 0.102c0.1 0.19 1.011 1.865 2.104 1.951 0.115 0.009 0.233 0.014 0.353 0.014 0.564 0 2.441-0.127 2.896-1.76 0.078-0.287 0.136-0.544 0.174-0.784 0.242-1.504-0.249-2.462-1.46-2.848zM20.175 20.343c-0.017 0.102-0.091 0.262-0.163 0.415-0.067 0.146-0.139 0.298-0.174 0.427-0.293 1.055-1.607 1.168-2.16 1.168-0.124 0-0.214-0.006-0.252-0.009-0.461-0.035-1.251-0.794-1.585-1.399-0.018-0.165 0.002-0.934 0.090-1.477 0.059-0.361 0.176-0.676 0.35-0.933 0.264-0.387 0.588-0.56 1.054-0.56 0.437 0 0.993 0.149 1.696 0.374 0.634 0.202 1.35 0.713 1.144 1.994zM20.025 9.38c-0.283-0.090-0.537-0.158-0.777-0.207-1.482-0.3-2.47 0.157-2.902 1.345-0.508 1.397-0.859 2.729 0.41 3.668 0.341 0.252 0.756 0.43 1.237 0.529 0.275 0.056 0.569 0.084 0.872 0.084 0.369 0 0.624-0.043 0.637-0.046l0.103-0.033c0.194-0.092 1.905-0.934 2.034-2.024 0.145-1.244-0.19-2.858-1.614-3.316zM20.841 12.601c-0.054 0.459-0.844 1.218-1.462 1.526-0.157 0.011-0.929-0.039-1.47-0.149-0.359-0.073-0.669-0.203-0.919-0.387-0.732-0.542-0.622-1.256-0.077-2.754 0.186-0.511 0.602-1.119 1.53-1.119 0.159 0 0.33 0.018 0.508 0.054 0.102 0.021 0.259 0.102 0.41 0.18 0.143 0.074 0.292 0.15 0.419 0.191 1.27 0.408 1.086 2.25 1.061 2.458z"></path>
</svg>
