<?xml version="1.0" encoding="utf-8"?>
<!-- Generated by IcoMoon.io -->
<!DOCTYPE svg PUBLIC "-//W3C//DTD SVG 1.1//EN" "http://www.w3.org/Graphics/SVG/1.1/DTD/svg11.dtd">
<svg version="1.1" xmlns="http://www.w3.org/2000/svg" xmlns:xlink="http://www.w3.org/1999/xlink" width="32" height="32" viewBox="0 0 32 32">
<path d="M24.853 9.333l0.213-1.12c0 0 0.8-0.533 0.8-0.693 0-0.213 0.213-1.28 0.533-1.6s0.693-1.493 0.693-1.493 1.067-1.12 1.333-1.387c0.267-0.213 0.533-0.48 0.64-0.853s0.32-0.587 0.213-0.853 0-0.533-0.373-0.587c-0.427-0.053-0.907 0.32-0.907 0.32l0.267 0.213c0 0-0.32 0.213-0.64 0.267-0.267 0.053-0.693 0.16-0.907 0.32-0.213 0.213-0.693 0.8-0.747 1.067-0.053 0.213-0.16 0.587-0.213 0.907-0.053 0.213-1.227 0.96-1.493 1.12-0.213 0.16-1.067 1.547-1.28 2.24s-0.693 1.227-0.853 1.387c-0.213 0.16-1.6 1.493-1.6 1.493s-0.853 0.213-1.28 0.693-1.6 1.12-1.6 1.12-0.213 0.213-0.8 0.107c-0.587-0.16-1.6-0.8-1.973-0.907s-0.96 0.053-1.227 0.267c-0.587 0.48-0.587 0.907-0.587 0.907l-0.107 0.693c0 0 0.587-0.64 1.173-0.587s0.907 1.013 0.907 1.013 0.373 1.013 0.107 0.907c-0.267-0.107-0.64-0.8-0.907-0.96s-0.853-0.373-0.907-0.16c-0.053 0.32-0.053 0.32-0.053 0.32s-0.213 0.107-0.213 0.32c0 0.32 0.48 0.587 0.48 0.213 0-0.32 0.213-0.48 0.213-0.48s0.107 0.427 0.32 0.48c0.213 0.053 0.587 0.373 0.853 0.533 0.213 0.16 0.853 1.013 1.013 1.387 0.16 0.32 0.213 0.587-0.267 0.747-0.48 0.213-1.76 0.213-1.92-0.16-0.64-1.333-0.32-2.027-0.32-2.027s-0.427-0.213-0.48-0.64 0-0.587 0-0.587c-0.213 0-1.973-0.32-2.507-0.373-0.587-0.053-0.107-0.16-0.747-0.48-0.693-0.32-3.36-1.333-4-1.92-0.693-0.587-1.12-1.12-1.6-1.227s-0.96 0.053-0.96 0.053-0.48-0.32-0.747-0.16c-0.213 0.16-0.213 0.427-0.16 0.587 0.107 0.16-0.213 0.213 0 0.693 0.213 0.427 0.693 0.693 0.693 0.693s0.107 0.373 0.48 0.587c0.373 0.213 0.053-0.213 1.173 0.533s2.56 1.92 3.147 2.56c0.107 0.107 0.267 0.267 0.427 0.427l0.267 1.227 0.373-0.16 0.373 1.013 0.213-0.427 0.213 0.693 0.213-0.693 0.32 0.16 0.32-0.32c0.107 0.32 0.213 0.693 0.213 0.693l0.533-0.053c0 0-0.213 0.533-0.053 0.587s0.907 0.107 0.907 0.107l0.16 0.427 0.427 0.107 0.427 0.053v0.587l0.267-0.267c0 0 0 0.16-0.053 0.373 0.107 0.053 0.213 0.213 0.267 0.373 0.107 0.533 0.373 1.013 0.587 1.493 0.107 0.213 0.213 0.48 0.32 0.693 0.16-0.213 0.267-0.373 0.267-0.32-0.053 0.16-0.16 0.32-0.213 0.48 0.107 0.213 0.213 0.373 0.373 0.587 0.64 0.747 1.6 1.013 2.507 1.333 0 0 0.053 0 0.053 0 0.107 0 0.213 0 0.32 0.053l0.16-0.053 0.053-0.053c0.373 0.053 0.8 0.053 0.693 0.107-0.16 0.107-0.267 1.28-0.213 2.133s0.427 1.28 0.64 1.547c0.053 0.053 0.373 0.267 0.747 0.427l0.427 0.8 0.053-0.48 0.427 0.693v-0.427l0.853 1.013-0.213-0.587 0.693 0.587v-0.267c0.32 0.213 0.747 0.373 0.8 0.48 0.053 0.16 1.867 1.12 2.293 1.227s1.173-0.16 1.173-0.16 0.427-0.373 0.373-0.587c-0.053-0.213-0.213-0.427-0.213-0.427s0.587 0.107 0.533-0.16c-0.053-0.213-0.213-0.427-0.427-0.373s-0.8 0.053-1.013-0.053c-0.213-0.107-0.533-0.427-0.747-0.587s0.053-0.48-0.32-0.8c-0.373-0.32-0.907-0.32-1.12-0.533s-0.8-0.533-0.8-0.693c0-0.213 0.107-0.64 0.107-0.96s-0.213-1.547-0.213-1.707c-0.053-0.16 0.64 0 1.173 0l0.32 0.267v-0.267l0.587 0.213v-0.373l0.693 0.213-0.053-0.373c0 0 0.64 0.053 0.48 0-0.053 0-0.107-0.267-0.16-0.533l0.747 0.107c0 0 0.373 0.32 0.8 0.373s0.587 0.053 0.8-0.48c0.213-0.533 0.427-0.853 0.533-1.013s0.48-0.693 0.373-0.853c-0.107-0.213-0.267-0.373-0.267-0.373s0.373-0.32 0.107-0.48-0.053-0.373-0.267-0.48c-0.213-0.107-0.213-0.32-0.48-0.16-0.213 0.213-0.693 0.267-0.693 0.267s0.373-0.693-0.053-0.907c-0.427-0.213-0.213-0.693-0.213-0.693l-0.533-0.16-0.267-0.373-0.693 0.107c0 0-0.373-0.16-0.693-0.16s-1.813 1.6-1.813 1.6-0.213-0.32-0.267-0.907c-0.107-0.587-0.48-1.227-0.533-1.387s-0.48-1.227-0.48-1.227l0.107-1.493 0.32 0.533 0.373-1.227 0.213 0.693 0.32-1.333h0.48l0.213-1.12c0 0 0.587-0.373 0.533-0.533s0.213-1.227 0.213-1.227l0.427-1.067z"></path>
</svg>
