<?xml version="1.0" encoding="utf-8"?>
<!-- Generated by IcoMoon.io -->
<!DOCTYPE svg PUBLIC "-//W3C//DTD SVG 1.1//EN" "http://www.w3.org/Graphics/SVG/1.1/DTD/svg11.dtd">
<svg version="1.1" xmlns="http://www.w3.org/2000/svg" xmlns:xlink="http://www.w3.org/1999/xlink" width="32" height="32" viewBox="0 0 32 32">
<path d="M31.9 13.3l-0.8-1.4c-0.1-0.3-0.4-0.3-0.7-0.2-0.2-0.3-0.3-0.6-0.6-0.9 0.1-0.2 0-0.4-0.1-0.6l-0.9-1.3c-0.1-0.2-0.3-0.2-0.5-0.2-0.1-0.2-0.3-0.3-0.4-0.5 0.1-0.2 0.1-0.6-0.1-0.8l-1.1-1.1c-0.1-0.1-0.2-0.1-0.3-0.2 0.1-0.2 0-0.5-0.2-0.7l-1.1-1c-0.2-0.2-0.6-0.2-0.8 0.1 0 0.1-0.1 0.1-0.1 0.2-0.1-0.1-0.3-0.2-0.5-0.3v-0.4c-0.1-0.1-0.2-0.1-0.2-0.1s0 0 0 0c0.1-0.3 0-0.6-0.3-0.7l-1.3-0.7c-0.3-0.2-0.6 0-0.7 0.3 0 0 0 0 0 0-0.3-0.1-0.7-0.2-1-0.3 0 0 0 0 0-0.1 0.1-0.3-0.1-0.7-0.4-0.8l-1.4-0.4c-0.3-0.1-0.5 0.1-0.6 0.4 0-0.3-0.2-0.5-0.5-0.5l-1.4-0.2c-0.1 0-0.2 0-0.2 0-0.1-0.2-0.3-0.4-0.5-0.4l-1.4-0.1c-0.3 0-0.5 0.3-0.6 0.6 0 0.1 0 0.3 0.1 0.4 0 0-0.1 0-0.1 0s0 0 0-0.1v0c0-0.3-0.3-0.6-0.6-0.6h-0.6c0-0.1 0-0.1 0-0.2-0.1-0.3-0.3-0.5-0.6-0.5l-1.5 0.4c-0.3 0-0.4 0.4-0.4 0.7 0 0.1 0 0.1 0.1 0.2h-0.6c0 0 0-0.1 0-0.1-0.1-0.4-0.4-0.6-0.7-0.5l-1.4 0.3c-0.3 0-0.5 0.3-0.4 0.7 0.2 0.6 0.8 0.6 0.9 0.7 0 0-4.2 1.3-5.9 5.2-5.3 12.6 5.4 23.8 5.4 23.8s2.3 1.2 4.7-0.8c0.5-0.4-12.2-8.5-9.6-20.6 1.4-6.6 6.6-7.1 6.6-7.1 0.1 0.2 0.3 0.4 0.5 0.4h1.4c0.3 0 0.5-0.3 0.5-0.6 0.3 0.1 0.6 0.1 0.9 0.2 0.2 0.1 0.3 0.1 0.5 0.1h0.3c0.2 0.1 0.5 0.2 0.8 0.3 0 0 0 0.1 0 0.1-0.1 0.3 0.1 0.7 0.4 0.7l1.4 0.4c0.2 0 0.3 0 0.4-0.1 0.2 0.1 0.3 0.2 0.5 0.3-0.2 0.2-0.2 0.6 0 0.8l1.1 1.1c0.2 0.2 0.6 0.2 0.8-0.1 0.1-0.1 0.1-0.2 0.1-0.3 0.1 0.1 0.2 0.1 0.2 0.2s0 0.3 0.1 0.4l0.7 1.4c0.1 0.3 0.5 0.4 0.7 0.2 0.1-0.1 0.2-0.2 0.2-0.3 0.1 0.1 0.1 0.2 0.2 0.3-0.1 0.2-0.1 0.5 0 0.7l0.8 1.4c0.1 0.2 0.3 0.3 0.5 0.2 0 0.1 0 0.3 0 0.4l0.7 1.5c0.1 0.3 0.4 0.4 0.7 0.3 0.1 0.2 0.1 0.3 0.2 0.5-0.3 0.1-0.4 0.4-0.3 0.8l0.5 1.6c0.1 0.2 0.2 0.3 0.4 0.4-0.1 0.1-0.2 0.3-0.1 0.6l0.4 1.6c0.1 0.3 0.4 0.5 0.7 0.4s0.5-0.4 0.4-0.8l-0.4-1.6c0-0.2-0.2-0.3-0.3-0.4 0 0 0-0.1 0-0.1 0.1-0.2 0.1-0.3 0.1-0.5l-0.6-1.6c-0.1-0.2-0.3-0.4-0.5-0.4-0.1-0.2-0.2-0.4-0.3-0.6 0.1-0.2 0.2-0.4 0.1-0.7l-0.7-1.5c-0.1-0.2-0.3-0.4-0.5-0.3 0-0.2 0-0.3-0.1-0.5l-0.8-1.4c-0.2-0.3-0.5-0.3-0.7-0.2-0.1-0.1-0.2-0.3-0.3-0.4 0-0.1 0-0.2-0.1-0.2l-0.7-1.4c-0.1-0.3-0.5-0.4-0.7-0.2-0.1 0-0.1 0.1-0.2 0.2-0.1-0.1-0.2-0.2-0.4-0.3 0-0.1-0.1-0.2-0.1-0.2l-1.1-1.1c-0.2-0.2-0.4-0.2-0.6-0.1-0.2-0.1-0.4-0.2-0.5-0.3 0 0 0-0.1 0-0.1 0.1-0.3-0.1-0.7-0.4-0.7l-1.2-0.4c0 0 0-0.1 0.1-0.1l1.2 0.2c0.1 0 0.2 0.1 0.4 0.1 0 0.2 0.1 0.5 0.3 0.6l1.3 0.7c0.3 0.1 0.6 0 0.7-0.2 0.2 0.1 0.4 0.3 0.6 0.4 0.3 0.2 0.6 0.5 0.9 0.8l0.3 0.4c-0.1 0.2-0.1 0.5 0.1 0.7l1 1.2c0.1 0.2 0.4 0.2 0.6 0 0.2 0.2 0.3 0.5 0.5 0.7-0.1 0.2-0.1 0.4 0.1 0.6l0.9 1.3c0.1 0.1 0.2 0.2 0.4 0.2 0.1 0.2 0.2 0.4 0.3 0.7-0.2 0.2-0.2 0.5-0.1 0.7l0.6 1.5c0.1 0.2 0.3 0.4 0.5 0.4l0.6 1.4c0 0 0 0 0 0.1 0.1 0.3 0.2 0.6 0.3 0.9-0.1 0-0.1 0-0.2 0.1-0.3 0.2-0.4 0.5-0.2 0.8l0.7 1.5c0.1 0.1 0.1 0.2 0.2 0.2 0 0.1 0 0.2 0 0.4l0.4 1.3c-0.1 0-0.2-0.1-0.3 0-0.3 0.1-0.5 0.4-0.4 0.7l0.3 1.6c0.1 0.3 0.4 0.5 0.6 0.5 0.3-0.1 0.5-0.4 0.4-0.7l-0.3-1.4c0.1 0.1 0.3 0.1 0.4 0 0.3-0.1 0.4-0.4 0.4-0.8l-0.4-1.6c0-0.2-0.1-0.3-0.3-0.4 0-0.2 0-0.3 0-0.5l-0.7-1.5c0-0.1-0.1-0.2-0.2-0.2-0.1-0.2-0.1-0.5-0.2-0.8 0.1 0 0.2 0 0.3 0 0.3-0.2 0.4-0.5 0.2-0.8l-0.6-1.5c-0.1-0.2-0.3-0.3-0.5-0.3l-0.5-1.4c-0.1-0.3-0.4-0.4-0.6-0.3-0.1-0.2-0.2-0.4-0.3-0.6 0 0 0.1 0 0.1-0.1 0.2-0.2 0.3-0.6 0.1-0.9l-0.6-1c0 0 0 0 0 0 0.2-0.2 0.2-0.6 0-0.9l-1.1-1.1c-0.2-0.2-0.5-0.2-0.7 0l-0.7-0.6c0.1-0.2 0.1-0.6-0.1-0.8l-0.9-0.9c0-0.1-0.1-0.2-0.2-0.3l-1.2-1c-0.2-0.2-0.6-0.1-0.7 0.1-0.1 0.1-0.1 0.2-0.1 0.3 0 0 0 0 0 0l-1.3-0.7c-0.1-0.1-0.2-0.1-0.4 0 0 0 0 0 0 0 0.1-0.4-0.1-0.7-0.4-0.7l1.3 0.2c0.2 0 0.3-0.1 0.4-0.2 0.1 0 0.1 0 0.2 0 0.1 0.1 0.2 0.2 0.3 0.3l1.4 0.4c0.2 0.1 0.3 0 0.5-0.1 0.4 0.1 0.7 0.2 1.1 0.4 0 0.2 0.1 0.4 0.3 0.5l1.3 0.7c0.1 0 0.1 0.1 0.2 0.1-0.1 0.2 0 0.5 0.2 0.7l1.2 1c0.2 0.2 0.6 0.1 0.8-0.1 0-0.2 0-0.2 0-0.3l0.8 0.7c0.1 0.1 0.2 0.1 0.3 0.1-0.1 0.2 0 0.5 0.1 0.7l1.1 1.1c0.2 0.2 0.4 0.2 0.6 0.1 0.1 0.1 0.2 0.3 0.3 0.4 0 0 0 0 0 0-0.2 0.2-0.3 0.6-0.1 0.9l0.9 1.3c0.2 0.3 0.5 0.3 0.8 0.1 0 0 0 0 0 0 0.2 0.3 0.4 0.6 0.5 0.9-0.1 0.2-0.2 0.5 0 0.7l0.7 1.4c0.2 0.3 0.5 0.4 0.7 0.2 0.3-0.2 0.4-0.6 0.2-0.9zM11.9 2.6c-0.3-0.1-0.5-0.1-0.8-0.2 0 0 0-0.1 0-0.1 0.3 0 0.5 0 0.8 0.1 0 0.1 0 0.1 0 0.2zM10.8 2c0 0 0-0.1 0-0.1 0-0.1 0-0.1 0-0.2 0.1 0.1 0.2 0.2 0.4 0.2l0.9-0.1c0 0.1-0.1 0.2-0.2 0.3-0.3 0-0.7-0.1-1.1-0.1zM15.7 1.9l-1.3-0.3c-0.2 0-0.4 0.1-0.5 0.3l-1.2-0.1c0.2 0 0.3-0.1 0.4-0.3 0.7 0 1.5 0 2.2 0.1 0.1 0.2 0.2 0.3 0.4 0.3z"></path>
</svg>
