<?xml version="1.0" encoding="utf-8"?>
<!-- Generated by IcoMoon.io -->
<!DOCTYPE svg PUBLIC "-//W3C//DTD SVG 1.1//EN" "http://www.w3.org/Graphics/SVG/1.1/DTD/svg11.dtd">
<svg version="1.1" xmlns="http://www.w3.org/2000/svg" xmlns:xlink="http://www.w3.org/1999/xlink" width="32" height="32" viewBox="0 0 32 32">
<path d="M28.373 12.533c-1.12-0.48-2.827-0.853-3.787-0.853s-2.453 0.533-3.2 1.12c-0.373 0.267-0.48 0.533-0.48 0.8-0.587-0.267-1.227-0.48-1.227-0.48l-0.16-0.427c0 0 0.853-0.16 1.44-0.32 0.587-0.213 2.027-1.493 2.4-3.093s0.32-4.693 0.32-4.693-0.693 1.28-1.867 2.293c-0.96 0.853-1.867 1.12-2.56 1.973-0.693 0.8-0.373 2.56-0.373 2.56s-0.32 0.267-0.64 0.267-1.6-0.213-2.24-0.373c-0.587-0.16-0.8-0.8-1.227-1.12 0.107-0.107 0.48-0.267 0.693-0.533 0.693-0.8 1.173-1.653 1.227-2.72s-0.16-2.933 0.267-4.373c0.16-0.533 1.067-2.133 1.067-2.133s-2.613 1.333-3.733 4.16-0.48 4.267-0.48 4.64c0 0.213-0.053 0.48 0.053 0.693-0.16 0.16-0.267 0.267-0.267 0.267s-1.547 0.427-2.24 0.747c-0.693 0.32-1.173 1.493-1.76 1.6-2.133 0.427-5.973-0.96-6.773-1.12-0.747-0.213-1.173-0.213-1.173-0.213s-0.48 0.32-0.533 0.693c-0.053 0.32 0.267 0.32 0.747 0.48s2.56 0.693 5.92 0.96c0.427 0.053 1.333 0.213 2.027 0.267 0.693 0.107 0.587 0.32 0.48 0.693-0.107 0.267-0.693 0.64-0.693 0.64s-2.027 0.8-2.827 2.88c-0.533 1.44 0 2.56-0.213 3.573-0.16 0.96-1.12 1.12-1.013 5.013 0.053 2.027 2.24 3.84 2.773 4.213s1.12 0.693 1.12 0.693l0.64-0.213c0 0 0.053-0.48 0.107-0.64s0.693-1.12 0.853-2.507c0.373-2.933-0.8-4.32-0.853-5.227-0.053-0.96 0.267-0.907 0.587-1.76 0.267-0.853 0.213-3.253 0.16-3.84s0-2.293 0.213-2.56c0.213-0.267 0.267-0.693 0.267-1.12s-0.693-0.267-0.693-0.533c-0.053-0.213 0.64-0.907 0.96-1.227s1.44-0.64 1.76-0.747c0.32-0.16 0.693-0.107 1.067 0.16 0.32 0.213-0.587 0.533-0.587 0.533s-0.693 0.587-1.653 1.92-0.64 3.893-0.64 3.893-0.107 1.44-0.053 2.027c0 0.213-0.267 2.347 0.587 4 1.813 3.733 4.32 4.32 4.64 4.427 0.267 0.107 0.907 0.48 0.907 0.48l0.48-0.427c0 0-0.053-0.32-0.053-0.48 0-0.427 0.48-1.6 0.267-2.72-0.587-3.147-2.347-4.96-2.507-5.493s0-1.067-0.107-2.827c-0.053-1.013-1.12-2.24-1.227-2.667s-0.213-1.493 0-1.867c0.213-0.373 0.907 0.053 1.333 0.053s1.6 0.587 2.080 0.853c0.48 0.267 0.373 0.32 0.427 0.64 0.053 0.267-0.373 1.12-0.427 1.707-0.053 0.64 0.427 1.973 1.547 2.613 1.12 0.693 1.76 0.96 2.56 1.44 0.853 0.48 2.293 2.027 2.293 2.027s-0.107-2.773-0.8-4.427c-0.16-0.48-0.96-1.493-1.547-2.187 0.107 0 0.16 0 0.16 0s1.387 0.8 2.507 0.907c1.12 0.16 2.88 0.053 3.947-0.427 1.12-0.48 3.147-1.6 3.147-1.6s-2.347-0.48-3.413-0.96z"></path>
</svg>
