<?xml version="1.0" encoding="utf-8"?>
<!-- Generated by IcoMoon.io -->
<!DOCTYPE svg PUBLIC "-//W3C//DTD SVG 1.1//EN" "http://www.w3.org/Graphics/SVG/1.1/DTD/svg11.dtd">
<svg version="1.1" xmlns="http://www.w3.org/2000/svg" xmlns:xlink="http://www.w3.org/1999/xlink" width="32" height="32" viewBox="0 0 32 32">
<path d="M31.040 18.987c-0.32-1.547-1.013-2.667-1.92-3.36-0.747-0.533-1.973-1.227-3.093-1.6-0.213-0.053-0.427-0.107-0.587-0.213-0.8-0.267-1.387-0.427-2.080-0.48-0.64-0.053-1.547 0.16-2.4 0.533 0.16-0.48 0.48-1.173 0.427-2.080-0.107-2.080-0.907-3.52-2.027-4.32-0.96-0.693-2.827-1.493-3.52-1.707 0.32-0.48 0.32-0.8 0.32-0.8l0.213-0.747c0 0-0.48 1.067-0.8 1.547-0.373 0-1.12 0.053-1.813 0.213 0-0.053 0-0.107 0-0.16 0-0.32 0.053-0.587-0.16-0.747s-0.64 0.053-0.64 0.053 0.053 0.267 0.107 0.533c0 0.107 0.053 0.32 0.053 0.533-0.107 0.053-0.16 0.053-0.213 0.107-0.107 0.053-0.32 0.16-0.533 0.267-0.053 0-0.053 0.053-0.107 0.053-0.053-0.053-0.053-0.053-0.053-0.107-0.053-0.16-0.64-0.64-0.8-0.96s-0.747-1.227-0.747-1.227 0.053 1.6 0.373 1.92c0.16 0.16 0.427 0.48 0.587 0.747-0.48 0.267-1.067 0.64-1.547 1.28-0.427-0.107-0.8-0.213-0.8-0.213s0.32 0.213 0.693 0.373c-0.053 0.053-0.053 0.107-0.107 0.16-0.16 0.267-0.267 0.64-0.427 0.853-0.693 0.96-1.173 1.387-1.173 3.093 0 0.64 0.053 1.067 0.107 1.44-0.16 0-0.373 0.053-0.427 0.107-0.16 0.107-0.32 0.373-0.373 0s-0.053-0.907 0.16-1.173c0.16-0.267 0.8-0.96 0.533-1.173s-0.747-0.16-0.907 0.16c-0.16 0.32-0.213 0.693-0.267 1.013-0.053 0.267-0.533 1.013-0.64 1.227-0.267 0-0.48 0-0.693 0-0.32-0.427-0.373-1.067-0.373-1.067s-0.16-0.267-0.267-0.053-0.16 0.693-0.053 0.907-0.427 0-0.427 0-1.28-0.747-1.28-1.067 0.267-2.080 0.267-2.080-0.64 1.6-0.533 2.027 0.8 0.853 0.8 0.853l0.8 0.533c-0.373 0.107-0.8 0.32-0.907 0.373-0.213 0.107-1.6 0.587-2.347 1.92-0.8 1.387-0.96 4.16 0.053 5.92 0.96 1.707 1.493 2.293 2.507 2.773 0.8 0.427 1.76 0.427 2.133 0.427 0.213 0.213 0.8 0.747 1.173 0.907 0.053 0 0.16 0.053 0.213 0.16 0.533 0.32 1.547 0.96 3.147 0.96 0.213 0 0.427 0 0.64-0.053 2.293-0.213 3.307-0.747 3.307-0.747s0 0 0 0c0.213-0.16 1.387-0.853 1.653-1.173 0.16-0.213 0.427-0.533 0.587-0.693 0.267 0.053 0.853 0.16 1.227 0.053 0.32-0.053 0.64-0.16 0.8-0.213 0.32 0.32 1.173 1.067 2.080 1.387 1.12 0.48 3.68 0.747 5.12 0.373s3.2-1.707 3.947-2.72c0.8-1.013 1.44-3.040 1.013-4.853zM14.933 6.4c-0.16 0.16-0.267 0.373-0.373 0.48-0.16 0.16-0.533 0.48-0.533 0.48s-0.107-0.373-0.16-0.747c0.32-0.107 0.747-0.16 1.067-0.213zM13.173 6.88c0 0.16 0 0.32 0 0.32s-0.16-0.053-0.32-0.16c0.16-0.053 0.267-0.107 0.32-0.16zM12 7.467l0.373 0.693c0 0-0.96 0.267-1.547 0.213 0.373-0.427 0.8-0.693 1.173-0.907zM9.92 9.6c0.16-0.213 0.32-0.48 0.533-0.747 0.053-0.107 0.107-0.16 0.213-0.267 0.373 0.053 1.333 0.107 1.813 0.107 0.64 0 0.907-0.373 1.227-0.213s0.427 0.32 0.747 0.853c0.32 0.48 1.333 1.6 1.6 1.707 0.267 0.053-0.693-0.8-1.013-1.493-0.32-0.747-0.747-1.333-0.64-1.28s0.64-0.267 1.28-0.053c0.693 0.16 1.493 0.48 2.080 0.587 0.533 0.053 0.907 0 0.907 0s-0.587-0.053-1.173-0.373c-0.64-0.32-1.173-0.693-1.707-0.693s-1.12-0.053-1.12-0.053 0.32-0.64 0.747-1.227c0.107 0 0.16 0 0.213 0 0.32 0.053 2.24 0.8 3.36 1.6 0.96 0.693 1.493 1.92 1.6 3.84 0.053 1.387-0.32 2.293-0.587 2.56 0 0 0 0.053-0.053 0.053-0.533 0.373-1.493 1.12-2.187 2.24-0.16 0.267-0.267 0.587-0.373 0.853-0.16-0.267-0.32-0.533-0.48-0.8-0.8-1.173-1.813-1.973-4.373-2.293 0-0.16-0.053-0.267-0.16-0.267-0.267-0.107-0.373-0.16-0.587 0.213-0.16 0-0.32-0.053-0.427-0.053-0.8-0.053-1.547 0-2.133 0.16-0.107-0.267-0.267-0.853-0.267-2.027 0-1.547 0.267-1.973 0.96-2.933zM11.307 14.933c0.16 0 0.32 0 0.48 0.053-0.053 0.533-0.107 1.28-0.213 1.76-0.16 0.8-0.32 1.227-0.32 1.227s-0.747-1.493-0.96-1.973c-0.213-0.48-0.373-0.747-0.373-0.96 0 0 0 0 0-0.053 0.373-0.107 0.853-0.107 1.387-0.053zM12.213 16.64c0.053-0.48 0.053-1.227 0.213-1.6 0 0 0 0 0 0 1.333 0.16 2.187 0.48 2.827 0.853-0.373 0.213-1.28 0.853-1.547 0.96-0.32 0.16-0.853 0.48-1.067 0.64-0.16 0.16-0.373 0.587-0.373 0.587s-0.16-0.96-0.053-1.44zM2.027 22.133c-0.907-1.547-0.533-4.053 0.213-5.28 0.693-1.173 1.76-1.653 1.813-1.653 0 0 0.053 0 0.053 0s0.48-0.267 0.853-0.373c0.16-0.053 0.373-0.107 0.64-0.107 0.16 0.107 0.32 0.267 0.48 0.427 0 0 0.587-0.107 1.067-0.16 0.267-0.053 0.533 0 0.747 0.053-0.853 0.48-1.44 1.067-1.867 1.493-0.107 0-0.16 0.053-0.16 0.107-0.427 0.427-0.8 1.12-1.067 1.973-0.32 0.907-0.427 1.973-0.427 2.987 0.053 1.333 0.533 2.293 1.013 3.040-0.373-0.053-0.64 0.107-1.067-0.16-0.853-0.48-1.387-0.693-2.293-2.347zM15.84 25.28c-0.16 0.213-0.96 0.747-1.493 1.013-0.053 0.053-1.067 0.373-3.147 0.533-1.76 0.16-4.213-1.707-4.533-1.973-0.107-0.16-1.6-1.707-1.653-3.36-0.053-2.080 0.64-3.787 1.28-4.48 0.053-0.053 0.107-0.107 0.16-0.16 0.533-0.587 1.333-1.387 2.667-1.76 0.053 0 0.053 0 0.107 0 0.16-0.053 0.32-0.053 0.48-0.107-0.107 0.16-0.107 0.32-0.107 0.533 0.053 0.48 0.48 1.387 0.587 1.653 0.053 0.267 0.64 1.973 0.64 1.973s-0.48-0.053-0.907 0.053c-0.427 0.16-0.96 0.693-1.173 0.853s-0.427 0.533-0.427 0.533 0.373 0.267 0.853 0.32 1.067-0.16 1.067-0.16l1.067-0.213c0 0 0.053 0.48 0.107 0.96s0.373 1.173 0.373 1.173l0.267 0.853c0 0 0.373-0.16 0.373-0.8s0.053-1.013 0-1.28c-0.053-0.267 0.107-0.96 0.107-0.96s0.267-0.107 0.64 0.107c0.373 0.213 1.12 0.64 1.6 0.747 0.48 0.053 1.813-0.427 2.027-0.64 0.213-0.16-1.067 0.213-1.493 0.053-0.48-0.16-1.067-0.64-1.387-0.8s-0.96-0.373-1.013-0.587 0.267-1.28 0.8-1.707c0.427-0.373 1.333-1.387 1.6-1.707 0.48 0.32 0.853 0.693 1.173 1.173 0.96 1.387 1.44 2.613 1.013 4.693s-1.013 2.667-1.013 2.667v0c-0.16 0.213-0.48 0.587-0.64 0.8zM18.027 24.48c-0.213 0.053-0.533 0-0.8-0.053 0.16-0.267 0.32-0.64 0.48-1.173 0.053 0.107 0.053 0.16 0.107 0.267 0.16 0.32 0.373 0.64 0.587 0.853-0.107 0.053-0.213 0.053-0.373 0.107zM29.387 23.413c-0.64 0.907-2.133 2.027-3.413 2.347s-3.68 0.373-4.693-0.053c-0.96-0.427-1.973-1.387-1.973-1.387s0 0 0 0v0c0 0-0.587-0.533-0.8-1.013-0.213-0.427-0.32-1.013-0.373-1.227 0-0.053 0-0.107 0-0.107 0.267-1.333 0.16-2.347-0.16-3.307v0c0 0-0.053-1.12 0.373-1.867 0.96-1.493 2.347-2.080 2.4-2.080v0c0.96-0.48 1.973-0.8 2.667-0.747 0.587 0 1.013 0.16 1.653 0.373 0.107 0.213 0.213 0.533 0.267 0.853 0.053 0.48-0.053 1.387-0.16 1.76s-0.213 0.853-0.213 0.853c-0.107-0.16-1.28-0.48-1.44-0.693s-1.013-0.693-1.227-0.907-1.12-1.387-1.12-1.387 0.907 1.707 1.493 2.347c0.64 0.64 1.227 1.013 1.387 1.28s0.373 0.267 0.213 0.64-0.267 1.12-0.16 1.493c0.107 0.373 0.8 1.067 0.96 1.173s-0.32-0.16-0.053-0.853c0.267-0.693 0.64-1.12 0.64-1.12s1.28 0.747 1.547 1.067c0.267 0.32 2.080 1.707 2.080 1.707s-0.267-0.693-0.64-1.013-1.493-1.387-1.493-1.387l-0.8-1.067c0 0 0.533-0.373 0.853-0.64s1.333-0.96 1.333-0.96 0.853-0.32 0.747-0.32-0.747 0-1.173 0.16c-0.373 0.16-0.853 0.427-0.907 0.373s-0.32-0.053-0.693-0.053c-0.373 0.053-0.533-0.107-0.533-0.107s0.053-1.227-0.107-1.973c-0.107-0.533-0.32-1.013-0.427-1.173 0.16 0.053 0.32 0.107 0.48 0.16 1.067 0.32 2.187 1.12 2.88 1.653 0.8 0.587 1.227 1.547 1.547 2.933 0.267 1.707-0.267 3.307-0.96 4.267z"></path>
</svg>
