<?xml version="1.0" encoding="utf-8"?>
<!-- Generated by IcoMoon.io -->
<!DOCTYPE svg PUBLIC "-//W3C//DTD SVG 1.1//EN" "http://www.w3.org/Graphics/SVG/1.1/DTD/svg11.dtd">
<svg version="1.1" xmlns="http://www.w3.org/2000/svg" xmlns:xlink="http://www.w3.org/1999/xlink" width="32" height="32" viewBox="0 0 32 32">
<path d="M29.387 19.787c-0.747-1.493-2.773-3.093-3.627-4.107s-1.973-3.52-1.973-3.52-0.96-2.347-2.027-3.52c-1.067-1.173-2.987-1.973-3.573-2.187-0.64-0.213-3.84-0.853-3.84-0.853s0.8-1.067 0.427-1.92c-0.32-0.853-0.907-1.973-0.907-1.973l-0.32-1.013c0 0-0.693 0.96-0.8 1.173-0.107 0.267-0.587 0.853-1.013 1.333 0 0-0.693-0.053-1.28-0.267-0.64-0.213-1.867 0-2.347 0.213-0.427 0.213-1.333 0.907-1.333 0.907s-1.6 0-2.24 0.48-0.96 1.067-0.96 1.067c-0.587-0.053-1.173-0.267-1.44-0.533-0.32-0.213-0.693-0.693-0.693-0.693-0.373 0.267-0.213 2.080 0 2.56 0.427 0.96 1.813 1.6 1.813 1.6-0.16 1.013 0.267 1.653 0.267 1.653s0.213 1.813 0.427 2.72c0.213 0.907 1.92 2.56 2.88 3.040s2.453 0.96 2.453 0.96l0.96 0.32-0.96-0.053c-0.587-0.427-1.333-0.213-1.333-0.213s-0.747 0.267-1.067 0.32c-0.32 0.053-0.64 0.373-0.32 0.64 0.267 0.213 1.173-0.213 1.173-0.213l0.587-0.107c0 0-0.747 0.533-0.907 0.747s-0.053 0.48 0.267 0.533c0.32 0.053 0.747-0.373 0.747-0.373l0.32-0.48 0.32 0.213c0 0-0.693 0.747-0.32 1.013s0.587 0.16 0.693 0 0.213-0.8 0.213-0.8 1.707 0.267 2.293-0.107c0.64-0.373 1.067-0.533 1.067-0.533s0.107 0.213 1.067 0.267c0.96 0.053 2.133 0.32 2.133 0.32l1.173 0.64c0 0-0.907 0.32-1.013 0.8-0.053 0.48 0.373 0.107 0.747 0.053 0.427-0.107 0.373 0 0.373 0s-0.107 0.213-0.373 0.747c-0.213 0.48 0 0.96 0.16 1.013s0.373-0.107 0.373-0.107-0.267 0.427 0.16 0.64c0.427 0.213 0.747-0.533 0.747-0.533v-0.16c0 0.213 0.107 0.587 0.48 0.48 0.533-0.16 0.8-1.173 0.747-1.333 0-0.16-0.107-1.067-0.107-1.067s1.333-0.267 1.76-1.067c0.373-0.8 0.16-1.493 0.16-1.493l1.76-0.48c0 0 3.307 2.347 3.893 4 0.64 1.6 1.44 5.227 0.373 6.773-0.213 0.32-0.427 0.427-0.64 0.48 0.107-0.213 0.48-0.907 0.267-1.76-0.267-1.013-2.507-2.027-4.267-0.587-1.707 1.44-0.747 3.68-0.32 4.267 0.213 0.32 0.64 0.693 1.173 0.96 1.547 1.013 3.893 0.107 5.067-1.653 1.76-2.347 1.227-7.733 0.48-9.227zM5.493 8c-0.64 0.267-1.067-0.213-1.173-0.853-0.053-0.587 0.16-1.067 0.48-1.387 1.013-0.853 1.493 0.907 1.493 0.907s-0.16 1.067-0.8 1.333zM10.293 6.773c-0.693 0.48-1.493 0-1.813-0.693-0.16-0.427-0.213-0.907-0.053-1.333 0.533-1.387 2.347-0.373 2.507 0.32 0.16 0.533 0.053 1.227-0.64 1.707zM24 27.52c-0.48-1.28 0.8-1.707 1.227-1.76 1.28-0.107 1.28 0.96 1.227 1.333-0.107 0.373-0.907 0.48-1.067 0.213 0 0 0.64 0.053 0.693-0.32 0.053-0.32-0.32-0.693-0.587-0.693s-0.907 0.48-0.747 1.013c0.32 0.907 2.133 0.64 2.133 0.64s-2.453 0.693-2.88-0.427z"></path>
</svg>
