<svg xmlns="http://www.w3.org/2000/svg" width="32" height="32" viewBox="0 0 32 32"><path d="M31.5 7.012a12.935 12.935 0 0 1-3.174 3.292c.014.272.02.547.02.823 0 8.405-6.397 18.096-18.095 18.096a17.995 17.995 0 0 1-9.749-2.858c.498.06 1.004.09 1.517.09 2.98 0 5.722-1.017 7.898-2.723a6.367 6.367 0 0 1-5.941-4.416 6.377 6.377 0 0 0 2.872-.109 6.365 6.365 0 0 1-5.101-6.237l.001-.081a6.327 6.327 0 0 0 2.88.795 6.355 6.355 0 0 1-2.83-5.293c0-1.166.314-2.258.862-3.198a18.057 18.057 0 0 0 13.109 6.646 6.359 6.359 0 0 1 6.194-7.809c1.83 0 3.483.772 4.643 2.007a12.719 12.719 0 0 0 4.039-1.543 6.384 6.384 0 0 1-2.798 3.519A12.71 12.71 0 0 0 31.5 7.012z"/></svg>