<svg xmlns="http://www.w3.org/2000/svg" width="32" height="32" viewBox="0 0 32 32"><path d="M22.176 16.512h6.944c.48 0 .608.192.608.608v11.84c0 .704 0 .704-.704.608-4.032-.576-8.064-1.152-12.128-1.664a18.524 18.524 0 0 0-1.92-.224c-.288-.032-.384-.128-.384-.48V16.896c0-.48.288-.48.608-.48h6.944c.032.064.032.064.032.096zm-.064-1.344H15.2c-.48 0-.608-.096-.608-.608V4.576c0-.48.128-.608.576-.704 4.704-.576 9.344-1.248 14.048-1.92.416-.032.512.032.512.48V14.56c0 .48-.192.576-.576.576h-7.04v.032zM7.68 16.416h5.088c.416 0 .608.096.608.576v9.888c0 .416-.096.512-.512.48-3.52-.48-6.976-.96-10.432-1.44-.384-.064-.512-.192-.512-.576v-8.448c0-.48.192-.512.576-.512 1.728 0 3.456 0 5.184.032 0-.032 0-.032 0 0zm-.096-1.152h-5.12c-.32 0-.48-.096-.48-.416v-8.64c0-.32.128-.48.48-.512 3.008-.384 6.08-.8 9.12-1.248.416-.032.896-.128 1.344-.128.32 0 .416.096.416.416v10.016c0 .416-.224.416-.576.416H7.552c.032.064.032.064.032.096z"/></svg>