<svg xmlns="http://www.w3.org/2000/svg" width="32" height="32" viewBox="0 0 32 32"><path d="M16.16 31.2C7.627 31.2.693 24.267.693 15.68.693 7.2 7.68.213 16.266.267c8.373.053 15.36 6.933 15.36 15.52-.053 8.48-6.987 15.413-15.467 15.413zm0-.693c8.107 0 14.667-6.56 14.773-14.613C31.04 7.627 24.373.961 16.213.961 8 .961 1.386 7.574 1.386 15.628a14.728 14.728 0 0 0 14.773 14.88zm9.973-23.254c-1.44.16-1.92 1.387-1.707 2.56.107.64.267 1.227.533 1.813.533 1.12.587 2.347.587 3.52 0 2.08-.747 4-1.493 5.867-.267.64-.533 1.333-.8 2.027-.427-1.12-.853-2.187-1.227-3.253-.907-2.347-1.76-4.747-2.667-7.147-.053-.16-.107-.32-.107-.48-.053-.533.267-.853.8-.96.213 0 .373-.053.587-.053.16 0 .373 0 .587-.053v-.64h-9.12v.533c.267.053.587.107.907.213.747.213 1.227.64 1.493 1.387a96.77 96.77 0 0 0 1.387 3.52c.053.16.053.32 0 .48-.907 2.187-1.813 4.427-2.773 6.613 0 .053-.053.107-.107.213-.213-.533-.427-.96-.587-1.44-1.227-3.04-2.453-6.133-3.68-9.173-.16-.427-.16-.8.053-1.12.213-.373.587-.427 1.013-.427h.427v-.64H4.106c1.76-3.947 4.64-6.507 8.8-7.573 5.12-1.333 10.24.587 13.227 4.213zM12 28.267c1.493-3.52 2.987-6.933 4.533-10.507 1.333 3.52 2.667 6.933 4 10.453-2.88.96-5.707.96-8.533.053zM3.573 12.16C5.6 17.173 7.626 22.187 9.706 27.2c-1.12-.213-3.84-2.88-4.96-4.853-1.813-3.2-2.187-6.613-1.227-10.187h.053zm25.12-.267c1.76 5.227-.213 11.947-5.867 15.2 1.973-5.067 3.893-10.133 5.867-15.2z"/></svg>