<svg xmlns="http://www.w3.org/2000/svg" width="32" height="32" viewBox="0 0 32 32"><path d="M25.831 9.79h-6.414c-.489-.818-1.25-1.662-2.304-2.55-.028-.024-.045-.06-.045-.097s.017-.073.046-.096c2.051-1.698 2.991-3.612 2.98-6.12a7.6 7.6 0 0 1-.226.622.127.127 0 0 1-.15.074c-.037-.01-.069-.019-.099-.019h-2.652c-.174 0-.315.12-.315.268s.141.268.315.268h2.42c.044 0 .085.023.108.062a.13.13 0 0 1 .003.124 9.69 9.69 0 0 1-.342.591.12.12 0 0 1-.129.055l-.032-.007a.183.183 0 0 0-.038-.007h-1.989c-.174 0-.315.121-.315.268s.141.268.315.268h1.54c.048 0 .092.027.113.07s.016.094-.014.132c-.185.241-.385.48-.596.71a.126.126 0 0 1-.093.041h-.95c-.174 0-.315.12-.315.268s.142.268.315.268h.157a.125.125 0 1 1 .085.219c-.392.355-.781.671-1.19.965l-.069.052a.126.126 0 0 1-.148-.001l-.067-.051a13.202 13.202 0 0 1-1.19-.965.126.126 0 0 1 .085-.219h.157c.174 0 .315-.12.315-.268s-.141-.268-.315-.268h-.95a.126.126 0 0 1-.093-.041 11.423 11.423 0 0 1-.596-.71.126.126 0 0 1 .1-.202h1.54c.173 0 .314-.12.314-.268s-.141-.268-.314-.268H12.8a.17.17 0 0 0-.036.007l-.033.007a.126.126 0 0 1-.131-.057 9.506 9.506 0 0 1-.342-.591.127.127 0 0 1 .111-.186h2.42c.173 0 .314-.12.314-.268s-.141-.268-.314-.268h-2.651a.372.372 0 0 0-.098.019.126.126 0 0 1-.151-.073 7.3 7.3 0 0 1-.227-.624c-.011 2.509.931 4.423 2.981 6.121a.127.127 0 0 1 .046.096.128.128 0 0 1-.045.097c-1.14.96-1.859 1.8-2.307 2.55H5.926a6.054 6.054 0 0 0-6.047 6.047v.589a6.054 6.054 0 0 0 6.047 6.048h6.413c.447.749 1.166 1.589 2.306 2.55.028.024.045.06.044.097s-.017.073-.045.097c-2.05 1.698-2.992 3.612-2.981 6.121a7.29 7.29 0 0 1 .227-.623.122.122 0 0 1 .15-.073c.035.01.067.019.098.019h2.651c.174 0 .314-.12.314-.268s-.141-.269-.314-.269h-2.42c-.044 0-.085-.022-.108-.061s-.024-.085-.003-.124c.112-.211.224-.404.342-.591a.13.13 0 0 1 .13-.058l.036.009c.014.003.027.006.035.006h1.989c.174 0 .314-.12.314-.268s-.141-.268-.314-.268h-1.54a.126.126 0 1 1-.1-.203c.186-.242.387-.48.596-.711a.131.131 0 0 1 .093-.041h.95c.174 0 .315-.12.315-.268s-.141-.268-.315-.268h-.157a.127.127 0 0 1-.085-.22c.396-.359.786-.675 1.189-.964l.067-.051a.124.124 0 0 1 .148-.001l.069.053c.407.291.796.606 1.189.963a.127.127 0 0 1 .033.139.126.126 0 0 1-.118.081h-.157c-.174 0-.316.12-.316.268s.142.268.316.268h.95c.035 0 .069.016.093.041.213.232.413.472.596.711.029.038.034.09.014.132a.125.125 0 0 1-.113.071h-1.54c-.174 0-.315.119-.315.268 0 .147.141.268.315.268h1.989a.159.159 0 0 0 .036-.007l.035-.007a.12.12 0 0 1 .13.057c.116.184.228.377.342.59a.127.127 0 0 1-.111.186h-2.42c-.174 0-.315.12-.315.269 0 .147.141.268.315.268h2.652a.37.37 0 0 0 .099-.02.128.128 0 0 1 .15.074c.094.228.168.438.226.622.011-2.508-.93-4.423-2.98-6.12a.124.124 0 0 1-.046-.097.13.13 0 0 1 .045-.097c1.052-.887 1.815-1.73 2.306-2.55h6.412a6.055 6.055 0 0 0 6.048-6.048v-.589a6.056 6.056 0 0 0-6.049-6.045zm-11.042-.528h-.226a.126.126 0 0 1-.081-.222c.369-.312.814-.655 1.324-1.019a.126.126 0 0 1 .146 0c.511.364.956.707 1.325 1.019a.126.126 0 1 1-.082.222h-.226c-.174 0-.315.12-.315.268 0 .134.119.24.27.26h-2.088c.15-.02.269-.126.269-.26-.002-.148-.143-.268-.316-.268zm2.18 13.74h.225c.053 0 .1.033.118.083s.003.104-.036.139c-.37.313-.815.655-1.325 1.019a.126.126 0 0 1-.146 0 19.838 19.838 0 0 1-1.324-1.019.126.126 0 0 1 .081-.222h.226c.174 0 .314-.12.314-.269 0-.134-.118-.24-.269-.26h2.089c-.151.02-.27.126-.27.26.001.149.143.269.317.269zm12.894-6.576a4.036 4.036 0 0 1-4.032 4.032h-9.952v-8.652h9.952a4.036 4.036 0 0 1 4.032 4.031v.589z"/></svg>