<svg xmlns="http://www.w3.org/2000/svg" width="32" height="32" viewBox="0 0 32 32"><path d="M28.179 7.907c-3.835-2.181-9.32-2.4-12.175-2.4L16 5.512a.018.018 0 0 1-.005-.004c-2.855 0-8.338.219-12.175 2.4C.597 9.742.5 11.705.5 13.075v.206c0 .313.27.57.601.57h7.274c.331 0 .601-.257.601-.57v-.694c0-1.732 1.656-2.009 2.57-2.155s3.186-.29 4.449-.29h.009c1.264 0 3.534.142 4.45.29.913.147 2.569.425 2.569 2.155v.694c0 .313.271.57.602.57h7.273c.33 0 .602-.257.602-.57v-.206c0-1.37-.097-3.333-3.321-5.168zM16 13.632c-1.717 0-5.294-.247-7.111 1.957-1.817 2.202-6.363 13.168-2.31 13.168h18.842c4.054 0-.492-10.966-2.31-13.168-1.817-2.203-5.393-1.957-7.111-1.957zm0 12.219a4.845 4.845 0 1 1 .002-9.69 4.845 4.845 0 0 1-.002 9.69z"/></svg>