<svg xmlns="http://www.w3.org/2000/svg" width="32" height="32" viewBox="0 0 32 32"><path d="M1.972 3.936c0-2.1 6.268-3.803 14-3.803s14 1.703 14 3.803c0 2.1-6.268 3.803-14 3.803s-14-1.703-14-3.803zm14 8.196c6.52 0 11.983-.957 13.541-2.25.288.4.459.818.459 1.25 0 2.76-6.268 5-14 5s-14-2.24-14-5c0-.432.17-.85.459-1.25 1.557 1.293 7.02 2.25 13.541 2.25zm0 16c6.52 0 11.983-.957 13.541-2.25.288.4.459.818.459 1.25 0 2.566-5.418 4.682-12.393 4.967l-.032.001c-.517.02-1.042.032-1.575.032s-1.058-.012-1.575-.032l-.033-.001c-6.975-.285-12.392-2.402-12.392-4.967 0-.432.17-.85.459-1.25 1.557 1.293 7.02 2.25 13.541 2.25zm0-3.75c-7.732 0-14-2.24-14-5 0-.432.17-.85.459-1.25 1.557 1.293 7.021 2.25 13.541 2.25s11.983-.957 13.541-2.25c.288.4.459.818.459 1.25 0 2.76-6.268 5-14 5z"/></svg>