<svg xmlns="http://www.w3.org/2000/svg" width="32" height="32" viewBox="0 0 32 32"><path d="M27.842 5.625a2.24 2.24 0 0 1-1.855-.983c-.255.146-.776.427-1.489.823a1.671 1.671 0 0 1-2.813 1.622c-.392.236-.8.484-1.222.745a1.313 1.313 0 0 1-2.09 1.341c-.422.281-.848.571-1.276.868a.958.958 0 0 1-1.419 1.02c-1.611 1.193-3.194 2.495-4.564 3.858 1.64 3.983 2.261 7.325 2.133 8.237-.124.904-.824 2.03-1.96 1.696-.355-.104-.263-.416-.035-.526.142-.065.494-.296.565-.841.128-1.004-.459-4.013-1.679-7.544-.005.007-.011-.065-.015-.059-.615.672-1.168 1.85-1.67 1.85h.88c.247 0 .449.302.449.547 0 .25-.202.551-.449.551H7.741c-.433 0-.818 1.099-1.161 1.099h2.753c.247 0 .449.298.449.547 0 .247-.202.549-.449.549H6.009c-.364 1.098-.667 1.098-.914 2.196h4.238c.247 0 .449.302.449.549s-.202.549-.449.549H4.711c-1.836 4.391 1.052 6.142 1.125 6.186.406.238-.024.907-.968.501-6.486-2.789-.568-11.728 4.799-16.308-1.415-3.755-3.491-7.899-6.133-10.742-.006-.006-.012-.025-.016-.03-.419-.448-.117-.612.247-.254.003.004.007.001.01.005 3.113 3.033 5.351 6.756 6.868 10.148 1.301-1.111 2.906-2.255 4.585-3.346a.96.96 0 0 1 1.547-.979c.416-.257.833-.51 1.245-.756a1.313 1.313 0 0 1 2.266-1.316c.4-.226.789-.443 1.165-.651a1.67 1.67 0 0 1 2.944-1.575c.728-.378 1.25-.64 1.473-.752a2.245 2.245 0 1 1 4.22-1.072 2.247 2.247 0 0 1-2.246 2.247z"/></svg>