<svg xmlns="http://www.w3.org/2000/svg" width="32" height="32" viewBox="0 0 32 32"><path d="M16 .132c-8.823 0-16 7.179-16 16s7.177 16 16 16 16-7.178 16-16c0-8.821-7.178-16-16-16zm13.646 16c0 3.121-1.059 6-2.826 8.302-.5-.394-1.032-1.447-.532-2.54.504-1.101.637-3.646.521-4.637-.11-.991-.625-3.377-2.024-3.4-1.396-.021-2.354-.483-3.185-2.139-1.722-3.446 3.233-4.107 1.512-6.017-.483-.535-2.972 2.206-3.337-1.448-.025-.258.225-.649.558-1.055 5.406 1.816 9.313 6.926 9.313 12.934zM14.125 2.622c-.326.635-1.188.894-1.711 1.372-1.14 1.031-1.629.888-2.244 1.878-.618.989-2.611 2.416-2.611 3.132 0 .714 1.008 1.561 1.511 1.396s1.83-.156 2.611.118c.781.276 6.524.552 4.694 5.406-.58 1.543-3.121 1.282-3.798 3.84-.101.374-.452 1.977-.476 2.501-.042.809.572 3.862-.208 3.862-.785 0-2.896-2.73-2.896-3.226 0-.494-.548-2.231-.548-3.717s-2.528-1.463-2.528-3.438c0-1.783 1.372-2.669 1.062-3.523-.302-.849-2.711-.88-3.715-.983 1.753-4.55 5.881-7.931 10.857-8.618zm-2.417 26.46c.819-.433.902-.991 1.646-1.021.851-.039 1.542-.334 2.5-.543.851-.186 2.372-1.049 3.711-1.16 1.128-.092 3.357.06 3.959 1.149a13.562 13.562 0 0 1-7.525 2.271c-1.499 0-2.94-.247-4.291-.696z"/></svg>