<svg xmlns="http://www.w3.org/2000/svg" width="32" height="32" viewBox="0 0 32 32"><path d="M31.044 24.746c.782.746 1.436 2.447.481 3.426-.958.978-3.555 1.956-8.342 1.956-2.556 0-4.481-.28-5.873-.689a4.27 4.27 0 0 0 .618-.517c.525-.537.796-1.246.782-2.049-.018-1.034-.523-2.174-1.288-2.903a12.45 12.45 0 0 1-.303-.301 17.017 17.017 0 0 0-.191-.19c.355-.159.816-.314 1.462-.479.538-.136 1.777-.544 1.921-1.232-.02-2.367-.957-2.403-1.435-3.382-.479-.976-1.304-3.394-.479-7.337.607-2.908 4.635-2.935 4.782-2.935h.009c.147 0 4.175.027 4.782 2.935.825 3.943 0 6.36-.479 7.337-.48.979-1.417 1.015-1.437 3.382.145.687 1.384 1.095 1.923 1.232 2.095.534 2.251.966 3.067 1.746zM13.612 23c2.096.534 2.252.966 3.069 1.745.783.746 1.436 2.447.479 3.426s-3.554 1.956-8.342 1.956c-4.786 0-7.383-.977-8.34-1.956-.958-.98-.303-2.68.478-3.426.816-.78.973-1.212 3.069-1.746.539-.136 1.777-.544 1.921-1.232-.02-2.367-.957-2.403-1.435-3.382-.479-.976-1.304-3.394-.479-7.337.607-2.908 4.635-2.935 4.782-2.935h.008c.148 0 4.175.028 4.783 2.936.825 3.943 0 6.36-.479 7.337-.48.979-1.417 1.015-1.437 3.382.145.687 1.384 1.095 1.923 1.232z"/></svg>