<svg xmlns="http://www.w3.org/2000/svg" width="32" height="32" viewBox="0 0 32 32"><path d="M32 13.154l-5.768-9.678s-3.012 2.308-4.037 2.211-4.903-.929-5.544-.673c-.332.133-1.006.866-1.65 1.645-.628-.101-2.663-.624-7.319-3.36a.578.578 0 0 0-.764.165L.606 12.405a.579.579 0 0 0-.074.521c.055.158 1.288 3.647 4.056 6.751l.771-.871c-2.127-2.429-3.298-5.135-3.634-5.986l5.831-8.259c3.514 2.032 5.542 2.809 6.645 3.102-.271.353-.495.657-.626.845-.513.737-2.659 2.691-2.852 3.525-.084.363.737 1.377 2.275 1.346 1.538-.033 3.013-.865 3.525-1.314s1.987-1.57 2.627-.833 2.948 2.729 4.07 3.365c.776.44 2.664 1.485 3.877 2.154.789.871 1.453 1.895 1.066 2.449-.1.14-.287.325-.786.325-1.153 0-2.89-.999-3.465-1.385v-.001h-.001a.579.579 0 0 0-.649.955c1.191.81 3.131 2.476 3.266 3.498a.475.475 0 0 1-.109.407c-.219.256-.549.379-1.011.379-1.384 0-3.18-1.105-3.198-1.118a.575.575 0 0 0-.787.176.574.574 0 0 0 .158.79c.784.536 2.07 1.688 2.18 2.491a.548.548 0 0 1-.133.458c-.216.255-.502.374-.896.374-1.023 0-2.219-.807-2.231-.814a.578.578 0 0 0-.833.751c.281.521.548 1.418.293 1.674-.008.007-.064.034-.2.034-.407 0-1.032-.237-1.543-.482l-.813.884c.514.271 1.539.752 2.356.752.426 0 .769-.124 1.015-.372.438-.438.49-1.044.402-1.602.471.182 1.018.329 1.555.329.729 0 1.343-.271 1.777-.782.326-.385.463-.855.395-1.358-.053-.391-.229-.776-.465-1.143.324.07.651.112.97.112.806 0 1.44-.263 1.886-.781a1.63 1.63 0 0 0 .378-1.31c-.079-.6-.46-1.233-.949-1.823.222.039.442.062.654.062.958 0 1.47-.445 1.73-.819.646-.922.222-2.044-.458-3.018L32 13.154zM7.313 22.12l-.558.631a1.522 1.522 0 0 1-2.279-2.019l3.548-4.005a1.521 1.521 0 1 1 2.278 2.017L7.313 22.12zm11.037 2.248c.629.558.687 1.521.132 2.148l-2.048 2.227a1.523 1.523 0 0 1-2.279-2.018l.584-.636.251-.271 1.212-1.319a1.522 1.522 0 0 1 2.148-.131zm-7.944-.087L9.35 25.473a1.521 1.521 0 1 1-2.278-2.018l3.548-4.005a1.522 1.522 0 0 1 2.278 2.018l-2.492 2.813zm3.76 1.373l-1.291 1.423a1.522 1.522 0 1 1-2.279-2.019l.371-.408 2.607-2.874a1.522 1.522 0 1 1 2.279 2.019l-1.687 1.859z"/></svg>