<svg xmlns="http://www.w3.org/2000/svg" width="32" height="32" viewBox="0 0 32 32"><path d="M26.502.132h-.005a5.104 5.104 0 0 0-3.587 8.735l-1.538 2.427a4.966 4.966 0 0 0-1.747-.311h-.013a5.125 5.125 0 0 0-4.13 2.1l-5.353-2.222a5.108 5.108 0 1 0-4.006 4.068l3.395 7.942a5.108 5.108 0 1 0 6.604.561l1.675-2.574a4.948 4.948 0 0 0 1.802.333h.016a5.104 5.104 0 0 0 3.587-8.735l1.538-2.427c.519.197 1.12.311 1.747.311h.013A5.108 5.108 0 1 0 26.493.132zM5.11 13.053a3.11 3.11 0 1 1 3.109-3.117v.008a3.11 3.11 0 0 1-3.109 3.109zm7.413 17.11h-.002a3.11 3.11 0 1 1 3.109-3.117v.004a3.11 3.11 0 0 1-3.109 3.109h-.008zm1.78-7.909a5.008 5.008 0 0 0-1.81-.332c-.348 0-.688.035-1.016.101l-3.386-7.945c-.151.217.63-.408 1.193-1.199l5.315 2.216a5.082 5.082 0 0 0 1.375 4.584zm5.289-3.014a3.109 3.109 0 1 1 3.111-3.111 3.109 3.109 0 0 1-3.109 3.107zm6.906-10.92a3.11 3.11 0 1 1 3.109-3.109 3.109 3.109 0 0 1-3.109 3.105z"/></svg>