<svg xmlns="http://www.w3.org/2000/svg" width="32" height="32" viewBox="0 0 32 32"><path d="M30.488 18.988C30.68 18.026 32 17.15 32 16.132s-1.32-1.893-1.512-2.855c-.198-.994.68-2.301.3-3.213-.389-.928-1.948-1.238-2.505-2.062-.562-.831-.258-2.376-.968-3.079-.712-.708-2.271-.404-3.109-.959-.832-.555-1.144-2.101-2.08-2.486a1.406 1.406 0 0 0-.539-.097c-.746 0-1.628.423-2.384.423a1.75 1.75 0 0 1-.318-.028C17.913 1.585 17.03.275 16.001.275s-1.913 1.31-2.884 1.501a1.947 1.947 0 0 1-.317.026c-.758 0-1.641-.423-2.385-.423-.19 0-.372.028-.54.097-.937.385-1.248 1.931-2.08 2.482-.839.556-2.396.252-3.107.957s-.408 2.251-.97 3.082c-.556.824-2.114 1.135-2.503 2.063-.381.912.495 2.222.297 3.216C1.321 14.238 0 15.113 0 16.132c0 1.018 1.32 1.894 1.512 2.857.198.993-.68 2.3-.299 3.213.388.928 1.948 1.237 2.505 2.062.562.834.256 2.376.966 3.078.712.71 2.271.405 3.109.959.832.556 1.143 2.101 2.08 2.486.167.069.349.098.54.098.746 0 1.628-.423 2.385-.423.109 0 .214.009.318.027.971.191 1.856 1.502 2.885 1.502s1.911-1.311 2.884-1.502c.104-.019.209-.027.316-.027.758 0 1.64.423 2.385.423.189 0 .371-.028.539-.098.936-.386 1.248-1.931 2.081-2.483.839-.554 2.395-.249 3.106-.955.711-.705.408-2.251.97-3.082.558-.824 2.113-1.135 2.504-2.062.38-.913-.496-2.223-.298-3.217zm-19.463.696h-1.58l-2.988-4.809h-.02v4.809H4.958V12.5h1.569l2.999 4.819h.02V12.5h1.479v7.184zm6.841 0h-5.453V12.5h5.373v1.329h-3.793v1.539h3.482v1.228h-3.482v1.761h3.874v1.327zm7.909 0h-1.57l-1.217-4.889h-.021l-1.197 4.889h-1.6L18.268 12.5h1.58l1.137 4.891h.021l1.248-4.891h1.479l1.228 4.95h.021l1.177-4.95h1.55l-1.934 7.184z"/></svg>