<svg xmlns="http://www.w3.org/2000/svg" width="32" height="32" viewBox="0 0 32 32"><path d="M30.974 24.136L26.417 2.573a1.216 1.216 0 0 0-1.231-.963l-16.705.607c-.536.02-.995.388-1.131.906L1.352 25.977a1.214 1.214 0 0 0 .937 1.501l1.519.303a1.211 1.211 0 0 0 1.391-.807l.656-1.967 11.103 1.955-.662 3.258a1.214 1.214 0 0 0 .917 1.426l1.974.455a1.214 1.214 0 0 0 1.465-.953l1.765-9.168 4.535.421.428 2.079c.104.511.521.896 1.038.962l1.215.151c.39.046.779-.095 1.046-.383.265-.29.375-.689.295-1.074zm-15.401-3.802l-.596 2.894-6.31-.956.654-2.908 1.514.211 1.181-5.249-1.566-.218.77-2.52 4.592.191-1.857 8.258 1.618.297zm1.52-11.541c-.279 1.234-1.385 2.129-2.632 2.129-.114 0-.23-.008-.345-.024a2.308 2.308 0 0 1-1.602-.975 2.402 2.402 0 0 1-.354-1.917c.303-1.346 1.608-2.3 2.976-2.104a2.308 2.308 0 0 1 1.601.975c.381.552.508 1.233.356 1.916zm5.934 10.66l1.897-9.72 1.67 10.175-3.567-.455z"/></svg>