<svg xmlns="http://www.w3.org/2000/svg" width="32" height="32" viewBox="0 0 32 32"><path d="M31.568 19.317a.964.964 0 0 1 .432.752v1.667c0 .275-.219.445-.485.379L18 18.736v7.083l.434.417.133.127 3.072 2.945c.199.19.361.57.361.845v1.583c0 .274-.188.375-.416.223L16 28.236l-5.584 3.723c-.228.152-.416.051-.416-.223v-1.583c0-.276.162-.656.361-.845L14 25.819v-7.083L.485 22.115c-.267.066-.485-.104-.485-.379v-1.667c0-.275.195-.614.432-.752L14 11.401V5.185c0-1.1.402-2.805.894-3.79l.211-.422c.492-.984 1.297-.984 1.789 0l.211.422c.493.985.895 2.69.895 3.79v6.216l13.568 7.916z"/></svg>