<svg xmlns="http://www.w3.org/2000/svg" width="32" height="32" viewBox="0 0 32 32"><path d="M24 5.132a11.951 11.951 0 0 0-8 3.057c-2.123-1.901-4.926-3.057-8-3.057S2.123 6.288 0 8.189v17.884l.064.059c.513.453 1.064.861 1.649 1.223A9.953 9.953 0 0 1 8 25.132a9.95 9.95 0 0 1 6.625 2.51c.507.449.968.947 1.375 1.489a10.003 10.003 0 0 1 1.714-1.776A9.953 9.953 0 0 1 24 25.132a9.953 9.953 0 0 1 6.286 2.223c.585-.361 1.137-.77 1.649-1.223l.064-.059V8.189A11.947 11.947 0 0 0 24 5.132zm-16 18c-2.186 0-4.235.585-6 1.607V9.132c1.671-1.256 3.749-2 6-2s4.329.745 6 2.001v15.606a11.935 11.935 0 0 0-6-1.607zm16 0c-2.186 0-4.235.585-6 1.607V9.133c1.671-1.256 3.748-2.001 6-2.001s4.329.744 6 2v15.607a11.935 11.935 0 0 0-6-1.607z"/></svg>