<svg xmlns="http://www.w3.org/2000/svg" width="32" height="32" viewBox="0 0 32 32"><path d="M26.629 31.132h-1.016l-8.741-8.742a2.176 2.176 0 0 1-.677.136l-4.258-.002c-.522 0-1.14-.383-1.376-.848l-3.256-6.514c-.235-.463-.123-1.152.248-1.519l.708-.708a.957.957 0 0 1 1.343 0l3.791 3.79a.95.95 0 0 0 1.341 0l1.737-1.738a.951.951 0 0 0 0-1.343l-3.79-3.79a.952.952 0 0 1 0-1.344l.711-.708c.369-.37 1.052-.479 1.52-.248l6.624 3.259c.468.229.962.851.962 1.374v4.259c0 .203-.167.438-.245.672L31 25.978v.783a4.376 4.376 0 0 1-4.371 4.371z"/></svg>