<svg xmlns="http://www.w3.org/2000/svg" width="32" height="32" viewBox="0 0 32 32"><path d="M17.196 25.764a59.694 59.694 0 0 1-.614-1.392.294.294 0 0 0-.405-.147l-5.479 2.824a.292.292 0 0 0-.11.422c1.765 2.676 3.345 3.977 4.831 3.977.575 0 1.131-.198 1.654-.588.847-.633 1.204-1.343 1.125-2.235-.072-.799-.482-1.709-1.001-2.861zm-6.255 1.708l.025.038-.025-.038zm.134.199l.011.017a.1.1 0 0 1-.011-.017zm.115.164l.024.034a1.001 1.001 0 0 1-.024-.034zm.136.194l.018.024a.188.188 0 0 0-.018-.024zm.121.167l.021.027-.021-.027zm.137.184l.021.028-.021-.028zm.129.17zm.135.173l.023.029-.023-.029zm.142.175l.005.006-.005-.006zm.129.155l.024.029a.74.74 0 0 1-.024-.029zm.277.318l.024.026-.024-.026zm.283.3l.022.023-.022-.023zm-.132-.136l.009.01-.009-.01zm2.855 1.618h.043-.043zm-2.571-1.33l.017.016-.017-.016zm.138.13l.019.018-.019-.018zm.149.136zm.146.124l.013.011-.013-.011zm.147.118zm.159.122l.002.001-.002-.001zm.137.096l.027.018-.027-.018zm.164.106l.003.002-.003-.002zm.137.082a.15.15 0 0 0 .028.015c-.009-.006-.018-.01-.028-.015zm.164.089a.12.12 0 0 0 .016.008.12.12 0 0 0-.016-.008zm.141.067l.027.012-.027-.012zm.163.07l.024.009-.024-.009zm.146.054l.024.009-.024-.009zm.159.048l.028.008-.028-.008zm.156.037l.017.004-.017-.004zm.154.028l.031.005-.031-.005zm.167.018h.004-.004zm1.108-.206l-.058.026.058-.026zm-.099.043l-.059.023.059-.023zm-.098.037l-.063.021.063-.021zm-.097.033l-.075.021a.82.82 0 0 1 .075-.021zm-.098.027a1.735 1.735 0 0 1-.098.023c.033-.006.065-.015.098-.023zm-.122.028l-.073.014c.024-.003.049-.009.073-.014zm-.11.02l-.06.008.06-.008zm-.101.012l-.056.006.056-.006zm-.099.008zm1.257-.455c.032-.023.066-.046.097-.071a2.185 2.185 0 0 1-.097.071zm-.392.228a.784.784 0 0 0 .058-.029l-.058.029zm.098-.05l.058-.032-.058.032zm.099-.054l.059-.037c-.02.012-.041.024-.059.037zm.097-.06c.023-.014.044-.029.066-.044l-.066.044zm7.905-13.621l-6.005-1.178a.297.297 0 0 0-.23.052.287.287 0 0 0-.117.205c-.052.474-.107.907-.16 1.327-.16 1.253-.286 2.242-.12 3.029.184.877.735 1.451 1.73 1.808.347.125.689.188 1.018.188 1.724 0 3.069-1.654 4.11-5.056.024-.08.014-.166-.029-.238s-.114-.122-.196-.137zm-4.686 5.006l.034.01-.034-.01zm.117.034l.041.011-.041-.011zm.115.029zm.113.024a.738.738 0 0 0 .046.008l-.046-.008zm.112.019l.047.006c-.016-.002-.032-.003-.047-.006zm.111.013l.047.004-.047-.004zm.108.007a.77.77 0 0 0 .048.002l-.048-.002zm.107.004h.056l-.038.001h-.017zm.094-.001l.064-.003a.685.685 0 0 1-.064.003zm.096-.006l.093-.009c-.031.004-.062.008-.093.009zm.113-.011c.025-.003.05-.006.074-.011l-.074.011zm.107-.017l.058-.011-.058.011zm.096-.018l.055-.013-.055.013zm.091-.023a.544.544 0 0 1 .054-.015l-.054.015zm.09-.026l.055-.018-.055.018zm.087-.03l.067-.026-.067.026zm.087-.033l.085-.037c-.028.013-.056.026-.085.037zm.105-.047l.064-.031a1.262 1.262 0 0 1-.064.031zm.093-.045a.662.662 0 0 0 .053-.029l-.053.029zm.085-.046l.052-.03c-.017.011-.035.02-.052.03zm.083-.049c.017-.011.035-.021.052-.033a.569.569 0 0 1-.052.033zm.081-.052l.056-.039-.056.039zm.078-.054zm.175-.135l.057-.049-.057.049zm.081-.07l.052-.046-.052.046zm.077-.07l.049-.047-.049.047zm.073-.07l.05-.051-.05.051zm.143-.149c.048-.052.095-.107.14-.162-.046.055-.093.108-.14.162zm-.07.075l.058-.062a3.29 3.29 0 0 0-.058.062zm1.943-3.848l.038-.123-.038.123zm-1.714 3.59l.05-.063c-.017.021-.034.041-.05.063zm.07-.09l.047-.059c-.015.02-.03.04-.047.059zm.069-.088l.046-.061-.046.061zm.066-.089l.048-.069-.048.069zm.064-.092l.061-.09-.061.09zm.063-.092c.021-.032.044-.066.064-.099a8.532 8.532 0 0 1-.064.099zm.071-.11c.018-.029.037-.057.054-.086a1.545 1.545 0 0 1-.054.086zm.071-.114l.044-.073a2.828 2.828 0 0 1-.044.073zm.063-.104l.041-.07-.041.07zm.06-.104l.041-.073-.041.073zm.058-.105l.044-.081-.044.081zm.057-.104c.038-.072.076-.144.113-.218a8.86 8.86 0 0 1-.113.218zm.125-.242l.042-.085-.042.085zm.058-.121l.037-.077-.037.077zm.055-.115l.034-.076-.034.076zm.053-.115l.035-.078-.035.078zm.052-.114l.04-.093a2 2 0 0 1-.04.093zm.05-.116l.05-.119-.05.119zm.054-.129l.044-.106-.044.106zm.059-.144l.032-.081-.032.081zm.05-.125l.029-.075-.029.075zm.048-.121l.029-.076a1.1 1.1 0 0 0-.029.076zm.045-.121l.03-.081-.03.081zm.045-.122l.035-.098-.035.098zm.044-.121l.043-.122-.043.122zm.055-.157l.031-.088-.031.088zm.047-.134l.026-.078-.026.078zm.042-.126zm.042-.125c.008-.026.015-.051.024-.076-.009.025-.016.05-.024.076zm.039-.125l.026-.082-.026.082zM15.749 22.5a24.39 24.39 0 0 1-.57-1.833c-.21-.781-.339-1.827-.476-2.934-.205-1.659-.438-3.54-1.007-4.989-.319-.813-.712-1.418-1.198-1.849-.562-.498-1.249-.749-2.041-.749-.535 0-1.132.116-1.774.344l-.004.001c-.034.012-.838.316-1.628 1.123-.727.742-1.582 2.069-1.521 4.175.091 3.166 1.583 5.977 2.697 7.816.156.259.341.582.553.956.2.351.426.747.669 1.161a.293.293 0 0 0 .388.112l5.768-2.974a.293.293 0 0 0 .142-.358zm-1.033-2.573l-.028-.158.028.158zm.18.816a27.968 27.968 0 0 1-.036-.14c.011.047.024.095.036.14zm-.042-.159l-.033-.138c.011.047.021.093.033.138zm-.038-.163a7.02 7.02 0 0 1-.031-.14l.031.14zm-.036-.166l-.03-.148.03.148zm-.032-.165zm-.064-.348l-.026-.155.026.155zm-.031-.187l-.024-.157.024.157zm-.03-.189l-.024-.165.024.165zm-.026-.183l-.023-.163.023.163zm-.027-.186l-.023-.166.023.166zm-.029-.207l-.021-.16.021.16zm-.027-.209a32.738 32.738 0 0 1-.021-.159l.021.159zm-.027-.211l-.017-.131.017.131zm-.028-.221l-.012-.098.012.098zm-.179-1.42v-.002.002zm-.029-.215zm-.092-.64l-.001-.009.001.009zm-.034-.213l-.002-.012a.05.05 0 0 1 .002.012zm-.036-.217l-.001-.005.001.005zm-.075-.421l-.001-.006.001.006zm-.04-.204l-.004-.017.004.017zm-.043-.21l-.004-.015.004.015zm-.047-.211l-.001-.002.001.002zm-.095-.396l-.004-.014a.074.074 0 0 0 .004.014zm-.052-.196l-.005-.02.005.02zm-.056-.199l-.005-.015.005.015zm-.12-.38l-.002-.007a.019.019 0 0 1 .002.007zm-.062-.177l-.007-.018a.096.096 0 0 0 .007.018zm-.068-.182a.12.12 0 0 0-.008-.02l.008.02zm-.074-.18l-.005-.012a.061.061 0 0 1 .005.012zm-.15-.332l-.006-.012.006.012zm-.081-.159l-.011-.02.011.02zm-.087-.158zm-.094-.155l-.005-.008.005.008zm-.094-.143l-.002-.004.002.004zm-.094-.131l-.011-.015.011.015zm-.104-.132a.282.282 0 0 1-.014-.018c.005.006.01.011.014.018zm-.11-.128l-.012-.014.012.014zm-.118-.123l-.004-.004.004.004zm-.112-.105l-.009-.008a.065.065 0 0 1 .009.008zm-.119-.101l-.017-.014.017.014zm-.131-.097l-.019-.014.019.014zm-.136-.091l-.014-.009.014.009zm-.278-.149l-.017-.008.017.008zm-.149-.063l-.023-.009.023.009zm-.159-.055l-.023-.007.023.007zm-.168-.046l-.014-.003.014.003zm-.166-.035l-.009-.002.009.002zm-.166-.025l-.024-.003.024.003zm-.182-.016l-.029-.002.029.002zm-.193-.006h-.027l.017-.001.009.001zm-.195.005zm-.176.013zm-.201.024zm-.216.037l-.021.004a.191.191 0 0 1 .021-.004zm-.202.042l-.022.005.022-.005zm-.215.055a.764.764 0 0 0-.038.011l.038-.011zm-.234.068zm17.378-6.083c-.558-2.031-1.762-3.051-2.676-3.547-.991-.54-1.849-.595-1.886-.597h-.004a7.322 7.322 0 0 0-.328-.008c-1.313 0-2.301.385-2.937 1.143-1.406 1.675-.857 4.798-.372 7.553.194 1.099.376 2.137.404 2.945.025.696.019 1.384-.017 2.102a.293.293 0 0 0 .238.303l6.328 1.242a.294.294 0 0 0 .341-.218c.14-.569.261-1.107.367-1.582.094-.418.175-.78.25-1.073.381-1.506.602-2.832.679-4.055.096-1.534-.031-2.911-.387-4.21zM21.674.743h-.048.048zm-.148-.002h-.03.03zm-2.546.844l-.018.017.018-.017zm2.273-.839l-.022.001.022-.001zm-.256.016a.088.088 0 0 0-.017.002.088.088 0 0 0 .017-.002zm-.241.027l-.014.002.014-.002zm-.23.039a.052.052 0 0 0-.011.002l.011-.002zm-.219.047l-.006.001.006-.001zm-.205.058l-.004.001.004-.001zm-.19.067l-.007.002A.019.019 0 0 1 19.912 1zm-.18.075l-.011.004.011-.004zm-.171.086a.091.091 0 0 0-.014.007l.014-.007zm-.16.093l-.015.01.015-.01zm-.149.102l-.017.012.017-.012zm-.141.11l-.017.014.017-.014zm-.253.246a.36.36 0 0 0-.018.02l.018-.02zm-.113.135l-.017.022.017-.022zm-.104.141l-.017.025.017-.025zm-.095.148l-.017.027.017-.027zm-.087.156a.28.28 0 0 0-.015.03l.015-.03zm-.079.162l-.014.032.014-.032zm-.071.169l-.013.034.013-.034zm-.064.174l-.012.037.012-.037zm-.055.18a.764.764 0 0 0-.011.038c.003-.013.006-.026.011-.038zm-.05.186l-.009.041.009-.041zm-.041.19l-.009.042.009-.042zm-.035.196l-.007.044.007-.044zm-.03.201l-.006.045.006-.045zm-.023.205l-.005.046.005-.046zm-.017.208l-.003.048.003-.048zm-.012.214a.77.77 0 0 0-.002.048l.002-.048zm-.007.216l-.001.05.001-.05zm-.002.22zm.225 2.511l.011.074-.011-.074zm-.222-2.295l.002.056-.002-.056zm.007.219l.003.062-.003-.062zm.011.223l.004.066-.004-.066zm.015.225l.006.071a.85.85 0 0 1-.006-.071zm.018.227l.007.074-.007-.074zm.022.231l.008.074-.008-.074zm.024.232l.009.077-.009-.077zm.028.233l.009.076-.009-.076zm.03.235l.01.074-.01-.074zm.032.234c.003.024.006.049.011.074a1.642 1.642 0 0 1-.011-.074zm.224 1.399c.084.485.169.96.247 1.417-.078-.456-.163-.932-.247-1.417zm-.154-.928l.012.079-.012-.079zm.037.234l.014.085-.014-.085zm.038.234l.015.09-.015-.09zm.04.231l.023.134-.023-.134zm.323 1.873c.011.068.023.134.032.2l-.032-.2zm-.037-.223l.035.21-.035-.21zm.189 1.26zm-.117-.82l.03.194-.03-.194zm.033.211l.028.191-.028-.191zm.031.209l.026.187-.026-.187zm.029.202c.009.062.016.123.023.183l-.023-.183zm.102 1.108zm-.009-.174l-.012-.172.012.172zm-.011-.18l-.015-.175.015.175zm-.017-.185z"/></svg>