<svg xmlns="http://www.w3.org/2000/svg" width="32" height="32" viewBox="0 0 32 32"><path d="M15.793.634C7.233.748.387 7.779.501 16.339.616 24.9 7.647 31.745 16.207 31.63c8.56-.113 15.405-7.146 15.292-15.705C31.384 7.364 24.352.519 15.793.634zm.026 2.021a13.409 13.409 0 0 1 6.402 1.519l-2.086 3.477c-1.248-.61-2.652-.954-4.135-.954s-2.887.343-4.136.954L9.779 4.176a13.42 13.42 0 0 1 6.04-1.521zm-8.3 17.613l-3.474 2.085a13.421 13.421 0 0 1-1.521-6.041 13.42 13.42 0 0 1 1.519-6.401l3.477 2.086c-.611 1.248-.955 2.652-.955 4.135s.344 2.887.954 4.136zm8.662 9.341a13.406 13.406 0 0 1-6.402-1.519l2.086-3.477a9.411 9.411 0 0 0 4.136.953 9.393 9.393 0 0 0 4.135-.953l2.085 3.475a13.44 13.44 0 0 1-6.04 1.521zM16 23.545c-4.094 0-7.413-3.318-7.413-7.413S11.906 8.719 16 8.719a7.413 7.413 0 0 1 0 14.826zm8.48-3.277a9.395 9.395 0 0 0 .954-4.136 9.394 9.394 0 0 0-.954-4.135l3.476-2.085a13.42 13.42 0 0 1 1.521 6.04 13.409 13.409 0 0 1-1.519 6.402l-3.478-2.086z"/></svg>