<svg xmlns="http://www.w3.org/2000/svg" width="32" height="32" viewBox="0 0 32 32"><path d="M26 29.131V14.562l2-2v16.569a3.009 3.009 0 0 1-3 3.001H3c-1.65 0-3-1.35-3-3.001V3.132c0-1.65 1.35-3 3-3h20.086l-6 6H2v22.999c0 .543.458 1 1 1h22c.542 0 1-.457 1-1zM7.545 19.136l5.452 5.456-.487.49-.038-.006c-.208.156-.491.297-.718.326l-5.256.668c-.273.035-.468-.161-.433-.434l.667-5.254c.034-.268.216-.635.405-.832v-.004l.008-.008.004-.006.043-.042.002-.002.351-.352zM31.471 3.549a1.82 1.82 0 0 1 .001 2.566L28.9 8.685l-5.451-5.451L26.017.666a1.823 1.823 0 0 1 2.575-.004l2.879 2.887zm-9.46 1.126l5.454 5.454-13.567 13.563-5.453-5.454z"/></svg>