<svg xmlns="http://www.w3.org/2000/svg" width="32" height="32" viewBox="0 0 32 32"><path d="M30.568 18.05l-12-11.01c2.787-2.663 5.723-4.526 7.939-5.026.217-.049.387-.219.455-.433s.01-.456-.141-.623a1.705 1.705 0 0 0-.139-.142c-.493-.454-1.155-.684-1.961-.684-2.213 0-5.451 1.792-8.548 4.71l-.212-.195c-.651-.595-1.753-.546-2.348.101l-.783.855a1.664 1.664 0 0 0 .102 2.348l.211.193a25.699 25.699 0 0 0-2.355 3.514h-4.53L0 32.132h4.799l1.458-5.255h5.863l1.579 5.255h4.982l-5.633-18.165a28.802 28.802 0 0 1 2.49-3.626l11.999 11.01a1.664 1.664 0 0 0 2.348-.099l.785-.854a1.667 1.667 0 0 0-.102-2.348zM6.926 23.414l1.215-4.344c.333-1.185.638-2.734.941-3.949h.061c.304 1.215.668 2.735 1.033 3.949l1.276 4.344H6.926z"/></svg>