<svg xmlns="http://www.w3.org/2000/svg" width="32" height="32" viewBox="0 0 32 32"><path d="M15.875 19.497v3.969H9.922v5.953H5.953v-5.953H0v-3.969h5.953v-5.954h3.969v5.954zm14.887 8.889h-2.074C27.214 24.129 20.95 6.113 19.911 4.59c-1.031-1.516-2.387-1.803-3.178-1.729-.793-.073-2.146.215-3.179 1.729-.291.426-.992 2.147-1.882 4.496v6.946l.086.01h10.244c.496 1.379 1.008 2.815 1.521 4.261h-5.897v3.164h7.014c.488 1.39.963 2.747 1.408 4.025H11.672v1.962h-.005v1.409h19.095a1.238 1.238 0 0 0 0-2.477zM12.609 12.878a227.909 227.909 0 0 1 1.979-5.261h4.286a224.322 224.322 0 0 1 1.98 5.261h-8.245z"/></svg>