<svg xmlns="http://www.w3.org/2000/svg" viewBox="0 0 64 64"><path d="M42.1 4.4c1.1 0 2 .9 2 2s-.9 2-2 2h-2v13.2c0 2.2.9 5.5 2 7.3l11.7 19.5c1.1 1.9 1.2 5 .3 6.9l-.4.8c-1 1.9-3.5 3.5-5.7 3.5H16.5c-2.2 0-4.7-1.6-5.7-3.5l-.4-.8c-1-1.9-.9-5.1.3-6.9l11.7-19.5c1.1-1.9 2-5.2 2-7.3V8.3h-2c-1.1 0-2-.9-2-2s.9-2 2-2h13.8l5.9.1m0-4.2H22.4C19 .2 16.3 3 16.3 6.3c0 2.6 1.6 4.9 3.9 5.7v9.5c0 1.4-.7 4-1.4 5.2L7 46.2c-1.9 3.1-2 7.7-.4 10.9l.4.9c1.7 3.4 5.7 5.8 9.4 5.8H48c3.8 0 7.8-2.5 9.4-5.8l.4-.8c1.6-3.2 1.4-7.8-.4-10.9L45.8 26.7c-.7-1.2-1.4-3.8-1.4-5.2V12c2.3-.9 3.9-3.1 3.9-5.7C48.3 3 45.5.2 42.1.2z"/><path d="M50.5 49.1l-9.8-15.6-1.7-3c-1.1-1.9-2-5.2-2-7.3V8.3h-9.4v14.9c0 2.2-.9 5.5-2 7.3l-1.8 2.9L14 49.1s-.8 1.6-.8 2.5c0 2.1 1.6 3.7 3.6 3.9h31c2-.2 3.6-1.9 3.6-3.9 0-.9-.9-2.5-.9-2.5z"/></svg>