<svg xmlns="http://www.w3.org/2000/svg" width="32" height="32" viewBox="0 0 32 32"><path d="M21.214 2.232h-9.928c-.546 0-.993.446-.993.993s.447.993.993.993h.993v6.668c0 1.092-.461 2.752-1.024 3.687L5.36 24.362c-.564.935-.625 2.5-.136 3.478l.209.418c.489.977 1.782 1.776 2.874 1.776h15.887c1.091 0 2.385-.798 2.873-1.776l.209-.418c.489-.978.428-2.543-.136-3.478l-5.895-9.789c-.563-.935-1.024-2.595-1.024-3.687V4.219h.993a.995.995 0 0 0 .993-.993.995.995 0 0 0-.993-.993zm0-2.1a3.094 3.094 0 0 1 3.092 3.093 3.097 3.097 0 0 1-1.986 2.888v4.771c0 .708.359 1.998.723 2.603l5.895 9.788c.94 1.559 1.03 3.871.217 5.5l-.21.419c-.851 1.704-2.851 2.938-4.752 2.938H8.307c-1.903 0-3.901-1.234-4.754-2.939l-.208-.417c-.815-1.629-.724-3.942.215-5.5l5.895-9.79c.365-.604.723-1.894.723-2.602V6.113a3.099 3.099 0 0 1-1.986-2.888A3.097 3.097 0 0 1 11.285.132h9.929zm4.244 24.594s.42.793.422 1.259a1.986 1.986 0 0 1-1.811 1.974l-.007.02H8.441l-.008-.02a1.985 1.985 0 0 1-1.81-1.974c0-.466.419-1.259.419-1.259l4.929-7.866h8.558l4.929 7.866z"/></svg>