<svg xmlns="http://www.w3.org/2000/svg" width="32" height="32" viewBox="0 0 32 32"><path d="M4.75 30.862l2.907-3.369h18.39c-.445-1.278-.92-2.635-1.408-4.025H11.181l2.769-3.164h9.573c-.513-1.446-1.025-2.882-1.521-4.261h-5.766l-3.614-3.164h8.233a224.322 224.322 0 0 0-1.98-5.261h-4.286a224.988 224.988 0 0 0-1.977 5.252l-.19-.167-1.505-1.318-.077-.071c1.273-3.447 2.337-6.172 2.714-6.724 1.033-1.514 2.386-1.802 3.179-1.729.791-.074 2.147.213 3.178 1.729 1.039 1.523 7.303 19.539 8.777 23.796h2.074a1.239 1.239 0 0 1 0 2.476H4.75zm.943-4.164L0 22.428l2.492-3.322 2.612 1.959 6-6.858 3.126 2.737-8.537 9.754z"/></svg>