<svg xmlns="http://www.w3.org/2000/svg" width="32" height="32" viewBox="0 0 32 32"><path d="M21.807 10.352L11.658 20.501a1.436 1.436 0 0 0 2.03 2.029l12.181-12.177c1.679-1.678 1.679-4.41 0-6.089s-4.411-1.679-6.09 0L6.99 17.052c-.008.007-.019.016-.028.026-2.783 2.782-2.783 7.31 0 10.093s7.313 2.783 10.096 0l.026-.026h.001l8.729-8.728 2.03 2.028-8.73 8.728c-.01.008-.017.017-.026.027-3.91 3.907-10.248 3.907-14.156 0-3.908-3.908-3.908-10.244 0-14.153a.318.318 0 0 0 .027-.026l-.001-.001L17.749 2.236a7.174 7.174 0 0 1 10.149 0 7.171 7.171 0 0 1 0 10.147L15.717 24.561a4.306 4.306 0 1 1-6.09-6.089L19.778 8.324l2.029 2.028z"/></svg>