<svg xmlns="http://www.w3.org/2000/svg" width="32" height="32" viewBox="0 0 32 32"><path d="M21.842 6.098c-2.175 0-4.187.693-5.841 1.86a10.1 10.1 0 0 0-5.841-1.86C4.558 6.098.001 10.656.001 16.257s4.557 10.16 10.159 10.16c2.174 0 4.187-.692 5.841-1.861a10.089 10.089 0 0 0 5.841 1.861c5.601 0 10.158-4.558 10.158-10.16 0-5.601-4.558-10.159-10.158-10.159zm-5.841 14.205c-.799-1.149-1.271-2.542-1.271-4.045s.472-2.896 1.271-4.045c.799 1.148 1.27 2.542 1.27 4.045s-.471 2.895-1.27 4.045zM3.048 16.257a7.118 7.118 0 0 1 7.111-7.111c1.313 0 2.54.364 3.596.986-1.294 1.705-2.073 3.823-2.073 6.125s.778 4.419 2.073 6.125a7.057 7.057 0 0 1-3.596.987c-3.921 0-7.111-3.19-7.111-7.112zm18.794 7.112a7.06 7.06 0 0 1-3.596-.987 10.089 10.089 0 0 0 0-12.25 7.066 7.066 0 0 1 3.596-.986c3.92 0 7.111 3.189 7.111 7.111s-3.191 7.112-7.111 7.112z"/></svg>