<svg xmlns="http://www.w3.org/2000/svg" width="32" height="32" viewBox="0 0 32 32"><path d="M4 3.936c0-2.1 6.268-3.803 14-3.803s14 1.703 14 3.803c0 2.1-6.268 3.803-14 3.803S4 6.036 4 3.936zm14 8.196c6.521 0 11.984-.957 13.541-2.25.289.4.459.818.459 1.25 0 2.76-6.268 5-14 5s-14-2.24-14-5c0-.432.17-.85.459-1.25 1.557 1.293 7.02 2.25 13.541 2.25zm0 16c6.521 0 11.984-.957 13.541-2.25.289.4.459.818.459 1.25 0 2.76-6.268 5-14 5-2.15 0-4.18-.178-6-.488v-3.512h6zm0-7.75c6.521 0 11.984-.957 13.541-2.25.289.4.459.818.459 1.25 0 2.76-6.268 5-14 5v-4zm-2 5.75h-6v6H6v-6H0v-4h6v-6h4v6h6z"/></svg>