<svg xmlns="http://www.w3.org/2000/svg" width="32" height="32" viewBox="0 0 32 32"><path d="M26.905 22.586c-.051.612.663 1.674.665 2.29.001.86-1.372 1.653-1.697 2.286-.221.428.039 1.476-.148 1.919-.327.771-1.709 1.974-2.509 2.214-2.544.763-10.625 0-10.625 0l-8.824-1.182V18.071l2.872-.001c.848-.194 2.62-1.991 4.815-7.583.357-.909 1.034-1.433 1.808-2.029 1.288-.994 2.25-2.389 2.574-7.415.044-.693 2.212-.59 3.394.959.967 1.266 1.096 3.734.331 5.594-.52 1.27-2.415 4.21-1.733 5.399 0 0 6.968-.26 8.338.296.863.349 2.12 2.167 2.065 3.097-.03.512-.966 1.265-1.033 1.771-.084.639 1.032 1.717 1.035 2.362.001.613-1.277 1.453-1.328 2.065z"/></svg>