<svg xmlns="http://www.w3.org/2000/svg" width="32" height="32" viewBox="0 0 32 32"><path d="M19.152 22.013l-.911 3.286h-3.002l3.913-12.804h3.8l3.971 12.804h-3.116l-.987-3.286h-3.668zm3.249-2.166l-.798-2.717c-.229-.76-.456-1.709-.646-2.47h-.037c-.19.76-.381 1.729-.59 2.47l-.76 2.717h2.831zm-11.904-5.34l4.836 2.792-4.836 2.792zm.817 3.792H4.331v-7.997h2v5.997h4.983zM29.867 6c1.101 0 2 .9 1.999 2v22c0 1.101-.899 2-2 2H11.868c-1.099 0-2-.899-2-2v-4H1.867c-1.1 0-2-.9-2-2V2c0-1.1.9-2 2-2h20c1.1 0 2 .9 2 2v4h6zM12.869 28.999h16v-20H9.868s-.45-2.974 2.002-3c3.215-.035 8.998 0 8.998 0v-3h-18v20H12.87zm.048-18.048H9.869V9l2.001-2.014h1.047z"/></svg>