<svg xmlns="http://www.w3.org/2000/svg" width="32" height="32" viewBox="0 0 32 32"><path d="M17.292 15.687l-1.05-1.052-.198-.196c-.217-.217-.646-.396-.954-.396H.838a.842.842 0 0 0-.838.838V31.09c0 .46.377.838.838.838h16.209a.841.841 0 0 0 .838-.838V16.838c0-.308-.177-.738-.395-.954l-.198-.196zM13.91 29.444a.498.498 0 0 1-.497.497H4.47a.498.498 0 0 1-.497-.497v-4.968c0-.274.223-.497.497-.497h8.943c.274 0 .497.223.497.497v4.968zm0-7.949a.498.498 0 0 1-.497.497H4.47a.498.498 0 0 1-.497-.497v-4.968c0-.273.223-.497.497-.497h8.943c.274 0 .497.223.497.497v4.968zm-3.976-4.223h1.988v3.477H9.934zM28.238 6.324l-4.437-4.436C22.836.922 20.927.132 19.561.132H4.657a2.49 2.49 0 0 0-2.484 2.484v9.766H4.16V2.616c0-.27.227-.497.497-.497h14.904c.151 0 .319.019.497.052v7.896h7.897c.034.178.052.348.052.497v18.878c0 .27-.227.497-.497.497h-7.635v1.988h7.636a2.493 2.493 0 0 0 2.485-2.485V10.564c0-1.367-.791-3.275-1.756-4.24zm-6.192 1.757V3.006c.135.094.255.19.352.288l4.436 4.436c.096.098.192.216.288.351h-5.075z"/></svg>