<svg xmlns="http://www.w3.org/2000/svg" width="32" height="32" viewBox="0 0 32 32"><path d="M29.438 6.402l-4.309-4.308c-.986-.988-2.927-1.792-4.326-1.792H6.33A2.711 2.711 0 0 0 3.622 3.01v6.551a9.322 9.322 0 0 1 2.523-1.148V3.01c0-.097.089-.186.186-.186h14.473c.056 0 .118.004.185.01v7.708h7.709c.007.067.01.129.01.186v18.331a.194.194 0 0 1-.186.186h-5.203a3.16 3.16 0 0 1-1.858 2.523h7.061a2.711 2.711 0 0 0 2.708-2.708V10.729c-.001-1.397-.804-3.339-1.793-4.327zm-5.926 1.619V4.043l3.978 3.978h-3.978zm-5.886 22.888l-.014-.015-.014-.016-1.387-1.63H6.33a.194.194 0 0 1-.186-.186v-2.636a9.322 9.322 0 0 1-2.523-1.148v3.784a2.711 2.711 0 0 0 2.708 2.708h12.489a3.496 3.496 0 0 1-1.194-.861zm2.811-.368c.068-.011.134-.031.201-.051.044-.013.089-.022.131-.038.072-.028.14-.066.208-.103.034-.019.07-.033.103-.054.099-.065.194-.139.282-.226.723-.724.654-1.909-.152-2.635l-4.983-4.238a3.113 3.113 0 0 0-.382-.295c-.043-.028-.086-.046-.13-.071-.085-.049-.17-.099-.253-.135-.051-.022-.1-.033-.15-.051-.074-.026-.148-.053-.22-.069-.052-.011-.1-.012-.149-.018-.076-.009-.155-.022-.226-.018A7.889 7.889 0 0 0 8.715 9.531a7.89 7.89 0 1 0 5.118 13.891c-.02.445.191.995.656 1.511l4.238 4.983c.094.105.197.195.304.275.036.027.076.045.113.069.074.047.147.095.225.131.046.021.095.035.142.052.072.027.144.054.218.071.052.012.104.017.156.025.071.011.142.021.213.023.065.002.129-.003.194-.009.048-.003.097-.005.144-.013zM8.715 22.678a5.259 5.259 0 1 1 0-10.518 5.259 5.259 0 0 1 0 10.518z"/></svg>