<svg xmlns="http://www.w3.org/2000/svg" width="32" height="32" viewBox="0 0 32 32"><path d="M31.36 18.253a16.111 16.111 0 0 0 0-4.242l-2.402-.199a13.418 13.418 0 0 0-1.131-3.544l1.826-1.595a15.84 15.84 0 0 0-2.456-3.431l-2.059 1.273a13.135 13.135 0 0 0-2.963-2.193l.556-2.381a15.152 15.152 0 0 0-3.97-1.31l-.93 2.26a12.878 12.878 0 0 0-3.663.001l-.93-2.26c-1.397.255-2.73.701-3.97 1.311l.555 2.38a13.246 13.246 0 0 0-2.964 2.193L4.801 5.243a15.803 15.803 0 0 0-2.455 3.431l1.826 1.595a13.428 13.428 0 0 0-1.13 3.544l-2.402.199a16.107 16.107 0 0 0 0 4.241l2.401.198c.216 1.25.599 2.44 1.13 3.545l-1.826 1.595a15.77 15.77 0 0 0 2.456 3.429l2.059-1.273a13.07 13.07 0 0 0 2.963 2.192l-.555 2.382a15.176 15.176 0 0 0 3.97 1.31l.93-2.26a12.868 12.868 0 0 0 3.665 0l.929 2.262c1.398-.255 2.73-.7 3.971-1.309l-.556-2.382a13.208 13.208 0 0 0 2.964-2.193l2.059 1.273a15.849 15.849 0 0 0 2.455-3.429l-1.826-1.596a13.435 13.435 0 0 0 1.131-3.543l2.4-.201zM16 20.692c-2.478 0-4.487-2.042-4.487-4.56 0-2.519 2.01-4.56 4.487-4.56s4.487 2.042 4.487 4.56-2.009 4.56-4.487 4.56z"/></svg>