<svg xmlns="http://www.w3.org/2000/svg" width="32" height="32" viewBox="0 0 32 32"><path d="M30.466 12.822a1.943 1.943 0 0 1-.001 2.741l-.569.569c-4.882 4.882-6.616 15.499-16.303 15.499S1.968 21.944 1.968 18.069V8.382c0-1.065.87-1.938 1.936-1.938s1.938.873 1.938 1.938v5.813a.97.97 0 0 0 1.938 0V4.507c0-1.065.868-1.938 1.934-1.938s1.938.873 1.938 1.938v9.688a.97.97 0 0 0 1.938 0V2.57c0-1.066.872-1.938 1.938-1.938s1.938.873 1.938 1.938v11.625a.97.97 0 0 0 1.938 0V4.507c0-1.066.872-1.938 1.938-1.938s1.938.873 1.938 1.938v9.688c0 2.811 2.27.802 3.603-.53l.843-.843a1.942 1.942 0 0 1 2.74 0z"/></svg>