<svg xmlns="http://www.w3.org/2000/svg" width="32" height="32" viewBox="0 0 32 32"><path d="M30.538 27.011l-7.343-6.245c-.76-.684-1.571-.997-2.227-.967a11.577 11.577 0 0 0 2.781-7.543C23.75 5.837 18.545.632 12.125.632 5.706.632.5 5.837.5 12.256c0 6.42 5.205 11.625 11.625 11.625 2.879 0 5.514-1.048 7.544-2.78-.03.655.282 1.467.967 2.227l6.245 7.343c1.069 1.188 2.815 1.289 3.882.224 1.065-1.068.965-2.815-.225-3.884zm-18.413-7.005a7.75 7.75 0 1 1 0-15.5 7.75 7.75 0 0 1 0 15.5zm1.833-13.25h-3.667v3.667H6.625v3.667h3.667v3.667h3.667V14.09h3.667v-3.667h-3.667V6.756z"/></svg>