<svg xmlns="http://www.w3.org/2000/svg" width="32" height="32" viewBox="0 0 32 32"><path d="M28.906 9.181a1.078 1.078 0 0 0-1.472.386l-2.58 4.418-4.264-.035-3.036-3.352 1.53-4.759a1.075 1.075 0 1 0-2.048-.658l-1.531 4.757-4.276.922-3.356-3.704A1.075 1.075 0 1 0 6.279 8.6l3.354 3.704-1.339 4.166-4.884 1.053a1.074 1.074 0 0 0-.825 1.278 1.078 1.078 0 0 0 1.278.826l4.883-1.054 2.939 3.241-1.53 4.757a1.072 1.072 0 0 0 .695 1.353 1.08 1.08 0 0 0 1.354-.695l1.53-4.757 4.481-.966 4.287 2.441c.163.094.348.14.532.14.202 0 .403-.056.579-.17l4.195-2.677c.41-.261.593-.761.449-1.226l-1.533-4.965 2.569-4.398a1.073 1.073 0 0 0-.387-1.47zm-11.35 10.268l-4.276.921-2.937-3.241 1.341-4.168 4.276-.921 2.937 3.244-1.341 4.165zm5.445 2.309l-3.32-1.893 1.211-3.761 3.911.032 1.154 3.734-2.956 1.888z"/></svg>