<svg xmlns="http://www.w3.org/2000/svg" width="32" height="32" viewBox="0 0 32 32"><path d="M18.546 7.597S20.8 7.136 20.8 9.168v.602c0 .182.402.434.53.561l1.544 1.398c.13.125.447.278.619.334l.808.257c.173.056.435.21.563.336l.244.234-.113.118a.491.491 0 0 0 .002.694l.7.698a.49.49 0 0 0 .696 0l1.63-1.626a.499.499 0 0 0 0-.698l-.698-.7a.499.499 0 0 0-.698 0l-.117.118-.234-.234a1.677 1.677 0 0 1-.334-.542l-.258-.774a1.025 1.025 0 0 0-.062-.148c-.002-.003.031-.006.028-.009-.023-.049-.05-.098-.05-.148v-.075h-.07c-.057 0-.122-.14-.182-.198l-1.859-1.844a1.412 1.412 0 0 0-.551-.302s-3.551-.846-4.481.085c0-.001-.091.263.089.292zm-3.261 3.567h5.393c-.291-.8-.678-.939-.678-1.394v-.206h-7.2v1.066l.054.534h2.431zm3.649 2.46c-.303.301-.697.74-1.02.74h2.867c.818-.8 1.8-1.688 1.813-1.702l-1.34-1.338-2.32 2.3zm9.059.686l-.843.937c-.077.076-.111.024-.198.083.158.314.339.634.433.634H5.519c.177 0 .511-.878.874-1.604-.495-.142-.942-.432-1.176-.892l-.307-.064c-.684 1.342-1.71 2.8-1.71 2.8v8.194c0 .438.88.366 1.317.366h23.87c.437 0 .414.072.414-.366v-8.194c-.001 0-.278-.873-.808-1.894zM21.6 20.288v.01c0 1.214-1.084 2.066-2.298 2.066h-5.926c-1.214 0-2.176-.851-2.176-2.066v-1.134c0-.8 2.4-.8 2.4 0v.8h5.6v-.8c0-.8 2.4-.8 2.4 0v1.124zM5.841 12.09l.45.902c.075.146.24.382.411.436.057.018.114.136.169.136h1.794c.086 0 .186-.234.285-.268l1.282 1.068h4.441s-3.471-3.414-3.471-3.453V8.993c-.001-.22-.149-.478-.346-.574L8.119 7.051c-.197-.099-.481-.043-.637.113l-.298.316a.443.443 0 0 0 0 .6l1.6 1.597c.155.154.154.341-.002.498l-.731.731a.403.403 0 0 1-.566 0L5.888 9.309a.404.404 0 0 0-.566 0l-.298.299a.59.59 0 0 0-.104.639l.921 1.843z"/></svg>