<svg xmlns="http://www.w3.org/2000/svg" viewBox="0 0 85 85" id="Layer_1"><style id="style62">.st2{fill:#706f6f}</style><g id="Layer_2_1_"><path id="path75" d="M85 22.5c-1.5-.8-3-1.1-4.5-1.1-4.1 0-8 2.8-10.8 7.4 1.7 2.9 3.1 6.5 3.9 10.5 1.8-8.4 6.1-14.7 11.4-16.8zm-60.3.8c-1.9 1.3-3.6 3.1-5 5.5 1.7 2.9 3.1 6.5 3.9 10.5 1.1-5.3 3.3-9.8 6.1-12.9-1.6-1.5-3.2-2.6-5-3.1zM1 65.6c1.5.8 3 1.1 4.5 1.1 4.1 0 8-2.8 10.8-7.4-1.7-2.9-3.1-6.5-3.9-10.5-1.7 8.4-6 14.7-11.4 16.8zm35.3-.8c1.9-1.3 3.6-3.1 5-5.5-1.7-2.9-3.1-6.5-3.9-10.5-1.1 5.3-3.3 9.8-6.1 12.9 1.6 1.5 3.3 2.6 5 3.1z"/><path id="path77" d="M47.1 44.1c-.5-5.3-1.9-10.1-3.9-13.9-.1-.2-.3-.5-.4-.7-.1-.2-.3-.5-.4-.7-1.4-2.3-3.1-4.2-5-5.5-.2-.1-.4-.3-.6-.4-.2-.1-.5-.3-.7-.4-.3-.2-.7-.3-1-.5H35c-.3-.1-.6-.2-1-.3h-.1c-.3-.1-.7-.1-1-.2h-.2c-.3 0-.7-.1-1-.1s-.7 0-1 .1h-.2c-.3 0-.7.1-1 .2h-.1c-.3.1-.6.2-1 .3h-.1c-.3.1-.7.3-1 .5 1.6.6 3.1 1.6 4.5 2.9.2.1.3.3.5.5.1.2.3.3.4.5 2.8 3.1 4.9 7.6 6.1 12.9.1.6.3 1.3.4 2 .1.9.3 1.8.4 2.7.5 5.3 1.9 10.1 3.9 13.9.1.2.3.5.4.7.1.2.3.5.4.7 1.4 2.3 3.1 4.2 5 5.5.2.1.4.3.6.4.2.1.5.3.7.4.3.2.7.3 1 .5h.1c.3.1.7.2 1 .3h.1c.3.1.7.1 1 .2h.2c.3 0 .7.1 1 .1s.7 0 1-.1h.2c.3 0 .7-.1 1-.2h.1c.3-.1.6-.2 1-.3h.1c.3-.1.7-.3 1-.5-1.6-.6-3.1-1.6-4.5-2.9-.2-.1-.3-.3-.4-.5-.2-.2-.3-.3-.4-.5-2.8-3.1-4.9-7.6-6.1-12.9-.1-.6-.3-1.3-.4-2-.3-.9-.5-1.8-.5-2.7zm-25.2 0c-.5-5.4-1.9-10.1-4-13.9-.1-.2-.3-.5-.4-.7-.1-.2-.3-.5-.4-.7-2.8-4.6-6.7-7.4-10.8-7.4-1.5 0-3 .4-4.5 1.1 5.4 2.1 9.6 8.4 11.4 16.8.1.6.3 1.3.4 2 .1.9.3 1.8.4 2.7.5 5.3 1.9 10.1 3.9 13.9.1.2.3.5.4.7.1.2.3.5.4.7 1.4 2.3 3.1 4.2 5 5.5.2.1.4.3.6.4.2.1.5.3.7.4.3.2.7.3 1 .5h.1c.3.1.6.2 1 .3h.1c.3.1.7.1 1 .2h.2c.3 0 .7.1 1 .1s.7 0 1-.1h.2c.3 0 .7-.1 1-.2h.1c.3-.1.7-.2 1-.3h.1c.3-.1.7-.3 1-.5-1.6-.6-3.1-1.6-4.5-2.9-.2-.1-.3-.3-.5-.5-.1-.2-.3-.3-.4-.5-2.8-3.1-4.9-7.6-6.1-12.9-.1-.6-.3-1.3-.4-2 .2-.9.1-1.8 0-2.7zM50 23.3c-1.9 1.3-3.6 3.2-5 5.5 1.7 2.9 3.1 6.5 3.9 10.5C50 34 52.2 29.5 55 26.4c-1.6-1.5-3.3-2.6-5-3.1z"/><path id="path79" d="M61.6 64.8c1.9-1.3 3.6-3.1 5-5.5-1.7-2.9-3.1-6.5-3.9-10.5-1.1 5.3-3.3 9.8-6.1 12.9 1.6 1.5 3.2 2.6 5 3.1zM72.3 44c-.5-5.3-1.9-10.1-3.9-13.9-.1-.2-.3-.5-.4-.7-.1-.2-.3-.5-.4-.7-1.4-2.3-3.1-4.2-5-5.5-.2-.1-.4-.3-.6-.4-.2-.1-.5-.3-.7-.4-.3-.2-.7-.3-1-.5h-.1c-.3-.1-.6-.2-1-.3h-.1c-.3-.1-.7-.1-1-.2h-.2c-.3 0-.7-.1-1-.1s-.7 0-1 .1h-.2c-.3 0-.7.1-1 .2h-.1c-.3.1-.6.2-1 .3h-.1c-.3.1-.7.3-1 .5 1.6.6 3.1 1.6 4.5 2.9.2.1.3.3.5.5.1.2.3.3.4.5 2.8 3.1 4.9 7.6 6.1 12.9.1.6.3 1.3.4 2 .1.9.3 1.8.4 2.7.5 5.3 1.9 10.1 3.9 13.9.1.2.3.5.4.7.1.2.3.5.4.7 1.4 2.3 3.1 4.2 5 5.5.2.1.4.3.6.4.2.1.5.3.7.4.3.2.7.3 1 .5h.1c.3.1.7.2 1 .3h.1c.3.1.7.1 1 .2h.2c.3 0 .7.1 1 .1.3 0 .7 0 1-.1h.2c.3 0 .7-.1 1-.2h.1c.3-.1.7-.2 1-.3h.1c.3-.1.7-.3 1-.5-1.6-.6-3.1-1.6-4.5-2.9-.2-.1-.3-.3-.4-.5-.1-.2-.3-.3-.4-.5-2.8-3.1-4.9-7.6-6.1-12.9-.1-.6-.3-1.3-.4-2-.3-.8-.4-1.7-.5-2.7 0 .1 0 0 0 0z"/></g></svg>