<svg id="Layer_1" xmlns="http://www.w3.org/2000/svg" viewBox="0 0 85 85"><style>.st0{display:none}.st1{display:inline}.st2{fill:#706f6f}</style><g id="Layer_1_1_" class="st0"><g class="st1"><path class="st2" d="M65.9 46.3c-1.4 5.5-2.7 10.1-3.9 14.2C70.1 85.7 75 80 83.1 81.4c-.1-.1-8.6-3.9-17.2-35.1zM44.4 9.8c3.2 4.9 7.3 13.7 11.5 28.8 1.4-5.5 2.7-10.1 3.9-14.2-3.9-11.9-7-17-10.1-19.1-1.2.8-2.4 1.7-3.6 2.7-.4.4-1 1-1.7 1.8z"/><path d="M64.8 42.4c4.4-17.2 8.9-26.9 12.3-32.3.2-.3.4-.5.5-.8C80.9 4.5 83 3.6 83 3.6c-2.1.4-4 .2-5.8.3-1.3.1-2.6.2-3.9.8-.4.2-.8.4-1.3.7-.7.5-1.4 1.2-2.2 2-.3.3-.6.7-.8 1.1-1.2 1.6-2.3 3.7-3.6 6.5-1.4 3.3-2.9 7.5-4.6 12.9-1.2 3.8-2.4 8.3-3.7 13.4-.1.4-.2.7-.3 1.1-.6 2.2-1.1 4.3-1.7 6.3-.5 1.6-.9 3.1-1.4 4.6-.4 1.4-.9 2.6-1.3 3.9-.3 1-.7 1.9-1 2.8-1.7 4.7-3.4 8.4-5 11.3-.3.5-.6 1-.8 1.5-1.1 1.9-2.1 3.4-3 4.5-1.3 1.7-2.3 2.7-3 3.3-.7.6-1.1.8-1.1.8 2.7-.5 5.1-.1 7.3-.4.2 0 .4 0 .6.1 0 0-.1-.1-.2-.1.6-.1 1.1-.2 1.7-.5 3.9-1.5 7.7-6.5 12.8-23.4 1.2-3.8 2.4-8.3 3.7-13.4.3-.5.4-.9.4-1.3z"/><path class="st2" d="M19.4 38.3c1.4-5.5 2.7-10.1 3.9-14.2C15.2-1.1 10.4 4.6 2.2 3.2c0 0 8.6 3.8 17.2 35.1zM40.9 74.6c-3.2-5-7.3-13.6-11.5-28.7C28 51.4 26.7 56 25.5 60c4 12.4 7.2 17.3 10.4 19.2 1.1-.8 2.1-1.7 3.1-2.6.3-.3 1-1 1.9-2z"/><path d="M26.4 49.7c.2-.9.5-1.8.7-2.7.3-1.2.7-2.5 1-3.8.1-.4.2-.7.3-1.1.5-2 1-3.8 1.5-5.6.1-.3.2-.6.2-.9.5-1.7 1-3.3 1.5-4.8l.3-.9c.5-1.5 1-2.9 1.5-4.3.1-.1.1-.3.2-.4.5-1.3.9-2.5 1.4-3.6.1-.2.1-.4.2-.5.3-1.1.8-2.1 1.2-3.1.1-.3.2-.5.3-.7.4-.9.8-1.7 1.2-2.5.1-.3.3-.5.4-.8.3-.6.6-1.1.9-1.7.2-.4.4-.7.6-1.1.2-.4.5-.8.7-1.1l.6-.9s0-.1.1-.1c.5-.7.9-1.3 1.3-1.9.4-.6.9-1.1 1.2-1.5.7-.8 1.3-1.4 1.8-1.7.2-.1.3-.3.5-.4.4-.3.6-.4.6-.4-.7.1-1.3.2-1.9.2h-.2c-.6 0-1.1 0-1.6.1-1.2 0-2.4 0-3.6.2-.2 0-.4 0-.6-.1 0 0 .1.1.2.1h-.1c-1.4.2-2.8.8-4.1 2l-.1.1c-.3.2-.5.5-.8.7l-.1.1c-.9.9-1.7 2.1-2.6 3.7-.6 1-1.2 2.1-1.8 3.4v.1c-.3.6-.6 1.3-.9 2.1v.1c-.3.8-.6 1.6-1 2.5 0 0 0 .1-.1.1-1 2.6-2 5.6-3 9.1l-.9 3c-.3 1-.6 2.1-.9 3.2-.1.2-.1.5-.2.7-.2.9-.5 1.8-.7 2.8-.3 1.2-.7 2.5-1 3.8-.1.4-.2.7-.3 1.1C11.5 77 2.2 81 2.2 81c.5-.1 1-.1 1.4-.2h.2c.4 0 .8-.1 1.3-.1H6c2.5 0 4.7 0 6.9-1.4 1.3-.8 2.7-2.2 4.1-4.4 1.2-1.9 2.4-4.4 3.7-7.7.6-1.6 1.3-3.4 2-5.5v-.1c.5-1.5 1-3.2 1.6-5 .3-1 .6-1.9.9-3v-.1c.3-1 .6-2 .9-3.1.1-.2.2-.4.3-.7z"/></g></g><path d="M57.3 65.1c-.1.1-.2.1-.3.2 1.1 1.4 1.2 3 .4 4.8-.9 2.1-2.5 4.1-4.9 5-10.2 3.8-16.3-8.4-30.3-10.1-2.3-.3-4.6.4-6.8 1.5s-3.7 2.6-4.6 4.5c-.4.7-1 3 .6 4.2 1.2.9 3.1.6 3.4-.2 1-2 2.7-3.2 5.1-3.6 11-1.8 18.5 12 32.2 8.8 2.7-.6 5.3-2.6 7.1-4.7 1.8-2.1 2.6-4.4 2.9-7.2.2-2.1-.6-4.4-2.3-6.1-.7 1.1-1.5 2.1-2.5 2.9zM24.8 51.4c.5-1 1.7-2.2 3-2.9-1.3-2.8-2.1-6.6-2.5-8.6-.2-.9-.3-1.8-.3-2.8-.4-5.4-1.5-10.3-3.2-14.2-.1-.2-.2-.5-.3-.7-.1-.2-.2-.5-.3-.7-2.3-4.7-5.4-7.6-8.8-7.6-1.2 0-2.5.4-3.6 1.2 4.4 2.1 7.8 8.6 9.3 17.2.1.7.2 1.3.3 2 .1.9.2 1.9.3 2.8.1 1.5.3 3 .5 4.4h-.1c.6 3.8 1.4 6.8 2.5 9.3.1.2.1.3.2.5l.1.1c.6 1.2 1.3 2.3 2 3.3 0-1.2.4-2.3.9-3.3zM19.8 51.7l-.1-.1c-1.1-2.5-2-5.5-2.5-8.9-1.7 6.7-4.8 11.7-8.5 13.5 1.2.8 2.4 1.2 3.6 1.2 2.8 0 5.4-2 7.5-5.4.1-.1 0-.2 0-.3z"/><path d="M21.8 22.9c-.1-.2-.2-.5-.3-.7-.1-.2-.2-.5-.3-.7-.9 2.3-1.6 5-2.1 8.2h.1c-.2 1.4-.4 2.9-.5 4.4 0 .5-.1 1-.2 1.5.1.5.1 1 .2 1.5.1 1.5.3 3 .5 4.4h-.1c.5 3.2 1.2 5.9 2.1 8.2.1-.2.2-.5.3-.7.1-.2.2-.5.3-.7 1.5-3.5 2.6-7.9 3-12.7-.5-4.8-1.5-9.2-3-12.7z"/><g><path d="M66.9 19.5l.1.1c1.1 2.5 2 5.5 2.5 8.9 1.7-6.7 4.8-11.7 8.5-13.5-1.2-.8-2.4-1.2-3.6-1.2-2.8 0-5.4 2-7.5 5.4v.3zM67.6 41.5c.2-1.4.4-2.9.5-4.4 0-.5.1-1 .2-1.5-.1-.5-.1-1-.2-1.5-.1-1.5-1.6-10.4-2.5-12.6-.1.2-.2.5-.3.7-.1.2-.2.5-.3.7-1.5 3.5-2.6 7.9-3 12.7.5 4.8 1.6 9.2 3 12.7.1.2.2.5.3.7.1.2.2.5.3.7.9-2.2 1.6-4.9 2-8.2zM64.5 52c-.3-.5-.5-.9-.7-1.4-.1-.2-.2-.5-.4-.8-.1-.3-.2-.5-.3-.8-.9-2.1-1.6-4.3-2.1-6.8-.5 2-1.1 4.3-2 6.3-.1-.2-.3-.5-.4-.7-.2-.4-.5-.7-.7-1-.2-.3-.5-.6-.8-.9-2.2-2.3-5.3-3.7-8.7-3.7-6.6 0-12.1 5.4-12.1 12.1v.8c-2.4-.7-4.5-1.7-6.2-3.2-.8-.8-1.4-1.6-2-2.7-1.5-2.9-2.5-7.1-2.9-9.4-.1-.8-.2-1.7-.2-2.7-.4-5.4-1.5-10.3-3.2-14.2-.1-.2-.2-.5-.3-.7-.1-.2-.2-.5-.3-.7-2.3-4.7-5.4-7.6-8.8-7.6-1.2 0-2.5.4-3.6 1.2 4.4 2.1 7.8 8.6 9.3 17.2.1.7.2 1.3.3 2 .1.9.2 1.9.3 2.8.1 1.5.3 3 .5 4.4h-.1c.6 3.8 1.4 6.8 2.5 9.3.1.2.1.3.2.5l.1.1c3.2 6.7 8.4 8.9 14.1 9.6.8.1 1.7.2 2.6.3 0 .1.1.1.1.2 1 1.3 2.2 2.4 3.6 3.2 1.8 1 3.8 1.6 6.1 1.6 1.9 0 3.7-.5 5.3-1.2.9-.4 1.7-.9 2.4-1.5.8-.7 1.6-1.5 2.2-2.4.1-.2.2-.3.3-.5.6-.9 1-1.9 1.3-3 1.8-1.4 3.3-3.2 4.6-5.7z"/></g><g><path d="M32.9 10.8c-4.3 1.1-8 3.4-10.7 8.4.3.5.5.9.7 1.4.1.2.2.5.4.8.1.3.2.5.3.8.9 2.1 1.6 4.3 2.1 6.8.5-2.2 1.3-5 2.4-7 .5-1 1.2-1.9 2-2.7 3.1-2.6 7.5-4 12.4-4.1h1.8c2.7.1 5.2.5 7.5 1.4-4.4-3.5-10.5-6-18.9-5.8z"/><path d="M68.7 39c-.1-.7-.2-1.3-.3-2-.1-.9-.2-1.9-.3-2.8-.1-1.5-.4-4.4-.4-4.4-.6-3.8-1.4-6.8-2.5-9.3-.1-.2-.1-.3-.2-.5l-.1-.1c-.2-.5-.5-.9-.7-1.4-.1-.1-.2-.3-.2-.4l-.6-.9c-.1-.1-.2-.3-.3-.4-.2-.3-.4-.5-.6-.8-.1-.1-.2-.2-.2-.3-.3-.3-.6-.7-.9-1-.3-.3-.6-.6-.9-.8-.1-.1-.2-.1-.3-.2-.2-.2-.5-.4-.8-.5-.2-.1-.3-.2-.4-.2-.3-.2-.6-.3-.8-.5-.1 0-.1-.1-.2-.1-2.2-1.2-4.6-1.8-7.2-2.1-2.1-.3-7.6-.5-7.6-.5-2.8-.1-5.2.1-7.3.5-1 .1-2.1.3-3.1.6 1.2 0 24.7-5.2 28.6 20.5.1.9.2 1.8.3 2.8.4 5.4 1.5 10.3 3.2 14.2.1.2.2.5.3.7.1.2.2.5.3.7 2.3 4.7 5.4 7.6 8.8 7.6 1.2 0 2.5-.4 3.6-1.2-4.3-2.2-7.7-8.7-9.2-17.2z"/></g></svg>