<svg xmlns="http://www.w3.org/2000/svg" id="Layer_1" viewBox="0 0 85 85"><style id="style10">.st2{fill:#706f6f}</style><path d="M41.174 9.78a30.847 30.847 0 0-5.274.52 17.31 185.114 185.114 0 0 0 NaN NaNzM74.4 13.8c-2.8 0-5.4 2-7.5 5.4v.3l.1.1c1.1 2.5 2 5.5 2.5 8.9 1.7-6.7 4.8-11.7 8.5-13.5-1.2-.8-2.4-1.2-3.6-1.2zm-62 .1c-1.2 0-2.5.4-3.6 1.2 4.4 2.1 7.8 8.6 9.3 17.2.1.7.2 1.3.3 2 .1.9.2 1.9.3 2.8.05.75.125 1.5.212 2.238.088.737.187 1.462.287 2.162h-.1c.6 3.8 1.4 6.8 2.5 9.3.1.2.102.3.202.5l.1.1C25.1 58.1 30.3 60.3 36 61c.8.1 1.7.2 2.6.3 0 .1.1.1.1.2 1 1.3 2.2 2.4 3.6 3.2 1.8 1 3.8 1.6 6.1 1.6 1.9 0 3.7-.5 5.3-1.2.9-.4 1.7-.9 2.4-1.5.8-.7 1.6-1.5 2.2-2.4.1-.2.2-.3.3-.5.6-.9 1-1.9 1.3-3 1.8-1.4 3.3-3.2 4.6-5.7-.3-.5-.5-.9-.7-1.4-.1-.2-.2-.5-.4-.8-.1-.3-.2-.5-.3-.8-.9-2.1-1.6-4.3-2.1-6.8-.5 2-1.1 4.3-2 6.3-.1-.2-.3-.5-.4-.7-.2-.4-.5-.7-.7-1-.2-.3-.5-.6-.8-.9-2.2-2.3-5.3-3.7-8.7-3.7-6.6 0-12.1 5.4-12.1 12.1v.8c-2.4-.7-4.5-1.7-6.2-3.2-.8-.8-1.4-1.6-2-2.7-.113-.218-.216-.454-.323-.684.008-.005.016-.012.024-.016-1.3-2.8-2.1-6.6-2.5-8.6-.2-.9-.301-1.8-.301-2.8-.4-5.4-1.5-10.3-3.2-14.2-.1-.2-.2-.5-.3-.7-.1-.2-.2-.5-.3-.7-2.3-4.7-5.4-7.6-8.8-7.6zm4.8 28.8c-1.7 6.7-4.8 11.7-8.5 13.5 1.2.8 2.4 1.2 3.6 1.2 2.8 0 5.4-2 7.5-5.4.1-.1 0-.2 0-.3l-.1-.1c-1.1-2.5-2-5.5-2.5-8.9zm42.6 19.5c-.7 1.1-1.5 2.1-2.5 2.9-.1.1-.2.1-.3.2 1.1 1.4 1.2 3 .4 4.8-.9 2.1-2.5 4.1-4.9 5-10.2 3.8-16.3-8.4-30.3-10.1-2.3-.3-4.6.4-6.8 1.5s-3.7 2.6-4.6 4.5c-.4.7-1 3 .6 4.2 1.2.9 3.1.6 3.4-.2 1-2 2.7-3.2 5.1-3.6 11-1.8 18.5 12 32.2 8.8 2.7-.6 5.3-2.6 7.1-4.7 1.8-2.1 2.6-4.4 2.9-7.2.2-2.1-.6-4.4-2.3-6.1z" id="path23"/></svg>