<?xml version="1.0" encoding="UTF-8" standalone="no"?>
<svg
   xmlns:dc="http://purl.org/dc/elements/1.1/"
   xmlns:cc="http://creativecommons.org/ns#"
   xmlns:rdf="http://www.w3.org/1999/02/22-rdf-syntax-ns#"
   xmlns:svg="http://www.w3.org/2000/svg"
   xmlns="http://www.w3.org/2000/svg"
   id="svg372"
   viewBox="0 0 85 85"
   version="1.1">
  <metadata
     id="metadata378">
    <rdf:RDF>
      <cc:Work
         rdf:about="">
        <dc:format>image/svg+xml</dc:format>
        <dc:type
           rdf:resource="http://purl.org/dc/dcmitype/StillImage" />
        <dc:title></dc:title>
      </cc:Work>
    </rdf:RDF>
  </metadata>
  <defs
     id="defs376" />
  <style
     id="style368">.st2{fill:#706f6f}</style>
  <path
     id="path370"
     d="m 41.174,9.78 c -3.885699,0.2042409 -5.478517,0.419165 -8.274,1.021 -4.3,1.1 -8,3.398 -10.7,8.398 0.3,0.5 0.5,0.9 0.7,1.4 0.1,0.2 0.2,0.501 0.4,0.801 0.1,0.3 0.2,0.5 0.3,0.8 0.9,2.1 1.6,4.3 2.1,6.8 0.5,-2.2 1.3,-5 2.4,-7 0.5,-1 1.2,-1.9 2,-2.7 3.1,-2.6 7.5,-4 12.4,-4.1 h 1.8 c 2.7,0.1 5.2,0.5 7.5,1.4 C 47.532,13.204 40.916,10.762 32.9,10.801 36.867,10.27 57.79,7.61 61.4,31.4 c 0.1,0.9 0.2,1.8 0.3,2.8 0.4,5.4 1.5,10.3 3.2,14.2 0.1,0.2 0.2,0.5 0.3,0.7 0.1,0.2 0.2,0.5 0.3,0.7 2.3,4.7 5.4,7.6 8.8,7.6 1.2,0 2.5,-0.4 3.6,-1.2 C 73.6,54 70.2,47.5 68.7,39 68.6,38.3 68.5,37.7 68.4,37 68.357,36.606 68.313,36.19 68.27,35.773 68.281,35.716 68.29,35.657 68.3,35.6 68.2,35.1 68.2,34.6 68.1,34.1 68.098,34.07 68.08,33.958 68.076,33.924 67.963,32.376 67.699,29.801 67.699,29.801 67.186,26.55 66.513,23.908 65.645,21.641 65.63,21.603 65.614,21.535 65.6,21.5 l -0.004,0.012 C 65.464,21.174 65.34,20.821 65.199,20.5 65.099,20.3 65.1,20.2 65,20 L 64.9,19.9 C 64.7,19.4 64.4,19 64.2,18.5 64.1,18.4 64,18.2 64,18.1 L 63.4,17.2 C 63.3,17.1 63.2,16.9 63.1,16.8 62.9,16.5 62.7,16.3 62.5,16 62.4,15.9 62.3,15.8 62.3,15.7 62,15.4 61.7,15 61.4,14.7 61.1,14.4 60.8,14.1 60.5,13.9 60.4,13.8 60.3,13.8 60.2,13.7 60,13.5 59.7,13.3 59.4,13.2 59.2,13.1 59.1,13 59,13 58.7,12.8 58.4,12.7 58.2,12.5 58.1,12.5 58.1,12.4 58,12.4 55.8,11.2 53.4,10.6 50.8,10.3 48.7,10 43.2,9.8 43.2,9.8 42.5,9.776 41.825,9.768 41.174,9.78 Z M 74.4,13.8 c -2.8,0 -5.4,2 -7.5,5.4 v 0.3 l 0.1,0.1 c 1.1,2.5 2,5.5 2.5,8.9 C 71.2,21.8 74.3,16.8 78,15 76.8,14.2 75.6,13.8 74.4,13.8 Z m -62,0.1 c -1.2,0 -2.5,0.4 -3.6,1.2 4.4,2.1 7.8,8.6 9.3,17.2 0.1,0.7 0.2,1.3 0.3,2 0.1,0.9 0.2,1.9 0.3,2.8 0.05,0.75 0.125,1.5 0.212,2.238 0.088,0.737 0.187,1.462 0.287,2.162 h -0.1 c 0.6,3.8 1.4,6.8 2.5,9.3 0.1,0.2 0.102,0.3 0.202,0.5 l 0.1,0.1 C 25.1,58.1 30.3,60.3 36,61 c 0.8,0.1 1.7,0.2 2.6,0.3 0,0.1 0.1,0.1 0.1,0.2 1,1.3 2.2,2.4 3.6,3.2 1.8,1 3.8,1.6 6.1,1.6 1.9,0 3.7,-0.5 5.3,-1.2 0.9,-0.4 1.7,-0.9 2.4,-1.5 0.8,-0.7 1.6,-1.5 2.2,-2.4 0.1,-0.2 0.2,-0.3 0.3,-0.5 0.6,-0.9 1,-1.9 1.3,-3 1.8,-1.4 3.3,-3.2 4.6,-5.7 C 64.2,51.5 64,51.1 63.8,50.6 63.7,50.4 63.6,50.1 63.4,49.8 63.3,49.5 63.2,49.3 63.1,49 62.2,46.9 61.5,44.7 61,42.2 c -0.5,2 -1.1,4.3 -2,6.3 -0.1,-0.2 -0.3,-0.5 -0.4,-0.7 -0.2,-0.4 -0.5,-0.7 -0.7,-1 -0.2,-0.3 -0.5,-0.6 -0.8,-0.9 -2.2,-2.3 -5.3,-3.7 -8.7,-3.7 -6.6,0 -12.1,5.4 -12.1,12.1 v 0.8 c -2.4,-0.7 -4.5,-1.7 -6.2,-3.2 -0.8,-0.8 -1.4,-1.6 -2,-2.7 -0.113,-0.218 -0.216,-0.454 -0.323,-0.684 0.008,-0.005 0.016,-0.012 0.024,-0.016 -1.3,-2.8 -2.1,-6.6 -2.5,-8.6 C 25.101,39 25,38.1 25,37.1 24.6,31.7 23.5,26.8 21.8,22.9 21.7,22.7 21.6,22.4 21.5,22.2 21.4,22 21.3,21.7 21.2,21.5 18.9,16.8 15.8,13.9 12.4,13.9 Z m 4.8,28.8 c -1.7,6.7 -4.8,11.7 -8.5,13.5 1.2,0.8 2.4,1.2 3.6,1.2 2.8,0 5.4,-2 7.5,-5.4 0.1,-0.1 0,-0.2 0,-0.3 l -0.1,-0.1 c -1.1,-2.5 -2,-5.5 -2.5,-8.9 z m 42.6,19.5 c -0.7,1.1 -1.5,2.1 -2.5,2.9 -0.1,0.1 -0.2,0.1 -0.3,0.2 1.1,1.4 1.2,3 0.4,4.8 -0.9,2.1 -2.5,4.1 -4.9,5 C 42.3,78.9 36.2,66.7 22.2,65 c -2.3,-0.3 -4.6,0.4 -6.8,1.5 -2.2,1.1 -3.7,2.6 -4.6,4.5 -0.4,0.7 -1,3 0.6,4.2 1.2,0.9 3.1,0.6 3.4,-0.2 1,-2 2.7,-3.2 5.1,-3.6 11,-1.8 18.5,12 32.2,8.8 2.7,-0.6 5.3,-2.6 7.1,-4.7 1.8,-2.1 2.6,-4.4 2.9,-7.2 0.2,-2.1 -0.6,-4.4 -2.3,-6.1 z" />
</svg>
