<svg xmlns="http://www.w3.org/2000/svg" width="32" height="32" viewBox="0 0 32 32"><path d="M25.609 22.661h-.069a2.568 2.568 0 0 0-5.003 0h-1.989a2.567 2.567 0 0 0-5.003 0h-1.988a2.57 2.57 0 0 0-5.004 0h-.48c-1.606 0-2.913-1.307-2.913-2.913s1.307-2.912 2.913-2.912h.205v.103h.301a2.567 2.567 0 1 0 4.951 0h2.041a2.568 2.568 0 0 0 4.95 0h2.041a2.569 2.569 0 0 0 4.951 0h.301c2.249 0 4.079-1.83 4.079-4.079s-1.83-4.079-4.079-4.079h-.252a2.57 2.57 0 0 0-5.048 0H18.57a2.57 2.57 0 0 0-5.048 0h-1.944a2.565 2.565 0 1 0-5.022-.092c-.009.031-.022.059-.03.091h-.069a2.915 2.915 0 0 1-2.912-2.913H2.378a4.084 4.084 0 0 0 4.079 4.079h.069a2.568 2.568 0 0 0 5.003 0h2.041a2.568 2.568 0 0 0 4.95 0h2.041a2.569 2.569 0 0 0 4.951 0h.301c1.607 0 2.913 1.307 2.913 2.913s-1.307 2.913-2.913 2.913h-.205v-.103h-.068a2.568 2.568 0 0 0-5.003 0h-1.989a2.567 2.567 0 0 0-5.003 0h-1.988a2.57 2.57 0 0 0-5.004 0h-.48c-2.249 0-4.079 1.83-4.079 4.079s1.83 4.079 4.079 4.079h.48a2.57 2.57 0 0 0 5.004 0h1.988a2.57 2.57 0 0 0 5.003 0h1.989a2.569 2.569 0 0 0 5.003 0h.069a2.916 2.916 0 0 1 2.913 2.912h1.165a4.082 4.082 0 0 0-4.078-4.078z"/></svg>