<svg id="Layer_1" xmlns="http://www.w3.org/2000/svg" viewBox="0 0 32 32"><style>.st0{fill:#231f20}</style><path class="st0" d="M10.7 19.8c-.9 1.2-2.4 1.8-5.3 1.8-.5 0-.8-.4-.8-.8 0-.5.4-.8.8-.8 2.4 0 3.6-.4 4.1-1.4l1.2 1.2z"/><path d="M15.5 5.5c.4-.7 1.2-1.2 2.1-1.5 1.4-.5 3.2-.3 3.5.8.1.4.5.6.9.5.4-.1.6-.5.5-.9-.7-2.1-3.2-2.4-5.3-1.7-1.1.3-2 .9-2.5 1.6-.2.3-.4.6-.5.9l1.3.3z"/><path class="st0" d="M26.3 14.7c.3-.1.5-.2.6-.3.1-.1.2-.3.3-.5.1-.2.1-.5.2-1.1.1-.5.1-.9.1-1.1 0-.1-.1-.2-.1-.3-.1.1-.1.2-.2.3-.1.1-.4.1-.9.3-.1 0-.3.1-.6.1-.4.1-.6.1-.6.1-.2 0-1.1.3-2.6.8-.3.1-.4.2-.5.3-.2.1-.4.4-.6.9-.2.4-.3.9-.3 1.3v.8c0-.1.1-.2.2-.3.2-.1.5-.3 1-.4.1 0 1.5-.3 4-.9zm1-4.6c-.2-.1-.3-.2-.4-.3-.1 0-.2-.2-.5-.3s-.4-.3-.5-.3c-.4-.2-.8-.5-1.3-.8-.2-.1-.5-.4-.8-.7-.5-.4-.9-1-1.2-1.7l-.4 2.4c-.1.5-.1 1 0 1.3.1.1.2.4.5.7.2.2.5.5 1 .8.1 0 .2.1.6.3.4-.1.7-.2.8-.2.1 0 .3 0 .6-.1.4-.1.6-.2.6-.2.5-.1.8-.2.9-.2.1-.1.1-.2.1-.3.1-.2 0-.3 0-.4zM26 18.3c-.1-.1-.3-.2-.4-.3-.1 0-.2-.2-.5-.3-.3-.2-.4-.3-.5-.3-.4-.2-.8-.5-1.3-.8l-.1-.1c-.6.1-1 .2-1 .2-.5.2-.6.2-.9.4-.2.2-.3.5-.3.5v.2s0 .1.1.3c.1.1.1.2.2.3.2.2.5.5 1 .8.1 0 .2.2.5.3.4-.2 2.1-.5 2.1-.5.5-.1.8-.2.9-.3.1-.1.1-.1.1-.3.2.1.2 0 .1-.1zm-5.5 9.1c.3.5.6.8 1.1 1 .7.3 1.4.5 2 .4.1 0 .3 0 .4-.1.2 0 .3-.1.5-.2.3-.1.4-.3.3-.6-.1-.3-.3-.4-.5-.3h-.1c-.1 0-.2.1-.3.1-.6.2-1.3.1-1.9-.2-.6-.3-1-1-1.1-2 0-.3-.2-.4-.5-.4h-.2c-.2.1-.3.2-.3.5 0 .2.1.4.1.6.1.4.2.8.5 1.2zm-.7-3.6v.8c0-.1.1-.2.2-.3.2-.1.5-.3 1-.4.1 0 .8-.2 2.2-.5h.3c.2 0 .3-.1.5-.1.5-.1.8-.2.8-.2.4-.1.7-.2 1-.4.1-.1.2-.3.3-.5.1-.2.1-.5.2-1.1.1-.5.1-.9.1-1.1 0-.1-.1-.2-.1-.3-.1.2-.2.3-.3.3-.1.1-.4.1-.9.3 0 0-.2.1-.6.2-.4.1-.6.1-.7.1-.1 0-.9.3-2.3.7-.4.2-.6.3-.7.4-.2.2-.4.4-.6.9-.3.2-.4.6-.4 1.2z"/><path d="M18.8 22.9c-.3-.2-.6-.5-1.2-1.1l.3-5.6-1.7 1.5-5.2-5.8-1.6 1.4v-3.2L8.1 8.7 6.7 10c-.4-.5-.6-1-.8-1.4-.3-1.1 0-2 .9-2.7.3-.2.7-.3 1.1-.3.5 0 .8 0 1 .1.2 0 .4.1.5.2h.2c.2 0 .3-.1.4-.3.1-.3 0-.5-.3-.6-.2-.2-.4-.3-.7-.4-.2 0-.5-.1-.8-.1h-.5c-.5.1-1 .3-1.5.5C4.9 6 4.5 7.3 5 8.9c.2.5.5 1.1.9 1.8l-1 .9 8 9-1.7 1.4 5.6.4c.7.7 1.1 1 1.4 1.3.2.1.4.2.6 0s.2-.6 0-.8z"/><path d="M17 15.8l1.3-1.3v2.7l.9 1 .7-.6c-.2-1.3-.3-2.9.1-3.7l-5.7-6.4 1.3-1.1-4.9-.3-.3 4.9 1.3-1.1 5.3 5.9z"/></svg>