<svg xmlns="http://www.w3.org/2000/svg" width="32" height="32" viewBox="0 0 32 32"><path d="M22.187 15.84c.267.373.533.693.693 1.067.64 1.387.48 2.827-.053 4.213-.053.16-.907.587-1.013.587-.267-.053-.213-.267-.213-.427.053-1.28-.053-2.56-.373-3.84a6.993 6.993 0 0 0-.8-1.973 11.038 11.038 0 0 1-1.067-2.88c-.053-.427-.373-.8-.587-1.173-.107-.213-.213-.373-.32-.587-.267-.373-.32-.747-.053-1.173.267-.533.16-1.067-.267-1.44-.16-.16-.16-.32-.053-.48.373-.8.213-1.547-.32-2.24-.427-.533-.96-.747-1.493-.587-.587.16-1.067.8-1.12 1.44 0 .213.107.48-.107.587-.32.107-.693.053-1.013 0-.107 0-.107-.16-.107-.267-.053-.32-.107-.64-.267-.96-.213-.373-.693-.64-1.12-.533-.48.053-.693.427-.747.853a3.522 3.522 0 0 0 .16 1.813c.107.213.053.373-.107.533-.64.64-.64 1.173-.107 1.867.32.427.267 1.547-.053 1.973-.32.373-.64.747-.8 1.227-.213.587-.107.96.427 1.333.053.053.16.053.213.16l-.107.107c-1.227.373-1.76 1.333-2.187 2.4-.533 1.333-.8 2.667-.853 4.16-.373-.267-.427-.693-.48-1.067-.16-1.227.213-2.4.747-3.467.16-.373.373-.693.533-1.067-.373.16-.853 1.12-1.28 2.453-.373 1.12-.373 1.6-.107 2.827-.48-.213-.96-.107-1.387.107-.267.16-.32 0-.32-.213-.053-.533.107-1.013.32-1.493.8-1.867 1.6-3.733 2.667-5.44.213-.32.427-.64.693-.907.693-.8 1.387-1.653 1.493-2.773.053-.533 0-1.067-.053-1.6-.053-1.333-.053-2.667-.16-4-.16-2.293 1.547-3.787 3.36-4.213 2.613-.587 4.853.747 5.653 3.307.213.693.373 1.387.373 2.08-.053 2.453.64 4.64 2.133 6.56a25.425 25.425 0 0 1 2.667 4.32c.587 1.28.96 2.613.853 4v.267c-.107.8-.48.96-1.12.48-.427-.32-.96-.427-1.44-.48-.373 0-.373-.16-.213-.427.693-1.707.533-3.253-.693-4.693a2.686 2.686 0 0 0-.373-.427c0 .053-.053.107-.053.107zM16.96 2.347c.107.267-.107.693.373.747.267.053.64-.32.64-.587 0-.32-.267-.64-.587-.64-.267.053-.427.213-.427.48zm.213 2.133c.427.32.907.48 1.067.96 0 .053.107.053.16.053.053-.053.053-.107.053-.213-.107-.373-.747-.853-1.28-.8zm-3.146.96c-.107-.587-.533-.853-1.013-.747.373.267.747.427 1.013.747zm-3.734 26.027c-.373 0-.747-.053-1.067-.213-1.547-.8-3.253-1.12-4.907-1.493a3.704 3.704 0 0 1-1.013-.32c-.64-.267-.853-.747-.693-1.387.213-.907.267-1.76 0-2.667-.213-.693.213-1.227.96-1.333 1.067-.107 1.867-.64 2.453-1.547.107-.16.213-.32.32-.427.587-.747 1.333-.747 1.92.053.267.373.533.747.747 1.12 1.067 1.547 2.08 3.147 3.253 4.693.747.96.64 1.707-.267 2.613-.8.8-.96.907-1.707.907zm9.28-2.347c-.053-.853.213-1.707.32-2.56.107-.96.213-1.92.16-2.933v-.533c.107-.8.693-1.067 1.387-.693.16.107.16.213.213.373.373 1.493 1.653 1.92 2.827.907.267-.213.48-.533.693-.8.16-.213.427-.427.693-.32.32.107.373.427.32.747-.107.96.267 1.6 1.067 2.133.32.213.64.373.907.64.64.48.64 1.013-.053 1.493-.373.267-.8.48-1.173.747-1.173.747-2.347 1.44-3.307 2.453-.747.8-1.707.853-2.72.693-.8-.16-1.28-.747-1.333-1.6v-.747zM16.907 8c.213.053.373.107.587.213.427.16.747.373.693.907-.053.587-.213.96-.747 1.173a6.188 6.188 0 0 0-1.653.907c-.8.587-1.76.533-2.453-.053-.32-.267-.64-.587-.96-.907 1.227.853 2.453.533 3.627-.053.533-.267 1.067-.533 1.547-.907.107-.107.373-.16.213-.373-.107-.16-.32-.053-.427 0a25.51 25.51 0 0 0-1.653.907c-1.227.747-2.347.693-3.413-.32-.427-.373-.427-.587.053-1.013.107-.053.16-.16.267-.213.213-.16.32-.267.053-.533-.373-.373-.48-.8-.267-1.28.107-.213.213-.373.48-.373.213-.053.373.107.48.32.213.267.213.587.213.853 0 .213.053.267.267.213.693-.32 1.387-.267 2.08.107.213.107.267.053.267-.213v-.693c.053-.32.16-.533.533-.587.32-.053.64.053.8.373.213.533.107 1.013-.587 1.547zm-2.134-.373c.213.16.373.427.64.32.107-.053.107-.213.053-.267-.213-.213-.427-.267-.693-.053zm-1.546-.96c0-.16-.053-.373-.267-.373-.107 0-.213.107-.16.213.053.213.107.373.32.427.107 0 .053-.16.107-.267zm.8 1.066c0-.107-.053-.16-.16-.16-.213 0-.373.053-.427.267-.053.107.053.16.16.16.213 0 .373-.107.427-.267zM16.96 6.24c-.107 0-.16.053-.16.16.053.16.16.32.373.373.107 0 .16-.053.16-.16a.641.641 0 0 0-.373-.373zm2.347 20.373c-.16 1.067-.32 2.08-.32 3.093 0 .213-.16.16-.32.16-.64 0-1.28-.053-1.92-.107-1.173-.053-2.347.107-3.52.213 0-.48.107-1.013.053-1.493-.053-.267.32-.16.533-.16 1.227.107 2.4-.107 3.52-.533.64-.213 1.28-.64 1.973-1.173zm4.053-5.12c.48-.053.907.107 1.333.373.32.16.373.373.16.64-.48.587-.96 1.12-1.813 1.12-.587 0-.747-.16-.64-.747a.873.873 0 0 0-.107-.64c-.267-.373 0-.533.267-.64s.533-.107.8-.107zM9.28 22.507c.853.747 1.707 1.44 2.56 2.187.213.213.427.427.533.693.213.48-.053.907-.587 1.013-.213.053-.213-.107-.32-.213-.747-1.227-1.547-2.453-2.293-3.68.053.053.107 0 .107 0z"/></svg>