<svg xmlns="http://www.w3.org/2000/svg" width="32" height="32" viewBox="0 0 32 32"><path d="M13.979 28.85c-3.492-.004-6.347-.554-9.028-1.874-1.312-.646-2.495-1.476-3.437-2.612-1.559-1.88-1.857-3.993-1.156-6.289.549-1.799 1.521-3.364 2.695-4.81 1.792-2.208 3.872-4.09 6.379-5.464 1.083-.594 2.217-1.058 3.46-1.199a3.613 3.613 0 0 1 1.488.113c.876.269 1.445 1.004 1.541 1.929.084.825-.07 1.612-.299 2.395-.095.324.067.496.398.427.159-.033.314-.088.47-.139.733-.243 1.456-.526 2.201-.723 1.025-.27 2.07-.4 3.136-.206 1.574.287 2.376 1.435 2.054 2.997-.08.39-.203.773-.331 1.151-.17.504-.104.675.41.831.81.245 1.566.592 2.244 1.101 1.567 1.176 2.114 2.889 1.509 4.75-.511 1.57-1.521 2.79-2.759 3.834-2.073 1.748-4.493 2.775-7.123 3.341-1.439.308-2.895.469-3.852.447zm-.252-14.579c-1.901.002-3.666.315-5.356.998-1.649.666-3.118 1.594-4.177 3.061-.978 1.353-1.313 2.83-.694 4.433.426 1.102 1.215 1.916 2.184 2.559 1.596 1.059 3.379 1.535 5.27 1.681a14.022 14.022 0 0 0 6.163-.886c1.713-.656 3.228-1.604 4.343-3.103 1.445-1.944 1.336-4.232-.29-6.016-.578-.634-1.271-1.119-2.032-1.506-1.725-.875-3.569-1.22-5.411-1.221zm18.269-2.883c.029.891-.121 1.757-.392 2.603a1.17 1.17 0 0 1-1.08.822c-.554.009-1.019-.261-1.158-.773a1.784 1.784 0 0 1 .009-.906c.52-1.87.257-3.611-.841-5.203-.991-1.436-2.372-2.284-4.104-2.537a5.921 5.921 0 0 0-2.035.045c-.621.125-1.14-.095-1.404-.585-.37-.685-.013-1.532.748-1.714a7.86 7.86 0 0 1 2.976-.125c1.947.28 3.606 1.117 4.961 2.537 1.29 1.353 2.058 2.963 2.271 4.829.02.171.04.343.05.515.006.163-.001.328-.001.492zM23.559 7.28c1.878-.023 3.671 1.347 4.047 3.408.12.659.061 1.304-.144 1.938-.18.561-.727.852-1.276.691a1.006 1.006 0 0 1-.677-1.259c.405-1.381-.488-2.421-1.36-2.622a2.975 2.975 0 0 0-.992-.044c-.603.07-1.153-.263-1.241-.808-.103-.628.271-1.135.913-1.227.241-.035.486-.052.73-.077zM11.816 25.739c-1.38-.021-2.539-.365-3.492-1.236-1.438-1.313-1.674-3.4-.574-5.076.969-1.476 2.371-2.271 4.101-2.517 1.171-.166 2.29.014 3.326.594 2.122 1.187 2.701 3.708 1.311 5.762-.954 1.409-2.325 2.163-3.99 2.41-.261.039-.525.049-.682.063zm-1.626-1.971c.939.004 1.699-.49 2-1.208.351-.836-.074-1.694-.953-1.927-.762-.202-1.639.132-2.111.812-.334.481-.447 1.002-.17 1.544.282.55.776.765 1.234.779zm2.895-2.737c.389 0 .75-.327.751-.68 0-.289-.259-.528-.578-.531-.386-.004-.738.323-.74.687-.001.311.229.524.567.524z"/></svg>