<svg xmlns="http://www.w3.org/2000/svg" width="32" height="32" viewBox="0 0 32 32"><path d="M25.354 22.145c.057.163.097.361.122.594.023.233.038.502.045.809h-1.619v-.312c0-.188.012-.375.04-.564s.071-.359.132-.512c.061-.153.143-.276.247-.371s.235-.142.396-.142.293.043.396.127a.819.819 0 0 1 .241.371zm-6.59-.32c.344 0 .569.219.672.66s.155 1.096.155 1.967c0 .87-.051 1.527-.155 1.967s-.327.659-.672.659c-.353 0-.58-.22-.684-.659-.103-.441-.155-1.097-.155-1.967 0-.871.051-1.527.155-1.967s.331-.66.684-.66zm8.121-6.076H5.391a5.253 5.253 0 0 0-5.253 5.253v5.429c0 2.9 2.352 5.253 5.253 5.253h21.494a5.255 5.255 0 0 0 5.254-5.253v-5.429a5.254 5.254 0 0 0-5.254-5.253zM9.858 19.6H8.066v8.845H6.411V19.6H4.619v-1.752h5.239V19.6zm4.964 8.844h-1.516v-.936h-.023c-.169.396-.387.679-.655.846s-.574.252-.919.252c-.506 0-.895-.171-1.167-.511-.272-.342-.408-.913-.408-1.715v-5.922h1.585v5.507c0 .415.054.704.161.868s.279.244.517.244c.559 0 .839-.439.839-1.32v-5.299h1.585v7.986zm5.896-.801c-.307.643-.786.964-1.437.964-.322 0-.592-.073-.811-.223-.218-.147-.415-.41-.591-.786h-.023v.847h-1.517V17.848h1.585v3.354h.023c.168-.315.357-.554.569-.711.21-.158.464-.238.764-.238.65 0 1.13.33 1.437.987.306.657.459 1.729.459 3.213.001 1.483-.153 2.547-.458 3.19zm6.319-2.879H23.9v.638c0 .237.013.468.04.69s.071.421.132.594c.062.173.142.312.241.415s.223.156.368.156c.268 0 .463-.124.586-.371s.207-.623.252-1.128h1.425c-.03.93-.222 1.638-.574 2.122s-.907.727-1.665.727c-.575 0-1.023-.123-1.346-.37-.321-.247-.559-.574-.712-.979s-.247-.861-.281-1.365a21.876 21.876 0 0 1-.052-1.514c0-.534.028-1.049.086-1.544.058-.494.173-.935.345-1.32s.419-.692.741-.921c.321-.228.751-.341 1.287-.341.459 0 .836.097 1.132.29.295.192.526.465.695.815.168.352.283.776.344 1.276.062.5.093 1.057.093 1.67v.46zM9.355 5.584h.026L10.683.945h2.03l-2.407 7.279v4.723H8.431V8.224L6.023.945h2.108l1.224 4.639zm3.579.791c.096-.594.252-1.09.469-1.488s.5-.7.853-.908c.351-.208.782-.311 1.295-.311.538-.011.984.082 1.34.277.356.196.637.496.846.899.208.403.355.902.442 1.496.086.594.13 1.289.13 2.084 0 .773-.048 1.457-.144 2.051-.095.594-.252 1.09-.468 1.488s-.502.692-.853.882c-.352.191-.783.286-1.295.286-.539.011-.985-.075-1.341-.261s-.638-.476-.846-.874-.356-.896-.442-1.496c-.087-.6-.13-1.292-.13-2.076.001-.772.049-1.455.144-2.049zm1.679 3.328c.018.393.059.729.124 1.009s.163.499.292.655a.643.643 0 0 0 .521.235c.364 0 .616-.246.755-.74.138-.492.208-1.305.208-2.437s-.07-1.944-.208-2.438c-.139-.492-.391-.739-.755-.739a.644.644 0 0 0-.521.235c-.129.157-.227.376-.292.656s-.106.616-.124 1.008c-.018.393-.026.818-.026 1.278 0 .459.009.886.026 1.278zm8.876 2.185c-.19.448-.438.768-.741.958a1.915 1.915 0 0 1-1.041.286c-.572 0-1.014-.193-1.321-.58-.309-.387-.462-1.034-.462-1.941V3.903h1.796v6.237c0 .471.061.799.183.984.121.185.316.277.585.277.634 0 .95-.499.95-1.497V3.903h1.796v9.044h-1.718v-1.059h-.027z"/></svg>