<svg xmlns="http://www.w3.org/2000/svg" width="32" height="32" viewBox="0 0 32 32"><path d="M19.247 16.857l-4.075 4.076 2.759 2.76a41.33 41.33 0 0 1-5.932.439c-5.219 0-10.436-1.066-11.48-2.133-1.043-1.066-.332-2.92.521-3.734.888-.847 3.448-1.32 5.732-1.902.587-.151 1.939-.596 2.096-1.346-.023-2.58-1.045-2.618-1.566-3.684-.522-1.066-1.42-3.701-.522-8.002C7.457.101 11.999.132 11.999.132s4.543-.031 5.219 3.198c.899 4.301 0 6.936-.522 8.002-.523 1.067-1.544 1.104-1.566 3.684.158.75 1.509 1.196 2.096 1.346.667.17 1.355.332 2.021.495zm8.553 8.275l4.2 4.199-2.801 2.801L25 27.933l-4.199 4.199L18 29.331l4.2-4.199-4.2-4.199 2.801-2.801L25 22.331l4.199-4.199L32 20.933z"/></svg>