<svg xmlns="http://www.w3.org/2000/svg" width="32" height="32" viewBox="0 0 32 32"><path d="M30.501 28.939h-2.174c-1.544-4.461-8.108-23.341-9.198-24.938-1.081-1.588-2.501-1.889-3.33-1.812-.832-.077-2.249.225-3.331 1.812-1.089 1.597-7.653 20.477-9.196 24.938H1.096a1.298 1.298 0 1 0 0 2.596h29.405a1.298 1.298 0 0 0 0-2.596zM18.044 7.174c.53 1.335 1.254 3.267 2.075 5.513h-8.641a229.657 229.657 0 0 1 2.075-5.513h4.491zm3.277 8.828a886.18 886.18 0 0 1 1.593 4.465H8.683c.537-1.515 1.074-3.02 1.594-4.465h11.044zm2.764 7.78c.512 1.457 1.009 2.88 1.475 4.22H6.038c.466-1.34.963-2.763 1.475-4.22h16.572z"/></svg>