<svg xmlns="http://www.w3.org/2000/svg" width="32" height="32" viewBox="0 0 32 32"><path d="M20 17.049v3.083h-6v3.949c-.661.031-1.331.051-2.001.051-5.219 0-10.436-1.066-11.48-2.133-1.043-1.066-.332-2.92.521-3.734.888-.847 3.448-1.32 5.732-1.902.587-.151 1.939-.596 2.096-1.346-.023-2.58-1.045-2.618-1.566-3.684-.522-1.066-1.42-3.701-.522-8.002C7.457.101 11.999.132 11.999.132s4.543-.031 5.219 3.199c.899 4.301 0 6.936-.522 8.002-.523 1.067-1.544 1.104-1.566 3.684.158.75 1.509 1.196 2.096 1.346.924.236 1.888.453 2.774.686zm12 5.083v4h-6v6h-4v-6h-6v-4h6v-6h4v6z"/></svg>