<?xml version="1.0" encoding="utf-8"?>
<!-- Generated by IcoMoon.io -->
<!DOCTYPE svg PUBLIC "-//W3C//DTD SVG 1.1//EN" "http://www.w3.org/Graphics/SVG/1.1/DTD/svg11.dtd">
<svg version="1.1" xmlns="http://www.w3.org/2000/svg" xmlns:xlink="http://www.w3.org/1999/xlink" width="32" height="32" viewBox="0 0 32 32">
<path d="M15.875 19.497v3.969h-5.953v5.953h-3.969v-5.953h-5.953v-3.969h5.953v-5.954h3.969v5.954zM30.762 28.386h-2.074c-1.474-4.257-7.738-22.273-8.777-23.796-1.031-1.516-2.387-1.803-3.178-1.729-0.793-0.073-2.146 0.215-3.179 1.729-0.291 0.426-0.992 2.147-1.882 4.496v6.946l0.086 0.010h10.244c0.496 1.379 1.008 2.815 1.521 4.261h-5.897v3.164h7.014c0.488 1.39 0.963 2.747 1.408 4.025h-14.376v1.962h-0.005v1.409h19.095c0.684 0 1.238-0.555 1.238-1.238s-0.555-1.239-1.238-1.239zM12.609 12.878c0.784-2.145 1.474-3.987 1.979-5.261h4.286c0.506 1.274 1.196 3.117 1.98 5.261h-8.245z"></path>
</svg>
