<?xml version="1.0" encoding="utf-8"?>
<!-- Generated by IcoMoon.io -->
<!DOCTYPE svg PUBLIC "-//W3C//DTD SVG 1.1//EN" "http://www.w3.org/Graphics/SVG/1.1/DTD/svg11.dtd">
<svg version="1.1" xmlns="http://www.w3.org/2000/svg" xmlns:xlink="http://www.w3.org/1999/xlink" width="32" height="32" viewBox="0 0 32 32">
<path d="M21.807 10.352l-10.149 10.149c-0.56 0.558-0.559 1.469 0 2.029s1.469 0.56 2.030 0l12.181-12.177c1.679-1.678 1.679-4.41 0-6.089s-4.411-1.679-6.090 0l-12.789 12.788c-0.008 0.007-0.019 0.016-0.028 0.026-2.783 2.782-2.783 7.31 0 10.093s7.313 2.783 10.096 0c0.008-0.007 0.017-0.017 0.026-0.026h0.001l8.729-8.728 2.030 2.028-8.73 8.728c-0.010 0.008-0.017 0.017-0.026 0.027-3.91 3.907-10.248 3.907-14.156 0-3.908-3.908-3.908-10.244 0-14.153 0.008-0.007 0.018-0.016 0.027-0.026l-0.001-0.001 12.791-12.784c2.801-2.804 7.346-2.804 10.149 0 2.804 2.801 2.804 7.345 0 10.147l-12.181 12.178c-1.682 1.682-4.409 1.682-6.090 0-1.682-1.681-1.682-4.407 0-6.089l10.151-10.148 2.029 2.028z"></path>
</svg>
