<?xml version="1.0" encoding="utf-8"?>
<!-- Generated by IcoMoon.io -->
<!DOCTYPE svg PUBLIC "-//W3C//DTD SVG 1.1//EN" "http://www.w3.org/Graphics/SVG/1.1/DTD/svg11.dtd">
<svg version="1.1" xmlns="http://www.w3.org/2000/svg" xmlns:xlink="http://www.w3.org/1999/xlink" width="32" height="32" viewBox="0 0 32 32">
<path d="M30.716 6.069l-4.508-4.507c-0.979-0.981-2.919-1.784-4.307-1.784h-15.141c-1.388 0-2.523 1.136-2.523 2.523v14.367c0.622-0.29 1.295-0.547 2.019-0.756v-13.611c0-0.274 0.231-0.505 0.504-0.505h15.142c0.152 0 0.323 0.020 0.504 0.053v8.022h8.022c0.034 0.182 0.054 0.353 0.054 0.505v19.179c0 0.273-0.231 0.505-0.505 0.505h-23.217c-0.273 0-0.504-0.231-0.504-0.505v-1.003c-0.724-0.208-1.397-0.467-2.019-0.756v1.759c0 1.388 1.135 2.523 2.523 2.523h23.217c1.388 0 2.523-1.136 2.523-2.523v-19.179c0-1.388-0.804-3.327-1.784-4.307zM24.425 7.853v-5.156c0.137 0.095 0.258 0.193 0.357 0.292l4.507 4.507c0.098 0.099 0.195 0.22 0.292 0.357h-5.156zM19.51 21.989c0 0-3.436-4.582-9.467-4.582-6.030 0-9.468 4.582-9.468 4.582-0.1 0.134-0.1 0.351 0 0.483 0 0 3.438 4.583 9.468 4.583 6.031 0 9.467-4.583 9.467-4.583 0.1-0.132 0.1-0.349 0-0.483zM10.043 25.795c-1.968 0-3.564-1.595-3.564-3.564 0-1.968 1.596-3.562 3.564-3.562s3.564 1.595 3.564 3.562c0 1.969-1.595 3.564-3.564 3.564z"></path>
</svg>
