<svg xmlns="http://www.w3.org/2000/svg" width="32" height="32" viewBox="0 0 32 32"><path d="M30.716 6.069l-4.508-4.507c-.979-.981-2.919-1.784-4.307-1.784H6.76a2.53 2.53 0 0 0-2.523 2.523v14.367c.622-.29 1.295-.547 2.019-.756V2.301c0-.274.231-.505.504-.505h15.142c.152 0 .323.02.504.053v8.022h8.022c.034.182.054.353.054.505v19.179a.512.512 0 0 1-.505.505H6.76a.511.511 0 0 1-.504-.505v-1.003a13.893 13.893 0 0 1-2.019-.756v1.759a2.53 2.53 0 0 0 2.523 2.523h23.217a2.53 2.53 0 0 0 2.523-2.523V10.376c0-1.388-.804-3.327-1.784-4.307zm-6.291 1.784V2.697c.137.095.258.193.357.292l4.507 4.507c.098.099.195.22.292.357h-5.156zM19.51 21.989s-3.436-4.582-9.467-4.582c-6.03 0-9.468 4.582-9.468 4.582-.1.134-.1.351 0 .483 0 0 3.438 4.583 9.468 4.583 6.031 0 9.467-4.583 9.467-4.583.1-.132.1-.349 0-.483zm-9.467 3.806a3.564 3.564 0 1 1 0-7.128 3.564 3.564 0 0 1 0 7.128z"/></svg>