<svg xmlns="http://www.w3.org/2000/svg" width="32" height="32" viewBox="0 0 32 32"><path d="M27.837 21.293c-1.427-1.425-3.241-2.159-4.936-2.159h-.91l-1.997-2 7.988-8.001c1.996-2 1.996-6.001 0-8.001L16 13.134 4.018 1.132c-1.996 2-1.996 6.001 0 8.001l7.988 8.001-1.997 2h-.91c-1.693 0-3.509.735-4.936 2.159-2.551 2.545-2.896 6.327-.771 8.448.938.935 2.198 1.391 3.533 1.391 1.694 0 3.509-.735 4.937-2.159 1.675-1.671 2.397-3.875 2.096-5.792L16 21.135l2.043 2.046c-.302 1.917.422 4.121 2.096 5.792 1.427 1.424 3.242 2.159 4.936 2.159 1.335 0 2.595-.456 3.531-1.391 2.126-2.12 1.781-5.903-.769-8.448zm-16.805 4.262c-.241.56-.595 1.073-1.052 1.529s-.974.81-1.535 1.051c-.504.216-1.03.33-1.521.33-.473 0-1.144-.105-1.652-.612-.504-.504-.609-1.166-.609-1.635 0-.486.114-1.007.329-1.507.241-.56.594-1.073 1.051-1.529s.974-.81 1.536-1.051a3.912 3.912 0 0 1 1.521-.33c.474 0 1.145.106 1.652.613.504.503.61 1.166.61 1.634a3.886 3.886 0 0 1-.33 1.507zM16 19.963c-1.56 0-2.824-1.267-2.824-2.829S14.44 14.305 16 14.305s2.824 1.267 2.824 2.829S17.56 19.963 16 19.963zm10.727 7.889c-.508.507-1.179.613-1.651.613a3.908 3.908 0 0 1-1.521-.33 4.915 4.915 0 0 1-1.536-1.051 4.898 4.898 0 0 1-1.051-1.529 3.866 3.866 0 0 1-.329-1.507c0-.469.106-1.131.61-1.635.508-.506 1.179-.612 1.652-.612.49 0 1.017.114 1.521.33.562.241 1.079.594 1.536 1.051s.81.97 1.051 1.529c.215.5.329 1.021.329 1.507-.001.468-.107 1.131-.611 1.634z"/></svg>