<?xml version="1.0" encoding="utf-8"?>
<!-- Generated by IcoMoon.io -->
<!DOCTYPE svg PUBLIC "-//W3C//DTD SVG 1.1//EN" "http://www.w3.org/Graphics/SVG/1.1/DTD/svg11.dtd">
<svg version="1.1" xmlns="http://www.w3.org/2000/svg" xmlns:xlink="http://www.w3.org/1999/xlink" width="32" height="32" viewBox="0 0 32 32">
<path d="M4 3.936c0-2.1 6.268-3.803 14-3.803s14 1.703 14 3.803c0 2.1-6.268 3.803-14 3.803s-14-1.703-14-3.803zM18 12.132c6.521 0 11.984-0.957 13.541-2.25 0.289 0.4 0.459 0.818 0.459 1.25 0 2.76-6.268 5-14 5s-14-2.24-14-5c0-0.432 0.17-0.85 0.459-1.25 1.557 1.293 7.020 2.25 13.541 2.25zM18 28.132c6.521 0 11.984-0.957 13.541-2.25 0.289 0.4 0.459 0.818 0.459 1.25 0 2.76-6.268 5-14 5-2.15 0-4.18-0.178-6-0.488v-3.512h6zM18 20.382c6.521 0 11.984-0.957 13.541-2.25 0.289 0.4 0.459 0.818 0.459 1.25 0 2.76-6.268 5-14 5v-4zM16 26.132h-6v6h-4v-6h-6v-4h6v-6h4v6h6z"></path>
</svg>
