<svg xmlns="http://www.w3.org/2000/svg" width="32" height="32" viewBox="0 0 32 32"><path d="M31.63 17.587a1.254 1.254 0 0 1-.001 1.779l-.897.889-.479.473-3.81-3.773.478-.473.896-.889a1.285 1.285 0 0 1 1.801-.002l2.012 1.996zM15.423 28.292l3.383 3.352-3.876.488zm7.088-10.372l-6.02 5.963c-.939.103-1.921.178-2.921.217l-.059.002c-.488.017-.979.03-1.471.03h-.042c-.492 0-.983-.012-1.471-.03l-.058-.002c-4.671-.18-9.009-1.139-9.95-2.101-1.043-1.066-.331-2.92.521-3.734.888-.847 3.448-1.32 5.732-1.902.587-.151 1.938-.596 2.096-1.346-.023-2.58-1.045-2.618-1.566-3.684-.522-1.066-1.42-3.701-.522-8.002C7.457.101 11.998.132 11.998.132h.042s4.542-.031 5.219 3.199c.898 4.3 0 6.935-.523 8.001-.521 1.067-1.542 1.104-1.566 3.684.158.75 1.51 1.196 2.096 1.346 1.954.498 4.106.917 5.245 1.558zm2.505.448l3.812 3.776-8.38 8.299-3.811-3.776z"/></svg>