<?xml version="1.0" encoding="utf-8"?>
<!-- Generated by IcoMoon.io -->
<!DOCTYPE svg PUBLIC "-//W3C//DTD SVG 1.1//EN" "http://www.w3.org/Graphics/SVG/1.1/DTD/svg11.dtd">
<svg version="1.1" xmlns="http://www.w3.org/2000/svg" xmlns:xlink="http://www.w3.org/1999/xlink" width="32" height="32" viewBox="0 0 32 32">
<path d="M26.905 22.586c-0.051 0.612 0.663 1.674 0.665 2.29 0.001 0.86-1.372 1.653-1.697 2.286-0.221 0.428 0.039 1.476-0.148 1.919-0.327 0.771-1.709 1.974-2.509 2.214-2.544 0.763-10.625 0-10.625 0l-8.824-1.182v-12.042l2.872-0.001c0.848-0.194 2.62-1.991 4.815-7.583 0.357-0.909 1.034-1.433 1.808-2.029 1.288-0.994 2.25-2.389 2.574-7.415 0.044-0.693 2.212-0.59 3.394 0.959 0.967 1.266 1.096 3.734 0.331 5.594-0.52 1.27-2.415 4.21-1.733 5.399 0 0 6.968-0.26 8.338 0.296 0.863 0.349 2.12 2.167 2.065 3.097-0.030 0.512-0.966 1.265-1.033 1.771-0.084 0.639 1.032 1.717 1.035 2.362 0.001 0.613-1.277 1.453-1.328 2.065z"></path>
</svg>
