<?xml version="1.0" encoding="utf-8"?>
<!-- Generated by IcoMoon.io -->
<!DOCTYPE svg PUBLIC "-//W3C//DTD SVG 1.1//EN" "http://www.w3.org/Graphics/SVG/1.1/DTD/svg11.dtd">
<svg version="1.1" xmlns="http://www.w3.org/2000/svg" xmlns:xlink="http://www.w3.org/1999/xlink" width="32" height="32" viewBox="0 0 32 32">
<path d="M21.812 0.632c-5.351 0-9.688 4.337-9.688 9.688 0 0.606 0.057 1.2 0.163 1.775l-11.787 11.787v5.812c0 1.071 0.867 1.938 1.938 1.938h1.938v-1.938h3.874v-3.875h3.875v-3.875h3.875l2.515-2.514c1.029 0.373 2.14 0.576 3.298 0.576 5.351 0 9.688-4.337 9.688-9.688s-4.338-9.686-9.689-9.686zM24.715 10.323c-1.605 0-2.906-1.301-2.906-2.906s1.301-2.906 2.906-2.906c1.604 0 2.906 1.301 2.906 2.906s-1.302 2.906-2.906 2.906z"></path>
</svg>
