<?xml version="1.0" encoding="utf-8"?>
<!-- Generated by IcoMoon.io -->
<!DOCTYPE svg PUBLIC "-//W3C//DTD SVG 1.1//EN" "http://www.w3.org/Graphics/SVG/1.1/DTD/svg11.dtd">
<svg version="1.1" xmlns="http://www.w3.org/2000/svg" xmlns:xlink="http://www.w3.org/1999/xlink" width="32" height="32" viewBox="0 0 32 32">
<path d="M31.367 14.234l-0.734-2.203c-0.348-1.044-1.533-1.899-2.633-1.899h-2v-8c0-1.1-0.9-2-2-2h-16c-1.1 0-2 0.9-2 2v8h-2c-1.1 0-2.285 0.855-2.633 1.898l-0.734 2.203c-0.348 1.044-0.633 2.797-0.633 3.899v6c0 1.1 0.9 2 2 2h2.75v-5c0-0.275 0.225-0.5 0.5-0.5h21.5c0.275 0 0.5 0.225 0.5 0.5v5h2.75c1.1 0 2-0.9 2-2v-6c0-1.102-0.285-2.855-0.633-3.898zM8 2.132h16v12h-16v-12zM8 22.132h18v8c0 1.098-0.9 2-2 2h-16c-1.1 0-2-0.902-2-2v-8h2z"></path>
</svg>
