<?xml version="1.0" encoding="utf-8"?>
<!-- Generated by IcoMoon.io -->
<!DOCTYPE svg PUBLIC "-//W3C//DTD SVG 1.1//EN" "http://www.w3.org/Graphics/SVG/1.1/DTD/svg11.dtd">
<svg version="1.1" xmlns="http://www.w3.org/2000/svg" xmlns:xlink="http://www.w3.org/1999/xlink" width="32" height="32" viewBox="0 0 32 32">
<path d="M17.292 15.687l-1.050-1.052-0.198-0.196c-0.217-0.217-0.646-0.396-0.954-0.396h-14.252c-0.461 0-0.838 0.379-0.838 0.838v16.209c0 0.46 0.377 0.838 0.838 0.838h16.209c0.461 0 0.838-0.378 0.838-0.838v-14.252c0-0.308-0.177-0.738-0.395-0.954l-0.198-0.196zM13.91 29.444c0 0.274-0.223 0.497-0.497 0.497h-8.943c-0.274 0-0.497-0.223-0.497-0.497v-4.968c0-0.274 0.223-0.497 0.497-0.497h8.943c0.274 0 0.497 0.223 0.497 0.497v4.968zM13.91 21.495c0 0.273-0.223 0.497-0.497 0.497h-8.943c-0.274 0-0.497-0.223-0.497-0.497v-4.968c0-0.273 0.223-0.497 0.497-0.497h8.943c0.274 0 0.497 0.223 0.497 0.497v4.968zM9.934 17.272h1.988v3.477h-1.988zM28.238 6.324l-4.437-4.436c-0.965-0.966-2.874-1.756-4.24-1.756h-14.904c-1.366 0-2.484 1.117-2.484 2.484v9.766h1.987v-9.766c0-0.27 0.227-0.497 0.497-0.497h14.904c0.151 0 0.319 0.019 0.497 0.052v7.896h7.897c0.034 0.178 0.052 0.348 0.052 0.497v18.878c0 0.27-0.227 0.497-0.497 0.497h-7.635v1.988h7.636c1.366 0 2.485-1.118 2.485-2.485v-18.878c-0-1.367-0.791-3.275-1.756-4.24zM22.046 8.081v-5.075c0.135 0.094 0.255 0.19 0.352 0.288l4.436 4.436c0.096 0.098 0.192 0.216 0.288 0.351h-5.075z"></path>
</svg>
