<?xml version="1.0" encoding="utf-8"?>
<!-- Generated by IcoMoon.io -->
<!DOCTYPE svg PUBLIC "-//W3C//DTD SVG 1.1//EN" "http://www.w3.org/Graphics/SVG/1.1/DTD/svg11.dtd">
<svg version="1.1" xmlns="http://www.w3.org/2000/svg" xmlns:xlink="http://www.w3.org/1999/xlink" width="32" height="32" viewBox="0 0 32 32">
<path d="M32 19.341l-4.197 4.315-0.369 0.386-8.042-8.042 0.369-0.369 7.303-7.286 0.369-0.386 0.369 0.386 4.197 4.315v-12.659h-12.659l4.315 4.197 0.386 0.369-8.042 8.042-0.369-0.369-7.286-7.303-0.386-0.369 0.386-0.369 4.315-4.197h-12.659v12.659l4.197-4.315 0.369-0.386 0.369 0.386 7.673 7.656-8.042 8.042-0.369-0.386-4.197-4.315v12.659h12.659l-4.315-4.197-0.386-0.369 0.386-0.369 7.656-7.673 8.042 8.042-0.386 0.369-4.315 4.197h12.659v-12.659z"></path>
</svg>
