<?xml version="1.0" encoding="utf-8"?>
<!-- Generated by IcoMoon.io -->
<!DOCTYPE svg PUBLIC "-//W3C//DTD SVG 1.1//EN" "http://www.w3.org/Graphics/SVG/1.1/DTD/svg11.dtd">
<svg version="1.1" xmlns="http://www.w3.org/2000/svg" xmlns:xlink="http://www.w3.org/1999/xlink" width="32" height="32" viewBox="0 0 32 32">
<path d="M29.438 6.402l-4.309-4.308c-0.986-0.988-2.927-1.792-4.326-1.792h-14.473c-1.493 0-2.708 1.215-2.708 2.708v6.551c0.771-0.501 1.619-0.89 2.523-1.148v-5.403c0-0.097 0.089-0.186 0.186-0.186h14.473c0.056 0 0.118 0.004 0.185 0.010v7.708h7.709c0.007 0.067 0.010 0.129 0.010 0.186v18.331c0 0.097-0.089 0.186-0.186 0.186h-5.203c-0.085 0.706-0.396 1.358-0.908 1.87-0.278 0.278-0.601 0.496-0.95 0.653h7.061c1.493 0 2.708-1.215 2.708-2.708v-18.331c-0.001-1.397-0.804-3.339-1.793-4.327zM23.512 8.021v-3.978l3.978 3.978h-3.978zM17.626 30.909l-0.014-0.015-0.014-0.016-1.387-1.63h-9.881c-0.097 0-0.186-0.089-0.186-0.186v-2.636c-0.904-0.258-1.752-0.647-2.523-1.148v3.784c0 1.493 1.215 2.708 2.708 2.708h12.489c-0.447-0.196-0.856-0.486-1.194-0.861zM20.437 30.541c0.068-0.011 0.134-0.031 0.201-0.051 0.044-0.013 0.089-0.022 0.131-0.038 0.072-0.028 0.14-0.066 0.208-0.103 0.034-0.019 0.070-0.033 0.103-0.054 0.099-0.065 0.194-0.139 0.282-0.226 0.723-0.724 0.654-1.909-0.152-2.635l-4.983-4.238c-0.126-0.114-0.254-0.211-0.382-0.295-0.043-0.028-0.086-0.046-0.13-0.071-0.085-0.049-0.17-0.099-0.253-0.135-0.051-0.022-0.1-0.033-0.15-0.051-0.074-0.026-0.148-0.053-0.22-0.069-0.052-0.011-0.1-0.012-0.149-0.018-0.076-0.009-0.155-0.022-0.226-0.018 1.176-1.377 1.887-3.165 1.887-5.119 0-4.357-3.532-7.889-7.889-7.889s-7.89 3.532-7.89 7.889 3.532 7.889 7.889 7.889c1.954 0 3.742-0.71 5.119-1.887-0.020 0.445 0.191 0.995 0.656 1.511l4.238 4.983c0.094 0.105 0.197 0.195 0.304 0.275 0.036 0.027 0.076 0.045 0.113 0.069 0.074 0.047 0.147 0.095 0.225 0.131 0.046 0.021 0.095 0.035 0.142 0.052 0.072 0.027 0.144 0.054 0.218 0.071 0.052 0.012 0.104 0.017 0.156 0.025 0.071 0.011 0.142 0.021 0.213 0.023 0.065 0.002 0.129-0.003 0.194-0.009 0.048-0.003 0.097-0.005 0.144-0.013zM8.715 22.678c-2.905 0-5.259-2.355-5.259-5.259s2.355-5.259 5.259-5.259 5.259 2.355 5.259 5.259-2.355 5.259-5.259 5.259z"></path>
</svg>
