<?xml version="1.0" encoding="utf-8"?>
<!-- Generated by IcoMoon.io -->
<!DOCTYPE svg PUBLIC "-//W3C//DTD SVG 1.1//EN" "http://www.w3.org/Graphics/SVG/1.1/DTD/svg11.dtd">
<svg version="1.1" xmlns="http://www.w3.org/2000/svg" xmlns:xlink="http://www.w3.org/1999/xlink" width="32" height="32" viewBox="0 0 32 32">
<path d="M26.656 21.944c2.675 0 4.844 2.169 4.844 4.844s-2.169 4.844-4.844 4.844c-2.675 0-4.844-2.169-4.844-4.844 0-0.261 0.022-0.518 0.061-0.768l-13.048-6.522c-0.88 0.911-2.114 1.478-3.481 1.478-2.675 0-4.844-2.169-4.844-4.844 0-2.674 2.169-4.844 4.844-4.844 1.367 0 2.6 0.568 3.481 1.478l13.048-6.524c-0.040-0.248-0.061-0.505-0.061-0.766 0-2.675 2.169-4.844 4.844-4.844s4.844 2.169 4.844 4.844c0 2.675-2.169 4.844-4.844 4.844-1.367 0-2.6-0.568-3.481-1.478l-13.048 6.524c0.039 0.248 0.061 0.505 0.061 0.766s-0.022 0.517-0.061 0.766l13.048 6.524c0.88-0.911 2.114-1.478 3.481-1.478z"></path>
</svg>
