<?xml version="1.0" encoding="utf-8"?>
<!-- Generated by IcoMoon.io -->
<!DOCTYPE svg PUBLIC "-//W3C//DTD SVG 1.1//EN" "http://www.w3.org/Graphics/SVG/1.1/DTD/svg11.dtd">
<svg version="1.1" xmlns="http://www.w3.org/2000/svg" xmlns:xlink="http://www.w3.org/1999/xlink" width="32" height="32" viewBox="0 0 32 32">
<path d="M30.501 28.939h-2.174c-1.544-4.461-8.108-23.341-9.198-24.938-1.081-1.588-2.501-1.889-3.33-1.812-0.832-0.077-2.249 0.225-3.331 1.812-1.089 1.597-7.653 20.477-9.196 24.938h-2.176c-0.717 0-1.298 0.581-1.298 1.298 0 0.716 0.581 1.298 1.298 1.298h29.405c0.717 0 1.298-0.582 1.298-1.298s-0.581-1.298-1.298-1.298zM18.044 7.174c0.53 1.335 1.254 3.267 2.075 5.513h-8.641c0.821-2.248 1.545-4.179 2.075-5.513h4.491zM21.321 16.002c0.52 1.445 1.057 2.95 1.593 4.465h-14.231c0.537-1.515 1.074-3.020 1.594-4.465h11.044zM24.085 23.782c0.512 1.457 1.009 2.88 1.475 4.22h-19.522c0.466-1.34 0.963-2.763 1.475-4.22h16.572z"></path>
</svg>
