<svg xmlns="http://www.w3.org/2000/svg" width="32" height="32" viewBox="0 0 32 32"><path d="M11.438 14.754a1.192 1.192 0 0 0-.618-.494 1.238 1.238 0 0 0-.416-.072c-.265 0-.49.052-.675.154s-.335.24-.45.412-.198.368-.251.589a2.908 2.908 0 0 0 0 1.339c.052.212.136.404.251.573s.265.306.45.409.41.154.675.154c.36 0 .642-.11.844-.33s.326-.511.371-.87h1.14c-.03.335-.107.637-.232.907s-.29.5-.495.69-.445.335-.72.435c-.275.099-.578.15-.908.15-.41 0-.779-.072-1.106-.214s-.604-.339-.829-.589-.398-.544-.518-.881a3.23 3.23 0 0 1-.18-1.091c0-.4.06-.771.18-1.114s.293-.642.518-.896.501-.455.829-.6a2.709 2.709 0 0 1 1.106-.217c.295 0 .573.043.836.127s.498.209.705.371c.207.162.379.364.514.604s.22.515.255.825h-1.14a.981.981 0 0 0-.135-.37zm3.779-1.429l1.252 3.683h.015l1.185-3.683h1.657v5.355h-1.102v-3.795h-.015l-1.313 3.795h-.907l-1.313-3.758h-.015v3.758h-1.103v-5.355h1.658zm6.323 0v4.364h2.61v.99h-3.787v-5.355h1.177zm6.503-6.928l-4.437-4.436C22.641.995 20.733.205 19.366.205H4.462a2.49 2.49 0 0 0-2.483 2.484v26.828a2.492 2.492 0 0 0 2.484 2.484h22.853a2.493 2.493 0 0 0 2.485-2.485V10.638c0-1.367-.791-3.275-1.757-4.24zm-1.406 1.406c.096.098.192.216.288.351h-5.076V3.079c.135.094.255.19.352.288l4.436 4.436zm1.174 21.714c0 .27-.227.497-.497.497H4.461a.504.504 0 0 1-.497-.497V2.689c0-.27.227-.497.497-.497h14.904c.151 0 .319.019.497.052v7.896h7.897c.034.178.052.348.052.497v18.879z"/></svg>