<?xml version="1.0" encoding="utf-8"?>
<!-- Generated by IcoMoon.io -->
<!DOCTYPE svg PUBLIC "-//W3C//DTD SVG 1.1//EN" "http://www.w3.org/Graphics/SVG/1.1/DTD/svg11.dtd">
<svg version="1.1" xmlns="http://www.w3.org/2000/svg" xmlns:xlink="http://www.w3.org/1999/xlink" width="32" height="32" viewBox="0 0 32 32">
<path d="M10.093 13.205c0.348 0 0.67 0.056 0.97 0.167 0.299 0.11 0.558 0.276 0.777 0.498s0.39 0.498 0.513 0.83 0.185 0.722 0.185 1.17c0 0.393-0.050 0.755-0.151 1.087s-0.252 0.619-0.456 0.86c-0.204 0.241-0.458 0.432-0.763 0.57s-0.663 0.207-1.076 0.207h-2.324v-5.389h2.325zM10.010 17.598c0.171 0 0.337-0.027 0.498-0.083s0.305-0.147 0.431-0.275c0.125-0.128 0.227-0.296 0.302-0.502s0.113-0.458 0.113-0.755c0-0.272-0.026-0.517-0.080-0.736s-0.139-0.406-0.26-0.562-0.281-0.276-0.479-0.359c-0.199-0.083-0.444-0.125-0.736-0.125h-0.846v3.397h1.057zM13.309 14.801c0.121-0.345 0.294-0.646 0.521-0.902 0.227-0.257 0.504-0.458 0.834-0.604s0.701-0.219 1.113-0.219c0.418 0 0.79 0.073 1.117 0.219s0.604 0.347 0.83 0.604c0.227 0.256 0.4 0.557 0.521 0.902 0.12 0.345 0.181 0.718 0.181 1.121 0 0.392-0.061 0.758-0.181 1.098s-0.295 0.635-0.521 0.887-0.503 0.449-0.83 0.593-0.699 0.215-1.117 0.215c-0.413 0-0.784-0.071-1.113-0.215s-0.607-0.341-0.834-0.593-0.4-0.547-0.521-0.887c-0.121-0.339-0.182-0.706-0.182-1.098 0-0.403 0.061-0.776 0.182-1.121zM14.392 16.583c0.053 0.213 0.137 0.406 0.252 0.577s0.267 0.309 0.453 0.411c0.186 0.104 0.413 0.155 0.679 0.155s0.493-0.052 0.679-0.155c0.187-0.103 0.337-0.24 0.453-0.411s0.2-0.364 0.252-0.577c0.054-0.214 0.080-0.435 0.080-0.661 0-0.237-0.026-0.465-0.080-0.687s-0.137-0.419-0.252-0.593c-0.116-0.173-0.267-0.312-0.453-0.415s-0.413-0.155-0.679-0.155-0.493 0.051-0.679 0.155c-0.187 0.103-0.337 0.242-0.453 0.415-0.116 0.174-0.2 0.371-0.252 0.593s-0.080 0.45-0.080 0.687c0 0.226 0.026 0.447 0.080 0.661zM22.69 14.643c-0.070-0.113-0.158-0.212-0.264-0.298s-0.226-0.152-0.358-0.2c-0.134-0.048-0.273-0.072-0.42-0.072-0.267 0-0.492 0.051-0.679 0.155s-0.337 0.242-0.453 0.415c-0.115 0.174-0.2 0.371-0.253 0.593s-0.079 0.45-0.079 0.687c0 0.226 0.026 0.446 0.079 0.661 0.053 0.213 0.138 0.406 0.253 0.577 0.116 0.171 0.267 0.309 0.453 0.411 0.187 0.104 0.412 0.155 0.679 0.155 0.363 0 0.646-0.111 0.85-0.332 0.204-0.222 0.328-0.514 0.374-0.876h1.146c-0.029 0.337-0.107 0.642-0.233 0.913s-0.292 0.504-0.498 0.694c-0.207 0.191-0.448 0.338-0.725 0.438-0.276 0.1-0.581 0.15-0.914 0.15-0.412 0-0.783-0.071-1.112-0.215s-0.608-0.341-0.835-0.593c-0.226-0.252-0.399-0.547-0.521-0.887-0.119-0.338-0.18-0.705-0.18-1.097 0-0.403 0.061-0.776 0.181-1.121s0.295-0.646 0.521-0.902c0.227-0.257 0.505-0.458 0.835-0.604 0.329-0.146 0.7-0.219 1.112-0.219 0.297 0 0.578 0.042 0.842 0.128 0.265 0.086 0.501 0.21 0.71 0.374s0.381 0.366 0.517 0.608c0.136 0.241 0.222 0.519 0.257 0.83h-1.147c-0.021-0.136-0.067-0.26-0.138-0.373zM28.009 6.233l-4.466-4.465c-0.97-0.973-2.892-1.768-4.267-1.768h-15c-1.375 0-2.5 1.125-2.5 2.5v27c0 1.375 1.125 2.5 2.5 2.5h23c1.375 0 2.5-1.125 2.5-2.5v-19c0-1.374-0.796-3.295-1.767-4.267zM26.595 7.647c0.098 0.098 0.194 0.218 0.29 0.354h-5.108v-5.108c0.136 0.095 0.256 0.191 0.354 0.289l4.464 4.465zM27.776 29.501c0 0.271-0.229 0.5-0.5 0.5h-23c-0.271 0-0.5-0.229-0.5-0.5v-27c0-0.271 0.229-0.5 0.5-0.5h15c0.151 0 0.32 0.020 0.5 0.052v7.948h7.947c0.034 0.18 0.053 0.35 0.053 0.5v19z"></path>
</svg>
