<svg xmlns="http://www.w3.org/2000/svg" width="32" height="32" viewBox="0 0 32 32"><path d="M12.284 18.639a1.962 1.962 0 0 1-.772.161c-.41 0-.779-.072-1.106-.214s-.604-.339-.829-.589-.398-.544-.518-.881a3.23 3.23 0 0 1-.18-1.091c0-.4.06-.771.18-1.114s.293-.642.518-.896.501-.455.829-.6a2.709 2.709 0 0 1 1.106-.217c.275 0 .541.041.799.123s.49.204.697.364c.207.16.379.357.514.593s.217.505.248.81h-1.125c-.07-.3-.205-.525-.405-.675s-.443-.225-.728-.225c-.265 0-.49.052-.675.154s-.335.24-.45.412-.198.368-.251.589a2.908 2.908 0 0 0 0 1.339c.052.212.136.404.251.573s.265.306.45.409.41.154.675.154c.39 0 .691-.099.904-.296s.336-.484.371-.859h-1.185v-.877h2.25v2.895h-.75l-.12-.608c-.21.271-.442.46-.697.568zm6.286-5.314v.989h-2.587v1.238h2.242v.915h-2.242v2.212h-1.178v-5.355h3.764zm4.447 0v.989H20.43v1.238h2.242v.915H20.43v2.212h-1.177v-5.355h3.765zm5.026-6.928l-4.437-4.436C22.641.995 20.733.205 19.366.205H4.462a2.49 2.49 0 0 0-2.483 2.484v26.828a2.492 2.492 0 0 0 2.484 2.484h22.853a2.493 2.493 0 0 0 2.485-2.485V10.638c0-1.367-.791-3.275-1.757-4.24zm-1.406 1.406c.096.098.192.216.288.351h-5.076V3.079c.135.094.255.19.352.288l4.436 4.436zm1.174 21.714c0 .27-.227.497-.497.497H4.461a.504.504 0 0 1-.497-.497V2.689c0-.27.227-.497.497-.497h14.904c.151 0 .319.019.497.052v7.896h7.897c.034.178.052.348.052.497v18.879z"/></svg>