<svg xmlns="http://www.w3.org/2000/svg" width="32" height="32" viewBox="0 0 32 32"><path d="M10.229 13.325v5.355H9.051v-5.355h1.178zm2.693 0l1.252 3.683h.015l1.185-3.683h1.657v5.355h-1.102v-3.795h-.015l-1.313 3.795h-.908l-1.313-3.758h-.015v3.758h-1.103v-5.355h1.658zm8.317 5.314a1.963 1.963 0 0 1-.773.161c-.41 0-.779-.072-1.106-.214s-.604-.339-.829-.589c-.224-.25-.398-.544-.517-.881s-.18-.701-.18-1.091c0-.4.06-.771.18-1.114s.293-.642.517-.896c.225-.255.502-.455.829-.6s.697-.217 1.106-.217c.275 0 .541.041.799.123s.49.204.698.364a1.973 1.973 0 0 1 .761 1.403h-1.125c-.07-.3-.205-.525-.405-.675-.2-.15-.442-.225-.727-.225-.265 0-.489.052-.675.154s-.335.24-.45.412a1.827 1.827 0 0 0-.251.589 2.908 2.908 0 0 0 0 1.339c.053.212.136.404.251.573.115.17.265.306.45.409s.41.154.675.154c.39 0 .692-.099.904-.296s.337-.484.371-.859h-1.184v-.877h2.25v2.895h-.75l-.12-.608c-.21.271-.443.46-.698.568zm6.804-12.242l-4.437-4.436C22.641.995 20.733.205 19.366.205H4.462a2.49 2.49 0 0 0-2.483 2.484v26.828a2.492 2.492 0 0 0 2.484 2.484h22.853a2.493 2.493 0 0 0 2.485-2.485V10.638c0-1.367-.791-3.275-1.757-4.24zm-1.406 1.406c.096.098.192.216.288.351h-5.076V3.079c.135.094.255.19.352.288l4.436 4.436zm1.174 21.714c0 .27-.227.497-.497.497H4.461a.504.504 0 0 1-.497-.497V2.689c0-.27.227-.497.497-.497h14.904c.151 0 .319.019.497.052v7.896h7.897c.034.178.052.348.052.497v18.879z"/></svg>