<?xml version="1.0" encoding="utf-8"?>
<!-- Generated by IcoMoon.io -->
<!DOCTYPE svg PUBLIC "-//W3C//DTD SVG 1.1//EN" "http://www.w3.org/Graphics/SVG/1.1/DTD/svg11.dtd">
<svg version="1.1" xmlns="http://www.w3.org/2000/svg" xmlns:xlink="http://www.w3.org/1999/xlink" width="32" height="32" viewBox="0 0 32 32">
<path d="M7.652 14.911c0.12-0.343 0.293-0.642 0.518-0.896s0.501-0.455 0.829-0.6c0.328-0.145 0.697-0.217 1.106-0.217 0.415 0 0.785 0.072 1.11 0.217s0.6 0.345 0.825 0.6c0.225 0.255 0.398 0.553 0.518 0.896s0.18 0.713 0.18 1.114c0 0.39-0.060 0.753-0.18 1.091s-0.293 0.631-0.518 0.881-0.5 0.447-0.825 0.589c-0.325 0.142-0.695 0.214-1.11 0.214-0.41 0-0.779-0.072-1.106-0.214s-0.604-0.339-0.829-0.589-0.397-0.544-0.518-0.881c-0.12-0.337-0.18-0.701-0.18-1.091-0-0.4 0.059-0.771 0.18-1.114zM8.729 16.681c0.053 0.212 0.136 0.404 0.251 0.573s0.265 0.306 0.45 0.409 0.41 0.154 0.675 0.154c0.265 0 0.49-0.052 0.675-0.154s0.335-0.239 0.45-0.409 0.198-0.361 0.251-0.573c0.053-0.213 0.079-0.431 0.079-0.656 0-0.236-0.027-0.463-0.079-0.682s-0.136-0.416-0.251-0.589-0.265-0.31-0.45-0.412c-0.185-0.102-0.41-0.154-0.675-0.154s-0.49 0.052-0.675 0.154-0.335 0.24-0.45 0.412-0.198 0.368-0.251 0.589-0.079 0.447-0.079 0.682c0 0.224 0.027 0.443 0.079 0.656zM17.469 18.68l-0.907-3.645h-0.015l-0.892 3.645h-1.192l-1.418-5.355h1.178l0.848 3.645h0.015l0.929-3.645h1.103l0.915 3.69h0.015l0.878-3.69h1.155l-1.44 5.355h-1.171zM21.797 13.325v4.364h2.61v0.99h-3.788v-5.355h1.177zM28.238 6.397l-4.437-4.436c-0.965-0.966-2.874-1.756-4.24-1.756h-14.904c-1.366 0-2.484 1.117-2.484 2.484v26.828c0 1.366 1.117 2.484 2.484 2.484h22.853c1.366 0 2.485-1.118 2.485-2.485v-18.878c-0-1.367-0.791-3.275-1.756-4.24zM26.834 7.803c0.096 0.098 0.192 0.216 0.288 0.351h-5.075v-5.075c0.135 0.094 0.255 0.19 0.352 0.288l4.436 4.436zM28.008 29.517c0 0.27-0.227 0.497-0.497 0.497h-22.853c-0.269 0-0.497-0.227-0.497-0.497v-26.828c0-0.27 0.227-0.497 0.497-0.497h14.904c0.151 0 0.319 0.019 0.497 0.052v7.896h7.897c0.034 0.178 0.052 0.348 0.052 0.497v18.879z"></path>
</svg>
