<?xml version="1.0" encoding="utf-8"?>
<!-- Generated by IcoMoon.io -->
<!DOCTYPE svg PUBLIC "-//W3C//DTD SVG 1.1//EN" "http://www.w3.org/Graphics/SVG/1.1/DTD/svg11.dtd">
<svg version="1.1" xmlns="http://www.w3.org/2000/svg" xmlns:xlink="http://www.w3.org/1999/xlink" width="32" height="32" viewBox="0 0 32 32">
<path d="M11.318 13.325c0.335 0 0.62 0.049 0.855 0.146s0.426 0.226 0.573 0.386c0.148 0.159 0.255 0.342 0.322 0.547s0.101 0.418 0.101 0.637c0 0.216-0.034 0.427-0.101 0.634s-0.175 0.391-0.322 0.551-0.339 0.289-0.573 0.386c-0.235 0.098-0.521 0.146-0.855 0.146h-1.238v1.92h-1.178v-5.355h2.415zM10.995 15.845c0.135 0 0.265-0.010 0.39-0.030s0.235-0.059 0.33-0.116c0.095-0.057 0.171-0.139 0.229-0.243s0.086-0.242 0.086-0.412c0-0.17-0.029-0.307-0.086-0.412s-0.134-0.187-0.229-0.244c-0.095-0.057-0.205-0.096-0.33-0.116s-0.255-0.030-0.39-0.030h-0.915v1.605h0.915zM16.215 13.325c0.345 0 0.666 0.055 0.963 0.165s0.555 0.275 0.773 0.495c0.218 0.22 0.387 0.495 0.511 0.825s0.183 0.718 0.183 1.162c0 0.39-0.050 0.75-0.15 1.080s-0.252 0.614-0.453 0.855c-0.203 0.239-0.455 0.428-0.758 0.567-0.302 0.137-0.659 0.206-1.069 0.206h-2.31v-5.355h2.31zM16.133 17.689c0.17 0 0.334-0.027 0.494-0.082s0.302-0.146 0.427-0.274 0.225-0.294 0.3-0.499c0.075-0.204 0.113-0.454 0.113-0.75 0-0.27-0.026-0.514-0.079-0.731s-0.139-0.404-0.259-0.559c-0.119-0.155-0.279-0.274-0.476-0.357s-0.441-0.124-0.731-0.124h-0.84v3.375h1.050zM23.227 13.325v0.989h-2.587v1.238h2.242v0.915h-2.242v2.212h-1.177v-5.355h3.765zM28.043 6.397l-4.437-4.436c-0.965-0.966-2.873-1.756-4.24-1.756h-14.904c-1.366 0-2.483 1.117-2.483 2.484v26.828c0 1.366 1.118 2.484 2.484 2.484h22.853c1.366 0 2.485-1.118 2.485-2.485v-18.878c-0-1.367-0.791-3.275-1.757-4.24zM26.637 7.803c0.096 0.098 0.192 0.216 0.288 0.351h-5.076v-5.075c0.135 0.094 0.255 0.19 0.352 0.288l4.436 4.436zM27.811 29.517c0 0.27-0.227 0.497-0.497 0.497h-22.853c-0.269 0-0.497-0.227-0.497-0.497v-26.828c0-0.27 0.227-0.497 0.497-0.497h14.904c0.151 0 0.319 0.019 0.497 0.052v7.896h7.897c0.034 0.178 0.052 0.348 0.052 0.497v18.879z"></path>
</svg>
