<svg xmlns="http://www.w3.org/2000/svg" width="32" height="32" viewBox="0 0 32 32"><path d="M11.318 13.325c.335 0 .62.049.855.146s.426.226.573.386c.148.159.255.342.322.547a2.04 2.04 0 0 1 0 1.271 1.48 1.48 0 0 1-.895.937 2.225 2.225 0 0 1-.855.146H10.08v1.92H8.902v-5.355h2.415zm-.323 2.52c.135 0 .265-.01.39-.03s.235-.059.33-.116c.095-.057.171-.139.229-.243s.086-.242.086-.412c0-.17-.029-.307-.086-.412s-.134-.187-.229-.244c-.095-.057-.205-.096-.33-.116s-.255-.03-.39-.03h-.915v1.605h.915zm5.22-2.52c.345 0 .666.055.963.165s.555.275.773.495c.218.22.387.495.511.825s.183.718.183 1.162c0 .39-.05.75-.15 1.08s-.252.614-.453.855a2.16 2.16 0 0 1-.758.567c-.302.137-.659.206-1.069.206h-2.31v-5.355h2.31zm-.082 4.364c.17 0 .334-.027.494-.082s.302-.146.427-.274.225-.294.3-.499c.075-.204.113-.454.113-.75 0-.27-.026-.514-.079-.731s-.139-.404-.259-.559c-.119-.155-.279-.274-.476-.357s-.441-.124-.731-.124h-.84v3.375h1.05zm7.094-4.364v.989H20.64v1.238h2.242v.915H20.64v2.212h-1.177v-5.355h3.765zm4.816-6.928l-4.437-4.436C22.641.995 20.733.205 19.366.205H4.462a2.49 2.49 0 0 0-2.483 2.484v26.828a2.492 2.492 0 0 0 2.484 2.484h22.853a2.493 2.493 0 0 0 2.485-2.485V10.638c0-1.367-.791-3.275-1.757-4.24zm-1.406 1.406c.096.098.192.216.288.351h-5.076V3.079c.135.094.255.19.352.288l4.436 4.436zm1.174 21.714c0 .27-.227.497-.497.497H4.461a.504.504 0 0 1-.497-.497V2.689c0-.27.227-.497.497-.497h14.904c.151 0 .319.019.497.052v7.896h7.897c.034.178.052.348.052.497v18.879z"/></svg>