<?xml version="1.0" encoding="utf-8"?>
<!-- Generated by IcoMoon.io -->
<!DOCTYPE svg PUBLIC "-//W3C//DTD SVG 1.1//EN" "http://www.w3.org/Graphics/SVG/1.1/DTD/svg11.dtd">
<svg version="1.1" xmlns="http://www.w3.org/2000/svg" xmlns:xlink="http://www.w3.org/1999/xlink" width="32" height="32" viewBox="0 0 32 32">
<path d="M10.201 11.335c0.36 0 0.666 0.052 0.918 0.157 0.252 0.104 0.458 0.243 0.616 0.415 0.159 0.172 0.274 0.367 0.346 0.587 0.073 0.22 0.109 0.448 0.109 0.685 0 0.231-0.036 0.458-0.109 0.68-0.072 0.223-0.188 0.42-0.346 0.592s-0.364 0.31-0.616 0.415c-0.252 0.105-0.558 0.157-0.918 0.157h-1.328v2.061h-1.264v-5.749h2.592zM9.855 14.040c0.145 0 0.285-0.011 0.418-0.032 0.134-0.021 0.252-0.063 0.354-0.125s0.184-0.149 0.246-0.261c0.062-0.113 0.092-0.26 0.092-0.443s-0.031-0.33-0.092-0.443c-0.062-0.113-0.144-0.2-0.246-0.262s-0.22-0.103-0.354-0.125c-0.133-0.021-0.273-0.032-0.418-0.032h-0.982v1.723h0.982zM12.882 14.101c0.102-0.271 0.247-0.501 0.435-0.692 0.188-0.19 0.414-0.338 0.676-0.443 0.263-0.104 0.559-0.157 0.886-0.157s0.624 0.053 0.89 0.157c0.266 0.105 0.493 0.252 0.68 0.443s0.333 0.421 0.435 0.692 0.152 0.573 0.152 0.906-0.051 0.633-0.152 0.902c-0.103 0.268-0.248 0.498-0.435 0.688-0.188 0.19-0.415 0.336-0.68 0.439-0.266 0.102-0.562 0.153-0.89 0.153s-0.623-0.051-0.886-0.153c-0.263-0.103-0.488-0.249-0.676-0.439s-0.333-0.42-0.435-0.688c-0.102-0.269-0.153-0.569-0.153-0.902s0.051-0.635 0.153-0.906zM13.921 15.493c0.032 0.158 0.087 0.301 0.165 0.427s0.181 0.227 0.31 0.302c0.128 0.075 0.29 0.112 0.483 0.112s0.355-0.037 0.487-0.112c0.131-0.075 0.236-0.176 0.314-0.302s0.133-0.269 0.165-0.427 0.048-0.32 0.048-0.487-0.016-0.33-0.048-0.491c-0.032-0.162-0.087-0.303-0.165-0.427s-0.183-0.224-0.314-0.302c-0.132-0.078-0.294-0.117-0.487-0.117s-0.354 0.039-0.483 0.117c-0.129 0.078-0.232 0.178-0.31 0.302s-0.133 0.266-0.165 0.427c-0.032 0.161-0.048 0.324-0.048 0.491s0.016 0.329 0.048 0.487zM18.739 16.049c0.051 0.088 0.117 0.161 0.197 0.217 0.081 0.057 0.173 0.098 0.278 0.125 0.104 0.027 0.213 0.041 0.326 0.041 0.080 0 0.164-0.010 0.253-0.028 0.089-0.019 0.169-0.048 0.241-0.089 0.073-0.040 0.134-0.094 0.182-0.161s0.072-0.152 0.072-0.253c0-0.172-0.114-0.301-0.342-0.387-0.229-0.085-0.547-0.172-0.954-0.258-0.166-0.037-0.329-0.082-0.487-0.133s-0.3-0.118-0.423-0.201-0.223-0.188-0.298-0.314c-0.075-0.126-0.112-0.281-0.112-0.463 0-0.269 0.052-0.489 0.157-0.661 0.104-0.171 0.242-0.307 0.414-0.406s0.365-0.169 0.58-0.209c0.214-0.040 0.435-0.061 0.66-0.061s0.444 0.022 0.656 0.064c0.212 0.043 0.401 0.116 0.567 0.218s0.305 0.237 0.415 0.406c0.109 0.169 0.176 0.382 0.196 0.64h-1.086c-0.017-0.22-0.1-0.369-0.25-0.447s-0.328-0.117-0.531-0.117c-0.064 0-0.135 0.004-0.21 0.012s-0.144 0.026-0.205 0.053c-0.062 0.026-0.114 0.066-0.157 0.117s-0.064 0.119-0.064 0.205c0 0.103 0.038 0.186 0.113 0.25s0.173 0.116 0.294 0.157c0.12 0.040 0.259 0.077 0.414 0.109s0.314 0.067 0.476 0.104c0.166 0.038 0.329 0.083 0.487 0.137s0.299 0.125 0.422 0.213c0.124 0.089 0.223 0.199 0.298 0.33s0.113 0.294 0.113 0.487c0 0.273-0.055 0.503-0.165 0.688s-0.254 0.334-0.431 0.447-0.38 0.192-0.608 0.238c-0.228 0.045-0.46 0.068-0.696 0.068-0.241 0-0.478-0.024-0.708-0.072-0.23-0.049-0.437-0.129-0.616-0.242-0.18-0.112-0.327-0.261-0.442-0.446-0.116-0.186-0.179-0.417-0.189-0.697h1.087c0 0.124 0.025 0.23 0.076 0.319zM24.388 12.921v0.765h-0.838v2.061c0 0.193 0.032 0.322 0.097 0.387s0.193 0.096 0.387 0.096c0.064 0 0.126-0.002 0.185-0.008 0.060-0.005 0.116-0.013 0.17-0.024v0.885c-0.097 0.016-0.204 0.027-0.322 0.033-0.118 0.005-0.233 0.008-0.347 0.008-0.177 0-0.345-0.012-0.503-0.037s-0.298-0.071-0.419-0.141c-0.12-0.069-0.216-0.169-0.285-0.298-0.070-0.128-0.105-0.297-0.105-0.507v-2.456h-0.692v-0.765h0.692v-1.248h1.144v1.248h0.836zM5.894 23.718c0.070 0.135 0.162 0.243 0.278 0.326 0.115 0.083 0.251 0.145 0.406 0.186 0.156 0.040 0.317 0.061 0.483 0.061 0.112 0 0.233-0.010 0.362-0.029 0.128-0.019 0.25-0.055 0.362-0.108s0.207-0.127 0.282-0.221 0.113-0.214 0.113-0.358c0-0.156-0.050-0.282-0.149-0.379-0.1-0.097-0.229-0.177-0.391-0.241s-0.344-0.121-0.547-0.169c-0.204-0.049-0.411-0.102-0.62-0.161-0.215-0.054-0.424-0.12-0.628-0.197-0.204-0.078-0.387-0.179-0.548-0.303-0.161-0.123-0.291-0.277-0.39-0.463-0.1-0.185-0.149-0.408-0.149-0.672 0-0.295 0.063-0.552 0.189-0.769 0.126-0.218 0.292-0.398 0.495-0.543 0.204-0.146 0.435-0.253 0.692-0.323 0.258-0.069 0.516-0.104 0.773-0.104 0.301 0 0.589 0.034 0.866 0.101s0.522 0.177 0.737 0.327c0.214 0.149 0.385 0.342 0.511 0.575s0.189 0.517 0.189 0.85h-1.223c-0.011-0.172-0.047-0.314-0.109-0.427s-0.144-0.201-0.246-0.266c-0.102-0.064-0.218-0.11-0.35-0.138-0.131-0.026-0.275-0.040-0.431-0.040-0.102 0-0.204 0.011-0.306 0.032s-0.194 0.060-0.277 0.113c-0.083 0.053-0.152 0.12-0.206 0.201-0.054 0.080-0.081 0.183-0.081 0.306 0 0.113 0.021 0.204 0.064 0.273 0.043 0.070 0.127 0.135 0.253 0.193 0.126 0.060 0.301 0.118 0.523 0.178 0.223 0.059 0.514 0.134 0.874 0.226 0.107 0.021 0.256 0.060 0.447 0.116s0.379 0.146 0.567 0.27 0.35 0.288 0.487 0.495c0.137 0.207 0.206 0.471 0.206 0.794 0 0.263-0.051 0.507-0.153 0.732s-0.254 0.42-0.455 0.583c-0.201 0.164-0.451 0.292-0.749 0.383s-0.643 0.137-1.035 0.137c-0.317 0-0.624-0.039-0.922-0.116-0.298-0.078-0.561-0.2-0.789-0.367-0.229-0.166-0.409-0.378-0.543-0.636s-0.199-0.563-0.193-0.918h1.224c0.002 0.192 0.037 0.356 0.107 0.49zM12.021 21.721c-0.183 0-0.335 0.042-0.459 0.125-0.124 0.084-0.224 0.19-0.302 0.322s-0.133 0.276-0.165 0.435c-0.032 0.159-0.049 0.315-0.049 0.472 0 0.15 0.017 0.303 0.049 0.459s0.084 0.296 0.157 0.422c0.073 0.127 0.17 0.229 0.294 0.311 0.124 0.080 0.274 0.12 0.451 0.12 0.274 0 0.484-0.076 0.632-0.229s0.24-0.358 0.278-0.615h1.103c-0.075 0.553-0.29 0.974-0.645 1.264-0.354 0.29-0.808 0.435-1.36 0.435-0.312 0-0.597-0.053-0.857-0.156-0.261-0.104-0.482-0.251-0.665-0.439-0.182-0.188-0.325-0.412-0.426-0.672s-0.153-0.547-0.153-0.857c0-0.322 0.047-0.622 0.141-0.897 0.094-0.277 0.232-0.516 0.415-0.717s0.405-0.358 0.668-0.472c0.263-0.112 0.563-0.169 0.901-0.169 0.247 0 0.484 0.032 0.713 0.097 0.228 0.064 0.432 0.162 0.612 0.294s0.326 0.296 0.438 0.491c0.113 0.196 0.177 0.428 0.193 0.696h-1.119c-0.075-0.481-0.357-0.72-0.845-0.72zM15.741 20.972v0.773h0.016c0.054-0.129 0.126-0.248 0.217-0.358s0.196-0.204 0.314-0.281c0.118-0.078 0.244-0.139 0.378-0.182s0.273-0.064 0.418-0.064c0.075 0 0.158 0.014 0.25 0.040v1.063c-0.054-0.011-0.118-0.021-0.193-0.028s-0.148-0.012-0.218-0.012c-0.209 0-0.386 0.034-0.531 0.104-0.145 0.069-0.262 0.165-0.35 0.285s-0.152 0.262-0.189 0.423c-0.038 0.161-0.056 0.336-0.056 0.523v1.876h-1.144v-4.163h1.088zM17.817 20.328v-0.941h1.144v0.941h-1.144zM18.961 20.972v4.163h-1.144v-4.163h1.144zM20.949 20.975h-1.087v5.621h1.144v-1.974h0.016c0.14 0.205 0.318 0.36 0.536 0.464 0.217 0.103 0.455 0.156 0.713 0.156 0.306 0 0.572-0.059 0.801-0.177 0.227-0.119 0.419-0.277 0.571-0.475 0.154-0.2 0.268-0.427 0.343-0.685s0.112-0.527 0.112-0.806c0-0.295-0.038-0.579-0.112-0.85-0.076-0.271-0.192-0.508-0.347-0.712s-0.351-0.367-0.588-0.491-0.518-0.186-0.845-0.186c-0.259 0-0.494 0.052-0.709 0.153s-0.392 0.265-0.531 0.491h-0.017v-0.532zM22.436 24.273c-0.127 0.076-0.285 0.113-0.472 0.112-0.183 0-0.338-0.037-0.467-0.112s-0.233-0.173-0.311-0.294c-0.077-0.121-0.134-0.262-0.169-0.423-0.034-0.161-0.052-0.324-0.052-0.491 0-0.171 0.016-0.338 0.048-0.499s0.087-0.303 0.165-0.427c0.078-0.123 0.181-0.224 0.306-0.302 0.127-0.077 0.284-0.117 0.472-0.117 0.183 0 0.337 0.040 0.463 0.117s0.23 0.18 0.311 0.306c0.080 0.126 0.138 0.27 0.173 0.431s0.052 0.325 0.052 0.491c0 0.167-0.016 0.33-0.048 0.491s-0.088 0.302-0.165 0.423c-0.078 0.121-0.181 0.219-0.306 0.294zM27.068 20.972v0.766h-0.838v2.061c0 0.193 0.033 0.323 0.097 0.387s0.193 0.097 0.388 0.097c0.063 0 0.125-0.002 0.185-0.008s0.115-0.014 0.169-0.024v0.886c-0.097 0.017-0.203 0.027-0.322 0.032-0.118 0.005-0.233 0.008-0.346 0.008-0.178 0-0.346-0.012-0.504-0.036-0.158-0.023-0.298-0.070-0.419-0.141-0.12-0.069-0.216-0.169-0.285-0.298-0.070-0.129-0.104-0.298-0.104-0.507v-2.456h-0.692v-0.766h0.692v-1.248h1.143v1.247h0.836zM28.009 6.233l-4.466-4.465c-0.97-0.973-2.892-1.768-4.267-1.768h-15c-1.375 0-2.5 1.125-2.5 2.5v27c0 1.375 1.125 2.5 2.5 2.5h23c1.375 0 2.5-1.125 2.5-2.5v-19c0-1.374-0.796-3.295-1.767-4.267zM26.595 7.647c0.098 0.098 0.194 0.218 0.29 0.354h-5.108v-5.108c0.136 0.095 0.256 0.191 0.354 0.289l4.464 4.465zM27.776 29.501c0 0.271-0.229 0.5-0.5 0.5h-23c-0.271 0-0.5-0.229-0.5-0.5v-27c0-0.271 0.229-0.5 0.5-0.5h15c0.151 0 0.32 0.020 0.5 0.052v7.948h7.947c0.034 0.18 0.053 0.35 0.053 0.5v19z"></path>
</svg>
