<svg xmlns="http://www.w3.org/2000/svg" width="32" height="32" viewBox="0 0 32 32"><path d="M8.899 14.315v-.989h4.388v.989h-1.605v4.365h-1.178v-4.365H8.899zm5.902 3.045c.065.125.151.226.259.303s.233.135.379.172.295.056.45.056c.105 0 .218-.009.337-.026s.233-.051.337-.101.192-.119.262-.206a.515.515 0 0 0 .105-.334c0-.145-.047-.262-.139-.352s-.213-.165-.363-.225c-.15-.059-.32-.113-.51-.157s-.383-.095-.578-.15c-.2-.05-.395-.111-.585-.184s-.36-.166-.51-.281c-.15-.114-.271-.259-.364-.431s-.139-.382-.139-.626c0-.275.059-.514.176-.716s.271-.371.462-.507c.19-.136.405-.235.645-.3s.48-.098.72-.098c.28 0 .548.031.806.094s.486.164.686.303c.2.14.359.319.477.536.117.218.177.482.177.791h-1.14c-.011-.16-.044-.293-.101-.398s-.134-.188-.229-.248-.204-.102-.326-.127-.256-.037-.401-.037c-.095 0-.19.01-.285.03s-.181.055-.258.105c-.078.05-.142.113-.191.188s-.075.17-.075.285c0 .105.02.19.06.255s.118.125.236.18.28.11.488.165.479.125.813.21c.1.02.239.056.416.109.177.052.354.136.529.251s.326.269.454.461.191.439.191.739c0 .245-.047.472-.142.682s-.236.392-.424.544c-.188.153-.421.271-.698.357s-.599.128-.963.128c-.295 0-.582-.037-.858-.109s-.523-.186-.735-.341c-.213-.155-.382-.352-.506-.593s-.185-.525-.18-.855h1.14c0 .18.033.332.098.457zm5.129 1.32l-1.732-5.355h1.207l1.192 3.765h.015l1.207-3.765h1.215l-1.777 5.355h-1.328zm8.113-12.283l-4.437-4.436C22.641.995 20.733.205 19.366.205H4.462a2.49 2.49 0 0 0-2.483 2.484v26.828a2.492 2.492 0 0 0 2.484 2.484h22.853a2.493 2.493 0 0 0 2.485-2.485V10.638c0-1.367-.791-3.275-1.757-4.24zm-1.406 1.406c.096.098.192.216.288.351h-5.076V3.079c.135.094.255.19.352.288l4.436 4.436zm1.174 21.714c0 .27-.227.497-.497.497H4.461a.504.504 0 0 1-.497-.497V2.689c0-.27.227-.497.497-.497h14.904c.151 0 .319.019.497.052v7.896h7.897c.034.178.052.348.052.497v18.879z"/></svg>