<?xml version="1.0" encoding="utf-8"?>
<!-- Generated by IcoMoon.io -->
<!DOCTYPE svg PUBLIC "-//W3C//DTD SVG 1.1//EN" "http://www.w3.org/Graphics/SVG/1.1/DTD/svg11.dtd">
<svg version="1.1" xmlns="http://www.w3.org/2000/svg" xmlns:xlink="http://www.w3.org/1999/xlink" width="32" height="32" viewBox="0 0 32 32">
<path d="M7.704 13.205l1.736 2.566-1.879 2.823h1.327l1.2-1.864 1.177 1.864h1.412l-1.879-2.815 1.729-2.574h-1.298l-1.094 1.721-1.057-1.721h-1.374zM14.822 13.205l1.261 3.707h0.015l1.192-3.707h1.668v5.389h-1.109v-3.819h-0.015l-1.321 3.819h-0.914l-1.321-3.781h-0.015v3.781h-1.109v-5.389h1.668zM21.185 13.205v4.393h2.627v0.996h-3.812v-5.389h1.185zM28.009 6.233l-4.466-4.465c-0.97-0.973-2.892-1.768-4.267-1.768h-15c-1.375 0-2.5 1.125-2.5 2.5v27c0 1.375 1.125 2.5 2.5 2.5h23c1.375 0 2.5-1.125 2.5-2.5v-19c0-1.374-0.796-3.295-1.767-4.267zM26.595 7.647c0.098 0.098 0.194 0.218 0.29 0.354h-5.108v-5.108c0.136 0.095 0.256 0.191 0.354 0.289l4.464 4.465zM27.776 29.501c0 0.271-0.229 0.5-0.5 0.5h-23c-0.271 0-0.5-0.229-0.5-0.5v-27c0-0.271 0.229-0.5 0.5-0.5h15c0.151 0 0.32 0.020 0.5 0.052v7.948h7.947c0.034 0.18 0.053 0.35 0.053 0.5v19z"></path>
</svg>
