<svg xmlns="http://www.w3.org/2000/svg" width="32" height="32" viewBox="0 0 32 32"><path d="M12.91 14.349h-2.648v-.99h4.215v.93l-2.873 3.435h2.947v.99h-4.515v-.93l2.873-3.435zm3.435-.99v5.355h-1.177v-5.355h1.177zm3.375 0c.335 0 .619.049.855.146s.427.226.573.386c.148.16.255.342.323.547a2.013 2.013 0 0 1 0 1.271 1.483 1.483 0 0 1-.323.551c-.148.16-.339.288-.573.386s-.52.146-.855.146h-1.238v1.92h-1.177v-5.355h2.415zm-.322 2.52c.136 0 .265-.01.39-.03s.235-.059.33-.116c.095-.057.171-.139.229-.244s.087-.242.087-.412-.029-.307-.087-.412-.134-.187-.229-.243c-.095-.057-.205-.096-.33-.116s-.255-.03-.39-.03h-.915v1.605h.915zm8.645-9.482l-4.437-4.436C22.641.995 20.733.205 19.366.205H4.462a2.49 2.49 0 0 0-2.483 2.484v26.828a2.492 2.492 0 0 0 2.484 2.484h22.853a2.493 2.493 0 0 0 2.485-2.485V10.638c0-1.367-.791-3.275-1.757-4.24zm-1.406 1.406c.096.098.192.216.288.351h-5.076V3.079c.135.094.255.19.352.288l4.436 4.436zm1.174 21.714c0 .27-.227.497-.497.497H4.461a.504.504 0 0 1-.497-.497V2.689c0-.27.227-.497.497-.497h14.904c.151 0 .319.019.497.052v7.896h7.897c.034.178.052.348.052.497v18.879z"/></svg>