<?xml version="1.0" encoding="utf-8"?>
<!-- Generated by IcoMoon.io -->
<!DOCTYPE svg PUBLIC "-//W3C//DTD SVG 1.1//EN" "http://www.w3.org/Graphics/SVG/1.1/DTD/svg11.dtd">
<svg version="1.1" xmlns="http://www.w3.org/2000/svg" xmlns:xlink="http://www.w3.org/1999/xlink" width="32" height="32" viewBox="0 0 32 32">
<path d="M12.91 14.349h-2.648v-0.99h4.215v0.93l-2.873 3.435h2.947v0.99h-4.515v-0.93l2.873-3.435zM16.345 13.359v5.355h-1.177v-5.355h1.177zM19.72 13.359c0.335 0 0.619 0.049 0.855 0.146s0.427 0.226 0.573 0.386c0.148 0.16 0.255 0.342 0.323 0.547s0.102 0.418 0.102 0.637c0 0.215-0.034 0.427-0.102 0.634s-0.175 0.391-0.323 0.551c-0.148 0.16-0.339 0.288-0.573 0.386s-0.52 0.146-0.855 0.146h-1.238v1.92h-1.177v-5.355h2.415zM19.398 15.879c0.136 0 0.265-0.010 0.39-0.030s0.235-0.059 0.33-0.116c0.095-0.057 0.171-0.139 0.229-0.244s0.087-0.242 0.087-0.412-0.029-0.307-0.087-0.412-0.134-0.187-0.229-0.243c-0.095-0.057-0.205-0.096-0.33-0.116s-0.255-0.030-0.39-0.030h-0.915v1.605h0.915zM28.043 6.397l-4.437-4.436c-0.965-0.966-2.873-1.756-4.24-1.756h-14.904c-1.366 0-2.483 1.117-2.483 2.484v26.828c0 1.366 1.118 2.484 2.484 2.484h22.853c1.366 0 2.485-1.118 2.485-2.485v-18.878c-0-1.367-0.791-3.275-1.757-4.24zM26.637 7.803c0.096 0.098 0.192 0.216 0.288 0.351h-5.076v-5.075c0.135 0.094 0.255 0.19 0.352 0.288l4.436 4.436zM27.811 29.517c0 0.27-0.227 0.497-0.497 0.497h-22.853c-0.269 0-0.497-0.227-0.497-0.497v-26.828c0-0.27 0.227-0.497 0.497-0.497h14.904c0.151 0 0.319 0.019 0.497 0.052v7.896h7.897c0.034 0.178 0.052 0.348 0.052 0.497v18.879z"></path>
</svg>
